<svg xmlns="http://www.w3.org/2000/svg" width="1300" height="760" viewBox="0 0 1300 760">
<rect width="100%" height="100%" fill="white"/>
<style>
text { font-family: Arial, Helvetica, sans-serif; fill: #222; }
.title { font-size: 31px; font-weight: 700; }
.subtitle { font-size: 16px; fill: #555; }
.panel-title { font-size: 20px; font-weight: 700; }
.panel-subtitle { font-size: 13px; fill: #555; }
.axis { stroke: #222; stroke-width: 1; }
.grid { stroke: #dddddd; stroke-width: 1; }
.grid-v { stroke: #eeeeee; stroke-width: 1; }
.window-sep { stroke: #999999; stroke-width: 1.15; stroke-dasharray: 5 5; }
.tick { font-size: 12px; fill: #444; }
.mini-tick { font-size: 9px; fill: #777; }
.window-label { font-size: 11px; fill: #333; font-weight: 700; }
.nlabel { font-size: 11px; fill: #555; }
.axis-label { font-size: 15px; fill: #222; }
.legend { font-size: 17px; fill: #222; }
</style>
<text class="title" x="650.0" y="42" text-anchor="middle">All inverse 2-2 gaze across planning windows</text>
<text class="subtitle" x="650.0" y="70" text-anchor="middle">Clean AVP trials from the standard number-condition output; no error-form exclusion</text>
<line x1="870" x2="912" y1="92" y2="92" stroke="#CC3311" stroke-width="4"/>
<text class="legend" x="924" y="98">Agent</text>
<line x1="1025" x2="1067" y1="92" y2="92" stroke="#0077BB" stroke-width="4"/>
<text class="legend" x="1079" y="98">Patient</text>
<rect x="76.00" y="142.00" width="1170.00" height="560.00" fill="white"/>
<text class="panel-title" x="661.00" y="163.00" text-anchor="middle">All inverse 2-2</text>
<text class="panel-subtitle" x="661.00" y="183.00" text-anchor="middle">sent n=171; gaze n by window=163/163/163/163/163</text>
<line class="grid" x1="134.00" x2="1228.00" y1="652.00" y2="652.00"/>
<text class="tick" x="126.00" y="656.00" text-anchor="end">0</text>
<line class="grid" x1="134.00" x2="1228.00" y1="538.00" y2="538.00"/>
<text class="tick" x="126.00" y="542.00" text-anchor="end">0.25</text>
<line class="grid" x1="134.00" x2="1228.00" y1="424.00" y2="424.00"/>
<text class="tick" x="126.00" y="428.00" text-anchor="end">0.5</text>
<line class="grid" x1="134.00" x2="1228.00" y1="310.00" y2="310.00"/>
<text class="tick" x="126.00" y="314.00" text-anchor="end">0.75</text>
<line class="grid" x1="134.00" x2="1228.00" y1="196.00" y2="196.00"/>
<text class="tick" x="126.00" y="200.00" text-anchor="end">1</text>
<text class="window-label" x="243.40" y="674.00" text-anchor="middle">Planning</text>
<line class="grid-v" x1="134.00" x2="134.00" y1="196.00" y2="652.00"/>
<text class="mini-tick" x="134.00" y="660.00" text-anchor="middle">0</text>
<line class="grid-v" x1="243.40" x2="243.40" y1="196.00" y2="652.00"/>
<line class="grid-v" x1="352.80" x2="352.80" y1="196.00" y2="652.00"/>
<text class="mini-tick" x="352.80" y="660.00" text-anchor="middle">1</text>
<text class="nlabel" x="348.80" y="209.00" text-anchor="end">n=163</text>
<line class="window-sep" x1="352.80" x2="352.80" y1="196.00" y2="652.00"/>
<text class="window-label" x="462.20" y="674.00" text-anchor="middle">LE I</text>
<line class="grid-v" x1="352.80" x2="352.80" y1="196.00" y2="652.00"/>
<text class="mini-tick" x="352.80" y="660.00" text-anchor="middle">0</text>
<line class="grid-v" x1="462.20" x2="462.20" y1="196.00" y2="652.00"/>
<line class="grid-v" x1="571.60" x2="571.60" y1="196.00" y2="652.00"/>
<text class="mini-tick" x="571.60" y="660.00" text-anchor="middle">1</text>
<text class="nlabel" x="567.60" y="209.00" text-anchor="end">n=163</text>
<line class="window-sep" x1="571.60" x2="571.60" y1="196.00" y2="652.00"/>
<text class="window-label" x="681.00" y="674.00" text-anchor="middle">LE II</text>
<line class="grid-v" x1="571.60" x2="571.60" y1="196.00" y2="652.00"/>
<text class="mini-tick" x="571.60" y="660.00" text-anchor="middle">0</text>
<line class="grid-v" x1="681.00" x2="681.00" y1="196.00" y2="652.00"/>
<line class="grid-v" x1="790.40" x2="790.40" y1="196.00" y2="652.00"/>
<text class="mini-tick" x="790.40" y="660.00" text-anchor="middle">1</text>
<text class="nlabel" x="786.40" y="209.00" text-anchor="end">n=163</text>
<line class="window-sep" x1="790.40" x2="790.40" y1="196.00" y2="652.00"/>
<text class="window-label" x="899.80" y="674.00" text-anchor="middle">LE III</text>
<line class="grid-v" x1="790.40" x2="790.40" y1="196.00" y2="652.00"/>
<text class="mini-tick" x="790.40" y="660.00" text-anchor="middle">0</text>
<line class="grid-v" x1="899.80" x2="899.80" y1="196.00" y2="652.00"/>
<line class="grid-v" x1="1009.20" x2="1009.20" y1="196.00" y2="652.00"/>
<text class="mini-tick" x="1009.20" y="660.00" text-anchor="middle">1</text>
<text class="nlabel" x="1005.20" y="209.00" text-anchor="end">n=163</text>
<line class="window-sep" x1="1009.20" x2="1009.20" y1="196.00" y2="652.00"/>
<text class="window-label" x="1118.60" y="674.00" text-anchor="middle">Post 1-2.5s</text>
<line class="grid-v" x1="1009.20" x2="1009.20" y1="196.00" y2="652.00"/>
<text class="mini-tick" x="1009.20" y="660.00" text-anchor="middle">0</text>
<line class="grid-v" x1="1118.60" x2="1118.60" y1="196.00" y2="652.00"/>
<line class="grid-v" x1="1228.00" x2="1228.00" y1="196.00" y2="652.00"/>
<text class="mini-tick" x="1228.00" y="660.00" text-anchor="middle">1</text>
<text class="nlabel" x="1224.00" y="209.00" text-anchor="end">n=163</text>
<line class="axis" x1="134.00" x2="1228.00" y1="652.00" y2="652.00"/>
<line class="axis" x1="134.00" x2="134.00" y1="196.00" y2="652.00"/>
<polygon points="134.00,499.65 155.88,501.99 177.76,458.34 199.64,425.55 221.52,422.97 243.40,428.89 265.28,436.39 287.16,443.61 309.04,414.08 330.92,382.05 352.80,372.75 352.80,441.79 330.92,451.51 309.04,480.58 287.16,510.92 265.28,503.26 243.40,497.89 221.52,492.06 199.64,494.63 177.76,522.15 155.88,556.72 134.00,560.52" fill="#CC3311" opacity="0.10"/>
<path d="M134.00,530.08 L155.88,529.36 L177.76,490.25 L199.64,460.09 L221.52,457.51 L243.40,463.39 L265.28,469.82 L287.16,477.27 L309.04,447.33 L330.92,416.78 L352.80,407.27" fill="none" stroke="#CC3311" stroke-width="2.35" stroke-linejoin="round" stroke-linecap="round"/>
<polygon points="352.80,372.62 363.74,367.45 374.68,378.44 385.62,341.90 396.56,306.32 407.50,320.19 418.44,316.40 429.38,297.14 440.32,282.63 451.26,292.79 462.20,302.58 473.14,299.30 484.08,282.76 495.02,287.69 505.96,287.18 516.90,315.92 527.84,311.12 538.78,303.99 549.72,303.77 560.66,312.13 571.60,295.62 571.60,359.41 560.66,378.22 549.72,366.69 538.78,367.18 527.84,377.77 516.90,379.09 505.96,350.76 495.02,347.12 484.08,342.71 473.14,361.82 462.20,367.31 451.26,352.29 440.32,344.15 429.38,356.37 418.44,383.57 407.50,385.56 396.56,369.06 385.62,409.27 374.68,445.71 363.74,470.96 352.80,441.75" fill="#CC3311" opacity="0.10"/>
<path d="M352.80,407.19 L363.74,419.21 L374.68,412.07 L385.62,375.59 L396.56,337.69 L407.50,352.87 L418.44,349.99 L429.38,326.76 L440.32,313.39 L451.26,322.54 L462.20,334.95 L473.14,330.56 L484.08,312.74 L495.02,317.40 L505.96,318.97 L516.90,347.51 L527.84,344.44 L538.78,335.59 L549.72,335.23 L560.66,345.18 L571.60,327.52" fill="none" stroke="#CC3311" stroke-width="2.35" stroke-linejoin="round" stroke-linecap="round"/>
<polygon points="571.60,289.51 582.54,308.72 593.48,294.65 604.42,289.69 615.36,297.83 626.30,299.16 637.24,299.85 648.18,308.53 659.12,296.00 670.06,287.81 681.00,282.35 691.94,287.99 702.88,271.81 713.82,277.86 724.76,292.70 735.70,279.49 746.64,289.10 757.58,297.59 768.52,306.46 779.46,328.75 790.40,317.80 790.40,383.73 779.46,395.68 768.52,369.50 757.58,359.71 746.64,352.06 735.70,336.77 724.76,354.78 713.82,336.88 702.88,328.35 691.94,349.41 681.00,343.86 670.06,346.49 659.12,361.18 648.18,371.39 637.24,364.34 626.30,359.86 615.36,360.38 604.42,351.14 593.48,355.09 582.54,404.82 571.60,349.57" fill="#CC3311" opacity="0.10"/>
<path d="M571.60,319.54 L582.54,356.77 L593.48,324.87 L604.42,320.42 L615.36,329.11 L626.30,329.51 L637.24,332.10 L648.18,339.96 L659.12,328.59 L670.06,317.15 L681.00,313.11 L691.94,318.70 L702.88,300.08 L713.82,307.37 L724.76,323.74 L735.70,308.13 L746.64,320.58 L757.58,328.65 L768.52,337.98 L779.46,362.22 L790.40,350.77" fill="none" stroke="#CC3311" stroke-width="2.35" stroke-linejoin="round" stroke-linecap="round"/>
<polygon points="790.40,352.29 801.34,360.74 812.28,371.04 823.22,366.27 834.16,368.54 845.10,376.25 856.04,382.91 866.98,383.17 877.92,374.88 888.86,380.05 899.80,387.66 910.74,394.22 921.68,400.67 932.62,405.94 943.56,406.45 954.50,403.14 965.44,408.70 976.38,407.58 987.32,412.55 998.26,422.33 1009.20,440.83 1009.20,507.66 998.26,490.91 987.32,481.22 976.38,477.12 965.44,477.79 954.50,473.29 943.56,475.56 932.62,476.08 921.68,471.17 910.74,464.85 899.80,457.99 888.86,450.05 877.92,445.48 866.98,453.30 856.04,452.90 845.10,446.12 834.16,438.61 823.22,435.17 812.28,440.14 801.34,429.52 790.40,420.41" fill="#CC3311" opacity="0.10"/>
<path d="M790.40,386.35 L801.34,395.13 L812.28,405.59 L823.22,400.72 L834.16,403.58 L845.10,411.19 L856.04,417.90 L866.98,418.24 L877.92,410.18 L888.86,415.05 L899.80,422.82 L910.74,429.54 L921.68,435.92 L932.62,441.01 L943.56,441.01 L954.50,438.21 L965.44,443.25 L976.38,442.35 L987.32,446.88 L998.26,456.62 L1009.20,474.24" fill="none" stroke="#CC3311" stroke-width="2.35" stroke-linejoin="round" stroke-linecap="round"/>
<polygon points="1009.20,440.83 1016.49,457.46 1023.79,469.93 1031.08,477.68 1038.37,479.64 1045.67,478.29 1052.96,487.98 1060.25,491.78 1067.55,510.85 1074.84,518.77 1082.13,524.73 1089.43,523.16 1096.72,525.92 1104.01,521.41 1111.31,523.77 1118.60,524.72 1125.89,525.37 1133.19,531.41 1140.48,541.02 1147.77,545.60 1155.07,543.66 1162.36,547.08 1169.65,531.79 1176.95,525.20 1184.24,533.15 1191.53,538.00 1198.83,539.88 1206.12,536.50 1213.41,548.73 1220.71,545.53 1228.00,551.73 1228.00,604.00 1220.71,599.12 1213.41,600.62 1206.12,592.26 1198.83,594.59 1191.53,593.22 1184.24,589.23 1176.95,583.42 1169.65,587.69 1162.36,599.92 1155.07,597.19 1147.77,598.94 1140.48,595.47 1133.19,586.94 1125.89,583.36 1118.60,581.77 1111.31,581.38 1104.01,580.72 1096.72,581.81 1089.43,581.77 1082.13,581.65 1074.84,577.43 1067.55,570.01 1060.25,554.74 1052.96,550.92 1045.67,543.83 1038.37,544.60 1031.08,542.31 1023.79,535.85 1016.49,523.93 1009.20,507.66" fill="#CC3311" opacity="0.10"/>
<path d="M1009.20,474.24 L1016.49,490.69 L1023.79,502.89 L1031.08,510.00 L1038.37,512.12 L1045.67,511.06 L1052.96,519.45 L1060.25,523.26 L1067.55,540.43 L1074.84,548.10 L1082.13,553.19 L1089.43,552.46 L1096.72,553.86 L1104.01,551.06 L1111.31,552.58 L1118.60,553.25 L1125.89,554.37 L1133.19,559.18 L1140.48,568.24 L1147.77,572.27 L1155.07,570.42 L1162.36,573.50 L1169.65,559.74 L1176.95,554.31 L1184.24,561.19 L1191.53,565.61 L1198.83,567.23 L1206.12,564.38 L1213.41,574.68 L1220.71,572.33 L1228.00,577.86" fill="none" stroke="#CC3311" stroke-width="2.35" stroke-linejoin="round" stroke-linecap="round"/>
<polygon points="134.00,621.56 155.88,566.35 177.76,481.32 199.64,418.30 221.52,393.53 243.40,377.57 265.28,369.34 287.16,358.83 309.04,397.29 330.92,433.08 352.80,449.58 352.80,517.26 330.92,501.19 309.04,464.02 287.16,426.95 265.28,438.38 243.40,446.26 221.52,463.98 199.64,486.77 177.76,543.15 155.88,608.52 134.00,648.53" fill="#0077BB" opacity="0.10"/>
<path d="M134.00,635.05 L155.88,587.43 L177.76,512.23 L199.64,452.54 L221.52,428.76 L243.40,411.91 L265.28,403.86 L287.16,392.89 L309.04,430.66 L330.92,467.14 L352.80,483.42" fill="none" stroke="#0077BB" stroke-width="2.35" stroke-linejoin="round" stroke-linecap="round"/>
<polygon points="352.80,449.82 363.74,417.79 374.68,465.55 385.62,502.18 396.56,535.50 407.50,524.34 418.44,545.94 429.38,557.52 440.32,560.30 451.26,568.30 462.20,552.25 473.14,566.40 484.08,573.02 495.02,560.97 505.96,548.44 516.90,528.81 527.84,532.19 538.78,541.49 549.72,537.91 560.66,537.55 571.60,557.23 571.60,607.86 560.66,592.15 549.72,592.54 538.78,595.51 527.84,589.18 516.90,584.25 505.96,601.87 495.02,608.59 484.08,618.78 473.14,613.61 462.20,605.02 451.26,613.31 440.32,610.29 429.38,605.54 418.44,600.45 407.50,581.08 396.56,589.14 385.62,562.34 374.68,529.45 363.74,518.14 352.80,517.57" fill="#0077BB" opacity="0.10"/>
<path d="M352.80,483.69 L363.74,467.96 L374.68,497.50 L385.62,532.26 L396.56,562.32 L407.50,552.71 L418.44,573.19 L429.38,581.53 L440.32,585.30 L451.26,590.80 L462.20,578.63 L473.14,590.01 L484.08,595.90 L495.02,584.78 L505.96,575.16 L516.90,556.53 L527.84,560.69 L538.78,568.50 L549.72,565.23 L560.66,564.85 L571.60,582.55" fill="none" stroke="#0077BB" stroke-width="2.35" stroke-linejoin="round" stroke-linecap="round"/>
<polygon points="571.60,575.05 582.54,520.69 593.48,573.24 604.42,564.93 615.36,577.31 626.30,581.95 637.24,571.20 648.18,557.64 659.12,578.72 670.06,591.76 681.00,579.19 691.94,581.87 702.88,586.37 713.82,570.62 724.76,570.35 735.70,579.79 746.64,573.15 757.58,567.70 768.52,554.34 779.46,533.84 790.40,536.76 790.40,591.50 779.46,589.50 768.52,604.17 757.58,614.52 746.64,619.57 735.70,621.84 724.76,617.73 713.82,616.76 702.88,627.53 691.94,625.00 681.00,624.20 670.06,630.47 659.12,623.32 648.18,607.02 637.24,618.45 626.30,623.94 615.36,621.71 604.42,612.40 593.48,618.30 582.54,601.61 571.60,619.73" fill="#0077BB" opacity="0.10"/>
<path d="M571.60,597.39 L582.54,561.15 L593.48,595.77 L604.42,588.67 L615.36,599.51 L626.30,602.95 L637.24,594.82 L648.18,582.33 L659.12,601.02 L670.06,611.12 L681.00,601.69 L691.94,603.43 L702.88,606.95 L713.82,593.69 L724.76,594.04 L735.70,600.81 L746.64,596.36 L757.58,591.11 L768.52,579.26 L779.46,561.67 L790.40,564.13" fill="none" stroke="#0077BB" stroke-width="2.35" stroke-linejoin="round" stroke-linecap="round"/>
<polygon points="790.40,507.34 801.34,494.58 812.28,480.31 823.22,488.62 834.16,481.85 845.10,464.11 856.04,455.49 866.98,464.58 877.92,474.75 888.86,459.79 899.80,447.99 910.74,454.50 921.68,465.86 932.62,468.51 943.56,456.42 954.50,453.95 965.44,448.90 976.38,452.86 987.32,440.94 998.26,431.83 1009.20,404.05 1009.20,473.27 998.26,499.65 987.32,508.21 976.38,520.25 965.44,516.14 954.50,521.06 943.56,522.95 932.62,534.70 921.68,531.30 910.74,521.29 899.80,515.72 888.86,525.40 877.92,539.98 866.98,531.36 856.04,522.32 845.10,530.15 834.16,546.09 823.22,552.08 812.28,544.16 801.34,556.86 790.40,568.29" fill="#0077BB" opacity="0.10"/>
<path d="M790.40,537.81 L801.34,525.72 L812.28,512.23 L823.22,520.35 L834.16,513.97 L845.10,497.13 L856.04,488.90 L866.98,497.97 L877.92,507.37 L888.86,492.60 L899.80,481.85 L910.74,487.90 L921.68,498.58 L932.62,501.60 L943.56,489.69 L954.50,487.50 L965.44,482.52 L976.38,486.55 L987.32,474.58 L998.26,465.74 L1009.20,438.66" fill="none" stroke="#0077BB" stroke-width="2.35" stroke-linejoin="round" stroke-linecap="round"/>
<polygon points="1009.20,404.05 1016.49,398.22 1023.79,395.58 1031.08,396.83 1038.37,385.39 1045.67,376.05 1052.96,375.36 1060.25,376.02 1067.55,367.73 1074.84,354.00 1082.13,359.31 1089.43,364.31 1096.72,356.13 1104.01,350.69 1111.31,350.29 1118.60,347.65 1125.89,339.26 1133.19,332.65 1140.48,332.27 1147.77,336.38 1155.07,331.95 1162.36,329.82 1169.65,333.11 1176.95,329.28 1184.24,332.55 1191.53,340.19 1198.83,339.96 1206.12,343.49 1213.41,325.45 1220.71,312.00 1228.00,309.99 1228.00,374.52 1220.71,378.21 1213.41,391.85 1206.12,411.52 1198.83,408.00 1191.53,407.55 1184.24,399.07 1176.95,397.31 1169.65,399.07 1162.36,395.65 1155.07,397.99 1147.77,404.76 1140.48,399.24 1133.19,399.87 1125.89,407.24 1118.60,415.75 1111.31,419.04 1104.01,418.65 1096.72,423.50 1089.43,433.78 1082.13,428.48 1074.84,422.16 1067.55,436.18 1060.25,446.47 1052.96,444.55 1045.67,445.88 1038.37,455.34 1031.08,466.05 1023.79,466.07 1016.49,467.12 1009.20,473.27" fill="#0077BB" opacity="0.10"/>
<path d="M1009.20,438.66 L1016.49,432.67 L1023.79,430.83 L1031.08,431.44 L1038.37,420.36 L1045.67,410.96 L1052.96,409.96 L1060.25,411.24 L1067.55,401.96 L1074.84,388.08 L1082.13,393.90 L1089.43,399.05 L1096.72,389.81 L1104.01,384.67 L1111.31,384.67 L1118.60,381.70 L1125.89,373.25 L1133.19,366.26 L1140.48,365.76 L1147.77,370.57 L1155.07,364.97 L1162.36,362.73 L1169.65,366.09 L1176.95,363.29 L1184.24,365.81 L1191.53,373.87 L1198.83,373.98 L1206.12,377.50 L1213.41,358.65 L1220.71,345.11 L1228.00,342.26" fill="none" stroke="#0077BB" stroke-width="2.35" stroke-linejoin="round" stroke-linecap="round"/>
<text class="axis-label" x="31" y="422.0" text-anchor="middle" transform="rotate(-90 31 422.0)">Proportion of looks</text>
</svg>