<svg xmlns="http://www.w3.org/2000/svg" width="1920" height="1320" viewBox="0 0 1920 1320">
<image href="https://raw.githubusercontent.com/mkurg/koryak/main/stimuli/Animate-animate%20centered%20and%20flipped/wake-2-2-r.png" x="0" y="0" width="1920" height="1080" preserveAspectRatio="none"/>
<rect x="0" y="0" width="1920" height="1080" fill="none" stroke="#111" stroke-width="2"/>
<rect x="0" y="1080" width="1920" height="240" fill="#f7f7f7"/>
<rect x="970.0" y="100.0" width="850" height="850" fill="none" stroke="#00B8D9" stroke-width="6" stroke-dasharray="18 12"/>
<rect x="982.0" y="62.0" width="102.0" height="38" rx="6" fill="white" fill-opacity="0.86" stroke="#00B8D9" stroke-width="3"/>
<text x="992.0" y="88.0" font-family="Arial, Helvetica, sans-serif" font-size="24" font-weight="700" fill="#111">AGENT</text>
<rect x="40.0" y="100.0" width="850" height="850" fill="none" stroke="#FF3B8A" stroke-width="6" stroke-dasharray="18 12"/>
<rect x="52.0" y="62.0" width="134.0" height="38" rx="6" fill="white" fill-opacity="0.86" stroke="#FF3B8A" stroke-width="3"/>
<text x="62.0" y="88.0" font-family="Arial, Helvetica, sans-serif" font-size="24" font-weight="700" fill="#111">PATIENT</text>
<polyline points="1018.7,471.7 1153.5,387.0 577.9,516.7 608.7,529.5 366.4,559.3 1215.3,399.1 1126.4,379.7 1096.5,386.2 1376.9,385.6 1354.3,386.7 1389.3,378.0 962.0,387.4 1080.1,414.6 533.4,520.0 586.3,507.2 1068.5,753.2 1190.5,811.7 520.1,698.8 427.3,704.7 272.4,721.3 282.3,704.1 228.3,672.6 406.5,697.9 616.3,742.7 615.8,635.8 640.5,626.0 588.7,535.7 977.3,663.9 608.4,663.1 505.5,695.3 551.4,683.1 482.7,670.2 611.7,652.9 681.3,651.8 594.2,609.5 574.1,553.7 607.1,513.8 482.7,553.3 456.6,633.6 339.9,590.2 320.0,561.3 427.1,544.2 568.5,539.1 542.3,536.7 599.1,534.0 522.8,535.1 597.0,529.6 632.4,599.7 552.2,590.6 1146.6,485.6 776.0,457.3 555.5,546.3 624.5,484.1 632.1,615.6 699.9,514.3 617.5,522.5 583.3,493.5 1160.7,406.1 1134.2,386.9 981.7,443.0 894.7,801.5 1234.5,873.4 497.4,643.7 609.8,770.6 981.4,541.1 1081.9,538.8 568.8,565.8 520.5,644.7 236.4,686.1 365.2,672.6 269.8,657.9 643.0,530.0 1202.0,461.3 900.5,549.8 1257.4,451.6 593.9,713.3 981.4,538.6 1113.6,517.6 522.6,616.8 608.2,724.6 1212.1,525.9 883.7,702.6 630.1,736.6 999.7,558.7 509.5,602.9 873.6,654.1 1227.2,589.9 1096.8,84.3 1340.7,316.8 1156.0,428.0 1264.8,392.0 1162.1,406.3 1094.8,550.0 1197.1,460.0 1177.5,394.7 1195.6,340.7 1058.3,389.7 1152.8,374.0 1099.7,368.3 1169.1,387.0 959.7,486.8 1209.9,402.7 571.8,479.4 946.8,460.9 1185.4,488.7 965.1,469.3 1211.1,401.6 1114.2,390.6 1120.1,481.9 935.6,579.5 1197.2,497.9 935.3,461.5 1086.2,466.6 912.5,483.3 1013.6,465.3 1092.7,422.4 961.6,472.2 1096.1,436.4 594.1,547.1" fill="none" stroke="#111" stroke-width="4" stroke-opacity="0.36" stroke-linejoin="round"/>
<circle cx="1018.7" cy="471.7" r="12.5" fill="white" fill-opacity="0.84"/>
<circle cx="1018.7" cy="471.7" r="9.5" fill="#7A3CE8" fill-opacity="0.66" stroke="#111" stroke-width="2.5"/>
<text x="1018.7" y="478.7" text-anchor="middle" font-family="Arial, Helvetica, sans-serif" font-size="21" font-weight="800" fill="white" stroke="#111" stroke-width="3" paint-order="stroke">1</text>
<circle cx="1153.5" cy="387.0" r="15.8" fill="white" fill-opacity="0.84"/>
<circle cx="1153.5" cy="387.0" r="12.8" fill="#7A3CE8" fill-opacity="0.66" stroke="#111" stroke-width="2.5"/>
<text x="1153.5" y="394.0" text-anchor="middle" font-family="Arial, Helvetica, sans-serif" font-size="21" font-weight="800" fill="white" stroke="#111" stroke-width="3" paint-order="stroke">2</text>
<circle cx="577.9" cy="516.7" r="17.0" fill="white" fill-opacity="0.84"/>
<circle cx="577.9" cy="516.7" r="14.0" fill="#7A3CE8" fill-opacity="0.66" stroke="#111" stroke-width="2.5"/>
<text x="577.9" y="523.7" text-anchor="middle" font-family="Arial, Helvetica, sans-serif" font-size="21" font-weight="800" fill="white" stroke="#111" stroke-width="3" paint-order="stroke">3</text>
<circle cx="608.7" cy="529.5" r="18.1" fill="white" fill-opacity="0.84"/>
<circle cx="608.7" cy="529.5" r="15.1" fill="#7A3CE8" fill-opacity="0.66" stroke="#111" stroke-width="2.5"/>
<text x="608.7" y="536.5" text-anchor="middle" font-family="Arial, Helvetica, sans-serif" font-size="21" font-weight="800" fill="white" stroke="#111" stroke-width="3" paint-order="stroke">4</text>
<circle cx="366.4" cy="559.3" r="18.6" fill="white" fill-opacity="0.84"/>
<circle cx="366.4" cy="559.3" r="15.6" fill="#7A3CE8" fill-opacity="0.66" stroke="#111" stroke-width="2.5"/>
<text x="366.4" y="566.3" text-anchor="middle" font-family="Arial, Helvetica, sans-serif" font-size="21" font-weight="800" fill="white" stroke="#111" stroke-width="3" paint-order="stroke">5</text>
<circle cx="1215.3" cy="399.1" r="16.3" fill="white" fill-opacity="0.84"/>
<circle cx="1215.3" cy="399.1" r="13.3" fill="#7A3CE8" fill-opacity="0.66" stroke="#111" stroke-width="2.5"/>
<text x="1215.3" y="406.1" text-anchor="middle" font-family="Arial, Helvetica, sans-serif" font-size="21" font-weight="800" fill="white" stroke="#111" stroke-width="3" paint-order="stroke">6</text>
<circle cx="1126.4" cy="379.7" r="18.3" fill="white" fill-opacity="0.84"/>
<circle cx="1126.4" cy="379.7" r="15.3" fill="#7A3CE8" fill-opacity="0.66" stroke="#111" stroke-width="2.5"/>
<text x="1126.4" y="386.7" text-anchor="middle" font-family="Arial, Helvetica, sans-serif" font-size="21" font-weight="800" fill="white" stroke="#111" stroke-width="3" paint-order="stroke">7</text>
<circle cx="1096.5" cy="386.2" r="15.3" fill="white" fill-opacity="0.84"/>
<circle cx="1096.5" cy="386.2" r="12.3" fill="#7A3CE8" fill-opacity="0.66" stroke="#111" stroke-width="2.5"/>
<text x="1096.5" y="393.2" text-anchor="middle" font-family="Arial, Helvetica, sans-serif" font-size="21" font-weight="800" fill="white" stroke="#111" stroke-width="3" paint-order="stroke">8</text>
<circle cx="1376.9" cy="385.6" r="19.0" fill="white" fill-opacity="0.84"/>
<circle cx="1376.9" cy="385.6" r="16.0" fill="#7A3CE8" fill-opacity="0.66" stroke="#111" stroke-width="2.5"/>
<text x="1376.9" y="392.6" text-anchor="middle" font-family="Arial, Helvetica, sans-serif" font-size="21" font-weight="800" fill="white" stroke="#111" stroke-width="3" paint-order="stroke">9</text>
<circle cx="1354.3" cy="386.7" r="19.5" fill="white" fill-opacity="0.84"/>
<circle cx="1354.3" cy="386.7" r="16.5" fill="#7A3CE8" fill-opacity="0.66" stroke="#111" stroke-width="2.5"/>
<text x="1354.3" y="393.7" text-anchor="middle" font-family="Arial, Helvetica, sans-serif" font-size="21" font-weight="800" fill="white" stroke="#111" stroke-width="3" paint-order="stroke">10</text>
<circle cx="1389.3" cy="378.0" r="17.8" fill="white" fill-opacity="0.84"/>
<circle cx="1389.3" cy="378.0" r="14.8" fill="#7A3CE8" fill-opacity="0.66" stroke="#111" stroke-width="2.5"/>
<text x="1389.3" y="385.0" text-anchor="middle" font-family="Arial, Helvetica, sans-serif" font-size="21" font-weight="800" fill="white" stroke="#111" stroke-width="3" paint-order="stroke">11</text>
<circle cx="962.0" cy="387.4" r="16.0" fill="white" fill-opacity="0.84"/>
<circle cx="962.0" cy="387.4" r="13.0" fill="#7A3CE8" fill-opacity="0.66" stroke="#111" stroke-width="2.5"/>
<text x="962.0" y="394.4" text-anchor="middle" font-family="Arial, Helvetica, sans-serif" font-size="21" font-weight="800" fill="white" stroke="#111" stroke-width="3" paint-order="stroke">12</text>
<circle cx="1080.1" cy="414.6" r="15.9" fill="white" fill-opacity="0.84"/>
<circle cx="1080.1" cy="414.6" r="12.9" fill="#7A3CE8" fill-opacity="0.66" stroke="#111" stroke-width="2.5"/>
<text x="1080.1" y="421.6" text-anchor="middle" font-family="Arial, Helvetica, sans-serif" font-size="21" font-weight="800" fill="white" stroke="#111" stroke-width="3" paint-order="stroke">13</text>
<circle cx="533.4" cy="520.0" r="16.0" fill="white" fill-opacity="0.84"/>
<circle cx="533.4" cy="520.0" r="13.0" fill="#7A3CE8" fill-opacity="0.66" stroke="#111" stroke-width="2.5"/>
<text x="533.4" y="527.0" text-anchor="middle" font-family="Arial, Helvetica, sans-serif" font-size="21" font-weight="800" fill="white" stroke="#111" stroke-width="3" paint-order="stroke">14</text>
<circle cx="586.3" cy="507.2" r="19.1" fill="white" fill-opacity="0.84"/>
<circle cx="586.3" cy="507.2" r="16.1" fill="#7A3CE8" fill-opacity="0.66" stroke="#111" stroke-width="2.5"/>
<text x="586.3" y="514.2" text-anchor="middle" font-family="Arial, Helvetica, sans-serif" font-size="21" font-weight="800" fill="white" stroke="#111" stroke-width="3" paint-order="stroke">15</text>
<circle cx="1068.5" cy="753.2" r="15.2" fill="white" fill-opacity="0.84"/>
<circle cx="1068.5" cy="753.2" r="12.2" fill="#7A3CE8" fill-opacity="0.66" stroke="#111" stroke-width="2.5"/>
<text x="1068.5" y="760.2" text-anchor="middle" font-family="Arial, Helvetica, sans-serif" font-size="21" font-weight="800" fill="white" stroke="#111" stroke-width="3" paint-order="stroke">16</text>
<circle cx="1190.5" cy="811.7" r="19.0" fill="white" fill-opacity="0.84"/>
<circle cx="1190.5" cy="811.7" r="16.0" fill="#7A3CE8" fill-opacity="0.66" stroke="#111" stroke-width="2.5"/>
<text x="1190.5" y="818.7" text-anchor="middle" font-family="Arial, Helvetica, sans-serif" font-size="21" font-weight="800" fill="white" stroke="#111" stroke-width="3" paint-order="stroke">17</text>
<circle cx="520.1" cy="698.8" r="22.3" fill="white" fill-opacity="0.84"/>
<circle cx="520.1" cy="698.8" r="19.3" fill="#7A3CE8" fill-opacity="0.66" stroke="#111" stroke-width="2.5"/>
<text x="520.1" y="705.8" text-anchor="middle" font-family="Arial, Helvetica, sans-serif" font-size="21" font-weight="800" fill="white" stroke="#111" stroke-width="3" paint-order="stroke">18</text>
<circle cx="427.3" cy="704.7" r="16.4" fill="white" fill-opacity="0.84"/>
<circle cx="427.3" cy="704.7" r="13.4" fill="#7A3CE8" fill-opacity="0.66" stroke="#111" stroke-width="2.5"/>
<text x="427.3" y="711.7" text-anchor="middle" font-family="Arial, Helvetica, sans-serif" font-size="21" font-weight="800" fill="white" stroke="#111" stroke-width="3" paint-order="stroke">19</text>
<circle cx="272.4" cy="721.3" r="17.7" fill="white" fill-opacity="0.84"/>
<circle cx="272.4" cy="721.3" r="14.7" fill="#7A3CE8" fill-opacity="0.66" stroke="#111" stroke-width="2.5"/>
<text x="272.4" y="728.3" text-anchor="middle" font-family="Arial, Helvetica, sans-serif" font-size="21" font-weight="800" fill="white" stroke="#111" stroke-width="3" paint-order="stroke">20</text>
<circle cx="282.3" cy="704.1" r="18.0" fill="white" fill-opacity="0.84"/>
<circle cx="282.3" cy="704.1" r="15.0" fill="#7A3CE8" fill-opacity="0.66" stroke="#111" stroke-width="2.5"/>
<text x="282.3" y="711.1" text-anchor="middle" font-family="Arial, Helvetica, sans-serif" font-size="21" font-weight="800" fill="white" stroke="#111" stroke-width="3" paint-order="stroke">21</text>
<circle cx="228.3" cy="672.6" r="18.0" fill="white" fill-opacity="0.84"/>
<circle cx="228.3" cy="672.6" r="15.0" fill="#7A3CE8" fill-opacity="0.66" stroke="#111" stroke-width="2.5"/>
<text x="228.3" y="679.6" text-anchor="middle" font-family="Arial, Helvetica, sans-serif" font-size="21" font-weight="800" fill="white" stroke="#111" stroke-width="3" paint-order="stroke">22</text>
<circle cx="406.5" cy="697.9" r="17.0" fill="white" fill-opacity="0.84"/>
<circle cx="406.5" cy="697.9" r="14.0" fill="#7A3CE8" fill-opacity="0.66" stroke="#111" stroke-width="2.5"/>
<text x="406.5" y="704.9" text-anchor="middle" font-family="Arial, Helvetica, sans-serif" font-size="21" font-weight="800" fill="white" stroke="#111" stroke-width="3" paint-order="stroke">23</text>
<circle cx="616.3" cy="742.7" r="16.7" fill="white" fill-opacity="0.84"/>
<circle cx="616.3" cy="742.7" r="13.7" fill="#7A3CE8" fill-opacity="0.66" stroke="#111" stroke-width="2.5"/>
<text x="616.3" y="749.7" text-anchor="middle" font-family="Arial, Helvetica, sans-serif" font-size="21" font-weight="800" fill="white" stroke="#111" stroke-width="3" paint-order="stroke">24</text>
<circle cx="615.8" cy="635.8" r="25.8" fill="white" fill-opacity="0.84"/>
<circle cx="615.8" cy="635.8" r="22.8" fill="#7A3CE8" fill-opacity="0.66" stroke="#111" stroke-width="2.5"/>
<text x="615.8" y="642.8" text-anchor="middle" font-family="Arial, Helvetica, sans-serif" font-size="21" font-weight="800" fill="white" stroke="#111" stroke-width="3" paint-order="stroke">25</text>
<circle cx="640.5" cy="626.0" r="20.5" fill="white" fill-opacity="0.84"/>
<circle cx="640.5" cy="626.0" r="17.5" fill="#7A3CE8" fill-opacity="0.66" stroke="#111" stroke-width="2.5"/>
<text x="640.5" y="633.0" text-anchor="middle" font-family="Arial, Helvetica, sans-serif" font-size="21" font-weight="800" fill="white" stroke="#111" stroke-width="3" paint-order="stroke">26</text>
<circle cx="588.7" cy="535.7" r="21.5" fill="white" fill-opacity="0.84"/>
<circle cx="588.7" cy="535.7" r="18.5" fill="#7A3CE8" fill-opacity="0.66" stroke="#111" stroke-width="2.5"/>
<text x="588.7" y="542.7" text-anchor="middle" font-family="Arial, Helvetica, sans-serif" font-size="21" font-weight="800" fill="white" stroke="#111" stroke-width="3" paint-order="stroke">27</text>
<circle cx="977.3" cy="663.9" r="18.7" fill="white" fill-opacity="0.84"/>
<circle cx="977.3" cy="663.9" r="15.7" fill="#7A3CE8" fill-opacity="0.66" stroke="#111" stroke-width="2.5"/>
<text x="977.3" y="670.9" text-anchor="middle" font-family="Arial, Helvetica, sans-serif" font-size="21" font-weight="800" fill="white" stroke="#111" stroke-width="3" paint-order="stroke">28</text>
<circle cx="608.4" cy="663.1" r="20.4" fill="white" fill-opacity="0.84"/>
<circle cx="608.4" cy="663.1" r="17.4" fill="#7A3CE8" fill-opacity="0.66" stroke="#111" stroke-width="2.5"/>
<text x="608.4" y="670.1" text-anchor="middle" font-family="Arial, Helvetica, sans-serif" font-size="21" font-weight="800" fill="white" stroke="#111" stroke-width="3" paint-order="stroke">29</text>
<circle cx="505.5" cy="695.3" r="23.7" fill="white" fill-opacity="0.84"/>
<circle cx="505.5" cy="695.3" r="20.7" fill="#7A3CE8" fill-opacity="0.66" stroke="#111" stroke-width="2.5"/>
<text x="505.5" y="702.3" text-anchor="middle" font-family="Arial, Helvetica, sans-serif" font-size="21" font-weight="800" fill="white" stroke="#111" stroke-width="3" paint-order="stroke">30</text>
<circle cx="551.4" cy="683.1" r="21.6" fill="white" fill-opacity="0.84"/>
<circle cx="551.4" cy="683.1" r="18.6" fill="#7A3CE8" fill-opacity="0.66" stroke="#111" stroke-width="2.5"/>
<text x="551.4" y="690.1" text-anchor="middle" font-family="Arial, Helvetica, sans-serif" font-size="21" font-weight="800" fill="white" stroke="#111" stroke-width="3" paint-order="stroke">31</text>
<circle cx="482.7" cy="670.2" r="13.9" fill="white" fill-opacity="0.84"/>
<circle cx="482.7" cy="670.2" r="10.9" fill="#7A3CE8" fill-opacity="0.66" stroke="#111" stroke-width="2.5"/>
<text x="482.7" y="677.2" text-anchor="middle" font-family="Arial, Helvetica, sans-serif" font-size="21" font-weight="800" fill="white" stroke="#111" stroke-width="3" paint-order="stroke">32</text>
<circle cx="611.7" cy="652.9" r="20.1" fill="white" fill-opacity="0.84"/>
<circle cx="611.7" cy="652.9" r="17.1" fill="#7A3CE8" fill-opacity="0.66" stroke="#111" stroke-width="2.5"/>
<text x="611.7" y="659.9" text-anchor="middle" font-family="Arial, Helvetica, sans-serif" font-size="21" font-weight="800" fill="white" stroke="#111" stroke-width="3" paint-order="stroke">33</text>
<circle cx="681.3" cy="651.8" r="21.4" fill="white" fill-opacity="0.84"/>
<circle cx="681.3" cy="651.8" r="18.4" fill="#7A3CE8" fill-opacity="0.66" stroke="#111" stroke-width="2.5"/>
<text x="681.3" y="658.8" text-anchor="middle" font-family="Arial, Helvetica, sans-serif" font-size="21" font-weight="800" fill="white" stroke="#111" stroke-width="3" paint-order="stroke">34</text>
<circle cx="594.2" cy="609.5" r="18.9" fill="white" fill-opacity="0.84"/>
<circle cx="594.2" cy="609.5" r="15.9" fill="#7A3CE8" fill-opacity="0.66" stroke="#111" stroke-width="2.5"/>
<text x="594.2" y="616.5" text-anchor="middle" font-family="Arial, Helvetica, sans-serif" font-size="21" font-weight="800" fill="white" stroke="#111" stroke-width="3" paint-order="stroke">35</text>
<circle cx="574.1" cy="553.7" r="12.5" fill="white" fill-opacity="0.84"/>
<circle cx="574.1" cy="553.7" r="9.5" fill="#7A3CE8" fill-opacity="0.66" stroke="#111" stroke-width="2.5"/>
<text x="574.1" y="560.7" text-anchor="middle" font-family="Arial, Helvetica, sans-serif" font-size="21" font-weight="800" fill="white" stroke="#111" stroke-width="3" paint-order="stroke">36</text>
<circle cx="607.1" cy="513.8" r="22.1" fill="white" fill-opacity="0.84"/>
<circle cx="607.1" cy="513.8" r="19.1" fill="#7A3CE8" fill-opacity="0.66" stroke="#111" stroke-width="2.5"/>
<text x="607.1" y="520.8" text-anchor="middle" font-family="Arial, Helvetica, sans-serif" font-size="21" font-weight="800" fill="white" stroke="#111" stroke-width="3" paint-order="stroke">37</text>
<circle cx="482.7" cy="553.3" r="17.2" fill="white" fill-opacity="0.84"/>
<circle cx="482.7" cy="553.3" r="14.2" fill="#7A3CE8" fill-opacity="0.66" stroke="#111" stroke-width="2.5"/>
<text x="482.7" y="560.3" text-anchor="middle" font-family="Arial, Helvetica, sans-serif" font-size="21" font-weight="800" fill="white" stroke="#111" stroke-width="3" paint-order="stroke">38</text>
<circle cx="456.6" cy="633.6" r="20.8" fill="white" fill-opacity="0.84"/>
<circle cx="456.6" cy="633.6" r="17.8" fill="#7A3CE8" fill-opacity="0.66" stroke="#111" stroke-width="2.5"/>
<text x="456.6" y="640.6" text-anchor="middle" font-family="Arial, Helvetica, sans-serif" font-size="21" font-weight="800" fill="white" stroke="#111" stroke-width="3" paint-order="stroke">39</text>
<circle cx="339.9" cy="590.2" r="16.5" fill="white" fill-opacity="0.84"/>
<circle cx="339.9" cy="590.2" r="13.5" fill="#7A3CE8" fill-opacity="0.66" stroke="#111" stroke-width="2.5"/>
<text x="339.9" y="597.2" text-anchor="middle" font-family="Arial, Helvetica, sans-serif" font-size="21" font-weight="800" fill="white" stroke="#111" stroke-width="3" paint-order="stroke">40</text>
<circle cx="320.0" cy="561.3" r="17.2" fill="white" fill-opacity="0.84"/>
<circle cx="320.0" cy="561.3" r="14.2" fill="#7A3CE8" fill-opacity="0.66" stroke="#111" stroke-width="2.5"/>
<text x="320.0" y="568.3" text-anchor="middle" font-family="Arial, Helvetica, sans-serif" font-size="21" font-weight="800" fill="white" stroke="#111" stroke-width="3" paint-order="stroke">41</text>
<circle cx="427.1" cy="544.2" r="14.6" fill="white" fill-opacity="0.84"/>
<circle cx="427.1" cy="544.2" r="11.6" fill="#7A3CE8" fill-opacity="0.66" stroke="#111" stroke-width="2.5"/>
<text x="427.1" y="551.2" text-anchor="middle" font-family="Arial, Helvetica, sans-serif" font-size="21" font-weight="800" fill="white" stroke="#111" stroke-width="3" paint-order="stroke">42</text>
<circle cx="568.5" cy="539.1" r="17.6" fill="white" fill-opacity="0.84"/>
<circle cx="568.5" cy="539.1" r="14.6" fill="#7A3CE8" fill-opacity="0.66" stroke="#111" stroke-width="2.5"/>
<text x="568.5" y="546.1" text-anchor="middle" font-family="Arial, Helvetica, sans-serif" font-size="21" font-weight="800" fill="white" stroke="#111" stroke-width="3" paint-order="stroke">43</text>
<circle cx="542.3" cy="536.7" r="15.4" fill="white" fill-opacity="0.84"/>
<circle cx="542.3" cy="536.7" r="12.4" fill="#7A3CE8" fill-opacity="0.66" stroke="#111" stroke-width="2.5"/>
<text x="542.3" y="543.7" text-anchor="middle" font-family="Arial, Helvetica, sans-serif" font-size="21" font-weight="800" fill="white" stroke="#111" stroke-width="3" paint-order="stroke">44</text>
<circle cx="599.1" cy="534.0" r="17.3" fill="white" fill-opacity="0.84"/>
<circle cx="599.1" cy="534.0" r="14.3" fill="#7A3CE8" fill-opacity="0.66" stroke="#111" stroke-width="2.5"/>
<text x="599.1" y="541.0" text-anchor="middle" font-family="Arial, Helvetica, sans-serif" font-size="21" font-weight="800" fill="white" stroke="#111" stroke-width="3" paint-order="stroke">45</text>
<circle cx="522.8" cy="535.1" r="16.9" fill="white" fill-opacity="0.84"/>
<circle cx="522.8" cy="535.1" r="13.9" fill="#7A3CE8" fill-opacity="0.66" stroke="#111" stroke-width="2.5"/>
<text x="522.8" y="542.1" text-anchor="middle" font-family="Arial, Helvetica, sans-serif" font-size="21" font-weight="800" fill="white" stroke="#111" stroke-width="3" paint-order="stroke">46</text>
<circle cx="597.0" cy="529.6" r="19.1" fill="white" fill-opacity="0.84"/>
<circle cx="597.0" cy="529.6" r="16.1" fill="#7A3CE8" fill-opacity="0.66" stroke="#111" stroke-width="2.5"/>
<text x="597.0" y="536.6" text-anchor="middle" font-family="Arial, Helvetica, sans-serif" font-size="21" font-weight="800" fill="white" stroke="#111" stroke-width="3" paint-order="stroke">47</text>
<circle cx="632.4" cy="599.7" r="20.8" fill="white" fill-opacity="0.84"/>
<circle cx="632.4" cy="599.7" r="17.8" fill="#7A3CE8" fill-opacity="0.66" stroke="#111" stroke-width="2.5"/>
<text x="632.4" y="606.7" text-anchor="middle" font-family="Arial, Helvetica, sans-serif" font-size="21" font-weight="800" fill="white" stroke="#111" stroke-width="3" paint-order="stroke">48</text>
<circle cx="552.2" cy="590.6" r="17.5" fill="white" fill-opacity="0.84"/>
<circle cx="552.2" cy="590.6" r="14.5" fill="#7A3CE8" fill-opacity="0.66" stroke="#111" stroke-width="2.5"/>
<text x="552.2" y="597.6" text-anchor="middle" font-family="Arial, Helvetica, sans-serif" font-size="21" font-weight="800" fill="white" stroke="#111" stroke-width="3" paint-order="stroke">49</text>
<circle cx="1146.6" cy="485.6" r="16.8" fill="white" fill-opacity="0.84"/>
<circle cx="1146.6" cy="485.6" r="13.8" fill="#7A3CE8" fill-opacity="0.66" stroke="#111" stroke-width="2.5"/>
<text x="1146.6" y="492.6" text-anchor="middle" font-family="Arial, Helvetica, sans-serif" font-size="21" font-weight="800" fill="white" stroke="#111" stroke-width="3" paint-order="stroke">50</text>
<circle cx="776.0" cy="457.3" r="15.2" fill="white" fill-opacity="0.84"/>
<circle cx="776.0" cy="457.3" r="12.2" fill="#7A3CE8" fill-opacity="0.66" stroke="#111" stroke-width="2.5"/>
<text x="776.0" y="464.3" text-anchor="middle" font-family="Arial, Helvetica, sans-serif" font-size="21" font-weight="800" fill="white" stroke="#111" stroke-width="3" paint-order="stroke">51</text>
<circle cx="555.5" cy="546.3" r="17.7" fill="white" fill-opacity="0.84"/>
<circle cx="555.5" cy="546.3" r="14.7" fill="#7A3CE8" fill-opacity="0.66" stroke="#111" stroke-width="2.5"/>
<text x="555.5" y="553.3" text-anchor="middle" font-family="Arial, Helvetica, sans-serif" font-size="21" font-weight="800" fill="white" stroke="#111" stroke-width="3" paint-order="stroke">52</text>
<circle cx="624.5" cy="484.1" r="22.4" fill="white" fill-opacity="0.84"/>
<circle cx="624.5" cy="484.1" r="19.4" fill="#7A3CE8" fill-opacity="0.66" stroke="#111" stroke-width="2.5"/>
<text x="624.5" y="491.1" text-anchor="middle" font-family="Arial, Helvetica, sans-serif" font-size="21" font-weight="800" fill="white" stroke="#111" stroke-width="3" paint-order="stroke">53</text>
<circle cx="632.1" cy="615.6" r="18.2" fill="white" fill-opacity="0.84"/>
<circle cx="632.1" cy="615.6" r="15.2" fill="#7A3CE8" fill-opacity="0.66" stroke="#111" stroke-width="2.5"/>
<text x="632.1" y="622.6" text-anchor="middle" font-family="Arial, Helvetica, sans-serif" font-size="21" font-weight="800" fill="white" stroke="#111" stroke-width="3" paint-order="stroke">54</text>
<circle cx="699.9" cy="514.3" r="15.1" fill="white" fill-opacity="0.84"/>
<circle cx="699.9" cy="514.3" r="12.1" fill="#7A3CE8" fill-opacity="0.66" stroke="#111" stroke-width="2.5"/>
<text x="699.9" y="521.3" text-anchor="middle" font-family="Arial, Helvetica, sans-serif" font-size="21" font-weight="800" fill="white" stroke="#111" stroke-width="3" paint-order="stroke">55</text>
<circle cx="617.5" cy="522.5" r="17.5" fill="white" fill-opacity="0.84"/>
<circle cx="617.5" cy="522.5" r="14.5" fill="#7A3CE8" fill-opacity="0.66" stroke="#111" stroke-width="2.5"/>
<text x="617.5" y="529.5" text-anchor="middle" font-family="Arial, Helvetica, sans-serif" font-size="21" font-weight="800" fill="white" stroke="#111" stroke-width="3" paint-order="stroke">56</text>
<circle cx="583.3" cy="493.5" r="15.2" fill="white" fill-opacity="0.84"/>
<circle cx="583.3" cy="493.5" r="12.2" fill="#7A3CE8" fill-opacity="0.66" stroke="#111" stroke-width="2.5"/>
<text x="583.3" y="500.5" text-anchor="middle" font-family="Arial, Helvetica, sans-serif" font-size="21" font-weight="800" fill="white" stroke="#111" stroke-width="3" paint-order="stroke">57</text>
<circle cx="1160.7" cy="406.1" r="19.2" fill="white" fill-opacity="0.84"/>
<circle cx="1160.7" cy="406.1" r="16.2" fill="#7A3CE8" fill-opacity="0.66" stroke="#111" stroke-width="2.5"/>
<text x="1160.7" y="413.1" text-anchor="middle" font-family="Arial, Helvetica, sans-serif" font-size="21" font-weight="800" fill="white" stroke="#111" stroke-width="3" paint-order="stroke">58</text>
<circle cx="1134.2" cy="386.9" r="17.6" fill="white" fill-opacity="0.84"/>
<circle cx="1134.2" cy="386.9" r="14.6" fill="#7A3CE8" fill-opacity="0.66" stroke="#111" stroke-width="2.5"/>
<text x="1134.2" y="393.9" text-anchor="middle" font-family="Arial, Helvetica, sans-serif" font-size="21" font-weight="800" fill="white" stroke="#111" stroke-width="3" paint-order="stroke">59</text>
<circle cx="981.7" cy="443.0" r="18.6" fill="white" fill-opacity="0.84"/>
<circle cx="981.7" cy="443.0" r="15.6" fill="#7A3CE8" fill-opacity="0.66" stroke="#111" stroke-width="2.5"/>
<text x="981.7" y="450.0" text-anchor="middle" font-family="Arial, Helvetica, sans-serif" font-size="21" font-weight="800" fill="white" stroke="#111" stroke-width="3" paint-order="stroke">60</text>
<circle cx="894.7" cy="801.5" r="16.8" fill="white" fill-opacity="0.84"/>
<circle cx="894.7" cy="801.5" r="13.8" fill="#7A3CE8" fill-opacity="0.66" stroke="#111" stroke-width="2.5"/>
<text x="894.7" y="808.5" text-anchor="middle" font-family="Arial, Helvetica, sans-serif" font-size="21" font-weight="800" fill="white" stroke="#111" stroke-width="3" paint-order="stroke">61</text>
<circle cx="1234.5" cy="873.4" r="19.1" fill="white" fill-opacity="0.84"/>
<circle cx="1234.5" cy="873.4" r="16.1" fill="#7A3CE8" fill-opacity="0.66" stroke="#111" stroke-width="2.5"/>
<text x="1234.5" y="880.4" text-anchor="middle" font-family="Arial, Helvetica, sans-serif" font-size="21" font-weight="800" fill="white" stroke="#111" stroke-width="3" paint-order="stroke">62</text>
<circle cx="497.4" cy="643.7" r="20.6" fill="white" fill-opacity="0.84"/>
<circle cx="497.4" cy="643.7" r="17.6" fill="#7A3CE8" fill-opacity="0.66" stroke="#111" stroke-width="2.5"/>
<text x="497.4" y="650.7" text-anchor="middle" font-family="Arial, Helvetica, sans-serif" font-size="21" font-weight="800" fill="white" stroke="#111" stroke-width="3" paint-order="stroke">63</text>
<circle cx="609.8" cy="770.6" r="18.5" fill="white" fill-opacity="0.84"/>
<circle cx="609.8" cy="770.6" r="15.5" fill="#7A3CE8" fill-opacity="0.66" stroke="#111" stroke-width="2.5"/>
<text x="609.8" y="777.6" text-anchor="middle" font-family="Arial, Helvetica, sans-serif" font-size="21" font-weight="800" fill="white" stroke="#111" stroke-width="3" paint-order="stroke">64</text>
<circle cx="981.4" cy="541.1" r="20.7" fill="white" fill-opacity="0.84"/>
<circle cx="981.4" cy="541.1" r="17.7" fill="#7A3CE8" fill-opacity="0.66" stroke="#111" stroke-width="2.5"/>
<text x="981.4" y="548.1" text-anchor="middle" font-family="Arial, Helvetica, sans-serif" font-size="21" font-weight="800" fill="white" stroke="#111" stroke-width="3" paint-order="stroke">65</text>
<circle cx="1081.9" cy="538.8" r="17.9" fill="white" fill-opacity="0.84"/>
<circle cx="1081.9" cy="538.8" r="14.9" fill="#7A3CE8" fill-opacity="0.66" stroke="#111" stroke-width="2.5"/>
<text x="1081.9" y="545.8" text-anchor="middle" font-family="Arial, Helvetica, sans-serif" font-size="21" font-weight="800" fill="white" stroke="#111" stroke-width="3" paint-order="stroke">66</text>
<circle cx="568.8" cy="565.8" r="20.1" fill="white" fill-opacity="0.84"/>
<circle cx="568.8" cy="565.8" r="17.1" fill="#7A3CE8" fill-opacity="0.66" stroke="#111" stroke-width="2.5"/>
<text x="568.8" y="572.8" text-anchor="middle" font-family="Arial, Helvetica, sans-serif" font-size="21" font-weight="800" fill="white" stroke="#111" stroke-width="3" paint-order="stroke">67</text>
<circle cx="520.5" cy="644.7" r="17.4" fill="white" fill-opacity="0.84"/>
<circle cx="520.5" cy="644.7" r="14.4" fill="#7A3CE8" fill-opacity="0.66" stroke="#111" stroke-width="2.5"/>
<text x="520.5" y="651.7" text-anchor="middle" font-family="Arial, Helvetica, sans-serif" font-size="21" font-weight="800" fill="white" stroke="#111" stroke-width="3" paint-order="stroke">68</text>
<circle cx="236.4" cy="686.1" r="16.2" fill="white" fill-opacity="0.84"/>
<circle cx="236.4" cy="686.1" r="13.2" fill="#7A3CE8" fill-opacity="0.66" stroke="#111" stroke-width="2.5"/>
<text x="236.4" y="693.1" text-anchor="middle" font-family="Arial, Helvetica, sans-serif" font-size="21" font-weight="800" fill="white" stroke="#111" stroke-width="3" paint-order="stroke">69</text>
<circle cx="365.2" cy="672.6" r="19.0" fill="white" fill-opacity="0.84"/>
<circle cx="365.2" cy="672.6" r="16.0" fill="#7A3CE8" fill-opacity="0.66" stroke="#111" stroke-width="2.5"/>
<text x="365.2" y="679.6" text-anchor="middle" font-family="Arial, Helvetica, sans-serif" font-size="21" font-weight="800" fill="white" stroke="#111" stroke-width="3" paint-order="stroke">70</text>
<circle cx="269.8" cy="657.9" r="18.6" fill="white" fill-opacity="0.84"/>
<circle cx="269.8" cy="657.9" r="15.6" fill="#7A3CE8" fill-opacity="0.66" stroke="#111" stroke-width="2.5"/>
<text x="269.8" y="664.9" text-anchor="middle" font-family="Arial, Helvetica, sans-serif" font-size="21" font-weight="800" fill="white" stroke="#111" stroke-width="3" paint-order="stroke">71</text>
<circle cx="643.0" cy="530.0" r="23.7" fill="white" fill-opacity="0.84"/>
<circle cx="643.0" cy="530.0" r="20.7" fill="#7A3CE8" fill-opacity="0.66" stroke="#111" stroke-width="2.5"/>
<text x="643.0" y="537.0" text-anchor="middle" font-family="Arial, Helvetica, sans-serif" font-size="21" font-weight="800" fill="white" stroke="#111" stroke-width="3" paint-order="stroke">72</text>
<circle cx="1202.0" cy="461.3" r="17.2" fill="white" fill-opacity="0.84"/>
<circle cx="1202.0" cy="461.3" r="14.2" fill="#7A3CE8" fill-opacity="0.66" stroke="#111" stroke-width="2.5"/>
<text x="1202.0" y="468.3" text-anchor="middle" font-family="Arial, Helvetica, sans-serif" font-size="21" font-weight="800" fill="white" stroke="#111" stroke-width="3" paint-order="stroke">73</text>
<circle cx="900.5" cy="549.8" r="16.8" fill="white" fill-opacity="0.84"/>
<circle cx="900.5" cy="549.8" r="13.8" fill="#7A3CE8" fill-opacity="0.66" stroke="#111" stroke-width="2.5"/>
<text x="900.5" y="556.8" text-anchor="middle" font-family="Arial, Helvetica, sans-serif" font-size="21" font-weight="800" fill="white" stroke="#111" stroke-width="3" paint-order="stroke">74</text>
<circle cx="1257.4" cy="451.6" r="16.6" fill="white" fill-opacity="0.84"/>
<circle cx="1257.4" cy="451.6" r="13.6" fill="#7A3CE8" fill-opacity="0.66" stroke="#111" stroke-width="2.5"/>
<text x="1257.4" y="458.6" text-anchor="middle" font-family="Arial, Helvetica, sans-serif" font-size="21" font-weight="800" fill="white" stroke="#111" stroke-width="3" paint-order="stroke">75</text>
<circle cx="593.9" cy="713.3" r="18.1" fill="white" fill-opacity="0.84"/>
<circle cx="593.9" cy="713.3" r="15.1" fill="#7A3CE8" fill-opacity="0.66" stroke="#111" stroke-width="2.5"/>
<text x="593.9" y="720.3" text-anchor="middle" font-family="Arial, Helvetica, sans-serif" font-size="21" font-weight="800" fill="white" stroke="#111" stroke-width="3" paint-order="stroke">76</text>
<circle cx="981.4" cy="538.6" r="16.1" fill="white" fill-opacity="0.84"/>
<circle cx="981.4" cy="538.6" r="13.1" fill="#7A3CE8" fill-opacity="0.66" stroke="#111" stroke-width="2.5"/>
<text x="981.4" y="545.6" text-anchor="middle" font-family="Arial, Helvetica, sans-serif" font-size="21" font-weight="800" fill="white" stroke="#111" stroke-width="3" paint-order="stroke">77</text>
<circle cx="1113.6" cy="517.6" r="15.4" fill="white" fill-opacity="0.84"/>
<circle cx="1113.6" cy="517.6" r="12.4" fill="#7A3CE8" fill-opacity="0.66" stroke="#111" stroke-width="2.5"/>
<text x="1113.6" y="524.6" text-anchor="middle" font-family="Arial, Helvetica, sans-serif" font-size="21" font-weight="800" fill="white" stroke="#111" stroke-width="3" paint-order="stroke">78</text>
<circle cx="522.6" cy="616.8" r="19.8" fill="white" fill-opacity="0.84"/>
<circle cx="522.6" cy="616.8" r="16.8" fill="#7A3CE8" fill-opacity="0.66" stroke="#111" stroke-width="2.5"/>
<text x="522.6" y="623.8" text-anchor="middle" font-family="Arial, Helvetica, sans-serif" font-size="21" font-weight="800" fill="white" stroke="#111" stroke-width="3" paint-order="stroke">79</text>
<circle cx="608.2" cy="724.6" r="16.1" fill="white" fill-opacity="0.84"/>
<circle cx="608.2" cy="724.6" r="13.1" fill="#7A3CE8" fill-opacity="0.66" stroke="#111" stroke-width="2.5"/>
<text x="608.2" y="731.6" text-anchor="middle" font-family="Arial, Helvetica, sans-serif" font-size="21" font-weight="800" fill="white" stroke="#111" stroke-width="3" paint-order="stroke">80</text>
<circle cx="1212.1" cy="525.9" r="18.0" fill="white" fill-opacity="0.84"/>
<circle cx="1212.1" cy="525.9" r="15.0" fill="#7A3CE8" fill-opacity="0.66" stroke="#111" stroke-width="2.5"/>
<text x="1212.1" y="532.9" text-anchor="middle" font-family="Arial, Helvetica, sans-serif" font-size="21" font-weight="800" fill="white" stroke="#111" stroke-width="3" paint-order="stroke">81</text>
<circle cx="883.7" cy="702.6" r="13.9" fill="white" fill-opacity="0.84"/>
<circle cx="883.7" cy="702.6" r="10.9" fill="#7A3CE8" fill-opacity="0.66" stroke="#111" stroke-width="2.5"/>
<text x="883.7" y="709.6" text-anchor="middle" font-family="Arial, Helvetica, sans-serif" font-size="21" font-weight="800" fill="white" stroke="#111" stroke-width="3" paint-order="stroke">82</text>
<circle cx="630.1" cy="736.6" r="19.3" fill="white" fill-opacity="0.84"/>
<circle cx="630.1" cy="736.6" r="16.3" fill="#7A3CE8" fill-opacity="0.66" stroke="#111" stroke-width="2.5"/>
<text x="630.1" y="743.6" text-anchor="middle" font-family="Arial, Helvetica, sans-serif" font-size="21" font-weight="800" fill="white" stroke="#111" stroke-width="3" paint-order="stroke">83</text>
<circle cx="999.7" cy="558.7" r="17.4" fill="white" fill-opacity="0.84"/>
<circle cx="999.7" cy="558.7" r="14.4" fill="#7A3CE8" fill-opacity="0.66" stroke="#111" stroke-width="2.5"/>
<text x="999.7" y="565.7" text-anchor="middle" font-family="Arial, Helvetica, sans-serif" font-size="21" font-weight="800" fill="white" stroke="#111" stroke-width="3" paint-order="stroke">84</text>
<circle cx="509.5" cy="602.9" r="19.1" fill="white" fill-opacity="0.84"/>
<circle cx="509.5" cy="602.9" r="16.1" fill="#7A3CE8" fill-opacity="0.66" stroke="#111" stroke-width="2.5"/>
<text x="509.5" y="609.9" text-anchor="middle" font-family="Arial, Helvetica, sans-serif" font-size="21" font-weight="800" fill="white" stroke="#111" stroke-width="3" paint-order="stroke">85</text>
<circle cx="873.6" cy="654.1" r="16.7" fill="white" fill-opacity="0.84"/>
<circle cx="873.6" cy="654.1" r="13.7" fill="#7A3CE8" fill-opacity="0.66" stroke="#111" stroke-width="2.5"/>
<text x="873.6" y="661.1" text-anchor="middle" font-family="Arial, Helvetica, sans-serif" font-size="21" font-weight="800" fill="white" stroke="#111" stroke-width="3" paint-order="stroke">86</text>
<circle cx="1227.2" cy="589.9" r="24.3" fill="white" fill-opacity="0.84"/>
<circle cx="1227.2" cy="589.9" r="21.3" fill="#7A3CE8" fill-opacity="0.66" stroke="#111" stroke-width="2.5"/>
<text x="1227.2" y="596.9" text-anchor="middle" font-family="Arial, Helvetica, sans-serif" font-size="21" font-weight="800" fill="white" stroke="#111" stroke-width="3" paint-order="stroke">87</text>
<circle cx="1096.8" cy="84.3" r="16.6" fill="white" fill-opacity="0.84"/>
<circle cx="1096.8" cy="84.3" r="13.6" fill="#7A3CE8" fill-opacity="0.66" stroke="#111" stroke-width="2.5"/>
<text x="1096.8" y="91.3" text-anchor="middle" font-family="Arial, Helvetica, sans-serif" font-size="21" font-weight="800" fill="white" stroke="#111" stroke-width="3" paint-order="stroke">88</text>
<circle cx="1340.7" cy="316.8" r="17.2" fill="white" fill-opacity="0.84"/>
<circle cx="1340.7" cy="316.8" r="14.2" fill="#7A3CE8" fill-opacity="0.66" stroke="#111" stroke-width="2.5"/>
<text x="1340.7" y="323.8" text-anchor="middle" font-family="Arial, Helvetica, sans-serif" font-size="21" font-weight="800" fill="white" stroke="#111" stroke-width="3" paint-order="stroke">89</text>
<circle cx="1156.0" cy="428.0" r="31.0" fill="white" fill-opacity="0.84"/>
<circle cx="1156.0" cy="428.0" r="28.0" fill="#7A3CE8" fill-opacity="0.66" stroke="#111" stroke-width="2.5"/>
<text x="1156.0" y="435.0" text-anchor="middle" font-family="Arial, Helvetica, sans-serif" font-size="21" font-weight="800" fill="white" stroke="#111" stroke-width="3" paint-order="stroke">90</text>
<circle cx="1264.8" cy="392.0" r="15.1" fill="white" fill-opacity="0.84"/>
<circle cx="1264.8" cy="392.0" r="12.1" fill="#7A3CE8" fill-opacity="0.66" stroke="#111" stroke-width="2.5"/>
<text x="1264.8" y="399.0" text-anchor="middle" font-family="Arial, Helvetica, sans-serif" font-size="21" font-weight="800" fill="white" stroke="#111" stroke-width="3" paint-order="stroke">91</text>
<circle cx="1162.1" cy="406.3" r="28.1" fill="white" fill-opacity="0.84"/>
<circle cx="1162.1" cy="406.3" r="25.1" fill="#7A3CE8" fill-opacity="0.66" stroke="#111" stroke-width="2.5"/>
<text x="1162.1" y="413.3" text-anchor="middle" font-family="Arial, Helvetica, sans-serif" font-size="21" font-weight="800" fill="white" stroke="#111" stroke-width="3" paint-order="stroke">92</text>
<circle cx="1094.8" cy="550.0" r="22.6" fill="white" fill-opacity="0.84"/>
<circle cx="1094.8" cy="550.0" r="19.6" fill="#7A3CE8" fill-opacity="0.66" stroke="#111" stroke-width="2.5"/>
<text x="1094.8" y="557.0" text-anchor="middle" font-family="Arial, Helvetica, sans-serif" font-size="21" font-weight="800" fill="white" stroke="#111" stroke-width="3" paint-order="stroke">93</text>
<circle cx="1197.1" cy="460.0" r="16.1" fill="white" fill-opacity="0.84"/>
<circle cx="1197.1" cy="460.0" r="13.1" fill="#7A3CE8" fill-opacity="0.66" stroke="#111" stroke-width="2.5"/>
<text x="1197.1" y="467.0" text-anchor="middle" font-family="Arial, Helvetica, sans-serif" font-size="21" font-weight="800" fill="white" stroke="#111" stroke-width="3" paint-order="stroke">94</text>
<circle cx="1177.5" cy="394.7" r="26.9" fill="white" fill-opacity="0.84"/>
<circle cx="1177.5" cy="394.7" r="23.9" fill="#7A3CE8" fill-opacity="0.66" stroke="#111" stroke-width="2.5"/>
<text x="1177.5" y="401.7" text-anchor="middle" font-family="Arial, Helvetica, sans-serif" font-size="21" font-weight="800" fill="white" stroke="#111" stroke-width="3" paint-order="stroke">95</text>
<circle cx="1195.6" cy="340.7" r="26.1" fill="white" fill-opacity="0.84"/>
<circle cx="1195.6" cy="340.7" r="23.1" fill="#7A3CE8" fill-opacity="0.66" stroke="#111" stroke-width="2.5"/>
<text x="1195.6" y="347.7" text-anchor="middle" font-family="Arial, Helvetica, sans-serif" font-size="21" font-weight="800" fill="white" stroke="#111" stroke-width="3" paint-order="stroke">96</text>
<circle cx="1058.3" cy="389.7" r="16.2" fill="white" fill-opacity="0.84"/>
<circle cx="1058.3" cy="389.7" r="13.2" fill="#7A3CE8" fill-opacity="0.66" stroke="#111" stroke-width="2.5"/>
<text x="1058.3" y="396.7" text-anchor="middle" font-family="Arial, Helvetica, sans-serif" font-size="21" font-weight="800" fill="white" stroke="#111" stroke-width="3" paint-order="stroke">97</text>
<circle cx="1152.8" cy="374.0" r="24.9" fill="white" fill-opacity="0.84"/>
<circle cx="1152.8" cy="374.0" r="21.9" fill="#7A3CE8" fill-opacity="0.66" stroke="#111" stroke-width="2.5"/>
<text x="1152.8" y="381.0" text-anchor="middle" font-family="Arial, Helvetica, sans-serif" font-size="21" font-weight="800" fill="white" stroke="#111" stroke-width="3" paint-order="stroke">98</text>
<circle cx="1099.7" cy="368.3" r="21.5" fill="white" fill-opacity="0.84"/>
<circle cx="1099.7" cy="368.3" r="18.5" fill="#7A3CE8" fill-opacity="0.66" stroke="#111" stroke-width="2.5"/>
<text x="1099.7" y="375.3" text-anchor="middle" font-family="Arial, Helvetica, sans-serif" font-size="21" font-weight="800" fill="white" stroke="#111" stroke-width="3" paint-order="stroke">99</text>
<circle cx="1169.1" cy="387.0" r="21.3" fill="white" fill-opacity="0.84"/>
<circle cx="1169.1" cy="387.0" r="18.3" fill="#7A3CE8" fill-opacity="0.66" stroke="#111" stroke-width="2.5"/>
<text x="1169.1" y="394.0" text-anchor="middle" font-family="Arial, Helvetica, sans-serif" font-size="21" font-weight="800" fill="white" stroke="#111" stroke-width="3" paint-order="stroke">100</text>
<circle cx="959.7" cy="486.8" r="15.2" fill="white" fill-opacity="0.84"/>
<circle cx="959.7" cy="486.8" r="12.2" fill="#7A3CE8" fill-opacity="0.66" stroke="#111" stroke-width="2.5"/>
<text x="959.7" y="493.8" text-anchor="middle" font-family="Arial, Helvetica, sans-serif" font-size="21" font-weight="800" fill="white" stroke="#111" stroke-width="3" paint-order="stroke">101</text>
<circle cx="1209.9" cy="402.7" r="22.2" fill="white" fill-opacity="0.84"/>
<circle cx="1209.9" cy="402.7" r="19.2" fill="#7A3CE8" fill-opacity="0.66" stroke="#111" stroke-width="2.5"/>
<text x="1209.9" y="409.7" text-anchor="middle" font-family="Arial, Helvetica, sans-serif" font-size="21" font-weight="800" fill="white" stroke="#111" stroke-width="3" paint-order="stroke">102</text>
<circle cx="571.8" cy="479.4" r="19.4" fill="white" fill-opacity="0.84"/>
<circle cx="571.8" cy="479.4" r="16.4" fill="#7A3CE8" fill-opacity="0.66" stroke="#111" stroke-width="2.5"/>
<text x="571.8" y="486.4" text-anchor="middle" font-family="Arial, Helvetica, sans-serif" font-size="21" font-weight="800" fill="white" stroke="#111" stroke-width="3" paint-order="stroke">103</text>
<circle cx="946.8" cy="460.9" r="19.4" fill="white" fill-opacity="0.84"/>
<circle cx="946.8" cy="460.9" r="16.4" fill="#7A3CE8" fill-opacity="0.66" stroke="#111" stroke-width="2.5"/>
<text x="946.8" y="467.9" text-anchor="middle" font-family="Arial, Helvetica, sans-serif" font-size="21" font-weight="800" fill="white" stroke="#111" stroke-width="3" paint-order="stroke">104</text>
<circle cx="1185.4" cy="488.7" r="19.0" fill="white" fill-opacity="0.84"/>
<circle cx="1185.4" cy="488.7" r="16.0" fill="#7A3CE8" fill-opacity="0.66" stroke="#111" stroke-width="2.5"/>
<text x="1185.4" y="495.7" text-anchor="middle" font-family="Arial, Helvetica, sans-serif" font-size="21" font-weight="800" fill="white" stroke="#111" stroke-width="3" paint-order="stroke">105</text>
<circle cx="965.1" cy="469.3" r="17.7" fill="white" fill-opacity="0.84"/>
<circle cx="965.1" cy="469.3" r="14.7" fill="#7A3CE8" fill-opacity="0.66" stroke="#111" stroke-width="2.5"/>
<text x="965.1" y="476.3" text-anchor="middle" font-family="Arial, Helvetica, sans-serif" font-size="21" font-weight="800" fill="white" stroke="#111" stroke-width="3" paint-order="stroke">106</text>
<circle cx="1211.1" cy="401.6" r="17.2" fill="white" fill-opacity="0.84"/>
<circle cx="1211.1" cy="401.6" r="14.2" fill="#7A3CE8" fill-opacity="0.66" stroke="#111" stroke-width="2.5"/>
<text x="1211.1" y="408.6" text-anchor="middle" font-family="Arial, Helvetica, sans-serif" font-size="21" font-weight="800" fill="white" stroke="#111" stroke-width="3" paint-order="stroke">107</text>
<circle cx="1114.2" cy="390.6" r="24.4" fill="white" fill-opacity="0.84"/>
<circle cx="1114.2" cy="390.6" r="21.4" fill="#7A3CE8" fill-opacity="0.66" stroke="#111" stroke-width="2.5"/>
<text x="1114.2" y="397.6" text-anchor="middle" font-family="Arial, Helvetica, sans-serif" font-size="21" font-weight="800" fill="white" stroke="#111" stroke-width="3" paint-order="stroke">108</text>
<circle cx="1120.1" cy="481.9" r="22.8" fill="white" fill-opacity="0.84"/>
<circle cx="1120.1" cy="481.9" r="19.8" fill="#7A3CE8" fill-opacity="0.66" stroke="#111" stroke-width="2.5"/>
<text x="1120.1" y="488.9" text-anchor="middle" font-family="Arial, Helvetica, sans-serif" font-size="21" font-weight="800" fill="white" stroke="#111" stroke-width="3" paint-order="stroke">109</text>
<circle cx="935.6" cy="579.5" r="16.1" fill="white" fill-opacity="0.84"/>
<circle cx="935.6" cy="579.5" r="13.1" fill="#7A3CE8" fill-opacity="0.66" stroke="#111" stroke-width="2.5"/>
<text x="935.6" y="586.5" text-anchor="middle" font-family="Arial, Helvetica, sans-serif" font-size="21" font-weight="800" fill="white" stroke="#111" stroke-width="3" paint-order="stroke">110</text>
<circle cx="1197.2" cy="497.9" r="19.1" fill="white" fill-opacity="0.84"/>
<circle cx="1197.2" cy="497.9" r="16.1" fill="#7A3CE8" fill-opacity="0.66" stroke="#111" stroke-width="2.5"/>
<text x="1197.2" y="504.9" text-anchor="middle" font-family="Arial, Helvetica, sans-serif" font-size="21" font-weight="800" fill="white" stroke="#111" stroke-width="3" paint-order="stroke">111</text>
<circle cx="935.3" cy="461.5" r="19.4" fill="white" fill-opacity="0.84"/>
<circle cx="935.3" cy="461.5" r="16.4" fill="#7A3CE8" fill-opacity="0.66" stroke="#111" stroke-width="2.5"/>
<text x="935.3" y="468.5" text-anchor="middle" font-family="Arial, Helvetica, sans-serif" font-size="21" font-weight="800" fill="white" stroke="#111" stroke-width="3" paint-order="stroke">112</text>
<circle cx="1086.2" cy="466.6" r="18.3" fill="white" fill-opacity="0.84"/>
<circle cx="1086.2" cy="466.6" r="15.3" fill="#7A3CE8" fill-opacity="0.66" stroke="#111" stroke-width="2.5"/>
<text x="1086.2" y="473.6" text-anchor="middle" font-family="Arial, Helvetica, sans-serif" font-size="21" font-weight="800" fill="white" stroke="#111" stroke-width="3" paint-order="stroke">113</text>
<circle cx="912.5" cy="483.3" r="13.3" fill="white" fill-opacity="0.84"/>
<circle cx="912.5" cy="483.3" r="10.3" fill="#7A3CE8" fill-opacity="0.66" stroke="#111" stroke-width="2.5"/>
<text x="912.5" y="490.3" text-anchor="middle" font-family="Arial, Helvetica, sans-serif" font-size="21" font-weight="800" fill="white" stroke="#111" stroke-width="3" paint-order="stroke">114</text>
<circle cx="1013.6" cy="465.3" r="16.7" fill="white" fill-opacity="0.84"/>
<circle cx="1013.6" cy="465.3" r="13.7" fill="#7A3CE8" fill-opacity="0.66" stroke="#111" stroke-width="2.5"/>
<text x="1013.6" y="472.3" text-anchor="middle" font-family="Arial, Helvetica, sans-serif" font-size="21" font-weight="800" fill="white" stroke="#111" stroke-width="3" paint-order="stroke">115</text>
<circle cx="1092.7" cy="422.4" r="22.1" fill="white" fill-opacity="0.84"/>
<circle cx="1092.7" cy="422.4" r="19.1" fill="#7A3CE8" fill-opacity="0.66" stroke="#111" stroke-width="2.5"/>
<text x="1092.7" y="429.4" text-anchor="middle" font-family="Arial, Helvetica, sans-serif" font-size="21" font-weight="800" fill="white" stroke="#111" stroke-width="3" paint-order="stroke">116</text>
<circle cx="961.6" cy="472.2" r="15.7" fill="white" fill-opacity="0.84"/>
<circle cx="961.6" cy="472.2" r="12.7" fill="#7A3CE8" fill-opacity="0.66" stroke="#111" stroke-width="2.5"/>
<text x="961.6" y="479.2" text-anchor="middle" font-family="Arial, Helvetica, sans-serif" font-size="21" font-weight="800" fill="white" stroke="#111" stroke-width="3" paint-order="stroke">117</text>
<circle cx="1096.1" cy="436.4" r="21.9" fill="white" fill-opacity="0.84"/>
<circle cx="1096.1" cy="436.4" r="18.9" fill="#7A3CE8" fill-opacity="0.66" stroke="#111" stroke-width="2.5"/>
<text x="1096.1" y="443.4" text-anchor="middle" font-family="Arial, Helvetica, sans-serif" font-size="21" font-weight="800" fill="white" stroke="#111" stroke-width="3" paint-order="stroke">118</text>
<circle cx="594.1" cy="547.1" r="15.9" fill="white" fill-opacity="0.84"/>
<circle cx="594.1" cy="547.1" r="12.9" fill="#7A3CE8" fill-opacity="0.66" stroke="#111" stroke-width="2.5"/>
<text x="594.1" y="554.1" text-anchor="middle" font-family="Arial, Helvetica, sans-serif" font-size="21" font-weight="800" fill="white" stroke="#111" stroke-width="3" paint-order="stroke">119</text>
<rect x="16" y="1094" width="1120" height="168" rx="8" fill="white" fill-opacity="0.92" stroke="#111" stroke-opacity="0.22"/>
<text x="36.0" y="1128.0" font-family="Arial, Helvetica, sans-serif" font-size="24" font-weight="600" fill="#111">K11 / k11.asc block 8 | wake-2-2-r.png | RT NA ms | 119 fixations</text>
<text x="36.0" y="1159.0" font-family="Arial, Helvetica, sans-serif" font-size="24" font-weight="600" fill="#111">numbers show fixation order; dot size shows fixation duration</text>
<circle cx="42" cy="1198" r="11" fill="#005DFF" fill-opacity="0.64" stroke="#111" stroke-width="2"/>
<text x="62.0" y="1206.0" font-family="Arial, Helvetica, sans-serif" font-size="22" font-weight="500" fill="#111">blue: before speech onset</text>
<circle cx="42" cy="1232" r="11" fill="#FF8A00" fill-opacity="0.64" stroke="#111" stroke-width="2"/>
<text x="62.0" y="1240.0" font-family="Arial, Helvetica, sans-serif" font-size="22" font-weight="500" fill="#111">orange: first 2000 ms after onset</text>
</svg>
