<svg xmlns="http://www.w3.org/2000/svg" width="820" height="560" viewBox="0 0 820 560">
<rect width="100%" height="100%" fill="white"/>
<style>
text { font-family: Arial, Helvetica, sans-serif; fill: #222; }
.title { font-size: 20px; font-weight: 700; }
.subtitle { font-size: 13px; fill: #555; }
.axis { stroke: #222; stroke-width: 1; }
.grid { stroke: #dddddd; stroke-width: 1; }
.tick { font-size: 12px; fill: #333; }
.label { font-size: 14px; fill: #222; }
.legend { font-size: 13px; fill: #222; }
</style>
<text class="title" x="421.0" y="28" text-anchor="middle">Direct AVP, 1 agent, 1 patient, inanimate patient</text>
<text class="subtitle" x="421.0" y="47" text-anchor="middle">Early event apprehension, RT &lt; 6000 ms, fluent trials; n = 95 trials</text>
<line class="grid" x1="82" x2="760" y1="470.00" y2="470.00"/>
<text class="tick" x="72" y="474.00" text-anchor="end">0.0</text>
<line class="grid" x1="82" x2="760" y1="428.80" y2="428.80"/>
<text class="tick" x="72" y="432.80" text-anchor="end">0.1</text>
<line class="grid" x1="82" x2="760" y1="387.60" y2="387.60"/>
<text class="tick" x="72" y="391.60" text-anchor="end">0.2</text>
<line class="grid" x1="82" x2="760" y1="346.40" y2="346.40"/>
<text class="tick" x="72" y="350.40" text-anchor="end">0.3</text>
<line class="grid" x1="82" x2="760" y1="305.20" y2="305.20"/>
<text class="tick" x="72" y="309.20" text-anchor="end">0.4</text>
<line class="grid" x1="82" x2="760" y1="264.00" y2="264.00"/>
<text class="tick" x="72" y="268.00" text-anchor="end">0.5</text>
<line class="grid" x1="82" x2="760" y1="222.80" y2="222.80"/>
<text class="tick" x="72" y="226.80" text-anchor="end">0.6</text>
<line class="grid" x1="82" x2="760" y1="181.60" y2="181.60"/>
<text class="tick" x="72" y="185.60" text-anchor="end">0.7</text>
<line class="grid" x1="82" x2="760" y1="140.40" y2="140.40"/>
<text class="tick" x="72" y="144.40" text-anchor="end">0.8</text>
<line class="grid" x1="82" x2="760" y1="99.20" y2="99.20"/>
<text class="tick" x="72" y="103.20" text-anchor="end">0.9</text>
<line class="grid" x1="82" x2="760" y1="58.00" y2="58.00"/>
<text class="tick" x="72" y="62.00" text-anchor="end">1.0</text>
<line class="grid" x1="82.00" x2="82.00" y1="58" y2="470"/>
<text class="tick" x="82.00" y="492" text-anchor="middle">0.0</text>
<line class="grid" x1="149.80" x2="149.80" y1="58" y2="470"/>
<text class="tick" x="149.80" y="492" text-anchor="middle">0.1</text>
<line class="grid" x1="217.60" x2="217.60" y1="58" y2="470"/>
<text class="tick" x="217.60" y="492" text-anchor="middle">0.2</text>
<line class="grid" x1="285.40" x2="285.40" y1="58" y2="470"/>
<text class="tick" x="285.40" y="492" text-anchor="middle">0.3</text>
<line class="grid" x1="353.20" x2="353.20" y1="58" y2="470"/>
<text class="tick" x="353.20" y="492" text-anchor="middle">0.4</text>
<line class="grid" x1="421.00" x2="421.00" y1="58" y2="470"/>
<text class="tick" x="421.00" y="492" text-anchor="middle">0.5</text>
<line class="grid" x1="488.80" x2="488.80" y1="58" y2="470"/>
<text class="tick" x="488.80" y="492" text-anchor="middle">0.6</text>
<line class="grid" x1="556.60" x2="556.60" y1="58" y2="470"/>
<text class="tick" x="556.60" y="492" text-anchor="middle">0.7</text>
<line class="grid" x1="624.40" x2="624.40" y1="58" y2="470"/>
<text class="tick" x="624.40" y="492" text-anchor="middle">0.8</text>
<line class="grid" x1="692.20" x2="692.20" y1="58" y2="470"/>
<text class="tick" x="692.20" y="492" text-anchor="middle">0.9</text>
<line class="grid" x1="760.00" x2="760.00" y1="58" y2="470"/>
<text class="tick" x="760.00" y="492" text-anchor="middle">1.0</text>
<line class="axis" x1="82" x2="760" y1="470" y2="470"/>
<line class="axis" x1="82" x2="82" y1="58" y2="470"/>
<text class="label" x="421.0" y="532" text-anchor="middle">Relative Time</text>
<text class="label" x="20" y="264.0" text-anchor="middle" transform="rotate(-90 20 264.0)">Proportion of Looks</text>
<polygon points="82.00,304.15 149.80,275.52 217.60,192.00 285.40,169.87 353.20,153.11 421.00,149.47 488.80,154.29 556.60,154.45 624.40,162.10 692.20,164.86 760.00,176.48 760.00,257.85 692.20,244.14 624.40,238.74 556.60,230.44 488.80,229.03 421.00,225.18 353.20,230.91 285.40,248.67 217.60,271.64 149.80,349.45 82.00,380.33" fill="#CC3311" opacity="0.12"/>
<path d="M82.00,342.24 L149.80,312.49 L217.60,231.82 L285.40,209.27 L353.20,192.01 L421.00,187.32 L488.80,191.66 L556.60,192.44 L624.40,200.42 L692.20,204.50 L760.00,217.16" fill="none" stroke="#CC3311" stroke-width="3" stroke-linejoin="round" stroke-linecap="round"/>
<polygon points="82.00,449.13 149.80,434.30 217.60,374.14 285.40,317.81 353.20,313.36 421.00,315.85 488.80,321.83 556.60,316.58 624.40,308.81 692.20,306.71 760.00,302.69 760.00,379.70 692.20,383.48 624.40,382.95 556.60,389.58 488.80,392.48 421.00,390.48 353.20,388.80 285.40,391.99 217.60,431.07 149.80,465.45 82.00,470.00" fill="#0077BB" opacity="0.12"/>
<path d="M82.00,461.33 L149.80,449.88 L217.60,402.61 L285.40,354.90 L353.20,351.08 L421.00,353.17 L488.80,357.16 L556.60,353.08 L624.40,345.88 L692.20,345.10 L760.00,341.20" fill="none" stroke="#0077BB" stroke-width="3" stroke-linejoin="round" stroke-linecap="round"/>
<line x1="605" x2="633" y1="76" y2="76" stroke="#CC3311" stroke-width="3"/>
<text class="legend" x="643" y="80">Agent</text>
<line x1="605" x2="633" y1="98" y2="98" stroke="#0077BB" stroke-width="3"/>
<text class="legend" x="643" y="102">Patient</text>
</svg>