<svg xmlns="http://www.w3.org/2000/svg" width="1920" height="1320" viewBox="0 0 1920 1320">
<image href="https://raw.githubusercontent.com/mkurg/koryak/main/stimuli/Animate-animate%20centered%20and%20flipped/teach-1-1-r.png" x="0" y="0" width="1920" height="1080" preserveAspectRatio="none"/>
<rect x="0" y="0" width="1920" height="1080" fill="none" stroke="#111" stroke-width="2"/>
<rect x="0" y="1080" width="1920" height="240" fill="#f7f7f7"/>
<rect x="970.0" y="100.0" width="850" height="850" fill="none" stroke="#00B8D9" stroke-width="6" stroke-dasharray="18 12"/>
<rect x="982.0" y="62.0" width="102.0" height="38" rx="6" fill="white" fill-opacity="0.86" stroke="#00B8D9" stroke-width="3"/>
<text x="992.0" y="88.0" font-family="Arial, Helvetica, sans-serif" font-size="24" font-weight="700" fill="#111">AGENT</text>
<rect x="40.0" y="100.0" width="850" height="850" fill="none" stroke="#FF3B8A" stroke-width="6" stroke-dasharray="18 12"/>
<rect x="52.0" y="62.0" width="134.0" height="38" rx="6" fill="white" fill-opacity="0.86" stroke="#FF3B8A" stroke-width="3"/>
<text x="62.0" y="88.0" font-family="Arial, Helvetica, sans-serif" font-size="24" font-weight="700" fill="#111">PATIENT</text>
<polyline points="706.8,465.6 1336.2,423.8 1202.3,424.4 1353.1,398.6 698.1,505.6 697.8,449.1 1370.3,397.6 1216.4,411.3 1393.7,414.6 1359.1,418.5 686.4,503.4 1216.3,408.3 660.3,492.2 784.1,696.5 783.9,730.4 700.4,467.7 679.6,463.8 693.4,461.7 785.1,701.6 717.1,702.0 704.2,438.2 683.3,462.1 705.3,476.0 691.1,455.2 671.1,416.9 694.4,473.3 1441.2,487.9 1420.1,485.8 1360.6,424.7 1388.3,448.3 1362.8,438.1 753.3,571.7 757.7,566.0 1328.6,486.1 1350.4,423.4 1383.4,436.4 1366.8,433.8 730.2,542.5 1371.2,416.1 1143.9,453.4" fill="none" stroke="#111" stroke-width="4" stroke-opacity="0.36" stroke-linejoin="round"/>
<circle cx="706.8" cy="465.6" r="18.8" fill="white" fill-opacity="0.84"/>
<circle cx="706.8" cy="465.6" r="15.8" fill="#005DFF" fill-opacity="0.66" stroke="#111" stroke-width="2.5"/>
<text x="706.8" y="472.6" text-anchor="middle" font-family="Arial, Helvetica, sans-serif" font-size="21" font-weight="800" fill="white" stroke="#111" stroke-width="3" paint-order="stroke">1</text>
<circle cx="1336.2" cy="423.8" r="16.1" fill="white" fill-opacity="0.84"/>
<circle cx="1336.2" cy="423.8" r="13.2" fill="#005DFF" fill-opacity="0.66" stroke="#111" stroke-width="2.5"/>
<text x="1336.2" y="430.8" text-anchor="middle" font-family="Arial, Helvetica, sans-serif" font-size="21" font-weight="800" fill="white" stroke="#111" stroke-width="3" paint-order="stroke">2</text>
<circle cx="1202.3" cy="424.4" r="16.6" fill="white" fill-opacity="0.84"/>
<circle cx="1202.3" cy="424.4" r="13.6" fill="#005DFF" fill-opacity="0.66" stroke="#111" stroke-width="2.5"/>
<text x="1202.3" y="431.4" text-anchor="middle" font-family="Arial, Helvetica, sans-serif" font-size="21" font-weight="800" fill="white" stroke="#111" stroke-width="3" paint-order="stroke">3</text>
<circle cx="1353.1" cy="398.6" r="15.8" fill="white" fill-opacity="0.84"/>
<circle cx="1353.1" cy="398.6" r="12.8" fill="#005DFF" fill-opacity="0.66" stroke="#111" stroke-width="2.5"/>
<text x="1353.1" y="405.6" text-anchor="middle" font-family="Arial, Helvetica, sans-serif" font-size="21" font-weight="800" fill="white" stroke="#111" stroke-width="3" paint-order="stroke">4</text>
<circle cx="698.1" cy="505.6" r="15.8" fill="white" fill-opacity="0.84"/>
<circle cx="698.1" cy="505.6" r="12.8" fill="#005DFF" fill-opacity="0.66" stroke="#111" stroke-width="2.5"/>
<text x="698.1" y="512.6" text-anchor="middle" font-family="Arial, Helvetica, sans-serif" font-size="21" font-weight="800" fill="white" stroke="#111" stroke-width="3" paint-order="stroke">5</text>
<circle cx="697.8" cy="449.1" r="15.3" fill="white" fill-opacity="0.84"/>
<circle cx="697.8" cy="449.1" r="12.3" fill="#005DFF" fill-opacity="0.66" stroke="#111" stroke-width="2.5"/>
<text x="697.8" y="456.1" text-anchor="middle" font-family="Arial, Helvetica, sans-serif" font-size="21" font-weight="800" fill="white" stroke="#111" stroke-width="3" paint-order="stroke">6</text>
<circle cx="1370.3" cy="397.6" r="22.1" fill="white" fill-opacity="0.84"/>
<circle cx="1370.3" cy="397.6" r="19.1" fill="#005DFF" fill-opacity="0.66" stroke="#111" stroke-width="2.5"/>
<text x="1370.3" y="404.6" text-anchor="middle" font-family="Arial, Helvetica, sans-serif" font-size="21" font-weight="800" fill="white" stroke="#111" stroke-width="3" paint-order="stroke">7</text>
<circle cx="1216.4" cy="411.3" r="16.2" fill="white" fill-opacity="0.84"/>
<circle cx="1216.4" cy="411.3" r="13.2" fill="#005DFF" fill-opacity="0.66" stroke="#111" stroke-width="2.5"/>
<text x="1216.4" y="418.3" text-anchor="middle" font-family="Arial, Helvetica, sans-serif" font-size="21" font-weight="800" fill="white" stroke="#111" stroke-width="3" paint-order="stroke">8</text>
<circle cx="1393.7" cy="414.6" r="15.7" fill="white" fill-opacity="0.84"/>
<circle cx="1393.7" cy="414.6" r="12.7" fill="#005DFF" fill-opacity="0.66" stroke="#111" stroke-width="2.5"/>
<text x="1393.7" y="421.6" text-anchor="middle" font-family="Arial, Helvetica, sans-serif" font-size="21" font-weight="800" fill="white" stroke="#111" stroke-width="3" paint-order="stroke">9</text>
<circle cx="1359.1" cy="418.5" r="16.0" fill="white" fill-opacity="0.84"/>
<circle cx="1359.1" cy="418.5" r="13.0" fill="#005DFF" fill-opacity="0.66" stroke="#111" stroke-width="2.5"/>
<text x="1359.1" y="425.5" text-anchor="middle" font-family="Arial, Helvetica, sans-serif" font-size="21" font-weight="800" fill="white" stroke="#111" stroke-width="3" paint-order="stroke">10</text>
<circle cx="686.4" cy="503.4" r="16.6" fill="white" fill-opacity="0.84"/>
<circle cx="686.4" cy="503.4" r="13.6" fill="#005DFF" fill-opacity="0.66" stroke="#111" stroke-width="2.5"/>
<text x="686.4" y="510.4" text-anchor="middle" font-family="Arial, Helvetica, sans-serif" font-size="21" font-weight="800" fill="white" stroke="#111" stroke-width="3" paint-order="stroke">11</text>
<circle cx="1216.3" cy="408.3" r="14.2" fill="white" fill-opacity="0.84"/>
<circle cx="1216.3" cy="408.3" r="11.2" fill="#005DFF" fill-opacity="0.66" stroke="#111" stroke-width="2.5"/>
<text x="1216.3" y="415.3" text-anchor="middle" font-family="Arial, Helvetica, sans-serif" font-size="21" font-weight="800" fill="white" stroke="#111" stroke-width="3" paint-order="stroke">12</text>
<circle cx="660.3" cy="492.2" r="16.9" fill="white" fill-opacity="0.84"/>
<circle cx="660.3" cy="492.2" r="13.9" fill="#005DFF" fill-opacity="0.66" stroke="#111" stroke-width="2.5"/>
<text x="660.3" y="499.2" text-anchor="middle" font-family="Arial, Helvetica, sans-serif" font-size="21" font-weight="800" fill="white" stroke="#111" stroke-width="3" paint-order="stroke">13</text>
<circle cx="784.1" cy="696.5" r="11.5" fill="white" fill-opacity="0.84"/>
<circle cx="784.1" cy="696.5" r="8.5" fill="#005DFF" fill-opacity="0.66" stroke="#111" stroke-width="2.5"/>
<text x="784.1" y="703.5" text-anchor="middle" font-family="Arial, Helvetica, sans-serif" font-size="21" font-weight="800" fill="white" stroke="#111" stroke-width="3" paint-order="stroke">14</text>
<circle cx="783.9" cy="730.4" r="15.6" fill="white" fill-opacity="0.84"/>
<circle cx="783.9" cy="730.4" r="12.6" fill="#005DFF" fill-opacity="0.66" stroke="#111" stroke-width="2.5"/>
<text x="783.9" y="737.4" text-anchor="middle" font-family="Arial, Helvetica, sans-serif" font-size="21" font-weight="800" fill="white" stroke="#111" stroke-width="3" paint-order="stroke">15</text>
<circle cx="700.4" cy="467.7" r="16.3" fill="white" fill-opacity="0.84"/>
<circle cx="700.4" cy="467.7" r="13.3" fill="#005DFF" fill-opacity="0.66" stroke="#111" stroke-width="2.5"/>
<text x="700.4" y="474.7" text-anchor="middle" font-family="Arial, Helvetica, sans-serif" font-size="21" font-weight="800" fill="white" stroke="#111" stroke-width="3" paint-order="stroke">16</text>
<circle cx="679.6" cy="463.8" r="17.1" fill="white" fill-opacity="0.84"/>
<circle cx="679.6" cy="463.8" r="14.1" fill="#005DFF" fill-opacity="0.66" stroke="#111" stroke-width="2.5"/>
<text x="679.6" y="470.8" text-anchor="middle" font-family="Arial, Helvetica, sans-serif" font-size="21" font-weight="800" fill="white" stroke="#111" stroke-width="3" paint-order="stroke">17</text>
<circle cx="693.4" cy="461.7" r="17.0" fill="white" fill-opacity="0.84"/>
<circle cx="693.4" cy="461.7" r="14.0" fill="#005DFF" fill-opacity="0.66" stroke="#111" stroke-width="2.5"/>
<text x="693.4" y="468.7" text-anchor="middle" font-family="Arial, Helvetica, sans-serif" font-size="21" font-weight="800" fill="white" stroke="#111" stroke-width="3" paint-order="stroke">18</text>
<circle cx="785.1" cy="701.6" r="15.1" fill="white" fill-opacity="0.84"/>
<circle cx="785.1" cy="701.6" r="12.1" fill="#005DFF" fill-opacity="0.66" stroke="#111" stroke-width="2.5"/>
<text x="785.1" y="708.6" text-anchor="middle" font-family="Arial, Helvetica, sans-serif" font-size="21" font-weight="800" fill="white" stroke="#111" stroke-width="3" paint-order="stroke">19</text>
<circle cx="717.1" cy="702.0" r="14.8" fill="white" fill-opacity="0.84"/>
<circle cx="717.1" cy="702.0" r="11.8" fill="#005DFF" fill-opacity="0.66" stroke="#111" stroke-width="2.5"/>
<text x="717.1" y="709.0" text-anchor="middle" font-family="Arial, Helvetica, sans-serif" font-size="21" font-weight="800" fill="white" stroke="#111" stroke-width="3" paint-order="stroke">20</text>
<circle cx="704.2" cy="438.2" r="16.6" fill="white" fill-opacity="0.84"/>
<circle cx="704.2" cy="438.2" r="13.6" fill="#005DFF" fill-opacity="0.66" stroke="#111" stroke-width="2.5"/>
<text x="704.2" y="445.2" text-anchor="middle" font-family="Arial, Helvetica, sans-serif" font-size="21" font-weight="800" fill="white" stroke="#111" stroke-width="3" paint-order="stroke">21</text>
<circle cx="683.3" cy="462.1" r="18.3" fill="white" fill-opacity="0.84"/>
<circle cx="683.3" cy="462.1" r="15.3" fill="#005DFF" fill-opacity="0.66" stroke="#111" stroke-width="2.5"/>
<text x="683.3" y="469.1" text-anchor="middle" font-family="Arial, Helvetica, sans-serif" font-size="21" font-weight="800" fill="white" stroke="#111" stroke-width="3" paint-order="stroke">22</text>
<circle cx="705.3" cy="476.0" r="16.5" fill="white" fill-opacity="0.84"/>
<circle cx="705.3" cy="476.0" r="13.5" fill="#005DFF" fill-opacity="0.66" stroke="#111" stroke-width="2.5"/>
<text x="705.3" y="483.0" text-anchor="middle" font-family="Arial, Helvetica, sans-serif" font-size="21" font-weight="800" fill="white" stroke="#111" stroke-width="3" paint-order="stroke">23</text>
<circle cx="691.1" cy="455.2" r="17.1" fill="white" fill-opacity="0.84"/>
<circle cx="691.1" cy="455.2" r="14.1" fill="#005DFF" fill-opacity="0.66" stroke="#111" stroke-width="2.5"/>
<text x="691.1" y="462.2" text-anchor="middle" font-family="Arial, Helvetica, sans-serif" font-size="21" font-weight="800" fill="white" stroke="#111" stroke-width="3" paint-order="stroke">24</text>
<circle cx="671.1" cy="416.9" r="17.4" fill="white" fill-opacity="0.84"/>
<circle cx="671.1" cy="416.9" r="14.4" fill="#005DFF" fill-opacity="0.66" stroke="#111" stroke-width="2.5"/>
<text x="671.1" y="423.9" text-anchor="middle" font-family="Arial, Helvetica, sans-serif" font-size="21" font-weight="800" fill="white" stroke="#111" stroke-width="3" paint-order="stroke">25</text>
<circle cx="694.4" cy="473.3" r="17.8" fill="white" fill-opacity="0.84"/>
<circle cx="694.4" cy="473.3" r="14.8" fill="#005DFF" fill-opacity="0.66" stroke="#111" stroke-width="2.5"/>
<text x="694.4" y="480.3" text-anchor="middle" font-family="Arial, Helvetica, sans-serif" font-size="21" font-weight="800" fill="white" stroke="#111" stroke-width="3" paint-order="stroke">26</text>
<circle cx="1441.2" cy="487.9" r="11.9" fill="white" fill-opacity="0.84"/>
<circle cx="1441.2" cy="487.9" r="8.9" fill="#005DFF" fill-opacity="0.66" stroke="#111" stroke-width="2.5"/>
<text x="1441.2" y="494.9" text-anchor="middle" font-family="Arial, Helvetica, sans-serif" font-size="21" font-weight="800" fill="white" stroke="#111" stroke-width="3" paint-order="stroke">27</text>
<circle cx="1420.1" cy="485.8" r="15.5" fill="white" fill-opacity="0.84"/>
<circle cx="1420.1" cy="485.8" r="12.5" fill="#005DFF" fill-opacity="0.66" stroke="#111" stroke-width="2.5"/>
<text x="1420.1" y="492.8" text-anchor="middle" font-family="Arial, Helvetica, sans-serif" font-size="21" font-weight="800" fill="white" stroke="#111" stroke-width="3" paint-order="stroke">28</text>
<circle cx="1360.6" cy="424.7" r="16.9" fill="white" fill-opacity="0.84"/>
<circle cx="1360.6" cy="424.7" r="13.9" fill="#005DFF" fill-opacity="0.66" stroke="#111" stroke-width="2.5"/>
<text x="1360.6" y="431.7" text-anchor="middle" font-family="Arial, Helvetica, sans-serif" font-size="21" font-weight="800" fill="white" stroke="#111" stroke-width="3" paint-order="stroke">29</text>
<circle cx="1388.3" cy="448.3" r="16.5" fill="white" fill-opacity="0.84"/>
<circle cx="1388.3" cy="448.3" r="13.5" fill="#005DFF" fill-opacity="0.66" stroke="#111" stroke-width="2.5"/>
<text x="1388.3" y="455.3" text-anchor="middle" font-family="Arial, Helvetica, sans-serif" font-size="21" font-weight="800" fill="white" stroke="#111" stroke-width="3" paint-order="stroke">30</text>
<circle cx="1362.8" cy="438.1" r="17.2" fill="white" fill-opacity="0.84"/>
<circle cx="1362.8" cy="438.1" r="14.2" fill="#005DFF" fill-opacity="0.66" stroke="#111" stroke-width="2.5"/>
<text x="1362.8" y="445.1" text-anchor="middle" font-family="Arial, Helvetica, sans-serif" font-size="21" font-weight="800" fill="white" stroke="#111" stroke-width="3" paint-order="stroke">31</text>
<circle cx="753.3" cy="571.7" r="12.1" fill="white" fill-opacity="0.84"/>
<circle cx="753.3" cy="571.7" r="9.1" fill="#005DFF" fill-opacity="0.66" stroke="#111" stroke-width="2.5"/>
<text x="753.3" y="578.7" text-anchor="middle" font-family="Arial, Helvetica, sans-serif" font-size="21" font-weight="800" fill="white" stroke="#111" stroke-width="3" paint-order="stroke">32</text>
<circle cx="757.7" cy="566.0" r="16.3" fill="white" fill-opacity="0.84"/>
<circle cx="757.7" cy="566.0" r="13.3" fill="#005DFF" fill-opacity="0.66" stroke="#111" stroke-width="2.5"/>
<text x="757.7" y="573.0" text-anchor="middle" font-family="Arial, Helvetica, sans-serif" font-size="21" font-weight="800" fill="white" stroke="#111" stroke-width="3" paint-order="stroke">33</text>
<circle cx="1328.6" cy="486.1" r="17.2" fill="white" fill-opacity="0.84"/>
<circle cx="1328.6" cy="486.1" r="14.2" fill="#FF8A00" fill-opacity="0.66" stroke="#111" stroke-width="2.5"/>
<text x="1328.6" y="493.1" text-anchor="middle" font-family="Arial, Helvetica, sans-serif" font-size="21" font-weight="800" fill="white" stroke="#111" stroke-width="3" paint-order="stroke">34</text>
<circle cx="1350.4" cy="423.4" r="18.8" fill="white" fill-opacity="0.84"/>
<circle cx="1350.4" cy="423.4" r="15.8" fill="#FF8A00" fill-opacity="0.66" stroke="#111" stroke-width="2.5"/>
<text x="1350.4" y="430.4" text-anchor="middle" font-family="Arial, Helvetica, sans-serif" font-size="21" font-weight="800" fill="white" stroke="#111" stroke-width="3" paint-order="stroke">35</text>
<circle cx="1383.4" cy="436.4" r="16.1" fill="white" fill-opacity="0.84"/>
<circle cx="1383.4" cy="436.4" r="13.1" fill="#FF8A00" fill-opacity="0.66" stroke="#111" stroke-width="2.5"/>
<text x="1383.4" y="443.4" text-anchor="middle" font-family="Arial, Helvetica, sans-serif" font-size="21" font-weight="800" fill="white" stroke="#111" stroke-width="3" paint-order="stroke">36</text>
<circle cx="1366.8" cy="433.8" r="17.9" fill="white" fill-opacity="0.84"/>
<circle cx="1366.8" cy="433.8" r="14.9" fill="#FF8A00" fill-opacity="0.66" stroke="#111" stroke-width="2.5"/>
<text x="1366.8" y="440.8" text-anchor="middle" font-family="Arial, Helvetica, sans-serif" font-size="21" font-weight="800" fill="white" stroke="#111" stroke-width="3" paint-order="stroke">37</text>
<circle cx="730.2" cy="542.5" r="15.6" fill="white" fill-opacity="0.84"/>
<circle cx="730.2" cy="542.5" r="12.6" fill="#FF8A00" fill-opacity="0.66" stroke="#111" stroke-width="2.5"/>
<text x="730.2" y="549.5" text-anchor="middle" font-family="Arial, Helvetica, sans-serif" font-size="21" font-weight="800" fill="white" stroke="#111" stroke-width="3" paint-order="stroke">38</text>
<circle cx="1371.2" cy="416.1" r="19.1" fill="white" fill-opacity="0.84"/>
<circle cx="1371.2" cy="416.1" r="16.1" fill="#FF8A00" fill-opacity="0.66" stroke="#111" stroke-width="2.5"/>
<text x="1371.2" y="423.1" text-anchor="middle" font-family="Arial, Helvetica, sans-serif" font-size="21" font-weight="800" fill="white" stroke="#111" stroke-width="3" paint-order="stroke">39</text>
<circle cx="1143.9" cy="453.4" r="17.2" fill="white" fill-opacity="0.84"/>
<circle cx="1143.9" cy="453.4" r="14.2" fill="#FF8A00" fill-opacity="0.66" stroke="#111" stroke-width="2.5"/>
<text x="1143.9" y="460.4" text-anchor="middle" font-family="Arial, Helvetica, sans-serif" font-size="21" font-weight="800" fill="white" stroke="#111" stroke-width="3" paint-order="stroke">40</text>
<rect x="16" y="1094" width="1120" height="168" rx="8" fill="white" fill-opacity="0.92" stroke="#111" stroke-opacity="0.22"/>
<text x="36.0" y="1128.0" font-family="Arial, Helvetica, sans-serif" font-size="24" font-weight="600" fill="#111">K13 / k13.asc block 12 | teach-1-1-r.png | RT 7841 ms | 40 fixations</text>
<text x="36.0" y="1159.0" font-family="Arial, Helvetica, sans-serif" font-size="24" font-weight="600" fill="#111">numbers show fixation order; dot size shows fixation duration</text>
<circle cx="42" cy="1198" r="11" fill="#005DFF" fill-opacity="0.64" stroke="#111" stroke-width="2"/>
<text x="62.0" y="1206.0" font-family="Arial, Helvetica, sans-serif" font-size="22" font-weight="500" fill="#111">blue: before speech onset</text>
<circle cx="42" cy="1232" r="11" fill="#FF8A00" fill-opacity="0.64" stroke="#111" stroke-width="2"/>
<text x="62.0" y="1240.0" font-family="Arial, Helvetica, sans-serif" font-size="22" font-weight="500" fill="#111">orange: first 2000 ms after onset</text>
</svg>
