<svg xmlns="http://www.w3.org/2000/svg" width="1920" height="1320" viewBox="0 0 1920 1320">
<image href="https://raw.githubusercontent.com/mkurg/koryak/main/stimuli/Animate-animate%20centered%20and%20flipped/call-2-1-l.png" x="0" y="0" width="1920" height="1080" preserveAspectRatio="none"/>
<rect x="0" y="0" width="1920" height="1080" fill="none" stroke="#111" stroke-width="2"/>
<rect x="0" y="1080" width="1920" height="240" fill="#f7f7f7"/>
<rect x="40.0" y="100.0" width="850" height="850" fill="none" stroke="#00B8D9" stroke-width="6" stroke-dasharray="18 12"/>
<rect x="52.0" y="62.0" width="102.0" height="38" rx="6" fill="white" fill-opacity="0.86" stroke="#00B8D9" stroke-width="3"/>
<text x="62.0" y="88.0" font-family="Arial, Helvetica, sans-serif" font-size="24" font-weight="700" fill="#111">AGENT</text>
<rect x="970.0" y="100.0" width="850" height="850" fill="none" stroke="#FF3B8A" stroke-width="6" stroke-dasharray="18 12"/>
<rect x="982.0" y="62.0" width="134.0" height="38" rx="6" fill="white" fill-opacity="0.86" stroke="#FF3B8A" stroke-width="3"/>
<text x="992.0" y="88.0" font-family="Arial, Helvetica, sans-serif" font-size="24" font-weight="700" fill="#111">PATIENT</text>
<polyline points="1140.0,563.7 617.3,526.8 543.9,486.3 508.4,482.5 766.4,499.7 1216.7,457.2 1266.6,448.1 701.2,426.2 742.4,474.1 649.1,479.6 574.3,488.3 648.3,478.3 834.3,461.5 1336.4,478.6 1298.0,464.8 712.7,432.3 745.8,471.5 557.3,476.7 1267.2,484.9 1285.7,460.3 1190.8,438.4 1273.5,492.0 656.1,552.6 545.0,519.5 778.5,511.0 606.6,567.0 631.0,513.0 829.6,521.7 768.3,498.3 818.0,507.7 638.3,519.7 913.7,538.7 684.5,483.0 744.2,473.9 1269.8,483.3 1013.4,527.2 607.2,491.8 705.3,498.5 502.3,490.3 556.3,497.8 684.3,466.7 762.3,464.8 575.6,456.1 543.8,488.4 513.7,429.3 782.4,452.7 658.2,461.7 597.3,435.7 752.1,456.6 818.5,478.4 1163.5,518.9 754.3,482.7 829.3,487.0" fill="none" stroke="#111" stroke-width="4" stroke-opacity="0.36" stroke-linejoin="round"/>
<circle cx="1140.0" cy="563.7" r="13.5" fill="white" fill-opacity="0.84"/>
<circle cx="1140.0" cy="563.7" r="10.5" fill="#005DFF" fill-opacity="0.66" stroke="#111" stroke-width="2.5"/>
<text x="1140.0" y="570.7" text-anchor="middle" font-family="Arial, Helvetica, sans-serif" font-size="21" font-weight="800" fill="white" stroke="#111" stroke-width="3" paint-order="stroke">1</text>
<circle cx="617.3" cy="526.8" r="17.5" fill="white" fill-opacity="0.84"/>
<circle cx="617.3" cy="526.8" r="14.5" fill="#005DFF" fill-opacity="0.66" stroke="#111" stroke-width="2.5"/>
<text x="617.3" y="533.8" text-anchor="middle" font-family="Arial, Helvetica, sans-serif" font-size="21" font-weight="800" fill="white" stroke="#111" stroke-width="3" paint-order="stroke">2</text>
<circle cx="543.9" cy="486.3" r="15.5" fill="white" fill-opacity="0.84"/>
<circle cx="543.9" cy="486.3" r="12.5" fill="#005DFF" fill-opacity="0.66" stroke="#111" stroke-width="2.5"/>
<text x="543.9" y="493.3" text-anchor="middle" font-family="Arial, Helvetica, sans-serif" font-size="21" font-weight="800" fill="white" stroke="#111" stroke-width="3" paint-order="stroke">3</text>
<circle cx="508.4" cy="482.5" r="15.6" fill="white" fill-opacity="0.84"/>
<circle cx="508.4" cy="482.5" r="12.6" fill="#005DFF" fill-opacity="0.66" stroke="#111" stroke-width="2.5"/>
<text x="508.4" y="489.5" text-anchor="middle" font-family="Arial, Helvetica, sans-serif" font-size="21" font-weight="800" fill="white" stroke="#111" stroke-width="3" paint-order="stroke">4</text>
<circle cx="766.4" cy="499.7" r="15.5" fill="white" fill-opacity="0.84"/>
<circle cx="766.4" cy="499.7" r="12.5" fill="#005DFF" fill-opacity="0.66" stroke="#111" stroke-width="2.5"/>
<text x="766.4" y="506.7" text-anchor="middle" font-family="Arial, Helvetica, sans-serif" font-size="21" font-weight="800" fill="white" stroke="#111" stroke-width="3" paint-order="stroke">5</text>
<circle cx="1216.7" cy="457.2" r="16.0" fill="white" fill-opacity="0.84"/>
<circle cx="1216.7" cy="457.2" r="13.0" fill="#005DFF" fill-opacity="0.66" stroke="#111" stroke-width="2.5"/>
<text x="1216.7" y="464.2" text-anchor="middle" font-family="Arial, Helvetica, sans-serif" font-size="21" font-weight="800" fill="white" stroke="#111" stroke-width="3" paint-order="stroke">6</text>
<circle cx="1266.6" cy="448.1" r="15.3" fill="white" fill-opacity="0.84"/>
<circle cx="1266.6" cy="448.1" r="12.3" fill="#005DFF" fill-opacity="0.66" stroke="#111" stroke-width="2.5"/>
<text x="1266.6" y="455.1" text-anchor="middle" font-family="Arial, Helvetica, sans-serif" font-size="21" font-weight="800" fill="white" stroke="#111" stroke-width="3" paint-order="stroke">7</text>
<circle cx="701.2" cy="426.2" r="16.8" fill="white" fill-opacity="0.84"/>
<circle cx="701.2" cy="426.2" r="13.8" fill="#005DFF" fill-opacity="0.66" stroke="#111" stroke-width="2.5"/>
<text x="701.2" y="433.2" text-anchor="middle" font-family="Arial, Helvetica, sans-serif" font-size="21" font-weight="800" fill="white" stroke="#111" stroke-width="3" paint-order="stroke">8</text>
<circle cx="742.4" cy="474.1" r="18.7" fill="white" fill-opacity="0.84"/>
<circle cx="742.4" cy="474.1" r="15.7" fill="#005DFF" fill-opacity="0.66" stroke="#111" stroke-width="2.5"/>
<text x="742.4" y="481.1" text-anchor="middle" font-family="Arial, Helvetica, sans-serif" font-size="21" font-weight="800" fill="white" stroke="#111" stroke-width="3" paint-order="stroke">9</text>
<circle cx="649.1" cy="479.6" r="15.4" fill="white" fill-opacity="0.84"/>
<circle cx="649.1" cy="479.6" r="12.4" fill="#005DFF" fill-opacity="0.66" stroke="#111" stroke-width="2.5"/>
<text x="649.1" y="486.6" text-anchor="middle" font-family="Arial, Helvetica, sans-serif" font-size="21" font-weight="800" fill="white" stroke="#111" stroke-width="3" paint-order="stroke">10</text>
<circle cx="574.3" cy="488.3" r="17.8" fill="white" fill-opacity="0.84"/>
<circle cx="574.3" cy="488.3" r="14.8" fill="#005DFF" fill-opacity="0.66" stroke="#111" stroke-width="2.5"/>
<text x="574.3" y="495.3" text-anchor="middle" font-family="Arial, Helvetica, sans-serif" font-size="21" font-weight="800" fill="white" stroke="#111" stroke-width="3" paint-order="stroke">11</text>
<circle cx="648.3" cy="478.3" r="19.0" fill="white" fill-opacity="0.84"/>
<circle cx="648.3" cy="478.3" r="16.0" fill="#005DFF" fill-opacity="0.66" stroke="#111" stroke-width="2.5"/>
<text x="648.3" y="485.3" text-anchor="middle" font-family="Arial, Helvetica, sans-serif" font-size="21" font-weight="800" fill="white" stroke="#111" stroke-width="3" paint-order="stroke">12</text>
<circle cx="834.3" cy="461.5" r="16.3" fill="white" fill-opacity="0.84"/>
<circle cx="834.3" cy="461.5" r="13.3" fill="#005DFF" fill-opacity="0.66" stroke="#111" stroke-width="2.5"/>
<text x="834.3" y="468.5" text-anchor="middle" font-family="Arial, Helvetica, sans-serif" font-size="21" font-weight="800" fill="white" stroke="#111" stroke-width="3" paint-order="stroke">13</text>
<circle cx="1336.4" cy="478.6" r="16.3" fill="white" fill-opacity="0.84"/>
<circle cx="1336.4" cy="478.6" r="13.3" fill="#005DFF" fill-opacity="0.66" stroke="#111" stroke-width="2.5"/>
<text x="1336.4" y="485.6" text-anchor="middle" font-family="Arial, Helvetica, sans-serif" font-size="21" font-weight="800" fill="white" stroke="#111" stroke-width="3" paint-order="stroke">14</text>
<circle cx="1298.0" cy="464.8" r="15.1" fill="white" fill-opacity="0.84"/>
<circle cx="1298.0" cy="464.8" r="12.1" fill="#005DFF" fill-opacity="0.66" stroke="#111" stroke-width="2.5"/>
<text x="1298.0" y="471.8" text-anchor="middle" font-family="Arial, Helvetica, sans-serif" font-size="21" font-weight="800" fill="white" stroke="#111" stroke-width="3" paint-order="stroke">15</text>
<circle cx="712.7" cy="432.3" r="16.7" fill="white" fill-opacity="0.84"/>
<circle cx="712.7" cy="432.3" r="13.7" fill="#005DFF" fill-opacity="0.66" stroke="#111" stroke-width="2.5"/>
<text x="712.7" y="439.3" text-anchor="middle" font-family="Arial, Helvetica, sans-serif" font-size="21" font-weight="800" fill="white" stroke="#111" stroke-width="3" paint-order="stroke">16</text>
<circle cx="745.8" cy="471.5" r="16.7" fill="white" fill-opacity="0.84"/>
<circle cx="745.8" cy="471.5" r="13.7" fill="#005DFF" fill-opacity="0.66" stroke="#111" stroke-width="2.5"/>
<text x="745.8" y="478.5" text-anchor="middle" font-family="Arial, Helvetica, sans-serif" font-size="21" font-weight="800" fill="white" stroke="#111" stroke-width="3" paint-order="stroke">17</text>
<circle cx="557.3" cy="476.7" r="16.4" fill="white" fill-opacity="0.84"/>
<circle cx="557.3" cy="476.7" r="13.4" fill="#005DFF" fill-opacity="0.66" stroke="#111" stroke-width="2.5"/>
<text x="557.3" y="483.7" text-anchor="middle" font-family="Arial, Helvetica, sans-serif" font-size="21" font-weight="800" fill="white" stroke="#111" stroke-width="3" paint-order="stroke">18</text>
<circle cx="1267.2" cy="484.9" r="15.6" fill="white" fill-opacity="0.84"/>
<circle cx="1267.2" cy="484.9" r="12.6" fill="#005DFF" fill-opacity="0.66" stroke="#111" stroke-width="2.5"/>
<text x="1267.2" y="491.9" text-anchor="middle" font-family="Arial, Helvetica, sans-serif" font-size="21" font-weight="800" fill="white" stroke="#111" stroke-width="3" paint-order="stroke">19</text>
<circle cx="1285.7" cy="460.3" r="19.7" fill="white" fill-opacity="0.84"/>
<circle cx="1285.7" cy="460.3" r="16.7" fill="#005DFF" fill-opacity="0.66" stroke="#111" stroke-width="2.5"/>
<text x="1285.7" y="467.3" text-anchor="middle" font-family="Arial, Helvetica, sans-serif" font-size="21" font-weight="800" fill="white" stroke="#111" stroke-width="3" paint-order="stroke">20</text>
<circle cx="1190.8" cy="438.4" r="16.6" fill="white" fill-opacity="0.84"/>
<circle cx="1190.8" cy="438.4" r="13.6" fill="#005DFF" fill-opacity="0.66" stroke="#111" stroke-width="2.5"/>
<text x="1190.8" y="445.4" text-anchor="middle" font-family="Arial, Helvetica, sans-serif" font-size="21" font-weight="800" fill="white" stroke="#111" stroke-width="3" paint-order="stroke">21</text>
<circle cx="1273.5" cy="492.0" r="16.7" fill="white" fill-opacity="0.84"/>
<circle cx="1273.5" cy="492.0" r="13.7" fill="#005DFF" fill-opacity="0.66" stroke="#111" stroke-width="2.5"/>
<text x="1273.5" y="499.0" text-anchor="middle" font-family="Arial, Helvetica, sans-serif" font-size="21" font-weight="800" fill="white" stroke="#111" stroke-width="3" paint-order="stroke">22</text>
<circle cx="656.1" cy="552.6" r="18.9" fill="white" fill-opacity="0.84"/>
<circle cx="656.1" cy="552.6" r="15.9" fill="#005DFF" fill-opacity="0.66" stroke="#111" stroke-width="2.5"/>
<text x="656.1" y="559.6" text-anchor="middle" font-family="Arial, Helvetica, sans-serif" font-size="21" font-weight="800" fill="white" stroke="#111" stroke-width="3" paint-order="stroke">23</text>
<circle cx="545.0" cy="519.5" r="17.4" fill="white" fill-opacity="0.84"/>
<circle cx="545.0" cy="519.5" r="14.4" fill="#005DFF" fill-opacity="0.66" stroke="#111" stroke-width="2.5"/>
<text x="545.0" y="526.5" text-anchor="middle" font-family="Arial, Helvetica, sans-serif" font-size="21" font-weight="800" fill="white" stroke="#111" stroke-width="3" paint-order="stroke">24</text>
<circle cx="778.5" cy="511.0" r="16.1" fill="white" fill-opacity="0.84"/>
<circle cx="778.5" cy="511.0" r="13.2" fill="#005DFF" fill-opacity="0.66" stroke="#111" stroke-width="2.5"/>
<text x="778.5" y="518.0" text-anchor="middle" font-family="Arial, Helvetica, sans-serif" font-size="21" font-weight="800" fill="white" stroke="#111" stroke-width="3" paint-order="stroke">25</text>
<circle cx="606.6" cy="567.0" r="18.4" fill="white" fill-opacity="0.84"/>
<circle cx="606.6" cy="567.0" r="15.4" fill="#005DFF" fill-opacity="0.66" stroke="#111" stroke-width="2.5"/>
<text x="606.6" y="574.0" text-anchor="middle" font-family="Arial, Helvetica, sans-serif" font-size="21" font-weight="800" fill="white" stroke="#111" stroke-width="3" paint-order="stroke">26</text>
<circle cx="631.0" cy="513.0" r="16.7" fill="white" fill-opacity="0.84"/>
<circle cx="631.0" cy="513.0" r="13.7" fill="#005DFF" fill-opacity="0.66" stroke="#111" stroke-width="2.5"/>
<text x="631.0" y="520.0" text-anchor="middle" font-family="Arial, Helvetica, sans-serif" font-size="21" font-weight="800" fill="white" stroke="#111" stroke-width="3" paint-order="stroke">27</text>
<circle cx="829.6" cy="521.7" r="16.1" fill="white" fill-opacity="0.84"/>
<circle cx="829.6" cy="521.7" r="13.1" fill="#005DFF" fill-opacity="0.66" stroke="#111" stroke-width="2.5"/>
<text x="829.6" y="528.7" text-anchor="middle" font-family="Arial, Helvetica, sans-serif" font-size="21" font-weight="800" fill="white" stroke="#111" stroke-width="3" paint-order="stroke">28</text>
<circle cx="768.3" cy="498.3" r="16.0" fill="white" fill-opacity="0.84"/>
<circle cx="768.3" cy="498.3" r="13.0" fill="#005DFF" fill-opacity="0.66" stroke="#111" stroke-width="2.5"/>
<text x="768.3" y="505.3" text-anchor="middle" font-family="Arial, Helvetica, sans-serif" font-size="21" font-weight="800" fill="white" stroke="#111" stroke-width="3" paint-order="stroke">29</text>
<circle cx="818.0" cy="507.7" r="17.4" fill="white" fill-opacity="0.84"/>
<circle cx="818.0" cy="507.7" r="14.4" fill="#005DFF" fill-opacity="0.66" stroke="#111" stroke-width="2.5"/>
<text x="818.0" y="514.7" text-anchor="middle" font-family="Arial, Helvetica, sans-serif" font-size="21" font-weight="800" fill="white" stroke="#111" stroke-width="3" paint-order="stroke">30</text>
<circle cx="638.3" cy="519.7" r="16.0" fill="white" fill-opacity="0.84"/>
<circle cx="638.3" cy="519.7" r="13.0" fill="#005DFF" fill-opacity="0.66" stroke="#111" stroke-width="2.5"/>
<text x="638.3" y="526.7" text-anchor="middle" font-family="Arial, Helvetica, sans-serif" font-size="21" font-weight="800" fill="white" stroke="#111" stroke-width="3" paint-order="stroke">31</text>
<circle cx="913.7" cy="538.7" r="14.3" fill="white" fill-opacity="0.84"/>
<circle cx="913.7" cy="538.7" r="11.3" fill="#005DFF" fill-opacity="0.66" stroke="#111" stroke-width="2.5"/>
<text x="913.7" y="545.7" text-anchor="middle" font-family="Arial, Helvetica, sans-serif" font-size="21" font-weight="800" fill="white" stroke="#111" stroke-width="3" paint-order="stroke">32</text>
<circle cx="684.5" cy="483.0" r="15.9" fill="white" fill-opacity="0.84"/>
<circle cx="684.5" cy="483.0" r="12.9" fill="#005DFF" fill-opacity="0.66" stroke="#111" stroke-width="2.5"/>
<text x="684.5" y="490.0" text-anchor="middle" font-family="Arial, Helvetica, sans-serif" font-size="21" font-weight="800" fill="white" stroke="#111" stroke-width="3" paint-order="stroke">33</text>
<circle cx="744.2" cy="473.9" r="13.6" fill="white" fill-opacity="0.84"/>
<circle cx="744.2" cy="473.9" r="10.6" fill="#005DFF" fill-opacity="0.66" stroke="#111" stroke-width="2.5"/>
<text x="744.2" y="480.9" text-anchor="middle" font-family="Arial, Helvetica, sans-serif" font-size="21" font-weight="800" fill="white" stroke="#111" stroke-width="3" paint-order="stroke">34</text>
<circle cx="1269.8" cy="483.3" r="17.8" fill="white" fill-opacity="0.84"/>
<circle cx="1269.8" cy="483.3" r="14.8" fill="#005DFF" fill-opacity="0.66" stroke="#111" stroke-width="2.5"/>
<text x="1269.8" y="490.3" text-anchor="middle" font-family="Arial, Helvetica, sans-serif" font-size="21" font-weight="800" fill="white" stroke="#111" stroke-width="3" paint-order="stroke">35</text>
<circle cx="1013.4" cy="527.2" r="16.1" fill="white" fill-opacity="0.84"/>
<circle cx="1013.4" cy="527.2" r="13.1" fill="#005DFF" fill-opacity="0.66" stroke="#111" stroke-width="2.5"/>
<text x="1013.4" y="534.2" text-anchor="middle" font-family="Arial, Helvetica, sans-serif" font-size="21" font-weight="800" fill="white" stroke="#111" stroke-width="3" paint-order="stroke">36</text>
<circle cx="607.2" cy="491.8" r="18.6" fill="white" fill-opacity="0.84"/>
<circle cx="607.2" cy="491.8" r="15.6" fill="#005DFF" fill-opacity="0.66" stroke="#111" stroke-width="2.5"/>
<text x="607.2" y="498.8" text-anchor="middle" font-family="Arial, Helvetica, sans-serif" font-size="21" font-weight="800" fill="white" stroke="#111" stroke-width="3" paint-order="stroke">37</text>
<circle cx="705.3" cy="498.5" r="15.4" fill="white" fill-opacity="0.84"/>
<circle cx="705.3" cy="498.5" r="12.4" fill="#005DFF" fill-opacity="0.66" stroke="#111" stroke-width="2.5"/>
<text x="705.3" y="505.5" text-anchor="middle" font-family="Arial, Helvetica, sans-serif" font-size="21" font-weight="800" fill="white" stroke="#111" stroke-width="3" paint-order="stroke">38</text>
<circle cx="502.3" cy="490.3" r="16.7" fill="white" fill-opacity="0.84"/>
<circle cx="502.3" cy="490.3" r="13.7" fill="#005DFF" fill-opacity="0.66" stroke="#111" stroke-width="2.5"/>
<text x="502.3" y="497.3" text-anchor="middle" font-family="Arial, Helvetica, sans-serif" font-size="21" font-weight="800" fill="white" stroke="#111" stroke-width="3" paint-order="stroke">39</text>
<circle cx="556.3" cy="497.8" r="17.0" fill="white" fill-opacity="0.84"/>
<circle cx="556.3" cy="497.8" r="14.0" fill="#005DFF" fill-opacity="0.66" stroke="#111" stroke-width="2.5"/>
<text x="556.3" y="504.8" text-anchor="middle" font-family="Arial, Helvetica, sans-serif" font-size="21" font-weight="800" fill="white" stroke="#111" stroke-width="3" paint-order="stroke">40</text>
<circle cx="684.3" cy="466.7" r="15.7" fill="white" fill-opacity="0.84"/>
<circle cx="684.3" cy="466.7" r="12.7" fill="#005DFF" fill-opacity="0.66" stroke="#111" stroke-width="2.5"/>
<text x="684.3" y="473.7" text-anchor="middle" font-family="Arial, Helvetica, sans-serif" font-size="21" font-weight="800" fill="white" stroke="#111" stroke-width="3" paint-order="stroke">41</text>
<circle cx="762.3" cy="464.8" r="18.9" fill="white" fill-opacity="0.84"/>
<circle cx="762.3" cy="464.8" r="15.9" fill="#005DFF" fill-opacity="0.66" stroke="#111" stroke-width="2.5"/>
<text x="762.3" y="471.8" text-anchor="middle" font-family="Arial, Helvetica, sans-serif" font-size="21" font-weight="800" fill="white" stroke="#111" stroke-width="3" paint-order="stroke">42</text>
<circle cx="575.6" cy="456.1" r="18.1" fill="white" fill-opacity="0.84"/>
<circle cx="575.6" cy="456.1" r="15.1" fill="#005DFF" fill-opacity="0.66" stroke="#111" stroke-width="2.5"/>
<text x="575.6" y="463.1" text-anchor="middle" font-family="Arial, Helvetica, sans-serif" font-size="21" font-weight="800" fill="white" stroke="#111" stroke-width="3" paint-order="stroke">43</text>
<circle cx="543.8" cy="488.4" r="16.7" fill="white" fill-opacity="0.84"/>
<circle cx="543.8" cy="488.4" r="13.7" fill="#005DFF" fill-opacity="0.66" stroke="#111" stroke-width="2.5"/>
<text x="543.8" y="495.4" text-anchor="middle" font-family="Arial, Helvetica, sans-serif" font-size="21" font-weight="800" fill="white" stroke="#111" stroke-width="3" paint-order="stroke">44</text>
<circle cx="513.7" cy="429.3" r="16.4" fill="white" fill-opacity="0.84"/>
<circle cx="513.7" cy="429.3" r="13.4" fill="#005DFF" fill-opacity="0.66" stroke="#111" stroke-width="2.5"/>
<text x="513.7" y="436.3" text-anchor="middle" font-family="Arial, Helvetica, sans-serif" font-size="21" font-weight="800" fill="white" stroke="#111" stroke-width="3" paint-order="stroke">45</text>
<circle cx="782.4" cy="452.7" r="17.3" fill="white" fill-opacity="0.84"/>
<circle cx="782.4" cy="452.7" r="14.3" fill="#FF8A00" fill-opacity="0.66" stroke="#111" stroke-width="2.5"/>
<text x="782.4" y="459.7" text-anchor="middle" font-family="Arial, Helvetica, sans-serif" font-size="21" font-weight="800" fill="white" stroke="#111" stroke-width="3" paint-order="stroke">46</text>
<circle cx="658.2" cy="461.7" r="19.6" fill="white" fill-opacity="0.84"/>
<circle cx="658.2" cy="461.7" r="16.6" fill="#FF8A00" fill-opacity="0.66" stroke="#111" stroke-width="2.5"/>
<text x="658.2" y="468.7" text-anchor="middle" font-family="Arial, Helvetica, sans-serif" font-size="21" font-weight="800" fill="white" stroke="#111" stroke-width="3" paint-order="stroke">47</text>
<circle cx="597.3" cy="435.7" r="16.6" fill="white" fill-opacity="0.84"/>
<circle cx="597.3" cy="435.7" r="13.6" fill="#FF8A00" fill-opacity="0.66" stroke="#111" stroke-width="2.5"/>
<text x="597.3" y="442.7" text-anchor="middle" font-family="Arial, Helvetica, sans-serif" font-size="21" font-weight="800" fill="white" stroke="#111" stroke-width="3" paint-order="stroke">48</text>
<circle cx="752.1" cy="456.6" r="18.1" fill="white" fill-opacity="0.84"/>
<circle cx="752.1" cy="456.6" r="15.1" fill="#FF8A00" fill-opacity="0.66" stroke="#111" stroke-width="2.5"/>
<text x="752.1" y="463.6" text-anchor="middle" font-family="Arial, Helvetica, sans-serif" font-size="21" font-weight="800" fill="white" stroke="#111" stroke-width="3" paint-order="stroke">49</text>
<circle cx="818.5" cy="478.4" r="16.0" fill="white" fill-opacity="0.84"/>
<circle cx="818.5" cy="478.4" r="13.0" fill="#FF8A00" fill-opacity="0.66" stroke="#111" stroke-width="2.5"/>
<text x="818.5" y="485.4" text-anchor="middle" font-family="Arial, Helvetica, sans-serif" font-size="21" font-weight="800" fill="white" stroke="#111" stroke-width="3" paint-order="stroke">50</text>
<circle cx="1163.5" cy="518.9" r="15.1" fill="white" fill-opacity="0.84"/>
<circle cx="1163.5" cy="518.9" r="12.1" fill="#FF8A00" fill-opacity="0.66" stroke="#111" stroke-width="2.5"/>
<text x="1163.5" y="525.9" text-anchor="middle" font-family="Arial, Helvetica, sans-serif" font-size="21" font-weight="800" fill="white" stroke="#111" stroke-width="3" paint-order="stroke">51</text>
<circle cx="754.3" cy="482.7" r="16.8" fill="white" fill-opacity="0.84"/>
<circle cx="754.3" cy="482.7" r="13.8" fill="#FF8A00" fill-opacity="0.66" stroke="#111" stroke-width="2.5"/>
<text x="754.3" y="489.7" text-anchor="middle" font-family="Arial, Helvetica, sans-serif" font-size="21" font-weight="800" fill="white" stroke="#111" stroke-width="3" paint-order="stroke">52</text>
<circle cx="829.3" cy="487.0" r="18.2" fill="white" fill-opacity="0.84"/>
<circle cx="829.3" cy="487.0" r="15.2" fill="#FF8A00" fill-opacity="0.66" stroke="#111" stroke-width="2.5"/>
<text x="829.3" y="494.0" text-anchor="middle" font-family="Arial, Helvetica, sans-serif" font-size="21" font-weight="800" fill="white" stroke="#111" stroke-width="3" paint-order="stroke">53</text>
<rect x="16" y="1094" width="1120" height="168" rx="8" fill="white" fill-opacity="0.92" stroke="#111" stroke-opacity="0.22"/>
<text x="36.0" y="1128.0" font-family="Arial, Helvetica, sans-serif" font-size="24" font-weight="600" fill="#111">K13 / k13.asc block 44 | call-2-1-l.png | RT 11332 ms | 53 fixations</text>
<text x="36.0" y="1159.0" font-family="Arial, Helvetica, sans-serif" font-size="24" font-weight="600" fill="#111">numbers show fixation order; dot size shows fixation duration</text>
<circle cx="42" cy="1198" r="11" fill="#005DFF" fill-opacity="0.64" stroke="#111" stroke-width="2"/>
<text x="62.0" y="1206.0" font-family="Arial, Helvetica, sans-serif" font-size="22" font-weight="500" fill="#111">blue: before speech onset</text>
<circle cx="42" cy="1232" r="11" fill="#FF8A00" fill-opacity="0.64" stroke="#111" stroke-width="2"/>
<text x="62.0" y="1240.0" font-family="Arial, Helvetica, sans-serif" font-size="22" font-weight="500" fill="#111">orange: first 2000 ms after onset</text>
</svg>
