<svg xmlns="http://www.w3.org/2000/svg" width="1920" height="1320" viewBox="0 0 1920 1320">
<image href="../../../../stimuli/Animate-animate%20centered%20and%20flipped/cut_hair-1-2-l.png" x="0" y="0" width="1920" height="1080" preserveAspectRatio="none"/>
<rect x="0" y="0" width="1920" height="1080" fill="none" stroke="#111" stroke-width="2"/>
<rect x="0" y="1080" width="1920" height="240" fill="#f7f7f7"/>
<rect x="40.0" y="100.0" width="850" height="850" fill="none" stroke="#00B8D9" stroke-width="6" stroke-dasharray="18 12"/>
<rect x="52.0" y="62.0" width="102.0" height="38" rx="6" fill="white" fill-opacity="0.86" stroke="#00B8D9" stroke-width="3"/>
<text x="62.0" y="88.0" font-family="Arial, Helvetica, sans-serif" font-size="24" font-weight="700" fill="#111">AGENT</text>
<rect x="970.0" y="100.0" width="850" height="850" fill="none" stroke="#FF3B8A" stroke-width="6" stroke-dasharray="18 12"/>
<rect x="982.0" y="62.0" width="134.0" height="38" rx="6" fill="white" fill-opacity="0.86" stroke="#FF3B8A" stroke-width="3"/>
<text x="992.0" y="88.0" font-family="Arial, Helvetica, sans-serif" font-size="24" font-weight="700" fill="#111">PATIENT</text>
<polyline points="905.6,644.7 798.6,526.3 793.6,513.0 1114.5,589.4 1209.6,535.3 1215.8,449.9 1105.1,419.4 809.8,503.8 724.2,496.6 634.4,417.5 818.7,517.4 1225.2,470.2 1095.9,462.3 1102.2,403.1 1216.7,410.5 1013.8,947.9 1037.8,939.1 1092.5,424.8 1109.6,367.1 1302.8,407.4 1374.2,437.0 853.5,525.0 795.0,499.2 656.9,430.7 841.4,443.2 1272.2,493.2 1205.0,477.6 1369.8,485.2 1238.5,481.1 1133.7,478.6 1078.6,479.2 630.9,468.3 865.5,529.1 830.5,493.5 1193.2,463.7 1109.2,446.4 1027.3,473.1 1094.0,473.9" fill="none" stroke="#111" stroke-width="4" stroke-opacity="0.36" stroke-linejoin="round"/>
<circle cx="905.6" cy="644.7" r="15.2" fill="white" fill-opacity="0.84"/>
<circle cx="905.6" cy="644.7" r="12.2" fill="#005DFF" fill-opacity="0.66" stroke="#111" stroke-width="2.5"/>
<text x="905.6" y="651.7" text-anchor="middle" font-family="Arial, Helvetica, sans-serif" font-size="21" font-weight="800" fill="white" stroke="#111" stroke-width="3" paint-order="stroke">1</text>
<circle cx="798.6" cy="526.3" r="12.2" fill="white" fill-opacity="0.84"/>
<circle cx="798.6" cy="526.3" r="9.2" fill="#005DFF" fill-opacity="0.66" stroke="#111" stroke-width="2.5"/>
<text x="798.6" y="533.3" text-anchor="middle" font-family="Arial, Helvetica, sans-serif" font-size="21" font-weight="800" fill="white" stroke="#111" stroke-width="3" paint-order="stroke">2</text>
<circle cx="793.6" cy="513.0" r="17.9" fill="white" fill-opacity="0.84"/>
<circle cx="793.6" cy="513.0" r="14.9" fill="#005DFF" fill-opacity="0.66" stroke="#111" stroke-width="2.5"/>
<text x="793.6" y="520.0" text-anchor="middle" font-family="Arial, Helvetica, sans-serif" font-size="21" font-weight="800" fill="white" stroke="#111" stroke-width="3" paint-order="stroke">3</text>
<circle cx="1114.5" cy="589.4" r="17.3" fill="white" fill-opacity="0.84"/>
<circle cx="1114.5" cy="589.4" r="14.3" fill="#005DFF" fill-opacity="0.66" stroke="#111" stroke-width="2.5"/>
<text x="1114.5" y="596.4" text-anchor="middle" font-family="Arial, Helvetica, sans-serif" font-size="21" font-weight="800" fill="white" stroke="#111" stroke-width="3" paint-order="stroke">4</text>
<circle cx="1209.6" cy="535.3" r="16.8" fill="white" fill-opacity="0.84"/>
<circle cx="1209.6" cy="535.3" r="13.8" fill="#005DFF" fill-opacity="0.66" stroke="#111" stroke-width="2.5"/>
<text x="1209.6" y="542.3" text-anchor="middle" font-family="Arial, Helvetica, sans-serif" font-size="21" font-weight="800" fill="white" stroke="#111" stroke-width="3" paint-order="stroke">5</text>
<circle cx="1215.8" cy="449.9" r="15.6" fill="white" fill-opacity="0.84"/>
<circle cx="1215.8" cy="449.9" r="12.6" fill="#005DFF" fill-opacity="0.66" stroke="#111" stroke-width="2.5"/>
<text x="1215.8" y="456.9" text-anchor="middle" font-family="Arial, Helvetica, sans-serif" font-size="21" font-weight="800" fill="white" stroke="#111" stroke-width="3" paint-order="stroke">6</text>
<circle cx="1105.1" cy="419.4" r="17.9" fill="white" fill-opacity="0.84"/>
<circle cx="1105.1" cy="419.4" r="14.9" fill="#005DFF" fill-opacity="0.66" stroke="#111" stroke-width="2.5"/>
<text x="1105.1" y="426.4" text-anchor="middle" font-family="Arial, Helvetica, sans-serif" font-size="21" font-weight="800" fill="white" stroke="#111" stroke-width="3" paint-order="stroke">7</text>
<circle cx="809.8" cy="503.8" r="19.9" fill="white" fill-opacity="0.84"/>
<circle cx="809.8" cy="503.8" r="16.9" fill="#005DFF" fill-opacity="0.66" stroke="#111" stroke-width="2.5"/>
<text x="809.8" y="510.8" text-anchor="middle" font-family="Arial, Helvetica, sans-serif" font-size="21" font-weight="800" fill="white" stroke="#111" stroke-width="3" paint-order="stroke">8</text>
<circle cx="724.2" cy="496.6" r="15.7" fill="white" fill-opacity="0.84"/>
<circle cx="724.2" cy="496.6" r="12.7" fill="#005DFF" fill-opacity="0.66" stroke="#111" stroke-width="2.5"/>
<text x="724.2" y="503.6" text-anchor="middle" font-family="Arial, Helvetica, sans-serif" font-size="21" font-weight="800" fill="white" stroke="#111" stroke-width="3" paint-order="stroke">9</text>
<circle cx="634.4" cy="417.5" r="19.1" fill="white" fill-opacity="0.84"/>
<circle cx="634.4" cy="417.5" r="16.1" fill="#005DFF" fill-opacity="0.66" stroke="#111" stroke-width="2.5"/>
<text x="634.4" y="424.5" text-anchor="middle" font-family="Arial, Helvetica, sans-serif" font-size="21" font-weight="800" fill="white" stroke="#111" stroke-width="3" paint-order="stroke">10</text>
<circle cx="818.7" cy="517.4" r="17.1" fill="white" fill-opacity="0.84"/>
<circle cx="818.7" cy="517.4" r="14.1" fill="#005DFF" fill-opacity="0.66" stroke="#111" stroke-width="2.5"/>
<text x="818.7" y="524.4" text-anchor="middle" font-family="Arial, Helvetica, sans-serif" font-size="21" font-weight="800" fill="white" stroke="#111" stroke-width="3" paint-order="stroke">11</text>
<circle cx="1225.2" cy="470.2" r="16.4" fill="white" fill-opacity="0.84"/>
<circle cx="1225.2" cy="470.2" r="13.4" fill="#005DFF" fill-opacity="0.66" stroke="#111" stroke-width="2.5"/>
<text x="1225.2" y="477.2" text-anchor="middle" font-family="Arial, Helvetica, sans-serif" font-size="21" font-weight="800" fill="white" stroke="#111" stroke-width="3" paint-order="stroke">12</text>
<circle cx="1095.9" cy="462.3" r="17.8" fill="white" fill-opacity="0.84"/>
<circle cx="1095.9" cy="462.3" r="14.8" fill="#005DFF" fill-opacity="0.66" stroke="#111" stroke-width="2.5"/>
<text x="1095.9" y="469.3" text-anchor="middle" font-family="Arial, Helvetica, sans-serif" font-size="21" font-weight="800" fill="white" stroke="#111" stroke-width="3" paint-order="stroke">13</text>
<circle cx="1102.2" cy="403.1" r="17.6" fill="white" fill-opacity="0.84"/>
<circle cx="1102.2" cy="403.1" r="14.6" fill="#005DFF" fill-opacity="0.66" stroke="#111" stroke-width="2.5"/>
<text x="1102.2" y="410.1" text-anchor="middle" font-family="Arial, Helvetica, sans-serif" font-size="21" font-weight="800" fill="white" stroke="#111" stroke-width="3" paint-order="stroke">14</text>
<circle cx="1216.7" cy="410.5" r="16.0" fill="white" fill-opacity="0.84"/>
<circle cx="1216.7" cy="410.5" r="13.0" fill="#005DFF" fill-opacity="0.66" stroke="#111" stroke-width="2.5"/>
<text x="1216.7" y="417.5" text-anchor="middle" font-family="Arial, Helvetica, sans-serif" font-size="21" font-weight="800" fill="white" stroke="#111" stroke-width="3" paint-order="stroke">15</text>
<circle cx="1013.8" cy="947.9" r="12.7" fill="white" fill-opacity="0.84"/>
<circle cx="1013.8" cy="947.9" r="9.7" fill="#005DFF" fill-opacity="0.66" stroke="#111" stroke-width="2.5"/>
<text x="1013.8" y="954.9" text-anchor="middle" font-family="Arial, Helvetica, sans-serif" font-size="21" font-weight="800" fill="white" stroke="#111" stroke-width="3" paint-order="stroke">16</text>
<circle cx="1037.8" cy="939.1" r="15.8" fill="white" fill-opacity="0.84"/>
<circle cx="1037.8" cy="939.1" r="12.8" fill="#005DFF" fill-opacity="0.66" stroke="#111" stroke-width="2.5"/>
<text x="1037.8" y="946.1" text-anchor="middle" font-family="Arial, Helvetica, sans-serif" font-size="21" font-weight="800" fill="white" stroke="#111" stroke-width="3" paint-order="stroke">17</text>
<circle cx="1092.5" cy="424.8" r="18.5" fill="white" fill-opacity="0.84"/>
<circle cx="1092.5" cy="424.8" r="15.5" fill="#005DFF" fill-opacity="0.66" stroke="#111" stroke-width="2.5"/>
<text x="1092.5" y="431.8" text-anchor="middle" font-family="Arial, Helvetica, sans-serif" font-size="21" font-weight="800" fill="white" stroke="#111" stroke-width="3" paint-order="stroke">18</text>
<circle cx="1109.6" cy="367.1" r="18.3" fill="white" fill-opacity="0.84"/>
<circle cx="1109.6" cy="367.1" r="15.3" fill="#005DFF" fill-opacity="0.66" stroke="#111" stroke-width="2.5"/>
<text x="1109.6" y="374.1" text-anchor="middle" font-family="Arial, Helvetica, sans-serif" font-size="21" font-weight="800" fill="white" stroke="#111" stroke-width="3" paint-order="stroke">19</text>
<circle cx="1302.8" cy="407.4" r="17.1" fill="white" fill-opacity="0.84"/>
<circle cx="1302.8" cy="407.4" r="14.1" fill="#005DFF" fill-opacity="0.66" stroke="#111" stroke-width="2.5"/>
<text x="1302.8" y="414.4" text-anchor="middle" font-family="Arial, Helvetica, sans-serif" font-size="21" font-weight="800" fill="white" stroke="#111" stroke-width="3" paint-order="stroke">20</text>
<circle cx="1374.2" cy="437.0" r="15.5" fill="white" fill-opacity="0.84"/>
<circle cx="1374.2" cy="437.0" r="12.5" fill="#005DFF" fill-opacity="0.66" stroke="#111" stroke-width="2.5"/>
<text x="1374.2" y="444.0" text-anchor="middle" font-family="Arial, Helvetica, sans-serif" font-size="21" font-weight="800" fill="white" stroke="#111" stroke-width="3" paint-order="stroke">21</text>
<circle cx="853.5" cy="525.0" r="17.1" fill="white" fill-opacity="0.84"/>
<circle cx="853.5" cy="525.0" r="14.1" fill="#005DFF" fill-opacity="0.66" stroke="#111" stroke-width="2.5"/>
<text x="853.5" y="532.0" text-anchor="middle" font-family="Arial, Helvetica, sans-serif" font-size="21" font-weight="800" fill="white" stroke="#111" stroke-width="3" paint-order="stroke">22</text>
<circle cx="795.0" cy="499.2" r="16.3" fill="white" fill-opacity="0.84"/>
<circle cx="795.0" cy="499.2" r="13.3" fill="#005DFF" fill-opacity="0.66" stroke="#111" stroke-width="2.5"/>
<text x="795.0" y="506.2" text-anchor="middle" font-family="Arial, Helvetica, sans-serif" font-size="21" font-weight="800" fill="white" stroke="#111" stroke-width="3" paint-order="stroke">23</text>
<circle cx="656.9" cy="430.7" r="17.6" fill="white" fill-opacity="0.84"/>
<circle cx="656.9" cy="430.7" r="14.6" fill="#005DFF" fill-opacity="0.66" stroke="#111" stroke-width="2.5"/>
<text x="656.9" y="437.7" text-anchor="middle" font-family="Arial, Helvetica, sans-serif" font-size="21" font-weight="800" fill="white" stroke="#111" stroke-width="3" paint-order="stroke">24</text>
<circle cx="841.4" cy="443.2" r="12.3" fill="white" fill-opacity="0.84"/>
<circle cx="841.4" cy="443.2" r="9.3" fill="#005DFF" fill-opacity="0.66" stroke="#111" stroke-width="2.5"/>
<text x="841.4" y="450.2" text-anchor="middle" font-family="Arial, Helvetica, sans-serif" font-size="21" font-weight="800" fill="white" stroke="#111" stroke-width="3" paint-order="stroke">25</text>
<circle cx="1272.2" cy="493.2" r="19.4" fill="white" fill-opacity="0.84"/>
<circle cx="1272.2" cy="493.2" r="16.4" fill="#005DFF" fill-opacity="0.66" stroke="#111" stroke-width="2.5"/>
<text x="1272.2" y="500.2" text-anchor="middle" font-family="Arial, Helvetica, sans-serif" font-size="21" font-weight="800" fill="white" stroke="#111" stroke-width="3" paint-order="stroke">26</text>
<circle cx="1205.0" cy="477.6" r="17.1" fill="white" fill-opacity="0.84"/>
<circle cx="1205.0" cy="477.6" r="14.1" fill="#005DFF" fill-opacity="0.66" stroke="#111" stroke-width="2.5"/>
<text x="1205.0" y="484.6" text-anchor="middle" font-family="Arial, Helvetica, sans-serif" font-size="21" font-weight="800" fill="white" stroke="#111" stroke-width="3" paint-order="stroke">27</text>
<circle cx="1369.8" cy="485.2" r="18.6" fill="white" fill-opacity="0.84"/>
<circle cx="1369.8" cy="485.2" r="15.6" fill="#005DFF" fill-opacity="0.66" stroke="#111" stroke-width="2.5"/>
<text x="1369.8" y="492.2" text-anchor="middle" font-family="Arial, Helvetica, sans-serif" font-size="21" font-weight="800" fill="white" stroke="#111" stroke-width="3" paint-order="stroke">28</text>
<circle cx="1238.5" cy="481.1" r="18.7" fill="white" fill-opacity="0.84"/>
<circle cx="1238.5" cy="481.1" r="15.7" fill="#005DFF" fill-opacity="0.66" stroke="#111" stroke-width="2.5"/>
<text x="1238.5" y="488.1" text-anchor="middle" font-family="Arial, Helvetica, sans-serif" font-size="21" font-weight="800" fill="white" stroke="#111" stroke-width="3" paint-order="stroke">29</text>
<circle cx="1133.7" cy="478.6" r="16.4" fill="white" fill-opacity="0.84"/>
<circle cx="1133.7" cy="478.6" r="13.4" fill="#005DFF" fill-opacity="0.66" stroke="#111" stroke-width="2.5"/>
<text x="1133.7" y="485.6" text-anchor="middle" font-family="Arial, Helvetica, sans-serif" font-size="21" font-weight="800" fill="white" stroke="#111" stroke-width="3" paint-order="stroke">30</text>
<circle cx="1078.6" cy="479.2" r="13.7" fill="white" fill-opacity="0.84"/>
<circle cx="1078.6" cy="479.2" r="10.7" fill="#005DFF" fill-opacity="0.66" stroke="#111" stroke-width="2.5"/>
<text x="1078.6" y="486.2" text-anchor="middle" font-family="Arial, Helvetica, sans-serif" font-size="21" font-weight="800" fill="white" stroke="#111" stroke-width="3" paint-order="stroke">31</text>
<circle cx="630.9" cy="468.3" r="17.8" fill="white" fill-opacity="0.84"/>
<circle cx="630.9" cy="468.3" r="14.8" fill="#005DFF" fill-opacity="0.66" stroke="#111" stroke-width="2.5"/>
<text x="630.9" y="475.3" text-anchor="middle" font-family="Arial, Helvetica, sans-serif" font-size="21" font-weight="800" fill="white" stroke="#111" stroke-width="3" paint-order="stroke">32</text>
<circle cx="865.5" cy="529.1" r="18.4" fill="white" fill-opacity="0.84"/>
<circle cx="865.5" cy="529.1" r="15.4" fill="#FF8A00" fill-opacity="0.66" stroke="#111" stroke-width="2.5"/>
<text x="865.5" y="536.1" text-anchor="middle" font-family="Arial, Helvetica, sans-serif" font-size="21" font-weight="800" fill="white" stroke="#111" stroke-width="3" paint-order="stroke">33</text>
<circle cx="830.5" cy="493.5" r="17.9" fill="white" fill-opacity="0.84"/>
<circle cx="830.5" cy="493.5" r="14.9" fill="#FF8A00" fill-opacity="0.66" stroke="#111" stroke-width="2.5"/>
<text x="830.5" y="500.5" text-anchor="middle" font-family="Arial, Helvetica, sans-serif" font-size="21" font-weight="800" fill="white" stroke="#111" stroke-width="3" paint-order="stroke">34</text>
<circle cx="1193.2" cy="463.7" r="17.5" fill="white" fill-opacity="0.84"/>
<circle cx="1193.2" cy="463.7" r="14.5" fill="#FF8A00" fill-opacity="0.66" stroke="#111" stroke-width="2.5"/>
<text x="1193.2" y="470.7" text-anchor="middle" font-family="Arial, Helvetica, sans-serif" font-size="21" font-weight="800" fill="white" stroke="#111" stroke-width="3" paint-order="stroke">35</text>
<circle cx="1109.2" cy="446.4" r="18.6" fill="white" fill-opacity="0.84"/>
<circle cx="1109.2" cy="446.4" r="15.6" fill="#FF8A00" fill-opacity="0.66" stroke="#111" stroke-width="2.5"/>
<text x="1109.2" y="453.4" text-anchor="middle" font-family="Arial, Helvetica, sans-serif" font-size="21" font-weight="800" fill="white" stroke="#111" stroke-width="3" paint-order="stroke">36</text>
<circle cx="1027.3" cy="473.1" r="16.5" fill="white" fill-opacity="0.84"/>
<circle cx="1027.3" cy="473.1" r="13.5" fill="#FF8A00" fill-opacity="0.66" stroke="#111" stroke-width="2.5"/>
<text x="1027.3" y="480.1" text-anchor="middle" font-family="Arial, Helvetica, sans-serif" font-size="21" font-weight="800" fill="white" stroke="#111" stroke-width="3" paint-order="stroke">37</text>
<circle cx="1094.0" cy="473.9" r="20.3" fill="white" fill-opacity="0.84"/>
<circle cx="1094.0" cy="473.9" r="17.3" fill="#FF8A00" fill-opacity="0.66" stroke="#111" stroke-width="2.5"/>
<text x="1094.0" y="480.9" text-anchor="middle" font-family="Arial, Helvetica, sans-serif" font-size="21" font-weight="800" fill="white" stroke="#111" stroke-width="3" paint-order="stroke">38</text>
<rect x="16" y="1094" width="1120" height="168" rx="8" fill="white" fill-opacity="0.92" stroke="#111" stroke-opacity="0.22"/>
<text x="36.0" y="1128.0" font-family="Arial, Helvetica, sans-serif" font-size="24" font-weight="600" fill="#111">K13 / k13.asc block 62 | cut_hair-1-2-l.png | RT 8333 ms | 38 fixations</text>
<text x="36.0" y="1159.0" font-family="Arial, Helvetica, sans-serif" font-size="24" font-weight="600" fill="#111">numbers show fixation order; dot size shows fixation duration</text>
<circle cx="42" cy="1198" r="11" fill="#005DFF" fill-opacity="0.64" stroke="#111" stroke-width="2"/>
<text x="62.0" y="1206.0" font-family="Arial, Helvetica, sans-serif" font-size="22" font-weight="500" fill="#111">blue: before speech onset</text>
<circle cx="42" cy="1232" r="11" fill="#FF8A00" fill-opacity="0.64" stroke="#111" stroke-width="2"/>
<text x="62.0" y="1240.0" font-family="Arial, Helvetica, sans-serif" font-size="22" font-weight="500" fill="#111">orange: first 2000 ms after onset</text>
</svg>
