<svg xmlns="http://www.w3.org/2000/svg" width="1920" height="1320" viewBox="0 0 1920 1320">
<image href="https://raw.githubusercontent.com/mkurg/koryak/main/stimuli/Koryak%20stimuli%20animate%20inanimate/eat-1-2-l.png" x="0" y="0" width="1920" height="1080" preserveAspectRatio="none"/>
<rect x="0" y="0" width="1920" height="1080" fill="none" stroke="#111" stroke-width="2"/>
<rect x="0" y="1080" width="1920" height="240" fill="#f7f7f7"/>
<rect x="40.0" y="100.0" width="850" height="850" fill="none" stroke="#00B8D9" stroke-width="6" stroke-dasharray="18 12"/>
<rect x="52.0" y="62.0" width="102.0" height="38" rx="6" fill="white" fill-opacity="0.86" stroke="#00B8D9" stroke-width="3"/>
<text x="62.0" y="88.0" font-family="Arial, Helvetica, sans-serif" font-size="24" font-weight="700" fill="#111">AGENT</text>
<rect x="970.0" y="100.0" width="850" height="850" fill="none" stroke="#FF3B8A" stroke-width="6" stroke-dasharray="18 12"/>
<rect x="982.0" y="62.0" width="134.0" height="38" rx="6" fill="white" fill-opacity="0.86" stroke="#FF3B8A" stroke-width="3"/>
<text x="992.0" y="88.0" font-family="Arial, Helvetica, sans-serif" font-size="24" font-weight="700" fill="#111">PATIENT</text>
<polyline points="955.5,576.3 749.8,469.2 1284.7,711.1 1209.1,704.9 760.0,478.1 794.5,532.9 767.1,550.0 748.8,537.8 767.9,464.9 738.8,502.9 773.6,497.4 739.6,495.4 785.4,489.8 736.3,489.4 1317.2,772.4 1192.9,708.4 1174.9,763.7 1409.4,737.3 781.9,492.7 736.6,484.6 1268.3,744.9 1175.9,758.6" fill="none" stroke="#111" stroke-width="4" stroke-opacity="0.36" stroke-linejoin="round"/>
<circle cx="955.5" cy="576.3" r="14.8" fill="white" fill-opacity="0.84"/>
<circle cx="955.5" cy="576.3" r="11.8" fill="#005DFF" fill-opacity="0.66" stroke="#111" stroke-width="2.5"/>
<text x="955.5" y="583.3" text-anchor="middle" font-family="Arial, Helvetica, sans-serif" font-size="21" font-weight="800" fill="white" stroke="#111" stroke-width="3" paint-order="stroke">1</text>
<circle cx="749.8" cy="469.2" r="15.5" fill="white" fill-opacity="0.84"/>
<circle cx="749.8" cy="469.2" r="12.5" fill="#005DFF" fill-opacity="0.66" stroke="#111" stroke-width="2.5"/>
<text x="749.8" y="476.2" text-anchor="middle" font-family="Arial, Helvetica, sans-serif" font-size="21" font-weight="800" fill="white" stroke="#111" stroke-width="3" paint-order="stroke">2</text>
<circle cx="1284.7" cy="711.1" r="16.9" fill="white" fill-opacity="0.84"/>
<circle cx="1284.7" cy="711.1" r="13.9" fill="#005DFF" fill-opacity="0.66" stroke="#111" stroke-width="2.5"/>
<text x="1284.7" y="718.1" text-anchor="middle" font-family="Arial, Helvetica, sans-serif" font-size="21" font-weight="800" fill="white" stroke="#111" stroke-width="3" paint-order="stroke">3</text>
<circle cx="1209.1" cy="704.9" r="16.2" fill="white" fill-opacity="0.84"/>
<circle cx="1209.1" cy="704.9" r="13.2" fill="#005DFF" fill-opacity="0.66" stroke="#111" stroke-width="2.5"/>
<text x="1209.1" y="711.9" text-anchor="middle" font-family="Arial, Helvetica, sans-serif" font-size="21" font-weight="800" fill="white" stroke="#111" stroke-width="3" paint-order="stroke">4</text>
<circle cx="760.0" cy="478.1" r="16.5" fill="white" fill-opacity="0.84"/>
<circle cx="760.0" cy="478.1" r="13.5" fill="#005DFF" fill-opacity="0.66" stroke="#111" stroke-width="2.5"/>
<text x="760.0" y="485.1" text-anchor="middle" font-family="Arial, Helvetica, sans-serif" font-size="21" font-weight="800" fill="white" stroke="#111" stroke-width="3" paint-order="stroke">5</text>
<circle cx="794.5" cy="532.9" r="15.7" fill="white" fill-opacity="0.84"/>
<circle cx="794.5" cy="532.9" r="12.7" fill="#005DFF" fill-opacity="0.66" stroke="#111" stroke-width="2.5"/>
<text x="794.5" y="539.9" text-anchor="middle" font-family="Arial, Helvetica, sans-serif" font-size="21" font-weight="800" fill="white" stroke="#111" stroke-width="3" paint-order="stroke">6</text>
<circle cx="767.1" cy="550.0" r="23.6" fill="white" fill-opacity="0.84"/>
<circle cx="767.1" cy="550.0" r="20.6" fill="#005DFF" fill-opacity="0.66" stroke="#111" stroke-width="2.5"/>
<text x="767.1" y="557.0" text-anchor="middle" font-family="Arial, Helvetica, sans-serif" font-size="21" font-weight="800" fill="white" stroke="#111" stroke-width="3" paint-order="stroke">7</text>
<circle cx="748.8" cy="537.8" r="16.0" fill="white" fill-opacity="0.84"/>
<circle cx="748.8" cy="537.8" r="13.0" fill="#005DFF" fill-opacity="0.66" stroke="#111" stroke-width="2.5"/>
<text x="748.8" y="544.8" text-anchor="middle" font-family="Arial, Helvetica, sans-serif" font-size="21" font-weight="800" fill="white" stroke="#111" stroke-width="3" paint-order="stroke">8</text>
<circle cx="767.9" cy="464.9" r="15.9" fill="white" fill-opacity="0.84"/>
<circle cx="767.9" cy="464.9" r="12.9" fill="#005DFF" fill-opacity="0.66" stroke="#111" stroke-width="2.5"/>
<text x="767.9" y="471.9" text-anchor="middle" font-family="Arial, Helvetica, sans-serif" font-size="21" font-weight="800" fill="white" stroke="#111" stroke-width="3" paint-order="stroke">9</text>
<circle cx="738.8" cy="502.9" r="16.0" fill="white" fill-opacity="0.84"/>
<circle cx="738.8" cy="502.9" r="13.0" fill="#005DFF" fill-opacity="0.66" stroke="#111" stroke-width="2.5"/>
<text x="738.8" y="509.9" text-anchor="middle" font-family="Arial, Helvetica, sans-serif" font-size="21" font-weight="800" fill="white" stroke="#111" stroke-width="3" paint-order="stroke">10</text>
<circle cx="773.6" cy="497.4" r="16.5" fill="white" fill-opacity="0.84"/>
<circle cx="773.6" cy="497.4" r="13.5" fill="#005DFF" fill-opacity="0.66" stroke="#111" stroke-width="2.5"/>
<text x="773.6" y="504.4" text-anchor="middle" font-family="Arial, Helvetica, sans-serif" font-size="21" font-weight="800" fill="white" stroke="#111" stroke-width="3" paint-order="stroke">11</text>
<circle cx="739.6" cy="495.4" r="18.2" fill="white" fill-opacity="0.84"/>
<circle cx="739.6" cy="495.4" r="15.2" fill="#005DFF" fill-opacity="0.66" stroke="#111" stroke-width="2.5"/>
<text x="739.6" y="502.4" text-anchor="middle" font-family="Arial, Helvetica, sans-serif" font-size="21" font-weight="800" fill="white" stroke="#111" stroke-width="3" paint-order="stroke">12</text>
<circle cx="785.4" cy="489.8" r="17.9" fill="white" fill-opacity="0.84"/>
<circle cx="785.4" cy="489.8" r="14.9" fill="#005DFF" fill-opacity="0.66" stroke="#111" stroke-width="2.5"/>
<text x="785.4" y="496.8" text-anchor="middle" font-family="Arial, Helvetica, sans-serif" font-size="21" font-weight="800" fill="white" stroke="#111" stroke-width="3" paint-order="stroke">13</text>
<circle cx="736.3" cy="489.4" r="16.5" fill="white" fill-opacity="0.84"/>
<circle cx="736.3" cy="489.4" r="13.5" fill="#005DFF" fill-opacity="0.66" stroke="#111" stroke-width="2.5"/>
<text x="736.3" y="496.4" text-anchor="middle" font-family="Arial, Helvetica, sans-serif" font-size="21" font-weight="800" fill="white" stroke="#111" stroke-width="3" paint-order="stroke">14</text>
<circle cx="1317.2" cy="772.4" r="15.9" fill="white" fill-opacity="0.84"/>
<circle cx="1317.2" cy="772.4" r="12.9" fill="#FF8A00" fill-opacity="0.66" stroke="#111" stroke-width="2.5"/>
<text x="1317.2" y="779.4" text-anchor="middle" font-family="Arial, Helvetica, sans-serif" font-size="21" font-weight="800" fill="white" stroke="#111" stroke-width="3" paint-order="stroke">15</text>
<circle cx="1192.9" cy="708.4" r="17.1" fill="white" fill-opacity="0.84"/>
<circle cx="1192.9" cy="708.4" r="14.1" fill="#FF8A00" fill-opacity="0.66" stroke="#111" stroke-width="2.5"/>
<text x="1192.9" y="715.4" text-anchor="middle" font-family="Arial, Helvetica, sans-serif" font-size="21" font-weight="800" fill="white" stroke="#111" stroke-width="3" paint-order="stroke">16</text>
<circle cx="1174.9" cy="763.7" r="15.0" fill="white" fill-opacity="0.84"/>
<circle cx="1174.9" cy="763.7" r="12.0" fill="#FF8A00" fill-opacity="0.66" stroke="#111" stroke-width="2.5"/>
<text x="1174.9" y="770.7" text-anchor="middle" font-family="Arial, Helvetica, sans-serif" font-size="21" font-weight="800" fill="white" stroke="#111" stroke-width="3" paint-order="stroke">17</text>
<circle cx="1409.4" cy="737.3" r="18.7" fill="white" fill-opacity="0.84"/>
<circle cx="1409.4" cy="737.3" r="15.7" fill="#FF8A00" fill-opacity="0.66" stroke="#111" stroke-width="2.5"/>
<text x="1409.4" y="744.3" text-anchor="middle" font-family="Arial, Helvetica, sans-serif" font-size="21" font-weight="800" fill="white" stroke="#111" stroke-width="3" paint-order="stroke">18</text>
<circle cx="781.9" cy="492.7" r="17.0" fill="white" fill-opacity="0.84"/>
<circle cx="781.9" cy="492.7" r="14.0" fill="#FF8A00" fill-opacity="0.66" stroke="#111" stroke-width="2.5"/>
<text x="781.9" y="499.7" text-anchor="middle" font-family="Arial, Helvetica, sans-serif" font-size="21" font-weight="800" fill="white" stroke="#111" stroke-width="3" paint-order="stroke">19</text>
<circle cx="736.6" cy="484.6" r="14.9" fill="white" fill-opacity="0.84"/>
<circle cx="736.6" cy="484.6" r="11.9" fill="#FF8A00" fill-opacity="0.66" stroke="#111" stroke-width="2.5"/>
<text x="736.6" y="491.6" text-anchor="middle" font-family="Arial, Helvetica, sans-serif" font-size="21" font-weight="800" fill="white" stroke="#111" stroke-width="3" paint-order="stroke">20</text>
<circle cx="1268.3" cy="744.9" r="16.3" fill="white" fill-opacity="0.84"/>
<circle cx="1268.3" cy="744.9" r="13.3" fill="#FF8A00" fill-opacity="0.66" stroke="#111" stroke-width="2.5"/>
<text x="1268.3" y="751.9" text-anchor="middle" font-family="Arial, Helvetica, sans-serif" font-size="21" font-weight="800" fill="white" stroke="#111" stroke-width="3" paint-order="stroke">21</text>
<circle cx="1175.9" cy="758.6" r="15.8" fill="white" fill-opacity="0.84"/>
<circle cx="1175.9" cy="758.6" r="12.8" fill="#FF8A00" fill-opacity="0.66" stroke="#111" stroke-width="2.5"/>
<text x="1175.9" y="765.6" text-anchor="middle" font-family="Arial, Helvetica, sans-serif" font-size="21" font-weight="800" fill="white" stroke="#111" stroke-width="3" paint-order="stroke">22</text>
<rect x="16" y="1094" width="1120" height="168" rx="8" fill="white" fill-opacity="0.92" stroke="#111" stroke-opacity="0.22"/>
<text x="36.0" y="1128.0" font-family="Arial, Helvetica, sans-serif" font-size="24" font-weight="600" fill="#111">K01 / k01_2.asc block 7 | eat-1-2-l.png | RT 4155 ms | 22 fixations</text>
<text x="36.0" y="1159.0" font-family="Arial, Helvetica, sans-serif" font-size="24" font-weight="600" fill="#111">numbers show fixation order; dot size shows fixation duration</text>
<circle cx="42" cy="1198" r="11" fill="#005DFF" fill-opacity="0.64" stroke="#111" stroke-width="2"/>
<text x="62.0" y="1206.0" font-family="Arial, Helvetica, sans-serif" font-size="22" font-weight="500" fill="#111">blue: before speech onset</text>
<circle cx="42" cy="1232" r="11" fill="#FF8A00" fill-opacity="0.64" stroke="#111" stroke-width="2"/>
<text x="62.0" y="1240.0" font-family="Arial, Helvetica, sans-serif" font-size="22" font-weight="500" fill="#111">orange: first 2000 ms after onset</text>
</svg>
