<svg xmlns="http://www.w3.org/2000/svg" width="1920" height="1320" viewBox="0 0 1920 1320">
<image href="https://raw.githubusercontent.com/mkurg/koryak/main/stimuli/Koryak%20stimuli%20animate%20inanimate/pick-2-2-r.png" x="0" y="0" width="1920" height="1080" preserveAspectRatio="none"/>
<rect x="0" y="0" width="1920" height="1080" fill="none" stroke="#111" stroke-width="2"/>
<rect x="0" y="1080" width="1920" height="240" fill="#f7f7f7"/>
<rect x="970.0" y="100.0" width="850" height="850" fill="none" stroke="#00B8D9" stroke-width="6" stroke-dasharray="18 12"/>
<rect x="982.0" y="62.0" width="102.0" height="38" rx="6" fill="white" fill-opacity="0.86" stroke="#00B8D9" stroke-width="3"/>
<text x="992.0" y="88.0" font-family="Arial, Helvetica, sans-serif" font-size="24" font-weight="700" fill="#111">AGENT</text>
<rect x="40.0" y="100.0" width="850" height="850" fill="none" stroke="#FF3B8A" stroke-width="6" stroke-dasharray="18 12"/>
<rect x="52.0" y="62.0" width="134.0" height="38" rx="6" fill="white" fill-opacity="0.86" stroke="#FF3B8A" stroke-width="3"/>
<text x="62.0" y="88.0" font-family="Arial, Helvetica, sans-serif" font-size="24" font-weight="700" fill="#111">PATIENT</text>
<polyline points="1160.9,586.6 964.2,713.2 885.4,743.0 1075.2,748.4 857.2,796.8 834.4,728.8 1055.5,737.2 921.5,707.4 930.5,761.5 1248.1,782.0 1131.4,724.9 1263.2,594.3 1256.9,617.7 1110.9,609.1 1208.1,604.8 1129.3,673.7 1361.0,776.0 1202.1,818.9 1298.5,793.0 1102.8,901.3 1234.4,743.7 1253.9,705.7 981.0,798.3 1100.3,764.0 856.2,788.5 1057.2,763.2 892.4,799.9 1034.7,768.4 1202.5,755.7 860.4,698.7 876.3,745.7" fill="none" stroke="#111" stroke-width="4" stroke-opacity="0.36" stroke-linejoin="round"/>
<circle cx="1160.9" cy="586.6" r="15.9" fill="white" fill-opacity="0.84"/>
<circle cx="1160.9" cy="586.6" r="12.9" fill="#005DFF" fill-opacity="0.66" stroke="#111" stroke-width="2.5"/>
<text x="1160.9" y="593.6" text-anchor="middle" font-family="Arial, Helvetica, sans-serif" font-size="21" font-weight="800" fill="white" stroke="#111" stroke-width="3" paint-order="stroke">1</text>
<circle cx="964.2" cy="713.2" r="16.0" fill="white" fill-opacity="0.84"/>
<circle cx="964.2" cy="713.2" r="13.0" fill="#005DFF" fill-opacity="0.66" stroke="#111" stroke-width="2.5"/>
<text x="964.2" y="720.2" text-anchor="middle" font-family="Arial, Helvetica, sans-serif" font-size="21" font-weight="800" fill="white" stroke="#111" stroke-width="3" paint-order="stroke">2</text>
<circle cx="885.4" cy="743.0" r="17.0" fill="white" fill-opacity="0.84"/>
<circle cx="885.4" cy="743.0" r="14.0" fill="#005DFF" fill-opacity="0.66" stroke="#111" stroke-width="2.5"/>
<text x="885.4" y="750.0" text-anchor="middle" font-family="Arial, Helvetica, sans-serif" font-size="21" font-weight="800" fill="white" stroke="#111" stroke-width="3" paint-order="stroke">3</text>
<circle cx="1075.2" cy="748.4" r="16.0" fill="white" fill-opacity="0.84"/>
<circle cx="1075.2" cy="748.4" r="13.0" fill="#005DFF" fill-opacity="0.66" stroke="#111" stroke-width="2.5"/>
<text x="1075.2" y="755.4" text-anchor="middle" font-family="Arial, Helvetica, sans-serif" font-size="21" font-weight="800" fill="white" stroke="#111" stroke-width="3" paint-order="stroke">4</text>
<circle cx="857.2" cy="796.8" r="19.0" fill="white" fill-opacity="0.84"/>
<circle cx="857.2" cy="796.8" r="16.0" fill="#005DFF" fill-opacity="0.66" stroke="#111" stroke-width="2.5"/>
<text x="857.2" y="803.8" text-anchor="middle" font-family="Arial, Helvetica, sans-serif" font-size="21" font-weight="800" fill="white" stroke="#111" stroke-width="3" paint-order="stroke">5</text>
<circle cx="834.4" cy="728.8" r="19.5" fill="white" fill-opacity="0.84"/>
<circle cx="834.4" cy="728.8" r="16.5" fill="#005DFF" fill-opacity="0.66" stroke="#111" stroke-width="2.5"/>
<text x="834.4" y="735.8" text-anchor="middle" font-family="Arial, Helvetica, sans-serif" font-size="21" font-weight="800" fill="white" stroke="#111" stroke-width="3" paint-order="stroke">6</text>
<circle cx="1055.5" cy="737.2" r="19.0" fill="white" fill-opacity="0.84"/>
<circle cx="1055.5" cy="737.2" r="16.0" fill="#005DFF" fill-opacity="0.66" stroke="#111" stroke-width="2.5"/>
<text x="1055.5" y="744.2" text-anchor="middle" font-family="Arial, Helvetica, sans-serif" font-size="21" font-weight="800" fill="white" stroke="#111" stroke-width="3" paint-order="stroke">7</text>
<circle cx="921.5" cy="707.4" r="12.2" fill="white" fill-opacity="0.84"/>
<circle cx="921.5" cy="707.4" r="9.2" fill="#005DFF" fill-opacity="0.66" stroke="#111" stroke-width="2.5"/>
<text x="921.5" y="714.4" text-anchor="middle" font-family="Arial, Helvetica, sans-serif" font-size="21" font-weight="800" fill="white" stroke="#111" stroke-width="3" paint-order="stroke">8</text>
<circle cx="930.5" cy="761.5" r="16.8" fill="white" fill-opacity="0.84"/>
<circle cx="930.5" cy="761.5" r="13.8" fill="#005DFF" fill-opacity="0.66" stroke="#111" stroke-width="2.5"/>
<text x="930.5" y="768.5" text-anchor="middle" font-family="Arial, Helvetica, sans-serif" font-size="21" font-weight="800" fill="white" stroke="#111" stroke-width="3" paint-order="stroke">9</text>
<circle cx="1248.1" cy="782.0" r="22.0" fill="white" fill-opacity="0.84"/>
<circle cx="1248.1" cy="782.0" r="19.0" fill="#005DFF" fill-opacity="0.66" stroke="#111" stroke-width="2.5"/>
<text x="1248.1" y="789.0" text-anchor="middle" font-family="Arial, Helvetica, sans-serif" font-size="21" font-weight="800" fill="white" stroke="#111" stroke-width="3" paint-order="stroke">10</text>
<circle cx="1131.4" cy="724.9" r="16.3" fill="white" fill-opacity="0.84"/>
<circle cx="1131.4" cy="724.9" r="13.3" fill="#005DFF" fill-opacity="0.66" stroke="#111" stroke-width="2.5"/>
<text x="1131.4" y="731.9" text-anchor="middle" font-family="Arial, Helvetica, sans-serif" font-size="21" font-weight="800" fill="white" stroke="#111" stroke-width="3" paint-order="stroke">11</text>
<circle cx="1263.2" cy="594.3" r="24.0" fill="white" fill-opacity="0.84"/>
<circle cx="1263.2" cy="594.3" r="21.0" fill="#005DFF" fill-opacity="0.66" stroke="#111" stroke-width="2.5"/>
<text x="1263.2" y="601.3" text-anchor="middle" font-family="Arial, Helvetica, sans-serif" font-size="21" font-weight="800" fill="white" stroke="#111" stroke-width="3" paint-order="stroke">12</text>
<circle cx="1256.9" cy="617.7" r="23.3" fill="white" fill-opacity="0.84"/>
<circle cx="1256.9" cy="617.7" r="20.3" fill="#005DFF" fill-opacity="0.66" stroke="#111" stroke-width="2.5"/>
<text x="1256.9" y="624.7" text-anchor="middle" font-family="Arial, Helvetica, sans-serif" font-size="21" font-weight="800" fill="white" stroke="#111" stroke-width="3" paint-order="stroke">13</text>
<circle cx="1110.9" cy="609.1" r="20.0" fill="white" fill-opacity="0.84"/>
<circle cx="1110.9" cy="609.1" r="17.0" fill="#005DFF" fill-opacity="0.66" stroke="#111" stroke-width="2.5"/>
<text x="1110.9" y="616.1" text-anchor="middle" font-family="Arial, Helvetica, sans-serif" font-size="21" font-weight="800" fill="white" stroke="#111" stroke-width="3" paint-order="stroke">14</text>
<circle cx="1208.1" cy="604.8" r="19.2" fill="white" fill-opacity="0.84"/>
<circle cx="1208.1" cy="604.8" r="16.2" fill="#005DFF" fill-opacity="0.66" stroke="#111" stroke-width="2.5"/>
<text x="1208.1" y="611.8" text-anchor="middle" font-family="Arial, Helvetica, sans-serif" font-size="21" font-weight="800" fill="white" stroke="#111" stroke-width="3" paint-order="stroke">15</text>
<circle cx="1129.3" cy="673.7" r="17.1" fill="white" fill-opacity="0.84"/>
<circle cx="1129.3" cy="673.7" r="14.1" fill="#005DFF" fill-opacity="0.66" stroke="#111" stroke-width="2.5"/>
<text x="1129.3" y="680.7" text-anchor="middle" font-family="Arial, Helvetica, sans-serif" font-size="21" font-weight="800" fill="white" stroke="#111" stroke-width="3" paint-order="stroke">16</text>
<circle cx="1361.0" cy="776.0" r="21.0" fill="white" fill-opacity="0.84"/>
<circle cx="1361.0" cy="776.0" r="18.0" fill="#005DFF" fill-opacity="0.66" stroke="#111" stroke-width="2.5"/>
<text x="1361.0" y="783.0" text-anchor="middle" font-family="Arial, Helvetica, sans-serif" font-size="21" font-weight="800" fill="white" stroke="#111" stroke-width="3" paint-order="stroke">17</text>
<circle cx="1202.1" cy="818.9" r="21.1" fill="white" fill-opacity="0.84"/>
<circle cx="1202.1" cy="818.9" r="18.1" fill="#005DFF" fill-opacity="0.66" stroke="#111" stroke-width="2.5"/>
<text x="1202.1" y="825.9" text-anchor="middle" font-family="Arial, Helvetica, sans-serif" font-size="21" font-weight="800" fill="white" stroke="#111" stroke-width="3" paint-order="stroke">18</text>
<circle cx="1298.5" cy="793.0" r="17.1" fill="white" fill-opacity="0.84"/>
<circle cx="1298.5" cy="793.0" r="14.1" fill="#005DFF" fill-opacity="0.66" stroke="#111" stroke-width="2.5"/>
<text x="1298.5" y="800.0" text-anchor="middle" font-family="Arial, Helvetica, sans-serif" font-size="21" font-weight="800" fill="white" stroke="#111" stroke-width="3" paint-order="stroke">19</text>
<circle cx="1102.8" cy="901.3" r="16.2" fill="white" fill-opacity="0.84"/>
<circle cx="1102.8" cy="901.3" r="13.2" fill="#005DFF" fill-opacity="0.66" stroke="#111" stroke-width="2.5"/>
<text x="1102.8" y="908.3" text-anchor="middle" font-family="Arial, Helvetica, sans-serif" font-size="21" font-weight="800" fill="white" stroke="#111" stroke-width="3" paint-order="stroke">20</text>
<circle cx="1234.4" cy="743.7" r="18.2" fill="white" fill-opacity="0.84"/>
<circle cx="1234.4" cy="743.7" r="15.2" fill="#005DFF" fill-opacity="0.66" stroke="#111" stroke-width="2.5"/>
<text x="1234.4" y="750.7" text-anchor="middle" font-family="Arial, Helvetica, sans-serif" font-size="21" font-weight="800" fill="white" stroke="#111" stroke-width="3" paint-order="stroke">21</text>
<circle cx="1253.9" cy="705.7" r="16.1" fill="white" fill-opacity="0.84"/>
<circle cx="1253.9" cy="705.7" r="13.2" fill="#005DFF" fill-opacity="0.66" stroke="#111" stroke-width="2.5"/>
<text x="1253.9" y="712.7" text-anchor="middle" font-family="Arial, Helvetica, sans-serif" font-size="21" font-weight="800" fill="white" stroke="#111" stroke-width="3" paint-order="stroke">22</text>
<circle cx="981.0" cy="798.3" r="19.0" fill="white" fill-opacity="0.84"/>
<circle cx="981.0" cy="798.3" r="16.0" fill="#005DFF" fill-opacity="0.66" stroke="#111" stroke-width="2.5"/>
<text x="981.0" y="805.3" text-anchor="middle" font-family="Arial, Helvetica, sans-serif" font-size="21" font-weight="800" fill="white" stroke="#111" stroke-width="3" paint-order="stroke">23</text>
<circle cx="1100.3" cy="764.0" r="15.4" fill="white" fill-opacity="0.84"/>
<circle cx="1100.3" cy="764.0" r="12.4" fill="#005DFF" fill-opacity="0.66" stroke="#111" stroke-width="2.5"/>
<text x="1100.3" y="771.0" text-anchor="middle" font-family="Arial, Helvetica, sans-serif" font-size="21" font-weight="800" fill="white" stroke="#111" stroke-width="3" paint-order="stroke">24</text>
<circle cx="856.2" cy="788.5" r="18.2" fill="white" fill-opacity="0.84"/>
<circle cx="856.2" cy="788.5" r="15.2" fill="#FF8A00" fill-opacity="0.66" stroke="#111" stroke-width="2.5"/>
<text x="856.2" y="795.5" text-anchor="middle" font-family="Arial, Helvetica, sans-serif" font-size="21" font-weight="800" fill="white" stroke="#111" stroke-width="3" paint-order="stroke">25</text>
<circle cx="1057.2" cy="763.2" r="18.1" fill="white" fill-opacity="0.84"/>
<circle cx="1057.2" cy="763.2" r="15.1" fill="#FF8A00" fill-opacity="0.66" stroke="#111" stroke-width="2.5"/>
<text x="1057.2" y="770.2" text-anchor="middle" font-family="Arial, Helvetica, sans-serif" font-size="21" font-weight="800" fill="white" stroke="#111" stroke-width="3" paint-order="stroke">26</text>
<circle cx="892.4" cy="799.9" r="18.4" fill="white" fill-opacity="0.84"/>
<circle cx="892.4" cy="799.9" r="15.4" fill="#FF8A00" fill-opacity="0.66" stroke="#111" stroke-width="2.5"/>
<text x="892.4" y="806.9" text-anchor="middle" font-family="Arial, Helvetica, sans-serif" font-size="21" font-weight="800" fill="white" stroke="#111" stroke-width="3" paint-order="stroke">27</text>
<circle cx="1034.7" cy="768.4" r="17.5" fill="white" fill-opacity="0.84"/>
<circle cx="1034.7" cy="768.4" r="14.5" fill="#FF8A00" fill-opacity="0.66" stroke="#111" stroke-width="2.5"/>
<text x="1034.7" y="775.4" text-anchor="middle" font-family="Arial, Helvetica, sans-serif" font-size="21" font-weight="800" fill="white" stroke="#111" stroke-width="3" paint-order="stroke">28</text>
<circle cx="1202.5" cy="755.7" r="20.5" fill="white" fill-opacity="0.84"/>
<circle cx="1202.5" cy="755.7" r="17.5" fill="#FF8A00" fill-opacity="0.66" stroke="#111" stroke-width="2.5"/>
<text x="1202.5" y="762.7" text-anchor="middle" font-family="Arial, Helvetica, sans-serif" font-size="21" font-weight="800" fill="white" stroke="#111" stroke-width="3" paint-order="stroke">29</text>
<circle cx="860.4" cy="698.7" r="11.6" fill="white" fill-opacity="0.84"/>
<circle cx="860.4" cy="698.7" r="8.6" fill="#FF8A00" fill-opacity="0.66" stroke="#111" stroke-width="2.5"/>
<text x="860.4" y="705.7" text-anchor="middle" font-family="Arial, Helvetica, sans-serif" font-size="21" font-weight="800" fill="white" stroke="#111" stroke-width="3" paint-order="stroke">30</text>
<circle cx="876.3" cy="745.7" r="16.8" fill="white" fill-opacity="0.84"/>
<circle cx="876.3" cy="745.7" r="13.8" fill="#FF8A00" fill-opacity="0.66" stroke="#111" stroke-width="2.5"/>
<text x="876.3" y="752.7" text-anchor="middle" font-family="Arial, Helvetica, sans-serif" font-size="21" font-weight="800" fill="white" stroke="#111" stroke-width="3" paint-order="stroke">31</text>
<rect x="16" y="1094" width="1120" height="168" rx="8" fill="white" fill-opacity="0.92" stroke="#111" stroke-opacity="0.22"/>
<text x="36.0" y="1128.0" font-family="Arial, Helvetica, sans-serif" font-size="24" font-weight="600" fill="#111">K11 / k11_2.asc block 10 | pick-2-2-r.png | RT 9769 ms | 31 fixations</text>
<text x="36.0" y="1159.0" font-family="Arial, Helvetica, sans-serif" font-size="24" font-weight="600" fill="#111">numbers show fixation order; dot size shows fixation duration</text>
<circle cx="42" cy="1198" r="11" fill="#005DFF" fill-opacity="0.64" stroke="#111" stroke-width="2"/>
<text x="62.0" y="1206.0" font-family="Arial, Helvetica, sans-serif" font-size="22" font-weight="500" fill="#111">blue: before speech onset</text>
<circle cx="42" cy="1232" r="11" fill="#FF8A00" fill-opacity="0.64" stroke="#111" stroke-width="2"/>
<text x="62.0" y="1240.0" font-family="Arial, Helvetica, sans-serif" font-size="22" font-weight="500" fill="#111">orange: first 2000 ms after onset</text>
</svg>
