<svg xmlns="http://www.w3.org/2000/svg" width="1920" height="1320" viewBox="0 0 1920 1320">
<image href="https://raw.githubusercontent.com/mkurg/koryak/main/stimuli/Koryak%20stimuli%20animate%20inanimate/cover-2-2-r.png" x="0" y="0" width="1920" height="1080" preserveAspectRatio="none"/>
<rect x="0" y="0" width="1920" height="1080" fill="none" stroke="#111" stroke-width="2"/>
<rect x="0" y="1080" width="1920" height="240" fill="#f7f7f7"/>
<rect x="970.0" y="100.0" width="850" height="850" fill="none" stroke="#00B8D9" stroke-width="6" stroke-dasharray="18 12"/>
<rect x="982.0" y="62.0" width="102.0" height="38" rx="6" fill="white" fill-opacity="0.86" stroke="#00B8D9" stroke-width="3"/>
<text x="992.0" y="88.0" font-family="Arial, Helvetica, sans-serif" font-size="24" font-weight="700" fill="#111">AGENT</text>
<rect x="40.0" y="100.0" width="850" height="850" fill="none" stroke="#FF3B8A" stroke-width="6" stroke-dasharray="18 12"/>
<rect x="52.0" y="62.0" width="134.0" height="38" rx="6" fill="white" fill-opacity="0.86" stroke="#FF3B8A" stroke-width="3"/>
<text x="62.0" y="88.0" font-family="Arial, Helvetica, sans-serif" font-size="24" font-weight="700" fill="#111">PATIENT</text>
<polyline points="1191.8,543.4 1126.4,596.1 1173.4,635.9 1104.1,535.3 820.6,729.5 1153.0,594.1 1261.6,607.2 1330.4,658.5 1304.9,535.3 1133.2,552.5 1075.6,540.0 1190.5,712.5 1333.6,710.6 1359.0,617.9 1303.5,549.9 1297.4,518.0 1342.4,606.0 1370.7,675.7 1256.4,636.8 1306.2,584.1 1303.8,516.8 1082.0,525.0 1067.6,514.8 1163.8,530.0 1300.7,529.2 1271.7,650.4 1350.0,665.5 1298.1,538.5 1072.3,584.2 1212.8,598.8 1281.7,659.2 1161.1,553.4 1290.1,577.5 1181.3,637.8 731.1,731.5 805.6,711.0 1155.7,629.1 1345.3,671.1 1357.4,621.8 1256.8,705.0 1242.9,654.8 1007.9,708.8 1106.3,687.7 1094.3,621.5 1103.7,561.7 1089.4,532.4 1248.9,559.1 1295.4,642.6 1122.2,695.3 1220.3,532.1 1196.6,624.0 1295.9,669.8 1381.4,681.1 1252.8,662.2 1444.0,833.0 1254.6,710.4 1229.4,708.1 1352.9,718.0 1269.0,612.6 1258.2,689.1 927.3,656.7 1125.9,637.4" fill="none" stroke="#111" stroke-width="4" stroke-opacity="0.36" stroke-linejoin="round"/>
<circle cx="1191.8" cy="543.4" r="17.0" fill="white" fill-opacity="0.84"/>
<circle cx="1191.8" cy="543.4" r="14.0" fill="#7A3CE8" fill-opacity="0.66" stroke="#111" stroke-width="2.5"/>
<text x="1191.8" y="550.4" text-anchor="middle" font-family="Arial, Helvetica, sans-serif" font-size="21" font-weight="800" fill="white" stroke="#111" stroke-width="3" paint-order="stroke">1</text>
<circle cx="1126.4" cy="596.1" r="17.5" fill="white" fill-opacity="0.84"/>
<circle cx="1126.4" cy="596.1" r="14.5" fill="#7A3CE8" fill-opacity="0.66" stroke="#111" stroke-width="2.5"/>
<text x="1126.4" y="603.1" text-anchor="middle" font-family="Arial, Helvetica, sans-serif" font-size="21" font-weight="800" fill="white" stroke="#111" stroke-width="3" paint-order="stroke">2</text>
<circle cx="1173.4" cy="635.9" r="15.6" fill="white" fill-opacity="0.84"/>
<circle cx="1173.4" cy="635.9" r="12.6" fill="#7A3CE8" fill-opacity="0.66" stroke="#111" stroke-width="2.5"/>
<text x="1173.4" y="642.9" text-anchor="middle" font-family="Arial, Helvetica, sans-serif" font-size="21" font-weight="800" fill="white" stroke="#111" stroke-width="3" paint-order="stroke">3</text>
<circle cx="1104.1" cy="535.3" r="17.2" fill="white" fill-opacity="0.84"/>
<circle cx="1104.1" cy="535.3" r="14.2" fill="#7A3CE8" fill-opacity="0.66" stroke="#111" stroke-width="2.5"/>
<text x="1104.1" y="542.3" text-anchor="middle" font-family="Arial, Helvetica, sans-serif" font-size="21" font-weight="800" fill="white" stroke="#111" stroke-width="3" paint-order="stroke">4</text>
<circle cx="820.6" cy="729.5" r="19.5" fill="white" fill-opacity="0.84"/>
<circle cx="820.6" cy="729.5" r="16.5" fill="#7A3CE8" fill-opacity="0.66" stroke="#111" stroke-width="2.5"/>
<text x="820.6" y="736.5" text-anchor="middle" font-family="Arial, Helvetica, sans-serif" font-size="21" font-weight="800" fill="white" stroke="#111" stroke-width="3" paint-order="stroke">5</text>
<circle cx="1153.0" cy="594.1" r="15.6" fill="white" fill-opacity="0.84"/>
<circle cx="1153.0" cy="594.1" r="12.6" fill="#7A3CE8" fill-opacity="0.66" stroke="#111" stroke-width="2.5"/>
<text x="1153.0" y="601.1" text-anchor="middle" font-family="Arial, Helvetica, sans-serif" font-size="21" font-weight="800" fill="white" stroke="#111" stroke-width="3" paint-order="stroke">6</text>
<circle cx="1261.6" cy="607.2" r="16.5" fill="white" fill-opacity="0.84"/>
<circle cx="1261.6" cy="607.2" r="13.5" fill="#7A3CE8" fill-opacity="0.66" stroke="#111" stroke-width="2.5"/>
<text x="1261.6" y="614.2" text-anchor="middle" font-family="Arial, Helvetica, sans-serif" font-size="21" font-weight="800" fill="white" stroke="#111" stroke-width="3" paint-order="stroke">7</text>
<circle cx="1330.4" cy="658.5" r="17.0" fill="white" fill-opacity="0.84"/>
<circle cx="1330.4" cy="658.5" r="14.0" fill="#7A3CE8" fill-opacity="0.66" stroke="#111" stroke-width="2.5"/>
<text x="1330.4" y="665.5" text-anchor="middle" font-family="Arial, Helvetica, sans-serif" font-size="21" font-weight="800" fill="white" stroke="#111" stroke-width="3" paint-order="stroke">8</text>
<circle cx="1304.9" cy="535.3" r="20.4" fill="white" fill-opacity="0.84"/>
<circle cx="1304.9" cy="535.3" r="17.4" fill="#7A3CE8" fill-opacity="0.66" stroke="#111" stroke-width="2.5"/>
<text x="1304.9" y="542.3" text-anchor="middle" font-family="Arial, Helvetica, sans-serif" font-size="21" font-weight="800" fill="white" stroke="#111" stroke-width="3" paint-order="stroke">9</text>
<circle cx="1133.2" cy="552.5" r="15.2" fill="white" fill-opacity="0.84"/>
<circle cx="1133.2" cy="552.5" r="12.2" fill="#7A3CE8" fill-opacity="0.66" stroke="#111" stroke-width="2.5"/>
<text x="1133.2" y="559.5" text-anchor="middle" font-family="Arial, Helvetica, sans-serif" font-size="21" font-weight="800" fill="white" stroke="#111" stroke-width="3" paint-order="stroke">10</text>
<circle cx="1075.6" cy="540.0" r="19.0" fill="white" fill-opacity="0.84"/>
<circle cx="1075.6" cy="540.0" r="16.0" fill="#7A3CE8" fill-opacity="0.66" stroke="#111" stroke-width="2.5"/>
<text x="1075.6" y="547.0" text-anchor="middle" font-family="Arial, Helvetica, sans-serif" font-size="21" font-weight="800" fill="white" stroke="#111" stroke-width="3" paint-order="stroke">11</text>
<circle cx="1190.5" cy="712.5" r="15.9" fill="white" fill-opacity="0.84"/>
<circle cx="1190.5" cy="712.5" r="12.9" fill="#7A3CE8" fill-opacity="0.66" stroke="#111" stroke-width="2.5"/>
<text x="1190.5" y="719.5" text-anchor="middle" font-family="Arial, Helvetica, sans-serif" font-size="21" font-weight="800" fill="white" stroke="#111" stroke-width="3" paint-order="stroke">12</text>
<circle cx="1333.6" cy="710.6" r="18.3" fill="white" fill-opacity="0.84"/>
<circle cx="1333.6" cy="710.6" r="15.3" fill="#7A3CE8" fill-opacity="0.66" stroke="#111" stroke-width="2.5"/>
<text x="1333.6" y="717.6" text-anchor="middle" font-family="Arial, Helvetica, sans-serif" font-size="21" font-weight="800" fill="white" stroke="#111" stroke-width="3" paint-order="stroke">13</text>
<circle cx="1359.0" cy="617.9" r="12.2" fill="white" fill-opacity="0.84"/>
<circle cx="1359.0" cy="617.9" r="9.2" fill="#7A3CE8" fill-opacity="0.66" stroke="#111" stroke-width="2.5"/>
<text x="1359.0" y="624.9" text-anchor="middle" font-family="Arial, Helvetica, sans-serif" font-size="21" font-weight="800" fill="white" stroke="#111" stroke-width="3" paint-order="stroke">14</text>
<circle cx="1303.5" cy="549.9" r="15.4" fill="white" fill-opacity="0.84"/>
<circle cx="1303.5" cy="549.9" r="12.4" fill="#7A3CE8" fill-opacity="0.66" stroke="#111" stroke-width="2.5"/>
<text x="1303.5" y="556.9" text-anchor="middle" font-family="Arial, Helvetica, sans-serif" font-size="21" font-weight="800" fill="white" stroke="#111" stroke-width="3" paint-order="stroke">15</text>
<circle cx="1297.4" cy="518.0" r="18.4" fill="white" fill-opacity="0.84"/>
<circle cx="1297.4" cy="518.0" r="15.4" fill="#7A3CE8" fill-opacity="0.66" stroke="#111" stroke-width="2.5"/>
<text x="1297.4" y="525.0" text-anchor="middle" font-family="Arial, Helvetica, sans-serif" font-size="21" font-weight="800" fill="white" stroke="#111" stroke-width="3" paint-order="stroke">16</text>
<circle cx="1342.4" cy="606.0" r="17.9" fill="white" fill-opacity="0.84"/>
<circle cx="1342.4" cy="606.0" r="14.9" fill="#7A3CE8" fill-opacity="0.66" stroke="#111" stroke-width="2.5"/>
<text x="1342.4" y="613.0" text-anchor="middle" font-family="Arial, Helvetica, sans-serif" font-size="21" font-weight="800" fill="white" stroke="#111" stroke-width="3" paint-order="stroke">17</text>
<circle cx="1370.7" cy="675.7" r="18.1" fill="white" fill-opacity="0.84"/>
<circle cx="1370.7" cy="675.7" r="15.1" fill="#7A3CE8" fill-opacity="0.66" stroke="#111" stroke-width="2.5"/>
<text x="1370.7" y="682.7" text-anchor="middle" font-family="Arial, Helvetica, sans-serif" font-size="21" font-weight="800" fill="white" stroke="#111" stroke-width="3" paint-order="stroke">18</text>
<circle cx="1256.4" cy="636.8" r="14.0" fill="white" fill-opacity="0.84"/>
<circle cx="1256.4" cy="636.8" r="11.0" fill="#7A3CE8" fill-opacity="0.66" stroke="#111" stroke-width="2.5"/>
<text x="1256.4" y="643.8" text-anchor="middle" font-family="Arial, Helvetica, sans-serif" font-size="21" font-weight="800" fill="white" stroke="#111" stroke-width="3" paint-order="stroke">19</text>
<circle cx="1306.2" cy="584.1" r="15.1" fill="white" fill-opacity="0.84"/>
<circle cx="1306.2" cy="584.1" r="12.1" fill="#7A3CE8" fill-opacity="0.66" stroke="#111" stroke-width="2.5"/>
<text x="1306.2" y="591.1" text-anchor="middle" font-family="Arial, Helvetica, sans-serif" font-size="21" font-weight="800" fill="white" stroke="#111" stroke-width="3" paint-order="stroke">20</text>
<circle cx="1303.8" cy="516.8" r="17.3" fill="white" fill-opacity="0.84"/>
<circle cx="1303.8" cy="516.8" r="14.3" fill="#7A3CE8" fill-opacity="0.66" stroke="#111" stroke-width="2.5"/>
<text x="1303.8" y="523.8" text-anchor="middle" font-family="Arial, Helvetica, sans-serif" font-size="21" font-weight="800" fill="white" stroke="#111" stroke-width="3" paint-order="stroke">21</text>
<circle cx="1082.0" cy="525.0" r="17.9" fill="white" fill-opacity="0.84"/>
<circle cx="1082.0" cy="525.0" r="14.9" fill="#7A3CE8" fill-opacity="0.66" stroke="#111" stroke-width="2.5"/>
<text x="1082.0" y="532.0" text-anchor="middle" font-family="Arial, Helvetica, sans-serif" font-size="21" font-weight="800" fill="white" stroke="#111" stroke-width="3" paint-order="stroke">22</text>
<circle cx="1067.6" cy="514.8" r="18.2" fill="white" fill-opacity="0.84"/>
<circle cx="1067.6" cy="514.8" r="15.2" fill="#7A3CE8" fill-opacity="0.66" stroke="#111" stroke-width="2.5"/>
<text x="1067.6" y="521.8" text-anchor="middle" font-family="Arial, Helvetica, sans-serif" font-size="21" font-weight="800" fill="white" stroke="#111" stroke-width="3" paint-order="stroke">23</text>
<circle cx="1163.8" cy="530.0" r="15.6" fill="white" fill-opacity="0.84"/>
<circle cx="1163.8" cy="530.0" r="12.6" fill="#7A3CE8" fill-opacity="0.66" stroke="#111" stroke-width="2.5"/>
<text x="1163.8" y="537.0" text-anchor="middle" font-family="Arial, Helvetica, sans-serif" font-size="21" font-weight="800" fill="white" stroke="#111" stroke-width="3" paint-order="stroke">24</text>
<circle cx="1300.7" cy="529.2" r="18.6" fill="white" fill-opacity="0.84"/>
<circle cx="1300.7" cy="529.2" r="15.6" fill="#7A3CE8" fill-opacity="0.66" stroke="#111" stroke-width="2.5"/>
<text x="1300.7" y="536.2" text-anchor="middle" font-family="Arial, Helvetica, sans-serif" font-size="21" font-weight="800" fill="white" stroke="#111" stroke-width="3" paint-order="stroke">25</text>
<circle cx="1271.7" cy="650.4" r="13.4" fill="white" fill-opacity="0.84"/>
<circle cx="1271.7" cy="650.4" r="10.4" fill="#7A3CE8" fill-opacity="0.66" stroke="#111" stroke-width="2.5"/>
<text x="1271.7" y="657.4" text-anchor="middle" font-family="Arial, Helvetica, sans-serif" font-size="21" font-weight="800" fill="white" stroke="#111" stroke-width="3" paint-order="stroke">26</text>
<circle cx="1350.0" cy="665.5" r="17.1" fill="white" fill-opacity="0.84"/>
<circle cx="1350.0" cy="665.5" r="14.1" fill="#7A3CE8" fill-opacity="0.66" stroke="#111" stroke-width="2.5"/>
<text x="1350.0" y="672.5" text-anchor="middle" font-family="Arial, Helvetica, sans-serif" font-size="21" font-weight="800" fill="white" stroke="#111" stroke-width="3" paint-order="stroke">27</text>
<circle cx="1298.1" cy="538.5" r="20.3" fill="white" fill-opacity="0.84"/>
<circle cx="1298.1" cy="538.5" r="17.3" fill="#7A3CE8" fill-opacity="0.66" stroke="#111" stroke-width="2.5"/>
<text x="1298.1" y="545.5" text-anchor="middle" font-family="Arial, Helvetica, sans-serif" font-size="21" font-weight="800" fill="white" stroke="#111" stroke-width="3" paint-order="stroke">28</text>
<circle cx="1072.3" cy="584.2" r="18.4" fill="white" fill-opacity="0.84"/>
<circle cx="1072.3" cy="584.2" r="15.4" fill="#7A3CE8" fill-opacity="0.66" stroke="#111" stroke-width="2.5"/>
<text x="1072.3" y="591.2" text-anchor="middle" font-family="Arial, Helvetica, sans-serif" font-size="21" font-weight="800" fill="white" stroke="#111" stroke-width="3" paint-order="stroke">29</text>
<circle cx="1212.8" cy="598.8" r="18.9" fill="white" fill-opacity="0.84"/>
<circle cx="1212.8" cy="598.8" r="15.9" fill="#7A3CE8" fill-opacity="0.66" stroke="#111" stroke-width="2.5"/>
<text x="1212.8" y="605.8" text-anchor="middle" font-family="Arial, Helvetica, sans-serif" font-size="21" font-weight="800" fill="white" stroke="#111" stroke-width="3" paint-order="stroke">30</text>
<circle cx="1281.7" cy="659.2" r="19.8" fill="white" fill-opacity="0.84"/>
<circle cx="1281.7" cy="659.2" r="16.8" fill="#7A3CE8" fill-opacity="0.66" stroke="#111" stroke-width="2.5"/>
<text x="1281.7" y="666.2" text-anchor="middle" font-family="Arial, Helvetica, sans-serif" font-size="21" font-weight="800" fill="white" stroke="#111" stroke-width="3" paint-order="stroke">31</text>
<circle cx="1161.1" cy="553.4" r="18.5" fill="white" fill-opacity="0.84"/>
<circle cx="1161.1" cy="553.4" r="15.5" fill="#7A3CE8" fill-opacity="0.66" stroke="#111" stroke-width="2.5"/>
<text x="1161.1" y="560.4" text-anchor="middle" font-family="Arial, Helvetica, sans-serif" font-size="21" font-weight="800" fill="white" stroke="#111" stroke-width="3" paint-order="stroke">32</text>
<circle cx="1290.1" cy="577.5" r="28.7" fill="white" fill-opacity="0.84"/>
<circle cx="1290.1" cy="577.5" r="25.7" fill="#7A3CE8" fill-opacity="0.66" stroke="#111" stroke-width="2.5"/>
<text x="1290.1" y="584.5" text-anchor="middle" font-family="Arial, Helvetica, sans-serif" font-size="21" font-weight="800" fill="white" stroke="#111" stroke-width="3" paint-order="stroke">33</text>
<circle cx="1181.3" cy="637.8" r="20.1" fill="white" fill-opacity="0.84"/>
<circle cx="1181.3" cy="637.8" r="17.1" fill="#7A3CE8" fill-opacity="0.66" stroke="#111" stroke-width="2.5"/>
<text x="1181.3" y="644.8" text-anchor="middle" font-family="Arial, Helvetica, sans-serif" font-size="21" font-weight="800" fill="white" stroke="#111" stroke-width="3" paint-order="stroke">34</text>
<circle cx="731.1" cy="731.5" r="16.3" fill="white" fill-opacity="0.84"/>
<circle cx="731.1" cy="731.5" r="13.3" fill="#7A3CE8" fill-opacity="0.66" stroke="#111" stroke-width="2.5"/>
<text x="731.1" y="738.5" text-anchor="middle" font-family="Arial, Helvetica, sans-serif" font-size="21" font-weight="800" fill="white" stroke="#111" stroke-width="3" paint-order="stroke">35</text>
<circle cx="805.6" cy="711.0" r="19.1" fill="white" fill-opacity="0.84"/>
<circle cx="805.6" cy="711.0" r="16.1" fill="#7A3CE8" fill-opacity="0.66" stroke="#111" stroke-width="2.5"/>
<text x="805.6" y="718.0" text-anchor="middle" font-family="Arial, Helvetica, sans-serif" font-size="21" font-weight="800" fill="white" stroke="#111" stroke-width="3" paint-order="stroke">36</text>
<circle cx="1155.7" cy="629.1" r="18.1" fill="white" fill-opacity="0.84"/>
<circle cx="1155.7" cy="629.1" r="15.1" fill="#7A3CE8" fill-opacity="0.66" stroke="#111" stroke-width="2.5"/>
<text x="1155.7" y="636.1" text-anchor="middle" font-family="Arial, Helvetica, sans-serif" font-size="21" font-weight="800" fill="white" stroke="#111" stroke-width="3" paint-order="stroke">37</text>
<circle cx="1345.3" cy="671.1" r="17.8" fill="white" fill-opacity="0.84"/>
<circle cx="1345.3" cy="671.1" r="14.8" fill="#7A3CE8" fill-opacity="0.66" stroke="#111" stroke-width="2.5"/>
<text x="1345.3" y="678.1" text-anchor="middle" font-family="Arial, Helvetica, sans-serif" font-size="21" font-weight="800" fill="white" stroke="#111" stroke-width="3" paint-order="stroke">38</text>
<circle cx="1357.4" cy="621.8" r="17.1" fill="white" fill-opacity="0.84"/>
<circle cx="1357.4" cy="621.8" r="14.1" fill="#7A3CE8" fill-opacity="0.66" stroke="#111" stroke-width="2.5"/>
<text x="1357.4" y="628.8" text-anchor="middle" font-family="Arial, Helvetica, sans-serif" font-size="21" font-weight="800" fill="white" stroke="#111" stroke-width="3" paint-order="stroke">39</text>
<circle cx="1256.8" cy="705.0" r="29.1" fill="white" fill-opacity="0.84"/>
<circle cx="1256.8" cy="705.0" r="26.1" fill="#7A3CE8" fill-opacity="0.66" stroke="#111" stroke-width="2.5"/>
<text x="1256.8" y="712.0" text-anchor="middle" font-family="Arial, Helvetica, sans-serif" font-size="21" font-weight="800" fill="white" stroke="#111" stroke-width="3" paint-order="stroke">40</text>
<circle cx="1242.9" cy="654.8" r="21.6" fill="white" fill-opacity="0.84"/>
<circle cx="1242.9" cy="654.8" r="18.6" fill="#7A3CE8" fill-opacity="0.66" stroke="#111" stroke-width="2.5"/>
<text x="1242.9" y="661.8" text-anchor="middle" font-family="Arial, Helvetica, sans-serif" font-size="21" font-weight="800" fill="white" stroke="#111" stroke-width="3" paint-order="stroke">41</text>
<circle cx="1007.9" cy="708.8" r="16.2" fill="white" fill-opacity="0.84"/>
<circle cx="1007.9" cy="708.8" r="13.2" fill="#7A3CE8" fill-opacity="0.66" stroke="#111" stroke-width="2.5"/>
<text x="1007.9" y="715.8" text-anchor="middle" font-family="Arial, Helvetica, sans-serif" font-size="21" font-weight="800" fill="white" stroke="#111" stroke-width="3" paint-order="stroke">42</text>
<circle cx="1106.3" cy="687.7" r="18.9" fill="white" fill-opacity="0.84"/>
<circle cx="1106.3" cy="687.7" r="15.9" fill="#7A3CE8" fill-opacity="0.66" stroke="#111" stroke-width="2.5"/>
<text x="1106.3" y="694.7" text-anchor="middle" font-family="Arial, Helvetica, sans-serif" font-size="21" font-weight="800" fill="white" stroke="#111" stroke-width="3" paint-order="stroke">43</text>
<circle cx="1094.3" cy="621.5" r="14.4" fill="white" fill-opacity="0.84"/>
<circle cx="1094.3" cy="621.5" r="11.4" fill="#7A3CE8" fill-opacity="0.66" stroke="#111" stroke-width="2.5"/>
<text x="1094.3" y="628.5" text-anchor="middle" font-family="Arial, Helvetica, sans-serif" font-size="21" font-weight="800" fill="white" stroke="#111" stroke-width="3" paint-order="stroke">44</text>
<circle cx="1103.7" cy="561.7" r="15.3" fill="white" fill-opacity="0.84"/>
<circle cx="1103.7" cy="561.7" r="12.3" fill="#7A3CE8" fill-opacity="0.66" stroke="#111" stroke-width="2.5"/>
<text x="1103.7" y="568.7" text-anchor="middle" font-family="Arial, Helvetica, sans-serif" font-size="21" font-weight="800" fill="white" stroke="#111" stroke-width="3" paint-order="stroke">45</text>
<circle cx="1089.4" cy="532.4" r="17.3" fill="white" fill-opacity="0.84"/>
<circle cx="1089.4" cy="532.4" r="14.3" fill="#7A3CE8" fill-opacity="0.66" stroke="#111" stroke-width="2.5"/>
<text x="1089.4" y="539.4" text-anchor="middle" font-family="Arial, Helvetica, sans-serif" font-size="21" font-weight="800" fill="white" stroke="#111" stroke-width="3" paint-order="stroke">46</text>
<circle cx="1248.9" cy="559.1" r="17.0" fill="white" fill-opacity="0.84"/>
<circle cx="1248.9" cy="559.1" r="14.0" fill="#7A3CE8" fill-opacity="0.66" stroke="#111" stroke-width="2.5"/>
<text x="1248.9" y="566.1" text-anchor="middle" font-family="Arial, Helvetica, sans-serif" font-size="21" font-weight="800" fill="white" stroke="#111" stroke-width="3" paint-order="stroke">47</text>
<circle cx="1295.4" cy="642.6" r="22.4" fill="white" fill-opacity="0.84"/>
<circle cx="1295.4" cy="642.6" r="19.4" fill="#7A3CE8" fill-opacity="0.66" stroke="#111" stroke-width="2.5"/>
<text x="1295.4" y="649.6" text-anchor="middle" font-family="Arial, Helvetica, sans-serif" font-size="21" font-weight="800" fill="white" stroke="#111" stroke-width="3" paint-order="stroke">48</text>
<circle cx="1122.2" cy="695.3" r="31.0" fill="white" fill-opacity="0.84"/>
<circle cx="1122.2" cy="695.3" r="28.0" fill="#7A3CE8" fill-opacity="0.66" stroke="#111" stroke-width="2.5"/>
<text x="1122.2" y="702.3" text-anchor="middle" font-family="Arial, Helvetica, sans-serif" font-size="21" font-weight="800" fill="white" stroke="#111" stroke-width="3" paint-order="stroke">49</text>
<circle cx="1220.3" cy="532.1" r="12.5" fill="white" fill-opacity="0.84"/>
<circle cx="1220.3" cy="532.1" r="9.5" fill="#7A3CE8" fill-opacity="0.66" stroke="#111" stroke-width="2.5"/>
<text x="1220.3" y="539.1" text-anchor="middle" font-family="Arial, Helvetica, sans-serif" font-size="21" font-weight="800" fill="white" stroke="#111" stroke-width="3" paint-order="stroke">50</text>
<circle cx="1196.6" cy="624.0" r="19.2" fill="white" fill-opacity="0.84"/>
<circle cx="1196.6" cy="624.0" r="16.2" fill="#7A3CE8" fill-opacity="0.66" stroke="#111" stroke-width="2.5"/>
<text x="1196.6" y="631.0" text-anchor="middle" font-family="Arial, Helvetica, sans-serif" font-size="21" font-weight="800" fill="white" stroke="#111" stroke-width="3" paint-order="stroke">51</text>
<circle cx="1295.9" cy="669.8" r="31.0" fill="white" fill-opacity="0.84"/>
<circle cx="1295.9" cy="669.8" r="28.0" fill="#7A3CE8" fill-opacity="0.66" stroke="#111" stroke-width="2.5"/>
<text x="1295.9" y="676.8" text-anchor="middle" font-family="Arial, Helvetica, sans-serif" font-size="21" font-weight="800" fill="white" stroke="#111" stroke-width="3" paint-order="stroke">52</text>
<circle cx="1381.4" cy="681.1" r="11.5" fill="white" fill-opacity="0.84"/>
<circle cx="1381.4" cy="681.1" r="8.5" fill="#7A3CE8" fill-opacity="0.66" stroke="#111" stroke-width="2.5"/>
<text x="1381.4" y="688.1" text-anchor="middle" font-family="Arial, Helvetica, sans-serif" font-size="21" font-weight="800" fill="white" stroke="#111" stroke-width="3" paint-order="stroke">53</text>
<circle cx="1252.8" cy="662.2" r="19.7" fill="white" fill-opacity="0.84"/>
<circle cx="1252.8" cy="662.2" r="16.7" fill="#7A3CE8" fill-opacity="0.66" stroke="#111" stroke-width="2.5"/>
<text x="1252.8" y="669.2" text-anchor="middle" font-family="Arial, Helvetica, sans-serif" font-size="21" font-weight="800" fill="white" stroke="#111" stroke-width="3" paint-order="stroke">54</text>
<circle cx="1444.0" cy="833.0" r="21.1" fill="white" fill-opacity="0.84"/>
<circle cx="1444.0" cy="833.0" r="18.1" fill="#7A3CE8" fill-opacity="0.66" stroke="#111" stroke-width="2.5"/>
<text x="1444.0" y="840.0" text-anchor="middle" font-family="Arial, Helvetica, sans-serif" font-size="21" font-weight="800" fill="white" stroke="#111" stroke-width="3" paint-order="stroke">55</text>
<circle cx="1254.6" cy="710.4" r="22.1" fill="white" fill-opacity="0.84"/>
<circle cx="1254.6" cy="710.4" r="19.1" fill="#7A3CE8" fill-opacity="0.66" stroke="#111" stroke-width="2.5"/>
<text x="1254.6" y="717.4" text-anchor="middle" font-family="Arial, Helvetica, sans-serif" font-size="21" font-weight="800" fill="white" stroke="#111" stroke-width="3" paint-order="stroke">56</text>
<circle cx="1229.4" cy="708.1" r="21.6" fill="white" fill-opacity="0.84"/>
<circle cx="1229.4" cy="708.1" r="18.6" fill="#7A3CE8" fill-opacity="0.66" stroke="#111" stroke-width="2.5"/>
<text x="1229.4" y="715.1" text-anchor="middle" font-family="Arial, Helvetica, sans-serif" font-size="21" font-weight="800" fill="white" stroke="#111" stroke-width="3" paint-order="stroke">57</text>
<circle cx="1352.9" cy="718.0" r="26.1" fill="white" fill-opacity="0.84"/>
<circle cx="1352.9" cy="718.0" r="23.1" fill="#7A3CE8" fill-opacity="0.66" stroke="#111" stroke-width="2.5"/>
<text x="1352.9" y="725.0" text-anchor="middle" font-family="Arial, Helvetica, sans-serif" font-size="21" font-weight="800" fill="white" stroke="#111" stroke-width="3" paint-order="stroke">58</text>
<circle cx="1269.0" cy="612.6" r="12.1" fill="white" fill-opacity="0.84"/>
<circle cx="1269.0" cy="612.6" r="9.1" fill="#7A3CE8" fill-opacity="0.66" stroke="#111" stroke-width="2.5"/>
<text x="1269.0" y="619.6" text-anchor="middle" font-family="Arial, Helvetica, sans-serif" font-size="21" font-weight="800" fill="white" stroke="#111" stroke-width="3" paint-order="stroke">59</text>
<circle cx="1258.2" cy="689.1" r="17.9" fill="white" fill-opacity="0.84"/>
<circle cx="1258.2" cy="689.1" r="14.9" fill="#7A3CE8" fill-opacity="0.66" stroke="#111" stroke-width="2.5"/>
<text x="1258.2" y="696.1" text-anchor="middle" font-family="Arial, Helvetica, sans-serif" font-size="21" font-weight="800" fill="white" stroke="#111" stroke-width="3" paint-order="stroke">60</text>
<circle cx="927.3" cy="656.7" r="18.4" fill="white" fill-opacity="0.84"/>
<circle cx="927.3" cy="656.7" r="15.4" fill="#7A3CE8" fill-opacity="0.66" stroke="#111" stroke-width="2.5"/>
<text x="927.3" y="663.7" text-anchor="middle" font-family="Arial, Helvetica, sans-serif" font-size="21" font-weight="800" fill="white" stroke="#111" stroke-width="3" paint-order="stroke">61</text>
<circle cx="1125.9" cy="637.4" r="14.1" fill="white" fill-opacity="0.84"/>
<circle cx="1125.9" cy="637.4" r="11.1" fill="#7A3CE8" fill-opacity="0.66" stroke="#111" stroke-width="2.5"/>
<text x="1125.9" y="644.4" text-anchor="middle" font-family="Arial, Helvetica, sans-serif" font-size="21" font-weight="800" fill="white" stroke="#111" stroke-width="3" paint-order="stroke">62</text>
<rect x="16" y="1094" width="1120" height="168" rx="8" fill="white" fill-opacity="0.92" stroke="#111" stroke-opacity="0.22"/>
<text x="36.0" y="1128.0" font-family="Arial, Helvetica, sans-serif" font-size="24" font-weight="600" fill="#111">K11 / k11_2.asc block 18 | cover-2-2-r.png | RT NA ms | 62 fixations</text>
<text x="36.0" y="1159.0" font-family="Arial, Helvetica, sans-serif" font-size="24" font-weight="600" fill="#111">numbers show fixation order; dot size shows fixation duration</text>
<circle cx="42" cy="1198" r="11" fill="#005DFF" fill-opacity="0.64" stroke="#111" stroke-width="2"/>
<text x="62.0" y="1206.0" font-family="Arial, Helvetica, sans-serif" font-size="22" font-weight="500" fill="#111">blue: before speech onset</text>
<circle cx="42" cy="1232" r="11" fill="#FF8A00" fill-opacity="0.64" stroke="#111" stroke-width="2"/>
<text x="62.0" y="1240.0" font-family="Arial, Helvetica, sans-serif" font-size="22" font-weight="500" fill="#111">orange: first 2000 ms after onset</text>
</svg>
