<svg xmlns="http://www.w3.org/2000/svg" width="900" height="560" viewBox="0 0 900 560">
<rect width="100%" height="100%" fill="white"/>
<style>
text { font-family: Arial, Helvetica, sans-serif; fill: #222; }
.title { font-size: 21px; font-weight: 700; }
.subtitle { font-size: 13px; fill: #555; }
.axis { stroke: #222; stroke-width: 1; }
.grid { stroke: #dddddd; stroke-width: 1; }
.tick { font-size: 12px; fill: #333; }
.label { font-size: 14px; fill: #222; }
.legend { font-size: 13px; fill: #222; }
.onset { font-size: 13px; font-weight: 700; fill: #222; }
</style>
<text class="title" x="453.0" y="30" text-anchor="middle">Khanty Speech Planning: Active sentences</text>
<text class="subtitle" x="453.0" y="51" text-anchor="middle">0-3500 ms from sentence display; 50-ms bins; n = 414 trials</text>
<line class="grid" x1="86" x2="820" y1="470.00" y2="470.00"/>
<text class="tick" x="76" y="474.00" text-anchor="end">0.0</text>
<line class="grid" x1="86" x2="820" y1="430.20" y2="430.20"/>
<text class="tick" x="76" y="434.20" text-anchor="end">0.1</text>
<line class="grid" x1="86" x2="820" y1="390.40" y2="390.40"/>
<text class="tick" x="76" y="394.40" text-anchor="end">0.2</text>
<line class="grid" x1="86" x2="820" y1="350.60" y2="350.60"/>
<text class="tick" x="76" y="354.60" text-anchor="end">0.3</text>
<line class="grid" x1="86" x2="820" y1="310.80" y2="310.80"/>
<text class="tick" x="76" y="314.80" text-anchor="end">0.4</text>
<line class="grid" x1="86" x2="820" y1="271.00" y2="271.00"/>
<text class="tick" x="76" y="275.00" text-anchor="end">0.5</text>
<line class="grid" x1="86" x2="820" y1="231.20" y2="231.20"/>
<text class="tick" x="76" y="235.20" text-anchor="end">0.6</text>
<line class="grid" x1="86" x2="820" y1="191.40" y2="191.40"/>
<text class="tick" x="76" y="195.40" text-anchor="end">0.7</text>
<line class="grid" x1="86" x2="820" y1="151.60" y2="151.60"/>
<text class="tick" x="76" y="155.60" text-anchor="end">0.8</text>
<line class="grid" x1="86" x2="820" y1="111.80" y2="111.80"/>
<text class="tick" x="76" y="115.80" text-anchor="end">0.9</text>
<line class="grid" x1="86" x2="820" y1="72.00" y2="72.00"/>
<text class="tick" x="76" y="76.00" text-anchor="end">1.0</text>
<line class="grid" x1="86.00" x2="86.00" y1="72" y2="470"/>
<text class="tick" x="86.00" y="492" text-anchor="middle">0</text>
<line class="grid" x1="190.86" x2="190.86" y1="72" y2="470"/>
<text class="tick" x="190.86" y="492" text-anchor="middle">500</text>
<line class="grid" x1="295.71" x2="295.71" y1="72" y2="470"/>
<text class="tick" x="295.71" y="492" text-anchor="middle">1000</text>
<line class="grid" x1="400.57" x2="400.57" y1="72" y2="470"/>
<text class="tick" x="400.57" y="492" text-anchor="middle">1500</text>
<line class="grid" x1="505.43" x2="505.43" y1="72" y2="470"/>
<text class="tick" x="505.43" y="492" text-anchor="middle">2000</text>
<line class="grid" x1="610.29" x2="610.29" y1="72" y2="470"/>
<text class="tick" x="610.29" y="492" text-anchor="middle">2500</text>
<line class="grid" x1="715.14" x2="715.14" y1="72" y2="470"/>
<text class="tick" x="715.14" y="492" text-anchor="middle">3000</text>
<line class="grid" x1="820.00" x2="820.00" y1="72" y2="470"/>
<text class="tick" x="820.00" y="492" text-anchor="middle">3500</text>
<line class="axis" x1="86" x2="820" y1="470" y2="470"/>
<line class="axis" x1="86" x2="86" y1="72" y2="470"/>
<text class="label" x="453.0" y="532" text-anchor="middle">Time from sentence display (ms)</text>
<text class="label" x="22" y="271.0" text-anchor="middle" transform="rotate(-90 22 271.0)">Proportion of Looks</text>
<line x1="626.20" x2="626.20" y1="72" y2="470" stroke="#333333" stroke-width="2" stroke-dasharray="7 6"/>
<rect x="632.20" y="77.00" width="80" height="22" fill="white" opacity="0.92"/>
<text class="onset" x="638.20" y="92.00">2576 ms</text>
<polygon points="86.00,296.55 96.49,296.83 106.97,297.65 117.46,293.35 127.94,272.57 138.43,267.65 148.91,257.45 159.40,253.40 169.89,249.19 180.37,243.23 190.86,245.03 201.34,240.14 211.83,232.22 222.31,219.15 232.80,216.62 243.29,204.38 253.77,204.05 264.26,202.80 274.74,204.51 285.23,209.82 295.71,214.66 306.20,216.05 316.69,211.27 327.17,209.14 337.66,218.12 348.14,226.78 358.63,231.87 369.11,231.40 379.60,232.00 390.09,232.15 400.57,229.50 411.06,222.79 421.54,228.58 432.03,228.37 442.51,233.89 453.00,229.10 463.49,224.20 473.97,223.94 484.46,216.57 494.94,211.13 505.43,219.44 515.91,227.11 526.40,236.80 536.89,236.99 547.37,226.08 557.86,222.76 568.34,221.33 578.83,222.64 589.31,221.36 599.80,230.67 610.29,228.31 620.77,230.62 631.26,234.64 641.74,230.37 652.23,225.35 662.71,220.41 673.20,211.61 683.69,209.10 694.17,214.00 704.66,215.59 715.14,211.40 725.63,204.04 736.11,199.43 746.60,199.20 757.09,200.24 767.57,198.69 778.06,210.80 788.54,206.35 799.03,208.04 809.51,215.53 809.51,306.24 799.03,295.54 788.54,290.92 778.06,292.69 767.57,281.95 757.09,279.44 746.60,277.27 736.11,276.75 725.63,278.48 715.14,285.91 704.66,287.09 694.17,284.42 683.69,276.69 673.20,277.95 662.71,284.82 652.23,288.90 641.74,292.18 631.26,294.61 620.77,289.35 610.29,285.96 599.80,286.33 589.31,275.92 578.83,275.81 568.34,273.20 557.86,273.97 547.37,275.71 536.89,285.68 526.40,285.30 515.91,274.56 505.43,264.93 494.94,255.66 484.46,260.65 473.97,267.24 463.49,267.36 453.00,271.13 442.51,275.42 432.03,269.08 421.54,268.84 411.06,262.84 400.57,268.92 390.09,271.44 379.60,271.59 369.11,270.21 358.63,271.09 348.14,265.54 337.66,255.77 327.17,246.61 316.69,248.75 306.20,253.55 295.71,252.20 285.23,246.68 274.74,241.34 264.26,239.29 253.77,241.35 243.29,241.29 232.80,254.20 222.31,256.67 211.83,270.17 201.34,278.06 190.86,283.28 180.37,281.20 169.89,286.89 159.40,291.18 148.91,294.81 138.43,304.76 127.94,308.15 117.46,329.74 106.97,335.14 96.49,334.07 86.00,333.62" fill="#CC3311" opacity="0.12"/>
<path d="M86.00,315.09 L96.49,315.45 L106.97,316.40 L117.46,311.55 L127.94,290.36 L138.43,286.21 L148.91,276.13 L159.40,272.29 L169.89,268.04 L180.37,262.21 L190.86,264.16 L201.34,259.10 L211.83,251.20 L222.31,237.91 L232.80,235.41 L243.29,222.84 L253.77,222.70 L264.26,221.05 L274.74,222.93 L285.23,228.25 L295.71,233.43 L306.20,234.80 L316.69,230.01 L327.17,227.88 L337.66,236.94 L348.14,246.16 L358.63,251.48 L369.11,250.80 L379.60,251.79 L390.09,251.79 L400.57,249.21 L411.06,242.82 L421.54,248.71 L432.03,248.72 L442.51,254.65 L453.00,250.12 L463.49,245.78 L473.97,245.59 L484.46,238.61 L494.94,233.40 L505.43,242.18 L515.91,250.84 L526.40,261.05 L536.89,261.33 L547.37,250.90 L557.86,248.37 L568.34,247.26 L578.83,249.22 L589.31,248.64 L599.80,258.50 L610.29,257.13 L620.77,259.98 L631.26,264.62 L641.74,261.28 L652.23,257.12 L662.71,252.61 L673.20,244.78 L683.69,242.90 L694.17,249.21 L704.66,251.34 L715.14,248.65 L725.63,241.26 L736.11,238.09 L746.60,238.24 L757.09,239.84 L767.57,240.32 L778.06,251.74 L788.54,248.64 L799.03,251.79 L809.51,260.89" fill="none" stroke="#CC3311" stroke-width="3" stroke-linejoin="round" stroke-linecap="round"/>
<polygon points="86.00,292.36 96.49,290.16 106.97,285.96 117.46,280.85 127.94,277.57 138.43,263.38 148.91,267.69 159.40,270.44 169.89,276.85 180.37,284.74 190.86,284.23 201.34,292.28 211.83,302.02 222.31,313.85 232.80,316.23 243.29,327.40 253.77,331.40 264.26,340.50 274.74,347.14 285.23,348.40 295.71,344.78 306.20,339.17 316.69,344.50 327.17,344.08 337.66,335.43 348.14,324.46 358.63,321.03 369.11,316.97 379.60,316.39 390.09,317.64 400.57,317.63 411.06,324.35 421.54,315.53 432.03,310.97 442.51,309.58 453.00,316.73 463.49,320.57 473.97,318.99 484.46,315.38 494.94,317.55 505.43,313.72 515.91,309.04 526.40,301.04 536.89,296.29 547.37,298.12 557.86,304.23 568.34,311.81 578.83,309.27 589.31,308.48 599.80,302.32 610.29,304.79 620.77,300.18 631.26,284.35 641.74,285.50 652.23,286.92 662.71,288.85 673.20,296.11 683.69,296.77 694.17,301.73 704.66,297.59 715.14,298.70 725.63,305.01 736.11,300.26 746.60,294.44 757.09,289.79 767.57,290.56 778.06,278.59 788.54,281.63 799.03,274.73 809.51,268.33 809.51,357.14 799.03,360.29 788.54,363.85 778.06,359.09 767.57,371.29 757.09,366.70 746.60,369.72 736.11,373.95 725.63,376.81 715.14,369.93 704.66,366.51 694.17,368.80 683.69,362.06 673.20,359.85 662.71,352.04 652.23,349.44 641.74,346.18 631.26,342.65 620.77,356.59 610.29,359.84 599.80,355.62 589.31,360.04 578.83,360.09 568.34,361.24 557.86,353.68 547.37,346.06 536.89,343.63 526.40,347.68 515.91,354.66 505.43,357.29 494.94,360.10 484.46,357.68 473.97,360.26 463.49,361.33 453.00,357.11 442.51,349.45 432.03,350.34 421.54,353.88 411.06,361.96 400.57,355.25 390.09,354.86 379.60,353.93 369.11,353.95 358.63,358.08 348.14,360.70 337.66,370.33 327.17,378.30 316.69,378.51 306.20,373.62 295.71,378.77 285.23,381.89 274.74,380.51 264.26,374.62 253.77,366.65 243.29,362.68 232.80,352.40 222.31,349.85 211.83,338.97 201.34,329.24 190.86,321.98 180.37,322.02 169.89,314.25 159.40,308.09 148.91,304.96 138.43,300.77 127.94,313.30 117.46,317.87 106.97,323.87 96.49,327.44 86.00,329.63" fill="#0077BB" opacity="0.12"/>
<path d="M86.00,310.99 L96.49,308.80 L106.97,304.92 L117.46,299.36 L127.94,295.44 L138.43,282.07 L148.91,286.32 L159.40,289.27 L169.89,295.55 L180.37,303.38 L190.86,303.11 L201.34,310.76 L211.83,320.49 L222.31,331.85 L232.80,334.31 L243.29,345.04 L253.77,349.02 L264.26,357.56 L274.74,363.83 L285.23,365.14 L295.71,361.77 L306.20,356.40 L316.69,361.51 L327.17,361.19 L337.66,352.88 L348.14,342.58 L358.63,339.55 L369.11,335.46 L379.60,335.16 L390.09,336.25 L400.57,336.44 L411.06,343.16 L421.54,334.70 L432.03,330.65 L442.51,329.51 L453.00,336.92 L463.49,340.95 L473.97,339.62 L484.46,336.53 L494.94,338.82 L505.43,335.51 L515.91,331.85 L526.40,324.36 L536.89,319.96 L547.37,322.09 L557.86,328.96 L568.34,336.53 L578.83,334.68 L589.31,334.26 L599.80,328.97 L610.29,332.32 L620.77,328.38 L631.26,313.50 L641.74,315.84 L652.23,318.18 L662.71,320.44 L673.20,327.98 L683.69,329.41 L694.17,335.27 L704.66,332.05 L715.14,334.31 L725.63,340.91 L736.11,337.10 L746.60,332.08 L757.09,328.24 L767.57,330.92 L778.06,318.84 L788.54,322.74 L799.03,317.51 L809.51,312.74" fill="none" stroke="#0077BB" stroke-width="3" stroke-linejoin="round" stroke-linecap="round"/>
<line x1="655" x2="683" y1="107" y2="107" stroke="#CC3311" stroke-width="3"/>
<text class="legend" x="693" y="111">Agent</text>
<line x1="655" x2="683" y1="129" y2="129" stroke="#0077BB" stroke-width="3"/>
<text class="legend" x="693" y="133">Patient</text>
<line x1="655" x2="683" y1="151" y2="151" stroke="#333333" stroke-width="2" stroke-dasharray="7 6"/>
<text class="legend" x="693" y="155">Mean speech onset</text>
</svg>