<svg xmlns="http://www.w3.org/2000/svg" width="1920" height="1320" viewBox="0 0 1920 1320">
<image href="../../../../stimuli/Koryak%20stimuli%20animate%20inanimate/eat-1-2-l.png" x="0" y="0" width="1920" height="1080" preserveAspectRatio="none"/>
<rect x="0" y="0" width="1920" height="1080" fill="none" stroke="#111" stroke-width="2"/>
<rect x="0" y="1080" width="1920" height="240" fill="#f7f7f7"/>
<rect x="40.0" y="100.0" width="850" height="850" fill="none" stroke="#00B8D9" stroke-width="6" stroke-dasharray="18 12"/>
<rect x="52.0" y="62.0" width="102.0" height="38" rx="6" fill="white" fill-opacity="0.86" stroke="#00B8D9" stroke-width="3"/>
<text x="62.0" y="88.0" font-family="Arial, Helvetica, sans-serif" font-size="24" font-weight="700" fill="#111">AGENT</text>
<rect x="970.0" y="100.0" width="850" height="850" fill="none" stroke="#FF3B8A" stroke-width="6" stroke-dasharray="18 12"/>
<rect x="982.0" y="62.0" width="134.0" height="38" rx="6" fill="white" fill-opacity="0.86" stroke="#FF3B8A" stroke-width="3"/>
<text x="992.0" y="88.0" font-family="Arial, Helvetica, sans-serif" font-size="24" font-weight="700" fill="#111">PATIENT</text>
<polyline points="947.1,578.2 796.0,608.3 793.7,637.9 1279.0,764.4 1277.6,769.1 1378.7,778.6 819.5,563.7 770.5,525.6 774.0,483.7 1201.0,777.3 1199.0,786.8 1191.6,730.8 1150.2,752.5 1374.0,788.3 1301.5,721.7 1183.7,790.6 1266.1,744.1 1389.3,789.3 1219.6,772.8 1227.5,857.8 1207.3,875.8 1204.9,842.1 1355.6,822.4 1294.8,774.7 1166.9,790.7 1374.6,786.4 1410.9,759.6 1229.3,771.8 1163.0,778.6 755.5,628.9 753.9,651.2 800.1,593.9 798.5,593.9 775.9,548.3 1236.8,777.7 1151.6,786.3 1149.9,790.8 1177.0,752.5 1365.5,787.9 1382.6,783.2 1396.6,742.8 1140.1,807.0 1168.5,760.4 1376.5,793.1 1419.0,738.7 1135.0,828.5 1193.7,788.6 1398.4,808.6 754.1,781.5 759.6,602.7 783.6,560.8 1250.8,785.1 1147.5,817.8 1141.3,835.1 1410.4,790.8 1374.2,775.6 1130.2,848.8 920.7,674.0 790.2,528.7 776.6,516.3 796.5,564.6 779.1,576.8 1222.3,804.1 1233.0,772.0 1253.1,762.8 1197.8,786.5 1196.1,798.6 1463.7,760.2 1429.6,850.2 1130.7,903.5 789.7,760.7 771.4,621.4 755.5,797.3 757.8,852.7 756.7,858.5 783.9,622.7 777.9,578.9 757.0,549.7 774.7,539.8 1209.8,781.8 1215.7,789.9 1156.6,806.0 1154.1,809.3 1212.8,749.7 1387.5,782.0 1356.0,781.9 1117.5,856.1 1184.0,791.9 1220.1,756.0 1122.4,847.6 794.5,664.5 770.9,561.8 1215.9,814.1 1214.2,830.2 1127.0,839.5 1123.7,841.0 774.3,580.3 770.9,598.4 776.2,561.1 732.2,540.6 806.8,534.4 768.3,573.9 1172.7,782.2 1168.9,780.6 1129.3,827.8 1258.4,765.9 1188.5,779.8" fill="none" stroke="#111" stroke-width="4" stroke-opacity="0.36" stroke-linejoin="round"/>
<circle cx="947.1" cy="578.2" r="15.9" fill="white" fill-opacity="0.84"/>
<circle cx="947.1" cy="578.2" r="12.9" fill="#005DFF" fill-opacity="0.66" stroke="#111" stroke-width="2.5"/>
<text x="947.1" y="585.2" text-anchor="middle" font-family="Arial, Helvetica, sans-serif" font-size="21" font-weight="800" fill="white" stroke="#111" stroke-width="3" paint-order="stroke">1</text>
<circle cx="796.0" cy="608.3" r="11.7" fill="white" fill-opacity="0.84"/>
<circle cx="796.0" cy="608.3" r="8.7" fill="#005DFF" fill-opacity="0.66" stroke="#111" stroke-width="2.5"/>
<text x="796.0" y="615.3" text-anchor="middle" font-family="Arial, Helvetica, sans-serif" font-size="21" font-weight="800" fill="white" stroke="#111" stroke-width="3" paint-order="stroke">2</text>
<circle cx="793.7" cy="637.9" r="15.0" fill="white" fill-opacity="0.84"/>
<circle cx="793.7" cy="637.9" r="12.0" fill="#005DFF" fill-opacity="0.66" stroke="#111" stroke-width="2.5"/>
<text x="793.7" y="644.9" text-anchor="middle" font-family="Arial, Helvetica, sans-serif" font-size="21" font-weight="800" fill="white" stroke="#111" stroke-width="3" paint-order="stroke">3</text>
<circle cx="1279.0" cy="764.4" r="13.6" fill="white" fill-opacity="0.84"/>
<circle cx="1279.0" cy="764.4" r="10.6" fill="#005DFF" fill-opacity="0.66" stroke="#111" stroke-width="2.5"/>
<text x="1279.0" y="771.4" text-anchor="middle" font-family="Arial, Helvetica, sans-serif" font-size="21" font-weight="800" fill="white" stroke="#111" stroke-width="3" paint-order="stroke">4</text>
<circle cx="1277.6" cy="769.1" r="15.1" fill="white" fill-opacity="0.84"/>
<circle cx="1277.6" cy="769.1" r="12.1" fill="#005DFF" fill-opacity="0.66" stroke="#111" stroke-width="2.5"/>
<text x="1277.6" y="776.1" text-anchor="middle" font-family="Arial, Helvetica, sans-serif" font-size="21" font-weight="800" fill="white" stroke="#111" stroke-width="3" paint-order="stroke">5</text>
<circle cx="1378.7" cy="778.6" r="18.0" fill="white" fill-opacity="0.84"/>
<circle cx="1378.7" cy="778.6" r="15.0" fill="#005DFF" fill-opacity="0.66" stroke="#111" stroke-width="2.5"/>
<text x="1378.7" y="785.6" text-anchor="middle" font-family="Arial, Helvetica, sans-serif" font-size="21" font-weight="800" fill="white" stroke="#111" stroke-width="3" paint-order="stroke">6</text>
<circle cx="819.5" cy="563.7" r="15.3" fill="white" fill-opacity="0.84"/>
<circle cx="819.5" cy="563.7" r="12.3" fill="#005DFF" fill-opacity="0.66" stroke="#111" stroke-width="2.5"/>
<text x="819.5" y="570.7" text-anchor="middle" font-family="Arial, Helvetica, sans-serif" font-size="21" font-weight="800" fill="white" stroke="#111" stroke-width="3" paint-order="stroke">7</text>
<circle cx="770.5" cy="525.6" r="21.1" fill="white" fill-opacity="0.84"/>
<circle cx="770.5" cy="525.6" r="18.1" fill="#005DFF" fill-opacity="0.66" stroke="#111" stroke-width="2.5"/>
<text x="770.5" y="532.6" text-anchor="middle" font-family="Arial, Helvetica, sans-serif" font-size="21" font-weight="800" fill="white" stroke="#111" stroke-width="3" paint-order="stroke">8</text>
<circle cx="774.0" cy="483.7" r="18.9" fill="white" fill-opacity="0.84"/>
<circle cx="774.0" cy="483.7" r="15.9" fill="#005DFF" fill-opacity="0.66" stroke="#111" stroke-width="2.5"/>
<text x="774.0" y="490.7" text-anchor="middle" font-family="Arial, Helvetica, sans-serif" font-size="21" font-weight="800" fill="white" stroke="#111" stroke-width="3" paint-order="stroke">9</text>
<circle cx="1201.0" cy="777.3" r="12.1" fill="white" fill-opacity="0.84"/>
<circle cx="1201.0" cy="777.3" r="9.1" fill="#005DFF" fill-opacity="0.66" stroke="#111" stroke-width="2.5"/>
<text x="1201.0" y="784.3" text-anchor="middle" font-family="Arial, Helvetica, sans-serif" font-size="21" font-weight="800" fill="white" stroke="#111" stroke-width="3" paint-order="stroke">10</text>
<circle cx="1199.0" cy="786.8" r="13.7" fill="white" fill-opacity="0.84"/>
<circle cx="1199.0" cy="786.8" r="10.7" fill="#005DFF" fill-opacity="0.66" stroke="#111" stroke-width="2.5"/>
<text x="1199.0" y="793.8" text-anchor="middle" font-family="Arial, Helvetica, sans-serif" font-size="21" font-weight="800" fill="white" stroke="#111" stroke-width="3" paint-order="stroke">11</text>
<circle cx="1191.6" cy="730.8" r="15.5" fill="white" fill-opacity="0.84"/>
<circle cx="1191.6" cy="730.8" r="12.5" fill="#005DFF" fill-opacity="0.66" stroke="#111" stroke-width="2.5"/>
<text x="1191.6" y="737.8" text-anchor="middle" font-family="Arial, Helvetica, sans-serif" font-size="21" font-weight="800" fill="white" stroke="#111" stroke-width="3" paint-order="stroke">12</text>
<circle cx="1150.2" cy="752.5" r="15.4" fill="white" fill-opacity="0.84"/>
<circle cx="1150.2" cy="752.5" r="12.4" fill="#005DFF" fill-opacity="0.66" stroke="#111" stroke-width="2.5"/>
<text x="1150.2" y="759.5" text-anchor="middle" font-family="Arial, Helvetica, sans-serif" font-size="21" font-weight="800" fill="white" stroke="#111" stroke-width="3" paint-order="stroke">13</text>
<circle cx="1374.0" cy="788.3" r="18.5" fill="white" fill-opacity="0.84"/>
<circle cx="1374.0" cy="788.3" r="15.5" fill="#005DFF" fill-opacity="0.66" stroke="#111" stroke-width="2.5"/>
<text x="1374.0" y="795.3" text-anchor="middle" font-family="Arial, Helvetica, sans-serif" font-size="21" font-weight="800" fill="white" stroke="#111" stroke-width="3" paint-order="stroke">14</text>
<circle cx="1301.5" cy="721.7" r="12.3" fill="white" fill-opacity="0.84"/>
<circle cx="1301.5" cy="721.7" r="9.3" fill="#005DFF" fill-opacity="0.66" stroke="#111" stroke-width="2.5"/>
<text x="1301.5" y="728.7" text-anchor="middle" font-family="Arial, Helvetica, sans-serif" font-size="21" font-weight="800" fill="white" stroke="#111" stroke-width="3" paint-order="stroke">15</text>
<circle cx="1183.7" cy="790.6" r="17.7" fill="white" fill-opacity="0.84"/>
<circle cx="1183.7" cy="790.6" r="14.7" fill="#005DFF" fill-opacity="0.66" stroke="#111" stroke-width="2.5"/>
<text x="1183.7" y="797.6" text-anchor="middle" font-family="Arial, Helvetica, sans-serif" font-size="21" font-weight="800" fill="white" stroke="#111" stroke-width="3" paint-order="stroke">16</text>
<circle cx="1266.1" cy="744.1" r="16.3" fill="white" fill-opacity="0.84"/>
<circle cx="1266.1" cy="744.1" r="13.3" fill="#005DFF" fill-opacity="0.66" stroke="#111" stroke-width="2.5"/>
<text x="1266.1" y="751.1" text-anchor="middle" font-family="Arial, Helvetica, sans-serif" font-size="21" font-weight="800" fill="white" stroke="#111" stroke-width="3" paint-order="stroke">17</text>
<circle cx="1389.3" cy="789.3" r="19.6" fill="white" fill-opacity="0.84"/>
<circle cx="1389.3" cy="789.3" r="16.6" fill="#005DFF" fill-opacity="0.66" stroke="#111" stroke-width="2.5"/>
<text x="1389.3" y="796.3" text-anchor="middle" font-family="Arial, Helvetica, sans-serif" font-size="21" font-weight="800" fill="white" stroke="#111" stroke-width="3" paint-order="stroke">18</text>
<circle cx="1219.6" cy="772.8" r="18.5" fill="white" fill-opacity="0.84"/>
<circle cx="1219.6" cy="772.8" r="15.5" fill="#005DFF" fill-opacity="0.66" stroke="#111" stroke-width="2.5"/>
<text x="1219.6" y="779.8" text-anchor="middle" font-family="Arial, Helvetica, sans-serif" font-size="21" font-weight="800" fill="white" stroke="#111" stroke-width="3" paint-order="stroke">19</text>
<circle cx="1227.5" cy="857.8" r="12.7" fill="white" fill-opacity="0.84"/>
<circle cx="1227.5" cy="857.8" r="9.7" fill="#005DFF" fill-opacity="0.66" stroke="#111" stroke-width="2.5"/>
<text x="1227.5" y="864.8" text-anchor="middle" font-family="Arial, Helvetica, sans-serif" font-size="21" font-weight="800" fill="white" stroke="#111" stroke-width="3" paint-order="stroke">20</text>
<circle cx="1207.3" cy="875.8" r="17.0" fill="white" fill-opacity="0.84"/>
<circle cx="1207.3" cy="875.8" r="14.0" fill="#005DFF" fill-opacity="0.66" stroke="#111" stroke-width="2.5"/>
<text x="1207.3" y="882.8" text-anchor="middle" font-family="Arial, Helvetica, sans-serif" font-size="21" font-weight="800" fill="white" stroke="#111" stroke-width="3" paint-order="stroke">21</text>
<circle cx="1204.9" cy="842.1" r="18.1" fill="white" fill-opacity="0.84"/>
<circle cx="1204.9" cy="842.1" r="15.1" fill="#005DFF" fill-opacity="0.66" stroke="#111" stroke-width="2.5"/>
<text x="1204.9" y="849.1" text-anchor="middle" font-family="Arial, Helvetica, sans-serif" font-size="21" font-weight="800" fill="white" stroke="#111" stroke-width="3" paint-order="stroke">22</text>
<circle cx="1355.6" cy="822.4" r="19.4" fill="white" fill-opacity="0.84"/>
<circle cx="1355.6" cy="822.4" r="16.4" fill="#005DFF" fill-opacity="0.66" stroke="#111" stroke-width="2.5"/>
<text x="1355.6" y="829.4" text-anchor="middle" font-family="Arial, Helvetica, sans-serif" font-size="21" font-weight="800" fill="white" stroke="#111" stroke-width="3" paint-order="stroke">23</text>
<circle cx="1294.8" cy="774.7" r="17.1" fill="white" fill-opacity="0.84"/>
<circle cx="1294.8" cy="774.7" r="14.1" fill="#005DFF" fill-opacity="0.66" stroke="#111" stroke-width="2.5"/>
<text x="1294.8" y="781.7" text-anchor="middle" font-family="Arial, Helvetica, sans-serif" font-size="21" font-weight="800" fill="white" stroke="#111" stroke-width="3" paint-order="stroke">24</text>
<circle cx="1166.9" cy="790.7" r="17.5" fill="white" fill-opacity="0.84"/>
<circle cx="1166.9" cy="790.7" r="14.5" fill="#005DFF" fill-opacity="0.66" stroke="#111" stroke-width="2.5"/>
<text x="1166.9" y="797.7" text-anchor="middle" font-family="Arial, Helvetica, sans-serif" font-size="21" font-weight="800" fill="white" stroke="#111" stroke-width="3" paint-order="stroke">25</text>
<circle cx="1374.6" cy="786.4" r="16.5" fill="white" fill-opacity="0.84"/>
<circle cx="1374.6" cy="786.4" r="13.5" fill="#005DFF" fill-opacity="0.66" stroke="#111" stroke-width="2.5"/>
<text x="1374.6" y="793.4" text-anchor="middle" font-family="Arial, Helvetica, sans-serif" font-size="21" font-weight="800" fill="white" stroke="#111" stroke-width="3" paint-order="stroke">26</text>
<circle cx="1410.9" cy="759.6" r="16.8" fill="white" fill-opacity="0.84"/>
<circle cx="1410.9" cy="759.6" r="13.8" fill="#005DFF" fill-opacity="0.66" stroke="#111" stroke-width="2.5"/>
<text x="1410.9" y="766.6" text-anchor="middle" font-family="Arial, Helvetica, sans-serif" font-size="21" font-weight="800" fill="white" stroke="#111" stroke-width="3" paint-order="stroke">27</text>
<circle cx="1229.3" cy="771.8" r="16.1" fill="white" fill-opacity="0.84"/>
<circle cx="1229.3" cy="771.8" r="13.1" fill="#005DFF" fill-opacity="0.66" stroke="#111" stroke-width="2.5"/>
<text x="1229.3" y="778.8" text-anchor="middle" font-family="Arial, Helvetica, sans-serif" font-size="21" font-weight="800" fill="white" stroke="#111" stroke-width="3" paint-order="stroke">28</text>
<circle cx="1163.0" cy="778.6" r="14.9" fill="white" fill-opacity="0.84"/>
<circle cx="1163.0" cy="778.6" r="11.9" fill="#005DFF" fill-opacity="0.66" stroke="#111" stroke-width="2.5"/>
<text x="1163.0" y="785.6" text-anchor="middle" font-family="Arial, Helvetica, sans-serif" font-size="21" font-weight="800" fill="white" stroke="#111" stroke-width="3" paint-order="stroke">29</text>
<circle cx="755.5" cy="628.9" r="11.8" fill="white" fill-opacity="0.84"/>
<circle cx="755.5" cy="628.9" r="8.8" fill="#005DFF" fill-opacity="0.66" stroke="#111" stroke-width="2.5"/>
<text x="755.5" y="635.9" text-anchor="middle" font-family="Arial, Helvetica, sans-serif" font-size="21" font-weight="800" fill="white" stroke="#111" stroke-width="3" paint-order="stroke">30</text>
<circle cx="753.9" cy="651.2" r="18.6" fill="white" fill-opacity="0.84"/>
<circle cx="753.9" cy="651.2" r="15.6" fill="#005DFF" fill-opacity="0.66" stroke="#111" stroke-width="2.5"/>
<text x="753.9" y="658.2" text-anchor="middle" font-family="Arial, Helvetica, sans-serif" font-size="21" font-weight="800" fill="white" stroke="#111" stroke-width="3" paint-order="stroke">31</text>
<circle cx="800.1" cy="593.9" r="12.2" fill="white" fill-opacity="0.84"/>
<circle cx="800.1" cy="593.9" r="9.2" fill="#005DFF" fill-opacity="0.66" stroke="#111" stroke-width="2.5"/>
<text x="800.1" y="600.9" text-anchor="middle" font-family="Arial, Helvetica, sans-serif" font-size="21" font-weight="800" fill="white" stroke="#111" stroke-width="3" paint-order="stroke">32</text>
<circle cx="798.5" cy="593.9" r="15.9" fill="white" fill-opacity="0.84"/>
<circle cx="798.5" cy="593.9" r="12.9" fill="#005DFF" fill-opacity="0.66" stroke="#111" stroke-width="2.5"/>
<text x="798.5" y="600.9" text-anchor="middle" font-family="Arial, Helvetica, sans-serif" font-size="21" font-weight="800" fill="white" stroke="#111" stroke-width="3" paint-order="stroke">33</text>
<circle cx="775.9" cy="548.3" r="17.8" fill="white" fill-opacity="0.84"/>
<circle cx="775.9" cy="548.3" r="14.8" fill="#005DFF" fill-opacity="0.66" stroke="#111" stroke-width="2.5"/>
<text x="775.9" y="555.3" text-anchor="middle" font-family="Arial, Helvetica, sans-serif" font-size="21" font-weight="800" fill="white" stroke="#111" stroke-width="3" paint-order="stroke">34</text>
<circle cx="1236.8" cy="777.7" r="16.4" fill="white" fill-opacity="0.84"/>
<circle cx="1236.8" cy="777.7" r="13.4" fill="#005DFF" fill-opacity="0.66" stroke="#111" stroke-width="2.5"/>
<text x="1236.8" y="784.7" text-anchor="middle" font-family="Arial, Helvetica, sans-serif" font-size="21" font-weight="800" fill="white" stroke="#111" stroke-width="3" paint-order="stroke">35</text>
<circle cx="1151.6" cy="786.3" r="12.2" fill="white" fill-opacity="0.84"/>
<circle cx="1151.6" cy="786.3" r="9.2" fill="#005DFF" fill-opacity="0.66" stroke="#111" stroke-width="2.5"/>
<text x="1151.6" y="793.3" text-anchor="middle" font-family="Arial, Helvetica, sans-serif" font-size="21" font-weight="800" fill="white" stroke="#111" stroke-width="3" paint-order="stroke">36</text>
<circle cx="1149.9" cy="790.8" r="14.4" fill="white" fill-opacity="0.84"/>
<circle cx="1149.9" cy="790.8" r="11.4" fill="#005DFF" fill-opacity="0.66" stroke="#111" stroke-width="2.5"/>
<text x="1149.9" y="797.8" text-anchor="middle" font-family="Arial, Helvetica, sans-serif" font-size="21" font-weight="800" fill="white" stroke="#111" stroke-width="3" paint-order="stroke">37</text>
<circle cx="1177.0" cy="752.5" r="14.4" fill="white" fill-opacity="0.84"/>
<circle cx="1177.0" cy="752.5" r="11.4" fill="#005DFF" fill-opacity="0.66" stroke="#111" stroke-width="2.5"/>
<text x="1177.0" y="759.5" text-anchor="middle" font-family="Arial, Helvetica, sans-serif" font-size="21" font-weight="800" fill="white" stroke="#111" stroke-width="3" paint-order="stroke">38</text>
<circle cx="1365.5" cy="787.9" r="17.9" fill="white" fill-opacity="0.84"/>
<circle cx="1365.5" cy="787.9" r="14.9" fill="#005DFF" fill-opacity="0.66" stroke="#111" stroke-width="2.5"/>
<text x="1365.5" y="794.9" text-anchor="middle" font-family="Arial, Helvetica, sans-serif" font-size="21" font-weight="800" fill="white" stroke="#111" stroke-width="3" paint-order="stroke">39</text>
<circle cx="1382.6" cy="783.2" r="18.4" fill="white" fill-opacity="0.84"/>
<circle cx="1382.6" cy="783.2" r="15.4" fill="#005DFF" fill-opacity="0.66" stroke="#111" stroke-width="2.5"/>
<text x="1382.6" y="790.2" text-anchor="middle" font-family="Arial, Helvetica, sans-serif" font-size="21" font-weight="800" fill="white" stroke="#111" stroke-width="3" paint-order="stroke">40</text>
<circle cx="1396.6" cy="742.8" r="18.4" fill="white" fill-opacity="0.84"/>
<circle cx="1396.6" cy="742.8" r="15.4" fill="#005DFF" fill-opacity="0.66" stroke="#111" stroke-width="2.5"/>
<text x="1396.6" y="749.8" text-anchor="middle" font-family="Arial, Helvetica, sans-serif" font-size="21" font-weight="800" fill="white" stroke="#111" stroke-width="3" paint-order="stroke">41</text>
<circle cx="1140.1" cy="807.0" r="16.2" fill="white" fill-opacity="0.84"/>
<circle cx="1140.1" cy="807.0" r="13.2" fill="#005DFF" fill-opacity="0.66" stroke="#111" stroke-width="2.5"/>
<text x="1140.1" y="814.0" text-anchor="middle" font-family="Arial, Helvetica, sans-serif" font-size="21" font-weight="800" fill="white" stroke="#111" stroke-width="3" paint-order="stroke">42</text>
<circle cx="1168.5" cy="760.4" r="18.8" fill="white" fill-opacity="0.84"/>
<circle cx="1168.5" cy="760.4" r="15.8" fill="#005DFF" fill-opacity="0.66" stroke="#111" stroke-width="2.5"/>
<text x="1168.5" y="767.4" text-anchor="middle" font-family="Arial, Helvetica, sans-serif" font-size="21" font-weight="800" fill="white" stroke="#111" stroke-width="3" paint-order="stroke">43</text>
<circle cx="1376.5" cy="793.1" r="16.4" fill="white" fill-opacity="0.84"/>
<circle cx="1376.5" cy="793.1" r="13.4" fill="#005DFF" fill-opacity="0.66" stroke="#111" stroke-width="2.5"/>
<text x="1376.5" y="800.1" text-anchor="middle" font-family="Arial, Helvetica, sans-serif" font-size="21" font-weight="800" fill="white" stroke="#111" stroke-width="3" paint-order="stroke">44</text>
<circle cx="1419.0" cy="738.7" r="18.4" fill="white" fill-opacity="0.84"/>
<circle cx="1419.0" cy="738.7" r="15.4" fill="#005DFF" fill-opacity="0.66" stroke="#111" stroke-width="2.5"/>
<text x="1419.0" y="745.7" text-anchor="middle" font-family="Arial, Helvetica, sans-serif" font-size="21" font-weight="800" fill="white" stroke="#111" stroke-width="3" paint-order="stroke">45</text>
<circle cx="1135.0" cy="828.5" r="17.5" fill="white" fill-opacity="0.84"/>
<circle cx="1135.0" cy="828.5" r="14.5" fill="#005DFF" fill-opacity="0.66" stroke="#111" stroke-width="2.5"/>
<text x="1135.0" y="835.5" text-anchor="middle" font-family="Arial, Helvetica, sans-serif" font-size="21" font-weight="800" fill="white" stroke="#111" stroke-width="3" paint-order="stroke">46</text>
<circle cx="1193.7" cy="788.6" r="20.1" fill="white" fill-opacity="0.84"/>
<circle cx="1193.7" cy="788.6" r="17.1" fill="#005DFF" fill-opacity="0.66" stroke="#111" stroke-width="2.5"/>
<text x="1193.7" y="795.6" text-anchor="middle" font-family="Arial, Helvetica, sans-serif" font-size="21" font-weight="800" fill="white" stroke="#111" stroke-width="3" paint-order="stroke">47</text>
<circle cx="1398.4" cy="808.6" r="17.3" fill="white" fill-opacity="0.84"/>
<circle cx="1398.4" cy="808.6" r="14.3" fill="#005DFF" fill-opacity="0.66" stroke="#111" stroke-width="2.5"/>
<text x="1398.4" y="815.6" text-anchor="middle" font-family="Arial, Helvetica, sans-serif" font-size="21" font-weight="800" fill="white" stroke="#111" stroke-width="3" paint-order="stroke">48</text>
<circle cx="754.1" cy="781.5" r="12.3" fill="white" fill-opacity="0.84"/>
<circle cx="754.1" cy="781.5" r="9.3" fill="#005DFF" fill-opacity="0.66" stroke="#111" stroke-width="2.5"/>
<text x="754.1" y="788.5" text-anchor="middle" font-family="Arial, Helvetica, sans-serif" font-size="21" font-weight="800" fill="white" stroke="#111" stroke-width="3" paint-order="stroke">49</text>
<circle cx="759.6" cy="602.7" r="15.3" fill="white" fill-opacity="0.84"/>
<circle cx="759.6" cy="602.7" r="12.3" fill="#005DFF" fill-opacity="0.66" stroke="#111" stroke-width="2.5"/>
<text x="759.6" y="609.7" text-anchor="middle" font-family="Arial, Helvetica, sans-serif" font-size="21" font-weight="800" fill="white" stroke="#111" stroke-width="3" paint-order="stroke">50</text>
<circle cx="783.6" cy="560.8" r="18.0" fill="white" fill-opacity="0.84"/>
<circle cx="783.6" cy="560.8" r="15.0" fill="#005DFF" fill-opacity="0.66" stroke="#111" stroke-width="2.5"/>
<text x="783.6" y="567.8" text-anchor="middle" font-family="Arial, Helvetica, sans-serif" font-size="21" font-weight="800" fill="white" stroke="#111" stroke-width="3" paint-order="stroke">51</text>
<circle cx="1250.8" cy="785.1" r="16.3" fill="white" fill-opacity="0.84"/>
<circle cx="1250.8" cy="785.1" r="13.3" fill="#005DFF" fill-opacity="0.66" stroke="#111" stroke-width="2.5"/>
<text x="1250.8" y="792.1" text-anchor="middle" font-family="Arial, Helvetica, sans-serif" font-size="21" font-weight="800" fill="white" stroke="#111" stroke-width="3" paint-order="stroke">52</text>
<circle cx="1147.5" cy="817.8" r="15.4" fill="white" fill-opacity="0.84"/>
<circle cx="1147.5" cy="817.8" r="12.4" fill="#005DFF" fill-opacity="0.66" stroke="#111" stroke-width="2.5"/>
<text x="1147.5" y="824.8" text-anchor="middle" font-family="Arial, Helvetica, sans-serif" font-size="21" font-weight="800" fill="white" stroke="#111" stroke-width="3" paint-order="stroke">53</text>
<circle cx="1141.3" cy="835.1" r="13.5" fill="white" fill-opacity="0.84"/>
<circle cx="1141.3" cy="835.1" r="10.5" fill="#005DFF" fill-opacity="0.66" stroke="#111" stroke-width="2.5"/>
<text x="1141.3" y="842.1" text-anchor="middle" font-family="Arial, Helvetica, sans-serif" font-size="21" font-weight="800" fill="white" stroke="#111" stroke-width="3" paint-order="stroke">54</text>
<circle cx="1410.4" cy="790.8" r="17.7" fill="white" fill-opacity="0.84"/>
<circle cx="1410.4" cy="790.8" r="14.7" fill="#005DFF" fill-opacity="0.66" stroke="#111" stroke-width="2.5"/>
<text x="1410.4" y="797.8" text-anchor="middle" font-family="Arial, Helvetica, sans-serif" font-size="21" font-weight="800" fill="white" stroke="#111" stroke-width="3" paint-order="stroke">55</text>
<circle cx="1374.2" cy="775.6" r="17.6" fill="white" fill-opacity="0.84"/>
<circle cx="1374.2" cy="775.6" r="14.6" fill="#005DFF" fill-opacity="0.66" stroke="#111" stroke-width="2.5"/>
<text x="1374.2" y="782.6" text-anchor="middle" font-family="Arial, Helvetica, sans-serif" font-size="21" font-weight="800" fill="white" stroke="#111" stroke-width="3" paint-order="stroke">56</text>
<circle cx="1130.2" cy="848.8" r="17.6" fill="white" fill-opacity="0.84"/>
<circle cx="1130.2" cy="848.8" r="14.6" fill="#005DFF" fill-opacity="0.66" stroke="#111" stroke-width="2.5"/>
<text x="1130.2" y="855.8" text-anchor="middle" font-family="Arial, Helvetica, sans-serif" font-size="21" font-weight="800" fill="white" stroke="#111" stroke-width="3" paint-order="stroke">57</text>
<circle cx="920.7" cy="674.0" r="13.1" fill="white" fill-opacity="0.84"/>
<circle cx="920.7" cy="674.0" r="10.1" fill="#005DFF" fill-opacity="0.66" stroke="#111" stroke-width="2.5"/>
<text x="920.7" y="681.0" text-anchor="middle" font-family="Arial, Helvetica, sans-serif" font-size="21" font-weight="800" fill="white" stroke="#111" stroke-width="3" paint-order="stroke">58</text>
<circle cx="790.2" cy="528.7" r="12.1" fill="white" fill-opacity="0.84"/>
<circle cx="790.2" cy="528.7" r="9.1" fill="#005DFF" fill-opacity="0.66" stroke="#111" stroke-width="2.5"/>
<text x="790.2" y="535.7" text-anchor="middle" font-family="Arial, Helvetica, sans-serif" font-size="21" font-weight="800" fill="white" stroke="#111" stroke-width="3" paint-order="stroke">59</text>
<circle cx="776.6" cy="516.3" r="15.4" fill="white" fill-opacity="0.84"/>
<circle cx="776.6" cy="516.3" r="12.4" fill="#005DFF" fill-opacity="0.66" stroke="#111" stroke-width="2.5"/>
<text x="776.6" y="523.3" text-anchor="middle" font-family="Arial, Helvetica, sans-serif" font-size="21" font-weight="800" fill="white" stroke="#111" stroke-width="3" paint-order="stroke">60</text>
<circle cx="796.5" cy="564.6" r="16.8" fill="white" fill-opacity="0.84"/>
<circle cx="796.5" cy="564.6" r="13.8" fill="#005DFF" fill-opacity="0.66" stroke="#111" stroke-width="2.5"/>
<text x="796.5" y="571.6" text-anchor="middle" font-family="Arial, Helvetica, sans-serif" font-size="21" font-weight="800" fill="white" stroke="#111" stroke-width="3" paint-order="stroke">61</text>
<circle cx="779.1" cy="576.8" r="14.9" fill="white" fill-opacity="0.84"/>
<circle cx="779.1" cy="576.8" r="11.9" fill="#005DFF" fill-opacity="0.66" stroke="#111" stroke-width="2.5"/>
<text x="779.1" y="583.8" text-anchor="middle" font-family="Arial, Helvetica, sans-serif" font-size="21" font-weight="800" fill="white" stroke="#111" stroke-width="3" paint-order="stroke">62</text>
<circle cx="1222.3" cy="804.1" r="13.3" fill="white" fill-opacity="0.84"/>
<circle cx="1222.3" cy="804.1" r="10.3" fill="#005DFF" fill-opacity="0.66" stroke="#111" stroke-width="2.5"/>
<text x="1222.3" y="811.1" text-anchor="middle" font-family="Arial, Helvetica, sans-serif" font-size="21" font-weight="800" fill="white" stroke="#111" stroke-width="3" paint-order="stroke">63</text>
<circle cx="1233.0" cy="772.0" r="12.0" fill="white" fill-opacity="0.84"/>
<circle cx="1233.0" cy="772.0" r="9.0" fill="#005DFF" fill-opacity="0.66" stroke="#111" stroke-width="2.5"/>
<text x="1233.0" y="779.0" text-anchor="middle" font-family="Arial, Helvetica, sans-serif" font-size="21" font-weight="800" fill="white" stroke="#111" stroke-width="3" paint-order="stroke">64</text>
<circle cx="1253.1" cy="762.8" r="14.8" fill="white" fill-opacity="0.84"/>
<circle cx="1253.1" cy="762.8" r="11.8" fill="#005DFF" fill-opacity="0.66" stroke="#111" stroke-width="2.5"/>
<text x="1253.1" y="769.8" text-anchor="middle" font-family="Arial, Helvetica, sans-serif" font-size="21" font-weight="800" fill="white" stroke="#111" stroke-width="3" paint-order="stroke">65</text>
<circle cx="1197.8" cy="786.5" r="12.6" fill="white" fill-opacity="0.84"/>
<circle cx="1197.8" cy="786.5" r="9.6" fill="#005DFF" fill-opacity="0.66" stroke="#111" stroke-width="2.5"/>
<text x="1197.8" y="793.5" text-anchor="middle" font-family="Arial, Helvetica, sans-serif" font-size="21" font-weight="800" fill="white" stroke="#111" stroke-width="3" paint-order="stroke">66</text>
<circle cx="1196.1" cy="798.6" r="15.6" fill="white" fill-opacity="0.84"/>
<circle cx="1196.1" cy="798.6" r="12.6" fill="#005DFF" fill-opacity="0.66" stroke="#111" stroke-width="2.5"/>
<text x="1196.1" y="805.6" text-anchor="middle" font-family="Arial, Helvetica, sans-serif" font-size="21" font-weight="800" fill="white" stroke="#111" stroke-width="3" paint-order="stroke">67</text>
<circle cx="1463.7" cy="760.2" r="19.1" fill="white" fill-opacity="0.84"/>
<circle cx="1463.7" cy="760.2" r="16.1" fill="#005DFF" fill-opacity="0.66" stroke="#111" stroke-width="2.5"/>
<text x="1463.7" y="767.2" text-anchor="middle" font-family="Arial, Helvetica, sans-serif" font-size="21" font-weight="800" fill="white" stroke="#111" stroke-width="3" paint-order="stroke">68</text>
<circle cx="1429.6" cy="850.2" r="17.0" fill="white" fill-opacity="0.84"/>
<circle cx="1429.6" cy="850.2" r="14.0" fill="#005DFF" fill-opacity="0.66" stroke="#111" stroke-width="2.5"/>
<text x="1429.6" y="857.2" text-anchor="middle" font-family="Arial, Helvetica, sans-serif" font-size="21" font-weight="800" fill="white" stroke="#111" stroke-width="3" paint-order="stroke">69</text>
<circle cx="1130.7" cy="903.5" r="11.8" fill="white" fill-opacity="0.84"/>
<circle cx="1130.7" cy="903.5" r="8.8" fill="#005DFF" fill-opacity="0.66" stroke="#111" stroke-width="2.5"/>
<text x="1130.7" y="910.5" text-anchor="middle" font-family="Arial, Helvetica, sans-serif" font-size="21" font-weight="800" fill="white" stroke="#111" stroke-width="3" paint-order="stroke">70</text>
<circle cx="789.7" cy="760.7" r="15.4" fill="white" fill-opacity="0.84"/>
<circle cx="789.7" cy="760.7" r="12.4" fill="#005DFF" fill-opacity="0.66" stroke="#111" stroke-width="2.5"/>
<text x="789.7" y="767.7" text-anchor="middle" font-family="Arial, Helvetica, sans-serif" font-size="21" font-weight="800" fill="white" stroke="#111" stroke-width="3" paint-order="stroke">71</text>
<circle cx="771.4" cy="621.4" r="17.7" fill="white" fill-opacity="0.84"/>
<circle cx="771.4" cy="621.4" r="14.7" fill="#005DFF" fill-opacity="0.66" stroke="#111" stroke-width="2.5"/>
<text x="771.4" y="628.4" text-anchor="middle" font-family="Arial, Helvetica, sans-serif" font-size="21" font-weight="800" fill="white" stroke="#111" stroke-width="3" paint-order="stroke">72</text>
<circle cx="755.5" cy="797.3" r="18.8" fill="white" fill-opacity="0.84"/>
<circle cx="755.5" cy="797.3" r="15.8" fill="#005DFF" fill-opacity="0.66" stroke="#111" stroke-width="2.5"/>
<text x="755.5" y="804.3" text-anchor="middle" font-family="Arial, Helvetica, sans-serif" font-size="21" font-weight="800" fill="white" stroke="#111" stroke-width="3" paint-order="stroke">73</text>
<circle cx="757.8" cy="852.7" r="12.6" fill="white" fill-opacity="0.84"/>
<circle cx="757.8" cy="852.7" r="9.6" fill="#005DFF" fill-opacity="0.66" stroke="#111" stroke-width="2.5"/>
<text x="757.8" y="859.7" text-anchor="middle" font-family="Arial, Helvetica, sans-serif" font-size="21" font-weight="800" fill="white" stroke="#111" stroke-width="3" paint-order="stroke">74</text>
<circle cx="756.7" cy="858.5" r="11.9" fill="white" fill-opacity="0.84"/>
<circle cx="756.7" cy="858.5" r="8.9" fill="#005DFF" fill-opacity="0.66" stroke="#111" stroke-width="2.5"/>
<text x="756.7" y="865.5" text-anchor="middle" font-family="Arial, Helvetica, sans-serif" font-size="21" font-weight="800" fill="white" stroke="#111" stroke-width="3" paint-order="stroke">75</text>
<circle cx="783.9" cy="622.7" r="17.2" fill="white" fill-opacity="0.84"/>
<circle cx="783.9" cy="622.7" r="14.2" fill="#005DFF" fill-opacity="0.66" stroke="#111" stroke-width="2.5"/>
<text x="783.9" y="629.7" text-anchor="middle" font-family="Arial, Helvetica, sans-serif" font-size="21" font-weight="800" fill="white" stroke="#111" stroke-width="3" paint-order="stroke">76</text>
<circle cx="777.9" cy="578.9" r="17.2" fill="white" fill-opacity="0.84"/>
<circle cx="777.9" cy="578.9" r="14.2" fill="#005DFF" fill-opacity="0.66" stroke="#111" stroke-width="2.5"/>
<text x="777.9" y="585.9" text-anchor="middle" font-family="Arial, Helvetica, sans-serif" font-size="21" font-weight="800" fill="white" stroke="#111" stroke-width="3" paint-order="stroke">77</text>
<circle cx="757.0" cy="549.7" r="18.4" fill="white" fill-opacity="0.84"/>
<circle cx="757.0" cy="549.7" r="15.4" fill="#005DFF" fill-opacity="0.66" stroke="#111" stroke-width="2.5"/>
<text x="757.0" y="556.7" text-anchor="middle" font-family="Arial, Helvetica, sans-serif" font-size="21" font-weight="800" fill="white" stroke="#111" stroke-width="3" paint-order="stroke">78</text>
<circle cx="774.7" cy="539.8" r="15.8" fill="white" fill-opacity="0.84"/>
<circle cx="774.7" cy="539.8" r="12.8" fill="#005DFF" fill-opacity="0.66" stroke="#111" stroke-width="2.5"/>
<text x="774.7" y="546.8" text-anchor="middle" font-family="Arial, Helvetica, sans-serif" font-size="21" font-weight="800" fill="white" stroke="#111" stroke-width="3" paint-order="stroke">79</text>
<circle cx="1209.8" cy="781.8" r="12.3" fill="white" fill-opacity="0.84"/>
<circle cx="1209.8" cy="781.8" r="9.3" fill="#005DFF" fill-opacity="0.66" stroke="#111" stroke-width="2.5"/>
<text x="1209.8" y="788.8" text-anchor="middle" font-family="Arial, Helvetica, sans-serif" font-size="21" font-weight="800" fill="white" stroke="#111" stroke-width="3" paint-order="stroke">80</text>
<circle cx="1215.7" cy="789.9" r="15.5" fill="white" fill-opacity="0.84"/>
<circle cx="1215.7" cy="789.9" r="12.5" fill="#005DFF" fill-opacity="0.66" stroke="#111" stroke-width="2.5"/>
<text x="1215.7" y="796.9" text-anchor="middle" font-family="Arial, Helvetica, sans-serif" font-size="21" font-weight="800" fill="white" stroke="#111" stroke-width="3" paint-order="stroke">81</text>
<circle cx="1156.6" cy="806.0" r="13.1" fill="white" fill-opacity="0.84"/>
<circle cx="1156.6" cy="806.0" r="10.1" fill="#005DFF" fill-opacity="0.66" stroke="#111" stroke-width="2.5"/>
<text x="1156.6" y="813.0" text-anchor="middle" font-family="Arial, Helvetica, sans-serif" font-size="21" font-weight="800" fill="white" stroke="#111" stroke-width="3" paint-order="stroke">82</text>
<circle cx="1154.1" cy="809.3" r="16.7" fill="white" fill-opacity="0.84"/>
<circle cx="1154.1" cy="809.3" r="13.7" fill="#005DFF" fill-opacity="0.66" stroke="#111" stroke-width="2.5"/>
<text x="1154.1" y="816.3" text-anchor="middle" font-family="Arial, Helvetica, sans-serif" font-size="21" font-weight="800" fill="white" stroke="#111" stroke-width="3" paint-order="stroke">83</text>
<circle cx="1212.8" cy="749.7" r="15.8" fill="white" fill-opacity="0.84"/>
<circle cx="1212.8" cy="749.7" r="12.8" fill="#005DFF" fill-opacity="0.66" stroke="#111" stroke-width="2.5"/>
<text x="1212.8" y="756.7" text-anchor="middle" font-family="Arial, Helvetica, sans-serif" font-size="21" font-weight="800" fill="white" stroke="#111" stroke-width="3" paint-order="stroke">84</text>
<circle cx="1387.5" cy="782.0" r="19.3" fill="white" fill-opacity="0.84"/>
<circle cx="1387.5" cy="782.0" r="16.3" fill="#005DFF" fill-opacity="0.66" stroke="#111" stroke-width="2.5"/>
<text x="1387.5" y="789.0" text-anchor="middle" font-family="Arial, Helvetica, sans-serif" font-size="21" font-weight="800" fill="white" stroke="#111" stroke-width="3" paint-order="stroke">85</text>
<circle cx="1356.0" cy="781.9" r="17.5" fill="white" fill-opacity="0.84"/>
<circle cx="1356.0" cy="781.9" r="14.5" fill="#005DFF" fill-opacity="0.66" stroke="#111" stroke-width="2.5"/>
<text x="1356.0" y="788.9" text-anchor="middle" font-family="Arial, Helvetica, sans-serif" font-size="21" font-weight="800" fill="white" stroke="#111" stroke-width="3" paint-order="stroke">86</text>
<circle cx="1117.5" cy="856.1" r="16.6" fill="white" fill-opacity="0.84"/>
<circle cx="1117.5" cy="856.1" r="13.6" fill="#005DFF" fill-opacity="0.66" stroke="#111" stroke-width="2.5"/>
<text x="1117.5" y="863.1" text-anchor="middle" font-family="Arial, Helvetica, sans-serif" font-size="21" font-weight="800" fill="white" stroke="#111" stroke-width="3" paint-order="stroke">87</text>
<circle cx="1184.0" cy="791.9" r="18.5" fill="white" fill-opacity="0.84"/>
<circle cx="1184.0" cy="791.9" r="15.5" fill="#005DFF" fill-opacity="0.66" stroke="#111" stroke-width="2.5"/>
<text x="1184.0" y="798.9" text-anchor="middle" font-family="Arial, Helvetica, sans-serif" font-size="21" font-weight="800" fill="white" stroke="#111" stroke-width="3" paint-order="stroke">88</text>
<circle cx="1220.1" cy="756.0" r="15.9" fill="white" fill-opacity="0.84"/>
<circle cx="1220.1" cy="756.0" r="12.9" fill="#005DFF" fill-opacity="0.66" stroke="#111" stroke-width="2.5"/>
<text x="1220.1" y="763.0" text-anchor="middle" font-family="Arial, Helvetica, sans-serif" font-size="21" font-weight="800" fill="white" stroke="#111" stroke-width="3" paint-order="stroke">89</text>
<circle cx="1122.4" cy="847.6" r="18.2" fill="white" fill-opacity="0.84"/>
<circle cx="1122.4" cy="847.6" r="15.2" fill="#005DFF" fill-opacity="0.66" stroke="#111" stroke-width="2.5"/>
<text x="1122.4" y="854.6" text-anchor="middle" font-family="Arial, Helvetica, sans-serif" font-size="21" font-weight="800" fill="white" stroke="#111" stroke-width="3" paint-order="stroke">90</text>
<circle cx="794.5" cy="664.5" r="15.1" fill="white" fill-opacity="0.84"/>
<circle cx="794.5" cy="664.5" r="12.1" fill="#005DFF" fill-opacity="0.66" stroke="#111" stroke-width="2.5"/>
<text x="794.5" y="671.5" text-anchor="middle" font-family="Arial, Helvetica, sans-serif" font-size="21" font-weight="800" fill="white" stroke="#111" stroke-width="3" paint-order="stroke">91</text>
<circle cx="770.9" cy="561.8" r="15.2" fill="white" fill-opacity="0.84"/>
<circle cx="770.9" cy="561.8" r="12.2" fill="#005DFF" fill-opacity="0.66" stroke="#111" stroke-width="2.5"/>
<text x="770.9" y="568.8" text-anchor="middle" font-family="Arial, Helvetica, sans-serif" font-size="21" font-weight="800" fill="white" stroke="#111" stroke-width="3" paint-order="stroke">92</text>
<circle cx="1215.9" cy="814.1" r="12.3" fill="white" fill-opacity="0.84"/>
<circle cx="1215.9" cy="814.1" r="9.3" fill="#005DFF" fill-opacity="0.66" stroke="#111" stroke-width="2.5"/>
<text x="1215.9" y="821.1" text-anchor="middle" font-family="Arial, Helvetica, sans-serif" font-size="21" font-weight="800" fill="white" stroke="#111" stroke-width="3" paint-order="stroke">93</text>
<circle cx="1214.2" cy="830.2" r="15.8" fill="white" fill-opacity="0.84"/>
<circle cx="1214.2" cy="830.2" r="12.8" fill="#005DFF" fill-opacity="0.66" stroke="#111" stroke-width="2.5"/>
<text x="1214.2" y="837.2" text-anchor="middle" font-family="Arial, Helvetica, sans-serif" font-size="21" font-weight="800" fill="white" stroke="#111" stroke-width="3" paint-order="stroke">94</text>
<circle cx="1127.0" cy="839.5" r="13.3" fill="white" fill-opacity="0.84"/>
<circle cx="1127.0" cy="839.5" r="10.3" fill="#005DFF" fill-opacity="0.66" stroke="#111" stroke-width="2.5"/>
<text x="1127.0" y="846.5" text-anchor="middle" font-family="Arial, Helvetica, sans-serif" font-size="21" font-weight="800" fill="white" stroke="#111" stroke-width="3" paint-order="stroke">95</text>
<circle cx="1123.7" cy="841.0" r="15.0" fill="white" fill-opacity="0.84"/>
<circle cx="1123.7" cy="841.0" r="12.0" fill="#005DFF" fill-opacity="0.66" stroke="#111" stroke-width="2.5"/>
<text x="1123.7" y="848.0" text-anchor="middle" font-family="Arial, Helvetica, sans-serif" font-size="21" font-weight="800" fill="white" stroke="#111" stroke-width="3" paint-order="stroke">96</text>
<circle cx="774.3" cy="580.3" r="12.3" fill="white" fill-opacity="0.84"/>
<circle cx="774.3" cy="580.3" r="9.3" fill="#005DFF" fill-opacity="0.66" stroke="#111" stroke-width="2.5"/>
<text x="774.3" y="587.3" text-anchor="middle" font-family="Arial, Helvetica, sans-serif" font-size="21" font-weight="800" fill="white" stroke="#111" stroke-width="3" paint-order="stroke">97</text>
<circle cx="770.9" cy="598.4" r="14.7" fill="white" fill-opacity="0.84"/>
<circle cx="770.9" cy="598.4" r="11.7" fill="#005DFF" fill-opacity="0.66" stroke="#111" stroke-width="2.5"/>
<text x="770.9" y="605.4" text-anchor="middle" font-family="Arial, Helvetica, sans-serif" font-size="21" font-weight="800" fill="white" stroke="#111" stroke-width="3" paint-order="stroke">98</text>
<circle cx="776.2" cy="561.1" r="20.2" fill="white" fill-opacity="0.84"/>
<circle cx="776.2" cy="561.1" r="17.2" fill="#005DFF" fill-opacity="0.66" stroke="#111" stroke-width="2.5"/>
<text x="776.2" y="568.1" text-anchor="middle" font-family="Arial, Helvetica, sans-serif" font-size="21" font-weight="800" fill="white" stroke="#111" stroke-width="3" paint-order="stroke">99</text>
<circle cx="732.2" cy="540.6" r="18.6" fill="white" fill-opacity="0.84"/>
<circle cx="732.2" cy="540.6" r="15.6" fill="#005DFF" fill-opacity="0.66" stroke="#111" stroke-width="2.5"/>
<text x="732.2" y="547.6" text-anchor="middle" font-family="Arial, Helvetica, sans-serif" font-size="21" font-weight="800" fill="white" stroke="#111" stroke-width="3" paint-order="stroke">100</text>
<circle cx="806.8" cy="534.4" r="17.9" fill="white" fill-opacity="0.84"/>
<circle cx="806.8" cy="534.4" r="14.9" fill="#005DFF" fill-opacity="0.66" stroke="#111" stroke-width="2.5"/>
<text x="806.8" y="541.4" text-anchor="middle" font-family="Arial, Helvetica, sans-serif" font-size="21" font-weight="800" fill="white" stroke="#111" stroke-width="3" paint-order="stroke">101</text>
<circle cx="768.3" cy="573.9" r="24.7" fill="white" fill-opacity="0.84"/>
<circle cx="768.3" cy="573.9" r="21.7" fill="#FF8A00" fill-opacity="0.66" stroke="#111" stroke-width="2.5"/>
<text x="768.3" y="580.9" text-anchor="middle" font-family="Arial, Helvetica, sans-serif" font-size="21" font-weight="800" fill="white" stroke="#111" stroke-width="3" paint-order="stroke">102</text>
<circle cx="1172.7" cy="782.2" r="13.4" fill="white" fill-opacity="0.84"/>
<circle cx="1172.7" cy="782.2" r="10.4" fill="#FF8A00" fill-opacity="0.66" stroke="#111" stroke-width="2.5"/>
<text x="1172.7" y="789.2" text-anchor="middle" font-family="Arial, Helvetica, sans-serif" font-size="21" font-weight="800" fill="white" stroke="#111" stroke-width="3" paint-order="stroke">103</text>
<circle cx="1168.9" cy="780.6" r="15.4" fill="white" fill-opacity="0.84"/>
<circle cx="1168.9" cy="780.6" r="12.4" fill="#FF8A00" fill-opacity="0.66" stroke="#111" stroke-width="2.5"/>
<text x="1168.9" y="787.6" text-anchor="middle" font-family="Arial, Helvetica, sans-serif" font-size="21" font-weight="800" fill="white" stroke="#111" stroke-width="3" paint-order="stroke">104</text>
<circle cx="1129.3" cy="827.8" r="19.7" fill="white" fill-opacity="0.84"/>
<circle cx="1129.3" cy="827.8" r="16.7" fill="#FF8A00" fill-opacity="0.66" stroke="#111" stroke-width="2.5"/>
<text x="1129.3" y="834.8" text-anchor="middle" font-family="Arial, Helvetica, sans-serif" font-size="21" font-weight="800" fill="white" stroke="#111" stroke-width="3" paint-order="stroke">105</text>
<circle cx="1258.4" cy="765.9" r="16.6" fill="white" fill-opacity="0.84"/>
<circle cx="1258.4" cy="765.9" r="13.6" fill="#FF8A00" fill-opacity="0.66" stroke="#111" stroke-width="2.5"/>
<text x="1258.4" y="772.9" text-anchor="middle" font-family="Arial, Helvetica, sans-serif" font-size="21" font-weight="800" fill="white" stroke="#111" stroke-width="3" paint-order="stroke">106</text>
<circle cx="1188.5" cy="779.8" r="20.2" fill="white" fill-opacity="0.84"/>
<circle cx="1188.5" cy="779.8" r="17.2" fill="#FF8A00" fill-opacity="0.66" stroke="#111" stroke-width="2.5"/>
<text x="1188.5" y="786.8" text-anchor="middle" font-family="Arial, Helvetica, sans-serif" font-size="21" font-weight="800" fill="white" stroke="#111" stroke-width="3" paint-order="stroke">107</text>
<rect x="16" y="1094" width="1120" height="168" rx="8" fill="white" fill-opacity="0.92" stroke="#111" stroke-opacity="0.22"/>
<text x="36.0" y="1128.0" font-family="Arial, Helvetica, sans-serif" font-size="24" font-weight="600" fill="#111">K13 / k13_2.asc block 7 | eat-1-2-l.png | RT 24070 ms | 107 fixations</text>
<text x="36.0" y="1159.0" font-family="Arial, Helvetica, sans-serif" font-size="24" font-weight="600" fill="#111">numbers show fixation order; dot size shows fixation duration</text>
<circle cx="42" cy="1198" r="11" fill="#005DFF" fill-opacity="0.64" stroke="#111" stroke-width="2"/>
<text x="62.0" y="1206.0" font-family="Arial, Helvetica, sans-serif" font-size="22" font-weight="500" fill="#111">blue: before speech onset</text>
<circle cx="42" cy="1232" r="11" fill="#FF8A00" fill-opacity="0.64" stroke="#111" stroke-width="2"/>
<text x="62.0" y="1240.0" font-family="Arial, Helvetica, sans-serif" font-size="22" font-weight="500" fill="#111">orange: first 2000 ms after onset</text>
</svg>
