<svg xmlns="http://www.w3.org/2000/svg" width="1920" height="1320" viewBox="0 0 1920 1320">
<image href="../../../../stimuli/Animate-animate%20centered%20and%20flipped/hit-1-2-l.png" x="0" y="0" width="1920" height="1080" preserveAspectRatio="none"/>
<rect x="0" y="0" width="1920" height="1080" fill="none" stroke="#111" stroke-width="2"/>
<rect x="0" y="1080" width="1920" height="240" fill="#f7f7f7"/>
<rect x="40.0" y="100.0" width="850" height="850" fill="none" stroke="#00B8D9" stroke-width="6" stroke-dasharray="18 12"/>
<rect x="52.0" y="62.0" width="102.0" height="38" rx="6" fill="white" fill-opacity="0.86" stroke="#00B8D9" stroke-width="3"/>
<text x="62.0" y="88.0" font-family="Arial, Helvetica, sans-serif" font-size="24" font-weight="700" fill="#111">AGENT</text>
<rect x="970.0" y="100.0" width="850" height="850" fill="none" stroke="#FF3B8A" stroke-width="6" stroke-dasharray="18 12"/>
<rect x="982.0" y="62.0" width="134.0" height="38" rx="6" fill="white" fill-opacity="0.86" stroke="#FF3B8A" stroke-width="3"/>
<text x="992.0" y="88.0" font-family="Arial, Helvetica, sans-serif" font-size="24" font-weight="700" fill="#111">PATIENT</text>
<polyline points="753.3,543.7 1234.1,492.0 1494.3,819.1 1193.1,500.6 809.3,539.6 814.4,536.5 654.9,451.5 691.4,475.1 671.0,486.0 1280.2,465.6 1213.9,415.3 1198.5,447.9 1503.5,464.8 888.3,543.2 654.9,530.3 882.0,659.4 860.1,683.3 866.3,620.9 890.0,540.0 1102.7,607.2 1437.2,919.1 1524.6,918.1 1167.3,756.2 1052.9,559.2 721.4,496.7 667.8,494.5 698.9,467.9 686.2,415.2 692.8,467.9 831.0,544.6 1142.5,586.6 1021.2,496.8 958.7,530.6 893.0,543.6 924.8,551.4 1076.3,544.0 826.1,605.2 951.4,558.6 792.7,589.5 1137.6,621.0 1171.0,584.0 1300.3,569.1 1189.2,531.5 958.7,580.0 862.9,567.7 709.3,554.1 906.8,645.3 1037.0,558.3 925.0,561.9 813.4,584.0 877.0,579.5" fill="none" stroke="#111" stroke-width="4" stroke-opacity="0.36" stroke-linejoin="round"/>
<circle cx="753.3" cy="543.7" r="17.6" fill="white" fill-opacity="0.84"/>
<circle cx="753.3" cy="543.7" r="14.6" fill="#7A3CE8" fill-opacity="0.66" stroke="#111" stroke-width="2.5"/>
<text x="753.3" y="550.7" text-anchor="middle" font-family="Arial, Helvetica, sans-serif" font-size="21" font-weight="800" fill="white" stroke="#111" stroke-width="3" paint-order="stroke">1</text>
<circle cx="1234.1" cy="492.0" r="19.4" fill="white" fill-opacity="0.84"/>
<circle cx="1234.1" cy="492.0" r="16.4" fill="#7A3CE8" fill-opacity="0.66" stroke="#111" stroke-width="2.5"/>
<text x="1234.1" y="499.0" text-anchor="middle" font-family="Arial, Helvetica, sans-serif" font-size="21" font-weight="800" fill="white" stroke="#111" stroke-width="3" paint-order="stroke">2</text>
<circle cx="1494.3" cy="819.1" r="15.9" fill="white" fill-opacity="0.84"/>
<circle cx="1494.3" cy="819.1" r="12.9" fill="#7A3CE8" fill-opacity="0.66" stroke="#111" stroke-width="2.5"/>
<text x="1494.3" y="826.1" text-anchor="middle" font-family="Arial, Helvetica, sans-serif" font-size="21" font-weight="800" fill="white" stroke="#111" stroke-width="3" paint-order="stroke">3</text>
<circle cx="1193.1" cy="500.6" r="17.0" fill="white" fill-opacity="0.84"/>
<circle cx="1193.1" cy="500.6" r="14.0" fill="#7A3CE8" fill-opacity="0.66" stroke="#111" stroke-width="2.5"/>
<text x="1193.1" y="507.6" text-anchor="middle" font-family="Arial, Helvetica, sans-serif" font-size="21" font-weight="800" fill="white" stroke="#111" stroke-width="3" paint-order="stroke">4</text>
<circle cx="809.3" cy="539.6" r="12.2" fill="white" fill-opacity="0.84"/>
<circle cx="809.3" cy="539.6" r="9.2" fill="#7A3CE8" fill-opacity="0.66" stroke="#111" stroke-width="2.5"/>
<text x="809.3" y="546.6" text-anchor="middle" font-family="Arial, Helvetica, sans-serif" font-size="21" font-weight="800" fill="white" stroke="#111" stroke-width="3" paint-order="stroke">5</text>
<circle cx="814.4" cy="536.5" r="16.3" fill="white" fill-opacity="0.84"/>
<circle cx="814.4" cy="536.5" r="13.3" fill="#7A3CE8" fill-opacity="0.66" stroke="#111" stroke-width="2.5"/>
<text x="814.4" y="543.5" text-anchor="middle" font-family="Arial, Helvetica, sans-serif" font-size="21" font-weight="800" fill="white" stroke="#111" stroke-width="3" paint-order="stroke">6</text>
<circle cx="654.9" cy="451.5" r="15.1" fill="white" fill-opacity="0.84"/>
<circle cx="654.9" cy="451.5" r="12.1" fill="#7A3CE8" fill-opacity="0.66" stroke="#111" stroke-width="2.5"/>
<text x="654.9" y="458.5" text-anchor="middle" font-family="Arial, Helvetica, sans-serif" font-size="21" font-weight="800" fill="white" stroke="#111" stroke-width="3" paint-order="stroke">7</text>
<circle cx="691.4" cy="475.1" r="16.2" fill="white" fill-opacity="0.84"/>
<circle cx="691.4" cy="475.1" r="13.2" fill="#7A3CE8" fill-opacity="0.66" stroke="#111" stroke-width="2.5"/>
<text x="691.4" y="482.1" text-anchor="middle" font-family="Arial, Helvetica, sans-serif" font-size="21" font-weight="800" fill="white" stroke="#111" stroke-width="3" paint-order="stroke">8</text>
<circle cx="671.0" cy="486.0" r="15.2" fill="white" fill-opacity="0.84"/>
<circle cx="671.0" cy="486.0" r="12.2" fill="#7A3CE8" fill-opacity="0.66" stroke="#111" stroke-width="2.5"/>
<text x="671.0" y="493.0" text-anchor="middle" font-family="Arial, Helvetica, sans-serif" font-size="21" font-weight="800" fill="white" stroke="#111" stroke-width="3" paint-order="stroke">9</text>
<circle cx="1280.2" cy="465.6" r="16.0" fill="white" fill-opacity="0.84"/>
<circle cx="1280.2" cy="465.6" r="13.0" fill="#7A3CE8" fill-opacity="0.66" stroke="#111" stroke-width="2.5"/>
<text x="1280.2" y="472.6" text-anchor="middle" font-family="Arial, Helvetica, sans-serif" font-size="21" font-weight="800" fill="white" stroke="#111" stroke-width="3" paint-order="stroke">10</text>
<circle cx="1213.9" cy="415.3" r="17.9" fill="white" fill-opacity="0.84"/>
<circle cx="1213.9" cy="415.3" r="14.9" fill="#7A3CE8" fill-opacity="0.66" stroke="#111" stroke-width="2.5"/>
<text x="1213.9" y="422.3" text-anchor="middle" font-family="Arial, Helvetica, sans-serif" font-size="21" font-weight="800" fill="white" stroke="#111" stroke-width="3" paint-order="stroke">11</text>
<circle cx="1198.5" cy="447.9" r="15.5" fill="white" fill-opacity="0.84"/>
<circle cx="1198.5" cy="447.9" r="12.5" fill="#7A3CE8" fill-opacity="0.66" stroke="#111" stroke-width="2.5"/>
<text x="1198.5" y="454.9" text-anchor="middle" font-family="Arial, Helvetica, sans-serif" font-size="21" font-weight="800" fill="white" stroke="#111" stroke-width="3" paint-order="stroke">12</text>
<circle cx="1503.5" cy="464.8" r="19.8" fill="white" fill-opacity="0.84"/>
<circle cx="1503.5" cy="464.8" r="16.8" fill="#7A3CE8" fill-opacity="0.66" stroke="#111" stroke-width="2.5"/>
<text x="1503.5" y="471.8" text-anchor="middle" font-family="Arial, Helvetica, sans-serif" font-size="21" font-weight="800" fill="white" stroke="#111" stroke-width="3" paint-order="stroke">13</text>
<circle cx="888.3" cy="543.2" r="16.3" fill="white" fill-opacity="0.84"/>
<circle cx="888.3" cy="543.2" r="13.3" fill="#7A3CE8" fill-opacity="0.66" stroke="#111" stroke-width="2.5"/>
<text x="888.3" y="550.2" text-anchor="middle" font-family="Arial, Helvetica, sans-serif" font-size="21" font-weight="800" fill="white" stroke="#111" stroke-width="3" paint-order="stroke">14</text>
<circle cx="654.9" cy="530.3" r="18.0" fill="white" fill-opacity="0.84"/>
<circle cx="654.9" cy="530.3" r="15.0" fill="#7A3CE8" fill-opacity="0.66" stroke="#111" stroke-width="2.5"/>
<text x="654.9" y="537.3" text-anchor="middle" font-family="Arial, Helvetica, sans-serif" font-size="21" font-weight="800" fill="white" stroke="#111" stroke-width="3" paint-order="stroke">15</text>
<circle cx="882.0" cy="659.4" r="11.8" fill="white" fill-opacity="0.84"/>
<circle cx="882.0" cy="659.4" r="8.8" fill="#7A3CE8" fill-opacity="0.66" stroke="#111" stroke-width="2.5"/>
<text x="882.0" y="666.4" text-anchor="middle" font-family="Arial, Helvetica, sans-serif" font-size="21" font-weight="800" fill="white" stroke="#111" stroke-width="3" paint-order="stroke">16</text>
<circle cx="860.1" cy="683.3" r="13.4" fill="white" fill-opacity="0.84"/>
<circle cx="860.1" cy="683.3" r="10.4" fill="#7A3CE8" fill-opacity="0.66" stroke="#111" stroke-width="2.5"/>
<text x="860.1" y="690.3" text-anchor="middle" font-family="Arial, Helvetica, sans-serif" font-size="21" font-weight="800" fill="white" stroke="#111" stroke-width="3" paint-order="stroke">17</text>
<circle cx="866.3" cy="620.9" r="17.9" fill="white" fill-opacity="0.84"/>
<circle cx="866.3" cy="620.9" r="14.9" fill="#7A3CE8" fill-opacity="0.66" stroke="#111" stroke-width="2.5"/>
<text x="866.3" y="627.9" text-anchor="middle" font-family="Arial, Helvetica, sans-serif" font-size="21" font-weight="800" fill="white" stroke="#111" stroke-width="3" paint-order="stroke">18</text>
<circle cx="890.0" cy="540.0" r="16.5" fill="white" fill-opacity="0.84"/>
<circle cx="890.0" cy="540.0" r="13.5" fill="#7A3CE8" fill-opacity="0.66" stroke="#111" stroke-width="2.5"/>
<text x="890.0" y="547.0" text-anchor="middle" font-family="Arial, Helvetica, sans-serif" font-size="21" font-weight="800" fill="white" stroke="#111" stroke-width="3" paint-order="stroke">19</text>
<circle cx="1102.7" cy="607.2" r="16.2" fill="white" fill-opacity="0.84"/>
<circle cx="1102.7" cy="607.2" r="13.2" fill="#7A3CE8" fill-opacity="0.66" stroke="#111" stroke-width="2.5"/>
<text x="1102.7" y="614.2" text-anchor="middle" font-family="Arial, Helvetica, sans-serif" font-size="21" font-weight="800" fill="white" stroke="#111" stroke-width="3" paint-order="stroke">20</text>
<circle cx="1437.2" cy="919.1" r="17.6" fill="white" fill-opacity="0.84"/>
<circle cx="1437.2" cy="919.1" r="14.6" fill="#7A3CE8" fill-opacity="0.66" stroke="#111" stroke-width="2.5"/>
<text x="1437.2" y="926.1" text-anchor="middle" font-family="Arial, Helvetica, sans-serif" font-size="21" font-weight="800" fill="white" stroke="#111" stroke-width="3" paint-order="stroke">21</text>
<circle cx="1524.6" cy="918.1" r="16.1" fill="white" fill-opacity="0.84"/>
<circle cx="1524.6" cy="918.1" r="13.1" fill="#7A3CE8" fill-opacity="0.66" stroke="#111" stroke-width="2.5"/>
<text x="1524.6" y="925.1" text-anchor="middle" font-family="Arial, Helvetica, sans-serif" font-size="21" font-weight="800" fill="white" stroke="#111" stroke-width="3" paint-order="stroke">22</text>
<circle cx="1167.3" cy="756.2" r="14.8" fill="white" fill-opacity="0.84"/>
<circle cx="1167.3" cy="756.2" r="11.8" fill="#7A3CE8" fill-opacity="0.66" stroke="#111" stroke-width="2.5"/>
<text x="1167.3" y="763.2" text-anchor="middle" font-family="Arial, Helvetica, sans-serif" font-size="21" font-weight="800" fill="white" stroke="#111" stroke-width="3" paint-order="stroke">23</text>
<circle cx="1052.9" cy="559.2" r="15.4" fill="white" fill-opacity="0.84"/>
<circle cx="1052.9" cy="559.2" r="12.4" fill="#7A3CE8" fill-opacity="0.66" stroke="#111" stroke-width="2.5"/>
<text x="1052.9" y="566.2" text-anchor="middle" font-family="Arial, Helvetica, sans-serif" font-size="21" font-weight="800" fill="white" stroke="#111" stroke-width="3" paint-order="stroke">24</text>
<circle cx="721.4" cy="496.7" r="16.3" fill="white" fill-opacity="0.84"/>
<circle cx="721.4" cy="496.7" r="13.3" fill="#7A3CE8" fill-opacity="0.66" stroke="#111" stroke-width="2.5"/>
<text x="721.4" y="503.7" text-anchor="middle" font-family="Arial, Helvetica, sans-serif" font-size="21" font-weight="800" fill="white" stroke="#111" stroke-width="3" paint-order="stroke">25</text>
<circle cx="667.8" cy="494.5" r="16.8" fill="white" fill-opacity="0.84"/>
<circle cx="667.8" cy="494.5" r="13.8" fill="#7A3CE8" fill-opacity="0.66" stroke="#111" stroke-width="2.5"/>
<text x="667.8" y="501.5" text-anchor="middle" font-family="Arial, Helvetica, sans-serif" font-size="21" font-weight="800" fill="white" stroke="#111" stroke-width="3" paint-order="stroke">26</text>
<circle cx="698.9" cy="467.9" r="17.5" fill="white" fill-opacity="0.84"/>
<circle cx="698.9" cy="467.9" r="14.5" fill="#7A3CE8" fill-opacity="0.66" stroke="#111" stroke-width="2.5"/>
<text x="698.9" y="474.9" text-anchor="middle" font-family="Arial, Helvetica, sans-serif" font-size="21" font-weight="800" fill="white" stroke="#111" stroke-width="3" paint-order="stroke">27</text>
<circle cx="686.2" cy="415.2" r="18.3" fill="white" fill-opacity="0.84"/>
<circle cx="686.2" cy="415.2" r="15.3" fill="#7A3CE8" fill-opacity="0.66" stroke="#111" stroke-width="2.5"/>
<text x="686.2" y="422.2" text-anchor="middle" font-family="Arial, Helvetica, sans-serif" font-size="21" font-weight="800" fill="white" stroke="#111" stroke-width="3" paint-order="stroke">28</text>
<circle cx="692.8" cy="467.9" r="18.7" fill="white" fill-opacity="0.84"/>
<circle cx="692.8" cy="467.9" r="15.7" fill="#7A3CE8" fill-opacity="0.66" stroke="#111" stroke-width="2.5"/>
<text x="692.8" y="474.9" text-anchor="middle" font-family="Arial, Helvetica, sans-serif" font-size="21" font-weight="800" fill="white" stroke="#111" stroke-width="3" paint-order="stroke">29</text>
<circle cx="831.0" cy="544.6" r="16.4" fill="white" fill-opacity="0.84"/>
<circle cx="831.0" cy="544.6" r="13.4" fill="#7A3CE8" fill-opacity="0.66" stroke="#111" stroke-width="2.5"/>
<text x="831.0" y="551.6" text-anchor="middle" font-family="Arial, Helvetica, sans-serif" font-size="21" font-weight="800" fill="white" stroke="#111" stroke-width="3" paint-order="stroke">30</text>
<circle cx="1142.5" cy="586.6" r="18.2" fill="white" fill-opacity="0.84"/>
<circle cx="1142.5" cy="586.6" r="15.2" fill="#7A3CE8" fill-opacity="0.66" stroke="#111" stroke-width="2.5"/>
<text x="1142.5" y="593.6" text-anchor="middle" font-family="Arial, Helvetica, sans-serif" font-size="21" font-weight="800" fill="white" stroke="#111" stroke-width="3" paint-order="stroke">31</text>
<circle cx="1021.2" cy="496.8" r="13.5" fill="white" fill-opacity="0.84"/>
<circle cx="1021.2" cy="496.8" r="10.5" fill="#7A3CE8" fill-opacity="0.66" stroke="#111" stroke-width="2.5"/>
<text x="1021.2" y="503.8" text-anchor="middle" font-family="Arial, Helvetica, sans-serif" font-size="21" font-weight="800" fill="white" stroke="#111" stroke-width="3" paint-order="stroke">32</text>
<circle cx="958.7" cy="530.6" r="14.4" fill="white" fill-opacity="0.84"/>
<circle cx="958.7" cy="530.6" r="11.4" fill="#7A3CE8" fill-opacity="0.66" stroke="#111" stroke-width="2.5"/>
<text x="958.7" y="537.6" text-anchor="middle" font-family="Arial, Helvetica, sans-serif" font-size="21" font-weight="800" fill="white" stroke="#111" stroke-width="3" paint-order="stroke">33</text>
<circle cx="893.0" cy="543.6" r="15.8" fill="white" fill-opacity="0.84"/>
<circle cx="893.0" cy="543.6" r="12.8" fill="#7A3CE8" fill-opacity="0.66" stroke="#111" stroke-width="2.5"/>
<text x="893.0" y="550.6" text-anchor="middle" font-family="Arial, Helvetica, sans-serif" font-size="21" font-weight="800" fill="white" stroke="#111" stroke-width="3" paint-order="stroke">34</text>
<circle cx="924.8" cy="551.4" r="15.4" fill="white" fill-opacity="0.84"/>
<circle cx="924.8" cy="551.4" r="12.4" fill="#7A3CE8" fill-opacity="0.66" stroke="#111" stroke-width="2.5"/>
<text x="924.8" y="558.4" text-anchor="middle" font-family="Arial, Helvetica, sans-serif" font-size="21" font-weight="800" fill="white" stroke="#111" stroke-width="3" paint-order="stroke">35</text>
<circle cx="1076.3" cy="544.0" r="14.0" fill="white" fill-opacity="0.84"/>
<circle cx="1076.3" cy="544.0" r="11.0" fill="#7A3CE8" fill-opacity="0.66" stroke="#111" stroke-width="2.5"/>
<text x="1076.3" y="551.0" text-anchor="middle" font-family="Arial, Helvetica, sans-serif" font-size="21" font-weight="800" fill="white" stroke="#111" stroke-width="3" paint-order="stroke">36</text>
<circle cx="826.1" cy="605.2" r="18.0" fill="white" fill-opacity="0.84"/>
<circle cx="826.1" cy="605.2" r="15.0" fill="#7A3CE8" fill-opacity="0.66" stroke="#111" stroke-width="2.5"/>
<text x="826.1" y="612.2" text-anchor="middle" font-family="Arial, Helvetica, sans-serif" font-size="21" font-weight="800" fill="white" stroke="#111" stroke-width="3" paint-order="stroke">37</text>
<circle cx="951.4" cy="558.6" r="14.7" fill="white" fill-opacity="0.84"/>
<circle cx="951.4" cy="558.6" r="11.7" fill="#7A3CE8" fill-opacity="0.66" stroke="#111" stroke-width="2.5"/>
<text x="951.4" y="565.6" text-anchor="middle" font-family="Arial, Helvetica, sans-serif" font-size="21" font-weight="800" fill="white" stroke="#111" stroke-width="3" paint-order="stroke">38</text>
<circle cx="792.7" cy="589.5" r="16.3" fill="white" fill-opacity="0.84"/>
<circle cx="792.7" cy="589.5" r="13.3" fill="#7A3CE8" fill-opacity="0.66" stroke="#111" stroke-width="2.5"/>
<text x="792.7" y="596.5" text-anchor="middle" font-family="Arial, Helvetica, sans-serif" font-size="21" font-weight="800" fill="white" stroke="#111" stroke-width="3" paint-order="stroke">39</text>
<circle cx="1137.6" cy="621.0" r="17.5" fill="white" fill-opacity="0.84"/>
<circle cx="1137.6" cy="621.0" r="14.5" fill="#7A3CE8" fill-opacity="0.66" stroke="#111" stroke-width="2.5"/>
<text x="1137.6" y="628.0" text-anchor="middle" font-family="Arial, Helvetica, sans-serif" font-size="21" font-weight="800" fill="white" stroke="#111" stroke-width="3" paint-order="stroke">40</text>
<circle cx="1171.0" cy="584.0" r="17.2" fill="white" fill-opacity="0.84"/>
<circle cx="1171.0" cy="584.0" r="14.2" fill="#7A3CE8" fill-opacity="0.66" stroke="#111" stroke-width="2.5"/>
<text x="1171.0" y="591.0" text-anchor="middle" font-family="Arial, Helvetica, sans-serif" font-size="21" font-weight="800" fill="white" stroke="#111" stroke-width="3" paint-order="stroke">41</text>
<circle cx="1300.3" cy="569.1" r="19.4" fill="white" fill-opacity="0.84"/>
<circle cx="1300.3" cy="569.1" r="16.4" fill="#7A3CE8" fill-opacity="0.66" stroke="#111" stroke-width="2.5"/>
<text x="1300.3" y="576.1" text-anchor="middle" font-family="Arial, Helvetica, sans-serif" font-size="21" font-weight="800" fill="white" stroke="#111" stroke-width="3" paint-order="stroke">42</text>
<circle cx="1189.2" cy="531.5" r="17.1" fill="white" fill-opacity="0.84"/>
<circle cx="1189.2" cy="531.5" r="14.1" fill="#7A3CE8" fill-opacity="0.66" stroke="#111" stroke-width="2.5"/>
<text x="1189.2" y="538.5" text-anchor="middle" font-family="Arial, Helvetica, sans-serif" font-size="21" font-weight="800" fill="white" stroke="#111" stroke-width="3" paint-order="stroke">43</text>
<circle cx="958.7" cy="580.0" r="17.1" fill="white" fill-opacity="0.84"/>
<circle cx="958.7" cy="580.0" r="14.1" fill="#7A3CE8" fill-opacity="0.66" stroke="#111" stroke-width="2.5"/>
<text x="958.7" y="587.0" text-anchor="middle" font-family="Arial, Helvetica, sans-serif" font-size="21" font-weight="800" fill="white" stroke="#111" stroke-width="3" paint-order="stroke">44</text>
<circle cx="862.9" cy="567.7" r="17.7" fill="white" fill-opacity="0.84"/>
<circle cx="862.9" cy="567.7" r="14.7" fill="#7A3CE8" fill-opacity="0.66" stroke="#111" stroke-width="2.5"/>
<text x="862.9" y="574.7" text-anchor="middle" font-family="Arial, Helvetica, sans-serif" font-size="21" font-weight="800" fill="white" stroke="#111" stroke-width="3" paint-order="stroke">45</text>
<circle cx="709.3" cy="554.1" r="17.7" fill="white" fill-opacity="0.84"/>
<circle cx="709.3" cy="554.1" r="14.7" fill="#7A3CE8" fill-opacity="0.66" stroke="#111" stroke-width="2.5"/>
<text x="709.3" y="561.1" text-anchor="middle" font-family="Arial, Helvetica, sans-serif" font-size="21" font-weight="800" fill="white" stroke="#111" stroke-width="3" paint-order="stroke">46</text>
<circle cx="906.8" cy="645.3" r="15.7" fill="white" fill-opacity="0.84"/>
<circle cx="906.8" cy="645.3" r="12.7" fill="#7A3CE8" fill-opacity="0.66" stroke="#111" stroke-width="2.5"/>
<text x="906.8" y="652.3" text-anchor="middle" font-family="Arial, Helvetica, sans-serif" font-size="21" font-weight="800" fill="white" stroke="#111" stroke-width="3" paint-order="stroke">47</text>
<circle cx="1037.0" cy="558.3" r="18.1" fill="white" fill-opacity="0.84"/>
<circle cx="1037.0" cy="558.3" r="15.1" fill="#7A3CE8" fill-opacity="0.66" stroke="#111" stroke-width="2.5"/>
<text x="1037.0" y="565.3" text-anchor="middle" font-family="Arial, Helvetica, sans-serif" font-size="21" font-weight="800" fill="white" stroke="#111" stroke-width="3" paint-order="stroke">48</text>
<circle cx="925.0" cy="561.9" r="18.1" fill="white" fill-opacity="0.84"/>
<circle cx="925.0" cy="561.9" r="15.1" fill="#7A3CE8" fill-opacity="0.66" stroke="#111" stroke-width="2.5"/>
<text x="925.0" y="568.9" text-anchor="middle" font-family="Arial, Helvetica, sans-serif" font-size="21" font-weight="800" fill="white" stroke="#111" stroke-width="3" paint-order="stroke">49</text>
<circle cx="813.4" cy="584.0" r="16.6" fill="white" fill-opacity="0.84"/>
<circle cx="813.4" cy="584.0" r="13.6" fill="#7A3CE8" fill-opacity="0.66" stroke="#111" stroke-width="2.5"/>
<text x="813.4" y="591.0" text-anchor="middle" font-family="Arial, Helvetica, sans-serif" font-size="21" font-weight="800" fill="white" stroke="#111" stroke-width="3" paint-order="stroke">50</text>
<circle cx="877.0" cy="579.5" r="15.4" fill="white" fill-opacity="0.84"/>
<circle cx="877.0" cy="579.5" r="12.4" fill="#7A3CE8" fill-opacity="0.66" stroke="#111" stroke-width="2.5"/>
<text x="877.0" y="586.5" text-anchor="middle" font-family="Arial, Helvetica, sans-serif" font-size="21" font-weight="800" fill="white" stroke="#111" stroke-width="3" paint-order="stroke">51</text>
<rect x="16" y="1094" width="1120" height="168" rx="8" fill="white" fill-opacity="0.92" stroke="#111" stroke-opacity="0.22"/>
<text x="36.0" y="1128.0" font-family="Arial, Helvetica, sans-serif" font-size="24" font-weight="600" fill="#111">K13 / k13_2.asc block 39 | hit-1-2-l.png | RT NA ms | 51 fixations</text>
<text x="36.0" y="1159.0" font-family="Arial, Helvetica, sans-serif" font-size="24" font-weight="600" fill="#111">numbers show fixation order; dot size shows fixation duration</text>
<circle cx="42" cy="1198" r="11" fill="#005DFF" fill-opacity="0.64" stroke="#111" stroke-width="2"/>
<text x="62.0" y="1206.0" font-family="Arial, Helvetica, sans-serif" font-size="22" font-weight="500" fill="#111">blue: before speech onset</text>
<circle cx="42" cy="1232" r="11" fill="#FF8A00" fill-opacity="0.64" stroke="#111" stroke-width="2"/>
<text x="62.0" y="1240.0" font-family="Arial, Helvetica, sans-serif" font-size="22" font-weight="500" fill="#111">orange: first 2000 ms after onset</text>
</svg>
