<svg xmlns="http://www.w3.org/2000/svg" width="1920" height="1320" viewBox="0 0 1920 1320">
<image href="https://raw.githubusercontent.com/mkurg/koryak/main/stimuli/Koryak%20stimuli%20animate%20inanimate/open-1-1-r.png" x="0" y="0" width="1920" height="1080" preserveAspectRatio="none"/>
<rect x="0" y="0" width="1920" height="1080" fill="none" stroke="#111" stroke-width="2"/>
<rect x="0" y="1080" width="1920" height="240" fill="#f7f7f7"/>
<rect x="970.0" y="100.0" width="850" height="850" fill="none" stroke="#00B8D9" stroke-width="6" stroke-dasharray="18 12"/>
<rect x="982.0" y="62.0" width="102.0" height="38" rx="6" fill="white" fill-opacity="0.86" stroke="#00B8D9" stroke-width="3"/>
<text x="992.0" y="88.0" font-family="Arial, Helvetica, sans-serif" font-size="24" font-weight="700" fill="#111">AGENT</text>
<rect x="40.0" y="100.0" width="850" height="850" fill="none" stroke="#FF3B8A" stroke-width="6" stroke-dasharray="18 12"/>
<rect x="52.0" y="62.0" width="134.0" height="38" rx="6" fill="white" fill-opacity="0.86" stroke="#FF3B8A" stroke-width="3"/>
<text x="62.0" y="88.0" font-family="Arial, Helvetica, sans-serif" font-size="24" font-weight="700" fill="#111">PATIENT</text>
<polyline points="954.6,418.5 1443.3,368.9 1219.6,500.2 1471.4,282.0 1481.5,306.0 657.5,570.1 801.7,566.9 1392.8,438.5 1416.6,409.8 1533.4,313.3 1238.5,468.9 853.9,600.4 1050.1,542.6 811.7,619.8 811.6,456.7 788.6,588.4 1054.3,509.5 814.1,554.7 1273.4,473.1 972.2,525.6 811.8,588.2 1067.1,495.2 832.2,561.6 882.4,561.9 815.2,570.1 817.1,225.4 810.0,550.6 1036.7,309.8 838.8,213.9 1419.8,53.4 694.6,467.8 776.6,427.5 751.6,494.2 779.9,503.4 1439.3,191.5 1514.1,200.2 687.4,434.9 1207.7,234.1 1540.6,126.8 1484.6,146.2 712.3,503.3 936.2,377.2 1306.7,435.1 725.6,488.1 1284.6,156.0 725.5,503.7 630.9,62.5 730.4,486.0 723.6,570.8 719.9,473.8 1216.7,360.9 737.9,418.7 1463.3,235.3 682.0,465.3 706.7,568.5 1521.8,302.7 1578.2,163.1 1188.0,243.4 734.4,492.5 718.8,546.8 1362.3,374.6 1528.6,119.2 737.9,448.0 620.0,69.6 727.7,407.4 685.3,521.8 1293.4,312.1 1519.5,118.2 745.7,446.0 727.6,415.0 1507.4,219.6 1542.9,134.8 673.1,491.2 874.3,292.4 712.3,417.6 1478.2,190.1 681.4,451.4 821.7,410.9 1521.3,145.0 702.5,450.4 1043.2,370.4 674.8,480.2" fill="none" stroke="#111" stroke-width="4" stroke-opacity="0.36" stroke-linejoin="round"/>
<circle cx="954.6" cy="418.5" r="17.9" fill="white" fill-opacity="0.84"/>
<circle cx="954.6" cy="418.5" r="14.9" fill="#7A3CE8" fill-opacity="0.66" stroke="#111" stroke-width="2.5"/>
<text x="954.6" y="425.5" text-anchor="middle" font-family="Arial, Helvetica, sans-serif" font-size="21" font-weight="800" fill="white" stroke="#111" stroke-width="3" paint-order="stroke">1</text>
<circle cx="1443.3" cy="368.9" r="17.3" fill="white" fill-opacity="0.84"/>
<circle cx="1443.3" cy="368.9" r="14.3" fill="#7A3CE8" fill-opacity="0.66" stroke="#111" stroke-width="2.5"/>
<text x="1443.3" y="375.9" text-anchor="middle" font-family="Arial, Helvetica, sans-serif" font-size="21" font-weight="800" fill="white" stroke="#111" stroke-width="3" paint-order="stroke">2</text>
<circle cx="1219.6" cy="500.2" r="16.5" fill="white" fill-opacity="0.84"/>
<circle cx="1219.6" cy="500.2" r="13.5" fill="#7A3CE8" fill-opacity="0.66" stroke="#111" stroke-width="2.5"/>
<text x="1219.6" y="507.2" text-anchor="middle" font-family="Arial, Helvetica, sans-serif" font-size="21" font-weight="800" fill="white" stroke="#111" stroke-width="3" paint-order="stroke">3</text>
<circle cx="1471.4" cy="282.0" r="20.4" fill="white" fill-opacity="0.84"/>
<circle cx="1471.4" cy="282.0" r="17.4" fill="#7A3CE8" fill-opacity="0.66" stroke="#111" stroke-width="2.5"/>
<text x="1471.4" y="289.0" text-anchor="middle" font-family="Arial, Helvetica, sans-serif" font-size="21" font-weight="800" fill="white" stroke="#111" stroke-width="3" paint-order="stroke">4</text>
<circle cx="1481.5" cy="306.0" r="15.9" fill="white" fill-opacity="0.84"/>
<circle cx="1481.5" cy="306.0" r="12.9" fill="#7A3CE8" fill-opacity="0.66" stroke="#111" stroke-width="2.5"/>
<text x="1481.5" y="313.0" text-anchor="middle" font-family="Arial, Helvetica, sans-serif" font-size="21" font-weight="800" fill="white" stroke="#111" stroke-width="3" paint-order="stroke">5</text>
<circle cx="657.5" cy="570.1" r="16.8" fill="white" fill-opacity="0.84"/>
<circle cx="657.5" cy="570.1" r="13.8" fill="#7A3CE8" fill-opacity="0.66" stroke="#111" stroke-width="2.5"/>
<text x="657.5" y="577.1" text-anchor="middle" font-family="Arial, Helvetica, sans-serif" font-size="21" font-weight="800" fill="white" stroke="#111" stroke-width="3" paint-order="stroke">6</text>
<circle cx="801.7" cy="566.9" r="18.0" fill="white" fill-opacity="0.84"/>
<circle cx="801.7" cy="566.9" r="15.0" fill="#7A3CE8" fill-opacity="0.66" stroke="#111" stroke-width="2.5"/>
<text x="801.7" y="573.9" text-anchor="middle" font-family="Arial, Helvetica, sans-serif" font-size="21" font-weight="800" fill="white" stroke="#111" stroke-width="3" paint-order="stroke">7</text>
<circle cx="1392.8" cy="438.5" r="17.0" fill="white" fill-opacity="0.84"/>
<circle cx="1392.8" cy="438.5" r="14.0" fill="#7A3CE8" fill-opacity="0.66" stroke="#111" stroke-width="2.5"/>
<text x="1392.8" y="445.5" text-anchor="middle" font-family="Arial, Helvetica, sans-serif" font-size="21" font-weight="800" fill="white" stroke="#111" stroke-width="3" paint-order="stroke">8</text>
<circle cx="1416.6" cy="409.8" r="15.5" fill="white" fill-opacity="0.84"/>
<circle cx="1416.6" cy="409.8" r="12.5" fill="#7A3CE8" fill-opacity="0.66" stroke="#111" stroke-width="2.5"/>
<text x="1416.6" y="416.8" text-anchor="middle" font-family="Arial, Helvetica, sans-serif" font-size="21" font-weight="800" fill="white" stroke="#111" stroke-width="3" paint-order="stroke">9</text>
<circle cx="1533.4" cy="313.3" r="18.5" fill="white" fill-opacity="0.84"/>
<circle cx="1533.4" cy="313.3" r="15.5" fill="#7A3CE8" fill-opacity="0.66" stroke="#111" stroke-width="2.5"/>
<text x="1533.4" y="320.3" text-anchor="middle" font-family="Arial, Helvetica, sans-serif" font-size="21" font-weight="800" fill="white" stroke="#111" stroke-width="3" paint-order="stroke">10</text>
<circle cx="1238.5" cy="468.9" r="16.4" fill="white" fill-opacity="0.84"/>
<circle cx="1238.5" cy="468.9" r="13.4" fill="#7A3CE8" fill-opacity="0.66" stroke="#111" stroke-width="2.5"/>
<text x="1238.5" y="475.9" text-anchor="middle" font-family="Arial, Helvetica, sans-serif" font-size="21" font-weight="800" fill="white" stroke="#111" stroke-width="3" paint-order="stroke">11</text>
<circle cx="853.9" cy="600.4" r="16.9" fill="white" fill-opacity="0.84"/>
<circle cx="853.9" cy="600.4" r="13.9" fill="#7A3CE8" fill-opacity="0.66" stroke="#111" stroke-width="2.5"/>
<text x="853.9" y="607.4" text-anchor="middle" font-family="Arial, Helvetica, sans-serif" font-size="21" font-weight="800" fill="white" stroke="#111" stroke-width="3" paint-order="stroke">12</text>
<circle cx="1050.1" cy="542.6" r="16.0" fill="white" fill-opacity="0.84"/>
<circle cx="1050.1" cy="542.6" r="13.0" fill="#7A3CE8" fill-opacity="0.66" stroke="#111" stroke-width="2.5"/>
<text x="1050.1" y="549.6" text-anchor="middle" font-family="Arial, Helvetica, sans-serif" font-size="21" font-weight="800" fill="white" stroke="#111" stroke-width="3" paint-order="stroke">13</text>
<circle cx="811.7" cy="619.8" r="19.3" fill="white" fill-opacity="0.84"/>
<circle cx="811.7" cy="619.8" r="16.3" fill="#7A3CE8" fill-opacity="0.66" stroke="#111" stroke-width="2.5"/>
<text x="811.7" y="626.8" text-anchor="middle" font-family="Arial, Helvetica, sans-serif" font-size="21" font-weight="800" fill="white" stroke="#111" stroke-width="3" paint-order="stroke">14</text>
<circle cx="811.6" cy="456.7" r="17.9" fill="white" fill-opacity="0.84"/>
<circle cx="811.6" cy="456.7" r="14.9" fill="#7A3CE8" fill-opacity="0.66" stroke="#111" stroke-width="2.5"/>
<text x="811.6" y="463.7" text-anchor="middle" font-family="Arial, Helvetica, sans-serif" font-size="21" font-weight="800" fill="white" stroke="#111" stroke-width="3" paint-order="stroke">15</text>
<circle cx="788.6" cy="588.4" r="16.2" fill="white" fill-opacity="0.84"/>
<circle cx="788.6" cy="588.4" r="13.2" fill="#7A3CE8" fill-opacity="0.66" stroke="#111" stroke-width="2.5"/>
<text x="788.6" y="595.4" text-anchor="middle" font-family="Arial, Helvetica, sans-serif" font-size="21" font-weight="800" fill="white" stroke="#111" stroke-width="3" paint-order="stroke">16</text>
<circle cx="1054.3" cy="509.5" r="14.8" fill="white" fill-opacity="0.84"/>
<circle cx="1054.3" cy="509.5" r="11.8" fill="#7A3CE8" fill-opacity="0.66" stroke="#111" stroke-width="2.5"/>
<text x="1054.3" y="516.5" text-anchor="middle" font-family="Arial, Helvetica, sans-serif" font-size="21" font-weight="800" fill="white" stroke="#111" stroke-width="3" paint-order="stroke">17</text>
<circle cx="814.1" cy="554.7" r="16.4" fill="white" fill-opacity="0.84"/>
<circle cx="814.1" cy="554.7" r="13.4" fill="#7A3CE8" fill-opacity="0.66" stroke="#111" stroke-width="2.5"/>
<text x="814.1" y="561.7" text-anchor="middle" font-family="Arial, Helvetica, sans-serif" font-size="21" font-weight="800" fill="white" stroke="#111" stroke-width="3" paint-order="stroke">18</text>
<circle cx="1273.4" cy="473.1" r="17.0" fill="white" fill-opacity="0.84"/>
<circle cx="1273.4" cy="473.1" r="14.0" fill="#7A3CE8" fill-opacity="0.66" stroke="#111" stroke-width="2.5"/>
<text x="1273.4" y="480.1" text-anchor="middle" font-family="Arial, Helvetica, sans-serif" font-size="21" font-weight="800" fill="white" stroke="#111" stroke-width="3" paint-order="stroke">19</text>
<circle cx="972.2" cy="525.6" r="15.6" fill="white" fill-opacity="0.84"/>
<circle cx="972.2" cy="525.6" r="12.6" fill="#7A3CE8" fill-opacity="0.66" stroke="#111" stroke-width="2.5"/>
<text x="972.2" y="532.6" text-anchor="middle" font-family="Arial, Helvetica, sans-serif" font-size="21" font-weight="800" fill="white" stroke="#111" stroke-width="3" paint-order="stroke">20</text>
<circle cx="811.8" cy="588.2" r="17.8" fill="white" fill-opacity="0.84"/>
<circle cx="811.8" cy="588.2" r="14.8" fill="#7A3CE8" fill-opacity="0.66" stroke="#111" stroke-width="2.5"/>
<text x="811.8" y="595.2" text-anchor="middle" font-family="Arial, Helvetica, sans-serif" font-size="21" font-weight="800" fill="white" stroke="#111" stroke-width="3" paint-order="stroke">21</text>
<circle cx="1067.1" cy="495.2" r="16.9" fill="white" fill-opacity="0.84"/>
<circle cx="1067.1" cy="495.2" r="13.9" fill="#7A3CE8" fill-opacity="0.66" stroke="#111" stroke-width="2.5"/>
<text x="1067.1" y="502.2" text-anchor="middle" font-family="Arial, Helvetica, sans-serif" font-size="21" font-weight="800" fill="white" stroke="#111" stroke-width="3" paint-order="stroke">22</text>
<circle cx="832.2" cy="561.6" r="15.8" fill="white" fill-opacity="0.84"/>
<circle cx="832.2" cy="561.6" r="12.8" fill="#7A3CE8" fill-opacity="0.66" stroke="#111" stroke-width="2.5"/>
<text x="832.2" y="568.6" text-anchor="middle" font-family="Arial, Helvetica, sans-serif" font-size="21" font-weight="800" fill="white" stroke="#111" stroke-width="3" paint-order="stroke">23</text>
<circle cx="882.4" cy="561.9" r="18.9" fill="white" fill-opacity="0.84"/>
<circle cx="882.4" cy="561.9" r="15.9" fill="#7A3CE8" fill-opacity="0.66" stroke="#111" stroke-width="2.5"/>
<text x="882.4" y="568.9" text-anchor="middle" font-family="Arial, Helvetica, sans-serif" font-size="21" font-weight="800" fill="white" stroke="#111" stroke-width="3" paint-order="stroke">24</text>
<circle cx="815.2" cy="570.1" r="17.5" fill="white" fill-opacity="0.84"/>
<circle cx="815.2" cy="570.1" r="14.5" fill="#7A3CE8" fill-opacity="0.66" stroke="#111" stroke-width="2.5"/>
<text x="815.2" y="577.1" text-anchor="middle" font-family="Arial, Helvetica, sans-serif" font-size="21" font-weight="800" fill="white" stroke="#111" stroke-width="3" paint-order="stroke">25</text>
<circle cx="817.1" cy="225.4" r="17.0" fill="white" fill-opacity="0.84"/>
<circle cx="817.1" cy="225.4" r="14.0" fill="#7A3CE8" fill-opacity="0.66" stroke="#111" stroke-width="2.5"/>
<text x="817.1" y="232.4" text-anchor="middle" font-family="Arial, Helvetica, sans-serif" font-size="21" font-weight="800" fill="white" stroke="#111" stroke-width="3" paint-order="stroke">26</text>
<circle cx="810.0" cy="550.6" r="19.2" fill="white" fill-opacity="0.84"/>
<circle cx="810.0" cy="550.6" r="16.2" fill="#7A3CE8" fill-opacity="0.66" stroke="#111" stroke-width="2.5"/>
<text x="810.0" y="557.6" text-anchor="middle" font-family="Arial, Helvetica, sans-serif" font-size="21" font-weight="800" fill="white" stroke="#111" stroke-width="3" paint-order="stroke">27</text>
<circle cx="1036.7" cy="309.8" r="19.9" fill="white" fill-opacity="0.84"/>
<circle cx="1036.7" cy="309.8" r="16.9" fill="#7A3CE8" fill-opacity="0.66" stroke="#111" stroke-width="2.5"/>
<text x="1036.7" y="316.8" text-anchor="middle" font-family="Arial, Helvetica, sans-serif" font-size="21" font-weight="800" fill="white" stroke="#111" stroke-width="3" paint-order="stroke">28</text>
<circle cx="838.8" cy="213.9" r="11.8" fill="white" fill-opacity="0.84"/>
<circle cx="838.8" cy="213.9" r="8.8" fill="#7A3CE8" fill-opacity="0.66" stroke="#111" stroke-width="2.5"/>
<text x="838.8" y="220.9" text-anchor="middle" font-family="Arial, Helvetica, sans-serif" font-size="21" font-weight="800" fill="white" stroke="#111" stroke-width="3" paint-order="stroke">29</text>
<circle cx="1419.8" cy="53.4" r="18.8" fill="white" fill-opacity="0.84"/>
<circle cx="1419.8" cy="53.4" r="15.8" fill="#7A3CE8" fill-opacity="0.66" stroke="#111" stroke-width="2.5"/>
<text x="1419.8" y="60.4" text-anchor="middle" font-family="Arial, Helvetica, sans-serif" font-size="21" font-weight="800" fill="white" stroke="#111" stroke-width="3" paint-order="stroke">30</text>
<circle cx="694.6" cy="467.8" r="20.5" fill="white" fill-opacity="0.84"/>
<circle cx="694.6" cy="467.8" r="17.5" fill="#7A3CE8" fill-opacity="0.66" stroke="#111" stroke-width="2.5"/>
<text x="694.6" y="474.8" text-anchor="middle" font-family="Arial, Helvetica, sans-serif" font-size="21" font-weight="800" fill="white" stroke="#111" stroke-width="3" paint-order="stroke">31</text>
<circle cx="776.6" cy="427.5" r="17.3" fill="white" fill-opacity="0.84"/>
<circle cx="776.6" cy="427.5" r="14.3" fill="#7A3CE8" fill-opacity="0.66" stroke="#111" stroke-width="2.5"/>
<text x="776.6" y="434.5" text-anchor="middle" font-family="Arial, Helvetica, sans-serif" font-size="21" font-weight="800" fill="white" stroke="#111" stroke-width="3" paint-order="stroke">32</text>
<circle cx="751.6" cy="494.2" r="15.8" fill="white" fill-opacity="0.84"/>
<circle cx="751.6" cy="494.2" r="12.8" fill="#7A3CE8" fill-opacity="0.66" stroke="#111" stroke-width="2.5"/>
<text x="751.6" y="501.2" text-anchor="middle" font-family="Arial, Helvetica, sans-serif" font-size="21" font-weight="800" fill="white" stroke="#111" stroke-width="3" paint-order="stroke">33</text>
<circle cx="779.9" cy="503.4" r="20.3" fill="white" fill-opacity="0.84"/>
<circle cx="779.9" cy="503.4" r="17.3" fill="#7A3CE8" fill-opacity="0.66" stroke="#111" stroke-width="2.5"/>
<text x="779.9" y="510.4" text-anchor="middle" font-family="Arial, Helvetica, sans-serif" font-size="21" font-weight="800" fill="white" stroke="#111" stroke-width="3" paint-order="stroke">34</text>
<circle cx="1439.3" cy="191.5" r="18.7" fill="white" fill-opacity="0.84"/>
<circle cx="1439.3" cy="191.5" r="15.7" fill="#7A3CE8" fill-opacity="0.66" stroke="#111" stroke-width="2.5"/>
<text x="1439.3" y="198.5" text-anchor="middle" font-family="Arial, Helvetica, sans-serif" font-size="21" font-weight="800" fill="white" stroke="#111" stroke-width="3" paint-order="stroke">35</text>
<circle cx="1514.1" cy="200.2" r="14.8" fill="white" fill-opacity="0.84"/>
<circle cx="1514.1" cy="200.2" r="11.8" fill="#7A3CE8" fill-opacity="0.66" stroke="#111" stroke-width="2.5"/>
<text x="1514.1" y="207.2" text-anchor="middle" font-family="Arial, Helvetica, sans-serif" font-size="21" font-weight="800" fill="white" stroke="#111" stroke-width="3" paint-order="stroke">36</text>
<circle cx="687.4" cy="434.9" r="17.1" fill="white" fill-opacity="0.84"/>
<circle cx="687.4" cy="434.9" r="14.1" fill="#7A3CE8" fill-opacity="0.66" stroke="#111" stroke-width="2.5"/>
<text x="687.4" y="441.9" text-anchor="middle" font-family="Arial, Helvetica, sans-serif" font-size="21" font-weight="800" fill="white" stroke="#111" stroke-width="3" paint-order="stroke">37</text>
<circle cx="1207.7" cy="234.1" r="14.6" fill="white" fill-opacity="0.84"/>
<circle cx="1207.7" cy="234.1" r="11.6" fill="#7A3CE8" fill-opacity="0.66" stroke="#111" stroke-width="2.5"/>
<text x="1207.7" y="241.1" text-anchor="middle" font-family="Arial, Helvetica, sans-serif" font-size="21" font-weight="800" fill="white" stroke="#111" stroke-width="3" paint-order="stroke">38</text>
<circle cx="1540.6" cy="126.8" r="16.2" fill="white" fill-opacity="0.84"/>
<circle cx="1540.6" cy="126.8" r="13.2" fill="#7A3CE8" fill-opacity="0.66" stroke="#111" stroke-width="2.5"/>
<text x="1540.6" y="133.8" text-anchor="middle" font-family="Arial, Helvetica, sans-serif" font-size="21" font-weight="800" fill="white" stroke="#111" stroke-width="3" paint-order="stroke">39</text>
<circle cx="1484.6" cy="146.2" r="16.6" fill="white" fill-opacity="0.84"/>
<circle cx="1484.6" cy="146.2" r="13.6" fill="#7A3CE8" fill-opacity="0.66" stroke="#111" stroke-width="2.5"/>
<text x="1484.6" y="153.2" text-anchor="middle" font-family="Arial, Helvetica, sans-serif" font-size="21" font-weight="800" fill="white" stroke="#111" stroke-width="3" paint-order="stroke">40</text>
<circle cx="712.3" cy="503.3" r="19.1" fill="white" fill-opacity="0.84"/>
<circle cx="712.3" cy="503.3" r="16.1" fill="#7A3CE8" fill-opacity="0.66" stroke="#111" stroke-width="2.5"/>
<text x="712.3" y="510.3" text-anchor="middle" font-family="Arial, Helvetica, sans-serif" font-size="21" font-weight="800" fill="white" stroke="#111" stroke-width="3" paint-order="stroke">41</text>
<circle cx="936.2" cy="377.2" r="15.7" fill="white" fill-opacity="0.84"/>
<circle cx="936.2" cy="377.2" r="12.7" fill="#7A3CE8" fill-opacity="0.66" stroke="#111" stroke-width="2.5"/>
<text x="936.2" y="384.2" text-anchor="middle" font-family="Arial, Helvetica, sans-serif" font-size="21" font-weight="800" fill="white" stroke="#111" stroke-width="3" paint-order="stroke">42</text>
<circle cx="1306.7" cy="435.1" r="15.3" fill="white" fill-opacity="0.84"/>
<circle cx="1306.7" cy="435.1" r="12.3" fill="#7A3CE8" fill-opacity="0.66" stroke="#111" stroke-width="2.5"/>
<text x="1306.7" y="442.1" text-anchor="middle" font-family="Arial, Helvetica, sans-serif" font-size="21" font-weight="800" fill="white" stroke="#111" stroke-width="3" paint-order="stroke">43</text>
<circle cx="725.6" cy="488.1" r="19.6" fill="white" fill-opacity="0.84"/>
<circle cx="725.6" cy="488.1" r="16.6" fill="#7A3CE8" fill-opacity="0.66" stroke="#111" stroke-width="2.5"/>
<text x="725.6" y="495.1" text-anchor="middle" font-family="Arial, Helvetica, sans-serif" font-size="21" font-weight="800" fill="white" stroke="#111" stroke-width="3" paint-order="stroke">44</text>
<circle cx="1284.6" cy="156.0" r="18.2" fill="white" fill-opacity="0.84"/>
<circle cx="1284.6" cy="156.0" r="15.2" fill="#7A3CE8" fill-opacity="0.66" stroke="#111" stroke-width="2.5"/>
<text x="1284.6" y="163.0" text-anchor="middle" font-family="Arial, Helvetica, sans-serif" font-size="21" font-weight="800" fill="white" stroke="#111" stroke-width="3" paint-order="stroke">45</text>
<circle cx="725.5" cy="503.7" r="18.5" fill="white" fill-opacity="0.84"/>
<circle cx="725.5" cy="503.7" r="15.5" fill="#7A3CE8" fill-opacity="0.66" stroke="#111" stroke-width="2.5"/>
<text x="725.5" y="510.7" text-anchor="middle" font-family="Arial, Helvetica, sans-serif" font-size="21" font-weight="800" fill="white" stroke="#111" stroke-width="3" paint-order="stroke">46</text>
<circle cx="630.9" cy="62.5" r="19.1" fill="white" fill-opacity="0.84"/>
<circle cx="630.9" cy="62.5" r="16.1" fill="#7A3CE8" fill-opacity="0.66" stroke="#111" stroke-width="2.5"/>
<text x="630.9" y="69.5" text-anchor="middle" font-family="Arial, Helvetica, sans-serif" font-size="21" font-weight="800" fill="white" stroke="#111" stroke-width="3" paint-order="stroke">47</text>
<circle cx="730.4" cy="486.0" r="18.2" fill="white" fill-opacity="0.84"/>
<circle cx="730.4" cy="486.0" r="15.2" fill="#7A3CE8" fill-opacity="0.66" stroke="#111" stroke-width="2.5"/>
<text x="730.4" y="493.0" text-anchor="middle" font-family="Arial, Helvetica, sans-serif" font-size="21" font-weight="800" fill="white" stroke="#111" stroke-width="3" paint-order="stroke">48</text>
<circle cx="723.6" cy="570.8" r="13.3" fill="white" fill-opacity="0.84"/>
<circle cx="723.6" cy="570.8" r="10.3" fill="#7A3CE8" fill-opacity="0.66" stroke="#111" stroke-width="2.5"/>
<text x="723.6" y="577.8" text-anchor="middle" font-family="Arial, Helvetica, sans-serif" font-size="21" font-weight="800" fill="white" stroke="#111" stroke-width="3" paint-order="stroke">49</text>
<circle cx="719.9" cy="473.8" r="18.6" fill="white" fill-opacity="0.84"/>
<circle cx="719.9" cy="473.8" r="15.6" fill="#7A3CE8" fill-opacity="0.66" stroke="#111" stroke-width="2.5"/>
<text x="719.9" y="480.8" text-anchor="middle" font-family="Arial, Helvetica, sans-serif" font-size="21" font-weight="800" fill="white" stroke="#111" stroke-width="3" paint-order="stroke">50</text>
<circle cx="1216.7" cy="360.9" r="16.8" fill="white" fill-opacity="0.84"/>
<circle cx="1216.7" cy="360.9" r="13.8" fill="#7A3CE8" fill-opacity="0.66" stroke="#111" stroke-width="2.5"/>
<text x="1216.7" y="367.9" text-anchor="middle" font-family="Arial, Helvetica, sans-serif" font-size="21" font-weight="800" fill="white" stroke="#111" stroke-width="3" paint-order="stroke">51</text>
<circle cx="737.9" cy="418.7" r="17.0" fill="white" fill-opacity="0.84"/>
<circle cx="737.9" cy="418.7" r="14.0" fill="#7A3CE8" fill-opacity="0.66" stroke="#111" stroke-width="2.5"/>
<text x="737.9" y="425.7" text-anchor="middle" font-family="Arial, Helvetica, sans-serif" font-size="21" font-weight="800" fill="white" stroke="#111" stroke-width="3" paint-order="stroke">52</text>
<circle cx="1463.3" cy="235.3" r="17.7" fill="white" fill-opacity="0.84"/>
<circle cx="1463.3" cy="235.3" r="14.7" fill="#7A3CE8" fill-opacity="0.66" stroke="#111" stroke-width="2.5"/>
<text x="1463.3" y="242.3" text-anchor="middle" font-family="Arial, Helvetica, sans-serif" font-size="21" font-weight="800" fill="white" stroke="#111" stroke-width="3" paint-order="stroke">53</text>
<circle cx="682.0" cy="465.3" r="18.2" fill="white" fill-opacity="0.84"/>
<circle cx="682.0" cy="465.3" r="15.2" fill="#7A3CE8" fill-opacity="0.66" stroke="#111" stroke-width="2.5"/>
<text x="682.0" y="472.3" text-anchor="middle" font-family="Arial, Helvetica, sans-serif" font-size="21" font-weight="800" fill="white" stroke="#111" stroke-width="3" paint-order="stroke">54</text>
<circle cx="706.7" cy="568.5" r="17.0" fill="white" fill-opacity="0.84"/>
<circle cx="706.7" cy="568.5" r="14.0" fill="#7A3CE8" fill-opacity="0.66" stroke="#111" stroke-width="2.5"/>
<text x="706.7" y="575.5" text-anchor="middle" font-family="Arial, Helvetica, sans-serif" font-size="21" font-weight="800" fill="white" stroke="#111" stroke-width="3" paint-order="stroke">55</text>
<circle cx="1521.8" cy="302.7" r="14.9" fill="white" fill-opacity="0.84"/>
<circle cx="1521.8" cy="302.7" r="11.9" fill="#7A3CE8" fill-opacity="0.66" stroke="#111" stroke-width="2.5"/>
<text x="1521.8" y="309.7" text-anchor="middle" font-family="Arial, Helvetica, sans-serif" font-size="21" font-weight="800" fill="white" stroke="#111" stroke-width="3" paint-order="stroke">56</text>
<circle cx="1578.2" cy="163.1" r="13.5" fill="white" fill-opacity="0.84"/>
<circle cx="1578.2" cy="163.1" r="10.5" fill="#7A3CE8" fill-opacity="0.66" stroke="#111" stroke-width="2.5"/>
<text x="1578.2" y="170.1" text-anchor="middle" font-family="Arial, Helvetica, sans-serif" font-size="21" font-weight="800" fill="white" stroke="#111" stroke-width="3" paint-order="stroke">57</text>
<circle cx="1188.0" cy="243.4" r="15.7" fill="white" fill-opacity="0.84"/>
<circle cx="1188.0" cy="243.4" r="12.7" fill="#7A3CE8" fill-opacity="0.66" stroke="#111" stroke-width="2.5"/>
<text x="1188.0" y="250.4" text-anchor="middle" font-family="Arial, Helvetica, sans-serif" font-size="21" font-weight="800" fill="white" stroke="#111" stroke-width="3" paint-order="stroke">58</text>
<circle cx="734.4" cy="492.5" r="19.1" fill="white" fill-opacity="0.84"/>
<circle cx="734.4" cy="492.5" r="16.1" fill="#7A3CE8" fill-opacity="0.66" stroke="#111" stroke-width="2.5"/>
<text x="734.4" y="499.5" text-anchor="middle" font-family="Arial, Helvetica, sans-serif" font-size="21" font-weight="800" fill="white" stroke="#111" stroke-width="3" paint-order="stroke">59</text>
<circle cx="718.8" cy="546.8" r="17.3" fill="white" fill-opacity="0.84"/>
<circle cx="718.8" cy="546.8" r="14.3" fill="#7A3CE8" fill-opacity="0.66" stroke="#111" stroke-width="2.5"/>
<text x="718.8" y="553.8" text-anchor="middle" font-family="Arial, Helvetica, sans-serif" font-size="21" font-weight="800" fill="white" stroke="#111" stroke-width="3" paint-order="stroke">60</text>
<circle cx="1362.3" cy="374.6" r="17.3" fill="white" fill-opacity="0.84"/>
<circle cx="1362.3" cy="374.6" r="14.3" fill="#7A3CE8" fill-opacity="0.66" stroke="#111" stroke-width="2.5"/>
<text x="1362.3" y="381.6" text-anchor="middle" font-family="Arial, Helvetica, sans-serif" font-size="21" font-weight="800" fill="white" stroke="#111" stroke-width="3" paint-order="stroke">61</text>
<circle cx="1528.6" cy="119.2" r="17.6" fill="white" fill-opacity="0.84"/>
<circle cx="1528.6" cy="119.2" r="14.6" fill="#7A3CE8" fill-opacity="0.66" stroke="#111" stroke-width="2.5"/>
<text x="1528.6" y="126.2" text-anchor="middle" font-family="Arial, Helvetica, sans-serif" font-size="21" font-weight="800" fill="white" stroke="#111" stroke-width="3" paint-order="stroke">62</text>
<circle cx="737.9" cy="448.0" r="18.7" fill="white" fill-opacity="0.84"/>
<circle cx="737.9" cy="448.0" r="15.7" fill="#7A3CE8" fill-opacity="0.66" stroke="#111" stroke-width="2.5"/>
<text x="737.9" y="455.0" text-anchor="middle" font-family="Arial, Helvetica, sans-serif" font-size="21" font-weight="800" fill="white" stroke="#111" stroke-width="3" paint-order="stroke">63</text>
<circle cx="620.0" cy="69.6" r="18.8" fill="white" fill-opacity="0.84"/>
<circle cx="620.0" cy="69.6" r="15.8" fill="#7A3CE8" fill-opacity="0.66" stroke="#111" stroke-width="2.5"/>
<text x="620.0" y="76.6" text-anchor="middle" font-family="Arial, Helvetica, sans-serif" font-size="21" font-weight="800" fill="white" stroke="#111" stroke-width="3" paint-order="stroke">64</text>
<circle cx="727.7" cy="407.4" r="18.7" fill="white" fill-opacity="0.84"/>
<circle cx="727.7" cy="407.4" r="15.7" fill="#7A3CE8" fill-opacity="0.66" stroke="#111" stroke-width="2.5"/>
<text x="727.7" y="414.4" text-anchor="middle" font-family="Arial, Helvetica, sans-serif" font-size="21" font-weight="800" fill="white" stroke="#111" stroke-width="3" paint-order="stroke">65</text>
<circle cx="685.3" cy="521.8" r="17.3" fill="white" fill-opacity="0.84"/>
<circle cx="685.3" cy="521.8" r="14.3" fill="#7A3CE8" fill-opacity="0.66" stroke="#111" stroke-width="2.5"/>
<text x="685.3" y="528.8" text-anchor="middle" font-family="Arial, Helvetica, sans-serif" font-size="21" font-weight="800" fill="white" stroke="#111" stroke-width="3" paint-order="stroke">66</text>
<circle cx="1293.4" cy="312.1" r="17.0" fill="white" fill-opacity="0.84"/>
<circle cx="1293.4" cy="312.1" r="14.0" fill="#7A3CE8" fill-opacity="0.66" stroke="#111" stroke-width="2.5"/>
<text x="1293.4" y="319.1" text-anchor="middle" font-family="Arial, Helvetica, sans-serif" font-size="21" font-weight="800" fill="white" stroke="#111" stroke-width="3" paint-order="stroke">67</text>
<circle cx="1519.5" cy="118.2" r="20.8" fill="white" fill-opacity="0.84"/>
<circle cx="1519.5" cy="118.2" r="17.8" fill="#7A3CE8" fill-opacity="0.66" stroke="#111" stroke-width="2.5"/>
<text x="1519.5" y="125.2" text-anchor="middle" font-family="Arial, Helvetica, sans-serif" font-size="21" font-weight="800" fill="white" stroke="#111" stroke-width="3" paint-order="stroke">68</text>
<circle cx="745.7" cy="446.0" r="18.6" fill="white" fill-opacity="0.84"/>
<circle cx="745.7" cy="446.0" r="15.6" fill="#7A3CE8" fill-opacity="0.66" stroke="#111" stroke-width="2.5"/>
<text x="745.7" y="453.0" text-anchor="middle" font-family="Arial, Helvetica, sans-serif" font-size="21" font-weight="800" fill="white" stroke="#111" stroke-width="3" paint-order="stroke">69</text>
<circle cx="727.6" cy="415.0" r="18.3" fill="white" fill-opacity="0.84"/>
<circle cx="727.6" cy="415.0" r="15.3" fill="#7A3CE8" fill-opacity="0.66" stroke="#111" stroke-width="2.5"/>
<text x="727.6" y="422.0" text-anchor="middle" font-family="Arial, Helvetica, sans-serif" font-size="21" font-weight="800" fill="white" stroke="#111" stroke-width="3" paint-order="stroke">70</text>
<circle cx="1507.4" cy="219.6" r="15.9" fill="white" fill-opacity="0.84"/>
<circle cx="1507.4" cy="219.6" r="12.9" fill="#7A3CE8" fill-opacity="0.66" stroke="#111" stroke-width="2.5"/>
<text x="1507.4" y="226.6" text-anchor="middle" font-family="Arial, Helvetica, sans-serif" font-size="21" font-weight="800" fill="white" stroke="#111" stroke-width="3" paint-order="stroke">71</text>
<circle cx="1542.9" cy="134.8" r="16.6" fill="white" fill-opacity="0.84"/>
<circle cx="1542.9" cy="134.8" r="13.6" fill="#7A3CE8" fill-opacity="0.66" stroke="#111" stroke-width="2.5"/>
<text x="1542.9" y="141.8" text-anchor="middle" font-family="Arial, Helvetica, sans-serif" font-size="21" font-weight="800" fill="white" stroke="#111" stroke-width="3" paint-order="stroke">72</text>
<circle cx="673.1" cy="491.2" r="18.8" fill="white" fill-opacity="0.84"/>
<circle cx="673.1" cy="491.2" r="15.8" fill="#7A3CE8" fill-opacity="0.66" stroke="#111" stroke-width="2.5"/>
<text x="673.1" y="498.2" text-anchor="middle" font-family="Arial, Helvetica, sans-serif" font-size="21" font-weight="800" fill="white" stroke="#111" stroke-width="3" paint-order="stroke">73</text>
<circle cx="874.3" cy="292.4" r="17.1" fill="white" fill-opacity="0.84"/>
<circle cx="874.3" cy="292.4" r="14.1" fill="#7A3CE8" fill-opacity="0.66" stroke="#111" stroke-width="2.5"/>
<text x="874.3" y="299.4" text-anchor="middle" font-family="Arial, Helvetica, sans-serif" font-size="21" font-weight="800" fill="white" stroke="#111" stroke-width="3" paint-order="stroke">74</text>
<circle cx="712.3" cy="417.6" r="15.2" fill="white" fill-opacity="0.84"/>
<circle cx="712.3" cy="417.6" r="12.2" fill="#7A3CE8" fill-opacity="0.66" stroke="#111" stroke-width="2.5"/>
<text x="712.3" y="424.6" text-anchor="middle" font-family="Arial, Helvetica, sans-serif" font-size="21" font-weight="800" fill="white" stroke="#111" stroke-width="3" paint-order="stroke">75</text>
<circle cx="1478.2" cy="190.1" r="18.4" fill="white" fill-opacity="0.84"/>
<circle cx="1478.2" cy="190.1" r="15.4" fill="#7A3CE8" fill-opacity="0.66" stroke="#111" stroke-width="2.5"/>
<text x="1478.2" y="197.1" text-anchor="middle" font-family="Arial, Helvetica, sans-serif" font-size="21" font-weight="800" fill="white" stroke="#111" stroke-width="3" paint-order="stroke">76</text>
<circle cx="681.4" cy="451.4" r="14.2" fill="white" fill-opacity="0.84"/>
<circle cx="681.4" cy="451.4" r="11.2" fill="#7A3CE8" fill-opacity="0.66" stroke="#111" stroke-width="2.5"/>
<text x="681.4" y="458.4" text-anchor="middle" font-family="Arial, Helvetica, sans-serif" font-size="21" font-weight="800" fill="white" stroke="#111" stroke-width="3" paint-order="stroke">77</text>
<circle cx="821.7" cy="410.9" r="19.3" fill="white" fill-opacity="0.84"/>
<circle cx="821.7" cy="410.9" r="16.3" fill="#7A3CE8" fill-opacity="0.66" stroke="#111" stroke-width="2.5"/>
<text x="821.7" y="417.9" text-anchor="middle" font-family="Arial, Helvetica, sans-serif" font-size="21" font-weight="800" fill="white" stroke="#111" stroke-width="3" paint-order="stroke">78</text>
<circle cx="1521.3" cy="145.0" r="19.2" fill="white" fill-opacity="0.84"/>
<circle cx="1521.3" cy="145.0" r="16.2" fill="#7A3CE8" fill-opacity="0.66" stroke="#111" stroke-width="2.5"/>
<text x="1521.3" y="152.0" text-anchor="middle" font-family="Arial, Helvetica, sans-serif" font-size="21" font-weight="800" fill="white" stroke="#111" stroke-width="3" paint-order="stroke">79</text>
<circle cx="702.5" cy="450.4" r="23.6" fill="white" fill-opacity="0.84"/>
<circle cx="702.5" cy="450.4" r="20.6" fill="#7A3CE8" fill-opacity="0.66" stroke="#111" stroke-width="2.5"/>
<text x="702.5" y="457.4" text-anchor="middle" font-family="Arial, Helvetica, sans-serif" font-size="21" font-weight="800" fill="white" stroke="#111" stroke-width="3" paint-order="stroke">80</text>
<circle cx="1043.2" cy="370.4" r="18.1" fill="white" fill-opacity="0.84"/>
<circle cx="1043.2" cy="370.4" r="15.1" fill="#7A3CE8" fill-opacity="0.66" stroke="#111" stroke-width="2.5"/>
<text x="1043.2" y="377.4" text-anchor="middle" font-family="Arial, Helvetica, sans-serif" font-size="21" font-weight="800" fill="white" stroke="#111" stroke-width="3" paint-order="stroke">81</text>
<circle cx="674.8" cy="480.2" r="13.4" fill="white" fill-opacity="0.84"/>
<circle cx="674.8" cy="480.2" r="10.4" fill="#7A3CE8" fill-opacity="0.66" stroke="#111" stroke-width="2.5"/>
<text x="674.8" y="487.2" text-anchor="middle" font-family="Arial, Helvetica, sans-serif" font-size="21" font-weight="800" fill="white" stroke="#111" stroke-width="3" paint-order="stroke">82</text>
<rect x="16" y="1094" width="1120" height="168" rx="8" fill="white" fill-opacity="0.92" stroke="#111" stroke-opacity="0.22"/>
<text x="36.0" y="1128.0" font-family="Arial, Helvetica, sans-serif" font-size="24" font-weight="600" fill="#111">K15 / k15.asc block 18 | open-1-1-r.png | RT NA ms | 82 fixations</text>
<text x="36.0" y="1159.0" font-family="Arial, Helvetica, sans-serif" font-size="24" font-weight="600" fill="#111">numbers show fixation order; dot size shows fixation duration</text>
<circle cx="42" cy="1198" r="11" fill="#005DFF" fill-opacity="0.64" stroke="#111" stroke-width="2"/>
<text x="62.0" y="1206.0" font-family="Arial, Helvetica, sans-serif" font-size="22" font-weight="500" fill="#111">blue: before speech onset</text>
<circle cx="42" cy="1232" r="11" fill="#FF8A00" fill-opacity="0.64" stroke="#111" stroke-width="2"/>
<text x="62.0" y="1240.0" font-family="Arial, Helvetica, sans-serif" font-size="22" font-weight="500" fill="#111">orange: first 2000 ms after onset</text>
</svg>
