<svg xmlns="http://www.w3.org/2000/svg" width="1920" height="1320" viewBox="0 0 1920 1320">
<image href="../../../../stimuli/Animate-animate%20centered%20and%20flipped/push-1-1-r.png" x="0" y="0" width="1920" height="1080" preserveAspectRatio="none"/>
<rect x="0" y="0" width="1920" height="1080" fill="none" stroke="#111" stroke-width="2"/>
<rect x="0" y="1080" width="1920" height="240" fill="#f7f7f7"/>
<rect x="970.0" y="100.0" width="850" height="850" fill="none" stroke="#00B8D9" stroke-width="6" stroke-dasharray="18 12"/>
<rect x="982.0" y="62.0" width="102.0" height="38" rx="6" fill="white" fill-opacity="0.86" stroke="#00B8D9" stroke-width="3"/>
<text x="992.0" y="88.0" font-family="Arial, Helvetica, sans-serif" font-size="24" font-weight="700" fill="#111">AGENT</text>
<rect x="40.0" y="100.0" width="850" height="850" fill="none" stroke="#FF3B8A" stroke-width="6" stroke-dasharray="18 12"/>
<rect x="52.0" y="62.0" width="134.0" height="38" rx="6" fill="white" fill-opacity="0.86" stroke="#FF3B8A" stroke-width="3"/>
<text x="62.0" y="88.0" font-family="Arial, Helvetica, sans-serif" font-size="24" font-weight="700" fill="#111">PATIENT</text>
<polyline points="705.9,453.5 1377.6,474.1 1247.8,450.9 823.7,663.0 776.1,698.4 1197.7,460.5 1311.5,435.1 753.4,389.8 1249.6,430.7 1403.4,392.5 1296.3,431.0 1260.8,437.3 1296.2,459.0 1317.5,408.5 890.8,624.4 781.3,385.7 1156.0,513.4 737.0,444.0 783.4,398.7 732.3,416.6 769.6,489.2 705.0,520.4 720.4,490.0 718.7,491.2 723.1,499.5 580.3,665.2 671.9,483.5 730.3,474.8 706.3,469.2 694.4,450.2 372.4,460.5 670.9,543.7 731.8,519.4 731.7,558.1 694.8,514.1 756.8,501.1 687.0,513.0 729.8,483.4 695.6,556.0 803.6,528.5 735.3,397.8 701.5,548.1 754.9,529.6 713.1,523.3 723.0,527.6 670.9,417.7 698.2,389.9 810.9,507.5" fill="none" stroke="#111" stroke-width="4" stroke-opacity="0.36" stroke-linejoin="round"/>
<circle cx="705.9" cy="453.5" r="18.0" fill="white" fill-opacity="0.84"/>
<circle cx="705.9" cy="453.5" r="15.0" fill="#7A3CE8" fill-opacity="0.66" stroke="#111" stroke-width="2.5"/>
<text x="705.9" y="460.5" text-anchor="middle" font-family="Arial, Helvetica, sans-serif" font-size="21" font-weight="800" fill="white" stroke="#111" stroke-width="3" paint-order="stroke">1</text>
<circle cx="1377.6" cy="474.1" r="16.9" fill="white" fill-opacity="0.84"/>
<circle cx="1377.6" cy="474.1" r="13.9" fill="#7A3CE8" fill-opacity="0.66" stroke="#111" stroke-width="2.5"/>
<text x="1377.6" y="481.1" text-anchor="middle" font-family="Arial, Helvetica, sans-serif" font-size="21" font-weight="800" fill="white" stroke="#111" stroke-width="3" paint-order="stroke">2</text>
<circle cx="1247.8" cy="450.9" r="20.0" fill="white" fill-opacity="0.84"/>
<circle cx="1247.8" cy="450.9" r="17.0" fill="#7A3CE8" fill-opacity="0.66" stroke="#111" stroke-width="2.5"/>
<text x="1247.8" y="457.9" text-anchor="middle" font-family="Arial, Helvetica, sans-serif" font-size="21" font-weight="800" fill="white" stroke="#111" stroke-width="3" paint-order="stroke">3</text>
<circle cx="823.7" cy="663.0" r="17.4" fill="white" fill-opacity="0.84"/>
<circle cx="823.7" cy="663.0" r="14.4" fill="#7A3CE8" fill-opacity="0.66" stroke="#111" stroke-width="2.5"/>
<text x="823.7" y="670.0" text-anchor="middle" font-family="Arial, Helvetica, sans-serif" font-size="21" font-weight="800" fill="white" stroke="#111" stroke-width="3" paint-order="stroke">4</text>
<circle cx="776.1" cy="698.4" r="17.7" fill="white" fill-opacity="0.84"/>
<circle cx="776.1" cy="698.4" r="14.7" fill="#7A3CE8" fill-opacity="0.66" stroke="#111" stroke-width="2.5"/>
<text x="776.1" y="705.4" text-anchor="middle" font-family="Arial, Helvetica, sans-serif" font-size="21" font-weight="800" fill="white" stroke="#111" stroke-width="3" paint-order="stroke">5</text>
<circle cx="1197.7" cy="460.5" r="19.0" fill="white" fill-opacity="0.84"/>
<circle cx="1197.7" cy="460.5" r="16.0" fill="#7A3CE8" fill-opacity="0.66" stroke="#111" stroke-width="2.5"/>
<text x="1197.7" y="467.5" text-anchor="middle" font-family="Arial, Helvetica, sans-serif" font-size="21" font-weight="800" fill="white" stroke="#111" stroke-width="3" paint-order="stroke">6</text>
<circle cx="1311.5" cy="435.1" r="15.3" fill="white" fill-opacity="0.84"/>
<circle cx="1311.5" cy="435.1" r="12.3" fill="#7A3CE8" fill-opacity="0.66" stroke="#111" stroke-width="2.5"/>
<text x="1311.5" y="442.1" text-anchor="middle" font-family="Arial, Helvetica, sans-serif" font-size="21" font-weight="800" fill="white" stroke="#111" stroke-width="3" paint-order="stroke">7</text>
<circle cx="753.4" cy="389.8" r="18.0" fill="white" fill-opacity="0.84"/>
<circle cx="753.4" cy="389.8" r="15.0" fill="#7A3CE8" fill-opacity="0.66" stroke="#111" stroke-width="2.5"/>
<text x="753.4" y="396.8" text-anchor="middle" font-family="Arial, Helvetica, sans-serif" font-size="21" font-weight="800" fill="white" stroke="#111" stroke-width="3" paint-order="stroke">8</text>
<circle cx="1249.6" cy="430.7" r="14.2" fill="white" fill-opacity="0.84"/>
<circle cx="1249.6" cy="430.7" r="11.2" fill="#7A3CE8" fill-opacity="0.66" stroke="#111" stroke-width="2.5"/>
<text x="1249.6" y="437.7" text-anchor="middle" font-family="Arial, Helvetica, sans-serif" font-size="21" font-weight="800" fill="white" stroke="#111" stroke-width="3" paint-order="stroke">9</text>
<circle cx="1403.4" cy="392.5" r="16.3" fill="white" fill-opacity="0.84"/>
<circle cx="1403.4" cy="392.5" r="13.3" fill="#7A3CE8" fill-opacity="0.66" stroke="#111" stroke-width="2.5"/>
<text x="1403.4" y="399.5" text-anchor="middle" font-family="Arial, Helvetica, sans-serif" font-size="21" font-weight="800" fill="white" stroke="#111" stroke-width="3" paint-order="stroke">10</text>
<circle cx="1296.3" cy="431.0" r="19.1" fill="white" fill-opacity="0.84"/>
<circle cx="1296.3" cy="431.0" r="16.1" fill="#7A3CE8" fill-opacity="0.66" stroke="#111" stroke-width="2.5"/>
<text x="1296.3" y="438.0" text-anchor="middle" font-family="Arial, Helvetica, sans-serif" font-size="21" font-weight="800" fill="white" stroke="#111" stroke-width="3" paint-order="stroke">11</text>
<circle cx="1260.8" cy="437.3" r="14.1" fill="white" fill-opacity="0.84"/>
<circle cx="1260.8" cy="437.3" r="11.1" fill="#7A3CE8" fill-opacity="0.66" stroke="#111" stroke-width="2.5"/>
<text x="1260.8" y="444.3" text-anchor="middle" font-family="Arial, Helvetica, sans-serif" font-size="21" font-weight="800" fill="white" stroke="#111" stroke-width="3" paint-order="stroke">12</text>
<circle cx="1296.2" cy="459.0" r="18.8" fill="white" fill-opacity="0.84"/>
<circle cx="1296.2" cy="459.0" r="15.8" fill="#7A3CE8" fill-opacity="0.66" stroke="#111" stroke-width="2.5"/>
<text x="1296.2" y="466.0" text-anchor="middle" font-family="Arial, Helvetica, sans-serif" font-size="21" font-weight="800" fill="white" stroke="#111" stroke-width="3" paint-order="stroke">13</text>
<circle cx="1317.5" cy="408.5" r="17.6" fill="white" fill-opacity="0.84"/>
<circle cx="1317.5" cy="408.5" r="14.6" fill="#7A3CE8" fill-opacity="0.66" stroke="#111" stroke-width="2.5"/>
<text x="1317.5" y="415.5" text-anchor="middle" font-family="Arial, Helvetica, sans-serif" font-size="21" font-weight="800" fill="white" stroke="#111" stroke-width="3" paint-order="stroke">14</text>
<circle cx="890.8" cy="624.4" r="17.9" fill="white" fill-opacity="0.84"/>
<circle cx="890.8" cy="624.4" r="14.9" fill="#7A3CE8" fill-opacity="0.66" stroke="#111" stroke-width="2.5"/>
<text x="890.8" y="631.4" text-anchor="middle" font-family="Arial, Helvetica, sans-serif" font-size="21" font-weight="800" fill="white" stroke="#111" stroke-width="3" paint-order="stroke">15</text>
<circle cx="781.3" cy="385.7" r="18.2" fill="white" fill-opacity="0.84"/>
<circle cx="781.3" cy="385.7" r="15.2" fill="#7A3CE8" fill-opacity="0.66" stroke="#111" stroke-width="2.5"/>
<text x="781.3" y="392.7" text-anchor="middle" font-family="Arial, Helvetica, sans-serif" font-size="21" font-weight="800" fill="white" stroke="#111" stroke-width="3" paint-order="stroke">16</text>
<circle cx="1156.0" cy="513.4" r="17.9" fill="white" fill-opacity="0.84"/>
<circle cx="1156.0" cy="513.4" r="14.9" fill="#7A3CE8" fill-opacity="0.66" stroke="#111" stroke-width="2.5"/>
<text x="1156.0" y="520.4" text-anchor="middle" font-family="Arial, Helvetica, sans-serif" font-size="21" font-weight="800" fill="white" stroke="#111" stroke-width="3" paint-order="stroke">17</text>
<circle cx="737.0" cy="444.0" r="18.7" fill="white" fill-opacity="0.84"/>
<circle cx="737.0" cy="444.0" r="15.7" fill="#7A3CE8" fill-opacity="0.66" stroke="#111" stroke-width="2.5"/>
<text x="737.0" y="451.0" text-anchor="middle" font-family="Arial, Helvetica, sans-serif" font-size="21" font-weight="800" fill="white" stroke="#111" stroke-width="3" paint-order="stroke">18</text>
<circle cx="783.4" cy="398.7" r="17.2" fill="white" fill-opacity="0.84"/>
<circle cx="783.4" cy="398.7" r="14.2" fill="#7A3CE8" fill-opacity="0.66" stroke="#111" stroke-width="2.5"/>
<text x="783.4" y="405.7" text-anchor="middle" font-family="Arial, Helvetica, sans-serif" font-size="21" font-weight="800" fill="white" stroke="#111" stroke-width="3" paint-order="stroke">19</text>
<circle cx="732.3" cy="416.6" r="19.9" fill="white" fill-opacity="0.84"/>
<circle cx="732.3" cy="416.6" r="16.9" fill="#7A3CE8" fill-opacity="0.66" stroke="#111" stroke-width="2.5"/>
<text x="732.3" y="423.6" text-anchor="middle" font-family="Arial, Helvetica, sans-serif" font-size="21" font-weight="800" fill="white" stroke="#111" stroke-width="3" paint-order="stroke">20</text>
<circle cx="769.6" cy="489.2" r="16.9" fill="white" fill-opacity="0.84"/>
<circle cx="769.6" cy="489.2" r="13.9" fill="#7A3CE8" fill-opacity="0.66" stroke="#111" stroke-width="2.5"/>
<text x="769.6" y="496.2" text-anchor="middle" font-family="Arial, Helvetica, sans-serif" font-size="21" font-weight="800" fill="white" stroke="#111" stroke-width="3" paint-order="stroke">21</text>
<circle cx="705.0" cy="520.4" r="19.6" fill="white" fill-opacity="0.84"/>
<circle cx="705.0" cy="520.4" r="16.6" fill="#7A3CE8" fill-opacity="0.66" stroke="#111" stroke-width="2.5"/>
<text x="705.0" y="527.4" text-anchor="middle" font-family="Arial, Helvetica, sans-serif" font-size="21" font-weight="800" fill="white" stroke="#111" stroke-width="3" paint-order="stroke">22</text>
<circle cx="720.4" cy="490.0" r="18.1" fill="white" fill-opacity="0.84"/>
<circle cx="720.4" cy="490.0" r="15.1" fill="#7A3CE8" fill-opacity="0.66" stroke="#111" stroke-width="2.5"/>
<text x="720.4" y="497.0" text-anchor="middle" font-family="Arial, Helvetica, sans-serif" font-size="21" font-weight="800" fill="white" stroke="#111" stroke-width="3" paint-order="stroke">23</text>
<circle cx="718.7" cy="491.2" r="17.6" fill="white" fill-opacity="0.84"/>
<circle cx="718.7" cy="491.2" r="14.6" fill="#7A3CE8" fill-opacity="0.66" stroke="#111" stroke-width="2.5"/>
<text x="718.7" y="498.2" text-anchor="middle" font-family="Arial, Helvetica, sans-serif" font-size="21" font-weight="800" fill="white" stroke="#111" stroke-width="3" paint-order="stroke">24</text>
<circle cx="723.1" cy="499.5" r="19.3" fill="white" fill-opacity="0.84"/>
<circle cx="723.1" cy="499.5" r="16.3" fill="#7A3CE8" fill-opacity="0.66" stroke="#111" stroke-width="2.5"/>
<text x="723.1" y="506.5" text-anchor="middle" font-family="Arial, Helvetica, sans-serif" font-size="21" font-weight="800" fill="white" stroke="#111" stroke-width="3" paint-order="stroke">25</text>
<circle cx="580.3" cy="665.2" r="15.4" fill="white" fill-opacity="0.84"/>
<circle cx="580.3" cy="665.2" r="12.4" fill="#7A3CE8" fill-opacity="0.66" stroke="#111" stroke-width="2.5"/>
<text x="580.3" y="672.2" text-anchor="middle" font-family="Arial, Helvetica, sans-serif" font-size="21" font-weight="800" fill="white" stroke="#111" stroke-width="3" paint-order="stroke">26</text>
<circle cx="671.9" cy="483.5" r="19.4" fill="white" fill-opacity="0.84"/>
<circle cx="671.9" cy="483.5" r="16.4" fill="#7A3CE8" fill-opacity="0.66" stroke="#111" stroke-width="2.5"/>
<text x="671.9" y="490.5" text-anchor="middle" font-family="Arial, Helvetica, sans-serif" font-size="21" font-weight="800" fill="white" stroke="#111" stroke-width="3" paint-order="stroke">27</text>
<circle cx="730.3" cy="474.8" r="16.3" fill="white" fill-opacity="0.84"/>
<circle cx="730.3" cy="474.8" r="13.3" fill="#7A3CE8" fill-opacity="0.66" stroke="#111" stroke-width="2.5"/>
<text x="730.3" y="481.8" text-anchor="middle" font-family="Arial, Helvetica, sans-serif" font-size="21" font-weight="800" fill="white" stroke="#111" stroke-width="3" paint-order="stroke">28</text>
<circle cx="706.3" cy="469.2" r="21.4" fill="white" fill-opacity="0.84"/>
<circle cx="706.3" cy="469.2" r="18.4" fill="#7A3CE8" fill-opacity="0.66" stroke="#111" stroke-width="2.5"/>
<text x="706.3" y="476.2" text-anchor="middle" font-family="Arial, Helvetica, sans-serif" font-size="21" font-weight="800" fill="white" stroke="#111" stroke-width="3" paint-order="stroke">29</text>
<circle cx="694.4" cy="450.2" r="28.6" fill="white" fill-opacity="0.84"/>
<circle cx="694.4" cy="450.2" r="25.6" fill="#7A3CE8" fill-opacity="0.66" stroke="#111" stroke-width="2.5"/>
<text x="694.4" y="457.2" text-anchor="middle" font-family="Arial, Helvetica, sans-serif" font-size="21" font-weight="800" fill="white" stroke="#111" stroke-width="3" paint-order="stroke">30</text>
<circle cx="372.4" cy="460.5" r="16.7" fill="white" fill-opacity="0.84"/>
<circle cx="372.4" cy="460.5" r="13.7" fill="#7A3CE8" fill-opacity="0.66" stroke="#111" stroke-width="2.5"/>
<text x="372.4" y="467.5" text-anchor="middle" font-family="Arial, Helvetica, sans-serif" font-size="21" font-weight="800" fill="white" stroke="#111" stroke-width="3" paint-order="stroke">31</text>
<circle cx="670.9" cy="543.7" r="19.8" fill="white" fill-opacity="0.84"/>
<circle cx="670.9" cy="543.7" r="16.8" fill="#7A3CE8" fill-opacity="0.66" stroke="#111" stroke-width="2.5"/>
<text x="670.9" y="550.7" text-anchor="middle" font-family="Arial, Helvetica, sans-serif" font-size="21" font-weight="800" fill="white" stroke="#111" stroke-width="3" paint-order="stroke">32</text>
<circle cx="731.8" cy="519.4" r="12.1" fill="white" fill-opacity="0.84"/>
<circle cx="731.8" cy="519.4" r="9.1" fill="#7A3CE8" fill-opacity="0.66" stroke="#111" stroke-width="2.5"/>
<text x="731.8" y="526.4" text-anchor="middle" font-family="Arial, Helvetica, sans-serif" font-size="21" font-weight="800" fill="white" stroke="#111" stroke-width="3" paint-order="stroke">33</text>
<circle cx="731.7" cy="558.1" r="20.9" fill="white" fill-opacity="0.84"/>
<circle cx="731.7" cy="558.1" r="17.9" fill="#7A3CE8" fill-opacity="0.66" stroke="#111" stroke-width="2.5"/>
<text x="731.7" y="565.1" text-anchor="middle" font-family="Arial, Helvetica, sans-serif" font-size="21" font-weight="800" fill="white" stroke="#111" stroke-width="3" paint-order="stroke">34</text>
<circle cx="694.8" cy="514.1" r="13.3" fill="white" fill-opacity="0.84"/>
<circle cx="694.8" cy="514.1" r="10.3" fill="#7A3CE8" fill-opacity="0.66" stroke="#111" stroke-width="2.5"/>
<text x="694.8" y="521.1" text-anchor="middle" font-family="Arial, Helvetica, sans-serif" font-size="21" font-weight="800" fill="white" stroke="#111" stroke-width="3" paint-order="stroke">35</text>
<circle cx="756.8" cy="501.1" r="20.9" fill="white" fill-opacity="0.84"/>
<circle cx="756.8" cy="501.1" r="17.9" fill="#7A3CE8" fill-opacity="0.66" stroke="#111" stroke-width="2.5"/>
<text x="756.8" y="508.1" text-anchor="middle" font-family="Arial, Helvetica, sans-serif" font-size="21" font-weight="800" fill="white" stroke="#111" stroke-width="3" paint-order="stroke">36</text>
<circle cx="687.0" cy="513.0" r="17.6" fill="white" fill-opacity="0.84"/>
<circle cx="687.0" cy="513.0" r="14.6" fill="#7A3CE8" fill-opacity="0.66" stroke="#111" stroke-width="2.5"/>
<text x="687.0" y="520.0" text-anchor="middle" font-family="Arial, Helvetica, sans-serif" font-size="21" font-weight="800" fill="white" stroke="#111" stroke-width="3" paint-order="stroke">37</text>
<circle cx="729.8" cy="483.4" r="20.0" fill="white" fill-opacity="0.84"/>
<circle cx="729.8" cy="483.4" r="17.0" fill="#7A3CE8" fill-opacity="0.66" stroke="#111" stroke-width="2.5"/>
<text x="729.8" y="490.4" text-anchor="middle" font-family="Arial, Helvetica, sans-serif" font-size="21" font-weight="800" fill="white" stroke="#111" stroke-width="3" paint-order="stroke">38</text>
<circle cx="695.6" cy="556.0" r="21.1" fill="white" fill-opacity="0.84"/>
<circle cx="695.6" cy="556.0" r="18.1" fill="#7A3CE8" fill-opacity="0.66" stroke="#111" stroke-width="2.5"/>
<text x="695.6" y="563.0" text-anchor="middle" font-family="Arial, Helvetica, sans-serif" font-size="21" font-weight="800" fill="white" stroke="#111" stroke-width="3" paint-order="stroke">39</text>
<circle cx="803.6" cy="528.5" r="18.2" fill="white" fill-opacity="0.84"/>
<circle cx="803.6" cy="528.5" r="15.2" fill="#7A3CE8" fill-opacity="0.66" stroke="#111" stroke-width="2.5"/>
<text x="803.6" y="535.5" text-anchor="middle" font-family="Arial, Helvetica, sans-serif" font-size="21" font-weight="800" fill="white" stroke="#111" stroke-width="3" paint-order="stroke">40</text>
<circle cx="735.3" cy="397.8" r="21.4" fill="white" fill-opacity="0.84"/>
<circle cx="735.3" cy="397.8" r="18.4" fill="#7A3CE8" fill-opacity="0.66" stroke="#111" stroke-width="2.5"/>
<text x="735.3" y="404.8" text-anchor="middle" font-family="Arial, Helvetica, sans-serif" font-size="21" font-weight="800" fill="white" stroke="#111" stroke-width="3" paint-order="stroke">41</text>
<circle cx="701.5" cy="548.1" r="19.7" fill="white" fill-opacity="0.84"/>
<circle cx="701.5" cy="548.1" r="16.7" fill="#7A3CE8" fill-opacity="0.66" stroke="#111" stroke-width="2.5"/>
<text x="701.5" y="555.1" text-anchor="middle" font-family="Arial, Helvetica, sans-serif" font-size="21" font-weight="800" fill="white" stroke="#111" stroke-width="3" paint-order="stroke">42</text>
<circle cx="754.9" cy="529.6" r="17.8" fill="white" fill-opacity="0.84"/>
<circle cx="754.9" cy="529.6" r="14.8" fill="#7A3CE8" fill-opacity="0.66" stroke="#111" stroke-width="2.5"/>
<text x="754.9" y="536.6" text-anchor="middle" font-family="Arial, Helvetica, sans-serif" font-size="21" font-weight="800" fill="white" stroke="#111" stroke-width="3" paint-order="stroke">43</text>
<circle cx="713.1" cy="523.3" r="14.6" fill="white" fill-opacity="0.84"/>
<circle cx="713.1" cy="523.3" r="11.6" fill="#7A3CE8" fill-opacity="0.66" stroke="#111" stroke-width="2.5"/>
<text x="713.1" y="530.3" text-anchor="middle" font-family="Arial, Helvetica, sans-serif" font-size="21" font-weight="800" fill="white" stroke="#111" stroke-width="3" paint-order="stroke">44</text>
<circle cx="723.0" cy="527.6" r="20.7" fill="white" fill-opacity="0.84"/>
<circle cx="723.0" cy="527.6" r="17.7" fill="#7A3CE8" fill-opacity="0.66" stroke="#111" stroke-width="2.5"/>
<text x="723.0" y="534.6" text-anchor="middle" font-family="Arial, Helvetica, sans-serif" font-size="21" font-weight="800" fill="white" stroke="#111" stroke-width="3" paint-order="stroke">45</text>
<circle cx="670.9" cy="417.7" r="19.9" fill="white" fill-opacity="0.84"/>
<circle cx="670.9" cy="417.7" r="16.9" fill="#7A3CE8" fill-opacity="0.66" stroke="#111" stroke-width="2.5"/>
<text x="670.9" y="424.7" text-anchor="middle" font-family="Arial, Helvetica, sans-serif" font-size="21" font-weight="800" fill="white" stroke="#111" stroke-width="3" paint-order="stroke">46</text>
<circle cx="698.2" cy="389.9" r="17.0" fill="white" fill-opacity="0.84"/>
<circle cx="698.2" cy="389.9" r="14.0" fill="#7A3CE8" fill-opacity="0.66" stroke="#111" stroke-width="2.5"/>
<text x="698.2" y="396.9" text-anchor="middle" font-family="Arial, Helvetica, sans-serif" font-size="21" font-weight="800" fill="white" stroke="#111" stroke-width="3" paint-order="stroke">47</text>
<circle cx="810.9" cy="507.5" r="15.3" fill="white" fill-opacity="0.84"/>
<circle cx="810.9" cy="507.5" r="12.3" fill="#7A3CE8" fill-opacity="0.66" stroke="#111" stroke-width="2.5"/>
<text x="810.9" y="514.5" text-anchor="middle" font-family="Arial, Helvetica, sans-serif" font-size="21" font-weight="800" fill="white" stroke="#111" stroke-width="3" paint-order="stroke">48</text>
<rect x="16" y="1094" width="1120" height="168" rx="8" fill="white" fill-opacity="0.92" stroke="#111" stroke-opacity="0.22"/>
<text x="36.0" y="1128.0" font-family="Arial, Helvetica, sans-serif" font-size="24" font-weight="600" fill="#111">K15 / k15_2.asc block 38 | push-1-1-r.png | RT NA ms | 48 fixations</text>
<text x="36.0" y="1159.0" font-family="Arial, Helvetica, sans-serif" font-size="24" font-weight="600" fill="#111">numbers show fixation order; dot size shows fixation duration</text>
<circle cx="42" cy="1198" r="11" fill="#005DFF" fill-opacity="0.64" stroke="#111" stroke-width="2"/>
<text x="62.0" y="1206.0" font-family="Arial, Helvetica, sans-serif" font-size="22" font-weight="500" fill="#111">blue: before speech onset</text>
<circle cx="42" cy="1232" r="11" fill="#FF8A00" fill-opacity="0.64" stroke="#111" stroke-width="2"/>
<text x="62.0" y="1240.0" font-family="Arial, Helvetica, sans-serif" font-size="22" font-weight="500" fill="#111">orange: first 2000 ms after onset</text>
</svg>
