<svg xmlns="http://www.w3.org/2000/svg" width="1920" height="1320" viewBox="0 0 1920 1320">
<image href="https://raw.githubusercontent.com/mkurg/koryak/main/stimuli/Koryak%20stimuli%20animate%20inanimate/clean-2-1-l.png" x="0" y="0" width="1920" height="1080" preserveAspectRatio="none"/>
<rect x="0" y="0" width="1920" height="1080" fill="none" stroke="#111" stroke-width="2"/>
<rect x="0" y="1080" width="1920" height="240" fill="#f7f7f7"/>
<rect x="40.0" y="100.0" width="850" height="850" fill="none" stroke="#00B8D9" stroke-width="6" stroke-dasharray="18 12"/>
<rect x="52.0" y="62.0" width="102.0" height="38" rx="6" fill="white" fill-opacity="0.86" stroke="#00B8D9" stroke-width="3"/>
<text x="62.0" y="88.0" font-family="Arial, Helvetica, sans-serif" font-size="24" font-weight="700" fill="#111">AGENT</text>
<rect x="970.0" y="100.0" width="850" height="850" fill="none" stroke="#FF3B8A" stroke-width="6" stroke-dasharray="18 12"/>
<rect x="982.0" y="62.0" width="134.0" height="38" rx="6" fill="white" fill-opacity="0.86" stroke="#FF3B8A" stroke-width="3"/>
<text x="992.0" y="88.0" font-family="Arial, Helvetica, sans-serif" font-size="24" font-weight="700" fill="#111">PATIENT</text>
<polyline points="946.3,311.0 954.6,470.8 1112.4,375.2 819.8,365.7 738.1,354.1 674.2,322.9 479.0,362.3 263.8,317.8 465.5,337.3 668.2,341.1 1193.3,489.1 520.7,329.4 573.7,423.2 1160.4,462.7 644.1,285.0 700.5,329.5 1158.6,384.8 484.6,336.6 446.1,342.4 622.4,318.7 682.7,345.1 858.8,409.3 1168.3,284.8 1159.6,411.8 1192.9,477.9" fill="none" stroke="#111" stroke-width="4" stroke-opacity="0.36" stroke-linejoin="round"/>
<circle cx="946.3" cy="311.0" r="11.5" fill="white" fill-opacity="0.84"/>
<circle cx="946.3" cy="311.0" r="8.5" fill="#005DFF" fill-opacity="0.66" stroke="#111" stroke-width="2.5"/>
<text x="946.3" y="318.0" text-anchor="middle" font-family="Arial, Helvetica, sans-serif" font-size="21" font-weight="800" fill="white" stroke="#111" stroke-width="3" paint-order="stroke">1</text>
<circle cx="954.6" cy="470.8" r="14.5" fill="white" fill-opacity="0.84"/>
<circle cx="954.6" cy="470.8" r="11.5" fill="#005DFF" fill-opacity="0.66" stroke="#111" stroke-width="2.5"/>
<text x="954.6" y="477.8" text-anchor="middle" font-family="Arial, Helvetica, sans-serif" font-size="21" font-weight="800" fill="white" stroke="#111" stroke-width="3" paint-order="stroke">2</text>
<circle cx="1112.4" cy="375.2" r="18.9" fill="white" fill-opacity="0.84"/>
<circle cx="1112.4" cy="375.2" r="15.9" fill="#005DFF" fill-opacity="0.66" stroke="#111" stroke-width="2.5"/>
<text x="1112.4" y="382.2" text-anchor="middle" font-family="Arial, Helvetica, sans-serif" font-size="21" font-weight="800" fill="white" stroke="#111" stroke-width="3" paint-order="stroke">3</text>
<circle cx="819.8" cy="365.7" r="18.3" fill="white" fill-opacity="0.84"/>
<circle cx="819.8" cy="365.7" r="15.3" fill="#005DFF" fill-opacity="0.66" stroke="#111" stroke-width="2.5"/>
<text x="819.8" y="372.7" text-anchor="middle" font-family="Arial, Helvetica, sans-serif" font-size="21" font-weight="800" fill="white" stroke="#111" stroke-width="3" paint-order="stroke">4</text>
<circle cx="738.1" cy="354.1" r="17.6" fill="white" fill-opacity="0.84"/>
<circle cx="738.1" cy="354.1" r="14.6" fill="#005DFF" fill-opacity="0.66" stroke="#111" stroke-width="2.5"/>
<text x="738.1" y="361.1" text-anchor="middle" font-family="Arial, Helvetica, sans-serif" font-size="21" font-weight="800" fill="white" stroke="#111" stroke-width="3" paint-order="stroke">5</text>
<circle cx="674.2" cy="322.9" r="21.5" fill="white" fill-opacity="0.84"/>
<circle cx="674.2" cy="322.9" r="18.5" fill="#005DFF" fill-opacity="0.66" stroke="#111" stroke-width="2.5"/>
<text x="674.2" y="329.9" text-anchor="middle" font-family="Arial, Helvetica, sans-serif" font-size="21" font-weight="800" fill="white" stroke="#111" stroke-width="3" paint-order="stroke">6</text>
<circle cx="479.0" cy="362.3" r="19.7" fill="white" fill-opacity="0.84"/>
<circle cx="479.0" cy="362.3" r="16.7" fill="#005DFF" fill-opacity="0.66" stroke="#111" stroke-width="2.5"/>
<text x="479.0" y="369.3" text-anchor="middle" font-family="Arial, Helvetica, sans-serif" font-size="21" font-weight="800" fill="white" stroke="#111" stroke-width="3" paint-order="stroke">7</text>
<circle cx="263.8" cy="317.8" r="16.9" fill="white" fill-opacity="0.84"/>
<circle cx="263.8" cy="317.8" r="13.9" fill="#005DFF" fill-opacity="0.66" stroke="#111" stroke-width="2.5"/>
<text x="263.8" y="324.8" text-anchor="middle" font-family="Arial, Helvetica, sans-serif" font-size="21" font-weight="800" fill="white" stroke="#111" stroke-width="3" paint-order="stroke">8</text>
<circle cx="465.5" cy="337.3" r="18.0" fill="white" fill-opacity="0.84"/>
<circle cx="465.5" cy="337.3" r="15.0" fill="#005DFF" fill-opacity="0.66" stroke="#111" stroke-width="2.5"/>
<text x="465.5" y="344.3" text-anchor="middle" font-family="Arial, Helvetica, sans-serif" font-size="21" font-weight="800" fill="white" stroke="#111" stroke-width="3" paint-order="stroke">9</text>
<circle cx="668.2" cy="341.1" r="20.4" fill="white" fill-opacity="0.84"/>
<circle cx="668.2" cy="341.1" r="17.4" fill="#005DFF" fill-opacity="0.66" stroke="#111" stroke-width="2.5"/>
<text x="668.2" y="348.1" text-anchor="middle" font-family="Arial, Helvetica, sans-serif" font-size="21" font-weight="800" fill="white" stroke="#111" stroke-width="3" paint-order="stroke">10</text>
<circle cx="1193.3" cy="489.1" r="18.0" fill="white" fill-opacity="0.84"/>
<circle cx="1193.3" cy="489.1" r="15.0" fill="#005DFF" fill-opacity="0.66" stroke="#111" stroke-width="2.5"/>
<text x="1193.3" y="496.1" text-anchor="middle" font-family="Arial, Helvetica, sans-serif" font-size="21" font-weight="800" fill="white" stroke="#111" stroke-width="3" paint-order="stroke">11</text>
<circle cx="520.7" cy="329.4" r="17.3" fill="white" fill-opacity="0.84"/>
<circle cx="520.7" cy="329.4" r="14.3" fill="#005DFF" fill-opacity="0.66" stroke="#111" stroke-width="2.5"/>
<text x="520.7" y="336.4" text-anchor="middle" font-family="Arial, Helvetica, sans-serif" font-size="21" font-weight="800" fill="white" stroke="#111" stroke-width="3" paint-order="stroke">12</text>
<circle cx="573.7" cy="423.2" r="22.3" fill="white" fill-opacity="0.84"/>
<circle cx="573.7" cy="423.2" r="19.3" fill="#005DFF" fill-opacity="0.66" stroke="#111" stroke-width="2.5"/>
<text x="573.7" y="430.2" text-anchor="middle" font-family="Arial, Helvetica, sans-serif" font-size="21" font-weight="800" fill="white" stroke="#111" stroke-width="3" paint-order="stroke">13</text>
<circle cx="1160.4" cy="462.7" r="18.3" fill="white" fill-opacity="0.84"/>
<circle cx="1160.4" cy="462.7" r="15.3" fill="#005DFF" fill-opacity="0.66" stroke="#111" stroke-width="2.5"/>
<text x="1160.4" y="469.7" text-anchor="middle" font-family="Arial, Helvetica, sans-serif" font-size="21" font-weight="800" fill="white" stroke="#111" stroke-width="3" paint-order="stroke">14</text>
<circle cx="644.1" cy="285.0" r="17.6" fill="white" fill-opacity="0.84"/>
<circle cx="644.1" cy="285.0" r="14.6" fill="#005DFF" fill-opacity="0.66" stroke="#111" stroke-width="2.5"/>
<text x="644.1" y="292.0" text-anchor="middle" font-family="Arial, Helvetica, sans-serif" font-size="21" font-weight="800" fill="white" stroke="#111" stroke-width="3" paint-order="stroke">15</text>
<circle cx="700.5" cy="329.5" r="15.0" fill="white" fill-opacity="0.84"/>
<circle cx="700.5" cy="329.5" r="12.0" fill="#005DFF" fill-opacity="0.66" stroke="#111" stroke-width="2.5"/>
<text x="700.5" y="336.5" text-anchor="middle" font-family="Arial, Helvetica, sans-serif" font-size="21" font-weight="800" fill="white" stroke="#111" stroke-width="3" paint-order="stroke">16</text>
<circle cx="1158.6" cy="384.8" r="16.7" fill="white" fill-opacity="0.84"/>
<circle cx="1158.6" cy="384.8" r="13.7" fill="#005DFF" fill-opacity="0.66" stroke="#111" stroke-width="2.5"/>
<text x="1158.6" y="391.8" text-anchor="middle" font-family="Arial, Helvetica, sans-serif" font-size="21" font-weight="800" fill="white" stroke="#111" stroke-width="3" paint-order="stroke">17</text>
<circle cx="484.6" cy="336.6" r="20.4" fill="white" fill-opacity="0.84"/>
<circle cx="484.6" cy="336.6" r="17.4" fill="#005DFF" fill-opacity="0.66" stroke="#111" stroke-width="2.5"/>
<text x="484.6" y="343.6" text-anchor="middle" font-family="Arial, Helvetica, sans-serif" font-size="21" font-weight="800" fill="white" stroke="#111" stroke-width="3" paint-order="stroke">18</text>
<circle cx="446.1" cy="342.4" r="21.5" fill="white" fill-opacity="0.84"/>
<circle cx="446.1" cy="342.4" r="18.5" fill="#005DFF" fill-opacity="0.66" stroke="#111" stroke-width="2.5"/>
<text x="446.1" y="349.4" text-anchor="middle" font-family="Arial, Helvetica, sans-serif" font-size="21" font-weight="800" fill="white" stroke="#111" stroke-width="3" paint-order="stroke">19</text>
<circle cx="622.4" cy="318.7" r="15.9" fill="white" fill-opacity="0.84"/>
<circle cx="622.4" cy="318.7" r="12.9" fill="#FF8A00" fill-opacity="0.66" stroke="#111" stroke-width="2.5"/>
<text x="622.4" y="325.7" text-anchor="middle" font-family="Arial, Helvetica, sans-serif" font-size="21" font-weight="800" fill="white" stroke="#111" stroke-width="3" paint-order="stroke">20</text>
<circle cx="682.7" cy="345.1" r="20.1" fill="white" fill-opacity="0.84"/>
<circle cx="682.7" cy="345.1" r="17.1" fill="#FF8A00" fill-opacity="0.66" stroke="#111" stroke-width="2.5"/>
<text x="682.7" y="352.1" text-anchor="middle" font-family="Arial, Helvetica, sans-serif" font-size="21" font-weight="800" fill="white" stroke="#111" stroke-width="3" paint-order="stroke">21</text>
<circle cx="858.8" cy="409.3" r="18.4" fill="white" fill-opacity="0.84"/>
<circle cx="858.8" cy="409.3" r="15.4" fill="#FF8A00" fill-opacity="0.66" stroke="#111" stroke-width="2.5"/>
<text x="858.8" y="416.3" text-anchor="middle" font-family="Arial, Helvetica, sans-serif" font-size="21" font-weight="800" fill="white" stroke="#111" stroke-width="3" paint-order="stroke">22</text>
<circle cx="1168.3" cy="284.8" r="14.0" fill="white" fill-opacity="0.84"/>
<circle cx="1168.3" cy="284.8" r="11.0" fill="#FF8A00" fill-opacity="0.66" stroke="#111" stroke-width="2.5"/>
<text x="1168.3" y="291.8" text-anchor="middle" font-family="Arial, Helvetica, sans-serif" font-size="21" font-weight="800" fill="white" stroke="#111" stroke-width="3" paint-order="stroke">23</text>
<circle cx="1159.6" cy="411.8" r="15.4" fill="white" fill-opacity="0.84"/>
<circle cx="1159.6" cy="411.8" r="12.4" fill="#FF8A00" fill-opacity="0.66" stroke="#111" stroke-width="2.5"/>
<text x="1159.6" y="418.8" text-anchor="middle" font-family="Arial, Helvetica, sans-serif" font-size="21" font-weight="800" fill="white" stroke="#111" stroke-width="3" paint-order="stroke">24</text>
<circle cx="1192.9" cy="477.9" r="22.1" fill="white" fill-opacity="0.84"/>
<circle cx="1192.9" cy="477.9" r="19.1" fill="#FF8A00" fill-opacity="0.66" stroke="#111" stroke-width="2.5"/>
<text x="1192.9" y="484.9" text-anchor="middle" font-family="Arial, Helvetica, sans-serif" font-size="21" font-weight="800" fill="white" stroke="#111" stroke-width="3" paint-order="stroke">25</text>
<rect x="16" y="1094" width="1120" height="168" rx="8" fill="white" fill-opacity="0.92" stroke="#111" stroke-opacity="0.22"/>
<text x="36.0" y="1128.0" font-family="Arial, Helvetica, sans-serif" font-size="24" font-weight="600" fill="#111">K24 / k24.asc block 57 | clean-2-1-l.png | RT 7713 ms | 25 fixations</text>
<text x="36.0" y="1159.0" font-family="Arial, Helvetica, sans-serif" font-size="24" font-weight="600" fill="#111">numbers show fixation order; dot size shows fixation duration</text>
<circle cx="42" cy="1198" r="11" fill="#005DFF" fill-opacity="0.64" stroke="#111" stroke-width="2"/>
<text x="62.0" y="1206.0" font-family="Arial, Helvetica, sans-serif" font-size="22" font-weight="500" fill="#111">blue: before speech onset</text>
<circle cx="42" cy="1232" r="11" fill="#FF8A00" fill-opacity="0.64" stroke="#111" stroke-width="2"/>
<text x="62.0" y="1240.0" font-family="Arial, Helvetica, sans-serif" font-size="22" font-weight="500" fill="#111">orange: first 2000 ms after onset</text>
</svg>
