<svg xmlns="http://www.w3.org/2000/svg" width="1920" height="1320" viewBox="0 0 1920 1320">
<image href="https://raw.githubusercontent.com/mkurg/koryak/main/stimuli/Koryak%20stimuli%20animate%20inanimate/plant-1-2-l.png" x="0" y="0" width="1920" height="1080" preserveAspectRatio="none"/>
<rect x="0" y="0" width="1920" height="1080" fill="none" stroke="#111" stroke-width="2"/>
<rect x="0" y="1080" width="1920" height="240" fill="#f7f7f7"/>
<rect x="40.0" y="100.0" width="850" height="850" fill="none" stroke="#00B8D9" stroke-width="6" stroke-dasharray="18 12"/>
<rect x="52.0" y="62.0" width="102.0" height="38" rx="6" fill="white" fill-opacity="0.86" stroke="#00B8D9" stroke-width="3"/>
<text x="62.0" y="88.0" font-family="Arial, Helvetica, sans-serif" font-size="24" font-weight="700" fill="#111">AGENT</text>
<rect x="970.0" y="100.0" width="850" height="850" fill="none" stroke="#FF3B8A" stroke-width="6" stroke-dasharray="18 12"/>
<rect x="982.0" y="62.0" width="134.0" height="38" rx="6" fill="white" fill-opacity="0.86" stroke="#FF3B8A" stroke-width="3"/>
<text x="992.0" y="88.0" font-family="Arial, Helvetica, sans-serif" font-size="24" font-weight="700" fill="#111">PATIENT</text>
<polyline points="1136.2,541.6 1237.8,550.7 740.4,463.9 718.1,365.0 604.1,438.0 453.9,424.9 378.4,480.4 758.1,648.9 1244.6,672.4 1265.2,553.0 721.8,531.0 713.2,607.0 729.4,347.6 455.1,408.7 284.2,438.5 739.2,351.1 722.4,338.4 1344.9,525.1 1526.4,619.5 1483.6,682.0 1459.8,587.8 1456.6,631.8 725.4,241.9 718.6,321.1 868.3,568.7 711.2,513.3 719.3,363.4 713.5,327.3 1277.5,525.5 1343.2,450.4 1280.3,572.7 1267.3,645.4 1269.5,558.4 1272.6,614.3 697.1,450.7 749.5,660.2 888.7,668.9 1265.8,615.6 606.0,400.9 708.2,358.4 714.9,321.8 758.0,323.8 730.9,359.9 743.4,405.0 773.2,526.1 1307.2,563.3 1478.5,616.3" fill="none" stroke="#111" stroke-width="4" stroke-opacity="0.36" stroke-linejoin="round"/>
<circle cx="1136.2" cy="541.6" r="16.3" fill="white" fill-opacity="0.84"/>
<circle cx="1136.2" cy="541.6" r="13.3" fill="#005DFF" fill-opacity="0.66" stroke="#111" stroke-width="2.5"/>
<text x="1136.2" y="548.6" text-anchor="middle" font-family="Arial, Helvetica, sans-serif" font-size="21" font-weight="800" fill="white" stroke="#111" stroke-width="3" paint-order="stroke">1</text>
<circle cx="1237.8" cy="550.7" r="16.3" fill="white" fill-opacity="0.84"/>
<circle cx="1237.8" cy="550.7" r="13.3" fill="#005DFF" fill-opacity="0.66" stroke="#111" stroke-width="2.5"/>
<text x="1237.8" y="557.7" text-anchor="middle" font-family="Arial, Helvetica, sans-serif" font-size="21" font-weight="800" fill="white" stroke="#111" stroke-width="3" paint-order="stroke">2</text>
<circle cx="740.4" cy="463.9" r="15.9" fill="white" fill-opacity="0.84"/>
<circle cx="740.4" cy="463.9" r="12.9" fill="#005DFF" fill-opacity="0.66" stroke="#111" stroke-width="2.5"/>
<text x="740.4" y="470.9" text-anchor="middle" font-family="Arial, Helvetica, sans-serif" font-size="21" font-weight="800" fill="white" stroke="#111" stroke-width="3" paint-order="stroke">3</text>
<circle cx="718.1" cy="365.0" r="20.7" fill="white" fill-opacity="0.84"/>
<circle cx="718.1" cy="365.0" r="17.7" fill="#005DFF" fill-opacity="0.66" stroke="#111" stroke-width="2.5"/>
<text x="718.1" y="372.0" text-anchor="middle" font-family="Arial, Helvetica, sans-serif" font-size="21" font-weight="800" fill="white" stroke="#111" stroke-width="3" paint-order="stroke">4</text>
<circle cx="604.1" cy="438.0" r="17.4" fill="white" fill-opacity="0.84"/>
<circle cx="604.1" cy="438.0" r="14.4" fill="#005DFF" fill-opacity="0.66" stroke="#111" stroke-width="2.5"/>
<text x="604.1" y="445.0" text-anchor="middle" font-family="Arial, Helvetica, sans-serif" font-size="21" font-weight="800" fill="white" stroke="#111" stroke-width="3" paint-order="stroke">5</text>
<circle cx="453.9" cy="424.9" r="19.2" fill="white" fill-opacity="0.84"/>
<circle cx="453.9" cy="424.9" r="16.2" fill="#005DFF" fill-opacity="0.66" stroke="#111" stroke-width="2.5"/>
<text x="453.9" y="431.9" text-anchor="middle" font-family="Arial, Helvetica, sans-serif" font-size="21" font-weight="800" fill="white" stroke="#111" stroke-width="3" paint-order="stroke">6</text>
<circle cx="378.4" cy="480.4" r="16.9" fill="white" fill-opacity="0.84"/>
<circle cx="378.4" cy="480.4" r="13.9" fill="#005DFF" fill-opacity="0.66" stroke="#111" stroke-width="2.5"/>
<text x="378.4" y="487.4" text-anchor="middle" font-family="Arial, Helvetica, sans-serif" font-size="21" font-weight="800" fill="white" stroke="#111" stroke-width="3" paint-order="stroke">7</text>
<circle cx="758.1" cy="648.9" r="15.7" fill="white" fill-opacity="0.84"/>
<circle cx="758.1" cy="648.9" r="12.7" fill="#005DFF" fill-opacity="0.66" stroke="#111" stroke-width="2.5"/>
<text x="758.1" y="655.9" text-anchor="middle" font-family="Arial, Helvetica, sans-serif" font-size="21" font-weight="800" fill="white" stroke="#111" stroke-width="3" paint-order="stroke">8</text>
<circle cx="1244.6" cy="672.4" r="16.3" fill="white" fill-opacity="0.84"/>
<circle cx="1244.6" cy="672.4" r="13.3" fill="#005DFF" fill-opacity="0.66" stroke="#111" stroke-width="2.5"/>
<text x="1244.6" y="679.4" text-anchor="middle" font-family="Arial, Helvetica, sans-serif" font-size="21" font-weight="800" fill="white" stroke="#111" stroke-width="3" paint-order="stroke">9</text>
<circle cx="1265.2" cy="553.0" r="16.1" fill="white" fill-opacity="0.84"/>
<circle cx="1265.2" cy="553.0" r="13.1" fill="#005DFF" fill-opacity="0.66" stroke="#111" stroke-width="2.5"/>
<text x="1265.2" y="560.0" text-anchor="middle" font-family="Arial, Helvetica, sans-serif" font-size="21" font-weight="800" fill="white" stroke="#111" stroke-width="3" paint-order="stroke">10</text>
<circle cx="721.8" cy="531.0" r="11.8" fill="white" fill-opacity="0.84"/>
<circle cx="721.8" cy="531.0" r="8.8" fill="#005DFF" fill-opacity="0.66" stroke="#111" stroke-width="2.5"/>
<text x="721.8" y="538.0" text-anchor="middle" font-family="Arial, Helvetica, sans-serif" font-size="21" font-weight="800" fill="white" stroke="#111" stroke-width="3" paint-order="stroke">11</text>
<circle cx="713.2" cy="607.0" r="21.4" fill="white" fill-opacity="0.84"/>
<circle cx="713.2" cy="607.0" r="18.4" fill="#005DFF" fill-opacity="0.66" stroke="#111" stroke-width="2.5"/>
<text x="713.2" y="614.0" text-anchor="middle" font-family="Arial, Helvetica, sans-serif" font-size="21" font-weight="800" fill="white" stroke="#111" stroke-width="3" paint-order="stroke">12</text>
<circle cx="729.4" cy="347.6" r="24.8" fill="white" fill-opacity="0.84"/>
<circle cx="729.4" cy="347.6" r="21.8" fill="#005DFF" fill-opacity="0.66" stroke="#111" stroke-width="2.5"/>
<text x="729.4" y="354.6" text-anchor="middle" font-family="Arial, Helvetica, sans-serif" font-size="21" font-weight="800" fill="white" stroke="#111" stroke-width="3" paint-order="stroke">13</text>
<circle cx="455.1" cy="408.7" r="18.8" fill="white" fill-opacity="0.84"/>
<circle cx="455.1" cy="408.7" r="15.8" fill="#005DFF" fill-opacity="0.66" stroke="#111" stroke-width="2.5"/>
<text x="455.1" y="415.7" text-anchor="middle" font-family="Arial, Helvetica, sans-serif" font-size="21" font-weight="800" fill="white" stroke="#111" stroke-width="3" paint-order="stroke">14</text>
<circle cx="284.2" cy="438.5" r="17.4" fill="white" fill-opacity="0.84"/>
<circle cx="284.2" cy="438.5" r="14.4" fill="#005DFF" fill-opacity="0.66" stroke="#111" stroke-width="2.5"/>
<text x="284.2" y="445.5" text-anchor="middle" font-family="Arial, Helvetica, sans-serif" font-size="21" font-weight="800" fill="white" stroke="#111" stroke-width="3" paint-order="stroke">15</text>
<circle cx="739.2" cy="351.1" r="19.0" fill="white" fill-opacity="0.84"/>
<circle cx="739.2" cy="351.1" r="16.0" fill="#005DFF" fill-opacity="0.66" stroke="#111" stroke-width="2.5"/>
<text x="739.2" y="358.1" text-anchor="middle" font-family="Arial, Helvetica, sans-serif" font-size="21" font-weight="800" fill="white" stroke="#111" stroke-width="3" paint-order="stroke">16</text>
<circle cx="722.4" cy="338.4" r="19.6" fill="white" fill-opacity="0.84"/>
<circle cx="722.4" cy="338.4" r="16.6" fill="#005DFF" fill-opacity="0.66" stroke="#111" stroke-width="2.5"/>
<text x="722.4" y="345.4" text-anchor="middle" font-family="Arial, Helvetica, sans-serif" font-size="21" font-weight="800" fill="white" stroke="#111" stroke-width="3" paint-order="stroke">17</text>
<circle cx="1344.9" cy="525.1" r="16.6" fill="white" fill-opacity="0.84"/>
<circle cx="1344.9" cy="525.1" r="13.6" fill="#005DFF" fill-opacity="0.66" stroke="#111" stroke-width="2.5"/>
<text x="1344.9" y="532.1" text-anchor="middle" font-family="Arial, Helvetica, sans-serif" font-size="21" font-weight="800" fill="white" stroke="#111" stroke-width="3" paint-order="stroke">18</text>
<circle cx="1526.4" cy="619.5" r="18.6" fill="white" fill-opacity="0.84"/>
<circle cx="1526.4" cy="619.5" r="15.6" fill="#005DFF" fill-opacity="0.66" stroke="#111" stroke-width="2.5"/>
<text x="1526.4" y="626.5" text-anchor="middle" font-family="Arial, Helvetica, sans-serif" font-size="21" font-weight="800" fill="white" stroke="#111" stroke-width="3" paint-order="stroke">19</text>
<circle cx="1483.6" cy="682.0" r="18.4" fill="white" fill-opacity="0.84"/>
<circle cx="1483.6" cy="682.0" r="15.4" fill="#005DFF" fill-opacity="0.66" stroke="#111" stroke-width="2.5"/>
<text x="1483.6" y="689.0" text-anchor="middle" font-family="Arial, Helvetica, sans-serif" font-size="21" font-weight="800" fill="white" stroke="#111" stroke-width="3" paint-order="stroke">20</text>
<circle cx="1459.8" cy="587.8" r="23.7" fill="white" fill-opacity="0.84"/>
<circle cx="1459.8" cy="587.8" r="20.7" fill="#005DFF" fill-opacity="0.66" stroke="#111" stroke-width="2.5"/>
<text x="1459.8" y="594.8" text-anchor="middle" font-family="Arial, Helvetica, sans-serif" font-size="21" font-weight="800" fill="white" stroke="#111" stroke-width="3" paint-order="stroke">21</text>
<circle cx="1456.6" cy="631.8" r="20.0" fill="white" fill-opacity="0.84"/>
<circle cx="1456.6" cy="631.8" r="17.0" fill="#005DFF" fill-opacity="0.66" stroke="#111" stroke-width="2.5"/>
<text x="1456.6" y="638.8" text-anchor="middle" font-family="Arial, Helvetica, sans-serif" font-size="21" font-weight="800" fill="white" stroke="#111" stroke-width="3" paint-order="stroke">22</text>
<circle cx="725.4" cy="241.9" r="16.9" fill="white" fill-opacity="0.84"/>
<circle cx="725.4" cy="241.9" r="13.9" fill="#005DFF" fill-opacity="0.66" stroke="#111" stroke-width="2.5"/>
<text x="725.4" y="248.9" text-anchor="middle" font-family="Arial, Helvetica, sans-serif" font-size="21" font-weight="800" fill="white" stroke="#111" stroke-width="3" paint-order="stroke">23</text>
<circle cx="718.6" cy="321.1" r="21.9" fill="white" fill-opacity="0.84"/>
<circle cx="718.6" cy="321.1" r="18.9" fill="#005DFF" fill-opacity="0.66" stroke="#111" stroke-width="2.5"/>
<text x="718.6" y="328.1" text-anchor="middle" font-family="Arial, Helvetica, sans-serif" font-size="21" font-weight="800" fill="white" stroke="#111" stroke-width="3" paint-order="stroke">24</text>
<circle cx="868.3" cy="568.7" r="14.8" fill="white" fill-opacity="0.84"/>
<circle cx="868.3" cy="568.7" r="11.8" fill="#005DFF" fill-opacity="0.66" stroke="#111" stroke-width="2.5"/>
<text x="868.3" y="575.7" text-anchor="middle" font-family="Arial, Helvetica, sans-serif" font-size="21" font-weight="800" fill="white" stroke="#111" stroke-width="3" paint-order="stroke">25</text>
<circle cx="711.2" cy="513.3" r="15.4" fill="white" fill-opacity="0.84"/>
<circle cx="711.2" cy="513.3" r="12.4" fill="#005DFF" fill-opacity="0.66" stroke="#111" stroke-width="2.5"/>
<text x="711.2" y="520.3" text-anchor="middle" font-family="Arial, Helvetica, sans-serif" font-size="21" font-weight="800" fill="white" stroke="#111" stroke-width="3" paint-order="stroke">26</text>
<circle cx="719.3" cy="363.4" r="25.2" fill="white" fill-opacity="0.84"/>
<circle cx="719.3" cy="363.4" r="22.2" fill="#005DFF" fill-opacity="0.66" stroke="#111" stroke-width="2.5"/>
<text x="719.3" y="370.4" text-anchor="middle" font-family="Arial, Helvetica, sans-serif" font-size="21" font-weight="800" fill="white" stroke="#111" stroke-width="3" paint-order="stroke">27</text>
<circle cx="713.5" cy="327.3" r="19.0" fill="white" fill-opacity="0.84"/>
<circle cx="713.5" cy="327.3" r="16.0" fill="#005DFF" fill-opacity="0.66" stroke="#111" stroke-width="2.5"/>
<text x="713.5" y="334.3" text-anchor="middle" font-family="Arial, Helvetica, sans-serif" font-size="21" font-weight="800" fill="white" stroke="#111" stroke-width="3" paint-order="stroke">28</text>
<circle cx="1277.5" cy="525.5" r="17.9" fill="white" fill-opacity="0.84"/>
<circle cx="1277.5" cy="525.5" r="14.9" fill="#005DFF" fill-opacity="0.66" stroke="#111" stroke-width="2.5"/>
<text x="1277.5" y="532.5" text-anchor="middle" font-family="Arial, Helvetica, sans-serif" font-size="21" font-weight="800" fill="white" stroke="#111" stroke-width="3" paint-order="stroke">29</text>
<circle cx="1343.2" cy="450.4" r="12.3" fill="white" fill-opacity="0.84"/>
<circle cx="1343.2" cy="450.4" r="9.3" fill="#005DFF" fill-opacity="0.66" stroke="#111" stroke-width="2.5"/>
<text x="1343.2" y="457.4" text-anchor="middle" font-family="Arial, Helvetica, sans-serif" font-size="21" font-weight="800" fill="white" stroke="#111" stroke-width="3" paint-order="stroke">30</text>
<circle cx="1280.3" cy="572.7" r="17.1" fill="white" fill-opacity="0.84"/>
<circle cx="1280.3" cy="572.7" r="14.1" fill="#005DFF" fill-opacity="0.66" stroke="#111" stroke-width="2.5"/>
<text x="1280.3" y="579.7" text-anchor="middle" font-family="Arial, Helvetica, sans-serif" font-size="21" font-weight="800" fill="white" stroke="#111" stroke-width="3" paint-order="stroke">31</text>
<circle cx="1267.3" cy="645.4" r="17.9" fill="white" fill-opacity="0.84"/>
<circle cx="1267.3" cy="645.4" r="14.9" fill="#005DFF" fill-opacity="0.66" stroke="#111" stroke-width="2.5"/>
<text x="1267.3" y="652.4" text-anchor="middle" font-family="Arial, Helvetica, sans-serif" font-size="21" font-weight="800" fill="white" stroke="#111" stroke-width="3" paint-order="stroke">32</text>
<circle cx="1269.5" cy="558.4" r="23.2" fill="white" fill-opacity="0.84"/>
<circle cx="1269.5" cy="558.4" r="20.2" fill="#005DFF" fill-opacity="0.66" stroke="#111" stroke-width="2.5"/>
<text x="1269.5" y="565.4" text-anchor="middle" font-family="Arial, Helvetica, sans-serif" font-size="21" font-weight="800" fill="white" stroke="#111" stroke-width="3" paint-order="stroke">33</text>
<circle cx="1272.6" cy="614.3" r="17.8" fill="white" fill-opacity="0.84"/>
<circle cx="1272.6" cy="614.3" r="14.8" fill="#005DFF" fill-opacity="0.66" stroke="#111" stroke-width="2.5"/>
<text x="1272.6" y="621.3" text-anchor="middle" font-family="Arial, Helvetica, sans-serif" font-size="21" font-weight="800" fill="white" stroke="#111" stroke-width="3" paint-order="stroke">34</text>
<circle cx="697.1" cy="450.7" r="17.1" fill="white" fill-opacity="0.84"/>
<circle cx="697.1" cy="450.7" r="14.1" fill="#005DFF" fill-opacity="0.66" stroke="#111" stroke-width="2.5"/>
<text x="697.1" y="457.7" text-anchor="middle" font-family="Arial, Helvetica, sans-serif" font-size="21" font-weight="800" fill="white" stroke="#111" stroke-width="3" paint-order="stroke">35</text>
<circle cx="749.5" cy="660.2" r="20.0" fill="white" fill-opacity="0.84"/>
<circle cx="749.5" cy="660.2" r="17.0" fill="#005DFF" fill-opacity="0.66" stroke="#111" stroke-width="2.5"/>
<text x="749.5" y="667.2" text-anchor="middle" font-family="Arial, Helvetica, sans-serif" font-size="21" font-weight="800" fill="white" stroke="#111" stroke-width="3" paint-order="stroke">36</text>
<circle cx="888.7" cy="668.9" r="14.1" fill="white" fill-opacity="0.84"/>
<circle cx="888.7" cy="668.9" r="11.1" fill="#005DFF" fill-opacity="0.66" stroke="#111" stroke-width="2.5"/>
<text x="888.7" y="675.9" text-anchor="middle" font-family="Arial, Helvetica, sans-serif" font-size="21" font-weight="800" fill="white" stroke="#111" stroke-width="3" paint-order="stroke">37</text>
<circle cx="1265.8" cy="615.6" r="18.7" fill="white" fill-opacity="0.84"/>
<circle cx="1265.8" cy="615.6" r="15.7" fill="#005DFF" fill-opacity="0.66" stroke="#111" stroke-width="2.5"/>
<text x="1265.8" y="622.6" text-anchor="middle" font-family="Arial, Helvetica, sans-serif" font-size="21" font-weight="800" fill="white" stroke="#111" stroke-width="3" paint-order="stroke">38</text>
<circle cx="606.0" cy="400.9" r="14.6" fill="white" fill-opacity="0.84"/>
<circle cx="606.0" cy="400.9" r="11.6" fill="#005DFF" fill-opacity="0.66" stroke="#111" stroke-width="2.5"/>
<text x="606.0" y="407.9" text-anchor="middle" font-family="Arial, Helvetica, sans-serif" font-size="21" font-weight="800" fill="white" stroke="#111" stroke-width="3" paint-order="stroke">39</text>
<circle cx="708.2" cy="358.4" r="28.4" fill="white" fill-opacity="0.84"/>
<circle cx="708.2" cy="358.4" r="25.4" fill="#005DFF" fill-opacity="0.66" stroke="#111" stroke-width="2.5"/>
<text x="708.2" y="365.4" text-anchor="middle" font-family="Arial, Helvetica, sans-serif" font-size="21" font-weight="800" fill="white" stroke="#111" stroke-width="3" paint-order="stroke">40</text>
<circle cx="714.9" cy="321.8" r="22.8" fill="white" fill-opacity="0.84"/>
<circle cx="714.9" cy="321.8" r="19.8" fill="#005DFF" fill-opacity="0.66" stroke="#111" stroke-width="2.5"/>
<text x="714.9" y="328.8" text-anchor="middle" font-family="Arial, Helvetica, sans-serif" font-size="21" font-weight="800" fill="white" stroke="#111" stroke-width="3" paint-order="stroke">41</text>
<circle cx="758.0" cy="323.8" r="16.4" fill="white" fill-opacity="0.84"/>
<circle cx="758.0" cy="323.8" r="13.4" fill="#005DFF" fill-opacity="0.66" stroke="#111" stroke-width="2.5"/>
<text x="758.0" y="330.8" text-anchor="middle" font-family="Arial, Helvetica, sans-serif" font-size="21" font-weight="800" fill="white" stroke="#111" stroke-width="3" paint-order="stroke">42</text>
<circle cx="730.9" cy="359.9" r="21.6" fill="white" fill-opacity="0.84"/>
<circle cx="730.9" cy="359.9" r="18.6" fill="#005DFF" fill-opacity="0.66" stroke="#111" stroke-width="2.5"/>
<text x="730.9" y="366.9" text-anchor="middle" font-family="Arial, Helvetica, sans-serif" font-size="21" font-weight="800" fill="white" stroke="#111" stroke-width="3" paint-order="stroke">43</text>
<circle cx="743.4" cy="405.0" r="12.8" fill="white" fill-opacity="0.84"/>
<circle cx="743.4" cy="405.0" r="9.8" fill="#FF8A00" fill-opacity="0.66" stroke="#111" stroke-width="2.5"/>
<text x="743.4" y="412.0" text-anchor="middle" font-family="Arial, Helvetica, sans-serif" font-size="21" font-weight="800" fill="white" stroke="#111" stroke-width="3" paint-order="stroke">44</text>
<circle cx="773.2" cy="526.1" r="17.9" fill="white" fill-opacity="0.84"/>
<circle cx="773.2" cy="526.1" r="14.9" fill="#FF8A00" fill-opacity="0.66" stroke="#111" stroke-width="2.5"/>
<text x="773.2" y="533.1" text-anchor="middle" font-family="Arial, Helvetica, sans-serif" font-size="21" font-weight="800" fill="white" stroke="#111" stroke-width="3" paint-order="stroke">45</text>
<circle cx="1307.2" cy="563.3" r="24.5" fill="white" fill-opacity="0.84"/>
<circle cx="1307.2" cy="563.3" r="21.5" fill="#FF8A00" fill-opacity="0.66" stroke="#111" stroke-width="2.5"/>
<text x="1307.2" y="570.3" text-anchor="middle" font-family="Arial, Helvetica, sans-serif" font-size="21" font-weight="800" fill="white" stroke="#111" stroke-width="3" paint-order="stroke">46</text>
<circle cx="1478.5" cy="616.3" r="19.9" fill="white" fill-opacity="0.84"/>
<circle cx="1478.5" cy="616.3" r="16.9" fill="#FF8A00" fill-opacity="0.66" stroke="#111" stroke-width="2.5"/>
<text x="1478.5" y="623.3" text-anchor="middle" font-family="Arial, Helvetica, sans-serif" font-size="21" font-weight="800" fill="white" stroke="#111" stroke-width="3" paint-order="stroke">47</text>
<rect x="16" y="1094" width="1120" height="168" rx="8" fill="white" fill-opacity="0.92" stroke="#111" stroke-opacity="0.22"/>
<text x="36.0" y="1128.0" font-family="Arial, Helvetica, sans-serif" font-size="24" font-weight="600" fill="#111">K24 / k24.asc block 61 | plant-1-2-l.png | RT 18772 ms | 47 fixations</text>
<text x="36.0" y="1159.0" font-family="Arial, Helvetica, sans-serif" font-size="24" font-weight="600" fill="#111">numbers show fixation order; dot size shows fixation duration</text>
<circle cx="42" cy="1198" r="11" fill="#005DFF" fill-opacity="0.64" stroke="#111" stroke-width="2"/>
<text x="62.0" y="1206.0" font-family="Arial, Helvetica, sans-serif" font-size="22" font-weight="500" fill="#111">blue: before speech onset</text>
<circle cx="42" cy="1232" r="11" fill="#FF8A00" fill-opacity="0.64" stroke="#111" stroke-width="2"/>
<text x="62.0" y="1240.0" font-family="Arial, Helvetica, sans-serif" font-size="22" font-weight="500" fill="#111">orange: first 2000 ms after onset</text>
</svg>
