<svg xmlns="http://www.w3.org/2000/svg" width="1920" height="1320" viewBox="0 0 1920 1320">
<image href="../../../../stimuli/Animate-animate%20centered%20and%20flipped/makelaugh-2-2-r.png" x="0" y="0" width="1920" height="1080" preserveAspectRatio="none"/>
<rect x="0" y="0" width="1920" height="1080" fill="none" stroke="#111" stroke-width="2"/>
<rect x="0" y="1080" width="1920" height="240" fill="#f7f7f7"/>
<rect x="970.0" y="100.0" width="850" height="850" fill="none" stroke="#00B8D9" stroke-width="6" stroke-dasharray="18 12"/>
<rect x="982.0" y="62.0" width="102.0" height="38" rx="6" fill="white" fill-opacity="0.86" stroke="#00B8D9" stroke-width="3"/>
<text x="992.0" y="88.0" font-family="Arial, Helvetica, sans-serif" font-size="24" font-weight="700" fill="#111">AGENT</text>
<rect x="40.0" y="100.0" width="850" height="850" fill="none" stroke="#FF3B8A" stroke-width="6" stroke-dasharray="18 12"/>
<rect x="52.0" y="62.0" width="134.0" height="38" rx="6" fill="white" fill-opacity="0.86" stroke="#FF3B8A" stroke-width="3"/>
<text x="62.0" y="88.0" font-family="Arial, Helvetica, sans-serif" font-size="24" font-weight="700" fill="#111">PATIENT</text>
<polyline points="1122.6,333.3 1100.6,356.1 1391.1,363.1 482.6,346.4 749.9,322.1 1164.6,356.7 1385.9,373.1 1086.6,319.6 1132.6,336.7 1257.7,330.3 1411.7,372.7 1329.8,353.0 1095.2,339.1 1164.6,346.4 1365.1,378.0 1428.0,364.1 1085.7,301.0 1129.5,328.5 1192.6,336.5 1132.2,342.3 1126.4,324.1 1152.3,201.5 1386.4,379.6 638.9,316.8 791.8,327.5 647.1,306.2 425.1,301.5 520.5,323.4 811.3,329.0 491.9,323.3 557.9,323.3 378.5,319.1 514.9,347.0" fill="none" stroke="#111" stroke-width="4" stroke-opacity="0.36" stroke-linejoin="round"/>
<circle cx="1122.6" cy="333.3" r="12.3" fill="white" fill-opacity="0.84"/>
<circle cx="1122.6" cy="333.3" r="9.3" fill="#7A3CE8" fill-opacity="0.66" stroke="#111" stroke-width="2.5"/>
<text x="1122.6" y="340.3" text-anchor="middle" font-family="Arial, Helvetica, sans-serif" font-size="21" font-weight="800" fill="white" stroke="#111" stroke-width="3" paint-order="stroke">1</text>
<circle cx="1100.6" cy="356.1" r="19.1" fill="white" fill-opacity="0.84"/>
<circle cx="1100.6" cy="356.1" r="16.1" fill="#7A3CE8" fill-opacity="0.66" stroke="#111" stroke-width="2.5"/>
<text x="1100.6" y="363.1" text-anchor="middle" font-family="Arial, Helvetica, sans-serif" font-size="21" font-weight="800" fill="white" stroke="#111" stroke-width="3" paint-order="stroke">2</text>
<circle cx="1391.1" cy="363.1" r="18.3" fill="white" fill-opacity="0.84"/>
<circle cx="1391.1" cy="363.1" r="15.3" fill="#7A3CE8" fill-opacity="0.66" stroke="#111" stroke-width="2.5"/>
<text x="1391.1" y="370.1" text-anchor="middle" font-family="Arial, Helvetica, sans-serif" font-size="21" font-weight="800" fill="white" stroke="#111" stroke-width="3" paint-order="stroke">3</text>
<circle cx="482.6" cy="346.4" r="17.5" fill="white" fill-opacity="0.84"/>
<circle cx="482.6" cy="346.4" r="14.5" fill="#7A3CE8" fill-opacity="0.66" stroke="#111" stroke-width="2.5"/>
<text x="482.6" y="353.4" text-anchor="middle" font-family="Arial, Helvetica, sans-serif" font-size="21" font-weight="800" fill="white" stroke="#111" stroke-width="3" paint-order="stroke">4</text>
<circle cx="749.9" cy="322.1" r="16.3" fill="white" fill-opacity="0.84"/>
<circle cx="749.9" cy="322.1" r="13.3" fill="#7A3CE8" fill-opacity="0.66" stroke="#111" stroke-width="2.5"/>
<text x="749.9" y="329.1" text-anchor="middle" font-family="Arial, Helvetica, sans-serif" font-size="21" font-weight="800" fill="white" stroke="#111" stroke-width="3" paint-order="stroke">5</text>
<circle cx="1164.6" cy="356.7" r="21.2" fill="white" fill-opacity="0.84"/>
<circle cx="1164.6" cy="356.7" r="18.2" fill="#7A3CE8" fill-opacity="0.66" stroke="#111" stroke-width="2.5"/>
<text x="1164.6" y="363.7" text-anchor="middle" font-family="Arial, Helvetica, sans-serif" font-size="21" font-weight="800" fill="white" stroke="#111" stroke-width="3" paint-order="stroke">6</text>
<circle cx="1385.9" cy="373.1" r="19.4" fill="white" fill-opacity="0.84"/>
<circle cx="1385.9" cy="373.1" r="16.4" fill="#7A3CE8" fill-opacity="0.66" stroke="#111" stroke-width="2.5"/>
<text x="1385.9" y="380.1" text-anchor="middle" font-family="Arial, Helvetica, sans-serif" font-size="21" font-weight="800" fill="white" stroke="#111" stroke-width="3" paint-order="stroke">7</text>
<circle cx="1086.6" cy="319.6" r="18.3" fill="white" fill-opacity="0.84"/>
<circle cx="1086.6" cy="319.6" r="15.3" fill="#7A3CE8" fill-opacity="0.66" stroke="#111" stroke-width="2.5"/>
<text x="1086.6" y="326.6" text-anchor="middle" font-family="Arial, Helvetica, sans-serif" font-size="21" font-weight="800" fill="white" stroke="#111" stroke-width="3" paint-order="stroke">8</text>
<circle cx="1132.6" cy="336.7" r="20.9" fill="white" fill-opacity="0.84"/>
<circle cx="1132.6" cy="336.7" r="17.9" fill="#7A3CE8" fill-opacity="0.66" stroke="#111" stroke-width="2.5"/>
<text x="1132.6" y="343.7" text-anchor="middle" font-family="Arial, Helvetica, sans-serif" font-size="21" font-weight="800" fill="white" stroke="#111" stroke-width="3" paint-order="stroke">9</text>
<circle cx="1257.7" cy="330.3" r="13.3" fill="white" fill-opacity="0.84"/>
<circle cx="1257.7" cy="330.3" r="10.3" fill="#7A3CE8" fill-opacity="0.66" stroke="#111" stroke-width="2.5"/>
<text x="1257.7" y="337.3" text-anchor="middle" font-family="Arial, Helvetica, sans-serif" font-size="21" font-weight="800" fill="white" stroke="#111" stroke-width="3" paint-order="stroke">10</text>
<circle cx="1411.7" cy="372.7" r="22.1" fill="white" fill-opacity="0.84"/>
<circle cx="1411.7" cy="372.7" r="19.1" fill="#7A3CE8" fill-opacity="0.66" stroke="#111" stroke-width="2.5"/>
<text x="1411.7" y="379.7" text-anchor="middle" font-family="Arial, Helvetica, sans-serif" font-size="21" font-weight="800" fill="white" stroke="#111" stroke-width="3" paint-order="stroke">11</text>
<circle cx="1329.8" cy="353.0" r="21.6" fill="white" fill-opacity="0.84"/>
<circle cx="1329.8" cy="353.0" r="18.6" fill="#7A3CE8" fill-opacity="0.66" stroke="#111" stroke-width="2.5"/>
<text x="1329.8" y="360.0" text-anchor="middle" font-family="Arial, Helvetica, sans-serif" font-size="21" font-weight="800" fill="white" stroke="#111" stroke-width="3" paint-order="stroke">12</text>
<circle cx="1095.2" cy="339.1" r="20.9" fill="white" fill-opacity="0.84"/>
<circle cx="1095.2" cy="339.1" r="17.9" fill="#7A3CE8" fill-opacity="0.66" stroke="#111" stroke-width="2.5"/>
<text x="1095.2" y="346.1" text-anchor="middle" font-family="Arial, Helvetica, sans-serif" font-size="21" font-weight="800" fill="white" stroke="#111" stroke-width="3" paint-order="stroke">13</text>
<circle cx="1164.6" cy="346.4" r="21.0" fill="white" fill-opacity="0.84"/>
<circle cx="1164.6" cy="346.4" r="18.0" fill="#7A3CE8" fill-opacity="0.66" stroke="#111" stroke-width="2.5"/>
<text x="1164.6" y="353.4" text-anchor="middle" font-family="Arial, Helvetica, sans-serif" font-size="21" font-weight="800" fill="white" stroke="#111" stroke-width="3" paint-order="stroke">14</text>
<circle cx="1365.1" cy="378.0" r="17.3" fill="white" fill-opacity="0.84"/>
<circle cx="1365.1" cy="378.0" r="14.3" fill="#7A3CE8" fill-opacity="0.66" stroke="#111" stroke-width="2.5"/>
<text x="1365.1" y="385.0" text-anchor="middle" font-family="Arial, Helvetica, sans-serif" font-size="21" font-weight="800" fill="white" stroke="#111" stroke-width="3" paint-order="stroke">15</text>
<circle cx="1428.0" cy="364.1" r="19.3" fill="white" fill-opacity="0.84"/>
<circle cx="1428.0" cy="364.1" r="16.3" fill="#7A3CE8" fill-opacity="0.66" stroke="#111" stroke-width="2.5"/>
<text x="1428.0" y="371.1" text-anchor="middle" font-family="Arial, Helvetica, sans-serif" font-size="21" font-weight="800" fill="white" stroke="#111" stroke-width="3" paint-order="stroke">16</text>
<circle cx="1085.7" cy="301.0" r="18.0" fill="white" fill-opacity="0.84"/>
<circle cx="1085.7" cy="301.0" r="15.0" fill="#7A3CE8" fill-opacity="0.66" stroke="#111" stroke-width="2.5"/>
<text x="1085.7" y="308.0" text-anchor="middle" font-family="Arial, Helvetica, sans-serif" font-size="21" font-weight="800" fill="white" stroke="#111" stroke-width="3" paint-order="stroke">17</text>
<circle cx="1129.5" cy="328.5" r="18.2" fill="white" fill-opacity="0.84"/>
<circle cx="1129.5" cy="328.5" r="15.2" fill="#7A3CE8" fill-opacity="0.66" stroke="#111" stroke-width="2.5"/>
<text x="1129.5" y="335.5" text-anchor="middle" font-family="Arial, Helvetica, sans-serif" font-size="21" font-weight="800" fill="white" stroke="#111" stroke-width="3" paint-order="stroke">18</text>
<circle cx="1192.6" cy="336.5" r="18.1" fill="white" fill-opacity="0.84"/>
<circle cx="1192.6" cy="336.5" r="15.1" fill="#7A3CE8" fill-opacity="0.66" stroke="#111" stroke-width="2.5"/>
<text x="1192.6" y="343.5" text-anchor="middle" font-family="Arial, Helvetica, sans-serif" font-size="21" font-weight="800" fill="white" stroke="#111" stroke-width="3" paint-order="stroke">19</text>
<circle cx="1132.2" cy="342.3" r="22.1" fill="white" fill-opacity="0.84"/>
<circle cx="1132.2" cy="342.3" r="19.1" fill="#7A3CE8" fill-opacity="0.66" stroke="#111" stroke-width="2.5"/>
<text x="1132.2" y="349.3" text-anchor="middle" font-family="Arial, Helvetica, sans-serif" font-size="21" font-weight="800" fill="white" stroke="#111" stroke-width="3" paint-order="stroke">20</text>
<circle cx="1126.4" cy="324.1" r="18.6" fill="white" fill-opacity="0.84"/>
<circle cx="1126.4" cy="324.1" r="15.6" fill="#7A3CE8" fill-opacity="0.66" stroke="#111" stroke-width="2.5"/>
<text x="1126.4" y="331.1" text-anchor="middle" font-family="Arial, Helvetica, sans-serif" font-size="21" font-weight="800" fill="white" stroke="#111" stroke-width="3" paint-order="stroke">21</text>
<circle cx="1152.3" cy="201.5" r="12.1" fill="white" fill-opacity="0.84"/>
<circle cx="1152.3" cy="201.5" r="9.1" fill="#7A3CE8" fill-opacity="0.66" stroke="#111" stroke-width="2.5"/>
<text x="1152.3" y="208.5" text-anchor="middle" font-family="Arial, Helvetica, sans-serif" font-size="21" font-weight="800" fill="white" stroke="#111" stroke-width="3" paint-order="stroke">22</text>
<circle cx="1386.4" cy="379.6" r="22.1" fill="white" fill-opacity="0.84"/>
<circle cx="1386.4" cy="379.6" r="19.1" fill="#7A3CE8" fill-opacity="0.66" stroke="#111" stroke-width="2.5"/>
<text x="1386.4" y="386.6" text-anchor="middle" font-family="Arial, Helvetica, sans-serif" font-size="21" font-weight="800" fill="white" stroke="#111" stroke-width="3" paint-order="stroke">23</text>
<circle cx="638.9" cy="316.8" r="13.9" fill="white" fill-opacity="0.84"/>
<circle cx="638.9" cy="316.8" r="10.9" fill="#7A3CE8" fill-opacity="0.66" stroke="#111" stroke-width="2.5"/>
<text x="638.9" y="323.8" text-anchor="middle" font-family="Arial, Helvetica, sans-serif" font-size="21" font-weight="800" fill="white" stroke="#111" stroke-width="3" paint-order="stroke">24</text>
<circle cx="791.8" cy="327.5" r="21.1" fill="white" fill-opacity="0.84"/>
<circle cx="791.8" cy="327.5" r="18.1" fill="#7A3CE8" fill-opacity="0.66" stroke="#111" stroke-width="2.5"/>
<text x="791.8" y="334.5" text-anchor="middle" font-family="Arial, Helvetica, sans-serif" font-size="21" font-weight="800" fill="white" stroke="#111" stroke-width="3" paint-order="stroke">25</text>
<circle cx="647.1" cy="306.2" r="20.2" fill="white" fill-opacity="0.84"/>
<circle cx="647.1" cy="306.2" r="17.2" fill="#7A3CE8" fill-opacity="0.66" stroke="#111" stroke-width="2.5"/>
<text x="647.1" y="313.2" text-anchor="middle" font-family="Arial, Helvetica, sans-serif" font-size="21" font-weight="800" fill="white" stroke="#111" stroke-width="3" paint-order="stroke">26</text>
<circle cx="425.1" cy="301.5" r="14.9" fill="white" fill-opacity="0.84"/>
<circle cx="425.1" cy="301.5" r="11.9" fill="#7A3CE8" fill-opacity="0.66" stroke="#111" stroke-width="2.5"/>
<text x="425.1" y="308.5" text-anchor="middle" font-family="Arial, Helvetica, sans-serif" font-size="21" font-weight="800" fill="white" stroke="#111" stroke-width="3" paint-order="stroke">27</text>
<circle cx="520.5" cy="323.4" r="19.8" fill="white" fill-opacity="0.84"/>
<circle cx="520.5" cy="323.4" r="16.8" fill="#7A3CE8" fill-opacity="0.66" stroke="#111" stroke-width="2.5"/>
<text x="520.5" y="330.4" text-anchor="middle" font-family="Arial, Helvetica, sans-serif" font-size="21" font-weight="800" fill="white" stroke="#111" stroke-width="3" paint-order="stroke">28</text>
<circle cx="811.3" cy="329.0" r="20.1" fill="white" fill-opacity="0.84"/>
<circle cx="811.3" cy="329.0" r="17.1" fill="#7A3CE8" fill-opacity="0.66" stroke="#111" stroke-width="2.5"/>
<text x="811.3" y="336.0" text-anchor="middle" font-family="Arial, Helvetica, sans-serif" font-size="21" font-weight="800" fill="white" stroke="#111" stroke-width="3" paint-order="stroke">29</text>
<circle cx="491.9" cy="323.3" r="21.4" fill="white" fill-opacity="0.84"/>
<circle cx="491.9" cy="323.3" r="18.4" fill="#7A3CE8" fill-opacity="0.66" stroke="#111" stroke-width="2.5"/>
<text x="491.9" y="330.3" text-anchor="middle" font-family="Arial, Helvetica, sans-serif" font-size="21" font-weight="800" fill="white" stroke="#111" stroke-width="3" paint-order="stroke">30</text>
<circle cx="557.9" cy="323.3" r="19.2" fill="white" fill-opacity="0.84"/>
<circle cx="557.9" cy="323.3" r="16.2" fill="#7A3CE8" fill-opacity="0.66" stroke="#111" stroke-width="2.5"/>
<text x="557.9" y="330.3" text-anchor="middle" font-family="Arial, Helvetica, sans-serif" font-size="21" font-weight="800" fill="white" stroke="#111" stroke-width="3" paint-order="stroke">31</text>
<circle cx="378.5" cy="319.1" r="14.9" fill="white" fill-opacity="0.84"/>
<circle cx="378.5" cy="319.1" r="11.9" fill="#7A3CE8" fill-opacity="0.66" stroke="#111" stroke-width="2.5"/>
<text x="378.5" y="326.1" text-anchor="middle" font-family="Arial, Helvetica, sans-serif" font-size="21" font-weight="800" fill="white" stroke="#111" stroke-width="3" paint-order="stroke">32</text>
<circle cx="514.9" cy="347.0" r="19.8" fill="white" fill-opacity="0.84"/>
<circle cx="514.9" cy="347.0" r="16.8" fill="#7A3CE8" fill-opacity="0.66" stroke="#111" stroke-width="2.5"/>
<text x="514.9" y="354.0" text-anchor="middle" font-family="Arial, Helvetica, sans-serif" font-size="21" font-weight="800" fill="white" stroke="#111" stroke-width="3" paint-order="stroke">33</text>
<rect x="16" y="1094" width="1120" height="168" rx="8" fill="white" fill-opacity="0.92" stroke="#111" stroke-opacity="0.22"/>
<text x="36.0" y="1128.0" font-family="Arial, Helvetica, sans-serif" font-size="24" font-weight="600" fill="#111">K24 / k24.asc block 62 | makelaugh-2-2-r.png | RT NA ms | 33 fixations</text>
<text x="36.0" y="1159.0" font-family="Arial, Helvetica, sans-serif" font-size="24" font-weight="600" fill="#111">numbers show fixation order; dot size shows fixation duration</text>
<circle cx="42" cy="1198" r="11" fill="#005DFF" fill-opacity="0.64" stroke="#111" stroke-width="2"/>
<text x="62.0" y="1206.0" font-family="Arial, Helvetica, sans-serif" font-size="22" font-weight="500" fill="#111">blue: before speech onset</text>
<circle cx="42" cy="1232" r="11" fill="#FF8A00" fill-opacity="0.64" stroke="#111" stroke-width="2"/>
<text x="62.0" y="1240.0" font-family="Arial, Helvetica, sans-serif" font-size="22" font-weight="500" fill="#111">orange: first 2000 ms after onset</text>
</svg>
