<svg xmlns="http://www.w3.org/2000/svg" width="900" height="560" viewBox="0 0 900 560">
<rect width="100%" height="100%" fill="white"/>
<style>
text { font-family: Arial, Helvetica, sans-serif; fill: #222; }
.title { font-size: 21px; font-weight: 700; }
.subtitle { font-size: 13px; fill: #555; }
.axis { stroke: #222; stroke-width: 1; }
.grid { stroke: #dddddd; stroke-width: 1; }
.tick { font-size: 12px; fill: #333; }
.label { font-size: 14px; fill: #222; }
.legend { font-size: 13px; fill: #222; }
.onset { font-size: 13px; font-weight: 700; fill: #222; }
</style>
<text class="title" x="453.0" y="30" text-anchor="middle">Khanty Speech Planning From ASCs: Active sentences</text>
<text class="subtitle" x="453.0" y="51" text-anchor="middle">0-3500 ms from display; 50-ms trial bins; n = 414; dashed line = mean speech onset</text>
<line class="grid" x1="86" x2="820" y1="470.00" y2="470.00"/>
<text class="tick" x="76" y="474.00" text-anchor="end">0.0</text>
<line class="grid" x1="86" x2="820" y1="430.20" y2="430.20"/>
<text class="tick" x="76" y="434.20" text-anchor="end">0.1</text>
<line class="grid" x1="86" x2="820" y1="390.40" y2="390.40"/>
<text class="tick" x="76" y="394.40" text-anchor="end">0.2</text>
<line class="grid" x1="86" x2="820" y1="350.60" y2="350.60"/>
<text class="tick" x="76" y="354.60" text-anchor="end">0.3</text>
<line class="grid" x1="86" x2="820" y1="310.80" y2="310.80"/>
<text class="tick" x="76" y="314.80" text-anchor="end">0.4</text>
<line class="grid" x1="86" x2="820" y1="271.00" y2="271.00"/>
<text class="tick" x="76" y="275.00" text-anchor="end">0.5</text>
<line class="grid" x1="86" x2="820" y1="231.20" y2="231.20"/>
<text class="tick" x="76" y="235.20" text-anchor="end">0.6</text>
<line class="grid" x1="86" x2="820" y1="191.40" y2="191.40"/>
<text class="tick" x="76" y="195.40" text-anchor="end">0.7</text>
<line class="grid" x1="86" x2="820" y1="151.60" y2="151.60"/>
<text class="tick" x="76" y="155.60" text-anchor="end">0.8</text>
<line class="grid" x1="86" x2="820" y1="111.80" y2="111.80"/>
<text class="tick" x="76" y="115.80" text-anchor="end">0.9</text>
<line class="grid" x1="86" x2="820" y1="72.00" y2="72.00"/>
<text class="tick" x="76" y="76.00" text-anchor="end">1.0</text>
<line class="grid" x1="86.00" x2="86.00" y1="72" y2="470"/>
<text class="tick" x="86.00" y="492" text-anchor="middle">0</text>
<line class="grid" x1="190.86" x2="190.86" y1="72" y2="470"/>
<text class="tick" x="190.86" y="492" text-anchor="middle">500</text>
<line class="grid" x1="295.71" x2="295.71" y1="72" y2="470"/>
<text class="tick" x="295.71" y="492" text-anchor="middle">1000</text>
<line class="grid" x1="400.57" x2="400.57" y1="72" y2="470"/>
<text class="tick" x="400.57" y="492" text-anchor="middle">1500</text>
<line class="grid" x1="505.43" x2="505.43" y1="72" y2="470"/>
<text class="tick" x="505.43" y="492" text-anchor="middle">2000</text>
<line class="grid" x1="610.29" x2="610.29" y1="72" y2="470"/>
<text class="tick" x="610.29" y="492" text-anchor="middle">2500</text>
<line class="grid" x1="715.14" x2="715.14" y1="72" y2="470"/>
<text class="tick" x="715.14" y="492" text-anchor="middle">3000</text>
<line class="grid" x1="820.00" x2="820.00" y1="72" y2="470"/>
<text class="tick" x="820.00" y="492" text-anchor="middle">3500</text>
<line class="axis" x1="86" x2="820" y1="470" y2="470"/>
<line class="axis" x1="86" x2="86" y1="72" y2="470"/>
<text class="label" x="453.0" y="532" text-anchor="middle">Time from sentence display (ms)</text>
<text class="label" x="22" y="271.0" text-anchor="middle" transform="rotate(-90 22 271.0)">Proportion of Looks</text>
<line x1="626.20" x2="626.20" y1="72" y2="470" stroke="#333333" stroke-width="2" stroke-dasharray="7 6"/>
<rect x="632.20" y="77.00" width="80" height="22" fill="white" opacity="0.92"/>
<text class="onset" x="638.20" y="92.00">2576 ms</text>
<polygon points="86.00,296.55 96.49,296.83 106.97,297.65 117.46,293.35 127.94,272.57 138.43,267.65 148.91,257.45 159.40,253.40 169.89,249.19 180.37,243.23 190.86,245.03 201.34,240.14 211.83,232.22 222.31,219.15 232.80,216.62 243.29,204.38 253.77,204.05 264.26,202.80 274.74,204.20 285.23,210.48 295.71,215.46 306.20,216.11 316.69,212.02 327.17,210.72 337.66,220.28 348.14,228.90 358.63,234.64 369.11,234.81 379.60,235.83 390.09,240.20 400.57,237.86 411.06,235.42 421.54,242.39 432.03,245.92 442.51,249.62 453.00,253.31 463.49,251.26 473.97,254.10 484.46,253.75 494.94,254.71 505.43,260.75 515.91,268.23 526.40,275.72 536.89,274.23 547.37,268.02 557.86,274.00 568.34,274.94 578.83,277.19 589.31,274.83 599.80,283.40 610.29,290.45 620.77,297.84 631.26,301.68 641.74,306.03 652.23,307.29 662.71,310.51 673.20,308.65 683.69,310.17 694.17,315.35 704.66,322.53 715.14,325.09 725.63,323.80 736.11,320.83 746.60,319.26 757.09,321.60 767.57,312.62 778.06,314.56 788.54,311.34 799.03,309.49 809.51,313.15 809.51,349.71 799.03,346.25 788.54,348.06 778.06,350.80 767.57,349.17 757.09,357.52 746.60,355.37 736.11,356.84 725.63,359.36 715.14,360.80 704.66,358.29 694.17,351.89 683.69,346.66 673.20,345.37 662.71,347.19 652.23,344.27 641.74,342.80 631.26,338.73 620.77,335.03 610.29,328.03 599.80,321.05 589.31,312.93 578.83,314.99 568.34,313.05 557.86,312.26 547.37,305.82 536.89,312.14 526.40,313.89 515.91,306.31 505.43,298.82 494.94,292.60 484.46,292.05 473.97,292.21 463.49,289.71 453.00,291.26 442.51,287.84 432.03,283.81 421.54,280.39 411.06,273.43 400.57,275.68 390.09,277.92 379.60,274.06 369.11,272.43 358.63,273.02 348.14,266.92 337.66,257.50 327.17,247.87 316.69,249.26 306.20,253.40 295.71,252.90 285.23,247.27 274.74,240.98 264.26,239.29 253.77,241.35 243.29,241.29 232.80,254.20 222.31,256.67 211.83,270.17 201.34,278.06 190.86,283.28 180.37,281.20 169.89,286.89 159.40,291.18 148.91,294.81 138.43,304.76 127.94,308.15 117.46,329.74 106.97,335.14 96.49,334.07 86.00,333.62" fill="#CC3311" opacity="0.12"/>
<path d="M86.00,315.09 L96.49,315.45 L106.97,316.40 L117.46,311.55 L127.94,290.36 L138.43,286.21 L148.91,276.13 L159.40,272.29 L169.89,268.04 L180.37,262.21 L190.86,264.16 L201.34,259.10 L211.83,251.20 L222.31,237.91 L232.80,235.41 L243.29,222.84 L253.77,222.70 L264.26,221.05 L274.74,222.59 L285.23,228.87 L295.71,234.18 L306.20,234.76 L316.69,230.64 L327.17,229.30 L337.66,238.89 L348.14,247.91 L358.63,253.83 L369.11,253.62 L379.60,254.95 L390.09,259.06 L400.57,256.77 L411.06,254.43 L421.54,261.39 L432.03,264.87 L442.51,268.73 L453.00,272.29 L463.49,270.48 L473.97,273.15 L484.46,272.90 L494.94,273.65 L505.43,279.79 L515.91,287.27 L526.40,294.80 L536.89,293.19 L547.37,286.92 L557.86,293.13 L568.34,294.00 L578.83,296.09 L589.31,293.88 L599.80,302.22 L610.29,309.24 L620.77,316.43 L631.26,320.20 L641.74,324.41 L652.23,325.78 L662.71,328.85 L673.20,327.01 L683.69,328.41 L694.17,333.62 L704.66,340.41 L715.14,342.95 L725.63,341.58 L736.11,338.83 L746.60,337.31 L757.09,339.56 L767.57,330.89 L778.06,332.68 L788.54,329.70 L799.03,327.87 L809.51,331.43" fill="none" stroke="#CC3311" stroke-width="3" stroke-linejoin="round" stroke-linecap="round"/>
<polygon points="86.00,292.36 96.49,290.16 106.97,285.96 117.46,280.85 127.94,277.57 138.43,263.38 148.91,267.69 159.40,270.44 169.89,276.85 180.37,284.74 190.86,284.23 201.34,292.28 211.83,302.02 222.31,313.85 232.80,316.23 243.29,327.40 253.77,331.40 264.26,340.50 274.74,347.40 285.23,347.52 295.71,343.64 306.20,338.70 316.69,343.24 327.17,343.71 337.66,334.19 348.14,323.49 358.63,318.67 369.11,315.47 379.60,314.86 390.09,312.77 400.57,313.28 411.06,316.56 421.54,309.33 432.03,306.53 442.51,304.35 453.00,306.53 463.49,309.59 473.97,307.51 484.46,302.23 494.94,296.23 505.43,294.61 515.91,292.09 526.40,286.47 536.89,283.70 547.37,284.29 557.86,283.42 568.34,289.01 578.83,287.27 589.31,292.54 599.80,289.33 610.29,282.76 620.77,277.75 631.26,267.36 641.74,269.30 652.23,270.21 662.71,268.55 673.20,273.87 683.69,274.00 694.17,265.14 704.66,258.00 715.14,251.52 725.63,253.75 736.11,249.46 746.60,252.47 757.09,260.06 767.57,261.65 778.06,254.59 788.54,254.08 799.03,251.71 809.51,249.80 809.51,288.35 799.03,289.94 788.54,292.46 778.06,292.72 767.57,299.85 757.09,298.40 746.60,290.41 736.11,287.51 725.63,291.79 715.14,289.63 704.66,295.92 694.17,303.31 683.69,311.68 673.20,311.74 662.71,306.33 652.23,308.47 641.74,307.27 631.26,305.25 620.77,315.71 610.29,320.50 599.80,326.85 589.31,329.98 578.83,324.45 568.34,326.44 557.86,321.37 547.37,321.36 536.89,321.21 526.40,324.17 515.91,329.59 505.43,331.53 494.94,333.02 484.46,339.29 473.97,344.43 463.49,346.16 453.00,343.33 442.51,341.25 432.03,343.25 421.54,345.61 411.06,352.61 400.57,349.47 390.09,348.71 379.60,351.27 369.11,351.47 358.63,355.08 348.14,359.18 337.66,368.74 327.17,377.64 316.69,377.15 306.20,373.00 295.71,377.63 285.23,381.02 274.74,380.71 264.26,374.62 253.77,366.65 243.29,362.68 232.80,352.40 222.31,349.85 211.83,338.97 201.34,329.24 190.86,321.98 180.37,322.02 169.89,314.25 159.40,308.09 148.91,304.96 138.43,300.77 127.94,313.30 117.46,317.87 106.97,323.87 96.49,327.44 86.00,329.63" fill="#0077BB" opacity="0.12"/>
<path d="M86.00,310.99 L96.49,308.80 L106.97,304.92 L117.46,299.36 L127.94,295.44 L138.43,282.07 L148.91,286.32 L159.40,289.27 L169.89,295.55 L180.37,303.38 L190.86,303.11 L201.34,310.76 L211.83,320.49 L222.31,331.85 L232.80,334.31 L243.29,345.04 L253.77,349.02 L264.26,357.56 L274.74,364.06 L285.23,364.27 L295.71,360.64 L306.20,355.85 L316.69,360.19 L327.17,360.67 L337.66,351.47 L348.14,341.33 L358.63,336.87 L369.11,333.47 L379.60,333.06 L390.09,330.74 L400.57,331.37 L411.06,334.58 L421.54,327.47 L432.03,324.89 L442.51,322.80 L453.00,324.93 L463.49,327.87 L473.97,325.97 L484.46,320.76 L494.94,314.63 L505.43,313.07 L515.91,310.84 L526.40,305.32 L536.89,302.46 L547.37,302.82 L557.86,302.40 L568.34,307.72 L578.83,305.86 L589.31,311.26 L599.80,308.09 L610.29,301.63 L620.77,296.73 L631.26,286.30 L641.74,288.29 L652.23,289.34 L662.71,287.44 L673.20,292.80 L683.69,292.84 L694.17,284.23 L704.66,276.96 L715.14,270.58 L725.63,272.77 L736.11,268.48 L746.60,271.44 L757.09,279.23 L767.57,280.75 L778.06,273.65 L788.54,273.27 L799.03,270.83 L809.51,269.08" fill="none" stroke="#0077BB" stroke-width="3" stroke-linejoin="round" stroke-linecap="round"/>
<line x1="655" x2="683" y1="107" y2="107" stroke="#CC3311" stroke-width="3"/>
<text class="legend" x="693" y="111">Agent</text>
<line x1="655" x2="683" y1="129" y2="129" stroke="#0077BB" stroke-width="3"/>
<text class="legend" x="693" y="133">Patient</text>
<line x1="655" x2="683" y1="151" y2="151" stroke="#333333" stroke-width="2" stroke-dasharray="7 6"/>
<text class="legend" x="693" y="155">Mean speech onset</text>
</svg>