<svg xmlns="http://www.w3.org/2000/svg" width="1920" height="1320" viewBox="0 0 1920 1320">
<image href="https://raw.githubusercontent.com/mkurg/koryak/main/stimuli/Animate-animate%20centered%20and%20flipped/give_water-1-1-r.png" x="0" y="0" width="1920" height="1080" preserveAspectRatio="none"/>
<rect x="0" y="0" width="1920" height="1080" fill="none" stroke="#111" stroke-width="2"/>
<rect x="0" y="1080" width="1920" height="240" fill="#f7f7f7"/>
<rect x="970.0" y="100.0" width="850" height="850" fill="none" stroke="#00B8D9" stroke-width="6" stroke-dasharray="18 12"/>
<rect x="982.0" y="62.0" width="102.0" height="38" rx="6" fill="white" fill-opacity="0.86" stroke="#00B8D9" stroke-width="3"/>
<text x="992.0" y="88.0" font-family="Arial, Helvetica, sans-serif" font-size="24" font-weight="700" fill="#111">AGENT</text>
<rect x="40.0" y="100.0" width="850" height="850" fill="none" stroke="#FF3B8A" stroke-width="6" stroke-dasharray="18 12"/>
<rect x="52.0" y="62.0" width="134.0" height="38" rx="6" fill="white" fill-opacity="0.86" stroke="#FF3B8A" stroke-width="3"/>
<text x="62.0" y="88.0" font-family="Arial, Helvetica, sans-serif" font-size="24" font-weight="700" fill="#111">PATIENT</text>
<polyline points="987.8,583.8 926.1,427.0 911.1,396.4 1046.3,436.3 921.7,397.4 915.2,359.7 1237.5,372.2 1256.1,363.0 1278.9,355.8 1297.2,595.3 1328.2,398.3 1271.5,375.4 1272.9,327.5 1259.7,354.5 1316.7,558.4 1301.5,389.7 1278.5,359.5 1258.3,352.6 1293.8,323.7 1261.0,347.3 1268.4,378.2 1339.0,653.4 1336.4,610.2 1300.9,365.5 1272.7,359.0 1095.0,445.2 1063.2,452.4 892.5,389.4 916.5,372.6 1243.6,365.0 1268.2,372.9 1298.0,626.6 1275.8,387.1 1258.0,360.5 1281.5,314.5 1258.1,354.5 1283.5,369.9 1319.1,537.0 1309.7,404.6 1304.6,366.3 1257.1,394.2 1316.9,515.5 1284.5,370.4 1247.4,493.5 1236.7,386.8 1268.3,641.0 1243.3,713.0 1247.8,409.3 1218.8,386.1 1037.4,456.1 927.5,418.4 1242.6,441.8 1232.8,442.9 1247.6,335.6 1225.1,355.1 1255.9,332.2 1337.3,563.7 1312.8,387.0 1281.2,312.1 1208.2,380.4 1248.2,363.4 1267.7,482.4 1293.2,318.5 1217.5,402.6 1235.2,379.9 1110.7,431.1 1053.6,446.7 1032.6,428.3 913.7,373.6 1260.2,365.4 1260.9,326.4 1292.5,569.0 1302.6,726.4 1296.6,390.5 1258.0,356.6 1304.4,623.1 1266.5,355.5 1278.2,589.0 1277.7,344.5 1282.5,675.7 1283.9,380.3 1306.2,289.4 1265.7,346.8 1243.2,501.4 1260.6,341.8 1327.1,747.7 1290.9,398.1 1234.9,364.5 1049.3,455.7 1188.2,462.6 1258.3,402.7 1078.5,479.6 1042.4,467.9 914.2,389.9 1065.2,449.5 923.7,400.4 893.5,383.0" fill="none" stroke="#111" stroke-width="4" stroke-opacity="0.36" stroke-linejoin="round"/>
<circle cx="987.8" cy="583.8" r="15.8" fill="white" fill-opacity="0.84"/>
<circle cx="987.8" cy="583.8" r="12.8" fill="#005DFF" fill-opacity="0.66" stroke="#111" stroke-width="2.5"/>
<text x="987.8" y="590.8" text-anchor="middle" font-family="Arial, Helvetica, sans-serif" font-size="21" font-weight="800" fill="white" stroke="#111" stroke-width="3" paint-order="stroke">1</text>
<circle cx="926.1" cy="427.0" r="15.4" fill="white" fill-opacity="0.84"/>
<circle cx="926.1" cy="427.0" r="12.4" fill="#005DFF" fill-opacity="0.66" stroke="#111" stroke-width="2.5"/>
<text x="926.1" y="434.0" text-anchor="middle" font-family="Arial, Helvetica, sans-serif" font-size="21" font-weight="800" fill="white" stroke="#111" stroke-width="3" paint-order="stroke">2</text>
<circle cx="911.1" cy="396.4" r="15.6" fill="white" fill-opacity="0.84"/>
<circle cx="911.1" cy="396.4" r="12.6" fill="#005DFF" fill-opacity="0.66" stroke="#111" stroke-width="2.5"/>
<text x="911.1" y="403.4" text-anchor="middle" font-family="Arial, Helvetica, sans-serif" font-size="21" font-weight="800" fill="white" stroke="#111" stroke-width="3" paint-order="stroke">3</text>
<circle cx="1046.3" cy="436.3" r="17.7" fill="white" fill-opacity="0.84"/>
<circle cx="1046.3" cy="436.3" r="14.7" fill="#005DFF" fill-opacity="0.66" stroke="#111" stroke-width="2.5"/>
<text x="1046.3" y="443.3" text-anchor="middle" font-family="Arial, Helvetica, sans-serif" font-size="21" font-weight="800" fill="white" stroke="#111" stroke-width="3" paint-order="stroke">4</text>
<circle cx="921.7" cy="397.4" r="21.2" fill="white" fill-opacity="0.84"/>
<circle cx="921.7" cy="397.4" r="18.2" fill="#005DFF" fill-opacity="0.66" stroke="#111" stroke-width="2.5"/>
<text x="921.7" y="404.4" text-anchor="middle" font-family="Arial, Helvetica, sans-serif" font-size="21" font-weight="800" fill="white" stroke="#111" stroke-width="3" paint-order="stroke">5</text>
<circle cx="915.2" cy="359.7" r="17.0" fill="white" fill-opacity="0.84"/>
<circle cx="915.2" cy="359.7" r="14.0" fill="#005DFF" fill-opacity="0.66" stroke="#111" stroke-width="2.5"/>
<text x="915.2" y="366.7" text-anchor="middle" font-family="Arial, Helvetica, sans-serif" font-size="21" font-weight="800" fill="white" stroke="#111" stroke-width="3" paint-order="stroke">6</text>
<circle cx="1237.5" cy="372.2" r="18.6" fill="white" fill-opacity="0.84"/>
<circle cx="1237.5" cy="372.2" r="15.6" fill="#005DFF" fill-opacity="0.66" stroke="#111" stroke-width="2.5"/>
<text x="1237.5" y="379.2" text-anchor="middle" font-family="Arial, Helvetica, sans-serif" font-size="21" font-weight="800" fill="white" stroke="#111" stroke-width="3" paint-order="stroke">7</text>
<circle cx="1256.1" cy="363.0" r="18.7" fill="white" fill-opacity="0.84"/>
<circle cx="1256.1" cy="363.0" r="15.7" fill="#005DFF" fill-opacity="0.66" stroke="#111" stroke-width="2.5"/>
<text x="1256.1" y="370.0" text-anchor="middle" font-family="Arial, Helvetica, sans-serif" font-size="21" font-weight="800" fill="white" stroke="#111" stroke-width="3" paint-order="stroke">8</text>
<circle cx="1278.9" cy="355.8" r="16.4" fill="white" fill-opacity="0.84"/>
<circle cx="1278.9" cy="355.8" r="13.4" fill="#005DFF" fill-opacity="0.66" stroke="#111" stroke-width="2.5"/>
<text x="1278.9" y="362.8" text-anchor="middle" font-family="Arial, Helvetica, sans-serif" font-size="21" font-weight="800" fill="white" stroke="#111" stroke-width="3" paint-order="stroke">9</text>
<circle cx="1297.2" cy="595.3" r="16.8" fill="white" fill-opacity="0.84"/>
<circle cx="1297.2" cy="595.3" r="13.8" fill="#005DFF" fill-opacity="0.66" stroke="#111" stroke-width="2.5"/>
<text x="1297.2" y="602.3" text-anchor="middle" font-family="Arial, Helvetica, sans-serif" font-size="21" font-weight="800" fill="white" stroke="#111" stroke-width="3" paint-order="stroke">10</text>
<circle cx="1328.2" cy="398.3" r="16.0" fill="white" fill-opacity="0.84"/>
<circle cx="1328.2" cy="398.3" r="13.0" fill="#005DFF" fill-opacity="0.66" stroke="#111" stroke-width="2.5"/>
<text x="1328.2" y="405.3" text-anchor="middle" font-family="Arial, Helvetica, sans-serif" font-size="21" font-weight="800" fill="white" stroke="#111" stroke-width="3" paint-order="stroke">11</text>
<circle cx="1271.5" cy="375.4" r="14.8" fill="white" fill-opacity="0.84"/>
<circle cx="1271.5" cy="375.4" r="11.8" fill="#005DFF" fill-opacity="0.66" stroke="#111" stroke-width="2.5"/>
<text x="1271.5" y="382.4" text-anchor="middle" font-family="Arial, Helvetica, sans-serif" font-size="21" font-weight="800" fill="white" stroke="#111" stroke-width="3" paint-order="stroke">12</text>
<circle cx="1272.9" cy="327.5" r="16.4" fill="white" fill-opacity="0.84"/>
<circle cx="1272.9" cy="327.5" r="13.4" fill="#005DFF" fill-opacity="0.66" stroke="#111" stroke-width="2.5"/>
<text x="1272.9" y="334.5" text-anchor="middle" font-family="Arial, Helvetica, sans-serif" font-size="21" font-weight="800" fill="white" stroke="#111" stroke-width="3" paint-order="stroke">13</text>
<circle cx="1259.7" cy="354.5" r="16.4" fill="white" fill-opacity="0.84"/>
<circle cx="1259.7" cy="354.5" r="13.4" fill="#005DFF" fill-opacity="0.66" stroke="#111" stroke-width="2.5"/>
<text x="1259.7" y="361.5" text-anchor="middle" font-family="Arial, Helvetica, sans-serif" font-size="21" font-weight="800" fill="white" stroke="#111" stroke-width="3" paint-order="stroke">14</text>
<circle cx="1316.7" cy="558.4" r="17.4" fill="white" fill-opacity="0.84"/>
<circle cx="1316.7" cy="558.4" r="14.4" fill="#005DFF" fill-opacity="0.66" stroke="#111" stroke-width="2.5"/>
<text x="1316.7" y="565.4" text-anchor="middle" font-family="Arial, Helvetica, sans-serif" font-size="21" font-weight="800" fill="white" stroke="#111" stroke-width="3" paint-order="stroke">15</text>
<circle cx="1301.5" cy="389.7" r="15.4" fill="white" fill-opacity="0.84"/>
<circle cx="1301.5" cy="389.7" r="12.4" fill="#005DFF" fill-opacity="0.66" stroke="#111" stroke-width="2.5"/>
<text x="1301.5" y="396.7" text-anchor="middle" font-family="Arial, Helvetica, sans-serif" font-size="21" font-weight="800" fill="white" stroke="#111" stroke-width="3" paint-order="stroke">16</text>
<circle cx="1278.5" cy="359.5" r="17.5" fill="white" fill-opacity="0.84"/>
<circle cx="1278.5" cy="359.5" r="14.5" fill="#005DFF" fill-opacity="0.66" stroke="#111" stroke-width="2.5"/>
<text x="1278.5" y="366.5" text-anchor="middle" font-family="Arial, Helvetica, sans-serif" font-size="21" font-weight="800" fill="white" stroke="#111" stroke-width="3" paint-order="stroke">17</text>
<circle cx="1258.3" cy="352.6" r="16.7" fill="white" fill-opacity="0.84"/>
<circle cx="1258.3" cy="352.6" r="13.7" fill="#005DFF" fill-opacity="0.66" stroke="#111" stroke-width="2.5"/>
<text x="1258.3" y="359.6" text-anchor="middle" font-family="Arial, Helvetica, sans-serif" font-size="21" font-weight="800" fill="white" stroke="#111" stroke-width="3" paint-order="stroke">18</text>
<circle cx="1293.8" cy="323.7" r="17.6" fill="white" fill-opacity="0.84"/>
<circle cx="1293.8" cy="323.7" r="14.6" fill="#005DFF" fill-opacity="0.66" stroke="#111" stroke-width="2.5"/>
<text x="1293.8" y="330.7" text-anchor="middle" font-family="Arial, Helvetica, sans-serif" font-size="21" font-weight="800" fill="white" stroke="#111" stroke-width="3" paint-order="stroke">19</text>
<circle cx="1261.0" cy="347.3" r="16.8" fill="white" fill-opacity="0.84"/>
<circle cx="1261.0" cy="347.3" r="13.8" fill="#005DFF" fill-opacity="0.66" stroke="#111" stroke-width="2.5"/>
<text x="1261.0" y="354.3" text-anchor="middle" font-family="Arial, Helvetica, sans-serif" font-size="21" font-weight="800" fill="white" stroke="#111" stroke-width="3" paint-order="stroke">20</text>
<circle cx="1268.4" cy="378.2" r="16.0" fill="white" fill-opacity="0.84"/>
<circle cx="1268.4" cy="378.2" r="13.0" fill="#005DFF" fill-opacity="0.66" stroke="#111" stroke-width="2.5"/>
<text x="1268.4" y="385.2" text-anchor="middle" font-family="Arial, Helvetica, sans-serif" font-size="21" font-weight="800" fill="white" stroke="#111" stroke-width="3" paint-order="stroke">21</text>
<circle cx="1339.0" cy="653.4" r="17.4" fill="white" fill-opacity="0.84"/>
<circle cx="1339.0" cy="653.4" r="14.4" fill="#005DFF" fill-opacity="0.66" stroke="#111" stroke-width="2.5"/>
<text x="1339.0" y="660.4" text-anchor="middle" font-family="Arial, Helvetica, sans-serif" font-size="21" font-weight="800" fill="white" stroke="#111" stroke-width="3" paint-order="stroke">22</text>
<circle cx="1336.4" cy="610.2" r="15.7" fill="white" fill-opacity="0.84"/>
<circle cx="1336.4" cy="610.2" r="12.7" fill="#005DFF" fill-opacity="0.66" stroke="#111" stroke-width="2.5"/>
<text x="1336.4" y="617.2" text-anchor="middle" font-family="Arial, Helvetica, sans-serif" font-size="21" font-weight="800" fill="white" stroke="#111" stroke-width="3" paint-order="stroke">23</text>
<circle cx="1300.9" cy="365.5" r="16.8" fill="white" fill-opacity="0.84"/>
<circle cx="1300.9" cy="365.5" r="13.8" fill="#005DFF" fill-opacity="0.66" stroke="#111" stroke-width="2.5"/>
<text x="1300.9" y="372.5" text-anchor="middle" font-family="Arial, Helvetica, sans-serif" font-size="21" font-weight="800" fill="white" stroke="#111" stroke-width="3" paint-order="stroke">24</text>
<circle cx="1272.7" cy="359.0" r="15.8" fill="white" fill-opacity="0.84"/>
<circle cx="1272.7" cy="359.0" r="12.8" fill="#005DFF" fill-opacity="0.66" stroke="#111" stroke-width="2.5"/>
<text x="1272.7" y="366.0" text-anchor="middle" font-family="Arial, Helvetica, sans-serif" font-size="21" font-weight="800" fill="white" stroke="#111" stroke-width="3" paint-order="stroke">25</text>
<circle cx="1095.0" cy="445.2" r="17.0" fill="white" fill-opacity="0.84"/>
<circle cx="1095.0" cy="445.2" r="14.0" fill="#005DFF" fill-opacity="0.66" stroke="#111" stroke-width="2.5"/>
<text x="1095.0" y="452.2" text-anchor="middle" font-family="Arial, Helvetica, sans-serif" font-size="21" font-weight="800" fill="white" stroke="#111" stroke-width="3" paint-order="stroke">26</text>
<circle cx="1063.2" cy="452.4" r="16.8" fill="white" fill-opacity="0.84"/>
<circle cx="1063.2" cy="452.4" r="13.8" fill="#005DFF" fill-opacity="0.66" stroke="#111" stroke-width="2.5"/>
<text x="1063.2" y="459.4" text-anchor="middle" font-family="Arial, Helvetica, sans-serif" font-size="21" font-weight="800" fill="white" stroke="#111" stroke-width="3" paint-order="stroke">27</text>
<circle cx="892.5" cy="389.4" r="17.1" fill="white" fill-opacity="0.84"/>
<circle cx="892.5" cy="389.4" r="14.1" fill="#005DFF" fill-opacity="0.66" stroke="#111" stroke-width="2.5"/>
<text x="892.5" y="396.4" text-anchor="middle" font-family="Arial, Helvetica, sans-serif" font-size="21" font-weight="800" fill="white" stroke="#111" stroke-width="3" paint-order="stroke">28</text>
<circle cx="916.5" cy="372.6" r="20.1" fill="white" fill-opacity="0.84"/>
<circle cx="916.5" cy="372.6" r="17.1" fill="#005DFF" fill-opacity="0.66" stroke="#111" stroke-width="2.5"/>
<text x="916.5" y="379.6" text-anchor="middle" font-family="Arial, Helvetica, sans-serif" font-size="21" font-weight="800" fill="white" stroke="#111" stroke-width="3" paint-order="stroke">29</text>
<circle cx="1243.6" cy="365.0" r="16.5" fill="white" fill-opacity="0.84"/>
<circle cx="1243.6" cy="365.0" r="13.5" fill="#005DFF" fill-opacity="0.66" stroke="#111" stroke-width="2.5"/>
<text x="1243.6" y="372.0" text-anchor="middle" font-family="Arial, Helvetica, sans-serif" font-size="21" font-weight="800" fill="white" stroke="#111" stroke-width="3" paint-order="stroke">30</text>
<circle cx="1268.2" cy="372.9" r="16.4" fill="white" fill-opacity="0.84"/>
<circle cx="1268.2" cy="372.9" r="13.4" fill="#005DFF" fill-opacity="0.66" stroke="#111" stroke-width="2.5"/>
<text x="1268.2" y="379.9" text-anchor="middle" font-family="Arial, Helvetica, sans-serif" font-size="21" font-weight="800" fill="white" stroke="#111" stroke-width="3" paint-order="stroke">31</text>
<circle cx="1298.0" cy="626.6" r="16.6" fill="white" fill-opacity="0.84"/>
<circle cx="1298.0" cy="626.6" r="13.6" fill="#005DFF" fill-opacity="0.66" stroke="#111" stroke-width="2.5"/>
<text x="1298.0" y="633.6" text-anchor="middle" font-family="Arial, Helvetica, sans-serif" font-size="21" font-weight="800" fill="white" stroke="#111" stroke-width="3" paint-order="stroke">32</text>
<circle cx="1275.8" cy="387.1" r="15.9" fill="white" fill-opacity="0.84"/>
<circle cx="1275.8" cy="387.1" r="12.9" fill="#005DFF" fill-opacity="0.66" stroke="#111" stroke-width="2.5"/>
<text x="1275.8" y="394.1" text-anchor="middle" font-family="Arial, Helvetica, sans-serif" font-size="21" font-weight="800" fill="white" stroke="#111" stroke-width="3" paint-order="stroke">33</text>
<circle cx="1258.0" cy="360.5" r="14.7" fill="white" fill-opacity="0.84"/>
<circle cx="1258.0" cy="360.5" r="11.7" fill="#005DFF" fill-opacity="0.66" stroke="#111" stroke-width="2.5"/>
<text x="1258.0" y="367.5" text-anchor="middle" font-family="Arial, Helvetica, sans-serif" font-size="21" font-weight="800" fill="white" stroke="#111" stroke-width="3" paint-order="stroke">34</text>
<circle cx="1281.5" cy="314.5" r="18.0" fill="white" fill-opacity="0.84"/>
<circle cx="1281.5" cy="314.5" r="15.0" fill="#005DFF" fill-opacity="0.66" stroke="#111" stroke-width="2.5"/>
<text x="1281.5" y="321.5" text-anchor="middle" font-family="Arial, Helvetica, sans-serif" font-size="21" font-weight="800" fill="white" stroke="#111" stroke-width="3" paint-order="stroke">35</text>
<circle cx="1258.1" cy="354.5" r="13.6" fill="white" fill-opacity="0.84"/>
<circle cx="1258.1" cy="354.5" r="10.6" fill="#005DFF" fill-opacity="0.66" stroke="#111" stroke-width="2.5"/>
<text x="1258.1" y="361.5" text-anchor="middle" font-family="Arial, Helvetica, sans-serif" font-size="21" font-weight="800" fill="white" stroke="#111" stroke-width="3" paint-order="stroke">36</text>
<circle cx="1283.5" cy="369.9" r="14.4" fill="white" fill-opacity="0.84"/>
<circle cx="1283.5" cy="369.9" r="11.4" fill="#005DFF" fill-opacity="0.66" stroke="#111" stroke-width="2.5"/>
<text x="1283.5" y="376.9" text-anchor="middle" font-family="Arial, Helvetica, sans-serif" font-size="21" font-weight="800" fill="white" stroke="#111" stroke-width="3" paint-order="stroke">37</text>
<circle cx="1319.1" cy="537.0" r="16.5" fill="white" fill-opacity="0.84"/>
<circle cx="1319.1" cy="537.0" r="13.5" fill="#005DFF" fill-opacity="0.66" stroke="#111" stroke-width="2.5"/>
<text x="1319.1" y="544.0" text-anchor="middle" font-family="Arial, Helvetica, sans-serif" font-size="21" font-weight="800" fill="white" stroke="#111" stroke-width="3" paint-order="stroke">38</text>
<circle cx="1309.7" cy="404.6" r="14.4" fill="white" fill-opacity="0.84"/>
<circle cx="1309.7" cy="404.6" r="11.4" fill="#005DFF" fill-opacity="0.66" stroke="#111" stroke-width="2.5"/>
<text x="1309.7" y="411.6" text-anchor="middle" font-family="Arial, Helvetica, sans-serif" font-size="21" font-weight="800" fill="white" stroke="#111" stroke-width="3" paint-order="stroke">39</text>
<circle cx="1304.6" cy="366.3" r="16.8" fill="white" fill-opacity="0.84"/>
<circle cx="1304.6" cy="366.3" r="13.8" fill="#005DFF" fill-opacity="0.66" stroke="#111" stroke-width="2.5"/>
<text x="1304.6" y="373.3" text-anchor="middle" font-family="Arial, Helvetica, sans-serif" font-size="21" font-weight="800" fill="white" stroke="#111" stroke-width="3" paint-order="stroke">40</text>
<circle cx="1257.1" cy="394.2" r="15.2" fill="white" fill-opacity="0.84"/>
<circle cx="1257.1" cy="394.2" r="12.2" fill="#005DFF" fill-opacity="0.66" stroke="#111" stroke-width="2.5"/>
<text x="1257.1" y="401.2" text-anchor="middle" font-family="Arial, Helvetica, sans-serif" font-size="21" font-weight="800" fill="white" stroke="#111" stroke-width="3" paint-order="stroke">41</text>
<circle cx="1316.9" cy="515.5" r="14.2" fill="white" fill-opacity="0.84"/>
<circle cx="1316.9" cy="515.5" r="11.2" fill="#005DFF" fill-opacity="0.66" stroke="#111" stroke-width="2.5"/>
<text x="1316.9" y="522.5" text-anchor="middle" font-family="Arial, Helvetica, sans-serif" font-size="21" font-weight="800" fill="white" stroke="#111" stroke-width="3" paint-order="stroke">42</text>
<circle cx="1284.5" cy="370.4" r="17.1" fill="white" fill-opacity="0.84"/>
<circle cx="1284.5" cy="370.4" r="14.1" fill="#005DFF" fill-opacity="0.66" stroke="#111" stroke-width="2.5"/>
<text x="1284.5" y="377.4" text-anchor="middle" font-family="Arial, Helvetica, sans-serif" font-size="21" font-weight="800" fill="white" stroke="#111" stroke-width="3" paint-order="stroke">43</text>
<circle cx="1247.4" cy="493.5" r="15.8" fill="white" fill-opacity="0.84"/>
<circle cx="1247.4" cy="493.5" r="12.8" fill="#005DFF" fill-opacity="0.66" stroke="#111" stroke-width="2.5"/>
<text x="1247.4" y="500.5" text-anchor="middle" font-family="Arial, Helvetica, sans-serif" font-size="21" font-weight="800" fill="white" stroke="#111" stroke-width="3" paint-order="stroke">44</text>
<circle cx="1236.7" cy="386.8" r="17.6" fill="white" fill-opacity="0.84"/>
<circle cx="1236.7" cy="386.8" r="14.6" fill="#005DFF" fill-opacity="0.66" stroke="#111" stroke-width="2.5"/>
<text x="1236.7" y="393.8" text-anchor="middle" font-family="Arial, Helvetica, sans-serif" font-size="21" font-weight="800" fill="white" stroke="#111" stroke-width="3" paint-order="stroke">45</text>
<circle cx="1268.3" cy="641.0" r="15.1" fill="white" fill-opacity="0.84"/>
<circle cx="1268.3" cy="641.0" r="12.1" fill="#005DFF" fill-opacity="0.66" stroke="#111" stroke-width="2.5"/>
<text x="1268.3" y="648.0" text-anchor="middle" font-family="Arial, Helvetica, sans-serif" font-size="21" font-weight="800" fill="white" stroke="#111" stroke-width="3" paint-order="stroke">46</text>
<circle cx="1243.3" cy="713.0" r="15.1" fill="white" fill-opacity="0.84"/>
<circle cx="1243.3" cy="713.0" r="12.1" fill="#005DFF" fill-opacity="0.66" stroke="#111" stroke-width="2.5"/>
<text x="1243.3" y="720.0" text-anchor="middle" font-family="Arial, Helvetica, sans-serif" font-size="21" font-weight="800" fill="white" stroke="#111" stroke-width="3" paint-order="stroke">47</text>
<circle cx="1247.8" cy="409.3" r="15.2" fill="white" fill-opacity="0.84"/>
<circle cx="1247.8" cy="409.3" r="12.2" fill="#005DFF" fill-opacity="0.66" stroke="#111" stroke-width="2.5"/>
<text x="1247.8" y="416.3" text-anchor="middle" font-family="Arial, Helvetica, sans-serif" font-size="21" font-weight="800" fill="white" stroke="#111" stroke-width="3" paint-order="stroke">48</text>
<circle cx="1218.8" cy="386.1" r="16.6" fill="white" fill-opacity="0.84"/>
<circle cx="1218.8" cy="386.1" r="13.6" fill="#005DFF" fill-opacity="0.66" stroke="#111" stroke-width="2.5"/>
<text x="1218.8" y="393.1" text-anchor="middle" font-family="Arial, Helvetica, sans-serif" font-size="21" font-weight="800" fill="white" stroke="#111" stroke-width="3" paint-order="stroke">49</text>
<circle cx="1037.4" cy="456.1" r="16.7" fill="white" fill-opacity="0.84"/>
<circle cx="1037.4" cy="456.1" r="13.7" fill="#005DFF" fill-opacity="0.66" stroke="#111" stroke-width="2.5"/>
<text x="1037.4" y="463.1" text-anchor="middle" font-family="Arial, Helvetica, sans-serif" font-size="21" font-weight="800" fill="white" stroke="#111" stroke-width="3" paint-order="stroke">50</text>
<circle cx="927.5" cy="418.4" r="16.5" fill="white" fill-opacity="0.84"/>
<circle cx="927.5" cy="418.4" r="13.5" fill="#005DFF" fill-opacity="0.66" stroke="#111" stroke-width="2.5"/>
<text x="927.5" y="425.4" text-anchor="middle" font-family="Arial, Helvetica, sans-serif" font-size="21" font-weight="800" fill="white" stroke="#111" stroke-width="3" paint-order="stroke">51</text>
<circle cx="1242.6" cy="441.8" r="16.4" fill="white" fill-opacity="0.84"/>
<circle cx="1242.6" cy="441.8" r="13.4" fill="#005DFF" fill-opacity="0.66" stroke="#111" stroke-width="2.5"/>
<text x="1242.6" y="448.8" text-anchor="middle" font-family="Arial, Helvetica, sans-serif" font-size="21" font-weight="800" fill="white" stroke="#111" stroke-width="3" paint-order="stroke">52</text>
<circle cx="1232.8" cy="442.9" r="18.2" fill="white" fill-opacity="0.84"/>
<circle cx="1232.8" cy="442.9" r="15.2" fill="#005DFF" fill-opacity="0.66" stroke="#111" stroke-width="2.5"/>
<text x="1232.8" y="449.9" text-anchor="middle" font-family="Arial, Helvetica, sans-serif" font-size="21" font-weight="800" fill="white" stroke="#111" stroke-width="3" paint-order="stroke">53</text>
<circle cx="1247.6" cy="335.6" r="13.3" fill="white" fill-opacity="0.84"/>
<circle cx="1247.6" cy="335.6" r="10.3" fill="#005DFF" fill-opacity="0.66" stroke="#111" stroke-width="2.5"/>
<text x="1247.6" y="342.6" text-anchor="middle" font-family="Arial, Helvetica, sans-serif" font-size="21" font-weight="800" fill="white" stroke="#111" stroke-width="3" paint-order="stroke">54</text>
<circle cx="1225.1" cy="355.1" r="24.7" fill="white" fill-opacity="0.84"/>
<circle cx="1225.1" cy="355.1" r="21.7" fill="#005DFF" fill-opacity="0.66" stroke="#111" stroke-width="2.5"/>
<text x="1225.1" y="362.1" text-anchor="middle" font-family="Arial, Helvetica, sans-serif" font-size="21" font-weight="800" fill="white" stroke="#111" stroke-width="3" paint-order="stroke">55</text>
<circle cx="1255.9" cy="332.2" r="16.5" fill="white" fill-opacity="0.84"/>
<circle cx="1255.9" cy="332.2" r="13.5" fill="#005DFF" fill-opacity="0.66" stroke="#111" stroke-width="2.5"/>
<text x="1255.9" y="339.2" text-anchor="middle" font-family="Arial, Helvetica, sans-serif" font-size="21" font-weight="800" fill="white" stroke="#111" stroke-width="3" paint-order="stroke">56</text>
<circle cx="1337.3" cy="563.7" r="17.2" fill="white" fill-opacity="0.84"/>
<circle cx="1337.3" cy="563.7" r="14.2" fill="#005DFF" fill-opacity="0.66" stroke="#111" stroke-width="2.5"/>
<text x="1337.3" y="570.7" text-anchor="middle" font-family="Arial, Helvetica, sans-serif" font-size="21" font-weight="800" fill="white" stroke="#111" stroke-width="3" paint-order="stroke">57</text>
<circle cx="1312.8" cy="387.0" r="16.1" fill="white" fill-opacity="0.84"/>
<circle cx="1312.8" cy="387.0" r="13.1" fill="#005DFF" fill-opacity="0.66" stroke="#111" stroke-width="2.5"/>
<text x="1312.8" y="394.0" text-anchor="middle" font-family="Arial, Helvetica, sans-serif" font-size="21" font-weight="800" fill="white" stroke="#111" stroke-width="3" paint-order="stroke">58</text>
<circle cx="1281.2" cy="312.1" r="16.0" fill="white" fill-opacity="0.84"/>
<circle cx="1281.2" cy="312.1" r="13.0" fill="#005DFF" fill-opacity="0.66" stroke="#111" stroke-width="2.5"/>
<text x="1281.2" y="319.1" text-anchor="middle" font-family="Arial, Helvetica, sans-serif" font-size="21" font-weight="800" fill="white" stroke="#111" stroke-width="3" paint-order="stroke">59</text>
<circle cx="1208.2" cy="380.4" r="19.2" fill="white" fill-opacity="0.84"/>
<circle cx="1208.2" cy="380.4" r="16.2" fill="#005DFF" fill-opacity="0.66" stroke="#111" stroke-width="2.5"/>
<text x="1208.2" y="387.4" text-anchor="middle" font-family="Arial, Helvetica, sans-serif" font-size="21" font-weight="800" fill="white" stroke="#111" stroke-width="3" paint-order="stroke">60</text>
<circle cx="1248.2" cy="363.4" r="14.2" fill="white" fill-opacity="0.84"/>
<circle cx="1248.2" cy="363.4" r="11.2" fill="#005DFF" fill-opacity="0.66" stroke="#111" stroke-width="2.5"/>
<text x="1248.2" y="370.4" text-anchor="middle" font-family="Arial, Helvetica, sans-serif" font-size="21" font-weight="800" fill="white" stroke="#111" stroke-width="3" paint-order="stroke">61</text>
<circle cx="1267.7" cy="482.4" r="17.6" fill="white" fill-opacity="0.84"/>
<circle cx="1267.7" cy="482.4" r="14.6" fill="#005DFF" fill-opacity="0.66" stroke="#111" stroke-width="2.5"/>
<text x="1267.7" y="489.4" text-anchor="middle" font-family="Arial, Helvetica, sans-serif" font-size="21" font-weight="800" fill="white" stroke="#111" stroke-width="3" paint-order="stroke">62</text>
<circle cx="1293.2" cy="318.5" r="20.4" fill="white" fill-opacity="0.84"/>
<circle cx="1293.2" cy="318.5" r="17.4" fill="#005DFF" fill-opacity="0.66" stroke="#111" stroke-width="2.5"/>
<text x="1293.2" y="325.5" text-anchor="middle" font-family="Arial, Helvetica, sans-serif" font-size="21" font-weight="800" fill="white" stroke="#111" stroke-width="3" paint-order="stroke">63</text>
<circle cx="1217.5" cy="402.6" r="14.5" fill="white" fill-opacity="0.84"/>
<circle cx="1217.5" cy="402.6" r="11.5" fill="#005DFF" fill-opacity="0.66" stroke="#111" stroke-width="2.5"/>
<text x="1217.5" y="409.6" text-anchor="middle" font-family="Arial, Helvetica, sans-serif" font-size="21" font-weight="800" fill="white" stroke="#111" stroke-width="3" paint-order="stroke">64</text>
<circle cx="1235.2" cy="379.9" r="17.6" fill="white" fill-opacity="0.84"/>
<circle cx="1235.2" cy="379.9" r="14.6" fill="#005DFF" fill-opacity="0.66" stroke="#111" stroke-width="2.5"/>
<text x="1235.2" y="386.9" text-anchor="middle" font-family="Arial, Helvetica, sans-serif" font-size="21" font-weight="800" fill="white" stroke="#111" stroke-width="3" paint-order="stroke">65</text>
<circle cx="1110.7" cy="431.1" r="15.4" fill="white" fill-opacity="0.84"/>
<circle cx="1110.7" cy="431.1" r="12.4" fill="#005DFF" fill-opacity="0.66" stroke="#111" stroke-width="2.5"/>
<text x="1110.7" y="438.1" text-anchor="middle" font-family="Arial, Helvetica, sans-serif" font-size="21" font-weight="800" fill="white" stroke="#111" stroke-width="3" paint-order="stroke">66</text>
<circle cx="1053.6" cy="446.7" r="18.1" fill="white" fill-opacity="0.84"/>
<circle cx="1053.6" cy="446.7" r="15.1" fill="#005DFF" fill-opacity="0.66" stroke="#111" stroke-width="2.5"/>
<text x="1053.6" y="453.7" text-anchor="middle" font-family="Arial, Helvetica, sans-serif" font-size="21" font-weight="800" fill="white" stroke="#111" stroke-width="3" paint-order="stroke">67</text>
<circle cx="1032.6" cy="428.3" r="16.3" fill="white" fill-opacity="0.84"/>
<circle cx="1032.6" cy="428.3" r="13.3" fill="#005DFF" fill-opacity="0.66" stroke="#111" stroke-width="2.5"/>
<text x="1032.6" y="435.3" text-anchor="middle" font-family="Arial, Helvetica, sans-serif" font-size="21" font-weight="800" fill="white" stroke="#111" stroke-width="3" paint-order="stroke">68</text>
<circle cx="913.7" cy="373.6" r="23.0" fill="white" fill-opacity="0.84"/>
<circle cx="913.7" cy="373.6" r="20.0" fill="#005DFF" fill-opacity="0.66" stroke="#111" stroke-width="2.5"/>
<text x="913.7" y="380.6" text-anchor="middle" font-family="Arial, Helvetica, sans-serif" font-size="21" font-weight="800" fill="white" stroke="#111" stroke-width="3" paint-order="stroke">69</text>
<circle cx="1260.2" cy="365.4" r="18.7" fill="white" fill-opacity="0.84"/>
<circle cx="1260.2" cy="365.4" r="15.7" fill="#005DFF" fill-opacity="0.66" stroke="#111" stroke-width="2.5"/>
<text x="1260.2" y="372.4" text-anchor="middle" font-family="Arial, Helvetica, sans-serif" font-size="21" font-weight="800" fill="white" stroke="#111" stroke-width="3" paint-order="stroke">70</text>
<circle cx="1260.9" cy="326.4" r="16.4" fill="white" fill-opacity="0.84"/>
<circle cx="1260.9" cy="326.4" r="13.4" fill="#005DFF" fill-opacity="0.66" stroke="#111" stroke-width="2.5"/>
<text x="1260.9" y="333.4" text-anchor="middle" font-family="Arial, Helvetica, sans-serif" font-size="21" font-weight="800" fill="white" stroke="#111" stroke-width="3" paint-order="stroke">71</text>
<circle cx="1292.5" cy="569.0" r="15.6" fill="white" fill-opacity="0.84"/>
<circle cx="1292.5" cy="569.0" r="12.6" fill="#005DFF" fill-opacity="0.66" stroke="#111" stroke-width="2.5"/>
<text x="1292.5" y="576.0" text-anchor="middle" font-family="Arial, Helvetica, sans-serif" font-size="21" font-weight="800" fill="white" stroke="#111" stroke-width="3" paint-order="stroke">72</text>
<circle cx="1302.6" cy="726.4" r="16.1" fill="white" fill-opacity="0.84"/>
<circle cx="1302.6" cy="726.4" r="13.1" fill="#005DFF" fill-opacity="0.66" stroke="#111" stroke-width="2.5"/>
<text x="1302.6" y="733.4" text-anchor="middle" font-family="Arial, Helvetica, sans-serif" font-size="21" font-weight="800" fill="white" stroke="#111" stroke-width="3" paint-order="stroke">73</text>
<circle cx="1296.6" cy="390.5" r="15.6" fill="white" fill-opacity="0.84"/>
<circle cx="1296.6" cy="390.5" r="12.6" fill="#005DFF" fill-opacity="0.66" stroke="#111" stroke-width="2.5"/>
<text x="1296.6" y="397.5" text-anchor="middle" font-family="Arial, Helvetica, sans-serif" font-size="21" font-weight="800" fill="white" stroke="#111" stroke-width="3" paint-order="stroke">74</text>
<circle cx="1258.0" cy="356.6" r="16.1" fill="white" fill-opacity="0.84"/>
<circle cx="1258.0" cy="356.6" r="13.1" fill="#005DFF" fill-opacity="0.66" stroke="#111" stroke-width="2.5"/>
<text x="1258.0" y="363.6" text-anchor="middle" font-family="Arial, Helvetica, sans-serif" font-size="21" font-weight="800" fill="white" stroke="#111" stroke-width="3" paint-order="stroke">75</text>
<circle cx="1304.4" cy="623.1" r="16.1" fill="white" fill-opacity="0.84"/>
<circle cx="1304.4" cy="623.1" r="13.1" fill="#005DFF" fill-opacity="0.66" stroke="#111" stroke-width="2.5"/>
<text x="1304.4" y="630.1" text-anchor="middle" font-family="Arial, Helvetica, sans-serif" font-size="21" font-weight="800" fill="white" stroke="#111" stroke-width="3" paint-order="stroke">76</text>
<circle cx="1266.5" cy="355.5" r="17.2" fill="white" fill-opacity="0.84"/>
<circle cx="1266.5" cy="355.5" r="14.2" fill="#005DFF" fill-opacity="0.66" stroke="#111" stroke-width="2.5"/>
<text x="1266.5" y="362.5" text-anchor="middle" font-family="Arial, Helvetica, sans-serif" font-size="21" font-weight="800" fill="white" stroke="#111" stroke-width="3" paint-order="stroke">77</text>
<circle cx="1278.2" cy="589.0" r="16.0" fill="white" fill-opacity="0.84"/>
<circle cx="1278.2" cy="589.0" r="13.0" fill="#005DFF" fill-opacity="0.66" stroke="#111" stroke-width="2.5"/>
<text x="1278.2" y="596.0" text-anchor="middle" font-family="Arial, Helvetica, sans-serif" font-size="21" font-weight="800" fill="white" stroke="#111" stroke-width="3" paint-order="stroke">78</text>
<circle cx="1277.7" cy="344.5" r="15.7" fill="white" fill-opacity="0.84"/>
<circle cx="1277.7" cy="344.5" r="12.7" fill="#005DFF" fill-opacity="0.66" stroke="#111" stroke-width="2.5"/>
<text x="1277.7" y="351.5" text-anchor="middle" font-family="Arial, Helvetica, sans-serif" font-size="21" font-weight="800" fill="white" stroke="#111" stroke-width="3" paint-order="stroke">79</text>
<circle cx="1282.5" cy="675.7" r="16.6" fill="white" fill-opacity="0.84"/>
<circle cx="1282.5" cy="675.7" r="13.6" fill="#005DFF" fill-opacity="0.66" stroke="#111" stroke-width="2.5"/>
<text x="1282.5" y="682.7" text-anchor="middle" font-family="Arial, Helvetica, sans-serif" font-size="21" font-weight="800" fill="white" stroke="#111" stroke-width="3" paint-order="stroke">80</text>
<circle cx="1283.9" cy="380.3" r="17.5" fill="white" fill-opacity="0.84"/>
<circle cx="1283.9" cy="380.3" r="14.5" fill="#005DFF" fill-opacity="0.66" stroke="#111" stroke-width="2.5"/>
<text x="1283.9" y="387.3" text-anchor="middle" font-family="Arial, Helvetica, sans-serif" font-size="21" font-weight="800" fill="white" stroke="#111" stroke-width="3" paint-order="stroke">81</text>
<circle cx="1306.2" cy="289.4" r="11.5" fill="white" fill-opacity="0.84"/>
<circle cx="1306.2" cy="289.4" r="8.5" fill="#005DFF" fill-opacity="0.66" stroke="#111" stroke-width="2.5"/>
<text x="1306.2" y="296.4" text-anchor="middle" font-family="Arial, Helvetica, sans-serif" font-size="21" font-weight="800" fill="white" stroke="#111" stroke-width="3" paint-order="stroke">82</text>
<circle cx="1265.7" cy="346.8" r="15.3" fill="white" fill-opacity="0.84"/>
<circle cx="1265.7" cy="346.8" r="12.3" fill="#005DFF" fill-opacity="0.66" stroke="#111" stroke-width="2.5"/>
<text x="1265.7" y="353.8" text-anchor="middle" font-family="Arial, Helvetica, sans-serif" font-size="21" font-weight="800" fill="white" stroke="#111" stroke-width="3" paint-order="stroke">83</text>
<circle cx="1243.2" cy="501.4" r="17.0" fill="white" fill-opacity="0.84"/>
<circle cx="1243.2" cy="501.4" r="14.0" fill="#005DFF" fill-opacity="0.66" stroke="#111" stroke-width="2.5"/>
<text x="1243.2" y="508.4" text-anchor="middle" font-family="Arial, Helvetica, sans-serif" font-size="21" font-weight="800" fill="white" stroke="#111" stroke-width="3" paint-order="stroke">84</text>
<circle cx="1260.6" cy="341.8" r="14.6" fill="white" fill-opacity="0.84"/>
<circle cx="1260.6" cy="341.8" r="11.6" fill="#005DFF" fill-opacity="0.66" stroke="#111" stroke-width="2.5"/>
<text x="1260.6" y="348.8" text-anchor="middle" font-family="Arial, Helvetica, sans-serif" font-size="21" font-weight="800" fill="white" stroke="#111" stroke-width="3" paint-order="stroke">85</text>
<circle cx="1327.1" cy="747.7" r="14.6" fill="white" fill-opacity="0.84"/>
<circle cx="1327.1" cy="747.7" r="11.6" fill="#005DFF" fill-opacity="0.66" stroke="#111" stroke-width="2.5"/>
<text x="1327.1" y="754.7" text-anchor="middle" font-family="Arial, Helvetica, sans-serif" font-size="21" font-weight="800" fill="white" stroke="#111" stroke-width="3" paint-order="stroke">86</text>
<circle cx="1290.9" cy="398.1" r="16.5" fill="white" fill-opacity="0.84"/>
<circle cx="1290.9" cy="398.1" r="13.5" fill="#005DFF" fill-opacity="0.66" stroke="#111" stroke-width="2.5"/>
<text x="1290.9" y="405.1" text-anchor="middle" font-family="Arial, Helvetica, sans-serif" font-size="21" font-weight="800" fill="white" stroke="#111" stroke-width="3" paint-order="stroke">87</text>
<circle cx="1234.9" cy="364.5" r="16.1" fill="white" fill-opacity="0.84"/>
<circle cx="1234.9" cy="364.5" r="13.1" fill="#005DFF" fill-opacity="0.66" stroke="#111" stroke-width="2.5"/>
<text x="1234.9" y="371.5" text-anchor="middle" font-family="Arial, Helvetica, sans-serif" font-size="21" font-weight="800" fill="white" stroke="#111" stroke-width="3" paint-order="stroke">88</text>
<circle cx="1049.3" cy="455.7" r="15.5" fill="white" fill-opacity="0.84"/>
<circle cx="1049.3" cy="455.7" r="12.5" fill="#005DFF" fill-opacity="0.66" stroke="#111" stroke-width="2.5"/>
<text x="1049.3" y="462.7" text-anchor="middle" font-family="Arial, Helvetica, sans-serif" font-size="21" font-weight="800" fill="white" stroke="#111" stroke-width="3" paint-order="stroke">89</text>
<circle cx="1188.2" cy="462.6" r="13.7" fill="white" fill-opacity="0.84"/>
<circle cx="1188.2" cy="462.6" r="10.7" fill="#005DFF" fill-opacity="0.66" stroke="#111" stroke-width="2.5"/>
<text x="1188.2" y="469.6" text-anchor="middle" font-family="Arial, Helvetica, sans-serif" font-size="21" font-weight="800" fill="white" stroke="#111" stroke-width="3" paint-order="stroke">90</text>
<circle cx="1258.3" cy="402.7" r="15.8" fill="white" fill-opacity="0.84"/>
<circle cx="1258.3" cy="402.7" r="12.8" fill="#FF8A00" fill-opacity="0.66" stroke="#111" stroke-width="2.5"/>
<text x="1258.3" y="409.7" text-anchor="middle" font-family="Arial, Helvetica, sans-serif" font-size="21" font-weight="800" fill="white" stroke="#111" stroke-width="3" paint-order="stroke">91</text>
<circle cx="1078.5" cy="479.6" r="17.3" fill="white" fill-opacity="0.84"/>
<circle cx="1078.5" cy="479.6" r="14.3" fill="#FF8A00" fill-opacity="0.66" stroke="#111" stroke-width="2.5"/>
<text x="1078.5" y="486.6" text-anchor="middle" font-family="Arial, Helvetica, sans-serif" font-size="21" font-weight="800" fill="white" stroke="#111" stroke-width="3" paint-order="stroke">92</text>
<circle cx="1042.4" cy="467.9" r="18.1" fill="white" fill-opacity="0.84"/>
<circle cx="1042.4" cy="467.9" r="15.1" fill="#FF8A00" fill-opacity="0.66" stroke="#111" stroke-width="2.5"/>
<text x="1042.4" y="474.9" text-anchor="middle" font-family="Arial, Helvetica, sans-serif" font-size="21" font-weight="800" fill="white" stroke="#111" stroke-width="3" paint-order="stroke">93</text>
<circle cx="914.2" cy="389.9" r="16.9" fill="white" fill-opacity="0.84"/>
<circle cx="914.2" cy="389.9" r="13.9" fill="#FF8A00" fill-opacity="0.66" stroke="#111" stroke-width="2.5"/>
<text x="914.2" y="396.9" text-anchor="middle" font-family="Arial, Helvetica, sans-serif" font-size="21" font-weight="800" fill="white" stroke="#111" stroke-width="3" paint-order="stroke">94</text>
<circle cx="1065.2" cy="449.5" r="14.7" fill="white" fill-opacity="0.84"/>
<circle cx="1065.2" cy="449.5" r="11.7" fill="#FF8A00" fill-opacity="0.66" stroke="#111" stroke-width="2.5"/>
<text x="1065.2" y="456.5" text-anchor="middle" font-family="Arial, Helvetica, sans-serif" font-size="21" font-weight="800" fill="white" stroke="#111" stroke-width="3" paint-order="stroke">95</text>
<circle cx="923.7" cy="400.4" r="16.2" fill="white" fill-opacity="0.84"/>
<circle cx="923.7" cy="400.4" r="13.2" fill="#FF8A00" fill-opacity="0.66" stroke="#111" stroke-width="2.5"/>
<text x="923.7" y="407.4" text-anchor="middle" font-family="Arial, Helvetica, sans-serif" font-size="21" font-weight="800" fill="white" stroke="#111" stroke-width="3" paint-order="stroke">96</text>
<circle cx="893.5" cy="383.0" r="18.7" fill="white" fill-opacity="0.84"/>
<circle cx="893.5" cy="383.0" r="15.7" fill="#FF8A00" fill-opacity="0.66" stroke="#111" stroke-width="2.5"/>
<text x="893.5" y="390.0" text-anchor="middle" font-family="Arial, Helvetica, sans-serif" font-size="21" font-weight="800" fill="white" stroke="#111" stroke-width="3" paint-order="stroke">97</text>
<rect x="16" y="1094" width="1120" height="168" rx="8" fill="white" fill-opacity="0.92" stroke="#111" stroke-opacity="0.22"/>
<text x="36.0" y="1128.0" font-family="Arial, Helvetica, sans-serif" font-size="24" font-weight="600" fill="#111">K18 / k18.asc block 20 | give_water-1-1-r.png | RT 24874 ms | 97 fixations</text>
<text x="36.0" y="1159.0" font-family="Arial, Helvetica, sans-serif" font-size="24" font-weight="600" fill="#111">numbers show fixation order; dot size shows fixation duration</text>
<circle cx="42" cy="1198" r="11" fill="#005DFF" fill-opacity="0.64" stroke="#111" stroke-width="2"/>
<text x="62.0" y="1206.0" font-family="Arial, Helvetica, sans-serif" font-size="22" font-weight="500" fill="#111">blue: before speech onset</text>
<circle cx="42" cy="1232" r="11" fill="#FF8A00" fill-opacity="0.64" stroke="#111" stroke-width="2"/>
<text x="62.0" y="1240.0" font-family="Arial, Helvetica, sans-serif" font-size="22" font-weight="500" fill="#111">orange: first 2000 ms after onset</text>
</svg>
