<svg xmlns="http://www.w3.org/2000/svg" width="1920" height="1320" viewBox="0 0 1920 1320">
<image href="../../../../stimuli/Animate-animate%20centered%20and%20flipped/teach-2-2-r.png" x="0" y="0" width="1920" height="1080" preserveAspectRatio="none"/>
<rect x="0" y="0" width="1920" height="1080" fill="none" stroke="#111" stroke-width="2"/>
<rect x="0" y="1080" width="1920" height="240" fill="#f7f7f7"/>
<rect x="970.0" y="100.0" width="850" height="850" fill="none" stroke="#00B8D9" stroke-width="6" stroke-dasharray="18 12"/>
<rect x="982.0" y="62.0" width="102.0" height="38" rx="6" fill="white" fill-opacity="0.86" stroke="#00B8D9" stroke-width="3"/>
<text x="992.0" y="88.0" font-family="Arial, Helvetica, sans-serif" font-size="24" font-weight="700" fill="#111">AGENT</text>
<rect x="40.0" y="100.0" width="850" height="850" fill="none" stroke="#FF3B8A" stroke-width="6" stroke-dasharray="18 12"/>
<rect x="52.0" y="62.0" width="134.0" height="38" rx="6" fill="white" fill-opacity="0.86" stroke="#FF3B8A" stroke-width="3"/>
<text x="62.0" y="88.0" font-family="Arial, Helvetica, sans-serif" font-size="24" font-weight="700" fill="#111">PATIENT</text>
<polyline points="925.3,462.7 1056.4,429.3 621.8,418.5 650.6,407.0 1329.4,347.5 1562.9,372.9 1438.8,363.7 1366.9,349.9 1344.4,339.6 690.6,431.8 503.8,401.3 437.5,410.2 664.9,409.1 670.9,407.5 439.6,420.0 651.2,435.6 1308.1,395.7 1342.8,360.2 1550.4,360.0 1408.7,353.5 1372.8,351.0 1595.7,343.9 1552.3,342.2 1406.4,287.3 1360.2,331.3 825.3,419.0 687.6,435.5 669.7,413.6 1354.1,339.1 1567.7,348.9 1438.7,371.7 1359.0,351.4 646.1,466.9 671.5,408.9 472.9,413.7 444.0,411.8 974.8,375.8 1367.9,335.8 1574.9,345.2 1492.8,479.1 1448.3,486.0 1577.5,266.6 1369.0,863.1 1366.0,294.8 1319.6,350.7 1360.6,317.0 1602.7,263.6 1547.5,343.5 1551.4,259.2 1493.2,342.5 1379.2,335.1 1565.4,340.4 1425.4,324.2 1353.1,322.1 1421.9,277.5 1557.2,380.5 1453.0,483.1 1422.7,483.6 1571.9,361.9 1412.9,335.9 1359.8,331.2 1545.5,337.3 1440.7,353.4 1572.5,342.3 1584.4,440.8 1538.9,486.2 1392.1,369.8 1354.7,349.0 750.9,449.4 688.2,434.8 1279.7,545.0 1439.3,682.8 1552.7,454.0 1476.6,491.3 1553.5,409.3 1576.4,337.3 1397.9,371.9 1367.1,346.7 1557.9,376.2 1377.2,345.4 788.8,403.2 661.4,420.8 468.1,417.9 1587.0,400.0 1550.0,490.6 1558.7,398.0 1351.2,320.0 632.8,452.2 1321.4,485.5 782.2,420.4 684.5,405.1 1353.7,337.3 1549.2,357.8 1573.2,338.5 1358.6,314.7 707.7,414.2 687.3,410.3 578.4,408.3 415.0,417.0 635.1,418.8 676.5,414.7 663.0,559.4 676.8,414.7 645.5,613.2 611.4,712.0 611.2,445.7 714.2,719.9 663.0,427.1 430.0,416.7 670.7,447.5 679.5,409.1 612.1,415.9 465.4,408.0 652.3,413.6" fill="none" stroke="#111" stroke-width="4" stroke-opacity="0.36" stroke-linejoin="round"/>
<circle cx="925.3" cy="462.7" r="15.1" fill="white" fill-opacity="0.84"/>
<circle cx="925.3" cy="462.7" r="12.1" fill="#7A3CE8" fill-opacity="0.66" stroke="#111" stroke-width="2.5"/>
<text x="925.3" y="469.7" text-anchor="middle" font-family="Arial, Helvetica, sans-serif" font-size="21" font-weight="800" fill="white" stroke="#111" stroke-width="3" paint-order="stroke">1</text>
<circle cx="1056.4" cy="429.3" r="15.1" fill="white" fill-opacity="0.84"/>
<circle cx="1056.4" cy="429.3" r="12.1" fill="#7A3CE8" fill-opacity="0.66" stroke="#111" stroke-width="2.5"/>
<text x="1056.4" y="436.3" text-anchor="middle" font-family="Arial, Helvetica, sans-serif" font-size="21" font-weight="800" fill="white" stroke="#111" stroke-width="3" paint-order="stroke">2</text>
<circle cx="621.8" cy="418.5" r="16.7" fill="white" fill-opacity="0.84"/>
<circle cx="621.8" cy="418.5" r="13.7" fill="#7A3CE8" fill-opacity="0.66" stroke="#111" stroke-width="2.5"/>
<text x="621.8" y="425.5" text-anchor="middle" font-family="Arial, Helvetica, sans-serif" font-size="21" font-weight="800" fill="white" stroke="#111" stroke-width="3" paint-order="stroke">3</text>
<circle cx="650.6" cy="407.0" r="15.0" fill="white" fill-opacity="0.84"/>
<circle cx="650.6" cy="407.0" r="12.0" fill="#7A3CE8" fill-opacity="0.66" stroke="#111" stroke-width="2.5"/>
<text x="650.6" y="414.0" text-anchor="middle" font-family="Arial, Helvetica, sans-serif" font-size="21" font-weight="800" fill="white" stroke="#111" stroke-width="3" paint-order="stroke">4</text>
<circle cx="1329.4" cy="347.5" r="21.5" fill="white" fill-opacity="0.84"/>
<circle cx="1329.4" cy="347.5" r="18.5" fill="#7A3CE8" fill-opacity="0.66" stroke="#111" stroke-width="2.5"/>
<text x="1329.4" y="354.5" text-anchor="middle" font-family="Arial, Helvetica, sans-serif" font-size="21" font-weight="800" fill="white" stroke="#111" stroke-width="3" paint-order="stroke">5</text>
<circle cx="1562.9" cy="372.9" r="19.9" fill="white" fill-opacity="0.84"/>
<circle cx="1562.9" cy="372.9" r="16.9" fill="#7A3CE8" fill-opacity="0.66" stroke="#111" stroke-width="2.5"/>
<text x="1562.9" y="379.9" text-anchor="middle" font-family="Arial, Helvetica, sans-serif" font-size="21" font-weight="800" fill="white" stroke="#111" stroke-width="3" paint-order="stroke">6</text>
<circle cx="1438.8" cy="363.7" r="14.9" fill="white" fill-opacity="0.84"/>
<circle cx="1438.8" cy="363.7" r="11.9" fill="#7A3CE8" fill-opacity="0.66" stroke="#111" stroke-width="2.5"/>
<text x="1438.8" y="370.7" text-anchor="middle" font-family="Arial, Helvetica, sans-serif" font-size="21" font-weight="800" fill="white" stroke="#111" stroke-width="3" paint-order="stroke">7</text>
<circle cx="1366.9" cy="349.9" r="16.7" fill="white" fill-opacity="0.84"/>
<circle cx="1366.9" cy="349.9" r="13.7" fill="#7A3CE8" fill-opacity="0.66" stroke="#111" stroke-width="2.5"/>
<text x="1366.9" y="356.9" text-anchor="middle" font-family="Arial, Helvetica, sans-serif" font-size="21" font-weight="800" fill="white" stroke="#111" stroke-width="3" paint-order="stroke">8</text>
<circle cx="1344.4" cy="339.6" r="15.6" fill="white" fill-opacity="0.84"/>
<circle cx="1344.4" cy="339.6" r="12.6" fill="#7A3CE8" fill-opacity="0.66" stroke="#111" stroke-width="2.5"/>
<text x="1344.4" y="346.6" text-anchor="middle" font-family="Arial, Helvetica, sans-serif" font-size="21" font-weight="800" fill="white" stroke="#111" stroke-width="3" paint-order="stroke">9</text>
<circle cx="690.6" cy="431.8" r="18.8" fill="white" fill-opacity="0.84"/>
<circle cx="690.6" cy="431.8" r="15.8" fill="#7A3CE8" fill-opacity="0.66" stroke="#111" stroke-width="2.5"/>
<text x="690.6" y="438.8" text-anchor="middle" font-family="Arial, Helvetica, sans-serif" font-size="21" font-weight="800" fill="white" stroke="#111" stroke-width="3" paint-order="stroke">10</text>
<circle cx="503.8" cy="401.3" r="15.4" fill="white" fill-opacity="0.84"/>
<circle cx="503.8" cy="401.3" r="12.4" fill="#7A3CE8" fill-opacity="0.66" stroke="#111" stroke-width="2.5"/>
<text x="503.8" y="408.3" text-anchor="middle" font-family="Arial, Helvetica, sans-serif" font-size="21" font-weight="800" fill="white" stroke="#111" stroke-width="3" paint-order="stroke">11</text>
<circle cx="437.5" cy="410.2" r="15.7" fill="white" fill-opacity="0.84"/>
<circle cx="437.5" cy="410.2" r="12.7" fill="#7A3CE8" fill-opacity="0.66" stroke="#111" stroke-width="2.5"/>
<text x="437.5" y="417.2" text-anchor="middle" font-family="Arial, Helvetica, sans-serif" font-size="21" font-weight="800" fill="white" stroke="#111" stroke-width="3" paint-order="stroke">12</text>
<circle cx="664.9" cy="409.1" r="16.4" fill="white" fill-opacity="0.84"/>
<circle cx="664.9" cy="409.1" r="13.4" fill="#7A3CE8" fill-opacity="0.66" stroke="#111" stroke-width="2.5"/>
<text x="664.9" y="416.1" text-anchor="middle" font-family="Arial, Helvetica, sans-serif" font-size="21" font-weight="800" fill="white" stroke="#111" stroke-width="3" paint-order="stroke">13</text>
<circle cx="670.9" cy="407.5" r="15.5" fill="white" fill-opacity="0.84"/>
<circle cx="670.9" cy="407.5" r="12.5" fill="#7A3CE8" fill-opacity="0.66" stroke="#111" stroke-width="2.5"/>
<text x="670.9" y="414.5" text-anchor="middle" font-family="Arial, Helvetica, sans-serif" font-size="21" font-weight="800" fill="white" stroke="#111" stroke-width="3" paint-order="stroke">14</text>
<circle cx="439.6" cy="420.0" r="17.8" fill="white" fill-opacity="0.84"/>
<circle cx="439.6" cy="420.0" r="14.8" fill="#7A3CE8" fill-opacity="0.66" stroke="#111" stroke-width="2.5"/>
<text x="439.6" y="427.0" text-anchor="middle" font-family="Arial, Helvetica, sans-serif" font-size="21" font-weight="800" fill="white" stroke="#111" stroke-width="3" paint-order="stroke">15</text>
<circle cx="651.2" cy="435.6" r="16.2" fill="white" fill-opacity="0.84"/>
<circle cx="651.2" cy="435.6" r="13.2" fill="#7A3CE8" fill-opacity="0.66" stroke="#111" stroke-width="2.5"/>
<text x="651.2" y="442.6" text-anchor="middle" font-family="Arial, Helvetica, sans-serif" font-size="21" font-weight="800" fill="white" stroke="#111" stroke-width="3" paint-order="stroke">16</text>
<circle cx="1308.1" cy="395.7" r="16.7" fill="white" fill-opacity="0.84"/>
<circle cx="1308.1" cy="395.7" r="13.7" fill="#7A3CE8" fill-opacity="0.66" stroke="#111" stroke-width="2.5"/>
<text x="1308.1" y="402.7" text-anchor="middle" font-family="Arial, Helvetica, sans-serif" font-size="21" font-weight="800" fill="white" stroke="#111" stroke-width="3" paint-order="stroke">17</text>
<circle cx="1342.8" cy="360.2" r="15.3" fill="white" fill-opacity="0.84"/>
<circle cx="1342.8" cy="360.2" r="12.3" fill="#7A3CE8" fill-opacity="0.66" stroke="#111" stroke-width="2.5"/>
<text x="1342.8" y="367.2" text-anchor="middle" font-family="Arial, Helvetica, sans-serif" font-size="21" font-weight="800" fill="white" stroke="#111" stroke-width="3" paint-order="stroke">18</text>
<circle cx="1550.4" cy="360.0" r="18.1" fill="white" fill-opacity="0.84"/>
<circle cx="1550.4" cy="360.0" r="15.1" fill="#7A3CE8" fill-opacity="0.66" stroke="#111" stroke-width="2.5"/>
<text x="1550.4" y="367.0" text-anchor="middle" font-family="Arial, Helvetica, sans-serif" font-size="21" font-weight="800" fill="white" stroke="#111" stroke-width="3" paint-order="stroke">19</text>
<circle cx="1408.7" cy="353.5" r="15.7" fill="white" fill-opacity="0.84"/>
<circle cx="1408.7" cy="353.5" r="12.7" fill="#7A3CE8" fill-opacity="0.66" stroke="#111" stroke-width="2.5"/>
<text x="1408.7" y="360.5" text-anchor="middle" font-family="Arial, Helvetica, sans-serif" font-size="21" font-weight="800" fill="white" stroke="#111" stroke-width="3" paint-order="stroke">20</text>
<circle cx="1372.8" cy="351.0" r="14.5" fill="white" fill-opacity="0.84"/>
<circle cx="1372.8" cy="351.0" r="11.5" fill="#7A3CE8" fill-opacity="0.66" stroke="#111" stroke-width="2.5"/>
<text x="1372.8" y="358.0" text-anchor="middle" font-family="Arial, Helvetica, sans-serif" font-size="21" font-weight="800" fill="white" stroke="#111" stroke-width="3" paint-order="stroke">21</text>
<circle cx="1595.7" cy="343.9" r="18.7" fill="white" fill-opacity="0.84"/>
<circle cx="1595.7" cy="343.9" r="15.7" fill="#7A3CE8" fill-opacity="0.66" stroke="#111" stroke-width="2.5"/>
<text x="1595.7" y="350.9" text-anchor="middle" font-family="Arial, Helvetica, sans-serif" font-size="21" font-weight="800" fill="white" stroke="#111" stroke-width="3" paint-order="stroke">22</text>
<circle cx="1552.3" cy="342.2" r="14.7" fill="white" fill-opacity="0.84"/>
<circle cx="1552.3" cy="342.2" r="11.7" fill="#7A3CE8" fill-opacity="0.66" stroke="#111" stroke-width="2.5"/>
<text x="1552.3" y="349.2" text-anchor="middle" font-family="Arial, Helvetica, sans-serif" font-size="21" font-weight="800" fill="white" stroke="#111" stroke-width="3" paint-order="stroke">23</text>
<circle cx="1406.4" cy="287.3" r="12.2" fill="white" fill-opacity="0.84"/>
<circle cx="1406.4" cy="287.3" r="9.2" fill="#7A3CE8" fill-opacity="0.66" stroke="#111" stroke-width="2.5"/>
<text x="1406.4" y="294.3" text-anchor="middle" font-family="Arial, Helvetica, sans-serif" font-size="21" font-weight="800" fill="white" stroke="#111" stroke-width="3" paint-order="stroke">24</text>
<circle cx="1360.2" cy="331.3" r="16.0" fill="white" fill-opacity="0.84"/>
<circle cx="1360.2" cy="331.3" r="13.0" fill="#7A3CE8" fill-opacity="0.66" stroke="#111" stroke-width="2.5"/>
<text x="1360.2" y="338.3" text-anchor="middle" font-family="Arial, Helvetica, sans-serif" font-size="21" font-weight="800" fill="white" stroke="#111" stroke-width="3" paint-order="stroke">25</text>
<circle cx="825.3" cy="419.0" r="15.1" fill="white" fill-opacity="0.84"/>
<circle cx="825.3" cy="419.0" r="12.1" fill="#7A3CE8" fill-opacity="0.66" stroke="#111" stroke-width="2.5"/>
<text x="825.3" y="426.0" text-anchor="middle" font-family="Arial, Helvetica, sans-serif" font-size="21" font-weight="800" fill="white" stroke="#111" stroke-width="3" paint-order="stroke">26</text>
<circle cx="687.6" cy="435.5" r="17.4" fill="white" fill-opacity="0.84"/>
<circle cx="687.6" cy="435.5" r="14.4" fill="#7A3CE8" fill-opacity="0.66" stroke="#111" stroke-width="2.5"/>
<text x="687.6" y="442.5" text-anchor="middle" font-family="Arial, Helvetica, sans-serif" font-size="21" font-weight="800" fill="white" stroke="#111" stroke-width="3" paint-order="stroke">27</text>
<circle cx="669.7" cy="413.6" r="14.7" fill="white" fill-opacity="0.84"/>
<circle cx="669.7" cy="413.6" r="11.7" fill="#7A3CE8" fill-opacity="0.66" stroke="#111" stroke-width="2.5"/>
<text x="669.7" y="420.6" text-anchor="middle" font-family="Arial, Helvetica, sans-serif" font-size="21" font-weight="800" fill="white" stroke="#111" stroke-width="3" paint-order="stroke">28</text>
<circle cx="1354.1" cy="339.1" r="17.8" fill="white" fill-opacity="0.84"/>
<circle cx="1354.1" cy="339.1" r="14.8" fill="#7A3CE8" fill-opacity="0.66" stroke="#111" stroke-width="2.5"/>
<text x="1354.1" y="346.1" text-anchor="middle" font-family="Arial, Helvetica, sans-serif" font-size="21" font-weight="800" fill="white" stroke="#111" stroke-width="3" paint-order="stroke">29</text>
<circle cx="1567.7" cy="348.9" r="17.6" fill="white" fill-opacity="0.84"/>
<circle cx="1567.7" cy="348.9" r="14.6" fill="#7A3CE8" fill-opacity="0.66" stroke="#111" stroke-width="2.5"/>
<text x="1567.7" y="355.9" text-anchor="middle" font-family="Arial, Helvetica, sans-serif" font-size="21" font-weight="800" fill="white" stroke="#111" stroke-width="3" paint-order="stroke">30</text>
<circle cx="1438.7" cy="371.7" r="16.0" fill="white" fill-opacity="0.84"/>
<circle cx="1438.7" cy="371.7" r="13.0" fill="#7A3CE8" fill-opacity="0.66" stroke="#111" stroke-width="2.5"/>
<text x="1438.7" y="378.7" text-anchor="middle" font-family="Arial, Helvetica, sans-serif" font-size="21" font-weight="800" fill="white" stroke="#111" stroke-width="3" paint-order="stroke">31</text>
<circle cx="1359.0" cy="351.4" r="17.0" fill="white" fill-opacity="0.84"/>
<circle cx="1359.0" cy="351.4" r="14.0" fill="#7A3CE8" fill-opacity="0.66" stroke="#111" stroke-width="2.5"/>
<text x="1359.0" y="358.4" text-anchor="middle" font-family="Arial, Helvetica, sans-serif" font-size="21" font-weight="800" fill="white" stroke="#111" stroke-width="3" paint-order="stroke">32</text>
<circle cx="646.1" cy="466.9" r="16.6" fill="white" fill-opacity="0.84"/>
<circle cx="646.1" cy="466.9" r="13.6" fill="#7A3CE8" fill-opacity="0.66" stroke="#111" stroke-width="2.5"/>
<text x="646.1" y="473.9" text-anchor="middle" font-family="Arial, Helvetica, sans-serif" font-size="21" font-weight="800" fill="white" stroke="#111" stroke-width="3" paint-order="stroke">33</text>
<circle cx="671.5" cy="408.9" r="17.3" fill="white" fill-opacity="0.84"/>
<circle cx="671.5" cy="408.9" r="14.3" fill="#7A3CE8" fill-opacity="0.66" stroke="#111" stroke-width="2.5"/>
<text x="671.5" y="415.9" text-anchor="middle" font-family="Arial, Helvetica, sans-serif" font-size="21" font-weight="800" fill="white" stroke="#111" stroke-width="3" paint-order="stroke">34</text>
<circle cx="472.9" cy="413.7" r="16.7" fill="white" fill-opacity="0.84"/>
<circle cx="472.9" cy="413.7" r="13.7" fill="#7A3CE8" fill-opacity="0.66" stroke="#111" stroke-width="2.5"/>
<text x="472.9" y="420.7" text-anchor="middle" font-family="Arial, Helvetica, sans-serif" font-size="21" font-weight="800" fill="white" stroke="#111" stroke-width="3" paint-order="stroke">35</text>
<circle cx="444.0" cy="411.8" r="15.9" fill="white" fill-opacity="0.84"/>
<circle cx="444.0" cy="411.8" r="12.9" fill="#7A3CE8" fill-opacity="0.66" stroke="#111" stroke-width="2.5"/>
<text x="444.0" y="418.8" text-anchor="middle" font-family="Arial, Helvetica, sans-serif" font-size="21" font-weight="800" fill="white" stroke="#111" stroke-width="3" paint-order="stroke">36</text>
<circle cx="974.8" cy="375.8" r="14.0" fill="white" fill-opacity="0.84"/>
<circle cx="974.8" cy="375.8" r="11.0" fill="#7A3CE8" fill-opacity="0.66" stroke="#111" stroke-width="2.5"/>
<text x="974.8" y="382.8" text-anchor="middle" font-family="Arial, Helvetica, sans-serif" font-size="21" font-weight="800" fill="white" stroke="#111" stroke-width="3" paint-order="stroke">37</text>
<circle cx="1367.9" cy="335.8" r="17.2" fill="white" fill-opacity="0.84"/>
<circle cx="1367.9" cy="335.8" r="14.2" fill="#7A3CE8" fill-opacity="0.66" stroke="#111" stroke-width="2.5"/>
<text x="1367.9" y="342.8" text-anchor="middle" font-family="Arial, Helvetica, sans-serif" font-size="21" font-weight="800" fill="white" stroke="#111" stroke-width="3" paint-order="stroke">38</text>
<circle cx="1574.9" cy="345.2" r="17.7" fill="white" fill-opacity="0.84"/>
<circle cx="1574.9" cy="345.2" r="14.7" fill="#7A3CE8" fill-opacity="0.66" stroke="#111" stroke-width="2.5"/>
<text x="1574.9" y="352.2" text-anchor="middle" font-family="Arial, Helvetica, sans-serif" font-size="21" font-weight="800" fill="white" stroke="#111" stroke-width="3" paint-order="stroke">39</text>
<circle cx="1492.8" cy="479.1" r="15.7" fill="white" fill-opacity="0.84"/>
<circle cx="1492.8" cy="479.1" r="12.7" fill="#7A3CE8" fill-opacity="0.66" stroke="#111" stroke-width="2.5"/>
<text x="1492.8" y="486.1" text-anchor="middle" font-family="Arial, Helvetica, sans-serif" font-size="21" font-weight="800" fill="white" stroke="#111" stroke-width="3" paint-order="stroke">40</text>
<circle cx="1448.3" cy="486.0" r="15.5" fill="white" fill-opacity="0.84"/>
<circle cx="1448.3" cy="486.0" r="12.5" fill="#7A3CE8" fill-opacity="0.66" stroke="#111" stroke-width="2.5"/>
<text x="1448.3" y="493.0" text-anchor="middle" font-family="Arial, Helvetica, sans-serif" font-size="21" font-weight="800" fill="white" stroke="#111" stroke-width="3" paint-order="stroke">41</text>
<circle cx="1577.5" cy="266.6" r="13.2" fill="white" fill-opacity="0.84"/>
<circle cx="1577.5" cy="266.6" r="10.2" fill="#7A3CE8" fill-opacity="0.66" stroke="#111" stroke-width="2.5"/>
<text x="1577.5" y="273.6" text-anchor="middle" font-family="Arial, Helvetica, sans-serif" font-size="21" font-weight="800" fill="white" stroke="#111" stroke-width="3" paint-order="stroke">42</text>
<circle cx="1369.0" cy="863.1" r="11.5" fill="white" fill-opacity="0.84"/>
<circle cx="1369.0" cy="863.1" r="8.5" fill="#7A3CE8" fill-opacity="0.66" stroke="#111" stroke-width="2.5"/>
<text x="1369.0" y="870.1" text-anchor="middle" font-family="Arial, Helvetica, sans-serif" font-size="21" font-weight="800" fill="white" stroke="#111" stroke-width="3" paint-order="stroke">43</text>
<circle cx="1366.0" cy="294.8" r="12.7" fill="white" fill-opacity="0.84"/>
<circle cx="1366.0" cy="294.8" r="9.7" fill="#7A3CE8" fill-opacity="0.66" stroke="#111" stroke-width="2.5"/>
<text x="1366.0" y="301.8" text-anchor="middle" font-family="Arial, Helvetica, sans-serif" font-size="21" font-weight="800" fill="white" stroke="#111" stroke-width="3" paint-order="stroke">44</text>
<circle cx="1319.6" cy="350.7" r="14.7" fill="white" fill-opacity="0.84"/>
<circle cx="1319.6" cy="350.7" r="11.7" fill="#7A3CE8" fill-opacity="0.66" stroke="#111" stroke-width="2.5"/>
<text x="1319.6" y="357.7" text-anchor="middle" font-family="Arial, Helvetica, sans-serif" font-size="21" font-weight="800" fill="white" stroke="#111" stroke-width="3" paint-order="stroke">45</text>
<circle cx="1360.6" cy="317.0" r="11.5" fill="white" fill-opacity="0.84"/>
<circle cx="1360.6" cy="317.0" r="8.5" fill="#7A3CE8" fill-opacity="0.66" stroke="#111" stroke-width="2.5"/>
<text x="1360.6" y="324.0" text-anchor="middle" font-family="Arial, Helvetica, sans-serif" font-size="21" font-weight="800" fill="white" stroke="#111" stroke-width="3" paint-order="stroke">46</text>
<circle cx="1602.7" cy="263.6" r="12.4" fill="white" fill-opacity="0.84"/>
<circle cx="1602.7" cy="263.6" r="9.4" fill="#7A3CE8" fill-opacity="0.66" stroke="#111" stroke-width="2.5"/>
<text x="1602.7" y="270.6" text-anchor="middle" font-family="Arial, Helvetica, sans-serif" font-size="21" font-weight="800" fill="white" stroke="#111" stroke-width="3" paint-order="stroke">47</text>
<circle cx="1547.5" cy="343.5" r="21.1" fill="white" fill-opacity="0.84"/>
<circle cx="1547.5" cy="343.5" r="18.1" fill="#7A3CE8" fill-opacity="0.66" stroke="#111" stroke-width="2.5"/>
<text x="1547.5" y="350.5" text-anchor="middle" font-family="Arial, Helvetica, sans-serif" font-size="21" font-weight="800" fill="white" stroke="#111" stroke-width="3" paint-order="stroke">48</text>
<circle cx="1551.4" cy="259.2" r="12.5" fill="white" fill-opacity="0.84"/>
<circle cx="1551.4" cy="259.2" r="9.5" fill="#7A3CE8" fill-opacity="0.66" stroke="#111" stroke-width="2.5"/>
<text x="1551.4" y="266.2" text-anchor="middle" font-family="Arial, Helvetica, sans-serif" font-size="21" font-weight="800" fill="white" stroke="#111" stroke-width="3" paint-order="stroke">49</text>
<circle cx="1493.2" cy="342.5" r="12.8" fill="white" fill-opacity="0.84"/>
<circle cx="1493.2" cy="342.5" r="9.8" fill="#7A3CE8" fill-opacity="0.66" stroke="#111" stroke-width="2.5"/>
<text x="1493.2" y="349.5" text-anchor="middle" font-family="Arial, Helvetica, sans-serif" font-size="21" font-weight="800" fill="white" stroke="#111" stroke-width="3" paint-order="stroke">50</text>
<circle cx="1379.2" cy="335.1" r="15.5" fill="white" fill-opacity="0.84"/>
<circle cx="1379.2" cy="335.1" r="12.5" fill="#7A3CE8" fill-opacity="0.66" stroke="#111" stroke-width="2.5"/>
<text x="1379.2" y="342.1" text-anchor="middle" font-family="Arial, Helvetica, sans-serif" font-size="21" font-weight="800" fill="white" stroke="#111" stroke-width="3" paint-order="stroke">51</text>
<circle cx="1565.4" cy="340.4" r="17.1" fill="white" fill-opacity="0.84"/>
<circle cx="1565.4" cy="340.4" r="14.1" fill="#7A3CE8" fill-opacity="0.66" stroke="#111" stroke-width="2.5"/>
<text x="1565.4" y="347.4" text-anchor="middle" font-family="Arial, Helvetica, sans-serif" font-size="21" font-weight="800" fill="white" stroke="#111" stroke-width="3" paint-order="stroke">52</text>
<circle cx="1425.4" cy="324.2" r="15.6" fill="white" fill-opacity="0.84"/>
<circle cx="1425.4" cy="324.2" r="12.6" fill="#7A3CE8" fill-opacity="0.66" stroke="#111" stroke-width="2.5"/>
<text x="1425.4" y="331.2" text-anchor="middle" font-family="Arial, Helvetica, sans-serif" font-size="21" font-weight="800" fill="white" stroke="#111" stroke-width="3" paint-order="stroke">53</text>
<circle cx="1353.1" cy="322.1" r="13.7" fill="white" fill-opacity="0.84"/>
<circle cx="1353.1" cy="322.1" r="10.7" fill="#7A3CE8" fill-opacity="0.66" stroke="#111" stroke-width="2.5"/>
<text x="1353.1" y="329.1" text-anchor="middle" font-family="Arial, Helvetica, sans-serif" font-size="21" font-weight="800" fill="white" stroke="#111" stroke-width="3" paint-order="stroke">54</text>
<circle cx="1421.9" cy="277.5" r="13.2" fill="white" fill-opacity="0.84"/>
<circle cx="1421.9" cy="277.5" r="10.2" fill="#7A3CE8" fill-opacity="0.66" stroke="#111" stroke-width="2.5"/>
<text x="1421.9" y="284.5" text-anchor="middle" font-family="Arial, Helvetica, sans-serif" font-size="21" font-weight="800" fill="white" stroke="#111" stroke-width="3" paint-order="stroke">55</text>
<circle cx="1557.2" cy="380.5" r="16.0" fill="white" fill-opacity="0.84"/>
<circle cx="1557.2" cy="380.5" r="13.0" fill="#7A3CE8" fill-opacity="0.66" stroke="#111" stroke-width="2.5"/>
<text x="1557.2" y="387.5" text-anchor="middle" font-family="Arial, Helvetica, sans-serif" font-size="21" font-weight="800" fill="white" stroke="#111" stroke-width="3" paint-order="stroke">56</text>
<circle cx="1453.0" cy="483.1" r="16.4" fill="white" fill-opacity="0.84"/>
<circle cx="1453.0" cy="483.1" r="13.4" fill="#7A3CE8" fill-opacity="0.66" stroke="#111" stroke-width="2.5"/>
<text x="1453.0" y="490.1" text-anchor="middle" font-family="Arial, Helvetica, sans-serif" font-size="21" font-weight="800" fill="white" stroke="#111" stroke-width="3" paint-order="stroke">57</text>
<circle cx="1422.7" cy="483.6" r="18.0" fill="white" fill-opacity="0.84"/>
<circle cx="1422.7" cy="483.6" r="15.0" fill="#7A3CE8" fill-opacity="0.66" stroke="#111" stroke-width="2.5"/>
<text x="1422.7" y="490.6" text-anchor="middle" font-family="Arial, Helvetica, sans-serif" font-size="21" font-weight="800" fill="white" stroke="#111" stroke-width="3" paint-order="stroke">58</text>
<circle cx="1571.9" cy="361.9" r="17.8" fill="white" fill-opacity="0.84"/>
<circle cx="1571.9" cy="361.9" r="14.8" fill="#7A3CE8" fill-opacity="0.66" stroke="#111" stroke-width="2.5"/>
<text x="1571.9" y="368.9" text-anchor="middle" font-family="Arial, Helvetica, sans-serif" font-size="21" font-weight="800" fill="white" stroke="#111" stroke-width="3" paint-order="stroke">59</text>
<circle cx="1412.9" cy="335.9" r="15.9" fill="white" fill-opacity="0.84"/>
<circle cx="1412.9" cy="335.9" r="12.9" fill="#7A3CE8" fill-opacity="0.66" stroke="#111" stroke-width="2.5"/>
<text x="1412.9" y="342.9" text-anchor="middle" font-family="Arial, Helvetica, sans-serif" font-size="21" font-weight="800" fill="white" stroke="#111" stroke-width="3" paint-order="stroke">60</text>
<circle cx="1359.8" cy="331.2" r="15.6" fill="white" fill-opacity="0.84"/>
<circle cx="1359.8" cy="331.2" r="12.6" fill="#7A3CE8" fill-opacity="0.66" stroke="#111" stroke-width="2.5"/>
<text x="1359.8" y="338.2" text-anchor="middle" font-family="Arial, Helvetica, sans-serif" font-size="21" font-weight="800" fill="white" stroke="#111" stroke-width="3" paint-order="stroke">61</text>
<circle cx="1545.5" cy="337.3" r="16.7" fill="white" fill-opacity="0.84"/>
<circle cx="1545.5" cy="337.3" r="13.7" fill="#7A3CE8" fill-opacity="0.66" stroke="#111" stroke-width="2.5"/>
<text x="1545.5" y="344.3" text-anchor="middle" font-family="Arial, Helvetica, sans-serif" font-size="21" font-weight="800" fill="white" stroke="#111" stroke-width="3" paint-order="stroke">62</text>
<circle cx="1440.7" cy="353.4" r="17.0" fill="white" fill-opacity="0.84"/>
<circle cx="1440.7" cy="353.4" r="14.0" fill="#7A3CE8" fill-opacity="0.66" stroke="#111" stroke-width="2.5"/>
<text x="1440.7" y="360.4" text-anchor="middle" font-family="Arial, Helvetica, sans-serif" font-size="21" font-weight="800" fill="white" stroke="#111" stroke-width="3" paint-order="stroke">63</text>
<circle cx="1572.5" cy="342.3" r="14.8" fill="white" fill-opacity="0.84"/>
<circle cx="1572.5" cy="342.3" r="11.8" fill="#7A3CE8" fill-opacity="0.66" stroke="#111" stroke-width="2.5"/>
<text x="1572.5" y="349.3" text-anchor="middle" font-family="Arial, Helvetica, sans-serif" font-size="21" font-weight="800" fill="white" stroke="#111" stroke-width="3" paint-order="stroke">64</text>
<circle cx="1584.4" cy="440.8" r="13.0" fill="white" fill-opacity="0.84"/>
<circle cx="1584.4" cy="440.8" r="10.0" fill="#7A3CE8" fill-opacity="0.66" stroke="#111" stroke-width="2.5"/>
<text x="1584.4" y="447.8" text-anchor="middle" font-family="Arial, Helvetica, sans-serif" font-size="21" font-weight="800" fill="white" stroke="#111" stroke-width="3" paint-order="stroke">65</text>
<circle cx="1538.9" cy="486.2" r="13.1" fill="white" fill-opacity="0.84"/>
<circle cx="1538.9" cy="486.2" r="10.1" fill="#7A3CE8" fill-opacity="0.66" stroke="#111" stroke-width="2.5"/>
<text x="1538.9" y="493.2" text-anchor="middle" font-family="Arial, Helvetica, sans-serif" font-size="21" font-weight="800" fill="white" stroke="#111" stroke-width="3" paint-order="stroke">66</text>
<circle cx="1392.1" cy="369.8" r="15.7" fill="white" fill-opacity="0.84"/>
<circle cx="1392.1" cy="369.8" r="12.7" fill="#7A3CE8" fill-opacity="0.66" stroke="#111" stroke-width="2.5"/>
<text x="1392.1" y="376.8" text-anchor="middle" font-family="Arial, Helvetica, sans-serif" font-size="21" font-weight="800" fill="white" stroke="#111" stroke-width="3" paint-order="stroke">67</text>
<circle cx="1354.7" cy="349.0" r="15.2" fill="white" fill-opacity="0.84"/>
<circle cx="1354.7" cy="349.0" r="12.2" fill="#7A3CE8" fill-opacity="0.66" stroke="#111" stroke-width="2.5"/>
<text x="1354.7" y="356.0" text-anchor="middle" font-family="Arial, Helvetica, sans-serif" font-size="21" font-weight="800" fill="white" stroke="#111" stroke-width="3" paint-order="stroke">68</text>
<circle cx="750.9" cy="449.4" r="15.8" fill="white" fill-opacity="0.84"/>
<circle cx="750.9" cy="449.4" r="12.8" fill="#7A3CE8" fill-opacity="0.66" stroke="#111" stroke-width="2.5"/>
<text x="750.9" y="456.4" text-anchor="middle" font-family="Arial, Helvetica, sans-serif" font-size="21" font-weight="800" fill="white" stroke="#111" stroke-width="3" paint-order="stroke">69</text>
<circle cx="688.2" cy="434.8" r="15.3" fill="white" fill-opacity="0.84"/>
<circle cx="688.2" cy="434.8" r="12.3" fill="#7A3CE8" fill-opacity="0.66" stroke="#111" stroke-width="2.5"/>
<text x="688.2" y="441.8" text-anchor="middle" font-family="Arial, Helvetica, sans-serif" font-size="21" font-weight="800" fill="white" stroke="#111" stroke-width="3" paint-order="stroke">70</text>
<circle cx="1279.7" cy="545.0" r="15.4" fill="white" fill-opacity="0.84"/>
<circle cx="1279.7" cy="545.0" r="12.4" fill="#7A3CE8" fill-opacity="0.66" stroke="#111" stroke-width="2.5"/>
<text x="1279.7" y="552.0" text-anchor="middle" font-family="Arial, Helvetica, sans-serif" font-size="21" font-weight="800" fill="white" stroke="#111" stroke-width="3" paint-order="stroke">71</text>
<circle cx="1439.3" cy="682.8" r="15.0" fill="white" fill-opacity="0.84"/>
<circle cx="1439.3" cy="682.8" r="12.0" fill="#7A3CE8" fill-opacity="0.66" stroke="#111" stroke-width="2.5"/>
<text x="1439.3" y="689.8" text-anchor="middle" font-family="Arial, Helvetica, sans-serif" font-size="21" font-weight="800" fill="white" stroke="#111" stroke-width="3" paint-order="stroke">72</text>
<circle cx="1552.7" cy="454.0" r="18.0" fill="white" fill-opacity="0.84"/>
<circle cx="1552.7" cy="454.0" r="15.0" fill="#7A3CE8" fill-opacity="0.66" stroke="#111" stroke-width="2.5"/>
<text x="1552.7" y="461.0" text-anchor="middle" font-family="Arial, Helvetica, sans-serif" font-size="21" font-weight="800" fill="white" stroke="#111" stroke-width="3" paint-order="stroke">73</text>
<circle cx="1476.6" cy="491.3" r="15.9" fill="white" fill-opacity="0.84"/>
<circle cx="1476.6" cy="491.3" r="12.9" fill="#7A3CE8" fill-opacity="0.66" stroke="#111" stroke-width="2.5"/>
<text x="1476.6" y="498.3" text-anchor="middle" font-family="Arial, Helvetica, sans-serif" font-size="21" font-weight="800" fill="white" stroke="#111" stroke-width="3" paint-order="stroke">74</text>
<circle cx="1553.5" cy="409.3" r="14.9" fill="white" fill-opacity="0.84"/>
<circle cx="1553.5" cy="409.3" r="11.9" fill="#7A3CE8" fill-opacity="0.66" stroke="#111" stroke-width="2.5"/>
<text x="1553.5" y="416.3" text-anchor="middle" font-family="Arial, Helvetica, sans-serif" font-size="21" font-weight="800" fill="white" stroke="#111" stroke-width="3" paint-order="stroke">75</text>
<circle cx="1576.4" cy="337.3" r="15.5" fill="white" fill-opacity="0.84"/>
<circle cx="1576.4" cy="337.3" r="12.5" fill="#7A3CE8" fill-opacity="0.66" stroke="#111" stroke-width="2.5"/>
<text x="1576.4" y="344.3" text-anchor="middle" font-family="Arial, Helvetica, sans-serif" font-size="21" font-weight="800" fill="white" stroke="#111" stroke-width="3" paint-order="stroke">76</text>
<circle cx="1397.9" cy="371.9" r="16.7" fill="white" fill-opacity="0.84"/>
<circle cx="1397.9" cy="371.9" r="13.7" fill="#7A3CE8" fill-opacity="0.66" stroke="#111" stroke-width="2.5"/>
<text x="1397.9" y="378.9" text-anchor="middle" font-family="Arial, Helvetica, sans-serif" font-size="21" font-weight="800" fill="white" stroke="#111" stroke-width="3" paint-order="stroke">77</text>
<circle cx="1367.1" cy="346.7" r="15.1" fill="white" fill-opacity="0.84"/>
<circle cx="1367.1" cy="346.7" r="12.1" fill="#7A3CE8" fill-opacity="0.66" stroke="#111" stroke-width="2.5"/>
<text x="1367.1" y="353.7" text-anchor="middle" font-family="Arial, Helvetica, sans-serif" font-size="21" font-weight="800" fill="white" stroke="#111" stroke-width="3" paint-order="stroke">78</text>
<circle cx="1557.9" cy="376.2" r="16.8" fill="white" fill-opacity="0.84"/>
<circle cx="1557.9" cy="376.2" r="13.8" fill="#7A3CE8" fill-opacity="0.66" stroke="#111" stroke-width="2.5"/>
<text x="1557.9" y="383.2" text-anchor="middle" font-family="Arial, Helvetica, sans-serif" font-size="21" font-weight="800" fill="white" stroke="#111" stroke-width="3" paint-order="stroke">79</text>
<circle cx="1377.2" cy="345.4" r="16.1" fill="white" fill-opacity="0.84"/>
<circle cx="1377.2" cy="345.4" r="13.1" fill="#7A3CE8" fill-opacity="0.66" stroke="#111" stroke-width="2.5"/>
<text x="1377.2" y="352.4" text-anchor="middle" font-family="Arial, Helvetica, sans-serif" font-size="21" font-weight="800" fill="white" stroke="#111" stroke-width="3" paint-order="stroke">80</text>
<circle cx="788.8" cy="403.2" r="15.5" fill="white" fill-opacity="0.84"/>
<circle cx="788.8" cy="403.2" r="12.5" fill="#7A3CE8" fill-opacity="0.66" stroke="#111" stroke-width="2.5"/>
<text x="788.8" y="410.2" text-anchor="middle" font-family="Arial, Helvetica, sans-serif" font-size="21" font-weight="800" fill="white" stroke="#111" stroke-width="3" paint-order="stroke">81</text>
<circle cx="661.4" cy="420.8" r="17.4" fill="white" fill-opacity="0.84"/>
<circle cx="661.4" cy="420.8" r="14.4" fill="#7A3CE8" fill-opacity="0.66" stroke="#111" stroke-width="2.5"/>
<text x="661.4" y="427.8" text-anchor="middle" font-family="Arial, Helvetica, sans-serif" font-size="21" font-weight="800" fill="white" stroke="#111" stroke-width="3" paint-order="stroke">82</text>
<circle cx="468.1" cy="417.9" r="15.3" fill="white" fill-opacity="0.84"/>
<circle cx="468.1" cy="417.9" r="12.3" fill="#7A3CE8" fill-opacity="0.66" stroke="#111" stroke-width="2.5"/>
<text x="468.1" y="424.9" text-anchor="middle" font-family="Arial, Helvetica, sans-serif" font-size="21" font-weight="800" fill="white" stroke="#111" stroke-width="3" paint-order="stroke">83</text>
<circle cx="1587.0" cy="400.0" r="11.8" fill="white" fill-opacity="0.84"/>
<circle cx="1587.0" cy="400.0" r="8.8" fill="#7A3CE8" fill-opacity="0.66" stroke="#111" stroke-width="2.5"/>
<text x="1587.0" y="407.0" text-anchor="middle" font-family="Arial, Helvetica, sans-serif" font-size="21" font-weight="800" fill="white" stroke="#111" stroke-width="3" paint-order="stroke">84</text>
<circle cx="1550.0" cy="490.6" r="14.9" fill="white" fill-opacity="0.84"/>
<circle cx="1550.0" cy="490.6" r="11.9" fill="#7A3CE8" fill-opacity="0.66" stroke="#111" stroke-width="2.5"/>
<text x="1550.0" y="497.6" text-anchor="middle" font-family="Arial, Helvetica, sans-serif" font-size="21" font-weight="800" fill="white" stroke="#111" stroke-width="3" paint-order="stroke">85</text>
<circle cx="1558.7" cy="398.0" r="15.8" fill="white" fill-opacity="0.84"/>
<circle cx="1558.7" cy="398.0" r="12.8" fill="#7A3CE8" fill-opacity="0.66" stroke="#111" stroke-width="2.5"/>
<text x="1558.7" y="405.0" text-anchor="middle" font-family="Arial, Helvetica, sans-serif" font-size="21" font-weight="800" fill="white" stroke="#111" stroke-width="3" paint-order="stroke">86</text>
<circle cx="1351.2" cy="320.0" r="15.9" fill="white" fill-opacity="0.84"/>
<circle cx="1351.2" cy="320.0" r="12.9" fill="#7A3CE8" fill-opacity="0.66" stroke="#111" stroke-width="2.5"/>
<text x="1351.2" y="327.0" text-anchor="middle" font-family="Arial, Helvetica, sans-serif" font-size="21" font-weight="800" fill="white" stroke="#111" stroke-width="3" paint-order="stroke">87</text>
<circle cx="632.8" cy="452.2" r="18.4" fill="white" fill-opacity="0.84"/>
<circle cx="632.8" cy="452.2" r="15.4" fill="#7A3CE8" fill-opacity="0.66" stroke="#111" stroke-width="2.5"/>
<text x="632.8" y="459.2" text-anchor="middle" font-family="Arial, Helvetica, sans-serif" font-size="21" font-weight="800" fill="white" stroke="#111" stroke-width="3" paint-order="stroke">88</text>
<circle cx="1321.4" cy="485.5" r="16.4" fill="white" fill-opacity="0.84"/>
<circle cx="1321.4" cy="485.5" r="13.4" fill="#7A3CE8" fill-opacity="0.66" stroke="#111" stroke-width="2.5"/>
<text x="1321.4" y="492.5" text-anchor="middle" font-family="Arial, Helvetica, sans-serif" font-size="21" font-weight="800" fill="white" stroke="#111" stroke-width="3" paint-order="stroke">89</text>
<circle cx="782.2" cy="420.4" r="13.8" fill="white" fill-opacity="0.84"/>
<circle cx="782.2" cy="420.4" r="10.8" fill="#7A3CE8" fill-opacity="0.66" stroke="#111" stroke-width="2.5"/>
<text x="782.2" y="427.4" text-anchor="middle" font-family="Arial, Helvetica, sans-serif" font-size="21" font-weight="800" fill="white" stroke="#111" stroke-width="3" paint-order="stroke">90</text>
<circle cx="684.5" cy="405.1" r="17.0" fill="white" fill-opacity="0.84"/>
<circle cx="684.5" cy="405.1" r="14.0" fill="#7A3CE8" fill-opacity="0.66" stroke="#111" stroke-width="2.5"/>
<text x="684.5" y="412.1" text-anchor="middle" font-family="Arial, Helvetica, sans-serif" font-size="21" font-weight="800" fill="white" stroke="#111" stroke-width="3" paint-order="stroke">91</text>
<circle cx="1353.7" cy="337.3" r="16.8" fill="white" fill-opacity="0.84"/>
<circle cx="1353.7" cy="337.3" r="13.8" fill="#7A3CE8" fill-opacity="0.66" stroke="#111" stroke-width="2.5"/>
<text x="1353.7" y="344.3" text-anchor="middle" font-family="Arial, Helvetica, sans-serif" font-size="21" font-weight="800" fill="white" stroke="#111" stroke-width="3" paint-order="stroke">92</text>
<circle cx="1549.2" cy="357.8" r="20.1" fill="white" fill-opacity="0.84"/>
<circle cx="1549.2" cy="357.8" r="17.1" fill="#7A3CE8" fill-opacity="0.66" stroke="#111" stroke-width="2.5"/>
<text x="1549.2" y="364.8" text-anchor="middle" font-family="Arial, Helvetica, sans-serif" font-size="21" font-weight="800" fill="white" stroke="#111" stroke-width="3" paint-order="stroke">93</text>
<circle cx="1573.2" cy="338.5" r="15.4" fill="white" fill-opacity="0.84"/>
<circle cx="1573.2" cy="338.5" r="12.4" fill="#7A3CE8" fill-opacity="0.66" stroke="#111" stroke-width="2.5"/>
<text x="1573.2" y="345.5" text-anchor="middle" font-family="Arial, Helvetica, sans-serif" font-size="21" font-weight="800" fill="white" stroke="#111" stroke-width="3" paint-order="stroke">94</text>
<circle cx="1358.6" cy="314.7" r="14.6" fill="white" fill-opacity="0.84"/>
<circle cx="1358.6" cy="314.7" r="11.6" fill="#7A3CE8" fill-opacity="0.66" stroke="#111" stroke-width="2.5"/>
<text x="1358.6" y="321.7" text-anchor="middle" font-family="Arial, Helvetica, sans-serif" font-size="21" font-weight="800" fill="white" stroke="#111" stroke-width="3" paint-order="stroke">95</text>
<circle cx="707.7" cy="414.2" r="16.6" fill="white" fill-opacity="0.84"/>
<circle cx="707.7" cy="414.2" r="13.6" fill="#7A3CE8" fill-opacity="0.66" stroke="#111" stroke-width="2.5"/>
<text x="707.7" y="421.2" text-anchor="middle" font-family="Arial, Helvetica, sans-serif" font-size="21" font-weight="800" fill="white" stroke="#111" stroke-width="3" paint-order="stroke">96</text>
<circle cx="687.3" cy="410.3" r="17.7" fill="white" fill-opacity="0.84"/>
<circle cx="687.3" cy="410.3" r="14.7" fill="#7A3CE8" fill-opacity="0.66" stroke="#111" stroke-width="2.5"/>
<text x="687.3" y="417.3" text-anchor="middle" font-family="Arial, Helvetica, sans-serif" font-size="21" font-weight="800" fill="white" stroke="#111" stroke-width="3" paint-order="stroke">97</text>
<circle cx="578.4" cy="408.3" r="15.8" fill="white" fill-opacity="0.84"/>
<circle cx="578.4" cy="408.3" r="12.8" fill="#7A3CE8" fill-opacity="0.66" stroke="#111" stroke-width="2.5"/>
<text x="578.4" y="415.3" text-anchor="middle" font-family="Arial, Helvetica, sans-serif" font-size="21" font-weight="800" fill="white" stroke="#111" stroke-width="3" paint-order="stroke">98</text>
<circle cx="415.0" cy="417.0" r="19.8" fill="white" fill-opacity="0.84"/>
<circle cx="415.0" cy="417.0" r="16.8" fill="#7A3CE8" fill-opacity="0.66" stroke="#111" stroke-width="2.5"/>
<text x="415.0" y="424.0" text-anchor="middle" font-family="Arial, Helvetica, sans-serif" font-size="21" font-weight="800" fill="white" stroke="#111" stroke-width="3" paint-order="stroke">99</text>
<circle cx="635.1" cy="418.8" r="16.7" fill="white" fill-opacity="0.84"/>
<circle cx="635.1" cy="418.8" r="13.7" fill="#7A3CE8" fill-opacity="0.66" stroke="#111" stroke-width="2.5"/>
<text x="635.1" y="425.8" text-anchor="middle" font-family="Arial, Helvetica, sans-serif" font-size="21" font-weight="800" fill="white" stroke="#111" stroke-width="3" paint-order="stroke">100</text>
<circle cx="676.5" cy="414.7" r="17.7" fill="white" fill-opacity="0.84"/>
<circle cx="676.5" cy="414.7" r="14.7" fill="#7A3CE8" fill-opacity="0.66" stroke="#111" stroke-width="2.5"/>
<text x="676.5" y="421.7" text-anchor="middle" font-family="Arial, Helvetica, sans-serif" font-size="21" font-weight="800" fill="white" stroke="#111" stroke-width="3" paint-order="stroke">101</text>
<circle cx="663.0" cy="559.4" r="15.6" fill="white" fill-opacity="0.84"/>
<circle cx="663.0" cy="559.4" r="12.6" fill="#7A3CE8" fill-opacity="0.66" stroke="#111" stroke-width="2.5"/>
<text x="663.0" y="566.4" text-anchor="middle" font-family="Arial, Helvetica, sans-serif" font-size="21" font-weight="800" fill="white" stroke="#111" stroke-width="3" paint-order="stroke">102</text>
<circle cx="676.8" cy="414.7" r="16.5" fill="white" fill-opacity="0.84"/>
<circle cx="676.8" cy="414.7" r="13.5" fill="#7A3CE8" fill-opacity="0.66" stroke="#111" stroke-width="2.5"/>
<text x="676.8" y="421.7" text-anchor="middle" font-family="Arial, Helvetica, sans-serif" font-size="21" font-weight="800" fill="white" stroke="#111" stroke-width="3" paint-order="stroke">103</text>
<circle cx="645.5" cy="613.2" r="16.3" fill="white" fill-opacity="0.84"/>
<circle cx="645.5" cy="613.2" r="13.3" fill="#7A3CE8" fill-opacity="0.66" stroke="#111" stroke-width="2.5"/>
<text x="645.5" y="620.2" text-anchor="middle" font-family="Arial, Helvetica, sans-serif" font-size="21" font-weight="800" fill="white" stroke="#111" stroke-width="3" paint-order="stroke">104</text>
<circle cx="611.4" cy="712.0" r="16.0" fill="white" fill-opacity="0.84"/>
<circle cx="611.4" cy="712.0" r="13.0" fill="#7A3CE8" fill-opacity="0.66" stroke="#111" stroke-width="2.5"/>
<text x="611.4" y="719.0" text-anchor="middle" font-family="Arial, Helvetica, sans-serif" font-size="21" font-weight="800" fill="white" stroke="#111" stroke-width="3" paint-order="stroke">105</text>
<circle cx="611.2" cy="445.7" r="16.0" fill="white" fill-opacity="0.84"/>
<circle cx="611.2" cy="445.7" r="13.0" fill="#7A3CE8" fill-opacity="0.66" stroke="#111" stroke-width="2.5"/>
<text x="611.2" y="452.7" text-anchor="middle" font-family="Arial, Helvetica, sans-serif" font-size="21" font-weight="800" fill="white" stroke="#111" stroke-width="3" paint-order="stroke">106</text>
<circle cx="714.2" cy="719.9" r="14.7" fill="white" fill-opacity="0.84"/>
<circle cx="714.2" cy="719.9" r="11.7" fill="#7A3CE8" fill-opacity="0.66" stroke="#111" stroke-width="2.5"/>
<text x="714.2" y="726.9" text-anchor="middle" font-family="Arial, Helvetica, sans-serif" font-size="21" font-weight="800" fill="white" stroke="#111" stroke-width="3" paint-order="stroke">107</text>
<circle cx="663.0" cy="427.1" r="15.6" fill="white" fill-opacity="0.84"/>
<circle cx="663.0" cy="427.1" r="12.6" fill="#7A3CE8" fill-opacity="0.66" stroke="#111" stroke-width="2.5"/>
<text x="663.0" y="434.1" text-anchor="middle" font-family="Arial, Helvetica, sans-serif" font-size="21" font-weight="800" fill="white" stroke="#111" stroke-width="3" paint-order="stroke">108</text>
<circle cx="430.0" cy="416.7" r="17.2" fill="white" fill-opacity="0.84"/>
<circle cx="430.0" cy="416.7" r="14.2" fill="#7A3CE8" fill-opacity="0.66" stroke="#111" stroke-width="2.5"/>
<text x="430.0" y="423.7" text-anchor="middle" font-family="Arial, Helvetica, sans-serif" font-size="21" font-weight="800" fill="white" stroke="#111" stroke-width="3" paint-order="stroke">109</text>
<circle cx="670.7" cy="447.5" r="17.7" fill="white" fill-opacity="0.84"/>
<circle cx="670.7" cy="447.5" r="14.7" fill="#7A3CE8" fill-opacity="0.66" stroke="#111" stroke-width="2.5"/>
<text x="670.7" y="454.5" text-anchor="middle" font-family="Arial, Helvetica, sans-serif" font-size="21" font-weight="800" fill="white" stroke="#111" stroke-width="3" paint-order="stroke">110</text>
<circle cx="679.5" cy="409.1" r="17.3" fill="white" fill-opacity="0.84"/>
<circle cx="679.5" cy="409.1" r="14.3" fill="#7A3CE8" fill-opacity="0.66" stroke="#111" stroke-width="2.5"/>
<text x="679.5" y="416.1" text-anchor="middle" font-family="Arial, Helvetica, sans-serif" font-size="21" font-weight="800" fill="white" stroke="#111" stroke-width="3" paint-order="stroke">111</text>
<circle cx="612.1" cy="415.9" r="17.2" fill="white" fill-opacity="0.84"/>
<circle cx="612.1" cy="415.9" r="14.2" fill="#7A3CE8" fill-opacity="0.66" stroke="#111" stroke-width="2.5"/>
<text x="612.1" y="422.9" text-anchor="middle" font-family="Arial, Helvetica, sans-serif" font-size="21" font-weight="800" fill="white" stroke="#111" stroke-width="3" paint-order="stroke">112</text>
<circle cx="465.4" cy="408.0" r="17.0" fill="white" fill-opacity="0.84"/>
<circle cx="465.4" cy="408.0" r="14.0" fill="#7A3CE8" fill-opacity="0.66" stroke="#111" stroke-width="2.5"/>
<text x="465.4" y="415.0" text-anchor="middle" font-family="Arial, Helvetica, sans-serif" font-size="21" font-weight="800" fill="white" stroke="#111" stroke-width="3" paint-order="stroke">113</text>
<circle cx="652.3" cy="413.6" r="20.1" fill="white" fill-opacity="0.84"/>
<circle cx="652.3" cy="413.6" r="17.1" fill="#7A3CE8" fill-opacity="0.66" stroke="#111" stroke-width="2.5"/>
<text x="652.3" y="420.6" text-anchor="middle" font-family="Arial, Helvetica, sans-serif" font-size="21" font-weight="800" fill="white" stroke="#111" stroke-width="3" paint-order="stroke">114</text>
<rect x="16" y="1094" width="1120" height="168" rx="8" fill="white" fill-opacity="0.92" stroke="#111" stroke-opacity="0.22"/>
<text x="36.0" y="1128.0" font-family="Arial, Helvetica, sans-serif" font-size="24" font-weight="600" fill="#111">K18 / k18_2.asc block 12 | teach-2-2-r.png | RT NA ms | 114 fixations</text>
<text x="36.0" y="1159.0" font-family="Arial, Helvetica, sans-serif" font-size="24" font-weight="600" fill="#111">numbers show fixation order; dot size shows fixation duration</text>
<circle cx="42" cy="1198" r="11" fill="#005DFF" fill-opacity="0.64" stroke="#111" stroke-width="2"/>
<text x="62.0" y="1206.0" font-family="Arial, Helvetica, sans-serif" font-size="22" font-weight="500" fill="#111">blue: before speech onset</text>
<circle cx="42" cy="1232" r="11" fill="#FF8A00" fill-opacity="0.64" stroke="#111" stroke-width="2"/>
<text x="62.0" y="1240.0" font-family="Arial, Helvetica, sans-serif" font-size="22" font-weight="500" fill="#111">orange: first 2000 ms after onset</text>
</svg>
