<svg xmlns="http://www.w3.org/2000/svg" width="1920" height="1320" viewBox="0 0 1920 1320">
<image href="https://raw.githubusercontent.com/mkurg/koryak/main/stimuli/Animate-animate%20centered%20and%20flipped/tie-1-2-l.png" x="0" y="0" width="1920" height="1080" preserveAspectRatio="none"/>
<rect x="0" y="0" width="1920" height="1080" fill="none" stroke="#111" stroke-width="2"/>
<rect x="0" y="1080" width="1920" height="240" fill="#f7f7f7"/>
<rect x="40.0" y="100.0" width="850" height="850" fill="none" stroke="#00B8D9" stroke-width="6" stroke-dasharray="18 12"/>
<rect x="52.0" y="62.0" width="102.0" height="38" rx="6" fill="white" fill-opacity="0.86" stroke="#00B8D9" stroke-width="3"/>
<text x="62.0" y="88.0" font-family="Arial, Helvetica, sans-serif" font-size="24" font-weight="700" fill="#111">AGENT</text>
<rect x="970.0" y="100.0" width="850" height="850" fill="none" stroke="#FF3B8A" stroke-width="6" stroke-dasharray="18 12"/>
<rect x="982.0" y="62.0" width="134.0" height="38" rx="6" fill="white" fill-opacity="0.86" stroke="#FF3B8A" stroke-width="3"/>
<text x="992.0" y="88.0" font-family="Arial, Helvetica, sans-serif" font-size="24" font-weight="700" fill="#111">PATIENT</text>
<polyline points="998.4,541.7 1085.5,605.8 833.8,587.8 1086.8,590.1 1183.3,586.9 1113.0,587.3 698.8,375.3 665.3,419.6 922.4,547.1 794.1,394.6 637.7,397.0 646.3,441.6 610.7,355.5 659.4,340.2 874.7,571.9 1124.5,534.1 1132.7,417.8 1258.0,580.6 1326.3,568.2 1322.0,485.4 1309.7,583.9 1275.7,580.9 1440.7,552.8 1419.2,417.8 1375.1,413.6 1301.7,470.5 1077.8,553.3 1012.9,561.9 934.2,543.1 1114.4,537.0 1188.5,413.0 1130.1,432.0 891.4,550.4 1049.6,570.7 786.6,563.0 1030.0,569.1 770.6,592.2 759.1,588.0 1138.1,565.2 1357.7,504.8 1140.1,515.8 892.3,536.5 821.6,556.9 1098.6,446.8 1153.0,325.6 663.9,314.4 590.5,321.2 1062.6,498.3 993.0,566.0 1089.7,502.2 1102.6,508.4 893.2,567.4 1093.6,551.5 1121.8,558.6 1101.9,485.3 1177.4,465.5 1134.1,329.0 1108.5,523.6 922.0,543.0 865.4,533.0 784.9,535.4 1132.0,513.4 1354.3,503.0 1092.0,514.7 1165.1,514.7 1222.2,483.1 1289.7,269.7 1196.0,340.4 1212.5,296.2 1176.1,318.6 1158.7,287.0" fill="none" stroke="#111" stroke-width="4" stroke-opacity="0.36" stroke-linejoin="round"/>
<circle cx="998.4" cy="541.7" r="15.3" fill="white" fill-opacity="0.84"/>
<circle cx="998.4" cy="541.7" r="12.3" fill="#005DFF" fill-opacity="0.66" stroke="#111" stroke-width="2.5"/>
<text x="998.4" y="548.7" text-anchor="middle" font-family="Arial, Helvetica, sans-serif" font-size="21" font-weight="800" fill="white" stroke="#111" stroke-width="3" paint-order="stroke">1</text>
<circle cx="1085.5" cy="605.8" r="21.3" fill="white" fill-opacity="0.84"/>
<circle cx="1085.5" cy="605.8" r="18.3" fill="#005DFF" fill-opacity="0.66" stroke="#111" stroke-width="2.5"/>
<text x="1085.5" y="612.8" text-anchor="middle" font-family="Arial, Helvetica, sans-serif" font-size="21" font-weight="800" fill="white" stroke="#111" stroke-width="3" paint-order="stroke">2</text>
<circle cx="833.8" cy="587.8" r="20.2" fill="white" fill-opacity="0.84"/>
<circle cx="833.8" cy="587.8" r="17.2" fill="#005DFF" fill-opacity="0.66" stroke="#111" stroke-width="2.5"/>
<text x="833.8" y="594.8" text-anchor="middle" font-family="Arial, Helvetica, sans-serif" font-size="21" font-weight="800" fill="white" stroke="#111" stroke-width="3" paint-order="stroke">3</text>
<circle cx="1086.8" cy="590.1" r="15.4" fill="white" fill-opacity="0.84"/>
<circle cx="1086.8" cy="590.1" r="12.4" fill="#005DFF" fill-opacity="0.66" stroke="#111" stroke-width="2.5"/>
<text x="1086.8" y="597.1" text-anchor="middle" font-family="Arial, Helvetica, sans-serif" font-size="21" font-weight="800" fill="white" stroke="#111" stroke-width="3" paint-order="stroke">4</text>
<circle cx="1183.3" cy="586.9" r="18.6" fill="white" fill-opacity="0.84"/>
<circle cx="1183.3" cy="586.9" r="15.6" fill="#005DFF" fill-opacity="0.66" stroke="#111" stroke-width="2.5"/>
<text x="1183.3" y="593.9" text-anchor="middle" font-family="Arial, Helvetica, sans-serif" font-size="21" font-weight="800" fill="white" stroke="#111" stroke-width="3" paint-order="stroke">5</text>
<circle cx="1113.0" cy="587.3" r="17.5" fill="white" fill-opacity="0.84"/>
<circle cx="1113.0" cy="587.3" r="14.5" fill="#005DFF" fill-opacity="0.66" stroke="#111" stroke-width="2.5"/>
<text x="1113.0" y="594.3" text-anchor="middle" font-family="Arial, Helvetica, sans-serif" font-size="21" font-weight="800" fill="white" stroke="#111" stroke-width="3" paint-order="stroke">6</text>
<circle cx="698.8" cy="375.3" r="15.1" fill="white" fill-opacity="0.84"/>
<circle cx="698.8" cy="375.3" r="12.1" fill="#005DFF" fill-opacity="0.66" stroke="#111" stroke-width="2.5"/>
<text x="698.8" y="382.3" text-anchor="middle" font-family="Arial, Helvetica, sans-serif" font-size="21" font-weight="800" fill="white" stroke="#111" stroke-width="3" paint-order="stroke">7</text>
<circle cx="665.3" cy="419.6" r="15.2" fill="white" fill-opacity="0.84"/>
<circle cx="665.3" cy="419.6" r="12.2" fill="#005DFF" fill-opacity="0.66" stroke="#111" stroke-width="2.5"/>
<text x="665.3" y="426.6" text-anchor="middle" font-family="Arial, Helvetica, sans-serif" font-size="21" font-weight="800" fill="white" stroke="#111" stroke-width="3" paint-order="stroke">8</text>
<circle cx="922.4" cy="547.1" r="17.9" fill="white" fill-opacity="0.84"/>
<circle cx="922.4" cy="547.1" r="14.9" fill="#005DFF" fill-opacity="0.66" stroke="#111" stroke-width="2.5"/>
<text x="922.4" y="554.1" text-anchor="middle" font-family="Arial, Helvetica, sans-serif" font-size="21" font-weight="800" fill="white" stroke="#111" stroke-width="3" paint-order="stroke">9</text>
<circle cx="794.1" cy="394.6" r="13.7" fill="white" fill-opacity="0.84"/>
<circle cx="794.1" cy="394.6" r="10.7" fill="#005DFF" fill-opacity="0.66" stroke="#111" stroke-width="2.5"/>
<text x="794.1" y="401.6" text-anchor="middle" font-family="Arial, Helvetica, sans-serif" font-size="21" font-weight="800" fill="white" stroke="#111" stroke-width="3" paint-order="stroke">10</text>
<circle cx="637.7" cy="397.0" r="14.7" fill="white" fill-opacity="0.84"/>
<circle cx="637.7" cy="397.0" r="11.7" fill="#005DFF" fill-opacity="0.66" stroke="#111" stroke-width="2.5"/>
<text x="637.7" y="404.0" text-anchor="middle" font-family="Arial, Helvetica, sans-serif" font-size="21" font-weight="800" fill="white" stroke="#111" stroke-width="3" paint-order="stroke">11</text>
<circle cx="646.3" cy="441.6" r="14.9" fill="white" fill-opacity="0.84"/>
<circle cx="646.3" cy="441.6" r="11.9" fill="#005DFF" fill-opacity="0.66" stroke="#111" stroke-width="2.5"/>
<text x="646.3" y="448.6" text-anchor="middle" font-family="Arial, Helvetica, sans-serif" font-size="21" font-weight="800" fill="white" stroke="#111" stroke-width="3" paint-order="stroke">12</text>
<circle cx="610.7" cy="355.5" r="18.7" fill="white" fill-opacity="0.84"/>
<circle cx="610.7" cy="355.5" r="15.7" fill="#005DFF" fill-opacity="0.66" stroke="#111" stroke-width="2.5"/>
<text x="610.7" y="362.5" text-anchor="middle" font-family="Arial, Helvetica, sans-serif" font-size="21" font-weight="800" fill="white" stroke="#111" stroke-width="3" paint-order="stroke">13</text>
<circle cx="659.4" cy="340.2" r="16.6" fill="white" fill-opacity="0.84"/>
<circle cx="659.4" cy="340.2" r="13.6" fill="#005DFF" fill-opacity="0.66" stroke="#111" stroke-width="2.5"/>
<text x="659.4" y="347.2" text-anchor="middle" font-family="Arial, Helvetica, sans-serif" font-size="21" font-weight="800" fill="white" stroke="#111" stroke-width="3" paint-order="stroke">14</text>
<circle cx="874.7" cy="571.9" r="17.2" fill="white" fill-opacity="0.84"/>
<circle cx="874.7" cy="571.9" r="14.2" fill="#005DFF" fill-opacity="0.66" stroke="#111" stroke-width="2.5"/>
<text x="874.7" y="578.9" text-anchor="middle" font-family="Arial, Helvetica, sans-serif" font-size="21" font-weight="800" fill="white" stroke="#111" stroke-width="3" paint-order="stroke">15</text>
<circle cx="1124.5" cy="534.1" r="18.9" fill="white" fill-opacity="0.84"/>
<circle cx="1124.5" cy="534.1" r="15.9" fill="#005DFF" fill-opacity="0.66" stroke="#111" stroke-width="2.5"/>
<text x="1124.5" y="541.1" text-anchor="middle" font-family="Arial, Helvetica, sans-serif" font-size="21" font-weight="800" fill="white" stroke="#111" stroke-width="3" paint-order="stroke">16</text>
<circle cx="1132.7" cy="417.8" r="22.4" fill="white" fill-opacity="0.84"/>
<circle cx="1132.7" cy="417.8" r="19.4" fill="#005DFF" fill-opacity="0.66" stroke="#111" stroke-width="2.5"/>
<text x="1132.7" y="424.8" text-anchor="middle" font-family="Arial, Helvetica, sans-serif" font-size="21" font-weight="800" fill="white" stroke="#111" stroke-width="3" paint-order="stroke">17</text>
<circle cx="1258.0" cy="580.6" r="18.1" fill="white" fill-opacity="0.84"/>
<circle cx="1258.0" cy="580.6" r="15.1" fill="#005DFF" fill-opacity="0.66" stroke="#111" stroke-width="2.5"/>
<text x="1258.0" y="587.6" text-anchor="middle" font-family="Arial, Helvetica, sans-serif" font-size="21" font-weight="800" fill="white" stroke="#111" stroke-width="3" paint-order="stroke">18</text>
<circle cx="1326.3" cy="568.2" r="16.2" fill="white" fill-opacity="0.84"/>
<circle cx="1326.3" cy="568.2" r="13.2" fill="#005DFF" fill-opacity="0.66" stroke="#111" stroke-width="2.5"/>
<text x="1326.3" y="575.2" text-anchor="middle" font-family="Arial, Helvetica, sans-serif" font-size="21" font-weight="800" fill="white" stroke="#111" stroke-width="3" paint-order="stroke">19</text>
<circle cx="1322.0" cy="485.4" r="17.1" fill="white" fill-opacity="0.84"/>
<circle cx="1322.0" cy="485.4" r="14.1" fill="#005DFF" fill-opacity="0.66" stroke="#111" stroke-width="2.5"/>
<text x="1322.0" y="492.4" text-anchor="middle" font-family="Arial, Helvetica, sans-serif" font-size="21" font-weight="800" fill="white" stroke="#111" stroke-width="3" paint-order="stroke">20</text>
<circle cx="1309.7" cy="583.9" r="17.0" fill="white" fill-opacity="0.84"/>
<circle cx="1309.7" cy="583.9" r="14.0" fill="#005DFF" fill-opacity="0.66" stroke="#111" stroke-width="2.5"/>
<text x="1309.7" y="590.9" text-anchor="middle" font-family="Arial, Helvetica, sans-serif" font-size="21" font-weight="800" fill="white" stroke="#111" stroke-width="3" paint-order="stroke">21</text>
<circle cx="1275.7" cy="580.9" r="17.3" fill="white" fill-opacity="0.84"/>
<circle cx="1275.7" cy="580.9" r="14.3" fill="#005DFF" fill-opacity="0.66" stroke="#111" stroke-width="2.5"/>
<text x="1275.7" y="587.9" text-anchor="middle" font-family="Arial, Helvetica, sans-serif" font-size="21" font-weight="800" fill="white" stroke="#111" stroke-width="3" paint-order="stroke">22</text>
<circle cx="1440.7" cy="552.8" r="17.1" fill="white" fill-opacity="0.84"/>
<circle cx="1440.7" cy="552.8" r="14.1" fill="#005DFF" fill-opacity="0.66" stroke="#111" stroke-width="2.5"/>
<text x="1440.7" y="559.8" text-anchor="middle" font-family="Arial, Helvetica, sans-serif" font-size="21" font-weight="800" fill="white" stroke="#111" stroke-width="3" paint-order="stroke">23</text>
<circle cx="1419.2" cy="417.8" r="17.8" fill="white" fill-opacity="0.84"/>
<circle cx="1419.2" cy="417.8" r="14.8" fill="#005DFF" fill-opacity="0.66" stroke="#111" stroke-width="2.5"/>
<text x="1419.2" y="424.8" text-anchor="middle" font-family="Arial, Helvetica, sans-serif" font-size="21" font-weight="800" fill="white" stroke="#111" stroke-width="3" paint-order="stroke">24</text>
<circle cx="1375.1" cy="413.6" r="15.7" fill="white" fill-opacity="0.84"/>
<circle cx="1375.1" cy="413.6" r="12.7" fill="#005DFF" fill-opacity="0.66" stroke="#111" stroke-width="2.5"/>
<text x="1375.1" y="420.6" text-anchor="middle" font-family="Arial, Helvetica, sans-serif" font-size="21" font-weight="800" fill="white" stroke="#111" stroke-width="3" paint-order="stroke">25</text>
<circle cx="1301.7" cy="470.5" r="15.6" fill="white" fill-opacity="0.84"/>
<circle cx="1301.7" cy="470.5" r="12.6" fill="#005DFF" fill-opacity="0.66" stroke="#111" stroke-width="2.5"/>
<text x="1301.7" y="477.5" text-anchor="middle" font-family="Arial, Helvetica, sans-serif" font-size="21" font-weight="800" fill="white" stroke="#111" stroke-width="3" paint-order="stroke">26</text>
<circle cx="1077.8" cy="553.3" r="18.9" fill="white" fill-opacity="0.84"/>
<circle cx="1077.8" cy="553.3" r="15.9" fill="#005DFF" fill-opacity="0.66" stroke="#111" stroke-width="2.5"/>
<text x="1077.8" y="560.3" text-anchor="middle" font-family="Arial, Helvetica, sans-serif" font-size="21" font-weight="800" fill="white" stroke="#111" stroke-width="3" paint-order="stroke">27</text>
<circle cx="1012.9" cy="561.9" r="16.9" fill="white" fill-opacity="0.84"/>
<circle cx="1012.9" cy="561.9" r="13.9" fill="#005DFF" fill-opacity="0.66" stroke="#111" stroke-width="2.5"/>
<text x="1012.9" y="568.9" text-anchor="middle" font-family="Arial, Helvetica, sans-serif" font-size="21" font-weight="800" fill="white" stroke="#111" stroke-width="3" paint-order="stroke">28</text>
<circle cx="934.2" cy="543.1" r="17.7" fill="white" fill-opacity="0.84"/>
<circle cx="934.2" cy="543.1" r="14.7" fill="#005DFF" fill-opacity="0.66" stroke="#111" stroke-width="2.5"/>
<text x="934.2" y="550.1" text-anchor="middle" font-family="Arial, Helvetica, sans-serif" font-size="21" font-weight="800" fill="white" stroke="#111" stroke-width="3" paint-order="stroke">29</text>
<circle cx="1114.4" cy="537.0" r="18.5" fill="white" fill-opacity="0.84"/>
<circle cx="1114.4" cy="537.0" r="15.5" fill="#005DFF" fill-opacity="0.66" stroke="#111" stroke-width="2.5"/>
<text x="1114.4" y="544.0" text-anchor="middle" font-family="Arial, Helvetica, sans-serif" font-size="21" font-weight="800" fill="white" stroke="#111" stroke-width="3" paint-order="stroke">30</text>
<circle cx="1188.5" cy="413.0" r="19.3" fill="white" fill-opacity="0.84"/>
<circle cx="1188.5" cy="413.0" r="16.3" fill="#005DFF" fill-opacity="0.66" stroke="#111" stroke-width="2.5"/>
<text x="1188.5" y="420.0" text-anchor="middle" font-family="Arial, Helvetica, sans-serif" font-size="21" font-weight="800" fill="white" stroke="#111" stroke-width="3" paint-order="stroke">31</text>
<circle cx="1130.1" cy="432.0" r="16.2" fill="white" fill-opacity="0.84"/>
<circle cx="1130.1" cy="432.0" r="13.2" fill="#005DFF" fill-opacity="0.66" stroke="#111" stroke-width="2.5"/>
<text x="1130.1" y="439.0" text-anchor="middle" font-family="Arial, Helvetica, sans-serif" font-size="21" font-weight="800" fill="white" stroke="#111" stroke-width="3" paint-order="stroke">32</text>
<circle cx="891.4" cy="550.4" r="19.1" fill="white" fill-opacity="0.84"/>
<circle cx="891.4" cy="550.4" r="16.1" fill="#005DFF" fill-opacity="0.66" stroke="#111" stroke-width="2.5"/>
<text x="891.4" y="557.4" text-anchor="middle" font-family="Arial, Helvetica, sans-serif" font-size="21" font-weight="800" fill="white" stroke="#111" stroke-width="3" paint-order="stroke">33</text>
<circle cx="1049.6" cy="570.7" r="16.7" fill="white" fill-opacity="0.84"/>
<circle cx="1049.6" cy="570.7" r="13.7" fill="#005DFF" fill-opacity="0.66" stroke="#111" stroke-width="2.5"/>
<text x="1049.6" y="577.7" text-anchor="middle" font-family="Arial, Helvetica, sans-serif" font-size="21" font-weight="800" fill="white" stroke="#111" stroke-width="3" paint-order="stroke">34</text>
<circle cx="786.6" cy="563.0" r="18.1" fill="white" fill-opacity="0.84"/>
<circle cx="786.6" cy="563.0" r="15.1" fill="#005DFF" fill-opacity="0.66" stroke="#111" stroke-width="2.5"/>
<text x="786.6" y="570.0" text-anchor="middle" font-family="Arial, Helvetica, sans-serif" font-size="21" font-weight="800" fill="white" stroke="#111" stroke-width="3" paint-order="stroke">35</text>
<circle cx="1030.0" cy="569.1" r="17.8" fill="white" fill-opacity="0.84"/>
<circle cx="1030.0" cy="569.1" r="14.8" fill="#005DFF" fill-opacity="0.66" stroke="#111" stroke-width="2.5"/>
<text x="1030.0" y="576.1" text-anchor="middle" font-family="Arial, Helvetica, sans-serif" font-size="21" font-weight="800" fill="white" stroke="#111" stroke-width="3" paint-order="stroke">36</text>
<circle cx="770.6" cy="592.2" r="18.1" fill="white" fill-opacity="0.84"/>
<circle cx="770.6" cy="592.2" r="15.1" fill="#005DFF" fill-opacity="0.66" stroke="#111" stroke-width="2.5"/>
<text x="770.6" y="599.2" text-anchor="middle" font-family="Arial, Helvetica, sans-serif" font-size="21" font-weight="800" fill="white" stroke="#111" stroke-width="3" paint-order="stroke">37</text>
<circle cx="759.1" cy="588.0" r="16.1" fill="white" fill-opacity="0.84"/>
<circle cx="759.1" cy="588.0" r="13.1" fill="#005DFF" fill-opacity="0.66" stroke="#111" stroke-width="2.5"/>
<text x="759.1" y="595.0" text-anchor="middle" font-family="Arial, Helvetica, sans-serif" font-size="21" font-weight="800" fill="white" stroke="#111" stroke-width="3" paint-order="stroke">38</text>
<circle cx="1138.1" cy="565.2" r="19.6" fill="white" fill-opacity="0.84"/>
<circle cx="1138.1" cy="565.2" r="16.6" fill="#005DFF" fill-opacity="0.66" stroke="#111" stroke-width="2.5"/>
<text x="1138.1" y="572.2" text-anchor="middle" font-family="Arial, Helvetica, sans-serif" font-size="21" font-weight="800" fill="white" stroke="#111" stroke-width="3" paint-order="stroke">39</text>
<circle cx="1357.7" cy="504.8" r="16.3" fill="white" fill-opacity="0.84"/>
<circle cx="1357.7" cy="504.8" r="13.3" fill="#005DFF" fill-opacity="0.66" stroke="#111" stroke-width="2.5"/>
<text x="1357.7" y="511.8" text-anchor="middle" font-family="Arial, Helvetica, sans-serif" font-size="21" font-weight="800" fill="white" stroke="#111" stroke-width="3" paint-order="stroke">40</text>
<circle cx="1140.1" cy="515.8" r="15.6" fill="white" fill-opacity="0.84"/>
<circle cx="1140.1" cy="515.8" r="12.6" fill="#005DFF" fill-opacity="0.66" stroke="#111" stroke-width="2.5"/>
<text x="1140.1" y="522.8" text-anchor="middle" font-family="Arial, Helvetica, sans-serif" font-size="21" font-weight="800" fill="white" stroke="#111" stroke-width="3" paint-order="stroke">41</text>
<circle cx="892.3" cy="536.5" r="15.4" fill="white" fill-opacity="0.84"/>
<circle cx="892.3" cy="536.5" r="12.4" fill="#005DFF" fill-opacity="0.66" stroke="#111" stroke-width="2.5"/>
<text x="892.3" y="543.5" text-anchor="middle" font-family="Arial, Helvetica, sans-serif" font-size="21" font-weight="800" fill="white" stroke="#111" stroke-width="3" paint-order="stroke">42</text>
<circle cx="821.6" cy="556.9" r="18.0" fill="white" fill-opacity="0.84"/>
<circle cx="821.6" cy="556.9" r="15.0" fill="#005DFF" fill-opacity="0.66" stroke="#111" stroke-width="2.5"/>
<text x="821.6" y="563.9" text-anchor="middle" font-family="Arial, Helvetica, sans-serif" font-size="21" font-weight="800" fill="white" stroke="#111" stroke-width="3" paint-order="stroke">43</text>
<circle cx="1098.6" cy="446.8" r="20.1" fill="white" fill-opacity="0.84"/>
<circle cx="1098.6" cy="446.8" r="17.1" fill="#005DFF" fill-opacity="0.66" stroke="#111" stroke-width="2.5"/>
<text x="1098.6" y="453.8" text-anchor="middle" font-family="Arial, Helvetica, sans-serif" font-size="21" font-weight="800" fill="white" stroke="#111" stroke-width="3" paint-order="stroke">44</text>
<circle cx="1153.0" cy="325.6" r="16.0" fill="white" fill-opacity="0.84"/>
<circle cx="1153.0" cy="325.6" r="13.0" fill="#005DFF" fill-opacity="0.66" stroke="#111" stroke-width="2.5"/>
<text x="1153.0" y="332.6" text-anchor="middle" font-family="Arial, Helvetica, sans-serif" font-size="21" font-weight="800" fill="white" stroke="#111" stroke-width="3" paint-order="stroke">45</text>
<circle cx="663.9" cy="314.4" r="15.7" fill="white" fill-opacity="0.84"/>
<circle cx="663.9" cy="314.4" r="12.7" fill="#005DFF" fill-opacity="0.66" stroke="#111" stroke-width="2.5"/>
<text x="663.9" y="321.4" text-anchor="middle" font-family="Arial, Helvetica, sans-serif" font-size="21" font-weight="800" fill="white" stroke="#111" stroke-width="3" paint-order="stroke">46</text>
<circle cx="590.5" cy="321.2" r="16.1" fill="white" fill-opacity="0.84"/>
<circle cx="590.5" cy="321.2" r="13.1" fill="#005DFF" fill-opacity="0.66" stroke="#111" stroke-width="2.5"/>
<text x="590.5" y="328.2" text-anchor="middle" font-family="Arial, Helvetica, sans-serif" font-size="21" font-weight="800" fill="white" stroke="#111" stroke-width="3" paint-order="stroke">47</text>
<circle cx="1062.6" cy="498.3" r="17.9" fill="white" fill-opacity="0.84"/>
<circle cx="1062.6" cy="498.3" r="14.9" fill="#005DFF" fill-opacity="0.66" stroke="#111" stroke-width="2.5"/>
<text x="1062.6" y="505.3" text-anchor="middle" font-family="Arial, Helvetica, sans-serif" font-size="21" font-weight="800" fill="white" stroke="#111" stroke-width="3" paint-order="stroke">48</text>
<circle cx="993.0" cy="566.0" r="16.0" fill="white" fill-opacity="0.84"/>
<circle cx="993.0" cy="566.0" r="13.0" fill="#005DFF" fill-opacity="0.66" stroke="#111" stroke-width="2.5"/>
<text x="993.0" y="573.0" text-anchor="middle" font-family="Arial, Helvetica, sans-serif" font-size="21" font-weight="800" fill="white" stroke="#111" stroke-width="3" paint-order="stroke">49</text>
<circle cx="1089.7" cy="502.2" r="19.2" fill="white" fill-opacity="0.84"/>
<circle cx="1089.7" cy="502.2" r="16.2" fill="#005DFF" fill-opacity="0.66" stroke="#111" stroke-width="2.5"/>
<text x="1089.7" y="509.2" text-anchor="middle" font-family="Arial, Helvetica, sans-serif" font-size="21" font-weight="800" fill="white" stroke="#111" stroke-width="3" paint-order="stroke">50</text>
<circle cx="1102.6" cy="508.4" r="20.4" fill="white" fill-opacity="0.84"/>
<circle cx="1102.6" cy="508.4" r="17.4" fill="#005DFF" fill-opacity="0.66" stroke="#111" stroke-width="2.5"/>
<text x="1102.6" y="515.4" text-anchor="middle" font-family="Arial, Helvetica, sans-serif" font-size="21" font-weight="800" fill="white" stroke="#111" stroke-width="3" paint-order="stroke">51</text>
<circle cx="893.2" cy="567.4" r="18.5" fill="white" fill-opacity="0.84"/>
<circle cx="893.2" cy="567.4" r="15.5" fill="#005DFF" fill-opacity="0.66" stroke="#111" stroke-width="2.5"/>
<text x="893.2" y="574.4" text-anchor="middle" font-family="Arial, Helvetica, sans-serif" font-size="21" font-weight="800" fill="white" stroke="#111" stroke-width="3" paint-order="stroke">52</text>
<circle cx="1093.6" cy="551.5" r="19.1" fill="white" fill-opacity="0.84"/>
<circle cx="1093.6" cy="551.5" r="16.1" fill="#005DFF" fill-opacity="0.66" stroke="#111" stroke-width="2.5"/>
<text x="1093.6" y="558.5" text-anchor="middle" font-family="Arial, Helvetica, sans-serif" font-size="21" font-weight="800" fill="white" stroke="#111" stroke-width="3" paint-order="stroke">53</text>
<circle cx="1121.8" cy="558.6" r="17.0" fill="white" fill-opacity="0.84"/>
<circle cx="1121.8" cy="558.6" r="14.0" fill="#005DFF" fill-opacity="0.66" stroke="#111" stroke-width="2.5"/>
<text x="1121.8" y="565.6" text-anchor="middle" font-family="Arial, Helvetica, sans-serif" font-size="21" font-weight="800" fill="white" stroke="#111" stroke-width="3" paint-order="stroke">54</text>
<circle cx="1101.9" cy="485.3" r="16.3" fill="white" fill-opacity="0.84"/>
<circle cx="1101.9" cy="485.3" r="13.3" fill="#005DFF" fill-opacity="0.66" stroke="#111" stroke-width="2.5"/>
<text x="1101.9" y="492.3" text-anchor="middle" font-family="Arial, Helvetica, sans-serif" font-size="21" font-weight="800" fill="white" stroke="#111" stroke-width="3" paint-order="stroke">55</text>
<circle cx="1177.4" cy="465.5" r="15.5" fill="white" fill-opacity="0.84"/>
<circle cx="1177.4" cy="465.5" r="12.5" fill="#005DFF" fill-opacity="0.66" stroke="#111" stroke-width="2.5"/>
<text x="1177.4" y="472.5" text-anchor="middle" font-family="Arial, Helvetica, sans-serif" font-size="21" font-weight="800" fill="white" stroke="#111" stroke-width="3" paint-order="stroke">56</text>
<circle cx="1134.1" cy="329.0" r="17.2" fill="white" fill-opacity="0.84"/>
<circle cx="1134.1" cy="329.0" r="14.2" fill="#005DFF" fill-opacity="0.66" stroke="#111" stroke-width="2.5"/>
<text x="1134.1" y="336.0" text-anchor="middle" font-family="Arial, Helvetica, sans-serif" font-size="21" font-weight="800" fill="white" stroke="#111" stroke-width="3" paint-order="stroke">57</text>
<circle cx="1108.5" cy="523.6" r="16.8" fill="white" fill-opacity="0.84"/>
<circle cx="1108.5" cy="523.6" r="13.8" fill="#005DFF" fill-opacity="0.66" stroke="#111" stroke-width="2.5"/>
<text x="1108.5" y="530.6" text-anchor="middle" font-family="Arial, Helvetica, sans-serif" font-size="21" font-weight="800" fill="white" stroke="#111" stroke-width="3" paint-order="stroke">58</text>
<circle cx="922.0" cy="543.0" r="17.9" fill="white" fill-opacity="0.84"/>
<circle cx="922.0" cy="543.0" r="14.9" fill="#005DFF" fill-opacity="0.66" stroke="#111" stroke-width="2.5"/>
<text x="922.0" y="550.0" text-anchor="middle" font-family="Arial, Helvetica, sans-serif" font-size="21" font-weight="800" fill="white" stroke="#111" stroke-width="3" paint-order="stroke">59</text>
<circle cx="865.4" cy="533.0" r="16.6" fill="white" fill-opacity="0.84"/>
<circle cx="865.4" cy="533.0" r="13.6" fill="#005DFF" fill-opacity="0.66" stroke="#111" stroke-width="2.5"/>
<text x="865.4" y="540.0" text-anchor="middle" font-family="Arial, Helvetica, sans-serif" font-size="21" font-weight="800" fill="white" stroke="#111" stroke-width="3" paint-order="stroke">60</text>
<circle cx="784.9" cy="535.4" r="18.6" fill="white" fill-opacity="0.84"/>
<circle cx="784.9" cy="535.4" r="15.6" fill="#005DFF" fill-opacity="0.66" stroke="#111" stroke-width="2.5"/>
<text x="784.9" y="542.4" text-anchor="middle" font-family="Arial, Helvetica, sans-serif" font-size="21" font-weight="800" fill="white" stroke="#111" stroke-width="3" paint-order="stroke">61</text>
<circle cx="1132.0" cy="513.4" r="18.2" fill="white" fill-opacity="0.84"/>
<circle cx="1132.0" cy="513.4" r="15.2" fill="#005DFF" fill-opacity="0.66" stroke="#111" stroke-width="2.5"/>
<text x="1132.0" y="520.4" text-anchor="middle" font-family="Arial, Helvetica, sans-serif" font-size="21" font-weight="800" fill="white" stroke="#111" stroke-width="3" paint-order="stroke">62</text>
<circle cx="1354.3" cy="503.0" r="16.3" fill="white" fill-opacity="0.84"/>
<circle cx="1354.3" cy="503.0" r="13.3" fill="#005DFF" fill-opacity="0.66" stroke="#111" stroke-width="2.5"/>
<text x="1354.3" y="510.0" text-anchor="middle" font-family="Arial, Helvetica, sans-serif" font-size="21" font-weight="800" fill="white" stroke="#111" stroke-width="3" paint-order="stroke">63</text>
<circle cx="1092.0" cy="514.7" r="15.4" fill="white" fill-opacity="0.84"/>
<circle cx="1092.0" cy="514.7" r="12.4" fill="#FF8A00" fill-opacity="0.66" stroke="#111" stroke-width="2.5"/>
<text x="1092.0" y="521.7" text-anchor="middle" font-family="Arial, Helvetica, sans-serif" font-size="21" font-weight="800" fill="white" stroke="#111" stroke-width="3" paint-order="stroke">64</text>
<circle cx="1165.1" cy="514.7" r="16.7" fill="white" fill-opacity="0.84"/>
<circle cx="1165.1" cy="514.7" r="13.7" fill="#FF8A00" fill-opacity="0.66" stroke="#111" stroke-width="2.5"/>
<text x="1165.1" y="521.7" text-anchor="middle" font-family="Arial, Helvetica, sans-serif" font-size="21" font-weight="800" fill="white" stroke="#111" stroke-width="3" paint-order="stroke">65</text>
<circle cx="1222.2" cy="483.1" r="11.8" fill="white" fill-opacity="0.84"/>
<circle cx="1222.2" cy="483.1" r="8.8" fill="#FF8A00" fill-opacity="0.66" stroke="#111" stroke-width="2.5"/>
<text x="1222.2" y="490.1" text-anchor="middle" font-family="Arial, Helvetica, sans-serif" font-size="21" font-weight="800" fill="white" stroke="#111" stroke-width="3" paint-order="stroke">66</text>
<circle cx="1289.7" cy="269.7" r="15.1" fill="white" fill-opacity="0.84"/>
<circle cx="1289.7" cy="269.7" r="12.1" fill="#FF8A00" fill-opacity="0.66" stroke="#111" stroke-width="2.5"/>
<text x="1289.7" y="276.7" text-anchor="middle" font-family="Arial, Helvetica, sans-serif" font-size="21" font-weight="800" fill="white" stroke="#111" stroke-width="3" paint-order="stroke">67</text>
<circle cx="1196.0" cy="340.4" r="12.8" fill="white" fill-opacity="0.84"/>
<circle cx="1196.0" cy="340.4" r="9.8" fill="#FF8A00" fill-opacity="0.66" stroke="#111" stroke-width="2.5"/>
<text x="1196.0" y="347.4" text-anchor="middle" font-family="Arial, Helvetica, sans-serif" font-size="21" font-weight="800" fill="white" stroke="#111" stroke-width="3" paint-order="stroke">68</text>
<circle cx="1212.5" cy="296.2" r="14.1" fill="white" fill-opacity="0.84"/>
<circle cx="1212.5" cy="296.2" r="11.1" fill="#FF8A00" fill-opacity="0.66" stroke="#111" stroke-width="2.5"/>
<text x="1212.5" y="303.2" text-anchor="middle" font-family="Arial, Helvetica, sans-serif" font-size="21" font-weight="800" fill="white" stroke="#111" stroke-width="3" paint-order="stroke">69</text>
<circle cx="1176.1" cy="318.6" r="17.7" fill="white" fill-opacity="0.84"/>
<circle cx="1176.1" cy="318.6" r="14.7" fill="#FF8A00" fill-opacity="0.66" stroke="#111" stroke-width="2.5"/>
<text x="1176.1" y="325.6" text-anchor="middle" font-family="Arial, Helvetica, sans-serif" font-size="21" font-weight="800" fill="white" stroke="#111" stroke-width="3" paint-order="stroke">70</text>
<circle cx="1158.7" cy="287.0" r="15.7" fill="white" fill-opacity="0.84"/>
<circle cx="1158.7" cy="287.0" r="12.7" fill="#FF8A00" fill-opacity="0.66" stroke="#111" stroke-width="2.5"/>
<text x="1158.7" y="294.0" text-anchor="middle" font-family="Arial, Helvetica, sans-serif" font-size="21" font-weight="800" fill="white" stroke="#111" stroke-width="3" paint-order="stroke">71</text>
<rect x="16" y="1094" width="1120" height="168" rx="8" fill="white" fill-opacity="0.92" stroke="#111" stroke-opacity="0.22"/>
<text x="36.0" y="1128.0" font-family="Arial, Helvetica, sans-serif" font-size="24" font-weight="600" fill="#111">K22 / k22.asc block 34 | tie-1-2-l.png | RT 22959 ms | 71 fixations</text>
<text x="36.0" y="1159.0" font-family="Arial, Helvetica, sans-serif" font-size="24" font-weight="600" fill="#111">numbers show fixation order; dot size shows fixation duration</text>
<circle cx="42" cy="1198" r="11" fill="#005DFF" fill-opacity="0.64" stroke="#111" stroke-width="2"/>
<text x="62.0" y="1206.0" font-family="Arial, Helvetica, sans-serif" font-size="22" font-weight="500" fill="#111">blue: before speech onset</text>
<circle cx="42" cy="1232" r="11" fill="#FF8A00" fill-opacity="0.64" stroke="#111" stroke-width="2"/>
<text x="62.0" y="1240.0" font-family="Arial, Helvetica, sans-serif" font-size="22" font-weight="500" fill="#111">orange: first 2000 ms after onset</text>
</svg>
