<svg xmlns="http://www.w3.org/2000/svg" width="1920" height="1320" viewBox="0 0 1920 1320">
<image href="https://raw.githubusercontent.com/mkurg/koryak/main/stimuli/Animate-animate%20centered%20and%20flipped/shoot-1-2-l.png" x="0" y="0" width="1920" height="1080" preserveAspectRatio="none"/>
<rect x="0" y="0" width="1920" height="1080" fill="none" stroke="#111" stroke-width="2"/>
<rect x="0" y="1080" width="1920" height="240" fill="#f7f7f7"/>
<rect x="40.0" y="100.0" width="850" height="850" fill="none" stroke="#00B8D9" stroke-width="6" stroke-dasharray="18 12"/>
<rect x="52.0" y="62.0" width="102.0" height="38" rx="6" fill="white" fill-opacity="0.86" stroke="#00B8D9" stroke-width="3"/>
<text x="62.0" y="88.0" font-family="Arial, Helvetica, sans-serif" font-size="24" font-weight="700" fill="#111">AGENT</text>
<rect x="970.0" y="100.0" width="850" height="850" fill="none" stroke="#FF3B8A" stroke-width="6" stroke-dasharray="18 12"/>
<rect x="982.0" y="62.0" width="134.0" height="38" rx="6" fill="white" fill-opacity="0.86" stroke="#FF3B8A" stroke-width="3"/>
<text x="992.0" y="88.0" font-family="Arial, Helvetica, sans-serif" font-size="24" font-weight="700" fill="#111">PATIENT</text>
<polyline points="1141.1,381.9 852.4,448.3 629.1,390.8 593.3,346.7 605.7,356.8 591.0,360.2 600.3,370.4 574.9,377.7 612.3,338.4 597.8,372.5 707.6,405.2 789.5,448.5 939.3,465.9 900.3,465.6 1103.1,454.5 1154.1,458.2 795.7,462.3 748.9,425.6 1174.5,433.3 1129.2,462.4 805.3,387.0 600.1,433.6 735.0,441.4 866.6,409.3 707.6,423.6 585.2,418.3 601.0,320.4 1220.5,392.7 1459.3,400.1 1451.1,281.7 1182.3,271.0 1136.0,288.0 767.2,424.2 816.9,446.6 679.7,432.4 993.2,445.4 1104.8,468.5 928.0,428.8 873.2,461.7 1175.5,483.8 1132.1,499.4" fill="none" stroke="#111" stroke-width="4" stroke-opacity="0.36" stroke-linejoin="round"/>
<circle cx="1141.1" cy="381.9" r="16.1" fill="white" fill-opacity="0.84"/>
<circle cx="1141.1" cy="381.9" r="13.1" fill="#7A3CE8" fill-opacity="0.66" stroke="#111" stroke-width="2.5"/>
<text x="1141.1" y="388.9" text-anchor="middle" font-family="Arial, Helvetica, sans-serif" font-size="21" font-weight="800" fill="white" stroke="#111" stroke-width="3" paint-order="stroke">1</text>
<circle cx="852.4" cy="448.3" r="18.1" fill="white" fill-opacity="0.84"/>
<circle cx="852.4" cy="448.3" r="15.1" fill="#7A3CE8" fill-opacity="0.66" stroke="#111" stroke-width="2.5"/>
<text x="852.4" y="455.3" text-anchor="middle" font-family="Arial, Helvetica, sans-serif" font-size="21" font-weight="800" fill="white" stroke="#111" stroke-width="3" paint-order="stroke">2</text>
<circle cx="629.1" cy="390.8" r="17.9" fill="white" fill-opacity="0.84"/>
<circle cx="629.1" cy="390.8" r="14.9" fill="#7A3CE8" fill-opacity="0.66" stroke="#111" stroke-width="2.5"/>
<text x="629.1" y="397.8" text-anchor="middle" font-family="Arial, Helvetica, sans-serif" font-size="21" font-weight="800" fill="white" stroke="#111" stroke-width="3" paint-order="stroke">3</text>
<circle cx="593.3" cy="346.7" r="19.1" fill="white" fill-opacity="0.84"/>
<circle cx="593.3" cy="346.7" r="16.1" fill="#7A3CE8" fill-opacity="0.66" stroke="#111" stroke-width="2.5"/>
<text x="593.3" y="353.7" text-anchor="middle" font-family="Arial, Helvetica, sans-serif" font-size="21" font-weight="800" fill="white" stroke="#111" stroke-width="3" paint-order="stroke">4</text>
<circle cx="605.7" cy="356.8" r="17.5" fill="white" fill-opacity="0.84"/>
<circle cx="605.7" cy="356.8" r="14.5" fill="#7A3CE8" fill-opacity="0.66" stroke="#111" stroke-width="2.5"/>
<text x="605.7" y="363.8" text-anchor="middle" font-family="Arial, Helvetica, sans-serif" font-size="21" font-weight="800" fill="white" stroke="#111" stroke-width="3" paint-order="stroke">5</text>
<circle cx="591.0" cy="360.2" r="18.5" fill="white" fill-opacity="0.84"/>
<circle cx="591.0" cy="360.2" r="15.5" fill="#7A3CE8" fill-opacity="0.66" stroke="#111" stroke-width="2.5"/>
<text x="591.0" y="367.2" text-anchor="middle" font-family="Arial, Helvetica, sans-serif" font-size="21" font-weight="800" fill="white" stroke="#111" stroke-width="3" paint-order="stroke">6</text>
<circle cx="600.3" cy="370.4" r="14.6" fill="white" fill-opacity="0.84"/>
<circle cx="600.3" cy="370.4" r="11.6" fill="#7A3CE8" fill-opacity="0.66" stroke="#111" stroke-width="2.5"/>
<text x="600.3" y="377.4" text-anchor="middle" font-family="Arial, Helvetica, sans-serif" font-size="21" font-weight="800" fill="white" stroke="#111" stroke-width="3" paint-order="stroke">7</text>
<circle cx="574.9" cy="377.7" r="18.5" fill="white" fill-opacity="0.84"/>
<circle cx="574.9" cy="377.7" r="15.5" fill="#7A3CE8" fill-opacity="0.66" stroke="#111" stroke-width="2.5"/>
<text x="574.9" y="384.7" text-anchor="middle" font-family="Arial, Helvetica, sans-serif" font-size="21" font-weight="800" fill="white" stroke="#111" stroke-width="3" paint-order="stroke">8</text>
<circle cx="612.3" cy="338.4" r="15.3" fill="white" fill-opacity="0.84"/>
<circle cx="612.3" cy="338.4" r="12.3" fill="#7A3CE8" fill-opacity="0.66" stroke="#111" stroke-width="2.5"/>
<text x="612.3" y="345.4" text-anchor="middle" font-family="Arial, Helvetica, sans-serif" font-size="21" font-weight="800" fill="white" stroke="#111" stroke-width="3" paint-order="stroke">9</text>
<circle cx="597.8" cy="372.5" r="20.0" fill="white" fill-opacity="0.84"/>
<circle cx="597.8" cy="372.5" r="17.0" fill="#7A3CE8" fill-opacity="0.66" stroke="#111" stroke-width="2.5"/>
<text x="597.8" y="379.5" text-anchor="middle" font-family="Arial, Helvetica, sans-serif" font-size="21" font-weight="800" fill="white" stroke="#111" stroke-width="3" paint-order="stroke">10</text>
<circle cx="707.6" cy="405.2" r="15.6" fill="white" fill-opacity="0.84"/>
<circle cx="707.6" cy="405.2" r="12.6" fill="#7A3CE8" fill-opacity="0.66" stroke="#111" stroke-width="2.5"/>
<text x="707.6" y="412.2" text-anchor="middle" font-family="Arial, Helvetica, sans-serif" font-size="21" font-weight="800" fill="white" stroke="#111" stroke-width="3" paint-order="stroke">11</text>
<circle cx="789.5" cy="448.5" r="15.8" fill="white" fill-opacity="0.84"/>
<circle cx="789.5" cy="448.5" r="12.8" fill="#7A3CE8" fill-opacity="0.66" stroke="#111" stroke-width="2.5"/>
<text x="789.5" y="455.5" text-anchor="middle" font-family="Arial, Helvetica, sans-serif" font-size="21" font-weight="800" fill="white" stroke="#111" stroke-width="3" paint-order="stroke">12</text>
<circle cx="939.3" cy="465.9" r="16.7" fill="white" fill-opacity="0.84"/>
<circle cx="939.3" cy="465.9" r="13.7" fill="#7A3CE8" fill-opacity="0.66" stroke="#111" stroke-width="2.5"/>
<text x="939.3" y="472.9" text-anchor="middle" font-family="Arial, Helvetica, sans-serif" font-size="21" font-weight="800" fill="white" stroke="#111" stroke-width="3" paint-order="stroke">13</text>
<circle cx="900.3" cy="465.6" r="14.4" fill="white" fill-opacity="0.84"/>
<circle cx="900.3" cy="465.6" r="11.4" fill="#7A3CE8" fill-opacity="0.66" stroke="#111" stroke-width="2.5"/>
<text x="900.3" y="472.6" text-anchor="middle" font-family="Arial, Helvetica, sans-serif" font-size="21" font-weight="800" fill="white" stroke="#111" stroke-width="3" paint-order="stroke">14</text>
<circle cx="1103.1" cy="454.5" r="18.0" fill="white" fill-opacity="0.84"/>
<circle cx="1103.1" cy="454.5" r="15.0" fill="#7A3CE8" fill-opacity="0.66" stroke="#111" stroke-width="2.5"/>
<text x="1103.1" y="461.5" text-anchor="middle" font-family="Arial, Helvetica, sans-serif" font-size="21" font-weight="800" fill="white" stroke="#111" stroke-width="3" paint-order="stroke">15</text>
<circle cx="1154.1" cy="458.2" r="19.2" fill="white" fill-opacity="0.84"/>
<circle cx="1154.1" cy="458.2" r="16.2" fill="#7A3CE8" fill-opacity="0.66" stroke="#111" stroke-width="2.5"/>
<text x="1154.1" y="465.2" text-anchor="middle" font-family="Arial, Helvetica, sans-serif" font-size="21" font-weight="800" fill="white" stroke="#111" stroke-width="3" paint-order="stroke">16</text>
<circle cx="795.7" cy="462.3" r="17.6" fill="white" fill-opacity="0.84"/>
<circle cx="795.7" cy="462.3" r="14.6" fill="#7A3CE8" fill-opacity="0.66" stroke="#111" stroke-width="2.5"/>
<text x="795.7" y="469.3" text-anchor="middle" font-family="Arial, Helvetica, sans-serif" font-size="21" font-weight="800" fill="white" stroke="#111" stroke-width="3" paint-order="stroke">17</text>
<circle cx="748.9" cy="425.6" r="16.6" fill="white" fill-opacity="0.84"/>
<circle cx="748.9" cy="425.6" r="13.6" fill="#7A3CE8" fill-opacity="0.66" stroke="#111" stroke-width="2.5"/>
<text x="748.9" y="432.6" text-anchor="middle" font-family="Arial, Helvetica, sans-serif" font-size="21" font-weight="800" fill="white" stroke="#111" stroke-width="3" paint-order="stroke">18</text>
<circle cx="1174.5" cy="433.3" r="15.8" fill="white" fill-opacity="0.84"/>
<circle cx="1174.5" cy="433.3" r="12.8" fill="#7A3CE8" fill-opacity="0.66" stroke="#111" stroke-width="2.5"/>
<text x="1174.5" y="440.3" text-anchor="middle" font-family="Arial, Helvetica, sans-serif" font-size="21" font-weight="800" fill="white" stroke="#111" stroke-width="3" paint-order="stroke">19</text>
<circle cx="1129.2" cy="462.4" r="16.7" fill="white" fill-opacity="0.84"/>
<circle cx="1129.2" cy="462.4" r="13.7" fill="#7A3CE8" fill-opacity="0.66" stroke="#111" stroke-width="2.5"/>
<text x="1129.2" y="469.4" text-anchor="middle" font-family="Arial, Helvetica, sans-serif" font-size="21" font-weight="800" fill="white" stroke="#111" stroke-width="3" paint-order="stroke">20</text>
<circle cx="805.3" cy="387.0" r="18.5" fill="white" fill-opacity="0.84"/>
<circle cx="805.3" cy="387.0" r="15.5" fill="#7A3CE8" fill-opacity="0.66" stroke="#111" stroke-width="2.5"/>
<text x="805.3" y="394.0" text-anchor="middle" font-family="Arial, Helvetica, sans-serif" font-size="21" font-weight="800" fill="white" stroke="#111" stroke-width="3" paint-order="stroke">21</text>
<circle cx="600.1" cy="433.6" r="17.8" fill="white" fill-opacity="0.84"/>
<circle cx="600.1" cy="433.6" r="14.8" fill="#7A3CE8" fill-opacity="0.66" stroke="#111" stroke-width="2.5"/>
<text x="600.1" y="440.6" text-anchor="middle" font-family="Arial, Helvetica, sans-serif" font-size="21" font-weight="800" fill="white" stroke="#111" stroke-width="3" paint-order="stroke">22</text>
<circle cx="735.0" cy="441.4" r="18.5" fill="white" fill-opacity="0.84"/>
<circle cx="735.0" cy="441.4" r="15.5" fill="#7A3CE8" fill-opacity="0.66" stroke="#111" stroke-width="2.5"/>
<text x="735.0" y="448.4" text-anchor="middle" font-family="Arial, Helvetica, sans-serif" font-size="21" font-weight="800" fill="white" stroke="#111" stroke-width="3" paint-order="stroke">23</text>
<circle cx="866.6" cy="409.3" r="14.2" fill="white" fill-opacity="0.84"/>
<circle cx="866.6" cy="409.3" r="11.2" fill="#7A3CE8" fill-opacity="0.66" stroke="#111" stroke-width="2.5"/>
<text x="866.6" y="416.3" text-anchor="middle" font-family="Arial, Helvetica, sans-serif" font-size="21" font-weight="800" fill="white" stroke="#111" stroke-width="3" paint-order="stroke">24</text>
<circle cx="707.6" cy="423.6" r="15.8" fill="white" fill-opacity="0.84"/>
<circle cx="707.6" cy="423.6" r="12.8" fill="#7A3CE8" fill-opacity="0.66" stroke="#111" stroke-width="2.5"/>
<text x="707.6" y="430.6" text-anchor="middle" font-family="Arial, Helvetica, sans-serif" font-size="21" font-weight="800" fill="white" stroke="#111" stroke-width="3" paint-order="stroke">25</text>
<circle cx="585.2" cy="418.3" r="16.7" fill="white" fill-opacity="0.84"/>
<circle cx="585.2" cy="418.3" r="13.7" fill="#7A3CE8" fill-opacity="0.66" stroke="#111" stroke-width="2.5"/>
<text x="585.2" y="425.3" text-anchor="middle" font-family="Arial, Helvetica, sans-serif" font-size="21" font-weight="800" fill="white" stroke="#111" stroke-width="3" paint-order="stroke">26</text>
<circle cx="601.0" cy="320.4" r="18.3" fill="white" fill-opacity="0.84"/>
<circle cx="601.0" cy="320.4" r="15.3" fill="#7A3CE8" fill-opacity="0.66" stroke="#111" stroke-width="2.5"/>
<text x="601.0" y="327.4" text-anchor="middle" font-family="Arial, Helvetica, sans-serif" font-size="21" font-weight="800" fill="white" stroke="#111" stroke-width="3" paint-order="stroke">27</text>
<circle cx="1220.5" cy="392.7" r="19.2" fill="white" fill-opacity="0.84"/>
<circle cx="1220.5" cy="392.7" r="16.2" fill="#7A3CE8" fill-opacity="0.66" stroke="#111" stroke-width="2.5"/>
<text x="1220.5" y="399.7" text-anchor="middle" font-family="Arial, Helvetica, sans-serif" font-size="21" font-weight="800" fill="white" stroke="#111" stroke-width="3" paint-order="stroke">28</text>
<circle cx="1459.3" cy="400.1" r="19.6" fill="white" fill-opacity="0.84"/>
<circle cx="1459.3" cy="400.1" r="16.6" fill="#7A3CE8" fill-opacity="0.66" stroke="#111" stroke-width="2.5"/>
<text x="1459.3" y="407.1" text-anchor="middle" font-family="Arial, Helvetica, sans-serif" font-size="21" font-weight="800" fill="white" stroke="#111" stroke-width="3" paint-order="stroke">29</text>
<circle cx="1451.1" cy="281.7" r="20.9" fill="white" fill-opacity="0.84"/>
<circle cx="1451.1" cy="281.7" r="17.9" fill="#7A3CE8" fill-opacity="0.66" stroke="#111" stroke-width="2.5"/>
<text x="1451.1" y="288.7" text-anchor="middle" font-family="Arial, Helvetica, sans-serif" font-size="21" font-weight="800" fill="white" stroke="#111" stroke-width="3" paint-order="stroke">30</text>
<circle cx="1182.3" cy="271.0" r="17.3" fill="white" fill-opacity="0.84"/>
<circle cx="1182.3" cy="271.0" r="14.3" fill="#7A3CE8" fill-opacity="0.66" stroke="#111" stroke-width="2.5"/>
<text x="1182.3" y="278.0" text-anchor="middle" font-family="Arial, Helvetica, sans-serif" font-size="21" font-weight="800" fill="white" stroke="#111" stroke-width="3" paint-order="stroke">31</text>
<circle cx="1136.0" cy="288.0" r="15.7" fill="white" fill-opacity="0.84"/>
<circle cx="1136.0" cy="288.0" r="12.7" fill="#7A3CE8" fill-opacity="0.66" stroke="#111" stroke-width="2.5"/>
<text x="1136.0" y="295.0" text-anchor="middle" font-family="Arial, Helvetica, sans-serif" font-size="21" font-weight="800" fill="white" stroke="#111" stroke-width="3" paint-order="stroke">32</text>
<circle cx="767.2" cy="424.2" r="17.5" fill="white" fill-opacity="0.84"/>
<circle cx="767.2" cy="424.2" r="14.5" fill="#7A3CE8" fill-opacity="0.66" stroke="#111" stroke-width="2.5"/>
<text x="767.2" y="431.2" text-anchor="middle" font-family="Arial, Helvetica, sans-serif" font-size="21" font-weight="800" fill="white" stroke="#111" stroke-width="3" paint-order="stroke">33</text>
<circle cx="816.9" cy="446.6" r="18.7" fill="white" fill-opacity="0.84"/>
<circle cx="816.9" cy="446.6" r="15.7" fill="#7A3CE8" fill-opacity="0.66" stroke="#111" stroke-width="2.5"/>
<text x="816.9" y="453.6" text-anchor="middle" font-family="Arial, Helvetica, sans-serif" font-size="21" font-weight="800" fill="white" stroke="#111" stroke-width="3" paint-order="stroke">34</text>
<circle cx="679.7" cy="432.4" r="16.1" fill="white" fill-opacity="0.84"/>
<circle cx="679.7" cy="432.4" r="13.1" fill="#7A3CE8" fill-opacity="0.66" stroke="#111" stroke-width="2.5"/>
<text x="679.7" y="439.4" text-anchor="middle" font-family="Arial, Helvetica, sans-serif" font-size="21" font-weight="800" fill="white" stroke="#111" stroke-width="3" paint-order="stroke">35</text>
<circle cx="993.2" cy="445.4" r="15.0" fill="white" fill-opacity="0.84"/>
<circle cx="993.2" cy="445.4" r="12.0" fill="#7A3CE8" fill-opacity="0.66" stroke="#111" stroke-width="2.5"/>
<text x="993.2" y="452.4" text-anchor="middle" font-family="Arial, Helvetica, sans-serif" font-size="21" font-weight="800" fill="white" stroke="#111" stroke-width="3" paint-order="stroke">36</text>
<circle cx="1104.8" cy="468.5" r="14.9" fill="white" fill-opacity="0.84"/>
<circle cx="1104.8" cy="468.5" r="11.9" fill="#7A3CE8" fill-opacity="0.66" stroke="#111" stroke-width="2.5"/>
<text x="1104.8" y="475.5" text-anchor="middle" font-family="Arial, Helvetica, sans-serif" font-size="21" font-weight="800" fill="white" stroke="#111" stroke-width="3" paint-order="stroke">37</text>
<circle cx="928.0" cy="428.8" r="14.7" fill="white" fill-opacity="0.84"/>
<circle cx="928.0" cy="428.8" r="11.7" fill="#7A3CE8" fill-opacity="0.66" stroke="#111" stroke-width="2.5"/>
<text x="928.0" y="435.8" text-anchor="middle" font-family="Arial, Helvetica, sans-serif" font-size="21" font-weight="800" fill="white" stroke="#111" stroke-width="3" paint-order="stroke">38</text>
<circle cx="873.2" cy="461.7" r="16.6" fill="white" fill-opacity="0.84"/>
<circle cx="873.2" cy="461.7" r="13.6" fill="#7A3CE8" fill-opacity="0.66" stroke="#111" stroke-width="2.5"/>
<text x="873.2" y="468.7" text-anchor="middle" font-family="Arial, Helvetica, sans-serif" font-size="21" font-weight="800" fill="white" stroke="#111" stroke-width="3" paint-order="stroke">39</text>
<circle cx="1175.5" cy="483.8" r="15.9" fill="white" fill-opacity="0.84"/>
<circle cx="1175.5" cy="483.8" r="12.9" fill="#7A3CE8" fill-opacity="0.66" stroke="#111" stroke-width="2.5"/>
<text x="1175.5" y="490.8" text-anchor="middle" font-family="Arial, Helvetica, sans-serif" font-size="21" font-weight="800" fill="white" stroke="#111" stroke-width="3" paint-order="stroke">40</text>
<circle cx="1132.1" cy="499.4" r="14.0" fill="white" fill-opacity="0.84"/>
<circle cx="1132.1" cy="499.4" r="11.0" fill="#7A3CE8" fill-opacity="0.66" stroke="#111" stroke-width="2.5"/>
<text x="1132.1" y="506.4" text-anchor="middle" font-family="Arial, Helvetica, sans-serif" font-size="21" font-weight="800" fill="white" stroke="#111" stroke-width="3" paint-order="stroke">41</text>
<rect x="16" y="1094" width="1120" height="168" rx="8" fill="white" fill-opacity="0.92" stroke="#111" stroke-opacity="0.22"/>
<text x="36.0" y="1128.0" font-family="Arial, Helvetica, sans-serif" font-size="24" font-weight="600" fill="#111">K22 / k22.asc block 81 | shoot-1-2-l.png | RT NA ms | 41 fixations</text>
<text x="36.0" y="1159.0" font-family="Arial, Helvetica, sans-serif" font-size="24" font-weight="600" fill="#111">numbers show fixation order; dot size shows fixation duration</text>
<circle cx="42" cy="1198" r="11" fill="#005DFF" fill-opacity="0.64" stroke="#111" stroke-width="2"/>
<text x="62.0" y="1206.0" font-family="Arial, Helvetica, sans-serif" font-size="22" font-weight="500" fill="#111">blue: before speech onset</text>
<circle cx="42" cy="1232" r="11" fill="#FF8A00" fill-opacity="0.64" stroke="#111" stroke-width="2"/>
<text x="62.0" y="1240.0" font-family="Arial, Helvetica, sans-serif" font-size="22" font-weight="500" fill="#111">orange: first 2000 ms after onset</text>
</svg>
