<svg xmlns="http://www.w3.org/2000/svg" width="900" height="560" viewBox="0 0 900 560">
<rect width="100%" height="100%" fill="white"/>
<style>
text { font-family: Arial, Helvetica, sans-serif; fill: #222; }
.title { font-size: 21px; font-weight: 700; }
.subtitle { font-size: 13px; fill: #555; }
.axis { stroke: #222; stroke-width: 1; }
.grid { stroke: #dddddd; stroke-width: 1; }
.tick { font-size: 12px; fill: #333; }
.label { font-size: 14px; fill: #222; }
.legend { font-size: 13px; fill: #222; }
.onset { font-size: 13px; font-weight: 700; fill: #222; }
</style>
<text class="title" x="453.0" y="30" text-anchor="middle">Khanty Passive Speech Planning: IEM_a1</text>
<text class="subtitle" x="453.0" y="51" text-anchor="middle">0-3500 ms from display; 50-ms bins; n = 4 passive trials</text>
<line class="grid" x1="86" x2="820" y1="470.00" y2="470.00"/>
<text class="tick" x="76" y="474.00" text-anchor="end">0.0</text>
<line class="grid" x1="86" x2="820" y1="430.20" y2="430.20"/>
<text class="tick" x="76" y="434.20" text-anchor="end">0.1</text>
<line class="grid" x1="86" x2="820" y1="390.40" y2="390.40"/>
<text class="tick" x="76" y="394.40" text-anchor="end">0.2</text>
<line class="grid" x1="86" x2="820" y1="350.60" y2="350.60"/>
<text class="tick" x="76" y="354.60" text-anchor="end">0.3</text>
<line class="grid" x1="86" x2="820" y1="310.80" y2="310.80"/>
<text class="tick" x="76" y="314.80" text-anchor="end">0.4</text>
<line class="grid" x1="86" x2="820" y1="271.00" y2="271.00"/>
<text class="tick" x="76" y="275.00" text-anchor="end">0.5</text>
<line class="grid" x1="86" x2="820" y1="231.20" y2="231.20"/>
<text class="tick" x="76" y="235.20" text-anchor="end">0.6</text>
<line class="grid" x1="86" x2="820" y1="191.40" y2="191.40"/>
<text class="tick" x="76" y="195.40" text-anchor="end">0.7</text>
<line class="grid" x1="86" x2="820" y1="151.60" y2="151.60"/>
<text class="tick" x="76" y="155.60" text-anchor="end">0.8</text>
<line class="grid" x1="86" x2="820" y1="111.80" y2="111.80"/>
<text class="tick" x="76" y="115.80" text-anchor="end">0.9</text>
<line class="grid" x1="86" x2="820" y1="72.00" y2="72.00"/>
<text class="tick" x="76" y="76.00" text-anchor="end">1.0</text>
<line class="grid" x1="86.00" x2="86.00" y1="72" y2="470"/>
<text class="tick" x="86.00" y="492" text-anchor="middle">0</text>
<line class="grid" x1="190.86" x2="190.86" y1="72" y2="470"/>
<text class="tick" x="190.86" y="492" text-anchor="middle">500</text>
<line class="grid" x1="295.71" x2="295.71" y1="72" y2="470"/>
<text class="tick" x="295.71" y="492" text-anchor="middle">1000</text>
<line class="grid" x1="400.57" x2="400.57" y1="72" y2="470"/>
<text class="tick" x="400.57" y="492" text-anchor="middle">1500</text>
<line class="grid" x1="505.43" x2="505.43" y1="72" y2="470"/>
<text class="tick" x="505.43" y="492" text-anchor="middle">2000</text>
<line class="grid" x1="610.29" x2="610.29" y1="72" y2="470"/>
<text class="tick" x="610.29" y="492" text-anchor="middle">2500</text>
<line class="grid" x1="715.14" x2="715.14" y1="72" y2="470"/>
<text class="tick" x="715.14" y="492" text-anchor="middle">3000</text>
<line class="grid" x1="820.00" x2="820.00" y1="72" y2="470"/>
<text class="tick" x="820.00" y="492" text-anchor="middle">3500</text>
<line class="axis" x1="86" x2="820" y1="470" y2="470"/>
<line class="axis" x1="86" x2="86" y1="72" y2="470"/>
<text class="label" x="453.0" y="532" text-anchor="middle">Time from sentence display (ms)</text>
<text class="label" x="22" y="271.0" text-anchor="middle" transform="rotate(-90 22 271.0)">Proportion of Looks</text>
<line x1="568.45" x2="568.45" y1="72" y2="470" stroke="#333333" stroke-width="2" stroke-dasharray="7 6"/>
<rect x="574.45" y="77" width="80" height="22" fill="white" opacity="0.92"/>
<text class="onset" x="580.45" y="92">2300 ms</text>
<polygon points="86.00,171.50 96.49,167.27 106.97,72.00 117.46,72.00 127.94,72.00 138.43,72.00 148.91,72.00 159.40,72.00 169.89,72.00 180.37,72.00 190.86,72.00 201.34,72.00 211.83,72.00 222.31,72.00 232.80,72.00 243.29,72.00 253.77,72.00 264.26,72.00 274.74,72.00 285.23,72.00 295.71,72.00 306.20,93.93 316.69,72.00 327.17,72.00 337.66,72.00 348.14,72.00 358.63,72.00 369.11,72.00 379.60,72.00 390.09,72.00 400.57,72.00 411.06,72.00 421.54,72.00 432.03,72.00 442.51,72.00 453.00,72.00 463.49,72.00 473.97,72.00 484.46,106.27 494.94,171.50 505.43,171.50 515.91,171.50 526.40,356.57 536.89,470.00 547.37,470.00 557.86,470.00 568.34,470.00 578.83,470.00 589.31,440.15 599.80,171.50 610.29,171.50 620.77,237.17 631.26,470.00 641.74,470.00 652.23,314.78 662.71,171.50 673.20,171.50 683.69,132.86 694.17,72.00 704.66,72.00 715.14,72.00 725.63,72.00 736.11,152.34 746.60,72.00 757.09,72.00 767.57,72.00 778.06,72.00 788.54,88.94 799.03,320.75 809.51,470.00 809.51,470.00 799.03,470.00 788.54,470.00 778.06,470.00 767.57,390.98 757.09,404.10 746.60,470.00 736.11,470.00 725.63,470.00 715.14,417.30 704.66,370.50 694.17,453.06 683.69,470.00 673.20,470.00 662.71,470.00 652.23,470.00 641.74,470.00 631.26,470.00 620.77,470.00 610.29,470.00 599.80,470.00 589.31,470.00 578.83,470.00 568.34,470.00 557.86,470.00 547.37,470.00 536.89,470.00 526.40,470.00 515.91,470.00 505.43,470.00 494.94,470.00 484.46,470.00 473.97,470.00 463.49,470.00 453.00,406.57 442.51,387.28 432.03,420.19 421.54,370.50 411.06,370.50 400.57,370.50 390.09,370.50 379.60,370.50 369.11,370.50 358.63,370.50 348.14,370.50 337.66,370.50 327.17,456.72 316.69,470.00 306.20,424.19 295.71,470.00 285.23,396.12 274.74,470.00 264.26,470.00 253.77,390.42 243.29,370.50 232.80,370.50 222.31,370.50 211.83,370.50 201.34,370.50 190.86,470.00 180.37,470.00 169.89,470.00 159.40,429.29 148.91,389.09 138.43,470.00 127.94,470.00 117.46,470.00 106.97,470.00 96.49,470.00 86.00,470.00" fill="#CC3311" opacity="0.12"/>
<path d="M86.00,370.50 L96.49,360.55 L106.97,271.00 L117.46,271.00 L127.94,271.00 L138.43,271.00 L148.91,201.35 L159.40,233.19 L169.89,271.00 L180.37,271.00 L190.86,263.04 L201.34,171.50 L211.83,171.50 L222.31,171.50 L232.80,171.50 L243.29,171.50 L253.77,219.26 L264.26,265.03 L274.74,271.00 L285.23,225.23 L295.71,271.00 L306.20,259.06 L316.69,271.00 L327.17,249.11 L337.66,171.50 L348.14,171.50 L358.63,171.50 L369.11,171.50 L379.60,171.50 L390.09,171.50 L400.57,171.50 L411.06,171.50 L421.54,171.50 L432.03,227.22 L442.51,199.36 L453.00,217.27 L463.49,271.00 L473.97,271.00 L484.46,304.83 L494.94,370.50 L505.43,370.50 L515.91,370.50 L526.40,432.19 L536.89,470.00 L547.37,470.00 L557.86,470.00 L568.34,470.00 L578.83,470.00 L589.31,460.05 L599.80,370.50 L610.29,370.50 L620.77,392.39 L631.26,470.00 L641.74,470.00 L652.23,418.26 L662.71,370.50 L673.20,370.50 L683.69,322.74 L694.17,247.12 L704.66,171.50 L715.14,225.23 L725.63,271.00 L736.11,328.71 L746.60,271.00 L757.09,215.28 L767.57,203.34 L778.06,271.00 L788.54,294.88 L799.03,420.25 L809.51,470.00" fill="none" stroke="#CC3311" stroke-width="3" stroke-linejoin="round" stroke-linecap="round"/>
<polygon points="86.00,72.00 96.49,72.00 106.97,171.50 117.46,171.50 127.94,171.50 138.43,171.50 148.91,380.45 159.40,284.93 169.89,171.50 180.37,171.50 190.86,171.50 201.34,171.50 211.83,171.50 222.31,171.50 232.80,171.50 243.29,171.50 253.77,151.58 264.26,171.50 274.74,171.50 285.23,171.50 295.71,171.50 306.20,171.50 316.69,171.50 327.17,171.50 337.66,171.50 348.14,171.50 358.63,171.50 369.11,171.50 379.60,171.50 390.09,171.50 400.57,171.50 411.06,171.50 421.54,368.51 432.03,302.84 442.51,171.50 453.00,135.43 463.49,72.00 473.97,72.00 484.46,77.50 494.94,72.00 505.43,72.00 515.91,72.00 526.40,72.00 536.89,72.00 547.37,72.00 557.86,72.00 568.34,72.00 578.83,72.00 589.31,72.00 599.80,72.00 610.29,72.00 620.77,72.00 631.26,72.00 641.74,72.00 652.23,72.00 662.71,72.00 673.20,72.00 683.69,72.00 694.17,88.94 704.66,171.50 715.14,171.50 725.63,171.50 736.11,171.50 746.60,171.50 757.09,171.50 767.57,171.50 778.06,171.50 788.54,171.50 799.03,246.63 809.51,140.30 809.51,470.00 799.03,430.69 788.54,470.00 778.06,470.00 767.57,470.00 757.09,470.00 746.60,470.00 736.11,470.00 725.63,470.00 715.14,470.00 704.66,470.00 694.17,470.00 683.69,409.14 673.20,370.50 662.71,370.50 652.23,370.50 641.74,370.50 631.26,370.50 620.77,370.50 610.29,370.50 599.80,370.50 589.31,101.85 578.83,233.19 568.34,380.89 557.86,371.97 547.37,316.77 536.89,72.00 526.40,185.43 515.91,395.01 505.43,470.00 494.94,470.00 484.46,436.64 473.97,470.00 463.49,470.00 453.00,470.00 442.51,470.00 432.03,470.00 421.54,470.00 411.06,470.00 400.57,470.00 390.09,470.00 379.60,470.00 369.11,470.00 358.63,470.00 348.14,470.00 337.66,470.00 327.17,470.00 316.69,470.00 306.20,470.00 295.71,470.00 285.23,470.00 274.74,470.00 264.26,470.00 253.77,470.00 243.29,470.00 232.80,470.00 222.31,470.00 211.83,470.00 201.34,470.00 190.86,470.00 180.37,470.00 169.89,470.00 159.40,470.00 148.91,470.00 138.43,470.00 127.94,470.00 117.46,470.00 106.97,470.00 96.49,470.00 86.00,470.00" fill="#0077BB" opacity="0.12"/>
<path d="M86.00,271.00 L96.49,280.95 L106.97,370.50 L117.46,370.50 L127.94,370.50 L138.43,370.50 L148.91,440.15 L159.40,408.31 L169.89,370.50 L180.37,370.50 L190.86,370.50 L201.34,370.50 L211.83,370.50 L222.31,370.50 L232.80,370.50 L243.29,370.50 L253.77,322.74 L264.26,370.50 L274.74,370.50 L285.23,370.50 L295.71,370.50 L306.20,370.50 L316.69,370.50 L327.17,370.50 L337.66,370.50 L348.14,370.50 L358.63,370.50 L369.11,370.50 L379.60,370.50 L390.09,370.50 L400.57,370.50 L411.06,370.50 L421.54,436.17 L432.03,414.28 L442.51,370.50 L453.00,324.73 L463.49,271.00 L473.97,271.00 L484.46,257.07 L494.94,271.00 L505.43,271.00 L515.91,207.32 L526.40,109.81 L536.89,72.00 L547.37,153.59 L557.86,175.48 L568.34,191.40 L578.83,125.73 L589.31,81.95 L599.80,171.50 L610.29,171.50 L620.77,171.50 L631.26,171.50 L641.74,171.50 L652.23,171.50 L662.71,171.50 L673.20,171.50 L683.69,219.26 L694.17,294.88 L704.66,370.50 L715.14,370.50 L725.63,370.50 L736.11,370.50 L746.60,370.50 L757.09,370.50 L767.57,370.50 L778.06,370.50 L788.54,370.50 L799.03,338.66 L809.51,328.71" fill="none" stroke="#0077BB" stroke-width="3" stroke-linejoin="round" stroke-linecap="round"/>
<line x1="655" x2="683" y1="107" y2="107" stroke="#CC3311" stroke-width="3"/>
<text class="legend" x="693" y="111">Agent</text>
<line x1="655" x2="683" y1="129" y2="129" stroke="#0077BB" stroke-width="3"/>
<text class="legend" x="693" y="133">Patient</text>
<line x1="655" x2="683" y1="151" y2="151" stroke="#333333" stroke-width="2" stroke-dasharray="7 6"/>
<text class="legend" x="693" y="155">Mean speech onset</text>
</svg>