<svg xmlns="http://www.w3.org/2000/svg" width="900" height="560" viewBox="0 0 900 560">
<rect width="100%" height="100%" fill="white"/>
<style>
text { font-family: Arial, Helvetica, sans-serif; fill: #222; }
.title { font-size: 21px; font-weight: 700; }
.subtitle { font-size: 13px; fill: #555; }
.axis { stroke: #222; stroke-width: 1; }
.grid { stroke: #dddddd; stroke-width: 1; }
.tick { font-size: 12px; fill: #333; }
.label { font-size: 14px; fill: #222; }
.legend { font-size: 13px; fill: #222; }
.onset { font-size: 13px; font-weight: 700; fill: #222; }
</style>
<text class="title" x="453.0" y="30" text-anchor="middle">Khanty Passive Speech Planning: IEM_b3</text>
<text class="subtitle" x="453.0" y="51" text-anchor="middle">0-3500 ms from display; 50-ms bins; n = 6 passive trials</text>
<line class="grid" x1="86" x2="820" y1="470.00" y2="470.00"/>
<text class="tick" x="76" y="474.00" text-anchor="end">0.0</text>
<line class="grid" x1="86" x2="820" y1="430.20" y2="430.20"/>
<text class="tick" x="76" y="434.20" text-anchor="end">0.1</text>
<line class="grid" x1="86" x2="820" y1="390.40" y2="390.40"/>
<text class="tick" x="76" y="394.40" text-anchor="end">0.2</text>
<line class="grid" x1="86" x2="820" y1="350.60" y2="350.60"/>
<text class="tick" x="76" y="354.60" text-anchor="end">0.3</text>
<line class="grid" x1="86" x2="820" y1="310.80" y2="310.80"/>
<text class="tick" x="76" y="314.80" text-anchor="end">0.4</text>
<line class="grid" x1="86" x2="820" y1="271.00" y2="271.00"/>
<text class="tick" x="76" y="275.00" text-anchor="end">0.5</text>
<line class="grid" x1="86" x2="820" y1="231.20" y2="231.20"/>
<text class="tick" x="76" y="235.20" text-anchor="end">0.6</text>
<line class="grid" x1="86" x2="820" y1="191.40" y2="191.40"/>
<text class="tick" x="76" y="195.40" text-anchor="end">0.7</text>
<line class="grid" x1="86" x2="820" y1="151.60" y2="151.60"/>
<text class="tick" x="76" y="155.60" text-anchor="end">0.8</text>
<line class="grid" x1="86" x2="820" y1="111.80" y2="111.80"/>
<text class="tick" x="76" y="115.80" text-anchor="end">0.9</text>
<line class="grid" x1="86" x2="820" y1="72.00" y2="72.00"/>
<text class="tick" x="76" y="76.00" text-anchor="end">1.0</text>
<line class="grid" x1="86.00" x2="86.00" y1="72" y2="470"/>
<text class="tick" x="86.00" y="492" text-anchor="middle">0</text>
<line class="grid" x1="190.86" x2="190.86" y1="72" y2="470"/>
<text class="tick" x="190.86" y="492" text-anchor="middle">500</text>
<line class="grid" x1="295.71" x2="295.71" y1="72" y2="470"/>
<text class="tick" x="295.71" y="492" text-anchor="middle">1000</text>
<line class="grid" x1="400.57" x2="400.57" y1="72" y2="470"/>
<text class="tick" x="400.57" y="492" text-anchor="middle">1500</text>
<line class="grid" x1="505.43" x2="505.43" y1="72" y2="470"/>
<text class="tick" x="505.43" y="492" text-anchor="middle">2000</text>
<line class="grid" x1="610.29" x2="610.29" y1="72" y2="470"/>
<text class="tick" x="610.29" y="492" text-anchor="middle">2500</text>
<line class="grid" x1="715.14" x2="715.14" y1="72" y2="470"/>
<text class="tick" x="715.14" y="492" text-anchor="middle">3000</text>
<line class="grid" x1="820.00" x2="820.00" y1="72" y2="470"/>
<text class="tick" x="820.00" y="492" text-anchor="middle">3500</text>
<line class="axis" x1="86" x2="820" y1="470" y2="470"/>
<line class="axis" x1="86" x2="86" y1="72" y2="470"/>
<text class="label" x="453.0" y="532" text-anchor="middle">Time from sentence display (ms)</text>
<text class="label" x="22" y="271.0" text-anchor="middle" transform="rotate(-90 22 271.0)">Proportion of Looks</text>
<line x1="733.07" x2="733.07" y1="72" y2="470" stroke="#333333" stroke-width="2" stroke-dasharray="7 6"/>
<rect x="732.00" y="77" width="80" height="22" fill="white" opacity="0.92"/>
<text class="onset" x="738.00" y="92">3086 ms</text>
<polygon points="86.00,93.01 96.49,93.01 106.97,93.01 117.46,128.75 127.94,93.01 138.43,120.71 148.91,169.52 159.40,169.52 169.89,267.40 180.37,231.53 190.86,93.01 201.34,93.01 211.83,93.01 222.31,93.01 232.80,93.01 243.29,93.01 253.77,93.01 264.26,93.01 274.74,86.30 285.23,72.00 295.71,72.00 306.20,72.00 316.69,72.00 327.17,72.00 337.66,72.00 348.14,72.00 358.63,72.00 369.11,72.00 379.60,89.92 390.09,93.01 400.57,93.01 411.06,128.75 421.54,169.52 432.03,165.90 442.51,93.01 453.00,88.87 463.49,72.00 473.97,93.01 484.46,93.01 494.94,160.80 505.43,206.16 515.91,358.56 526.40,470.00 536.89,462.04 547.37,271.00 557.86,271.00 568.34,271.00 578.83,271.00 589.31,162.76 599.80,93.01 610.29,144.41 620.77,169.52 631.26,169.52 641.74,169.52 652.23,169.52 662.71,169.52 673.20,109.79 683.69,81.20 694.17,72.00 704.66,72.00 715.14,137.45 725.63,169.52 736.11,155.38 746.60,93.01 757.09,93.01 767.57,93.01 778.06,93.01 788.54,93.01 799.03,93.01 809.51,93.01 809.51,448.99 799.03,448.99 788.54,448.99 778.06,448.99 767.57,448.99 757.09,448.99 746.60,448.99 736.11,470.00 725.63,470.00 715.14,431.08 704.66,372.48 694.17,372.48 683.69,402.42 673.20,450.78 662.71,470.00 652.23,470.00 641.74,470.00 631.26,470.00 620.77,470.00 610.29,463.92 599.80,448.99 589.31,470.00 578.83,470.00 568.34,470.00 557.86,470.00 547.37,470.00 536.89,470.00 526.40,470.00 515.91,470.00 505.43,470.00 494.94,470.00 484.46,448.99 473.97,448.99 463.49,389.10 453.00,421.29 442.51,448.99 432.03,470.00 421.54,470.00 411.06,455.70 400.57,448.99 390.09,448.99 379.60,425.54 369.11,372.48 358.63,341.13 348.14,271.00 337.66,275.63 327.17,323.28 316.69,271.00 306.20,366.52 295.71,372.48 285.23,372.48 274.74,413.25 264.26,448.99 253.77,448.99 243.29,448.99 232.80,448.99 222.31,448.99 211.83,448.99 201.34,448.99 190.86,448.99 180.37,470.00 169.89,470.00 159.40,470.00 148.91,470.00 138.43,453.13 127.94,448.99 117.46,455.70 106.97,448.99 96.49,448.99 86.00,448.99" fill="#CC3311" opacity="0.12"/>
<path d="M86.00,271.00 L96.49,271.00 L106.97,271.00 L117.46,292.23 L127.94,271.00 L138.43,286.92 L148.91,337.33 L159.40,337.33 L169.89,398.36 L180.37,358.56 L190.86,271.00 L201.34,271.00 L211.83,271.00 L222.31,271.00 L232.80,271.00 L243.29,271.00 L253.77,271.00 L264.26,271.00 L274.74,249.77 L285.23,204.67 L295.71,204.67 L306.20,202.01 L316.69,138.33 L327.17,180.79 L337.66,144.97 L348.14,138.33 L358.63,190.07 L369.11,204.67 L379.60,257.73 L390.09,271.00 L400.57,271.00 L411.06,292.23 L421.54,337.33 L432.03,329.37 L442.51,271.00 L453.00,255.08 L463.49,229.87 L473.97,271.00 L484.46,271.00 L494.94,321.41 L505.43,354.58 L515.91,432.85 L526.40,470.00 L536.89,467.35 L547.37,403.67 L557.86,403.67 L568.34,403.67 L578.83,403.67 L589.31,321.41 L599.80,271.00 L610.29,304.17 L620.77,337.33 L631.26,337.33 L641.74,337.33 L652.23,337.33 L662.71,337.33 L673.20,280.29 L683.69,241.81 L694.17,204.67 L704.66,204.67 L715.14,284.27 L725.63,337.33 L736.11,314.78 L746.60,271.00 L757.09,271.00 L767.57,271.00 L778.06,271.00 L788.54,271.00 L799.03,271.00 L809.51,271.00" fill="none" stroke="#CC3311" stroke-width="3" stroke-linejoin="round" stroke-linecap="round"/>
<polygon points="86.00,221.11 96.49,223.47 106.97,164.37 117.46,86.30 127.94,93.01 138.43,88.87 148.91,72.00 159.40,72.00 169.89,72.00 180.37,72.00 190.86,93.01 201.34,93.01 211.83,93.01 222.31,93.01 232.80,93.01 243.29,93.01 253.77,93.01 264.26,93.01 274.74,128.75 285.23,169.52 295.71,169.52 306.20,175.48 316.69,271.00 327.17,218.72 337.66,266.37 348.14,271.00 358.63,200.87 369.11,169.52 379.60,116.46 390.09,93.01 400.57,93.01 411.06,93.01 421.54,164.37 432.03,265.29 442.51,189.89 453.00,174.77 463.49,152.90 473.97,93.01 484.46,93.01 494.94,72.00 505.43,72.00 515.91,72.00 526.40,72.00 536.89,72.00 547.37,72.00 557.86,72.00 568.34,72.00 578.83,72.00 589.31,72.00 599.80,93.01 610.29,78.08 620.77,72.00 631.26,72.00 641.74,72.00 652.23,72.00 662.71,72.00 673.20,164.73 683.69,225.52 694.17,169.52 704.66,169.52 715.14,130.66 725.63,93.01 736.11,93.01 746.60,144.41 757.09,169.52 767.57,128.75 778.06,93.01 788.54,93.01 799.03,116.46 809.51,169.52 809.51,470.00 799.03,452.08 788.54,448.99 778.06,448.99 767.57,455.70 757.09,470.00 746.60,463.92 736.11,448.99 725.63,448.99 715.14,456.45 704.66,470.00 694.17,470.00 683.69,470.00 673.20,470.00 662.71,372.48 652.23,372.48 641.74,372.48 631.26,372.48 620.77,372.48 610.29,397.59 599.80,448.99 589.31,379.24 578.83,271.00 568.34,271.00 557.86,271.00 547.37,271.00 536.89,271.00 526.40,191.40 515.91,183.44 505.43,335.84 494.94,381.20 484.46,448.99 473.97,448.99 463.49,470.00 453.00,462.75 442.51,470.00 432.03,470.00 421.54,470.00 411.06,448.99 400.57,448.99 390.09,448.99 379.60,452.08 369.11,470.00 358.63,470.00 348.14,470.00 337.66,470.00 327.17,470.00 316.69,470.00 306.20,470.00 295.71,470.00 285.23,470.00 274.74,455.70 264.26,448.99 253.77,448.99 243.29,448.99 232.80,448.99 222.31,448.99 211.83,448.99 201.34,448.99 190.86,448.99 180.37,310.47 169.89,274.60 159.40,372.48 148.91,372.48 138.43,421.29 127.94,448.99 117.46,413.25 106.97,470.00 96.49,470.00 86.00,470.00" fill="#0077BB" opacity="0.12"/>
<path d="M86.00,362.54 L96.49,363.87 L106.97,326.72 L117.46,249.77 L127.94,271.00 L138.43,255.08 L148.91,204.67 L159.40,204.67 L169.89,143.64 L180.37,183.44 L190.86,271.00 L201.34,271.00 L211.83,271.00 L222.31,271.00 L232.80,271.00 L243.29,271.00 L253.77,271.00 L264.26,271.00 L274.74,292.23 L285.23,337.33 L295.71,337.33 L306.20,339.99 L316.69,403.67 L327.17,361.21 L337.66,397.03 L348.14,403.67 L358.63,351.93 L369.11,337.33 L379.60,284.27 L390.09,271.00 L400.57,271.00 L411.06,271.00 L421.54,326.72 L432.03,395.71 L442.51,346.62 L453.00,318.76 L463.49,312.13 L473.97,271.00 L484.46,271.00 L494.94,220.59 L505.43,187.42 L515.91,109.15 L526.40,111.80 L536.89,138.33 L547.37,138.33 L557.86,138.33 L568.34,138.33 L578.83,138.33 L589.31,220.59 L599.80,271.00 L610.29,237.83 L620.77,204.67 L631.26,204.67 L641.74,204.67 L652.23,204.67 L662.71,204.67 L673.20,326.72 L683.69,361.21 L694.17,337.33 L704.66,337.33 L715.14,293.55 L725.63,271.00 L736.11,271.00 L746.60,304.17 L757.09,337.33 L767.57,292.23 L778.06,271.00 L788.54,271.00 L799.03,284.27 L809.51,337.33" fill="none" stroke="#0077BB" stroke-width="3" stroke-linejoin="round" stroke-linecap="round"/>
<line x1="655" x2="683" y1="107" y2="107" stroke="#CC3311" stroke-width="3"/>
<text class="legend" x="693" y="111">Agent</text>
<line x1="655" x2="683" y1="129" y2="129" stroke="#0077BB" stroke-width="3"/>
<text class="legend" x="693" y="133">Patient</text>
<line x1="655" x2="683" y1="151" y2="151" stroke="#333333" stroke-width="2" stroke-dasharray="7 6"/>
<text class="legend" x="693" y="155">Mean speech onset</text>
</svg>