<svg xmlns="http://www.w3.org/2000/svg" width="900" height="560" viewBox="0 0 900 560">
<rect width="100%" height="100%" fill="white"/>
<style>
text { font-family: Arial, Helvetica, sans-serif; fill: #222; }
.title { font-size: 21px; font-weight: 700; }
.subtitle { font-size: 13px; fill: #555; }
.axis { stroke: #222; stroke-width: 1; }
.grid { stroke: #dddddd; stroke-width: 1; }
.tick { font-size: 12px; fill: #333; }
.label { font-size: 14px; fill: #222; }
.legend { font-size: 13px; fill: #222; }
.onset { font-size: 13px; font-weight: 700; fill: #222; }
</style>
<text class="title" x="453.0" y="30" text-anchor="middle">Khanty Passive Speech Planning: PRM_a1</text>
<text class="subtitle" x="453.0" y="51" text-anchor="middle">0-3500 ms from display; 50-ms bins; n = 8 passive trials</text>
<line class="grid" x1="86" x2="820" y1="470.00" y2="470.00"/>
<text class="tick" x="76" y="474.00" text-anchor="end">0.0</text>
<line class="grid" x1="86" x2="820" y1="430.20" y2="430.20"/>
<text class="tick" x="76" y="434.20" text-anchor="end">0.1</text>
<line class="grid" x1="86" x2="820" y1="390.40" y2="390.40"/>
<text class="tick" x="76" y="394.40" text-anchor="end">0.2</text>
<line class="grid" x1="86" x2="820" y1="350.60" y2="350.60"/>
<text class="tick" x="76" y="354.60" text-anchor="end">0.3</text>
<line class="grid" x1="86" x2="820" y1="310.80" y2="310.80"/>
<text class="tick" x="76" y="314.80" text-anchor="end">0.4</text>
<line class="grid" x1="86" x2="820" y1="271.00" y2="271.00"/>
<text class="tick" x="76" y="275.00" text-anchor="end">0.5</text>
<line class="grid" x1="86" x2="820" y1="231.20" y2="231.20"/>
<text class="tick" x="76" y="235.20" text-anchor="end">0.6</text>
<line class="grid" x1="86" x2="820" y1="191.40" y2="191.40"/>
<text class="tick" x="76" y="195.40" text-anchor="end">0.7</text>
<line class="grid" x1="86" x2="820" y1="151.60" y2="151.60"/>
<text class="tick" x="76" y="155.60" text-anchor="end">0.8</text>
<line class="grid" x1="86" x2="820" y1="111.80" y2="111.80"/>
<text class="tick" x="76" y="115.80" text-anchor="end">0.9</text>
<line class="grid" x1="86" x2="820" y1="72.00" y2="72.00"/>
<text class="tick" x="76" y="76.00" text-anchor="end">1.0</text>
<line class="grid" x1="86.00" x2="86.00" y1="72" y2="470"/>
<text class="tick" x="86.00" y="492" text-anchor="middle">0</text>
<line class="grid" x1="190.86" x2="190.86" y1="72" y2="470"/>
<text class="tick" x="190.86" y="492" text-anchor="middle">500</text>
<line class="grid" x1="295.71" x2="295.71" y1="72" y2="470"/>
<text class="tick" x="295.71" y="492" text-anchor="middle">1000</text>
<line class="grid" x1="400.57" x2="400.57" y1="72" y2="470"/>
<text class="tick" x="400.57" y="492" text-anchor="middle">1500</text>
<line class="grid" x1="505.43" x2="505.43" y1="72" y2="470"/>
<text class="tick" x="505.43" y="492" text-anchor="middle">2000</text>
<line class="grid" x1="610.29" x2="610.29" y1="72" y2="470"/>
<text class="tick" x="610.29" y="492" text-anchor="middle">2500</text>
<line class="grid" x1="715.14" x2="715.14" y1="72" y2="470"/>
<text class="tick" x="715.14" y="492" text-anchor="middle">3000</text>
<line class="grid" x1="820.00" x2="820.00" y1="72" y2="470"/>
<text class="tick" x="820.00" y="492" text-anchor="middle">3500</text>
<line class="axis" x1="86" x2="820" y1="470" y2="470"/>
<line class="axis" x1="86" x2="86" y1="72" y2="470"/>
<text class="label" x="453.0" y="532" text-anchor="middle">Time from sentence display (ms)</text>
<text class="label" x="22" y="271.0" text-anchor="middle" transform="rotate(-90 22 271.0)">Proportion of Looks</text>
<line x1="590.70" x2="590.70" y1="72" y2="470" stroke="#333333" stroke-width="2" stroke-dasharray="7 6"/>
<rect x="596.70" y="77" width="80" height="22" fill="white" opacity="0.92"/>
<text class="onset" x="602.70" y="92">2407 ms</text>
<polygon points="86.00,120.57 96.49,90.08 106.97,75.60 117.46,102.56 127.94,123.76 138.43,127.37 148.91,120.57 159.40,120.57 169.89,120.57 180.37,120.57 190.86,83.17 201.34,103.86 211.83,120.57 222.31,97.48 232.80,127.95 243.29,158.56 253.77,176.32 264.26,127.37 274.74,120.57 285.23,120.57 295.71,120.57 306.20,120.57 316.69,120.57 327.17,120.57 337.66,146.75 348.14,169.00 358.63,115.39 369.11,75.43 379.60,75.33 390.09,108.40 400.57,120.57 411.06,120.57 421.54,106.67 432.03,110.02 442.51,120.57 453.00,120.57 463.49,120.57 473.97,120.57 484.46,83.17 494.94,75.60 505.43,74.71 515.91,138.43 526.40,160.58 536.89,79.51 547.37,78.67 557.86,120.57 568.34,104.83 578.83,77.16 589.31,110.20 599.80,72.00 610.29,72.00 620.77,72.00 631.26,72.00 641.74,74.49 652.23,113.58 662.71,120.57 673.20,120.57 683.69,120.57 694.17,172.16 704.66,175.10 715.14,175.10 725.63,175.10 736.11,197.86 746.60,175.10 757.09,144.06 767.57,95.27 778.06,120.57 788.54,120.57 799.03,120.57 809.51,141.26 809.51,426.61 799.03,421.43 788.54,421.43 778.06,421.43 767.57,373.10 757.09,427.79 746.60,466.40 736.11,465.53 725.63,466.40 715.14,466.40 704.66,466.40 694.17,457.40 683.69,421.43 673.20,421.43 662.71,421.43 652.23,396.58 641.74,350.10 631.26,237.71 620.77,228.20 610.29,301.78 599.80,301.78 589.31,378.07 578.83,367.33 568.34,383.44 557.86,421.43 547.37,365.82 536.89,355.03 526.40,439.13 515.91,413.52 505.43,351.87 494.94,366.90 484.46,369.28 473.97,421.43 463.49,421.43 453.00,421.43 442.51,421.43 432.03,390.19 421.54,385.58 411.06,421.43 400.57,421.43 390.09,387.83 379.60,359.21 369.11,361.10 358.63,400.74 348.14,450.61 337.66,429.08 327.17,421.43 316.69,421.43 306.20,421.43 295.71,421.43 285.23,421.43 274.74,421.43 264.26,422.59 253.77,413.44 243.29,437.17 232.80,392.16 222.31,376.86 211.83,421.43 201.34,382.42 190.86,369.28 180.37,421.43 169.89,421.43 159.40,421.43 148.91,421.43 138.43,422.59 127.94,402.32 117.46,367.80 106.97,366.90 96.49,372.32 86.00,421.43" fill="#CC3311" opacity="0.12"/>
<path d="M86.00,271.00 L96.49,231.20 L106.97,221.25 L117.46,235.18 L127.94,263.04 L138.43,274.98 L148.91,271.00 L159.40,271.00 L169.89,271.00 L180.37,271.00 L190.86,226.22 L201.34,243.14 L211.83,271.00 L222.31,237.17 L232.80,260.06 L243.29,297.87 L253.77,294.88 L264.26,274.98 L274.74,271.00 L285.23,271.00 L295.71,271.00 L306.20,271.00 L316.69,271.00 L327.17,271.00 L337.66,287.91 L348.14,309.80 L358.63,258.06 L369.11,218.26 L379.60,217.27 L390.09,248.12 L400.57,271.00 L411.06,271.00 L421.54,246.12 L432.03,250.10 L442.51,271.00 L453.00,271.00 L463.49,271.00 L473.97,271.00 L484.46,226.22 L494.94,221.25 L505.43,213.29 L515.91,275.98 L526.40,299.86 L536.89,217.27 L547.37,222.24 L557.86,271.00 L568.34,244.13 L578.83,222.24 L589.31,244.14 L599.80,171.50 L610.29,171.50 L620.77,129.71 L631.26,137.67 L641.74,212.30 L652.23,255.08 L662.71,271.00 L673.20,271.00 L683.69,271.00 L694.17,314.78 L704.66,320.75 L715.14,320.75 L725.63,320.75 L736.11,331.69 L746.60,320.75 L757.09,285.92 L767.57,234.19 L778.06,271.00 L788.54,271.00 L799.03,271.00 L809.51,283.94" fill="none" stroke="#CC3311" stroke-width="3" stroke-linejoin="round" stroke-linecap="round"/>
<polygon points="86.00,175.10 96.49,233.13 106.97,240.22 117.46,220.55 127.94,139.68 138.43,119.41 148.91,120.57 159.40,120.57 169.89,120.57 180.37,120.57 190.86,172.72 201.34,159.58 211.83,120.57 222.31,165.14 232.80,227.84 243.29,214.01 253.77,224.11 264.26,175.10 274.74,169.00 285.23,120.57 295.71,163.40 306.20,175.10 316.69,175.10 327.17,155.31 337.66,112.92 348.14,91.39 358.63,141.26 369.11,180.90 379.60,182.79 390.09,154.17 400.57,120.57 411.06,120.57 421.54,156.42 432.03,171.11 442.51,175.10 453.00,175.10 463.49,165.14 473.97,120.57 484.46,172.72 494.94,175.10 505.43,230.40 515.91,240.22 526.40,283.74 536.89,320.75 547.37,243.60 557.86,175.10 568.34,175.10 578.83,175.10 589.31,225.15 599.80,320.75 610.29,318.44 620.77,313.80 631.26,320.75 641.74,260.13 652.23,203.62 662.71,172.16 673.20,120.57 683.69,120.57 694.17,120.57 704.66,120.57 715.14,120.57 725.63,120.57 736.11,148.06 746.60,206.73 757.09,305.61 767.57,342.51 778.06,228.43 788.54,166.77 799.03,120.57 809.51,115.39 809.51,400.74 799.03,421.43 788.54,446.87 778.06,470.00 767.57,470.00 757.09,470.00 746.60,470.00 736.11,429.76 725.63,421.43 715.14,421.43 704.66,421.43 694.17,421.43 683.69,421.43 673.20,421.43 662.71,457.40 652.23,469.72 641.74,470.00 631.26,470.00 620.77,470.00 610.29,470.00 599.80,470.00 589.31,470.00 578.83,466.40 568.34,466.40 557.86,466.40 547.37,470.00 536.89,470.00 526.40,470.00 515.91,470.00 505.43,470.00 494.94,466.40 484.46,458.83 473.97,421.43 463.49,444.52 453.00,466.40 442.51,466.40 432.03,434.57 421.54,435.33 411.06,421.43 400.57,421.43 390.09,433.60 379.60,466.67 369.11,466.57 358.63,426.61 348.14,373.00 337.66,395.25 327.17,434.45 316.69,466.40 306.20,466.40 295.71,442.28 285.23,421.43 274.74,450.61 264.26,466.40 253.77,470.00 243.29,470.00 232.80,470.00 222.31,444.52 211.83,421.43 201.34,438.14 190.86,458.83 180.37,421.43 169.89,421.43 159.40,421.43 148.91,421.43 138.43,414.63 127.94,418.24 117.46,470.00 106.97,470.00 96.49,470.00 86.00,466.40" fill="#0077BB" opacity="0.12"/>
<path d="M86.00,320.75 L96.49,360.55 L106.97,370.50 L117.46,348.61 L127.94,278.96 L138.43,267.02 L148.91,271.00 L159.40,271.00 L169.89,271.00 L180.37,271.00 L190.86,315.77 L201.34,298.86 L211.83,271.00 L222.31,304.83 L232.80,353.59 L243.29,343.63 L253.77,351.60 L264.26,320.75 L274.74,309.80 L285.23,271.00 L295.71,302.84 L306.20,320.75 L316.69,320.75 L327.17,294.88 L337.66,254.09 L348.14,232.19 L358.63,283.94 L369.11,323.74 L379.60,324.73 L390.09,293.88 L400.57,271.00 L411.06,271.00 L421.54,295.88 L432.03,302.84 L442.51,320.75 L453.00,320.75 L463.49,304.83 L473.97,271.00 L484.46,315.77 L494.94,320.75 L505.43,357.56 L515.91,370.50 L526.40,391.39 L536.89,420.25 L547.37,370.50 L557.86,320.75 L568.34,320.75 L578.83,320.75 L589.31,347.62 L599.80,420.25 L610.29,417.26 L620.77,412.29 L631.26,420.25 L641.74,379.46 L652.23,336.67 L662.71,314.78 L673.20,271.00 L683.69,271.00 L694.17,271.00 L704.66,271.00 L715.14,271.00 L725.63,271.00 L736.11,288.91 L746.60,338.66 L757.09,405.32 L767.57,418.26 L778.06,355.57 L788.54,306.82 L799.03,271.00 L809.51,258.06" fill="none" stroke="#0077BB" stroke-width="3" stroke-linejoin="round" stroke-linecap="round"/>
<line x1="655" x2="683" y1="107" y2="107" stroke="#CC3311" stroke-width="3"/>
<text class="legend" x="693" y="111">Agent</text>
<line x1="655" x2="683" y1="129" y2="129" stroke="#0077BB" stroke-width="3"/>
<text class="legend" x="693" y="133">Patient</text>
<line x1="655" x2="683" y1="151" y2="151" stroke="#333333" stroke-width="2" stroke-dasharray="7 6"/>
<text class="legend" x="693" y="155">Mean speech onset</text>
</svg>