<svg xmlns="http://www.w3.org/2000/svg" width="900" height="560" viewBox="0 0 900 560">
<rect width="100%" height="100%" fill="white"/>
<style>
text { font-family: Arial, Helvetica, sans-serif; fill: #222; }
.title { font-size: 21px; font-weight: 700; }
.subtitle { font-size: 13px; fill: #555; }
.axis { stroke: #222; stroke-width: 1; }
.grid { stroke: #dddddd; stroke-width: 1; }
.tick { font-size: 12px; fill: #333; }
.label { font-size: 14px; fill: #222; }
.legend { font-size: 13px; fill: #222; }
.onset { font-size: 13px; font-weight: 700; fill: #222; }
</style>
<text class="title" x="453.0" y="30" text-anchor="middle">Khanty Passive Speech Planning: RAI_a3</text>
<text class="subtitle" x="453.0" y="51" text-anchor="middle">0-3500 ms from display; 50-ms bins; n = 8 passive trials</text>
<line class="grid" x1="86" x2="820" y1="470.00" y2="470.00"/>
<text class="tick" x="76" y="474.00" text-anchor="end">0.0</text>
<line class="grid" x1="86" x2="820" y1="430.20" y2="430.20"/>
<text class="tick" x="76" y="434.20" text-anchor="end">0.1</text>
<line class="grid" x1="86" x2="820" y1="390.40" y2="390.40"/>
<text class="tick" x="76" y="394.40" text-anchor="end">0.2</text>
<line class="grid" x1="86" x2="820" y1="350.60" y2="350.60"/>
<text class="tick" x="76" y="354.60" text-anchor="end">0.3</text>
<line class="grid" x1="86" x2="820" y1="310.80" y2="310.80"/>
<text class="tick" x="76" y="314.80" text-anchor="end">0.4</text>
<line class="grid" x1="86" x2="820" y1="271.00" y2="271.00"/>
<text class="tick" x="76" y="275.00" text-anchor="end">0.5</text>
<line class="grid" x1="86" x2="820" y1="231.20" y2="231.20"/>
<text class="tick" x="76" y="235.20" text-anchor="end">0.6</text>
<line class="grid" x1="86" x2="820" y1="191.40" y2="191.40"/>
<text class="tick" x="76" y="195.40" text-anchor="end">0.7</text>
<line class="grid" x1="86" x2="820" y1="151.60" y2="151.60"/>
<text class="tick" x="76" y="155.60" text-anchor="end">0.8</text>
<line class="grid" x1="86" x2="820" y1="111.80" y2="111.80"/>
<text class="tick" x="76" y="115.80" text-anchor="end">0.9</text>
<line class="grid" x1="86" x2="820" y1="72.00" y2="72.00"/>
<text class="tick" x="76" y="76.00" text-anchor="end">1.0</text>
<line class="grid" x1="86.00" x2="86.00" y1="72" y2="470"/>
<text class="tick" x="86.00" y="492" text-anchor="middle">0</text>
<line class="grid" x1="190.86" x2="190.86" y1="72" y2="470"/>
<text class="tick" x="190.86" y="492" text-anchor="middle">500</text>
<line class="grid" x1="295.71" x2="295.71" y1="72" y2="470"/>
<text class="tick" x="295.71" y="492" text-anchor="middle">1000</text>
<line class="grid" x1="400.57" x2="400.57" y1="72" y2="470"/>
<text class="tick" x="400.57" y="492" text-anchor="middle">1500</text>
<line class="grid" x1="505.43" x2="505.43" y1="72" y2="470"/>
<text class="tick" x="505.43" y="492" text-anchor="middle">2000</text>
<line class="grid" x1="610.29" x2="610.29" y1="72" y2="470"/>
<text class="tick" x="610.29" y="492" text-anchor="middle">2500</text>
<line class="grid" x1="715.14" x2="715.14" y1="72" y2="470"/>
<text class="tick" x="715.14" y="492" text-anchor="middle">3000</text>
<line class="grid" x1="820.00" x2="820.00" y1="72" y2="470"/>
<text class="tick" x="820.00" y="492" text-anchor="middle">3500</text>
<line class="axis" x1="86" x2="820" y1="470" y2="470"/>
<line class="axis" x1="86" x2="86" y1="72" y2="470"/>
<text class="label" x="453.0" y="532" text-anchor="middle">Time from sentence display (ms)</text>
<text class="label" x="22" y="271.0" text-anchor="middle" transform="rotate(-90 22 271.0)">Proportion of Looks</text>
<line x1="587.11" x2="587.11" y1="72" y2="470" stroke="#333333" stroke-width="2" stroke-dasharray="7 6"/>
<rect x="593.11" y="77" width="80" height="22" fill="white" opacity="0.92"/>
<text class="onset" x="599.11" y="92">2390 ms</text>
<polygon points="86.00,175.10 96.49,175.10 106.97,175.10 117.46,208.64 127.94,183.26 138.43,164.29 148.91,175.10 159.40,172.72 169.89,150.59 180.37,189.02 190.86,115.94 201.34,72.00 211.83,72.00 222.31,72.00 232.80,72.00 243.29,72.00 253.77,72.00 264.26,72.00 274.74,72.00 285.23,72.00 295.71,72.00 306.20,72.00 316.69,72.28 327.17,81.71 337.66,98.62 348.14,75.60 358.63,112.92 369.11,146.75 379.60,157.51 390.09,175.10 400.57,234.79 411.06,240.22 421.54,240.22 432.03,240.22 442.51,240.22 453.00,240.22 463.49,175.10 473.97,175.10 484.46,138.35 494.94,168.90 505.43,120.57 515.91,120.57 526.40,120.57 536.89,81.71 547.37,159.36 557.86,175.10 568.34,175.10 578.83,175.10 589.31,175.10 599.80,175.10 610.29,151.81 620.77,170.34 631.26,175.10 641.74,120.31 652.23,120.57 662.71,168.28 673.20,110.79 683.69,75.60 694.17,75.60 704.66,75.60 715.14,75.60 725.63,120.32 736.11,120.57 746.60,141.26 757.09,185.65 767.57,175.10 778.06,175.10 788.54,175.10 799.03,231.34 809.51,240.22 809.51,470.00 799.03,470.00 788.54,466.40 778.06,466.40 767.57,466.40 757.09,441.92 746.60,426.61 736.11,421.43 725.63,419.69 715.14,366.90 704.66,366.90 694.17,366.90 683.69,366.90 673.20,391.41 662.71,449.34 652.23,421.43 641.74,397.81 631.26,466.40 620.77,453.25 610.29,431.98 599.80,466.40 589.31,466.40 578.83,466.40 568.34,466.40 557.86,466.40 547.37,426.42 536.89,368.75 526.40,421.43 515.91,421.43 505.43,421.43 494.94,446.73 484.46,425.54 473.97,466.40 463.49,466.40 453.00,470.00 442.51,470.00 432.03,470.00 421.54,470.00 411.06,470.00 400.57,470.00 390.09,466.40 379.60,436.23 369.11,429.08 358.63,395.25 348.14,366.90 337.66,377.71 327.17,368.75 316.69,338.38 306.20,261.92 295.71,158.56 285.23,140.65 274.74,89.91 264.26,128.71 253.77,72.00 243.29,107.82 232.80,294.96 222.31,301.78 211.83,301.78 201.34,316.76 190.86,402.18 180.37,442.53 169.89,431.21 159.40,458.83 148.91,466.40 138.43,443.38 127.94,426.40 117.46,454.75 106.97,466.40 96.49,466.40 86.00,466.40" fill="#CC3311" opacity="0.12"/>
<path d="M86.00,320.75 L96.49,320.75 L106.97,320.75 L117.46,331.70 L127.94,304.83 L138.43,303.84 L148.91,320.75 L159.40,315.77 L169.89,290.90 L180.37,315.77 L190.86,259.06 L201.34,189.41 L211.83,171.50 L222.31,171.50 L232.80,168.51 L243.29,83.94 L253.77,72.00 L264.26,90.90 L274.74,77.97 L285.23,94.88 L295.71,100.86 L306.20,152.60 L316.69,205.33 L327.17,225.23 L337.66,238.16 L348.14,221.25 L358.63,254.09 L369.11,287.91 L379.60,296.87 L390.09,320.75 L400.57,362.54 L411.06,370.50 L421.54,370.50 L432.03,370.50 L442.51,370.50 L453.00,370.50 L463.49,320.75 L473.97,320.75 L484.46,281.94 L494.94,307.81 L505.43,271.00 L515.91,271.00 L526.40,271.00 L536.89,225.23 L547.37,292.89 L557.86,320.75 L568.34,320.75 L578.83,320.75 L589.31,320.75 L599.80,320.75 L610.29,291.89 L620.77,311.79 L631.26,320.75 L641.74,259.06 L652.23,271.00 L662.71,308.81 L673.20,251.10 L683.69,221.25 L694.17,221.25 L704.66,221.25 L715.14,221.25 L725.63,270.00 L736.11,271.00 L746.60,283.94 L757.09,313.78 L767.57,320.75 L778.06,320.75 L788.54,320.75 L799.03,358.56 L809.51,370.50" fill="none" stroke="#CC3311" stroke-width="3" stroke-linejoin="round" stroke-linecap="round"/>
<polygon points="86.00,120.57 96.49,120.57 106.97,120.57 117.46,128.98 127.94,122.77 138.43,120.57 148.91,120.57 159.40,129.02 169.89,175.10 180.37,175.45 190.86,139.82 201.34,225.24 211.83,240.22 222.31,240.22 232.80,247.04 243.29,434.18 253.77,470.00 264.26,470.00 274.74,470.00 285.23,470.00 295.71,383.44 306.20,280.08 316.69,240.22 327.17,240.22 337.66,209.72 348.14,175.10 358.63,172.16 369.11,120.57 379.60,105.77 390.09,75.60 400.57,72.00 411.06,72.00 421.54,75.60 432.03,120.04 442.51,120.57 453.00,120.57 463.49,175.10 473.97,190.13 484.46,240.22 494.94,197.75 505.43,175.10 515.91,162.49 526.40,151.81 536.89,267.89 547.37,266.38 557.86,240.22 568.34,214.01 578.83,240.22 589.31,240.22 599.80,240.22 610.29,297.09 620.77,260.13 631.26,240.22 641.74,317.59 652.23,240.22 662.71,240.22 673.20,237.05 683.69,240.22 694.17,240.22 704.66,262.24 715.14,288.99 725.63,177.05 736.11,175.10 746.60,205.19 757.09,227.82 767.57,175.10 778.06,175.10 788.54,234.79 799.03,240.22 809.51,283.74 809.51,470.00 799.03,470.00 788.54,470.00 778.06,466.40 767.57,466.40 757.09,470.00 746.60,470.00 736.11,466.40 725.63,466.44 715.14,470.00 704.66,470.00 694.17,470.00 683.69,470.00 673.20,470.00 662.71,470.00 652.23,470.00 641.74,470.00 631.26,470.00 620.77,470.00 610.29,470.00 599.80,470.00 589.31,470.00 578.83,470.00 568.34,470.00 557.86,470.00 547.37,470.00 536.89,470.00 526.40,431.98 515.91,441.20 505.43,466.40 494.94,459.67 484.46,470.00 473.97,467.29 463.49,466.40 453.00,421.43 442.51,421.43 432.03,417.98 421.54,366.90 411.06,330.82 400.57,307.21 390.09,366.90 379.60,384.49 369.11,421.43 358.63,457.40 348.14,466.40 337.66,470.00 327.17,470.00 316.69,470.00 306.20,470.00 295.71,470.00 285.23,470.00 274.74,470.00 264.26,470.00 253.77,470.00 243.29,470.00 232.80,470.00 222.31,470.00 211.83,470.00 201.34,470.00 190.86,426.06 180.37,442.17 169.89,466.40 159.40,422.93 148.91,421.43 138.43,421.43 127.94,391.37 117.46,391.13 106.97,421.43 96.49,421.43 86.00,421.43" fill="#0077BB" opacity="0.12"/>
<path d="M86.00,271.00 L96.49,271.00 L106.97,271.00 L117.46,260.05 L127.94,257.07 L138.43,271.00 L148.91,271.00 L159.40,275.98 L169.89,320.75 L180.37,308.81 L190.86,282.94 L201.34,352.59 L211.83,370.50 L222.31,370.50 L232.80,373.49 L243.29,458.06 L253.77,470.00 L264.26,470.00 L274.74,470.00 L285.23,470.00 L295.71,441.14 L306.20,389.40 L316.69,370.50 L327.17,370.50 L337.66,340.65 L348.14,320.75 L358.63,314.78 L369.11,271.00 L379.60,245.13 L390.09,221.25 L400.57,179.46 L411.06,200.36 L421.54,221.25 L432.03,269.01 L442.51,271.00 L453.00,271.00 L463.49,320.75 L473.97,328.71 L484.46,370.50 L494.94,328.71 L505.43,320.75 L515.91,301.85 L526.40,291.89 L536.89,380.45 L547.37,382.44 L557.86,370.50 L568.34,342.64 L578.83,370.50 L589.31,370.50 L599.80,370.50 L610.29,399.36 L620.77,379.46 L631.26,370.50 L641.74,416.27 L652.23,370.50 L662.71,370.50 L673.20,365.52 L683.69,370.50 L694.17,370.50 L704.66,380.45 L715.14,394.38 L725.63,321.75 L736.11,320.75 L746.60,337.66 L757.09,352.59 L767.57,320.75 L778.06,320.75 L788.54,362.54 L799.03,370.50 L809.51,391.39" fill="none" stroke="#0077BB" stroke-width="3" stroke-linejoin="round" stroke-linecap="round"/>
<line x1="655" x2="683" y1="107" y2="107" stroke="#CC3311" stroke-width="3"/>
<text class="legend" x="693" y="111">Agent</text>
<line x1="655" x2="683" y1="129" y2="129" stroke="#0077BB" stroke-width="3"/>
<text class="legend" x="693" y="133">Patient</text>
<line x1="655" x2="683" y1="151" y2="151" stroke="#333333" stroke-width="2" stroke-dasharray="7 6"/>
<text class="legend" x="693" y="155">Mean speech onset</text>
</svg>