<svg xmlns="http://www.w3.org/2000/svg" width="900" height="560" viewBox="0 0 900 560">
<rect width="100%" height="100%" fill="white"/>
<style>
text { font-family: Arial, Helvetica, sans-serif; fill: #222; }
.title { font-size: 21px; font-weight: 700; }
.subtitle { font-size: 13px; fill: #555; }
.axis { stroke: #222; stroke-width: 1; }
.grid { stroke: #dddddd; stroke-width: 1; }
.tick { font-size: 12px; fill: #333; }
.label { font-size: 14px; fill: #222; }
.legend { font-size: 13px; fill: #222; }
.onset { font-size: 13px; font-weight: 700; fill: #222; }
</style>
<text class="title" x="453.0" y="30" text-anchor="middle">Khanty Passive Speech Planning: ZAL_b3</text>
<text class="subtitle" x="453.0" y="51" text-anchor="middle">0-3500 ms from display; 50-ms bins; n = 5 passive trials</text>
<line class="grid" x1="86" x2="820" y1="470.00" y2="470.00"/>
<text class="tick" x="76" y="474.00" text-anchor="end">0.0</text>
<line class="grid" x1="86" x2="820" y1="430.20" y2="430.20"/>
<text class="tick" x="76" y="434.20" text-anchor="end">0.1</text>
<line class="grid" x1="86" x2="820" y1="390.40" y2="390.40"/>
<text class="tick" x="76" y="394.40" text-anchor="end">0.2</text>
<line class="grid" x1="86" x2="820" y1="350.60" y2="350.60"/>
<text class="tick" x="76" y="354.60" text-anchor="end">0.3</text>
<line class="grid" x1="86" x2="820" y1="310.80" y2="310.80"/>
<text class="tick" x="76" y="314.80" text-anchor="end">0.4</text>
<line class="grid" x1="86" x2="820" y1="271.00" y2="271.00"/>
<text class="tick" x="76" y="275.00" text-anchor="end">0.5</text>
<line class="grid" x1="86" x2="820" y1="231.20" y2="231.20"/>
<text class="tick" x="76" y="235.20" text-anchor="end">0.6</text>
<line class="grid" x1="86" x2="820" y1="191.40" y2="191.40"/>
<text class="tick" x="76" y="195.40" text-anchor="end">0.7</text>
<line class="grid" x1="86" x2="820" y1="151.60" y2="151.60"/>
<text class="tick" x="76" y="155.60" text-anchor="end">0.8</text>
<line class="grid" x1="86" x2="820" y1="111.80" y2="111.80"/>
<text class="tick" x="76" y="115.80" text-anchor="end">0.9</text>
<line class="grid" x1="86" x2="820" y1="72.00" y2="72.00"/>
<text class="tick" x="76" y="76.00" text-anchor="end">1.0</text>
<line class="grid" x1="86.00" x2="86.00" y1="72" y2="470"/>
<text class="tick" x="86.00" y="492" text-anchor="middle">0</text>
<line class="grid" x1="190.86" x2="190.86" y1="72" y2="470"/>
<text class="tick" x="190.86" y="492" text-anchor="middle">500</text>
<line class="grid" x1="295.71" x2="295.71" y1="72" y2="470"/>
<text class="tick" x="295.71" y="492" text-anchor="middle">1000</text>
<line class="grid" x1="400.57" x2="400.57" y1="72" y2="470"/>
<text class="tick" x="400.57" y="492" text-anchor="middle">1500</text>
<line class="grid" x1="505.43" x2="505.43" y1="72" y2="470"/>
<text class="tick" x="505.43" y="492" text-anchor="middle">2000</text>
<line class="grid" x1="610.29" x2="610.29" y1="72" y2="470"/>
<text class="tick" x="610.29" y="492" text-anchor="middle">2500</text>
<line class="grid" x1="715.14" x2="715.14" y1="72" y2="470"/>
<text class="tick" x="715.14" y="492" text-anchor="middle">3000</text>
<line class="grid" x1="820.00" x2="820.00" y1="72" y2="470"/>
<text class="tick" x="820.00" y="492" text-anchor="middle">3500</text>
<line class="axis" x1="86" x2="820" y1="470" y2="470"/>
<line class="axis" x1="86" x2="86" y1="72" y2="470"/>
<text class="label" x="453.0" y="532" text-anchor="middle">Time from sentence display (ms)</text>
<text class="label" x="22" y="271.0" text-anchor="middle" transform="rotate(-90 22 271.0)">Proportion of Looks</text>
<line x1="608.69" x2="608.69" y1="72" y2="470" stroke="#333333" stroke-width="2" stroke-dasharray="7 6"/>
<rect x="614.69" y="77" width="80" height="22" fill="white" opacity="0.92"/>
<text class="onset" x="620.69" y="92">2492 ms</text>
<polygon points="86.00,80.47 96.49,106.10 106.97,115.15 117.46,115.82 127.94,72.00 138.43,109.80 148.91,112.67 159.40,115.82 169.89,115.82 180.37,115.82 190.86,115.82 201.34,158.74 211.83,143.03 222.31,167.61 232.80,115.82 243.29,115.82 253.77,115.82 264.26,208.53 274.74,231.20 285.23,231.20 295.71,231.20 306.20,231.20 316.69,231.20 327.17,231.20 337.66,231.20 348.14,446.12 358.63,293.29 369.11,231.20 379.60,231.20 390.09,231.20 400.57,231.20 411.06,231.20 421.54,231.20 432.03,231.20 442.51,231.20 453.00,231.20 463.49,231.20 473.97,231.20 484.46,231.20 494.94,355.38 505.43,470.00 515.91,470.00 526.40,470.00 536.89,470.00 547.37,470.00 557.86,470.00 568.34,470.00 578.83,470.00 589.31,470.00 599.80,470.00 610.29,470.00 620.77,470.00 631.26,470.00 641.74,470.00 652.23,470.00 662.71,470.00 673.20,470.00 683.69,470.00 694.17,470.00 704.66,470.00 715.14,470.00 725.63,470.00 736.11,470.00 746.60,470.00 757.09,470.00 767.57,470.00 778.06,470.00 788.54,470.00 799.03,470.00 809.51,470.00 809.51,470.00 799.03,470.00 788.54,470.00 778.06,470.00 767.57,470.00 757.09,470.00 746.60,470.00 736.11,470.00 725.63,470.00 715.14,470.00 704.66,470.00 694.17,470.00 683.69,470.00 673.20,470.00 662.71,470.00 652.23,470.00 641.74,470.00 631.26,470.00 620.77,470.00 610.29,470.00 599.80,470.00 589.31,470.00 578.83,470.00 568.34,470.00 557.86,470.00 547.37,470.00 536.89,470.00 526.40,470.00 515.91,470.00 505.43,470.00 494.94,470.00 484.46,470.00 473.97,470.00 463.49,470.00 453.00,470.00 442.51,470.00 432.03,470.00 421.54,470.00 411.06,470.00 400.57,470.00 390.09,470.00 379.60,470.00 369.11,470.00 358.63,470.00 348.14,470.00 337.66,470.00 327.17,470.00 316.69,470.00 306.20,470.00 295.71,470.00 285.23,470.00 274.74,470.00 264.26,470.00 253.77,470.00 243.29,470.00 232.80,470.00 222.31,470.00 211.83,470.00 201.34,470.00 190.86,470.00 180.37,470.00 169.89,470.00 159.40,470.00 148.91,470.00 138.43,470.00 127.94,426.85 117.46,470.00 106.97,470.00 96.49,467.74 86.00,439.24" fill="#CC3311" opacity="0.12"/>
<path d="M86.00,259.86 L96.49,286.92 L106.97,307.62 L117.46,310.80 L127.94,234.38 L138.43,293.29 L148.91,299.66 L159.40,310.80 L169.89,310.80 L180.37,310.80 L190.86,310.80 L201.34,331.50 L211.83,323.54 L222.31,336.27 L232.80,310.80 L243.29,310.80 L253.77,310.80 L264.26,363.34 L274.74,390.40 L285.23,390.40 L295.71,390.40 L306.20,390.40 L316.69,390.40 L327.17,390.40 L337.66,390.40 L348.14,462.04 L358.63,411.10 L369.11,390.40 L379.60,390.40 L390.09,390.40 L400.57,390.40 L411.06,390.40 L421.54,390.40 L432.03,390.40 L442.51,390.40 L453.00,390.40 L463.49,390.40 L473.97,390.40 L484.46,390.40 L494.94,431.79 L505.43,470.00 L515.91,470.00 L526.40,470.00 L536.89,470.00 L547.37,470.00 L557.86,470.00 L568.34,470.00 L578.83,470.00 L589.31,470.00 L599.80,470.00 L610.29,470.00 L620.77,470.00 L631.26,470.00 L641.74,470.00 L652.23,470.00 L662.71,470.00 L673.20,470.00 L683.69,470.00 L694.17,470.00 L704.66,470.00 L715.14,470.00 L725.63,470.00 L736.11,470.00 L746.60,470.00 L757.09,470.00 L767.57,470.00 L778.06,470.00 L788.54,470.00 L799.03,470.00 L809.51,470.00" fill="none" stroke="#CC3311" stroke-width="3" stroke-linejoin="round" stroke-linecap="round"/>
<polygon points="86.00,206.61 96.49,164.70 106.97,122.84 117.46,115.82 127.94,229.49 138.43,152.59 148.91,139.76 159.40,115.82 169.89,115.82 180.37,115.82 190.86,115.82 201.34,226.46 211.83,231.20 222.31,231.20 232.80,231.20 243.29,231.20 253.77,231.20 264.26,231.20 274.74,231.20 285.23,231.20 295.71,231.20 306.20,231.20 316.69,231.20 327.17,231.20 337.66,231.20 348.14,403.14 358.63,470.00 369.11,470.00 379.60,470.00 390.09,470.00 400.57,470.00 411.06,470.00 421.54,470.00 432.03,470.00 442.51,470.00 453.00,470.00 463.49,470.00 473.97,470.00 484.46,470.00 494.94,470.00 505.43,278.96 515.91,231.20 526.40,369.70 536.89,470.00 547.37,274.18 557.86,231.20 568.34,231.20 578.83,231.20 589.31,231.20 599.80,231.20 610.29,231.20 620.77,321.94 631.26,470.00 641.74,470.00 652.23,470.00 662.71,470.00 673.20,470.00 683.69,470.00 694.17,470.00 704.66,470.00 715.14,470.00 725.63,470.00 736.11,470.00 746.60,470.00 757.09,470.00 767.57,470.00 778.06,470.00 788.54,470.00 799.03,470.00 809.51,470.00 809.51,470.00 799.03,470.00 788.54,470.00 778.06,470.00 767.57,470.00 757.09,470.00 746.60,470.00 736.11,470.00 725.63,470.00 715.14,470.00 704.66,470.00 694.17,470.00 683.69,470.00 673.20,470.00 662.71,470.00 652.23,470.00 641.74,470.00 631.26,470.00 620.77,470.00 610.29,470.00 599.80,470.00 589.31,470.00 578.83,470.00 568.34,470.00 557.86,470.00 547.37,470.00 536.89,470.00 526.40,470.00 515.91,470.00 505.43,470.00 494.94,470.00 484.46,470.00 473.97,470.00 463.49,470.00 453.00,470.00 442.51,470.00 432.03,470.00 421.54,470.00 411.06,470.00 400.57,470.00 390.09,470.00 379.60,470.00 369.11,470.00 358.63,470.00 348.14,470.00 337.66,470.00 327.17,470.00 316.69,470.00 306.20,470.00 295.71,470.00 285.23,470.00 274.74,470.00 264.26,470.00 253.77,470.00 243.29,470.00 232.80,470.00 222.31,470.00 211.83,470.00 201.34,470.00 190.86,470.00 180.37,470.00 169.89,470.00 159.40,470.00 148.91,470.00 138.43,470.00 127.94,470.00 117.46,470.00 106.97,470.00 96.49,470.00 86.00,470.00" fill="#0077BB" opacity="0.12"/>
<path d="M86.00,361.74 L96.49,334.68 L106.97,313.98 L117.46,310.80 L127.94,387.22 L138.43,328.31 L148.91,321.94 L159.40,310.80 L169.89,310.80 L180.37,310.80 L190.86,310.80 L201.34,382.44 L211.83,390.40 L222.31,390.40 L232.80,390.40 L243.29,390.40 L253.77,390.40 L264.26,390.40 L274.74,390.40 L285.23,390.40 L295.71,390.40 L306.20,390.40 L316.69,390.40 L327.17,390.40 L337.66,390.40 L348.14,447.71 L358.63,470.00 L369.11,470.00 L379.60,470.00 L390.09,470.00 L400.57,470.00 L411.06,470.00 L421.54,470.00 L432.03,470.00 L442.51,470.00 L453.00,470.00 L463.49,470.00 L473.97,470.00 L484.46,470.00 L494.94,470.00 L505.43,406.32 L515.91,390.40 L526.40,436.57 L536.89,470.00 L547.37,404.73 L557.86,390.40 L568.34,390.40 L578.83,390.40 L589.31,390.40 L599.80,390.40 L610.29,390.40 L620.77,420.65 L631.26,470.00 L641.74,470.00 L652.23,470.00 L662.71,470.00 L673.20,470.00 L683.69,470.00 L694.17,470.00 L704.66,470.00 L715.14,470.00 L725.63,470.00 L736.11,470.00 L746.60,470.00 L757.09,470.00 L767.57,470.00 L778.06,470.00 L788.54,470.00 L799.03,470.00 L809.51,470.00" fill="none" stroke="#0077BB" stroke-width="3" stroke-linejoin="round" stroke-linecap="round"/>
<line x1="655" x2="683" y1="107" y2="107" stroke="#CC3311" stroke-width="3"/>
<text class="legend" x="693" y="111">Agent</text>
<line x1="655" x2="683" y1="129" y2="129" stroke="#0077BB" stroke-width="3"/>
<text class="legend" x="693" y="133">Patient</text>
<line x1="655" x2="683" y1="151" y2="151" stroke="#333333" stroke-width="2" stroke-dasharray="7 6"/>
<text class="legend" x="693" y="155">Mean speech onset</text>
</svg>