<svg xmlns="http://www.w3.org/2000/svg" width="3600" height="1780" viewBox="0 0 3600 1780">
<rect width="100%" height="100%" fill="white"/>
<style>
text { font-family: Arial, Helvetica, sans-serif; fill: #222; }
.page-title { font-size: 34px; font-weight: 700; }
.subtitle { font-size: 17px; fill: #555; }
.column-title { font-size: 18px; font-weight: 700; }
.row-title { font-size: 18px; font-weight: 700; }
.axis { stroke: #222; stroke-width: 1; }
.grid { stroke: #dddddd; stroke-width: 1; }
.tick { font-size: 12px; fill: #444; }
.axis-label { font-size: 15px; fill: #222; }
.legend { font-size: 17px; fill: #222; }
.nlabel { font-size: 12px; fill: #555; }
</style>
<text class="page-title" x="1800.0" y="48" text-anchor="middle">Direct AVP: number by patient animacy across planning windows</text>
<text class="subtitle" x="1800.0" y="78" text-anchor="middle">RT &lt; 6000 ms, fluent AVP trials; time windows unfold chronologically left to right</text>
<line x1="3155" x2="3197" y1="103" y2="103" stroke="#CC3311" stroke-width="4"/>
<text class="legend" x="3209" y="109">Agent</text>
<line x1="3300" x2="3342" y1="103" y2="103" stroke="#0077BB" stroke-width="4"/>
<text class="legend" x="3354" y="109">Patient</text>
<text class="column-title" x="814.80" y="160" text-anchor="middle">Early event apprehension</text>
<text class="column-title" x="1422.40" y="160" text-anchor="middle">Linguistic encoding I</text>
<text class="column-title" x="2030.00" y="160" text-anchor="middle">Linguistic encoding II</text>
<text class="column-title" x="2637.60" y="160" text-anchor="middle">Linguistic encoding III</text>
<text class="column-title" x="3245.20" y="160" text-anchor="middle">1000-2500 ms after speech onset</text>
<text class="row-title" x="486" y="362.38" text-anchor="end" dominant-baseline="middle">1 agent, 1 patient, animate patient (n=95)</text>
<rect x="520.00" y="188.00" width="589.60" height="348.75" fill="white"/>
<line class="grid" x1="562.00" x2="1097.60" y1="502.75" y2="502.75"/>
<text class="tick" x="554.00" y="506.75" text-anchor="end">0</text>
<line class="grid" x1="562.00" x2="1097.60" y1="427.81" y2="427.81"/>
<text class="tick" x="554.00" y="431.81" text-anchor="end">0.25</text>
<line class="grid" x1="562.00" x2="1097.60" y1="352.88" y2="352.88"/>
<text class="tick" x="554.00" y="356.88" text-anchor="end">0.5</text>
<line class="grid" x1="562.00" x2="1097.60" y1="277.94" y2="277.94"/>
<text class="tick" x="554.00" y="281.94" text-anchor="end">0.75</text>
<line class="grid" x1="562.00" x2="1097.60" y1="203.00" y2="203.00"/>
<text class="tick" x="554.00" y="207.00" text-anchor="end">1</text>
<line class="grid" x1="562.00" x2="562.00" y1="203.00" y2="502.75"/>
<line class="grid" x1="829.80" x2="829.80" y1="203.00" y2="502.75"/>
<line class="grid" x1="1097.60" x2="1097.60" y1="203.00" y2="502.75"/>
<line class="axis" x1="562.00" x2="1097.60" y1="502.75" y2="502.75"/>
<line class="axis" x1="562.00" x2="562.00" y1="203.00" y2="502.75"/>
<polygon points="562.00,370.34 615.56,402.45 669.12,422.22 722.68,433.23 776.24,428.19 829.80,419.65 883.36,392.78 936.92,359.55 990.48,334.88 1044.04,302.46 1097.60,291.51 1097.60,348.10 1044.04,360.76 990.48,394.09 936.92,416.38 883.36,445.11 829.80,466.84 776.24,474.45 722.68,476.47 669.12,469.43 615.56,451.22 562.00,426.28" fill="#CC3311" opacity="0.10"/>
<path d="M562.00,398.31 L615.56,426.83 L669.12,445.83 L722.68,454.85 L776.24,451.32 L829.80,443.24 L883.36,418.95 L936.92,387.96 L990.48,364.49 L1044.04,331.61 L1097.60,319.81" fill="none" stroke="#CC3311" stroke-width="2.2" stroke-linejoin="round" stroke-linecap="round"/>
<polygon points="562.00,496.82 615.56,434.43 669.12,316.32 722.68,269.08 776.24,253.21 829.80,257.15 883.36,276.02 936.92,310.83 990.48,343.13 1044.04,382.05 1097.60,396.06 1097.60,448.90 1044.04,437.42 990.48,401.11 936.92,369.42 883.36,330.53 829.80,309.77 776.24,306.14 722.68,323.96 669.12,373.52 615.56,468.71 562.00,502.75" fill="#0077BB" opacity="0.10"/>
<path d="M562.00,500.73 L615.56,451.57 L669.12,344.92 L722.68,296.52 L776.24,279.67 L829.80,283.46 L883.36,303.27 L936.92,340.13 L990.48,372.12 L1044.04,409.73 L1097.60,422.48" fill="none" stroke="#0077BB" stroke-width="2.2" stroke-linejoin="round" stroke-linecap="round"/>
<text class="nlabel" x="1093.60" y="216.00" text-anchor="end">n=95</text>
<rect x="1127.60" y="188.00" width="589.60" height="348.75" fill="white"/>
<line class="grid" x1="1169.60" x2="1705.20" y1="502.75" y2="502.75"/>
<line class="grid" x1="1169.60" x2="1705.20" y1="427.81" y2="427.81"/>
<line class="grid" x1="1169.60" x2="1705.20" y1="352.88" y2="352.88"/>
<line class="grid" x1="1169.60" x2="1705.20" y1="277.94" y2="277.94"/>
<line class="grid" x1="1169.60" x2="1705.20" y1="203.00" y2="203.00"/>
<line class="grid" x1="1169.60" x2="1169.60" y1="203.00" y2="502.75"/>
<line class="grid" x1="1437.40" x2="1437.40" y1="203.00" y2="502.75"/>
<line class="grid" x1="1705.20" x2="1705.20" y1="203.00" y2="502.75"/>
<line class="axis" x1="1169.60" x2="1705.20" y1="502.75" y2="502.75"/>
<line class="axis" x1="1169.60" x2="1169.60" y1="203.00" y2="502.75"/>
<polygon points="1169.60,291.38 1196.38,277.02 1223.16,283.13 1249.94,264.18 1276.72,269.07 1303.50,264.31 1330.28,272.11 1357.06,263.11 1383.84,268.32 1410.62,275.96 1437.40,291.04 1464.18,277.29 1490.96,259.06 1517.74,262.70 1544.52,271.80 1571.30,286.56 1598.08,267.47 1624.86,275.76 1651.64,275.71 1678.42,262.57 1705.20,260.43 1705.20,315.09 1678.42,318.10 1651.64,332.67 1624.86,335.00 1598.08,321.68 1571.30,347.12 1544.52,326.04 1517.74,317.22 1490.96,311.14 1464.18,338.68 1437.40,349.01 1410.62,332.36 1383.84,323.46 1357.06,316.93 1330.28,331.23 1303.50,317.58 1276.72,326.58 1249.94,318.71 1223.16,340.44 1196.38,361.89 1169.60,347.98" fill="#CC3311" opacity="0.10"/>
<path d="M1169.60,319.68 L1196.38,319.45 L1223.16,311.78 L1249.94,291.44 L1276.72,297.82 L1303.50,290.95 L1330.28,301.67 L1357.06,290.02 L1383.84,295.89 L1410.62,304.16 L1437.40,320.03 L1464.18,307.98 L1490.96,285.10 L1517.74,289.96 L1544.52,298.92 L1571.30,316.84 L1598.08,294.58 L1624.86,305.38 L1651.64,304.19 L1678.42,290.34 L1705.20,287.76" fill="none" stroke="#CC3311" stroke-width="2.2" stroke-linejoin="round" stroke-linecap="round"/>
<polygon points="1169.60,396.18 1196.38,385.75 1223.16,408.46 1249.94,431.05 1276.72,444.19 1303.50,446.23 1330.28,438.44 1357.06,440.78 1383.84,437.19 1410.62,426.90 1437.40,417.16 1464.18,421.56 1490.96,442.07 1517.74,445.92 1544.52,435.54 1571.30,418.03 1598.08,442.29 1624.86,425.57 1651.64,428.33 1678.42,440.76 1705.20,444.46 1705.20,484.45 1678.42,483.08 1651.64,475.33 1624.86,473.22 1598.08,482.71 1571.30,467.70 1544.52,478.32 1517.74,485.06 1490.96,482.28 1464.18,472.32 1437.40,466.07 1410.62,472.83 1383.84,478.85 1357.06,482.14 1330.28,482.57 1303.50,484.61 1276.72,485.11 1249.94,475.31 1223.16,458.03 1196.38,461.78 1169.60,448.98" fill="#0077BB" opacity="0.10"/>
<path d="M1169.60,422.58 L1196.38,423.77 L1223.16,433.25 L1249.94,453.18 L1276.72,464.65 L1303.50,465.42 L1330.28,460.50 L1357.06,461.46 L1383.84,458.02 L1410.62,449.87 L1437.40,441.61 L1464.18,446.94 L1490.96,462.17 L1517.74,465.49 L1544.52,456.93 L1571.30,442.87 L1598.08,462.50 L1624.86,449.39 L1651.64,451.83 L1678.42,461.92 L1705.20,464.46" fill="none" stroke="#0077BB" stroke-width="2.2" stroke-linejoin="round" stroke-linecap="round"/>
<text class="nlabel" x="1701.20" y="216.00" text-anchor="end">n=95</text>
<rect x="1735.20" y="188.00" width="589.60" height="348.75" fill="white"/>
<line class="grid" x1="1777.20" x2="2312.80" y1="502.75" y2="502.75"/>
<line class="grid" x1="1777.20" x2="2312.80" y1="427.81" y2="427.81"/>
<line class="grid" x1="1777.20" x2="2312.80" y1="352.88" y2="352.88"/>
<line class="grid" x1="1777.20" x2="2312.80" y1="277.94" y2="277.94"/>
<line class="grid" x1="1777.20" x2="2312.80" y1="203.00" y2="203.00"/>
<line class="grid" x1="1777.20" x2="1777.20" y1="203.00" y2="502.75"/>
<line class="grid" x1="2045.00" x2="2045.00" y1="203.00" y2="502.75"/>
<line class="grid" x1="2312.80" x2="2312.80" y1="203.00" y2="502.75"/>
<line class="axis" x1="1777.20" x2="2312.80" y1="502.75" y2="502.75"/>
<line class="axis" x1="1777.20" x2="1777.20" y1="203.00" y2="502.75"/>
<polygon points="1777.20,255.22 1803.98,275.95 1830.76,250.03 1857.54,253.00 1884.32,263.43 1911.10,260.32 1937.88,275.39 1964.66,260.85 1991.44,261.94 2018.22,274.44 2045.00,285.96 2071.78,313.34 2098.56,297.74 2125.34,285.23 2152.12,267.33 2178.90,257.27 2205.68,262.63 2232.46,257.96 2259.24,250.57 2286.02,273.48 2312.80,301.42 2312.80,359.14 2286.02,329.90 2259.24,303.13 2232.46,312.71 2205.68,315.63 2178.90,310.33 2152.12,322.07 2125.34,343.81 2098.56,356.52 2071.78,376.85 2045.00,342.98 2018.22,330.72 1991.44,317.06 1964.66,312.52 1937.88,335.00 1911.10,311.57 1884.32,318.94 1857.54,306.03 1830.76,301.10 1803.98,365.36 1777.20,307.53" fill="#CC3311" opacity="0.10"/>
<path d="M1777.20,281.38 L1803.98,320.65 L1830.76,275.56 L1857.54,279.52 L1884.32,291.18 L1911.10,285.94 L1937.88,305.20 L1964.66,286.68 L1991.44,289.50 L2018.22,302.58 L2045.00,314.47 L2071.78,345.10 L2098.56,327.13 L2125.34,314.52 L2152.12,294.70 L2178.90,283.80 L2205.68,289.13 L2232.46,285.33 L2259.24,276.85 L2286.02,301.69 L2312.80,330.28" fill="none" stroke="#CC3311" stroke-width="2.2" stroke-linejoin="round" stroke-linecap="round"/>
<polygon points="1777.20,460.74 1803.98,445.61 1830.76,454.58 1857.54,449.07 1884.32,426.65 1911.10,430.30 1937.88,429.54 1964.66,457.41 1991.44,432.32 2018.22,426.82 2045.00,413.24 2071.78,398.44 2098.56,415.69 2125.34,426.72 2152.12,444.32 2178.90,467.92 2205.68,472.24 2232.46,457.12 2259.24,447.26 2286.02,451.09 2312.80,419.08 2312.80,466.80 2286.02,489.53 2259.24,486.69 2232.46,492.83 2205.68,499.00 2178.90,498.07 2152.12,483.36 2125.34,473.32 2098.56,464.86 2071.78,454.90 2045.00,463.12 2018.22,473.17 1991.44,477.26 1964.66,490.61 1937.88,476.65 1911.10,474.09 1884.32,473.39 1857.54,487.84 1830.76,490.97 1803.98,499.34 1777.20,493.26" fill="#0077BB" opacity="0.10"/>
<path d="M1777.20,477.00 L1803.98,472.48 L1830.76,472.77 L1857.54,468.46 L1884.32,450.02 L1911.10,452.19 L1937.88,453.10 L1964.66,474.01 L1991.44,454.79 L2018.22,449.99 L2045.00,438.18 L2071.78,426.67 L2098.56,440.28 L2125.34,450.02 L2152.12,463.84 L2178.90,482.99 L2205.68,485.62 L2232.46,474.97 L2259.24,466.98 L2286.02,470.31 L2312.80,442.94" fill="none" stroke="#0077BB" stroke-width="2.2" stroke-linejoin="round" stroke-linecap="round"/>
<text class="nlabel" x="2308.80" y="216.00" text-anchor="end">n=95</text>
<rect x="2342.80" y="188.00" width="589.60" height="348.75" fill="white"/>
<line class="grid" x1="2384.80" x2="2920.40" y1="502.75" y2="502.75"/>
<line class="grid" x1="2384.80" x2="2920.40" y1="427.81" y2="427.81"/>
<line class="grid" x1="2384.80" x2="2920.40" y1="352.88" y2="352.88"/>
<line class="grid" x1="2384.80" x2="2920.40" y1="277.94" y2="277.94"/>
<line class="grid" x1="2384.80" x2="2920.40" y1="203.00" y2="203.00"/>
<line class="grid" x1="2384.80" x2="2384.80" y1="203.00" y2="502.75"/>
<line class="grid" x1="2652.60" x2="2652.60" y1="203.00" y2="502.75"/>
<line class="grid" x1="2920.40" x2="2920.40" y1="203.00" y2="502.75"/>
<line class="axis" x1="2384.80" x2="2920.40" y1="502.75" y2="502.75"/>
<line class="axis" x1="2384.80" x2="2384.80" y1="203.00" y2="502.75"/>
<polygon points="2384.80,307.57 2411.58,304.76 2438.36,311.54 2465.14,327.03 2491.92,345.05 2518.70,364.07 2545.48,362.96 2572.26,365.54 2599.04,366.27 2625.82,370.59 2652.60,375.83 2679.38,371.15 2706.16,380.24 2732.94,382.36 2759.72,380.15 2786.50,382.21 2813.28,370.96 2840.06,365.80 2866.84,369.28 2893.62,375.18 2920.40,382.26 2920.40,437.58 2893.62,431.92 2866.84,426.71 2840.06,423.50 2813.28,428.56 2786.50,437.63 2759.72,435.41 2732.94,437.23 2706.16,435.82 2679.38,428.24 2652.60,432.15 2625.82,427.42 2599.04,423.41 2572.26,423.00 2545.48,422.42 2518.70,422.83 2491.92,402.35 2465.14,387.18 2438.36,371.11 2411.58,365.02 2384.80,367.34" fill="#CC3311" opacity="0.10"/>
<path d="M2384.80,337.45 L2411.58,334.89 L2438.36,341.33 L2465.14,357.10 L2491.92,373.70 L2518.70,393.45 L2545.48,392.69 L2572.26,394.27 L2599.04,394.84 L2625.82,399.01 L2652.60,403.99 L2679.38,399.70 L2706.16,408.03 L2732.94,409.80 L2759.72,407.78 L2786.50,409.92 L2813.28,399.76 L2840.06,394.65 L2866.84,398.00 L2893.62,403.55 L2920.40,409.92" fill="none" stroke="#CC3311" stroke-width="2.2" stroke-linejoin="round" stroke-linecap="round"/>
<polygon points="2384.80,402.68 2411.58,397.10 2438.36,382.73 2465.14,361.80 2491.92,351.32 2518.70,339.08 2545.48,336.89 2572.26,327.54 2599.04,333.25 2625.82,332.94 2652.60,334.87 2679.38,334.28 2706.16,335.41 2732.94,329.06 2759.72,325.94 2786.50,322.11 2813.28,329.94 2840.06,336.33 2866.84,349.51 2893.62,343.50 2920.40,329.81 2920.40,389.32 2893.62,403.27 2866.84,408.11 2840.06,395.17 2813.28,389.57 2786.50,382.38 2759.72,384.86 2732.94,389.06 2706.16,394.44 2679.38,394.69 2652.60,393.97 2625.82,393.00 2599.04,391.56 2572.26,387.67 2545.48,396.75 2518.70,398.85 2491.92,409.58 2465.14,420.05 2438.36,437.75 2411.58,450.01 2384.80,453.82" fill="#0077BB" opacity="0.10"/>
<path d="M2384.80,428.25 L2411.58,423.55 L2438.36,410.24 L2465.14,390.93 L2491.92,380.45 L2518.70,368.97 L2545.48,366.82 L2572.26,357.61 L2599.04,362.40 L2625.82,362.97 L2652.60,364.42 L2679.38,364.49 L2706.16,364.93 L2732.94,359.06 L2759.72,355.40 L2786.50,352.24 L2813.28,359.75 L2840.06,365.75 L2866.84,378.81 L2893.62,373.38 L2920.40,359.56" fill="none" stroke="#0077BB" stroke-width="2.2" stroke-linejoin="round" stroke-linecap="round"/>
<text class="nlabel" x="2916.40" y="216.00" text-anchor="end">n=95</text>
<rect x="2950.40" y="188.00" width="589.60" height="348.75" fill="white"/>
<line class="grid" x1="2992.40" x2="3528.00" y1="502.75" y2="502.75"/>
<line class="grid" x1="2992.40" x2="3528.00" y1="427.81" y2="427.81"/>
<line class="grid" x1="2992.40" x2="3528.00" y1="352.88" y2="352.88"/>
<line class="grid" x1="2992.40" x2="3528.00" y1="277.94" y2="277.94"/>
<line class="grid" x1="2992.40" x2="3528.00" y1="203.00" y2="203.00"/>
<line class="grid" x1="2992.40" x2="2992.40" y1="203.00" y2="502.75"/>
<line class="grid" x1="3260.20" x2="3260.20" y1="203.00" y2="502.75"/>
<line class="grid" x1="3528.00" x2="3528.00" y1="203.00" y2="502.75"/>
<line class="axis" x1="2992.40" x2="3528.00" y1="502.75" y2="502.75"/>
<line class="axis" x1="2992.40" x2="2992.40" y1="203.00" y2="502.75"/>
<polygon points="2992.40,382.26 3010.25,392.01 3028.11,393.03 3045.96,400.82 3063.81,404.58 3081.67,399.48 3099.52,405.38 3117.37,418.49 3135.23,423.14 3153.08,422.91 3170.93,432.02 3188.79,437.15 3206.64,435.03 3224.49,436.42 3242.35,431.07 3260.20,424.83 3278.05,420.71 3295.91,423.43 3313.76,426.15 3331.61,432.53 3349.47,433.04 3367.32,414.90 3385.17,408.89 3403.03,409.66 3420.88,407.60 3438.73,402.61 3456.59,404.57 3474.44,411.39 3492.29,417.14 3510.15,418.47 3528.00,419.94 3528.00,468.19 3510.15,467.01 3492.29,466.19 3474.44,462.10 3456.59,456.92 3438.73,454.97 3420.88,458.44 3403.03,460.42 3385.17,460.05 3367.32,464.14 3349.47,476.29 3331.61,475.66 3313.76,472.58 3295.91,469.11 3278.05,469.05 3260.20,471.00 3242.35,476.11 3224.49,479.21 3206.64,478.21 3188.79,478.99 3170.93,476.30 3153.08,470.52 3135.23,470.42 3117.37,467.11 3099.52,456.74 3081.67,452.05 3063.81,456.41 3045.96,452.85 3028.11,447.01 3010.25,445.25 2992.40,437.58" fill="#CC3311" opacity="0.10"/>
<path d="M2992.40,409.92 L3010.25,418.63 L3028.11,420.02 L3045.96,426.83 L3063.81,430.49 L3081.67,425.76 L3099.52,431.06 L3117.37,442.80 L3135.23,446.78 L3153.08,446.71 L3170.93,454.16 L3188.79,458.07 L3206.64,456.62 L3224.49,457.82 L3242.35,453.59 L3260.20,447.91 L3278.05,444.88 L3295.91,446.27 L3313.76,449.36 L3331.61,454.10 L3349.47,454.66 L3367.32,439.52 L3385.17,434.47 L3403.03,435.04 L3420.88,433.02 L3438.73,428.79 L3456.59,430.75 L3474.44,436.74 L3492.29,441.66 L3510.15,442.74 L3528.00,444.06" fill="none" stroke="#CC3311" stroke-width="2.2" stroke-linejoin="round" stroke-linecap="round"/>
<polygon points="2992.40,329.81 3010.25,312.05 3028.11,318.78 3045.96,316.60 3063.81,307.63 3081.67,303.12 3099.52,301.33 3117.37,301.62 3135.23,294.24 3153.08,295.30 3170.93,289.36 3188.79,278.74 3206.64,277.78 3224.49,274.75 3242.35,286.47 3260.20,296.45 3278.05,311.03 3295.91,309.31 3313.76,293.49 3331.61,275.24 3349.47,274.21 3367.32,282.13 3385.17,295.29 3403.03,309.00 3420.88,304.95 3438.73,298.60 3456.59,292.89 3474.44,288.10 3492.29,288.48 3510.15,286.54 3528.00,288.79 3528.00,346.29 3510.15,343.61 3492.29,347.85 3474.44,345.96 3456.59,350.77 3438.73,357.80 3420.88,363.44 3403.03,367.21 3385.17,354.80 3367.32,339.44 3349.47,329.94 3331.61,331.05 3313.76,351.55 3295.91,368.54 3278.05,371.12 3260.20,354.65 3242.35,344.94 3224.49,329.77 3206.64,333.32 3188.79,336.90 3170.93,347.35 3153.08,353.65 3135.23,352.83 3117.37,360.47 3099.52,361.26 3081.67,362.37 3063.81,366.94 3045.96,376.41 3028.11,379.15 3010.25,370.73 2992.40,389.32" fill="#0077BB" opacity="0.10"/>
<path d="M2992.40,359.56 L3010.25,341.39 L3028.11,348.96 L3045.96,346.50 L3063.81,337.29 L3081.67,332.74 L3099.52,331.29 L3117.37,331.04 L3135.23,323.53 L3153.08,324.48 L3170.93,318.36 L3188.79,307.82 L3206.64,305.55 L3224.49,302.26 L3242.35,315.71 L3260.20,325.55 L3278.05,341.07 L3295.91,338.93 L3313.76,322.52 L3331.61,303.15 L3349.47,302.08 L3367.32,310.78 L3385.17,325.05 L3403.03,338.11 L3420.88,334.20 L3438.73,328.20 L3456.59,321.83 L3474.44,317.03 L3492.29,318.17 L3510.15,315.08 L3528.00,317.54" fill="none" stroke="#0077BB" stroke-width="2.2" stroke-linejoin="round" stroke-linecap="round"/>
<text class="nlabel" x="3524.00" y="216.00" text-anchor="end">n=95</text>
<text class="row-title" x="486" y="745.12" text-anchor="end" dominant-baseline="middle">1 agent, 2 patients, animate patient (n=77)</text>
<rect x="520.00" y="570.75" width="589.60" height="348.75" fill="white"/>
<line class="grid" x1="562.00" x2="1097.60" y1="885.50" y2="885.50"/>
<text class="tick" x="554.00" y="889.50" text-anchor="end">0</text>
<line class="grid" x1="562.00" x2="1097.60" y1="810.56" y2="810.56"/>
<text class="tick" x="554.00" y="814.56" text-anchor="end">0.25</text>
<line class="grid" x1="562.00" x2="1097.60" y1="735.62" y2="735.62"/>
<text class="tick" x="554.00" y="739.62" text-anchor="end">0.5</text>
<line class="grid" x1="562.00" x2="1097.60" y1="660.69" y2="660.69"/>
<text class="tick" x="554.00" y="664.69" text-anchor="end">0.75</text>
<line class="grid" x1="562.00" x2="1097.60" y1="585.75" y2="585.75"/>
<text class="tick" x="554.00" y="589.75" text-anchor="end">1</text>
<line class="grid" x1="562.00" x2="562.00" y1="585.75" y2="885.50"/>
<line class="grid" x1="829.80" x2="829.80" y1="585.75" y2="885.50"/>
<line class="grid" x1="1097.60" x2="1097.60" y1="585.75" y2="885.50"/>
<line class="axis" x1="562.00" x2="1097.60" y1="885.50" y2="885.50"/>
<line class="axis" x1="562.00" x2="562.00" y1="585.75" y2="885.50"/>
<polygon points="562.00,884.80 615.56,829.61 669.12,756.25 722.68,701.34 776.24,676.03 829.80,652.81 883.36,643.80 936.92,641.73 990.48,632.72 1044.04,638.89 1097.60,647.52 1097.60,708.19 1044.04,696.11 990.48,690.91 936.92,703.39 883.36,704.43 829.80,713.18 776.24,742.58 722.68,767.42 669.12,816.68 615.56,867.58 562.00,885.50" fill="#CC3311" opacity="0.10"/>
<path d="M562.00,885.27 L615.56,848.60 L669.12,786.47 L722.68,734.38 L776.24,709.31 L829.80,682.99 L883.36,674.12 L936.92,672.56 L990.48,661.82 L1044.04,667.50 L1097.60,677.86" fill="none" stroke="#CC3311" stroke-width="2.2" stroke-linejoin="round" stroke-linecap="round"/>
<polygon points="562.00,750.89 615.56,779.99 669.12,778.50 722.68,755.19 776.24,747.00 829.80,769.24 883.36,772.02 936.92,773.24 990.48,788.23 1044.04,795.36 1097.60,811.26 1097.60,861.17 1044.04,849.67 990.48,845.43 936.92,833.64 883.36,831.90 829.80,827.83 776.24,810.20 722.68,816.03 669.12,831.81 615.56,832.49 562.00,811.76" fill="#0077BB" opacity="0.10"/>
<path d="M562.00,781.33 L615.56,806.24 L669.12,805.15 L722.68,785.61 L776.24,778.60 L829.80,798.53 L883.36,801.96 L936.92,803.44 L990.48,816.83 L1044.04,822.51 L1097.60,836.22" fill="none" stroke="#0077BB" stroke-width="2.2" stroke-linejoin="round" stroke-linecap="round"/>
<text class="nlabel" x="1093.60" y="598.75" text-anchor="end">n=77</text>
<rect x="1127.60" y="570.75" width="589.60" height="348.75" fill="white"/>
<line class="grid" x1="1169.60" x2="1705.20" y1="885.50" y2="885.50"/>
<line class="grid" x1="1169.60" x2="1705.20" y1="810.56" y2="810.56"/>
<line class="grid" x1="1169.60" x2="1705.20" y1="735.62" y2="735.62"/>
<line class="grid" x1="1169.60" x2="1705.20" y1="660.69" y2="660.69"/>
<line class="grid" x1="1169.60" x2="1705.20" y1="585.75" y2="585.75"/>
<line class="grid" x1="1169.60" x2="1169.60" y1="585.75" y2="885.50"/>
<line class="grid" x1="1437.40" x2="1437.40" y1="585.75" y2="885.50"/>
<line class="grid" x1="1705.20" x2="1705.20" y1="585.75" y2="885.50"/>
<line class="axis" x1="1169.60" x2="1705.20" y1="885.50" y2="885.50"/>
<line class="axis" x1="1169.60" x2="1169.60" y1="585.75" y2="885.50"/>
<polygon points="1169.60,647.52 1196.38,698.36 1223.16,663.10 1249.94,658.22 1276.72,670.57 1303.50,656.85 1330.28,648.71 1357.06,661.18 1383.84,656.18 1410.62,654.07 1437.40,657.25 1464.18,653.26 1490.96,643.40 1517.74,643.09 1544.52,639.81 1571.30,652.31 1598.08,639.72 1624.86,625.05 1651.64,636.18 1678.42,626.06 1705.20,632.96 1705.20,688.68 1678.42,679.57 1651.64,693.65 1624.86,683.73 1598.08,693.92 1571.30,713.86 1544.52,696.30 1517.74,702.93 1490.96,701.29 1464.18,716.16 1437.40,717.34 1410.62,718.76 1383.84,717.82 1357.06,720.22 1330.28,711.63 1303.50,717.62 1276.72,735.13 1249.94,717.99 1223.16,726.04 1196.38,795.21 1169.60,708.29" fill="#CC3311" opacity="0.10"/>
<path d="M1169.60,677.91 L1196.38,746.78 L1223.16,694.57 L1249.94,688.10 L1276.72,702.85 L1303.50,687.24 L1330.28,680.17 L1357.06,690.70 L1383.84,687.00 L1410.62,686.42 L1437.40,687.29 L1464.18,684.71 L1490.96,672.34 L1517.74,673.01 L1544.52,668.05 L1571.30,683.09 L1598.08,666.82 L1624.86,654.39 L1651.64,664.91 L1678.42,652.82 L1705.20,660.82" fill="none" stroke="#CC3311" stroke-width="2.2" stroke-linejoin="round" stroke-linecap="round"/>
<polygon points="1169.60,811.29 1196.38,724.18 1223.16,792.43 1249.94,798.34 1276.72,787.16 1303.50,796.90 1330.28,795.51 1357.06,789.39 1383.84,799.93 1410.62,806.28 1437.40,817.56 1464.18,808.59 1490.96,806.38 1517.74,800.64 1544.52,811.57 1571.30,808.40 1598.08,817.94 1624.86,810.81 1651.64,812.32 1678.42,811.91 1705.20,811.69 1705.20,859.54 1678.42,861.67 1651.64,861.99 1624.86,863.05 1598.08,862.45 1571.30,859.42 1544.52,860.10 1517.74,853.42 1490.96,856.71 1464.18,859.76 1437.40,863.14 1410.62,859.30 1383.84,852.20 1357.06,842.95 1330.28,852.42 1303.50,849.64 1276.72,844.01 1249.94,849.99 1223.16,846.37 1196.38,818.01 1169.60,861.20" fill="#0077BB" opacity="0.10"/>
<path d="M1169.60,836.24 L1196.38,771.10 L1223.16,819.40 L1249.94,824.16 L1276.72,815.58 L1303.50,823.27 L1330.28,823.97 L1357.06,816.17 L1383.84,826.07 L1410.62,832.79 L1437.40,840.35 L1464.18,834.17 L1490.96,831.54 L1517.74,827.03 L1544.52,835.84 L1571.30,833.91 L1598.08,840.20 L1624.86,836.93 L1651.64,837.16 L1678.42,836.79 L1705.20,835.62" fill="none" stroke="#0077BB" stroke-width="2.2" stroke-linejoin="round" stroke-linecap="round"/>
<text class="nlabel" x="1701.20" y="598.75" text-anchor="end">n=77</text>
<rect x="1735.20" y="570.75" width="589.60" height="348.75" fill="white"/>
<line class="grid" x1="1777.20" x2="2312.80" y1="885.50" y2="885.50"/>
<line class="grid" x1="1777.20" x2="2312.80" y1="810.56" y2="810.56"/>
<line class="grid" x1="1777.20" x2="2312.80" y1="735.62" y2="735.62"/>
<line class="grid" x1="1777.20" x2="2312.80" y1="660.69" y2="660.69"/>
<line class="grid" x1="1777.20" x2="2312.80" y1="585.75" y2="585.75"/>
<line class="grid" x1="1777.20" x2="1777.20" y1="585.75" y2="885.50"/>
<line class="grid" x1="2045.00" x2="2045.00" y1="585.75" y2="885.50"/>
<line class="grid" x1="2312.80" x2="2312.80" y1="585.75" y2="885.50"/>
<line class="axis" x1="1777.20" x2="2312.80" y1="885.50" y2="885.50"/>
<line class="axis" x1="1777.20" x2="1777.20" y1="585.75" y2="885.50"/>
<polygon points="1777.20,634.19 1803.98,638.26 1830.76,641.81 1857.54,675.51 1884.32,650.92 1911.10,667.14 1937.88,648.74 1964.66,647.62 1991.44,669.51 2018.22,675.09 2045.00,675.29 2071.78,679.43 2098.56,670.98 2125.34,682.09 2152.12,668.18 2178.90,657.77 2205.68,675.17 2232.46,680.22 2259.24,673.50 2286.02,689.31 2312.80,693.26 2312.80,759.23 2286.02,753.15 2259.24,738.72 2232.46,748.98 2205.68,735.72 2178.90,720.09 2152.12,729.80 2125.34,745.05 2098.56,733.80 2071.78,743.86 2045.00,738.52 2018.22,743.70 1991.44,732.02 1964.66,705.28 1937.88,712.77 1911.10,728.17 1884.32,712.89 1857.54,739.74 1830.76,700.28 1803.98,728.07 1777.20,689.91" fill="#CC3311" opacity="0.10"/>
<path d="M1777.20,662.05 L1803.98,683.17 L1830.76,671.05 L1857.54,707.62 L1884.32,681.90 L1911.10,697.66 L1937.88,680.75 L1964.66,676.45 L1991.44,700.77 L2018.22,709.40 L2045.00,706.91 L2071.78,711.64 L2098.56,702.39 L2125.34,713.57 L2152.12,698.99 L2178.90,688.93 L2205.68,705.45 L2232.46,714.60 L2259.24,706.11 L2286.02,721.23 L2312.80,726.25" fill="none" stroke="#CC3311" stroke-width="2.2" stroke-linejoin="round" stroke-linecap="round"/>
<polygon points="1777.20,823.05 1803.98,756.82 1830.76,789.89 1857.54,781.91 1884.32,804.04 1911.10,792.71 1937.88,803.32 1964.66,783.58 1991.44,785.77 2018.22,783.04 2045.00,794.30 2071.78,785.34 2098.56,790.02 2125.34,788.46 2152.12,792.64 2178.90,784.16 2205.68,775.64 2232.46,776.55 2259.24,778.18 2286.02,769.35 2312.80,774.96 2312.80,834.24 2286.02,829.59 2259.24,837.72 2232.46,839.10 2205.68,830.50 2178.90,841.38 2152.12,847.06 2125.34,844.14 2098.56,845.24 2071.78,841.94 2045.00,848.81 2018.22,842.58 1991.44,842.09 1964.66,839.31 1937.88,856.77 1911.10,846.54 1884.32,857.02 1857.54,837.90 1830.76,844.82 1803.98,844.99 1777.20,867.75" fill="#0077BB" opacity="0.10"/>
<path d="M1777.20,845.40 L1803.98,800.90 L1830.76,817.35 L1857.54,809.90 L1884.32,830.53 L1911.10,819.63 L1937.88,830.05 L1964.66,811.44 L1991.44,813.93 L2018.22,812.81 L2045.00,821.55 L2071.78,813.64 L2098.56,817.63 L2125.34,816.30 L2152.12,819.85 L2178.90,812.77 L2205.68,803.07 L2232.46,807.83 L2259.24,807.95 L2286.02,799.47 L2312.80,804.60" fill="none" stroke="#0077BB" stroke-width="2.2" stroke-linejoin="round" stroke-linecap="round"/>
<text class="nlabel" x="2308.80" y="598.75" text-anchor="end">n=77</text>
<rect x="2342.80" y="570.75" width="589.60" height="348.75" fill="white"/>
<line class="grid" x1="2384.80" x2="2920.40" y1="885.50" y2="885.50"/>
<line class="grid" x1="2384.80" x2="2920.40" y1="810.56" y2="810.56"/>
<line class="grid" x1="2384.80" x2="2920.40" y1="735.62" y2="735.62"/>
<line class="grid" x1="2384.80" x2="2920.40" y1="660.69" y2="660.69"/>
<line class="grid" x1="2384.80" x2="2920.40" y1="585.75" y2="585.75"/>
<line class="grid" x1="2384.80" x2="2384.80" y1="585.75" y2="885.50"/>
<line class="grid" x1="2652.60" x2="2652.60" y1="585.75" y2="885.50"/>
<line class="grid" x1="2920.40" x2="2920.40" y1="585.75" y2="885.50"/>
<line class="axis" x1="2384.80" x2="2920.40" y1="885.50" y2="885.50"/>
<line class="axis" x1="2384.80" x2="2384.80" y1="585.75" y2="885.50"/>
<polygon points="2384.80,691.72 2411.58,695.21 2438.36,685.12 2465.14,682.18 2491.92,695.66 2518.70,698.03 2545.48,698.20 2572.26,697.76 2599.04,691.62 2625.82,677.00 2652.60,678.14 2679.38,694.14 2706.16,702.11 2732.94,717.69 2759.72,725.15 2786.50,732.55 2813.28,726.76 2840.06,720.26 2866.84,720.18 2893.62,724.92 2920.40,724.52 2920.40,790.95 2893.62,790.24 2866.84,787.66 2840.06,787.12 2813.28,791.36 2786.50,798.50 2759.72,790.95 2732.94,784.24 2706.16,768.36 2679.38,761.07 2652.60,742.50 2625.82,742.39 2599.04,757.06 2572.26,764.61 2545.48,765.88 2518.70,764.65 2491.92,760.64 2465.14,749.36 2438.36,751.56 2411.58,763.27 2384.80,758.16" fill="#CC3311" opacity="0.10"/>
<path d="M2384.80,724.94 L2411.58,729.24 L2438.36,718.34 L2465.14,715.77 L2491.92,728.15 L2518.70,731.34 L2545.48,732.04 L2572.26,731.19 L2599.04,724.34 L2625.82,709.70 L2652.60,710.32 L2679.38,727.61 L2706.16,735.24 L2732.94,750.96 L2759.72,758.05 L2786.50,765.52 L2813.28,759.06 L2840.06,753.69 L2866.84,753.92 L2893.62,757.58 L2920.40,757.74" fill="none" stroke="#CC3311" stroke-width="2.2" stroke-linejoin="round" stroke-linecap="round"/>
<polygon points="2384.80,766.82 2411.58,771.12 2438.36,769.93 2465.14,769.25 2491.92,772.33 2518.70,775.81 2545.48,772.53 2572.26,762.57 2599.04,751.87 2625.82,751.63 2652.60,751.86 2679.38,752.17 2706.16,751.55 2732.94,752.58 2759.72,740.81 2786.50,725.26 2813.28,728.40 2840.06,725.31 2866.84,724.52 2893.62,713.25 2920.40,713.56 2920.40,780.74 2893.62,780.42 2866.84,790.33 2840.06,791.25 2813.28,794.23 2786.50,792.55 2759.72,804.24 2732.94,815.68 2706.16,815.15 2679.38,814.53 2652.60,815.00 2625.82,816.63 2599.04,815.92 2572.26,824.07 2545.48,831.70 2518.70,836.05 2491.92,832.68 2465.14,828.90 2438.36,830.88 2411.58,832.34 2384.80,827.33" fill="#0077BB" opacity="0.10"/>
<path d="M2384.80,797.08 L2411.58,801.73 L2438.36,800.40 L2465.14,799.08 L2491.92,802.50 L2518.70,805.93 L2545.48,802.11 L2572.26,793.32 L2599.04,783.90 L2625.82,784.13 L2652.60,783.43 L2679.38,783.35 L2706.16,783.35 L2732.94,784.13 L2759.72,772.53 L2786.50,758.90 L2813.28,761.32 L2840.06,758.28 L2866.84,757.42 L2893.62,746.84 L2920.40,747.15" fill="none" stroke="#0077BB" stroke-width="2.2" stroke-linejoin="round" stroke-linecap="round"/>
<text class="nlabel" x="2916.40" y="598.75" text-anchor="end">n=77</text>
<rect x="2950.40" y="570.75" width="589.60" height="348.75" fill="white"/>
<line class="grid" x1="2992.40" x2="3528.00" y1="885.50" y2="885.50"/>
<line class="grid" x1="2992.40" x2="3528.00" y1="810.56" y2="810.56"/>
<line class="grid" x1="2992.40" x2="3528.00" y1="735.62" y2="735.62"/>
<line class="grid" x1="2992.40" x2="3528.00" y1="660.69" y2="660.69"/>
<line class="grid" x1="2992.40" x2="3528.00" y1="585.75" y2="585.75"/>
<line class="grid" x1="2992.40" x2="2992.40" y1="585.75" y2="885.50"/>
<line class="grid" x1="3260.20" x2="3260.20" y1="585.75" y2="885.50"/>
<line class="grid" x1="3528.00" x2="3528.00" y1="585.75" y2="885.50"/>
<line class="axis" x1="2992.40" x2="3528.00" y1="885.50" y2="885.50"/>
<line class="axis" x1="2992.40" x2="2992.40" y1="585.75" y2="885.50"/>
<polygon points="2992.40,724.52 3010.25,729.51 3028.11,734.91 3045.96,742.88 3063.81,747.58 3081.67,741.76 3099.52,746.70 3117.37,747.95 3135.23,761.48 3153.08,773.23 3170.93,785.02 3188.79,794.41 3206.64,786.87 3224.49,788.42 3242.35,793.09 3260.20,791.54 3278.05,787.06 3295.91,777.44 3313.76,777.56 3331.61,791.47 3349.47,812.01 3367.32,817.99 3385.17,812.20 3403.03,808.77 3420.88,803.19 3438.73,804.71 3456.59,813.82 3474.44,823.90 3492.29,823.45 3510.15,816.48 3528.00,813.96 3528.00,863.76 3510.15,864.82 3492.29,869.69 3474.44,867.99 3456.59,862.66 3438.73,856.20 3420.88,855.23 3403.03,859.46 3385.17,860.70 3367.32,865.65 3349.47,861.83 3331.61,846.08 3313.76,836.95 3295.91,836.60 3278.05,844.27 3260.20,847.41 3242.35,848.67 3224.49,844.46 3206.64,844.30 3188.79,847.34 3170.93,841.79 3153.08,833.02 3135.23,823.29 3117.37,811.44 3099.52,811.44 3081.67,805.17 3063.81,811.02 3045.96,808.25 3028.11,800.33 3010.25,796.08 2992.40,790.95" fill="#CC3311" opacity="0.10"/>
<path d="M2992.40,757.74 L3010.25,762.80 L3028.11,767.62 L3045.96,775.57 L3063.81,779.30 L3081.67,773.46 L3099.52,779.07 L3117.37,779.69 L3135.23,792.38 L3153.08,803.13 L3170.93,813.40 L3188.79,820.88 L3206.64,815.58 L3224.49,816.44 L3242.35,820.88 L3260.20,819.48 L3278.05,815.66 L3295.91,807.02 L3313.76,807.25 L3331.61,818.78 L3349.47,836.92 L3367.32,841.82 L3385.17,836.45 L3403.03,834.11 L3420.88,829.21 L3438.73,830.46 L3456.59,838.24 L3474.44,845.95 L3492.29,846.57 L3510.15,840.65 L3528.00,838.86" fill="none" stroke="#CC3311" stroke-width="2.2" stroke-linejoin="round" stroke-linecap="round"/>
<polygon points="2992.40,713.56 3010.25,713.21 3028.11,717.15 3045.96,709.34 3063.81,710.00 3081.67,706.53 3099.52,691.83 3117.37,687.90 3135.23,677.41 3153.08,679.18 3170.93,681.01 3188.79,672.84 3206.64,682.26 3224.49,681.86 3242.35,669.50 3260.20,660.63 3278.05,658.45 3295.91,667.69 3313.76,672.55 3331.61,678.12 3349.47,663.73 3367.32,657.25 3385.17,654.73 3403.03,665.39 3420.88,659.87 3438.73,650.97 3456.59,647.77 3474.44,646.20 3492.29,652.78 3510.15,645.44 3528.00,641.02 3528.00,699.59 3510.15,708.09 3492.29,716.17 3474.44,704.53 3456.59,708.72 3438.73,714.55 3420.88,722.00 3403.03,730.49 3385.17,717.80 3367.32,718.23 3349.47,726.86 3331.61,742.21 3313.76,738.29 3295.91,732.71 3278.05,722.33 3260.20,724.97 3242.35,733.39 3224.49,746.88 3206.64,749.44 3188.79,738.00 3170.93,746.49 3153.08,743.95 3135.23,744.01 3117.37,754.07 3099.52,758.39 3081.67,772.82 3063.81,775.26 3045.96,777.02 3028.11,783.22 3010.25,779.84 2992.40,780.74" fill="#0077BB" opacity="0.10"/>
<path d="M2992.40,747.15 L3010.25,746.53 L3028.11,750.18 L3045.96,743.18 L3063.81,742.63 L3081.67,739.67 L3099.52,725.11 L3117.37,720.99 L3135.23,710.71 L3153.08,711.57 L3170.93,713.75 L3188.79,705.42 L3206.64,715.85 L3224.49,714.37 L3242.35,701.45 L3260.20,692.80 L3278.05,690.39 L3295.91,700.20 L3313.76,705.42 L3331.61,710.17 L3349.47,695.30 L3367.32,687.74 L3385.17,686.26 L3403.03,697.94 L3420.88,690.93 L3438.73,682.76 L3456.59,678.24 L3474.44,675.36 L3492.29,684.47 L3510.15,676.76 L3528.00,670.30" fill="none" stroke="#0077BB" stroke-width="2.2" stroke-linejoin="round" stroke-linecap="round"/>
<text class="nlabel" x="3524.00" y="598.75" text-anchor="end">n=77</text>
<text class="row-title" x="486" y="1127.88" text-anchor="end" dominant-baseline="middle">1 agent, 1 patient, inanimate patient (n=89)</text>
<rect x="520.00" y="953.50" width="589.60" height="348.75" fill="white"/>
<line class="grid" x1="562.00" x2="1097.60" y1="1268.25" y2="1268.25"/>
<text class="tick" x="554.00" y="1272.25" text-anchor="end">0</text>
<line class="grid" x1="562.00" x2="1097.60" y1="1193.31" y2="1193.31"/>
<text class="tick" x="554.00" y="1197.31" text-anchor="end">0.25</text>
<line class="grid" x1="562.00" x2="1097.60" y1="1118.38" y2="1118.38"/>
<text class="tick" x="554.00" y="1122.38" text-anchor="end">0.5</text>
<line class="grid" x1="562.00" x2="1097.60" y1="1043.44" y2="1043.44"/>
<text class="tick" x="554.00" y="1047.44" text-anchor="end">0.75</text>
<line class="grid" x1="562.00" x2="1097.60" y1="968.50" y2="968.50"/>
<text class="tick" x="554.00" y="972.50" text-anchor="end">1</text>
<line class="grid" x1="562.00" x2="562.00" y1="968.50" y2="1268.25"/>
<line class="grid" x1="829.80" x2="829.80" y1="968.50" y2="1268.25"/>
<line class="grid" x1="1097.60" x2="1097.60" y1="968.50" y2="1268.25"/>
<line class="axis" x1="562.00" x2="1097.60" y1="1268.25" y2="1268.25"/>
<line class="axis" x1="562.00" x2="562.00" y1="968.50" y2="1268.25"/>
<polygon points="562.00,1151.15 615.56,1131.43 669.12,1070.13 722.68,1052.83 776.24,1039.75 829.80,1036.92 883.36,1040.70 936.92,1040.13 990.48,1047.18 1044.04,1052.08 1097.60,1058.02 1097.60,1119.59 1044.04,1112.46 990.48,1105.37 936.92,1097.74 883.36,1097.17 829.80,1094.21 776.24,1098.66 722.68,1112.39 669.12,1130.11 615.56,1186.28 562.00,1207.65" fill="#CC3311" opacity="0.10"/>
<path d="M562.00,1179.40 L615.56,1158.86 L669.12,1100.12 L722.68,1082.61 L776.24,1069.20 L829.80,1065.57 L883.36,1068.93 L936.92,1068.93 L990.48,1076.28 L1044.04,1082.27 L1097.60,1088.80" fill="none" stroke="#CC3311" stroke-width="2.2" stroke-linejoin="round" stroke-linecap="round"/>
<polygon points="562.00,1252.04 615.56,1240.55 669.12,1195.74 722.68,1154.16 776.24,1150.70 829.80,1152.63 883.36,1157.31 936.92,1149.75 990.48,1143.52 1044.04,1141.89 1097.60,1141.74 1097.60,1200.36 1044.04,1200.62 990.48,1200.19 936.92,1205.69 883.36,1210.65 829.80,1209.14 776.24,1207.84 722.68,1210.31 669.12,1239.45 615.56,1264.69 562.00,1268.25" fill="#0077BB" opacity="0.10"/>
<path d="M562.00,1261.51 L615.56,1252.62 L669.12,1217.60 L722.68,1182.23 L776.24,1179.27 L829.80,1180.88 L883.36,1183.98 L936.92,1177.72 L990.48,1171.86 L1044.04,1171.25 L1097.60,1171.05" fill="none" stroke="#0077BB" stroke-width="2.2" stroke-linejoin="round" stroke-linecap="round"/>
<text class="nlabel" x="1093.60" y="981.50" text-anchor="end">n=89</text>
<rect x="1127.60" y="953.50" width="589.60" height="348.75" fill="white"/>
<line class="grid" x1="1169.60" x2="1705.20" y1="1268.25" y2="1268.25"/>
<line class="grid" x1="1169.60" x2="1705.20" y1="1193.31" y2="1193.31"/>
<line class="grid" x1="1169.60" x2="1705.20" y1="1118.38" y2="1118.38"/>
<line class="grid" x1="1169.60" x2="1705.20" y1="1043.44" y2="1043.44"/>
<line class="grid" x1="1169.60" x2="1705.20" y1="968.50" y2="968.50"/>
<line class="grid" x1="1169.60" x2="1169.60" y1="968.50" y2="1268.25"/>
<line class="grid" x1="1437.40" x2="1437.40" y1="968.50" y2="1268.25"/>
<line class="grid" x1="1705.20" x2="1705.20" y1="968.50" y2="1268.25"/>
<line class="axis" x1="1169.60" x2="1705.20" y1="1268.25" y2="1268.25"/>
<line class="axis" x1="1169.60" x2="1169.60" y1="968.50" y2="1268.25"/>
<polygon points="1169.60,1058.04 1196.38,1068.17 1223.16,1060.31 1249.94,1033.48 1276.72,1042.10 1303.50,1028.65 1330.28,1063.62 1357.06,1049.89 1383.84,1054.68 1410.62,1016.64 1437.40,1025.44 1464.18,1004.40 1490.96,1012.10 1517.74,1014.24 1544.52,1025.32 1571.30,1003.32 1598.08,1002.76 1624.86,996.81 1651.64,1010.24 1678.42,1016.86 1705.20,1023.80 1705.20,1081.45 1678.42,1074.95 1651.64,1060.46 1624.86,1050.37 1598.08,1051.21 1571.30,1057.95 1544.52,1083.39 1517.74,1066.91 1490.96,1065.88 1464.18,1058.49 1437.40,1081.60 1410.62,1073.27 1383.84,1114.71 1357.06,1110.93 1330.28,1125.47 1303.50,1086.75 1276.72,1102.59 1249.94,1091.56 1223.16,1122.64 1196.38,1160.39 1169.60,1119.67" fill="#CC3311" opacity="0.10"/>
<path d="M1169.60,1088.85 L1196.38,1114.28 L1223.16,1091.47 L1249.94,1062.52 L1276.72,1072.34 L1303.50,1057.70 L1330.28,1094.54 L1357.06,1080.41 L1383.84,1084.70 L1410.62,1044.95 L1437.40,1053.52 L1464.18,1031.45 L1490.96,1038.99 L1517.74,1040.57 L1544.52,1054.36 L1571.30,1030.64 L1598.08,1026.98 L1624.86,1023.59 L1651.64,1035.35 L1678.42,1045.90 L1705.20,1052.62" fill="none" stroke="#CC3311" stroke-width="2.2" stroke-linejoin="round" stroke-linecap="round"/>
<polygon points="1169.60,1141.72 1196.38,1106.32 1223.16,1140.19 1249.94,1178.35 1276.72,1174.69 1303.50,1187.84 1330.28,1182.56 1357.06,1204.06 1383.84,1171.09 1410.62,1205.98 1437.40,1205.96 1464.18,1208.95 1490.96,1196.33 1517.74,1201.22 1544.52,1191.46 1571.30,1206.74 1598.08,1215.75 1624.86,1213.06 1651.64,1210.76 1678.42,1211.10 1705.20,1211.91 1705.20,1254.06 1678.42,1254.07 1651.64,1250.70 1624.86,1256.04 1598.08,1254.04 1571.30,1251.66 1544.52,1240.84 1517.74,1245.29 1490.96,1243.01 1464.18,1252.37 1437.40,1248.24 1410.62,1250.58 1383.84,1223.15 1357.06,1247.83 1330.28,1233.15 1303.50,1238.00 1276.72,1228.49 1249.94,1230.49 1223.16,1200.23 1196.38,1195.65 1169.60,1200.40" fill="#0077BB" opacity="0.10"/>
<path d="M1169.60,1171.06 L1196.38,1150.98 L1223.16,1170.21 L1249.94,1204.42 L1276.72,1201.59 L1303.50,1212.92 L1330.28,1207.86 L1357.06,1225.94 L1383.84,1197.12 L1410.62,1228.28 L1437.40,1227.10 L1464.18,1230.66 L1490.96,1219.67 L1517.74,1223.25 L1544.52,1216.15 L1571.30,1229.20 L1598.08,1234.89 L1624.86,1234.55 L1651.64,1230.73 L1678.42,1232.58 L1705.20,1232.99" fill="none" stroke="#0077BB" stroke-width="2.2" stroke-linejoin="round" stroke-linecap="round"/>
<text class="nlabel" x="1701.20" y="981.50" text-anchor="end">n=89</text>
<rect x="1735.20" y="953.50" width="589.60" height="348.75" fill="white"/>
<line class="grid" x1="1777.20" x2="2312.80" y1="1268.25" y2="1268.25"/>
<line class="grid" x1="1777.20" x2="2312.80" y1="1193.31" y2="1193.31"/>
<line class="grid" x1="1777.20" x2="2312.80" y1="1118.38" y2="1118.38"/>
<line class="grid" x1="1777.20" x2="2312.80" y1="1043.44" y2="1043.44"/>
<line class="grid" x1="1777.20" x2="2312.80" y1="968.50" y2="968.50"/>
<line class="grid" x1="1777.20" x2="1777.20" y1="968.50" y2="1268.25"/>
<line class="grid" x1="2045.00" x2="2045.00" y1="968.50" y2="1268.25"/>
<line class="grid" x1="2312.80" x2="2312.80" y1="968.50" y2="1268.25"/>
<line class="axis" x1="1777.20" x2="2312.80" y1="1268.25" y2="1268.25"/>
<line class="axis" x1="1777.20" x2="1777.20" y1="968.50" y2="1268.25"/>
<polygon points="1777.20,1005.65 1803.98,988.56 1830.76,989.26 1857.54,1000.92 1884.32,998.08 1911.10,994.22 1937.88,996.49 1964.66,1040.81 1991.44,1010.92 2018.22,1014.74 2045.00,998.69 2071.78,1026.10 2098.56,1023.01 2125.34,1031.05 2152.12,1024.18 2178.90,1025.07 2205.68,1021.96 2232.46,1042.57 2259.24,1042.05 2286.02,1054.68 2312.80,1074.10 2312.80,1138.48 2286.02,1118.26 2259.24,1101.10 2232.46,1106.68 2205.68,1076.52 2178.90,1086.11 2152.12,1082.25 2125.34,1087.96 2098.56,1078.96 2071.78,1088.64 2045.00,1046.63 2018.22,1071.62 1991.44,1061.07 1964.66,1098.92 1937.88,1045.16 1911.10,1042.31 1884.32,1047.26 1857.54,1047.94 1830.76,1034.74 1803.98,1059.86 1777.20,1055.97" fill="#CC3311" opacity="0.10"/>
<path d="M1777.20,1030.81 L1803.98,1024.21 L1830.76,1012.00 L1857.54,1024.43 L1884.32,1022.67 L1911.10,1018.27 L1937.88,1020.83 L1964.66,1069.86 L1991.44,1035.99 L2018.22,1043.18 L2045.00,1022.66 L2071.78,1057.37 L2098.56,1050.98 L2125.34,1059.50 L2152.12,1053.22 L2178.90,1055.59 L2205.68,1049.24 L2232.46,1074.63 L2259.24,1071.58 L2286.02,1086.47 L2312.80,1106.29" fill="none" stroke="#CC3311" stroke-width="2.2" stroke-linejoin="round" stroke-linecap="round"/>
<polygon points="1777.20,1222.53 1803.98,1221.63 1830.76,1228.97 1857.54,1219.07 1884.32,1239.45 1911.10,1224.57 1937.88,1232.92 1964.66,1218.57 1991.44,1234.71 2018.22,1206.05 2045.00,1231.41 2071.78,1216.90 2098.56,1211.89 2125.34,1179.56 2152.12,1191.95 2178.90,1196.03 2205.68,1197.75 2232.46,1180.60 2259.24,1191.35 2286.02,1181.61 2312.80,1147.19 2312.80,1206.67 2286.02,1233.37 2259.24,1237.62 2232.46,1235.35 2205.68,1243.22 2178.90,1245.04 2152.12,1240.92 2125.34,1230.70 2098.56,1252.81 2071.78,1256.90 2045.00,1262.99 2018.22,1250.67 1991.44,1264.34 1964.66,1256.46 1937.88,1264.50 1911.10,1261.37 1884.32,1267.36 1857.54,1256.63 1830.76,1263.66 1803.98,1268.25 1777.20,1258.87" fill="#0077BB" opacity="0.10"/>
<path d="M1777.20,1240.70 L1803.98,1246.32 L1830.76,1246.32 L1857.54,1237.85 L1884.32,1253.41 L1911.10,1242.97 L1937.88,1248.71 L1964.66,1237.52 L1991.44,1249.52 L2018.22,1228.36 L2045.00,1247.20 L2071.78,1236.90 L2098.56,1232.35 L2125.34,1205.13 L2152.12,1216.44 L2178.90,1220.53 L2205.68,1220.48 L2232.46,1207.98 L2259.24,1214.49 L2286.02,1207.49 L2312.80,1176.93" fill="none" stroke="#0077BB" stroke-width="2.2" stroke-linejoin="round" stroke-linecap="round"/>
<text class="nlabel" x="2308.80" y="981.50" text-anchor="end">n=89</text>
<rect x="2342.80" y="953.50" width="589.60" height="348.75" fill="white"/>
<line class="grid" x1="2384.80" x2="2920.40" y1="1268.25" y2="1268.25"/>
<line class="grid" x1="2384.80" x2="2920.40" y1="1193.31" y2="1193.31"/>
<line class="grid" x1="2384.80" x2="2920.40" y1="1118.38" y2="1118.38"/>
<line class="grid" x1="2384.80" x2="2920.40" y1="1043.44" y2="1043.44"/>
<line class="grid" x1="2384.80" x2="2920.40" y1="968.50" y2="968.50"/>
<line class="grid" x1="2384.80" x2="2384.80" y1="968.50" y2="1268.25"/>
<line class="grid" x1="2652.60" x2="2652.60" y1="968.50" y2="1268.25"/>
<line class="grid" x1="2920.40" x2="2920.40" y1="968.50" y2="1268.25"/>
<line class="axis" x1="2384.80" x2="2920.40" y1="1268.25" y2="1268.25"/>
<line class="axis" x1="2384.80" x2="2384.80" y1="968.50" y2="1268.25"/>
<polygon points="2384.80,1096.93 2411.58,1106.97 2438.36,1116.23 2465.14,1127.18 2491.92,1125.35 2518.70,1128.91 2545.48,1128.98 2572.26,1127.27 2599.04,1127.29 2625.82,1130.69 2652.60,1129.21 2679.38,1116.00 2706.16,1113.13 2732.94,1110.27 2759.72,1105.02 2786.50,1110.49 2813.28,1113.74 2840.06,1134.74 2866.84,1137.87 2893.62,1145.80 2920.40,1153.26 2920.40,1209.99 2893.62,1204.11 2866.84,1197.50 2840.06,1193.62 2813.28,1175.81 2786.50,1172.33 2759.72,1167.56 2732.94,1172.01 2706.16,1175.22 2679.38,1177.34 2652.60,1188.37 2625.82,1191.07 2599.04,1188.41 2572.26,1188.29 2545.48,1189.01 2518.70,1189.48 2491.92,1186.71 2465.14,1187.03 2438.36,1177.24 2411.58,1167.50 2384.80,1158.30" fill="#CC3311" opacity="0.10"/>
<path d="M2384.80,1127.62 L2411.58,1137.24 L2438.36,1146.73 L2465.14,1157.11 L2491.92,1156.03 L2518.70,1159.19 L2545.48,1158.99 L2572.26,1157.78 L2599.04,1157.85 L2625.82,1160.88 L2652.60,1158.79 L2679.38,1146.67 L2706.16,1144.17 L2732.94,1141.14 L2759.72,1136.29 L2786.50,1141.41 L2813.28,1144.78 L2840.06,1164.18 L2866.84,1167.68 L2893.62,1174.96 L2920.40,1181.63" fill="none" stroke="#CC3311" stroke-width="2.2" stroke-linejoin="round" stroke-linecap="round"/>
<polygon points="2384.80,1133.56 2411.58,1119.24 2438.36,1103.28 2465.14,1093.94 2491.92,1083.27 2518.70,1065.03 2545.48,1073.75 2572.26,1084.89 2599.04,1089.11 2625.82,1083.25 2652.60,1098.02 2679.38,1111.94 2706.16,1116.82 2732.94,1111.07 2759.72,1107.37 2786.50,1106.66 2813.28,1101.15 2840.06,1077.98 2866.84,1074.73 2893.62,1061.37 2920.40,1060.75 2920.40,1121.97 2893.62,1122.44 2866.84,1137.63 2840.06,1138.56 2813.28,1163.89 2786.50,1168.22 2759.72,1169.80 2732.94,1172.15 2706.16,1178.94 2679.38,1173.58 2652.60,1158.54 2625.82,1145.96 2599.04,1152.49 2572.26,1147.55 2545.48,1134.71 2518.70,1128.21 2491.92,1145.67 2465.14,1156.28 2438.36,1164.59 2411.58,1179.75 2384.80,1193.02" fill="#0077BB" opacity="0.10"/>
<path d="M2384.80,1163.29 L2411.58,1149.50 L2438.36,1133.94 L2465.14,1125.11 L2491.92,1114.47 L2518.70,1096.62 L2545.48,1104.23 L2572.26,1116.22 L2599.04,1120.80 L2625.82,1114.60 L2652.60,1128.28 L2679.38,1142.76 L2706.16,1147.88 L2732.94,1141.61 L2759.72,1138.58 L2786.50,1137.44 L2813.28,1132.52 L2840.06,1108.27 L2866.84,1106.18 L2893.62,1091.90 L2920.40,1091.36" fill="none" stroke="#0077BB" stroke-width="2.2" stroke-linejoin="round" stroke-linecap="round"/>
<text class="nlabel" x="2916.40" y="981.50" text-anchor="end">n=89</text>
<rect x="2950.40" y="953.50" width="589.60" height="348.75" fill="white"/>
<line class="grid" x1="2992.40" x2="3528.00" y1="1268.25" y2="1268.25"/>
<line class="grid" x1="2992.40" x2="3528.00" y1="1193.31" y2="1193.31"/>
<line class="grid" x1="2992.40" x2="3528.00" y1="1118.38" y2="1118.38"/>
<line class="grid" x1="2992.40" x2="3528.00" y1="1043.44" y2="1043.44"/>
<line class="grid" x1="2992.40" x2="3528.00" y1="968.50" y2="968.50"/>
<line class="grid" x1="2992.40" x2="2992.40" y1="968.50" y2="1268.25"/>
<line class="grid" x1="3260.20" x2="3260.20" y1="968.50" y2="1268.25"/>
<line class="grid" x1="3528.00" x2="3528.00" y1="968.50" y2="1268.25"/>
<line class="axis" x1="2992.40" x2="3528.00" y1="1268.25" y2="1268.25"/>
<line class="axis" x1="2992.40" x2="2992.40" y1="968.50" y2="1268.25"/>
<polygon points="2992.40,1153.26 3010.25,1165.89 3028.11,1180.57 3045.96,1171.66 3063.81,1165.06 3081.67,1161.66 3099.52,1162.84 3117.37,1167.69 3135.23,1171.02 3153.08,1174.16 3170.93,1175.96 3188.79,1186.55 3206.64,1177.09 3224.49,1180.14 3242.35,1186.56 3260.20,1176.28 3278.05,1163.71 3295.91,1161.26 3313.76,1157.15 3331.61,1165.77 3349.47,1169.20 3367.32,1167.56 3385.17,1167.74 3403.03,1170.74 3420.88,1165.85 3438.73,1160.32 3456.59,1161.12 3474.44,1157.09 3492.29,1164.20 3510.15,1170.05 3528.00,1170.36 3528.00,1223.48 3510.15,1223.11 3492.29,1218.85 3474.44,1213.84 3456.59,1216.28 3438.73,1216.13 3420.88,1219.63 3403.03,1223.63 3385.17,1221.78 3367.32,1222.23 3349.47,1222.75 3331.61,1219.58 3313.76,1213.64 3295.91,1216.54 3278.05,1217.86 3260.20,1227.39 3242.35,1235.70 3224.49,1230.94 3206.64,1229.14 3188.79,1234.76 3170.93,1228.51 3153.08,1225.06 3135.23,1224.16 3117.37,1221.02 3099.52,1218.46 3081.67,1216.82 3063.81,1219.07 3045.96,1224.33 3028.11,1231.72 3010.25,1219.59 2992.40,1209.99" fill="#CC3311" opacity="0.10"/>
<path d="M2992.40,1181.63 L3010.25,1192.74 L3028.11,1206.14 L3045.96,1197.99 L3063.81,1192.07 L3081.67,1189.24 L3099.52,1190.65 L3117.37,1194.36 L3135.23,1197.59 L3153.08,1199.61 L3170.93,1202.24 L3188.79,1210.66 L3206.64,1203.11 L3224.49,1205.54 L3242.35,1211.13 L3260.20,1201.83 L3278.05,1190.79 L3295.91,1188.90 L3313.76,1185.40 L3331.61,1192.67 L3349.47,1195.97 L3367.32,1194.90 L3385.17,1194.76 L3403.03,1197.19 L3420.88,1192.74 L3438.73,1188.23 L3456.59,1188.70 L3474.44,1185.47 L3492.29,1191.53 L3510.15,1196.58 L3528.00,1196.92" fill="none" stroke="#CC3311" stroke-width="2.2" stroke-linejoin="round" stroke-linecap="round"/>
<polygon points="2992.40,1060.75 3010.25,1063.23 3028.11,1056.46 3045.96,1069.15 3063.81,1071.37 3081.67,1070.97 3099.52,1066.22 3117.37,1063.76 3135.23,1062.00 3153.08,1061.92 3170.93,1054.21 3188.79,1066.87 3206.64,1067.02 3224.49,1069.24 3242.35,1058.24 3260.20,1061.40 3278.05,1070.32 3295.91,1071.90 3313.76,1065.95 3331.61,1064.22 3349.47,1066.77 3367.32,1062.93 3385.17,1063.42 3403.03,1062.44 3420.88,1065.86 3438.73,1074.40 3456.59,1073.52 3474.44,1071.17 3492.29,1058.07 3510.15,1048.39 3528.00,1054.49 3528.00,1115.30 3510.15,1109.28 3492.29,1118.60 3474.44,1133.25 3456.59,1134.67 3438.73,1136.89 3420.88,1126.97 3403.03,1122.85 3385.17,1124.70 3367.32,1124.65 3349.47,1129.16 3331.61,1124.43 3313.76,1127.55 3295.91,1134.27 3278.05,1132.49 3260.20,1122.00 3242.35,1120.31 3224.49,1131.40 3206.64,1129.18 3188.79,1127.30 3170.93,1115.05 3153.08,1122.29 3135.23,1122.75 3117.37,1124.49 3099.52,1126.88 3081.67,1133.45 3063.81,1132.51 3045.96,1130.01 3028.11,1116.97 3010.25,1124.61 2992.40,1121.97" fill="#0077BB" opacity="0.10"/>
<path d="M2992.40,1091.36 L3010.25,1093.92 L3028.11,1086.72 L3045.96,1099.58 L3063.81,1101.94 L3081.67,1102.21 L3099.52,1096.55 L3117.37,1094.13 L3135.23,1092.37 L3153.08,1092.10 L3170.93,1084.63 L3188.79,1097.09 L3206.64,1098.10 L3224.49,1100.32 L3242.35,1089.28 L3260.20,1091.70 L3278.05,1101.40 L3295.91,1103.08 L3313.76,1096.75 L3331.61,1094.33 L3349.47,1097.97 L3367.32,1093.79 L3385.17,1094.06 L3403.03,1092.64 L3420.88,1096.42 L3438.73,1105.64 L3456.59,1104.09 L3474.44,1102.21 L3492.29,1088.33 L3510.15,1078.83 L3528.00,1084.90" fill="none" stroke="#0077BB" stroke-width="2.2" stroke-linejoin="round" stroke-linecap="round"/>
<text class="nlabel" x="3524.00" y="981.50" text-anchor="end">n=89</text>
<text class="row-title" x="486" y="1510.62" text-anchor="end" dominant-baseline="middle">1 agent, 2 patients, inanimate patient (n=51)</text>
<rect x="520.00" y="1336.25" width="589.60" height="348.75" fill="white"/>
<line class="grid" x1="562.00" x2="1097.60" y1="1651.00" y2="1651.00"/>
<text class="tick" x="554.00" y="1655.00" text-anchor="end">0</text>
<line class="grid" x1="562.00" x2="1097.60" y1="1576.06" y2="1576.06"/>
<text class="tick" x="554.00" y="1580.06" text-anchor="end">0.25</text>
<line class="grid" x1="562.00" x2="1097.60" y1="1501.12" y2="1501.12"/>
<text class="tick" x="554.00" y="1505.12" text-anchor="end">0.5</text>
<line class="grid" x1="562.00" x2="1097.60" y1="1426.19" y2="1426.19"/>
<text class="tick" x="554.00" y="1430.19" text-anchor="end">0.75</text>
<line class="grid" x1="562.00" x2="1097.60" y1="1351.25" y2="1351.25"/>
<text class="tick" x="554.00" y="1355.25" text-anchor="end">1</text>
<line class="grid" x1="562.00" x2="562.00" y1="1351.25" y2="1651.00"/>
<text class="tick" x="562.00" y="1671.00" text-anchor="middle">0</text>
<line class="grid" x1="829.80" x2="829.80" y1="1351.25" y2="1651.00"/>
<text class="tick" x="829.80" y="1671.00" text-anchor="middle">0.5</text>
<line class="grid" x1="1097.60" x2="1097.60" y1="1351.25" y2="1651.00"/>
<text class="tick" x="1097.60" y="1671.00" text-anchor="middle">1</text>
<line class="axis" x1="562.00" x2="1097.60" y1="1651.00" y2="1651.00"/>
<line class="axis" x1="562.00" x2="562.00" y1="1351.25" y2="1651.00"/>
<polygon points="562.00,1647.20 615.56,1553.36 669.12,1426.63 722.68,1377.05 776.24,1369.61 829.80,1363.85 883.36,1380.02 936.92,1384.57 990.48,1409.00 1044.04,1437.11 1097.60,1461.35 1097.60,1543.48 1044.04,1514.83 990.48,1484.16 936.92,1454.05 883.36,1448.02 829.80,1422.11 776.24,1423.40 722.68,1441.59 669.12,1499.44 615.56,1610.17 562.00,1651.00" fill="#CC3311" opacity="0.10"/>
<path d="M562.00,1649.59 L615.56,1581.76 L669.12,1463.04 L722.68,1409.32 L776.24,1396.51 L829.80,1392.98 L883.36,1414.02 L936.92,1419.31 L990.48,1446.58 L1044.04,1475.97 L1097.60,1502.42" fill="none" stroke="#CC3311" stroke-width="2.2" stroke-linejoin="round" stroke-linecap="round"/>
<polygon points="562.00,1522.93 615.56,1558.89 669.12,1589.55 722.68,1613.42 776.24,1607.30 829.80,1580.68 883.36,1556.81 936.92,1550.85 990.48,1536.86 1044.04,1536.04 1097.60,1522.31 1097.60,1597.72 1044.04,1607.03 990.48,1609.74 936.92,1620.44 883.36,1623.18 829.80,1639.03 776.24,1646.51 722.68,1651.00 669.12,1639.57 615.56,1622.97 562.00,1596.63" fill="#0077BB" opacity="0.10"/>
<path d="M562.00,1559.78 L615.56,1590.93 L669.12,1614.56 L722.68,1633.37 L776.24,1626.90 L829.80,1609.86 L883.36,1589.99 L936.92,1585.64 L990.48,1573.30 L1044.04,1571.54 L1097.60,1560.02" fill="none" stroke="#0077BB" stroke-width="2.2" stroke-linejoin="round" stroke-linecap="round"/>
<text class="nlabel" x="1093.60" y="1364.25" text-anchor="end">n=51</text>
<rect x="1127.60" y="1336.25" width="589.60" height="348.75" fill="white"/>
<line class="grid" x1="1169.60" x2="1705.20" y1="1651.00" y2="1651.00"/>
<line class="grid" x1="1169.60" x2="1705.20" y1="1576.06" y2="1576.06"/>
<line class="grid" x1="1169.60" x2="1705.20" y1="1501.12" y2="1501.12"/>
<line class="grid" x1="1169.60" x2="1705.20" y1="1426.19" y2="1426.19"/>
<line class="grid" x1="1169.60" x2="1705.20" y1="1351.25" y2="1351.25"/>
<line class="grid" x1="1169.60" x2="1169.60" y1="1351.25" y2="1651.00"/>
<text class="tick" x="1169.60" y="1671.00" text-anchor="middle">0</text>
<line class="grid" x1="1437.40" x2="1437.40" y1="1351.25" y2="1651.00"/>
<text class="tick" x="1437.40" y="1671.00" text-anchor="middle">0.5</text>
<line class="grid" x1="1705.20" x2="1705.20" y1="1351.25" y2="1651.00"/>
<text class="tick" x="1705.20" y="1671.00" text-anchor="middle">1</text>
<line class="axis" x1="1169.60" x2="1705.20" y1="1651.00" y2="1651.00"/>
<line class="axis" x1="1169.60" x2="1169.60" y1="1351.25" y2="1651.00"/>
<polygon points="1169.60,1461.43 1196.38,1462.02 1223.16,1448.15 1249.94,1434.73 1276.72,1435.73 1303.50,1451.42 1330.28,1471.17 1357.06,1467.45 1383.84,1459.01 1410.62,1464.70 1437.40,1440.89 1464.18,1428.32 1490.96,1434.35 1517.74,1433.04 1544.52,1430.41 1571.30,1424.95 1598.08,1409.20 1624.86,1422.07 1651.64,1424.56 1678.42,1409.91 1705.20,1433.39 1705.20,1508.19 1678.42,1480.30 1651.64,1502.72 1624.86,1496.04 1598.08,1479.67 1571.30,1496.27 1544.52,1505.90 1517.74,1510.97 1490.96,1506.50 1464.18,1507.42 1437.40,1515.00 1410.62,1541.01 1383.84,1540.47 1357.06,1541.77 1330.28,1548.52 1303.50,1524.14 1276.72,1514.24 1249.94,1504.72 1223.16,1527.77 1196.38,1556.72 1169.60,1543.58" fill="#CC3311" opacity="0.10"/>
<path d="M1169.60,1502.50 L1196.38,1509.37 L1223.16,1487.96 L1249.94,1469.72 L1276.72,1474.99 L1303.50,1487.78 L1330.28,1509.85 L1357.06,1504.61 L1383.84,1499.74 L1410.62,1502.85 L1437.40,1477.94 L1464.18,1467.87 L1490.96,1470.43 L1517.74,1472.01 L1544.52,1468.15 L1571.30,1460.61 L1598.08,1444.44 L1624.86,1459.05 L1651.64,1463.64 L1678.42,1445.10 L1705.20,1470.79" fill="none" stroke="#CC3311" stroke-width="2.2" stroke-linejoin="round" stroke-linecap="round"/>
<polygon points="1169.60,1522.39 1196.38,1498.41 1223.16,1523.43 1249.94,1541.43 1276.72,1532.32 1303.50,1525.81 1330.28,1490.13 1357.06,1515.24 1383.84,1515.45 1410.62,1532.61 1437.40,1556.33 1464.18,1561.07 1490.96,1562.66 1517.74,1515.02 1544.52,1531.48 1571.30,1552.63 1598.08,1575.07 1624.86,1561.54 1651.64,1531.90 1678.42,1548.20 1705.20,1519.95 1705.20,1591.39 1678.42,1613.23 1651.64,1602.73 1624.86,1624.77 1598.08,1630.80 1571.30,1614.38 1544.52,1600.46 1517.74,1590.21 1490.96,1620.27 1464.18,1624.87 1437.40,1617.98 1410.62,1601.33 1383.84,1592.64 1357.06,1585.83 1330.28,1568.15 1303.50,1593.82 1276.72,1603.02 1249.94,1605.27 1223.16,1597.44 1196.38,1591.14 1169.60,1597.77" fill="#0077BB" opacity="0.10"/>
<path d="M1169.60,1560.08 L1196.38,1544.78 L1223.16,1560.43 L1249.94,1573.35 L1276.72,1567.67 L1303.50,1559.82 L1330.28,1529.14 L1357.06,1550.54 L1383.84,1554.04 L1410.62,1566.97 L1437.40,1587.15 L1464.18,1592.97 L1490.96,1591.46 L1517.74,1552.62 L1544.52,1565.97 L1571.30,1583.50 L1598.08,1602.93 L1624.86,1593.15 L1651.64,1567.32 L1678.42,1580.71 L1705.20,1555.67" fill="none" stroke="#0077BB" stroke-width="2.2" stroke-linejoin="round" stroke-linecap="round"/>
<text class="nlabel" x="1701.20" y="1364.25" text-anchor="end">n=51</text>
<rect x="1735.20" y="1336.25" width="589.60" height="348.75" fill="white"/>
<line class="grid" x1="1777.20" x2="2312.80" y1="1651.00" y2="1651.00"/>
<line class="grid" x1="1777.20" x2="2312.80" y1="1576.06" y2="1576.06"/>
<line class="grid" x1="1777.20" x2="2312.80" y1="1501.12" y2="1501.12"/>
<line class="grid" x1="1777.20" x2="2312.80" y1="1426.19" y2="1426.19"/>
<line class="grid" x1="1777.20" x2="2312.80" y1="1351.25" y2="1351.25"/>
<line class="grid" x1="1777.20" x2="1777.20" y1="1351.25" y2="1651.00"/>
<text class="tick" x="1777.20" y="1671.00" text-anchor="middle">0</text>
<line class="grid" x1="2045.00" x2="2045.00" y1="1351.25" y2="1651.00"/>
<text class="tick" x="2045.00" y="1671.00" text-anchor="middle">0.5</text>
<line class="grid" x1="2312.80" x2="2312.80" y1="1351.25" y2="1651.00"/>
<text class="tick" x="2312.80" y="1671.00" text-anchor="middle">1</text>
<line class="axis" x1="1777.20" x2="2312.80" y1="1651.00" y2="1651.00"/>
<line class="axis" x1="1777.20" x2="1777.20" y1="1351.25" y2="1651.00"/>
<polygon points="1777.20,1420.85 1803.98,1462.29 1830.76,1469.37 1857.54,1483.99 1884.32,1455.83 1911.10,1417.88 1937.88,1407.60 1964.66,1430.31 1991.44,1429.72 2018.22,1434.03 2045.00,1419.39 2071.78,1419.63 2098.56,1435.45 2125.34,1440.53 2152.12,1451.93 2178.90,1428.84 2205.68,1423.90 2232.46,1401.72 2259.24,1416.54 2286.02,1412.68 2312.80,1429.58 2312.80,1502.76 2286.02,1484.97 2259.24,1493.00 2232.46,1470.95 2205.68,1500.94 2178.90,1501.68 2152.12,1526.74 2125.34,1519.32 2098.56,1511.39 2071.78,1498.24 2045.00,1492.93 2018.22,1508.06 1991.44,1510.97 1964.66,1503.09 1937.88,1481.51 1911.10,1487.87 1884.32,1538.75 1857.54,1557.66 1830.76,1549.36 1803.98,1566.94 1777.20,1495.12" fill="#CC3311" opacity="0.10"/>
<path d="M1777.20,1457.98 L1803.98,1514.61 L1830.76,1509.37 L1857.54,1520.82 L1884.32,1497.29 L1911.10,1452.87 L1937.88,1444.55 L1964.66,1466.70 L1991.44,1470.34 L2018.22,1471.05 L2045.00,1456.16 L2071.78,1458.93 L2098.56,1473.42 L2125.34,1479.93 L2152.12,1489.33 L2178.90,1465.26 L2205.68,1462.42 L2232.46,1436.34 L2259.24,1454.77 L2286.02,1448.82 L2312.80,1466.17" fill="none" stroke="#CC3311" stroke-width="2.2" stroke-linejoin="round" stroke-linecap="round"/>
<polygon points="1777.20,1542.80 1803.98,1502.60 1830.76,1524.74 1857.54,1524.99 1884.32,1503.30 1911.10,1544.82 1937.88,1545.49 1964.66,1548.99 1991.44,1558.84 2018.22,1518.97 2045.00,1528.19 2071.78,1548.34 2098.56,1548.20 2125.34,1541.84 2152.12,1515.73 2178.90,1548.17 2205.68,1530.86 2232.46,1570.60 2259.24,1563.24 2286.02,1598.28 2312.80,1565.67 2312.80,1625.12 2286.02,1643.56 2259.24,1623.96 2232.46,1628.32 2205.68,1602.86 2178.90,1614.29 2152.12,1588.04 2125.34,1609.85 2098.56,1614.47 2071.78,1617.93 2045.00,1597.76 2018.22,1589.56 1991.44,1624.87 1964.66,1611.45 1937.88,1614.81 1911.10,1610.40 1884.32,1582.16 1857.54,1594.69 1830.76,1597.63 1803.98,1600.44 1777.20,1612.03" fill="#0077BB" opacity="0.10"/>
<path d="M1777.20,1577.41 L1803.98,1551.52 L1830.76,1561.18 L1857.54,1559.84 L1884.32,1542.73 L1911.10,1577.61 L1937.88,1580.15 L1964.66,1580.22 L1991.44,1591.86 L2018.22,1554.27 L2045.00,1562.97 L2071.78,1583.13 L2098.56,1581.33 L2125.34,1575.85 L2152.12,1551.88 L2178.90,1581.23 L2205.68,1566.86 L2232.46,1599.46 L2259.24,1593.60 L2286.02,1620.92 L2312.80,1595.39" fill="none" stroke="#0077BB" stroke-width="2.2" stroke-linejoin="round" stroke-linecap="round"/>
<text class="nlabel" x="2308.80" y="1364.25" text-anchor="end">n=51</text>
<rect x="2342.80" y="1336.25" width="589.60" height="348.75" fill="white"/>
<line class="grid" x1="2384.80" x2="2920.40" y1="1651.00" y2="1651.00"/>
<line class="grid" x1="2384.80" x2="2920.40" y1="1576.06" y2="1576.06"/>
<line class="grid" x1="2384.80" x2="2920.40" y1="1501.12" y2="1501.12"/>
<line class="grid" x1="2384.80" x2="2920.40" y1="1426.19" y2="1426.19"/>
<line class="grid" x1="2384.80" x2="2920.40" y1="1351.25" y2="1351.25"/>
<line class="grid" x1="2384.80" x2="2384.80" y1="1351.25" y2="1651.00"/>
<text class="tick" x="2384.80" y="1671.00" text-anchor="middle">0</text>
<line class="grid" x1="2652.60" x2="2652.60" y1="1351.25" y2="1651.00"/>
<text class="tick" x="2652.60" y="1671.00" text-anchor="middle">0.5</text>
<line class="grid" x1="2920.40" x2="2920.40" y1="1351.25" y2="1651.00"/>
<text class="tick" x="2920.40" y="1671.00" text-anchor="middle">1</text>
<line class="axis" x1="2384.80" x2="2920.40" y1="1651.00" y2="1651.00"/>
<line class="axis" x1="2384.80" x2="2384.80" y1="1351.25" y2="1651.00"/>
<polygon points="2384.80,1437.52 2411.58,1443.38 2438.36,1440.63 2465.14,1439.51 2491.92,1453.85 2518.70,1455.44 2545.48,1445.55 2572.26,1454.60 2599.04,1462.87 2625.82,1479.72 2652.60,1482.51 2679.38,1487.22 2706.16,1487.99 2732.94,1485.85 2759.72,1484.82 2786.50,1503.12 2813.28,1511.87 2840.06,1508.23 2866.84,1505.17 2893.62,1501.10 2920.40,1509.31 2920.40,1588.63 2893.62,1579.67 2866.84,1585.95 2840.06,1587.12 2813.28,1590.77 2786.50,1583.53 2759.72,1564.92 2732.94,1569.30 2706.16,1569.27 2679.38,1569.57 2652.60,1562.76 2625.82,1562.03 2599.04,1545.96 2572.26,1537.54 2545.48,1529.43 2518.70,1537.88 2491.92,1536.17 2465.14,1520.66 2438.36,1521.41 2411.58,1525.25 2384.80,1519.75" fill="#CC3311" opacity="0.10"/>
<path d="M2384.80,1478.63 L2411.58,1484.32 L2438.36,1481.02 L2465.14,1480.08 L2491.92,1495.01 L2518.70,1496.66 L2545.48,1487.49 L2572.26,1496.07 L2599.04,1504.42 L2625.82,1520.87 L2652.60,1522.64 L2679.38,1528.40 L2706.16,1528.63 L2732.94,1527.57 L2759.72,1524.87 L2786.50,1543.33 L2813.28,1551.32 L2840.06,1547.67 L2866.84,1545.56 L2893.62,1540.39 L2920.40,1548.97" fill="none" stroke="#CC3311" stroke-width="2.2" stroke-linejoin="round" stroke-linecap="round"/>
<polygon points="2384.80,1545.06 2411.58,1541.82 2438.36,1535.16 2465.14,1524.81 2491.92,1507.43 2518.70,1497.38 2545.48,1492.96 2572.26,1488.53 2599.04,1483.66 2625.82,1488.10 2652.60,1494.88 2679.38,1505.91 2706.16,1519.68 2732.94,1524.70 2759.72,1497.90 2786.50,1470.65 2813.28,1455.55 2840.06,1456.73 2866.84,1451.16 2893.62,1461.81 2920.40,1449.50 2920.40,1531.12 2893.62,1543.02 2866.84,1535.34 2840.06,1537.99 2813.28,1538.94 2786.50,1552.52 2759.72,1576.06 2732.94,1599.80 2706.16,1595.89 2679.38,1584.98 2652.60,1574.14 2625.82,1568.93 2599.04,1566.32 2572.26,1568.73 2545.48,1573.48 2518.70,1575.17 2491.92,1586.27 2465.14,1600.40 2438.36,1608.15 2411.58,1612.07 2384.80,1613.73" fill="#0077BB" opacity="0.10"/>
<path d="M2384.80,1579.39 L2411.58,1576.94 L2438.36,1571.65 L2465.14,1562.60 L2491.92,1546.85 L2518.70,1536.27 L2545.48,1533.22 L2572.26,1528.63 L2599.04,1524.99 L2625.82,1528.51 L2652.60,1534.51 L2679.38,1545.44 L2706.16,1557.78 L2732.94,1562.25 L2759.72,1536.98 L2786.50,1511.59 L2813.28,1497.25 L2840.06,1497.36 L2866.84,1493.25 L2893.62,1502.42 L2920.40,1490.31" fill="none" stroke="#0077BB" stroke-width="2.2" stroke-linejoin="round" stroke-linecap="round"/>
<text class="nlabel" x="2916.40" y="1364.25" text-anchor="end">n=51</text>
<rect x="2950.40" y="1336.25" width="589.60" height="348.75" fill="white"/>
<line class="grid" x1="2992.40" x2="3528.00" y1="1651.00" y2="1651.00"/>
<line class="grid" x1="2992.40" x2="3528.00" y1="1576.06" y2="1576.06"/>
<line class="grid" x1="2992.40" x2="3528.00" y1="1501.12" y2="1501.12"/>
<line class="grid" x1="2992.40" x2="3528.00" y1="1426.19" y2="1426.19"/>
<line class="grid" x1="2992.40" x2="3528.00" y1="1351.25" y2="1351.25"/>
<line class="grid" x1="2992.40" x2="2992.40" y1="1351.25" y2="1651.00"/>
<text class="tick" x="2992.40" y="1671.00" text-anchor="middle">0</text>
<line class="grid" x1="3260.20" x2="3260.20" y1="1351.25" y2="1651.00"/>
<text class="tick" x="3260.20" y="1671.00" text-anchor="middle">0.5</text>
<line class="grid" x1="3528.00" x2="3528.00" y1="1351.25" y2="1651.00"/>
<text class="tick" x="3528.00" y="1671.00" text-anchor="middle">1</text>
<line class="axis" x1="2992.40" x2="3528.00" y1="1651.00" y2="1651.00"/>
<line class="axis" x1="2992.40" x2="2992.40" y1="1351.25" y2="1651.00"/>
<polygon points="2992.40,1509.31 3010.25,1513.72 3028.11,1521.04 3045.96,1537.23 3063.81,1538.43 3081.67,1547.89 3099.52,1548.60 3117.37,1524.57 3135.23,1526.92 3153.08,1535.08 3170.93,1536.17 3188.79,1539.44 3206.64,1531.60 3224.49,1535.86 3242.35,1535.86 3260.20,1540.18 3278.05,1546.75 3295.91,1568.83 3313.76,1560.25 3331.61,1547.54 3349.47,1541.64 3367.32,1542.41 3385.17,1537.55 3403.03,1522.34 3420.88,1533.44 3438.73,1518.61 3456.59,1525.13 3474.44,1527.15 3492.29,1517.89 3510.15,1522.80 3528.00,1529.26 3528.00,1604.65 3510.15,1597.70 3492.29,1596.04 3474.44,1602.52 3456.59,1600.55 3438.73,1596.72 3420.88,1607.75 3403.03,1598.63 3385.17,1611.41 3367.32,1613.82 3349.47,1611.78 3331.61,1615.05 3313.76,1624.90 3295.91,1629.26 3278.05,1617.24 3260.20,1611.59 3242.35,1608.86 3224.49,1607.45 3206.64,1605.59 3188.79,1611.87 3170.93,1609.02 3153.08,1608.00 3135.23,1600.87 3117.37,1599.93 3099.52,1616.57 3081.67,1616.81 3063.81,1610.29 3045.96,1610.08 3028.11,1596.88 3010.25,1591.27 2992.40,1588.63" fill="#CC3311" opacity="0.10"/>
<path d="M2992.40,1548.97 L3010.25,1552.49 L3028.11,1558.96 L3045.96,1573.65 L3063.81,1574.36 L3081.67,1582.35 L3099.52,1582.59 L3117.37,1562.25 L3135.23,1563.90 L3153.08,1571.54 L3170.93,1572.59 L3188.79,1575.65 L3206.64,1568.60 L3224.49,1571.65 L3242.35,1572.36 L3260.20,1575.89 L3278.05,1582.00 L3295.91,1599.04 L3313.76,1592.58 L3331.61,1581.29 L3349.47,1576.71 L3367.32,1578.12 L3385.17,1574.48 L3403.03,1560.49 L3420.88,1570.60 L3438.73,1557.67 L3456.59,1562.84 L3474.44,1564.84 L3492.29,1556.96 L3510.15,1560.25 L3528.00,1566.95" fill="none" stroke="#CC3311" stroke-width="2.2" stroke-linejoin="round" stroke-linecap="round"/>
<polygon points="2992.40,1449.50 3010.25,1456.82 3028.11,1460.78 3045.96,1450.29 3063.81,1461.46 3081.67,1466.36 3099.52,1478.75 3117.37,1473.20 3135.23,1462.80 3153.08,1444.05 3170.93,1429.34 3188.79,1432.55 3206.64,1446.43 3224.49,1429.61 3242.35,1428.34 3260.20,1427.18 3278.05,1440.54 3295.91,1439.35 3313.76,1445.89 3331.61,1448.47 3349.47,1437.60 3367.32,1433.26 3385.17,1431.43 3403.03,1446.90 3420.88,1441.94 3438.73,1451.77 3456.59,1444.75 3474.44,1443.52 3492.29,1442.89 3510.15,1442.21 3528.00,1433.81 3528.00,1515.08 3510.15,1522.66 3492.29,1526.45 3474.44,1525.11 3456.59,1524.82 3438.73,1534.26 3420.88,1523.40 3403.03,1529.73 3385.17,1511.11 3367.32,1515.15 3349.47,1520.21 3331.61,1530.51 3313.76,1526.73 3295.91,1520.11 3278.05,1523.16 3260.20,1507.83 3242.35,1508.79 3224.49,1510.34 3206.64,1529.49 3188.79,1512.81 3170.93,1511.55 3153.08,1527.17 3135.23,1546.04 3117.37,1555.15 3099.52,1559.23 3081.67,1548.11 3063.81,1541.74 3045.96,1534.80 3028.11,1542.65 3010.25,1537.91 2992.40,1531.12" fill="#0077BB" opacity="0.10"/>
<path d="M2992.40,1490.31 L3010.25,1497.36 L3028.11,1501.71 L3045.96,1492.54 L3063.81,1501.60 L3081.67,1507.24 L3099.52,1518.99 L3117.37,1514.17 L3135.23,1504.42 L3153.08,1485.61 L3170.93,1470.44 L3188.79,1472.68 L3206.64,1487.96 L3224.49,1469.97 L3242.35,1468.56 L3260.20,1467.51 L3278.05,1481.85 L3295.91,1479.73 L3313.76,1486.31 L3331.61,1489.49 L3349.47,1478.91 L3367.32,1474.21 L3385.17,1471.27 L3403.03,1488.31 L3420.88,1482.67 L3438.73,1493.01 L3456.59,1484.79 L3474.44,1484.32 L3492.29,1484.67 L3510.15,1482.43 L3528.00,1474.44" fill="none" stroke="#0077BB" stroke-width="2.2" stroke-linejoin="round" stroke-linecap="round"/>
<text class="nlabel" x="3524.00" y="1364.25" text-anchor="end">n=51</text>
<text class="axis-label" x="2030.0" y="1745" text-anchor="middle">Relative time within each window</text>
<text class="axis-label" x="44" y="936.5" text-anchor="middle" transform="rotate(-90 44 936.5)">Proportion of looks</text>
</svg>