<svg xmlns="http://www.w3.org/2000/svg" width="1920" height="1320" viewBox="0 0 1920 1320">
<image href="https://raw.githubusercontent.com/mkurg/koryak/main/stimuli/Animate-animate%20centered%20and%20flipped/pour-2-2-r.png" x="0" y="0" width="1920" height="1080" preserveAspectRatio="none"/>
<rect x="0" y="0" width="1920" height="1080" fill="none" stroke="#111" stroke-width="2"/>
<rect x="0" y="1080" width="1920" height="240" fill="#f7f7f7"/>
<rect x="970.0" y="100.0" width="850" height="850" fill="none" stroke="#00B8D9" stroke-width="6" stroke-dasharray="18 12"/>
<rect x="982.0" y="62.0" width="102.0" height="38" rx="6" fill="white" fill-opacity="0.86" stroke="#00B8D9" stroke-width="3"/>
<text x="992.0" y="88.0" font-family="Arial, Helvetica, sans-serif" font-size="24" font-weight="700" fill="#111">AGENT</text>
<rect x="40.0" y="100.0" width="850" height="850" fill="none" stroke="#FF3B8A" stroke-width="6" stroke-dasharray="18 12"/>
<rect x="52.0" y="62.0" width="134.0" height="38" rx="6" fill="white" fill-opacity="0.86" stroke="#FF3B8A" stroke-width="3"/>
<text x="62.0" y="88.0" font-family="Arial, Helvetica, sans-serif" font-size="24" font-weight="700" fill="#111">PATIENT</text>
<polyline points="853.1,416.2 837.1,414.7 1276.3,507.3 1321.9,406.4 1320.6,374.0 1507.5,387.3 1573.5,309.0 1531.9,377.0 1316.4,368.6 814.6,366.3 1352.7,482.9 1512.8,456.1 1530.7,372.9 1305.7,368.9 1455.2,443.9 1373.5,552.8 1526.8,375.8 1529.8,346.6 1317.7,356.2 1519.5,357.1 1047.7,421.4 842.0,392.8 1214.1,539.0 1396.1,329.1 1356.9,371.6 764.7,409.4 814.1,402.2 766.5,755.2 722.7,799.1 674.3,391.9 643.6,384.8 1224.6,507.6 1328.8,451.9 1407.4,522.6 1515.3,389.8 1287.6,375.4 1228.2,448.4 1127.6,527.1 817.6,393.8" fill="none" stroke="#111" stroke-width="4" stroke-opacity="0.36" stroke-linejoin="round"/>
<circle cx="853.1" cy="416.2" r="17.4" fill="white" fill-opacity="0.84"/>
<circle cx="853.1" cy="416.2" r="14.4" fill="#005DFF" fill-opacity="0.66" stroke="#111" stroke-width="2.5"/>
<text x="853.1" y="423.2" text-anchor="middle" font-family="Arial, Helvetica, sans-serif" font-size="21" font-weight="800" fill="white" stroke="#111" stroke-width="3" paint-order="stroke">1</text>
<circle cx="837.1" cy="414.7" r="15.7" fill="white" fill-opacity="0.84"/>
<circle cx="837.1" cy="414.7" r="12.7" fill="#005DFF" fill-opacity="0.66" stroke="#111" stroke-width="2.5"/>
<text x="837.1" y="421.7" text-anchor="middle" font-family="Arial, Helvetica, sans-serif" font-size="21" font-weight="800" fill="white" stroke="#111" stroke-width="3" paint-order="stroke">2</text>
<circle cx="1276.3" cy="507.3" r="16.7" fill="white" fill-opacity="0.84"/>
<circle cx="1276.3" cy="507.3" r="13.7" fill="#005DFF" fill-opacity="0.66" stroke="#111" stroke-width="2.5"/>
<text x="1276.3" y="514.3" text-anchor="middle" font-family="Arial, Helvetica, sans-serif" font-size="21" font-weight="800" fill="white" stroke="#111" stroke-width="3" paint-order="stroke">3</text>
<circle cx="1321.9" cy="406.4" r="18.1" fill="white" fill-opacity="0.84"/>
<circle cx="1321.9" cy="406.4" r="15.1" fill="#005DFF" fill-opacity="0.66" stroke="#111" stroke-width="2.5"/>
<text x="1321.9" y="413.4" text-anchor="middle" font-family="Arial, Helvetica, sans-serif" font-size="21" font-weight="800" fill="white" stroke="#111" stroke-width="3" paint-order="stroke">4</text>
<circle cx="1320.6" cy="374.0" r="16.4" fill="white" fill-opacity="0.84"/>
<circle cx="1320.6" cy="374.0" r="13.4" fill="#005DFF" fill-opacity="0.66" stroke="#111" stroke-width="2.5"/>
<text x="1320.6" y="381.0" text-anchor="middle" font-family="Arial, Helvetica, sans-serif" font-size="21" font-weight="800" fill="white" stroke="#111" stroke-width="3" paint-order="stroke">5</text>
<circle cx="1507.5" cy="387.3" r="18.0" fill="white" fill-opacity="0.84"/>
<circle cx="1507.5" cy="387.3" r="15.0" fill="#005DFF" fill-opacity="0.66" stroke="#111" stroke-width="2.5"/>
<text x="1507.5" y="394.3" text-anchor="middle" font-family="Arial, Helvetica, sans-serif" font-size="21" font-weight="800" fill="white" stroke="#111" stroke-width="3" paint-order="stroke">6</text>
<circle cx="1573.5" cy="309.0" r="11.5" fill="white" fill-opacity="0.84"/>
<circle cx="1573.5" cy="309.0" r="8.5" fill="#005DFF" fill-opacity="0.66" stroke="#111" stroke-width="2.5"/>
<text x="1573.5" y="316.0" text-anchor="middle" font-family="Arial, Helvetica, sans-serif" font-size="21" font-weight="800" fill="white" stroke="#111" stroke-width="3" paint-order="stroke">7</text>
<circle cx="1531.9" cy="377.0" r="19.0" fill="white" fill-opacity="0.84"/>
<circle cx="1531.9" cy="377.0" r="16.0" fill="#005DFF" fill-opacity="0.66" stroke="#111" stroke-width="2.5"/>
<text x="1531.9" y="384.0" text-anchor="middle" font-family="Arial, Helvetica, sans-serif" font-size="21" font-weight="800" fill="white" stroke="#111" stroke-width="3" paint-order="stroke">8</text>
<circle cx="1316.4" cy="368.6" r="17.6" fill="white" fill-opacity="0.84"/>
<circle cx="1316.4" cy="368.6" r="14.6" fill="#005DFF" fill-opacity="0.66" stroke="#111" stroke-width="2.5"/>
<text x="1316.4" y="375.6" text-anchor="middle" font-family="Arial, Helvetica, sans-serif" font-size="21" font-weight="800" fill="white" stroke="#111" stroke-width="3" paint-order="stroke">9</text>
<circle cx="814.6" cy="366.3" r="15.6" fill="white" fill-opacity="0.84"/>
<circle cx="814.6" cy="366.3" r="12.6" fill="#005DFF" fill-opacity="0.66" stroke="#111" stroke-width="2.5"/>
<text x="814.6" y="373.3" text-anchor="middle" font-family="Arial, Helvetica, sans-serif" font-size="21" font-weight="800" fill="white" stroke="#111" stroke-width="3" paint-order="stroke">10</text>
<circle cx="1352.7" cy="482.9" r="16.9" fill="white" fill-opacity="0.84"/>
<circle cx="1352.7" cy="482.9" r="13.9" fill="#005DFF" fill-opacity="0.66" stroke="#111" stroke-width="2.5"/>
<text x="1352.7" y="489.9" text-anchor="middle" font-family="Arial, Helvetica, sans-serif" font-size="21" font-weight="800" fill="white" stroke="#111" stroke-width="3" paint-order="stroke">11</text>
<circle cx="1512.8" cy="456.1" r="15.4" fill="white" fill-opacity="0.84"/>
<circle cx="1512.8" cy="456.1" r="12.4" fill="#005DFF" fill-opacity="0.66" stroke="#111" stroke-width="2.5"/>
<text x="1512.8" y="463.1" text-anchor="middle" font-family="Arial, Helvetica, sans-serif" font-size="21" font-weight="800" fill="white" stroke="#111" stroke-width="3" paint-order="stroke">12</text>
<circle cx="1530.7" cy="372.9" r="15.6" fill="white" fill-opacity="0.84"/>
<circle cx="1530.7" cy="372.9" r="12.6" fill="#005DFF" fill-opacity="0.66" stroke="#111" stroke-width="2.5"/>
<text x="1530.7" y="379.9" text-anchor="middle" font-family="Arial, Helvetica, sans-serif" font-size="21" font-weight="800" fill="white" stroke="#111" stroke-width="3" paint-order="stroke">13</text>
<circle cx="1305.7" cy="368.9" r="16.9" fill="white" fill-opacity="0.84"/>
<circle cx="1305.7" cy="368.9" r="13.9" fill="#005DFF" fill-opacity="0.66" stroke="#111" stroke-width="2.5"/>
<text x="1305.7" y="375.9" text-anchor="middle" font-family="Arial, Helvetica, sans-serif" font-size="21" font-weight="800" fill="white" stroke="#111" stroke-width="3" paint-order="stroke">14</text>
<circle cx="1455.2" cy="443.9" r="15.6" fill="white" fill-opacity="0.84"/>
<circle cx="1455.2" cy="443.9" r="12.6" fill="#005DFF" fill-opacity="0.66" stroke="#111" stroke-width="2.5"/>
<text x="1455.2" y="450.9" text-anchor="middle" font-family="Arial, Helvetica, sans-serif" font-size="21" font-weight="800" fill="white" stroke="#111" stroke-width="3" paint-order="stroke">15</text>
<circle cx="1373.5" cy="552.8" r="15.6" fill="white" fill-opacity="0.84"/>
<circle cx="1373.5" cy="552.8" r="12.6" fill="#005DFF" fill-opacity="0.66" stroke="#111" stroke-width="2.5"/>
<text x="1373.5" y="559.8" text-anchor="middle" font-family="Arial, Helvetica, sans-serif" font-size="21" font-weight="800" fill="white" stroke="#111" stroke-width="3" paint-order="stroke">16</text>
<circle cx="1526.8" cy="375.8" r="17.7" fill="white" fill-opacity="0.84"/>
<circle cx="1526.8" cy="375.8" r="14.7" fill="#005DFF" fill-opacity="0.66" stroke="#111" stroke-width="2.5"/>
<text x="1526.8" y="382.8" text-anchor="middle" font-family="Arial, Helvetica, sans-serif" font-size="21" font-weight="800" fill="white" stroke="#111" stroke-width="3" paint-order="stroke">17</text>
<circle cx="1529.8" cy="346.6" r="17.8" fill="white" fill-opacity="0.84"/>
<circle cx="1529.8" cy="346.6" r="14.8" fill="#005DFF" fill-opacity="0.66" stroke="#111" stroke-width="2.5"/>
<text x="1529.8" y="353.6" text-anchor="middle" font-family="Arial, Helvetica, sans-serif" font-size="21" font-weight="800" fill="white" stroke="#111" stroke-width="3" paint-order="stroke">18</text>
<circle cx="1317.7" cy="356.2" r="19.8" fill="white" fill-opacity="0.84"/>
<circle cx="1317.7" cy="356.2" r="16.8" fill="#005DFF" fill-opacity="0.66" stroke="#111" stroke-width="2.5"/>
<text x="1317.7" y="363.2" text-anchor="middle" font-family="Arial, Helvetica, sans-serif" font-size="21" font-weight="800" fill="white" stroke="#111" stroke-width="3" paint-order="stroke">19</text>
<circle cx="1519.5" cy="357.1" r="18.6" fill="white" fill-opacity="0.84"/>
<circle cx="1519.5" cy="357.1" r="15.6" fill="#005DFF" fill-opacity="0.66" stroke="#111" stroke-width="2.5"/>
<text x="1519.5" y="364.1" text-anchor="middle" font-family="Arial, Helvetica, sans-serif" font-size="21" font-weight="800" fill="white" stroke="#111" stroke-width="3" paint-order="stroke">20</text>
<circle cx="1047.7" cy="421.4" r="15.7" fill="white" fill-opacity="0.84"/>
<circle cx="1047.7" cy="421.4" r="12.7" fill="#005DFF" fill-opacity="0.66" stroke="#111" stroke-width="2.5"/>
<text x="1047.7" y="428.4" text-anchor="middle" font-family="Arial, Helvetica, sans-serif" font-size="21" font-weight="800" fill="white" stroke="#111" stroke-width="3" paint-order="stroke">21</text>
<circle cx="842.0" cy="392.8" r="18.3" fill="white" fill-opacity="0.84"/>
<circle cx="842.0" cy="392.8" r="15.3" fill="#005DFF" fill-opacity="0.66" stroke="#111" stroke-width="2.5"/>
<text x="842.0" y="399.8" text-anchor="middle" font-family="Arial, Helvetica, sans-serif" font-size="21" font-weight="800" fill="white" stroke="#111" stroke-width="3" paint-order="stroke">22</text>
<circle cx="1214.1" cy="539.0" r="15.0" fill="white" fill-opacity="0.84"/>
<circle cx="1214.1" cy="539.0" r="12.0" fill="#005DFF" fill-opacity="0.66" stroke="#111" stroke-width="2.5"/>
<text x="1214.1" y="546.0" text-anchor="middle" font-family="Arial, Helvetica, sans-serif" font-size="21" font-weight="800" fill="white" stroke="#111" stroke-width="3" paint-order="stroke">23</text>
<circle cx="1396.1" cy="329.1" r="11.9" fill="white" fill-opacity="0.84"/>
<circle cx="1396.1" cy="329.1" r="8.9" fill="#005DFF" fill-opacity="0.66" stroke="#111" stroke-width="2.5"/>
<text x="1396.1" y="336.1" text-anchor="middle" font-family="Arial, Helvetica, sans-serif" font-size="21" font-weight="800" fill="white" stroke="#111" stroke-width="3" paint-order="stroke">24</text>
<circle cx="1356.9" cy="371.6" r="14.2" fill="white" fill-opacity="0.84"/>
<circle cx="1356.9" cy="371.6" r="11.2" fill="#005DFF" fill-opacity="0.66" stroke="#111" stroke-width="2.5"/>
<text x="1356.9" y="378.6" text-anchor="middle" font-family="Arial, Helvetica, sans-serif" font-size="21" font-weight="800" fill="white" stroke="#111" stroke-width="3" paint-order="stroke">25</text>
<circle cx="764.7" cy="409.4" r="17.0" fill="white" fill-opacity="0.84"/>
<circle cx="764.7" cy="409.4" r="14.0" fill="#005DFF" fill-opacity="0.66" stroke="#111" stroke-width="2.5"/>
<text x="764.7" y="416.4" text-anchor="middle" font-family="Arial, Helvetica, sans-serif" font-size="21" font-weight="800" fill="white" stroke="#111" stroke-width="3" paint-order="stroke">26</text>
<circle cx="814.1" cy="402.2" r="16.0" fill="white" fill-opacity="0.84"/>
<circle cx="814.1" cy="402.2" r="13.0" fill="#005DFF" fill-opacity="0.66" stroke="#111" stroke-width="2.5"/>
<text x="814.1" y="409.2" text-anchor="middle" font-family="Arial, Helvetica, sans-serif" font-size="21" font-weight="800" fill="white" stroke="#111" stroke-width="3" paint-order="stroke">27</text>
<circle cx="766.5" cy="755.2" r="16.2" fill="white" fill-opacity="0.84"/>
<circle cx="766.5" cy="755.2" r="13.2" fill="#005DFF" fill-opacity="0.66" stroke="#111" stroke-width="2.5"/>
<text x="766.5" y="762.2" text-anchor="middle" font-family="Arial, Helvetica, sans-serif" font-size="21" font-weight="800" fill="white" stroke="#111" stroke-width="3" paint-order="stroke">28</text>
<circle cx="722.7" cy="799.1" r="15.6" fill="white" fill-opacity="0.84"/>
<circle cx="722.7" cy="799.1" r="12.6" fill="#005DFF" fill-opacity="0.66" stroke="#111" stroke-width="2.5"/>
<text x="722.7" y="806.1" text-anchor="middle" font-family="Arial, Helvetica, sans-serif" font-size="21" font-weight="800" fill="white" stroke="#111" stroke-width="3" paint-order="stroke">29</text>
<circle cx="674.3" cy="391.9" r="16.5" fill="white" fill-opacity="0.84"/>
<circle cx="674.3" cy="391.9" r="13.5" fill="#005DFF" fill-opacity="0.66" stroke="#111" stroke-width="2.5"/>
<text x="674.3" y="398.9" text-anchor="middle" font-family="Arial, Helvetica, sans-serif" font-size="21" font-weight="800" fill="white" stroke="#111" stroke-width="3" paint-order="stroke">30</text>
<circle cx="643.6" cy="384.8" r="14.7" fill="white" fill-opacity="0.84"/>
<circle cx="643.6" cy="384.8" r="11.7" fill="#005DFF" fill-opacity="0.66" stroke="#111" stroke-width="2.5"/>
<text x="643.6" y="391.8" text-anchor="middle" font-family="Arial, Helvetica, sans-serif" font-size="21" font-weight="800" fill="white" stroke="#111" stroke-width="3" paint-order="stroke">31</text>
<circle cx="1224.6" cy="507.6" r="15.1" fill="white" fill-opacity="0.84"/>
<circle cx="1224.6" cy="507.6" r="12.1" fill="#005DFF" fill-opacity="0.66" stroke="#111" stroke-width="2.5"/>
<text x="1224.6" y="514.6" text-anchor="middle" font-family="Arial, Helvetica, sans-serif" font-size="21" font-weight="800" fill="white" stroke="#111" stroke-width="3" paint-order="stroke">32</text>
<circle cx="1328.8" cy="451.9" r="14.7" fill="white" fill-opacity="0.84"/>
<circle cx="1328.8" cy="451.9" r="11.7" fill="#FF8A00" fill-opacity="0.66" stroke="#111" stroke-width="2.5"/>
<text x="1328.8" y="458.9" text-anchor="middle" font-family="Arial, Helvetica, sans-serif" font-size="21" font-weight="800" fill="white" stroke="#111" stroke-width="3" paint-order="stroke">33</text>
<circle cx="1407.4" cy="522.6" r="19.3" fill="white" fill-opacity="0.84"/>
<circle cx="1407.4" cy="522.6" r="16.3" fill="#FF8A00" fill-opacity="0.66" stroke="#111" stroke-width="2.5"/>
<text x="1407.4" y="529.6" text-anchor="middle" font-family="Arial, Helvetica, sans-serif" font-size="21" font-weight="800" fill="white" stroke="#111" stroke-width="3" paint-order="stroke">34</text>
<circle cx="1515.3" cy="389.8" r="17.2" fill="white" fill-opacity="0.84"/>
<circle cx="1515.3" cy="389.8" r="14.2" fill="#FF8A00" fill-opacity="0.66" stroke="#111" stroke-width="2.5"/>
<text x="1515.3" y="396.8" text-anchor="middle" font-family="Arial, Helvetica, sans-serif" font-size="21" font-weight="800" fill="white" stroke="#111" stroke-width="3" paint-order="stroke">35</text>
<circle cx="1287.6" cy="375.4" r="14.4" fill="white" fill-opacity="0.84"/>
<circle cx="1287.6" cy="375.4" r="11.4" fill="#FF8A00" fill-opacity="0.66" stroke="#111" stroke-width="2.5"/>
<text x="1287.6" y="382.4" text-anchor="middle" font-family="Arial, Helvetica, sans-serif" font-size="21" font-weight="800" fill="white" stroke="#111" stroke-width="3" paint-order="stroke">36</text>
<circle cx="1228.2" cy="448.4" r="14.4" fill="white" fill-opacity="0.84"/>
<circle cx="1228.2" cy="448.4" r="11.4" fill="#FF8A00" fill-opacity="0.66" stroke="#111" stroke-width="2.5"/>
<text x="1228.2" y="455.4" text-anchor="middle" font-family="Arial, Helvetica, sans-serif" font-size="21" font-weight="800" fill="white" stroke="#111" stroke-width="3" paint-order="stroke">37</text>
<circle cx="1127.6" cy="527.1" r="16.6" fill="white" fill-opacity="0.84"/>
<circle cx="1127.6" cy="527.1" r="13.6" fill="#FF8A00" fill-opacity="0.66" stroke="#111" stroke-width="2.5"/>
<text x="1127.6" y="534.1" text-anchor="middle" font-family="Arial, Helvetica, sans-serif" font-size="21" font-weight="800" fill="white" stroke="#111" stroke-width="3" paint-order="stroke">38</text>
<circle cx="817.6" cy="393.8" r="17.9" fill="white" fill-opacity="0.84"/>
<circle cx="817.6" cy="393.8" r="14.9" fill="#FF8A00" fill-opacity="0.66" stroke="#111" stroke-width="2.5"/>
<text x="817.6" y="400.8" text-anchor="middle" font-family="Arial, Helvetica, sans-serif" font-size="21" font-weight="800" fill="white" stroke="#111" stroke-width="3" paint-order="stroke">39</text>
<rect x="16" y="1094" width="1120" height="168" rx="8" fill="white" fill-opacity="0.92" stroke="#111" stroke-opacity="0.22"/>
<text x="36.0" y="1128.0" font-family="Arial, Helvetica, sans-serif" font-size="24" font-weight="600" fill="#111">K18 / k18.asc block 24 | pour-2-2-r.png | RT 7828 ms | 39 fixations</text>
<text x="36.0" y="1159.0" font-family="Arial, Helvetica, sans-serif" font-size="24" font-weight="600" fill="#111">numbers show fixation order; dot size shows fixation duration</text>
<circle cx="42" cy="1198" r="11" fill="#005DFF" fill-opacity="0.64" stroke="#111" stroke-width="2"/>
<text x="62.0" y="1206.0" font-family="Arial, Helvetica, sans-serif" font-size="22" font-weight="500" fill="#111">blue: before speech onset</text>
<circle cx="42" cy="1232" r="11" fill="#FF8A00" fill-opacity="0.64" stroke="#111" stroke-width="2"/>
<text x="62.0" y="1240.0" font-family="Arial, Helvetica, sans-serif" font-size="22" font-weight="500" fill="#111">orange: first 2000 ms after onset</text>
</svg>
