<svg xmlns="http://www.w3.org/2000/svg" width="820" height="560" viewBox="0 0 820 560">
<rect width="100%" height="100%" fill="white"/>
<style>
text { font-family: Arial, Helvetica, sans-serif; fill: #222; }
.title { font-size: 20px; font-weight: 700; }
.subtitle { font-size: 13px; fill: #555; }
.axis { stroke: #222; stroke-width: 1; }
.grid { stroke: #dddddd; stroke-width: 1; }
.tick { font-size: 12px; fill: #333; }
.label { font-size: 14px; fill: #222; }
.legend { font-size: 13px; fill: #222; }
</style>
<text class="title" x="421.0" y="28" text-anchor="middle">Direct AVP, inanimate patient</text>
<text class="subtitle" x="421.0" y="47" text-anchor="middle">Linguistic encoding II, RT &lt; 6000 ms, fluent trials; n = 230 trials</text>
<line class="grid" x1="82" x2="760" y1="470.00" y2="470.00"/>
<text class="tick" x="72" y="474.00" text-anchor="end">0.0</text>
<line class="grid" x1="82" x2="760" y1="428.80" y2="428.80"/>
<text class="tick" x="72" y="432.80" text-anchor="end">0.1</text>
<line class="grid" x1="82" x2="760" y1="387.60" y2="387.60"/>
<text class="tick" x="72" y="391.60" text-anchor="end">0.2</text>
<line class="grid" x1="82" x2="760" y1="346.40" y2="346.40"/>
<text class="tick" x="72" y="350.40" text-anchor="end">0.3</text>
<line class="grid" x1="82" x2="760" y1="305.20" y2="305.20"/>
<text class="tick" x="72" y="309.20" text-anchor="end">0.4</text>
<line class="grid" x1="82" x2="760" y1="264.00" y2="264.00"/>
<text class="tick" x="72" y="268.00" text-anchor="end">0.5</text>
<line class="grid" x1="82" x2="760" y1="222.80" y2="222.80"/>
<text class="tick" x="72" y="226.80" text-anchor="end">0.6</text>
<line class="grid" x1="82" x2="760" y1="181.60" y2="181.60"/>
<text class="tick" x="72" y="185.60" text-anchor="end">0.7</text>
<line class="grid" x1="82" x2="760" y1="140.40" y2="140.40"/>
<text class="tick" x="72" y="144.40" text-anchor="end">0.8</text>
<line class="grid" x1="82" x2="760" y1="99.20" y2="99.20"/>
<text class="tick" x="72" y="103.20" text-anchor="end">0.9</text>
<line class="grid" x1="82" x2="760" y1="58.00" y2="58.00"/>
<text class="tick" x="72" y="62.00" text-anchor="end">1.0</text>
<line class="grid" x1="82.00" x2="82.00" y1="58" y2="470"/>
<text class="tick" x="82.00" y="492" text-anchor="middle">0.0</text>
<line class="grid" x1="149.80" x2="149.80" y1="58" y2="470"/>
<text class="tick" x="149.80" y="492" text-anchor="middle">0.1</text>
<line class="grid" x1="217.60" x2="217.60" y1="58" y2="470"/>
<text class="tick" x="217.60" y="492" text-anchor="middle">0.2</text>
<line class="grid" x1="285.40" x2="285.40" y1="58" y2="470"/>
<text class="tick" x="285.40" y="492" text-anchor="middle">0.3</text>
<line class="grid" x1="353.20" x2="353.20" y1="58" y2="470"/>
<text class="tick" x="353.20" y="492" text-anchor="middle">0.4</text>
<line class="grid" x1="421.00" x2="421.00" y1="58" y2="470"/>
<text class="tick" x="421.00" y="492" text-anchor="middle">0.5</text>
<line class="grid" x1="488.80" x2="488.80" y1="58" y2="470"/>
<text class="tick" x="488.80" y="492" text-anchor="middle">0.6</text>
<line class="grid" x1="556.60" x2="556.60" y1="58" y2="470"/>
<text class="tick" x="556.60" y="492" text-anchor="middle">0.7</text>
<line class="grid" x1="624.40" x2="624.40" y1="58" y2="470"/>
<text class="tick" x="624.40" y="492" text-anchor="middle">0.8</text>
<line class="grid" x1="692.20" x2="692.20" y1="58" y2="470"/>
<text class="tick" x="692.20" y="492" text-anchor="middle">0.9</text>
<line class="grid" x1="760.00" x2="760.00" y1="58" y2="470"/>
<text class="tick" x="760.00" y="492" text-anchor="middle">1.0</text>
<line class="axis" x1="82" x2="760" y1="470" y2="470"/>
<line class="axis" x1="82" x2="82" y1="58" y2="470"/>
<text class="label" x="421.0" y="532" text-anchor="middle">Relative Time</text>
<text class="label" x="20" y="264.0" text-anchor="middle" transform="rotate(-90 20 264.0)">Proportion of Looks</text>
<polygon points="82.00,118.13 82.00,137.00 82.00,97.55 82.00,59.55 115.90,102.55 115.90,186.09 115.90,58.00 115.90,58.00 149.80,96.70 149.80,186.15 149.80,67.00 149.80,58.00 183.70,109.90 183.70,192.13 183.70,115.62 183.70,63.27 217.60,102.27 217.60,168.95 217.60,112.26 217.60,72.66 251.50,94.79 251.50,137.85 251.50,146.69 251.50,63.06 285.40,94.73 285.40,123.90 285.40,77.19 285.40,72.32 319.30,156.12 319.30,137.66 319.30,88.14 319.30,58.00 353.20,112.92 353.20,156.92 353.20,77.35 353.20,97.73 387.10,124.15 387.10,158.23 387.10,64.12 387.10,73.40 421.00,102.34 421.00,143.54 421.00,106.25 421.00,97.84 454.90,138.67 454.90,141.51 454.90,111.88 454.90,84.98 488.80,138.52 488.80,143.35 488.80,81.45 488.80,98.68 522.70,151.63 522.70,169.33 522.70,167.19 522.70,125.58 556.60,137.09 556.60,192.99 556.60,133.37 556.60,97.32 590.50,139.83 590.50,172.31 590.50,157.41 590.50,130.53 624.40,132.70 624.40,178.11 624.40,167.42 624.40,113.65 658.30,164.08 658.30,154.80 658.30,139.38 658.30,132.90 692.20,170.39 692.20,171.04 692.20,79.62 692.20,79.97 726.10,184.47 726.10,159.82 726.10,82.93 726.10,84.67 760.00,205.68 760.00,164.59 760.00,75.10 760.00,121.83 760.00,271.87 760.00,220.03 760.00,245.17 760.00,291.28 726.10,235.08 726.10,261.96 726.10,236.68 726.10,268.05 692.20,236.14 692.20,223.94 692.20,257.78 692.20,249.83 658.30,288.97 658.30,309.35 658.30,229.76 658.30,248.97 624.40,293.22 624.40,344.10 624.40,264.31 624.40,205.36 590.50,291.04 590.50,335.27 590.50,248.57 590.50,220.12 556.60,254.89 556.60,307.52 556.60,272.69 556.60,214.57 522.70,287.06 522.70,353.39 522.70,249.16 522.70,227.88 488.80,262.95 488.80,252.26 488.80,221.13 488.80,213.63 454.90,228.78 454.90,291.70 454.90,219.47 454.90,220.87 421.00,239.95 421.00,278.37 421.00,220.36 421.00,165.83 387.10,189.49 387.10,208.83 387.10,235.85 387.10,199.54 353.20,248.99 353.20,232.48 353.20,239.63 353.20,178.75 319.30,151.67 319.30,285.36 319.30,211.06 319.30,232.40 285.40,212.22 285.40,227.58 285.40,197.46 285.40,156.85 251.50,196.24 251.50,311.09 251.50,209.53 251.50,158.00 217.60,208.86 217.60,306.20 217.60,254.48 217.60,168.09 183.70,198.05 183.70,281.36 183.70,272.23 183.70,175.02 149.80,169.49 149.80,187.29 149.80,271.35 149.80,160.69 115.90,181.60 115.90,270.67 115.90,305.01 115.90,203.15 82.00,142.28 82.00,276.93 82.00,209.54 82.00,187.31" fill="#CC3311" opacity="0.12"/>
<path d="M82.00,152.72 L82.00,173.27 L82.00,187.24 L82.00,100.92 L115.90,152.85 L115.90,245.55 L115.90,149.56 L115.90,99.20 L149.80,128.70 L149.80,228.75 L149.80,127.14 L149.80,112.93 L183.70,142.46 L183.70,232.18 L183.70,198.49 L183.70,130.66 L217.60,135.18 L217.60,211.71 L217.60,209.23 L217.60,140.76 L251.50,126.39 L251.50,173.69 L251.50,228.89 L251.50,129.65 L285.40,125.79 L285.40,160.68 L285.40,152.39 L285.40,142.27 L319.30,194.26 L319.30,174.36 L319.30,186.75 L319.30,97.63 L353.20,145.83 L353.20,198.27 L353.20,154.92 L353.20,173.36 L387.10,161.84 L387.10,197.04 L387.10,136.48 L387.10,131.44 L421.00,134.09 L421.00,181.95 L421.00,192.31 L421.00,168.90 L454.90,179.77 L454.90,180.49 L454.90,201.79 L454.90,156.88 L488.80,176.08 L488.80,182.24 L488.80,166.85 L488.80,180.82 L522.70,189.76 L522.70,209.24 L522.70,260.29 L522.70,206.32 L556.60,175.83 L556.60,232.84 L556.60,220.45 L556.60,176.11 L590.50,179.97 L590.50,210.44 L590.50,246.34 L590.50,210.78 L624.40,169.03 L624.40,221.21 L624.40,255.76 L624.40,203.44 L658.30,206.52 L658.30,192.28 L658.30,224.37 L658.30,210.93 L692.20,210.11 L692.20,214.41 L692.20,151.78 L692.20,158.06 L726.10,226.26 L726.10,198.25 L726.10,172.44 L726.10,159.88 L760.00,248.48 L760.00,204.88 L760.00,147.57 L760.00,196.85" fill="none" stroke="#CC3311" stroke-width="3" stroke-linejoin="round" stroke-linecap="round"/>
<polygon points="82.00,405.43 82.00,368.50 82.00,367.03 82.00,411.63 115.90,411.55 115.90,303.65 115.90,332.67 115.90,403.26 149.80,419.64 149.80,338.50 149.80,385.85 149.80,388.18 183.70,401.65 183.70,336.42 183.70,285.88 183.70,361.33 217.60,433.03 217.60,323.71 217.60,293.16 217.60,388.04 251.50,408.52 251.50,353.07 251.50,299.32 251.50,357.10 285.40,425.25 285.40,356.77 285.40,339.34 285.40,380.85 319.30,405.49 319.30,365.77 319.30,264.75 319.30,411.14 353.20,426.32 353.20,362.55 353.20,365.30 353.20,362.21 387.10,391.14 387.10,344.59 387.10,376.68 387.10,431.78 421.00,422.55 421.00,338.98 421.00,295.35 421.00,314.39 454.90,405.38 454.90,366.32 454.90,255.52 454.90,341.24 488.80,395.67 488.80,361.09 488.80,288.73 488.80,322.13 522.70,348.48 522.70,342.45 522.70,248.44 522.70,268.41 556.60,366.45 556.60,312.50 556.60,315.80 556.60,293.43 590.50,366.65 590.50,350.11 590.50,329.84 590.50,245.01 624.40,375.46 624.40,318.92 624.40,312.90 624.40,259.77 658.30,353.55 658.30,346.65 658.30,319.17 658.30,271.46 692.20,369.02 692.20,331.22 692.20,338.85 692.20,315.82 726.10,350.34 726.10,373.47 726.10,266.04 726.10,325.74 760.00,309.05 760.00,353.74 760.00,331.76 760.00,279.37 760.00,424.84 760.00,464.94 760.00,422.21 760.00,387.41 726.10,464.44 726.10,445.07 726.10,433.72 726.10,419.04 692.20,459.38 692.20,468.52 692.20,406.85 692.20,428.92 658.30,421.34 658.30,463.88 658.30,413.42 658.30,424.90 624.40,433.03 624.40,459.56 624.40,399.09 624.40,435.36 590.50,403.84 590.50,460.27 590.50,417.53 590.50,433.17 556.60,450.38 556.60,457.04 556.60,387.86 556.60,431.45 522.70,419.77 522.70,417.99 522.70,411.84 522.70,416.02 488.80,464.05 488.80,450.04 488.80,428.02 488.80,448.43 454.90,470.00 454.90,422.44 454.90,432.02 454.90,455.88 421.00,453.94 421.00,444.42 421.00,409.16 421.00,463.28 387.10,470.00 387.10,470.00 387.10,412.91 387.10,447.92 353.20,470.00 353.20,470.00 353.20,429.33 353.20,464.95 319.30,470.00 319.30,447.62 319.30,427.41 319.30,453.67 285.40,470.00 285.40,466.57 285.40,425.83 285.40,465.31 251.50,470.00 251.50,443.64 251.50,419.16 251.50,458.23 217.60,470.00 217.60,456.84 217.60,402.05 217.60,468.88 183.70,470.00 183.70,448.94 183.70,406.47 183.70,452.19 149.80,470.00 149.80,470.00 149.80,411.25 149.80,464.18 115.90,470.00 115.90,470.00 115.90,410.29 115.90,470.00 82.00,470.00 82.00,470.00 82.00,430.70 82.00,454.94" fill="#0077BB" opacity="0.12"/>
<path d="M82.00,430.19 L82.00,399.60 L82.00,426.63 L82.00,447.00 L115.90,442.53 L115.90,356.97 L115.90,424.22 L115.90,447.75 L149.80,441.91 L149.80,374.87 L149.80,432.74 L149.80,435.67 L183.70,426.92 L183.70,371.45 L183.70,367.41 L183.70,418.31 L217.60,450.96 L217.60,362.88 L217.60,375.00 L217.60,435.61 L251.50,433.38 L251.50,386.12 L251.50,371.48 L251.50,416.26 L285.40,445.28 L285.40,391.30 L285.40,402.96 L285.40,432.55 L319.30,429.58 L319.30,396.59 L319.30,356.19 L319.30,450.38 L353.20,445.63 L353.20,395.94 L353.20,420.95 L353.20,418.77 L387.10,419.53 L387.10,378.75 L387.10,430.76 L387.10,455.31 L421.00,442.91 L421.00,374.07 L421.00,369.88 L421.00,384.17 L454.90,430.63 L454.90,399.17 L454.90,338.98 L454.90,405.65 L488.80,422.05 L488.80,394.56 L488.80,369.39 L488.80,393.09 L522.70,382.25 L522.70,377.14 L522.70,333.22 L522.70,344.09 L556.60,398.95 L556.60,350.18 L556.60,386.42 L556.60,371.90 L590.50,399.91 L590.50,383.82 L590.50,395.06 L590.50,324.43 L624.40,405.41 L624.40,359.01 L624.40,386.23 L624.40,346.40 L658.30,389.23 L658.30,380.03 L658.30,391.52 L658.30,346.40 L692.20,398.97 L692.20,369.04 L692.20,403.69 L692.20,387.60 L726.10,384.69 L726.10,403.59 L726.10,355.56 L726.10,395.09 L760.00,348.23 L760.00,387.98 L760.00,398.35 L760.00,352.10" fill="none" stroke="#0077BB" stroke-width="3" stroke-linejoin="round" stroke-linecap="round"/>
<line x1="605" x2="633" y1="76" y2="76" stroke="#CC3311" stroke-width="3"/>
<text class="legend" x="643" y="80">Agent</text>
<line x1="605" x2="633" y1="98" y2="98" stroke="#0077BB" stroke-width="3"/>
<text class="legend" x="643" y="102">Patient</text>
</svg>