<svg xmlns="http://www.w3.org/2000/svg" width="820" height="560" viewBox="0 0 820 560">
<rect width="100%" height="100%" fill="white"/>
<style>
text { font-family: Arial, Helvetica, sans-serif; fill: #222; }
.title { font-size: 20px; font-weight: 700; }
.subtitle { font-size: 13px; fill: #555; }
.axis { stroke: #222; stroke-width: 1; }
.grid { stroke: #dddddd; stroke-width: 1; }
.tick { font-size: 12px; fill: #333; }
.label { font-size: 14px; fill: #222; }
.legend { font-size: 13px; fill: #222; }
</style>
<text class="title" x="421.0" y="28" text-anchor="middle">Direct AVP, animate patient</text>
<text class="subtitle" x="421.0" y="47" text-anchor="middle">1000-2500 ms after speech onset, RT &lt; 6000 ms, fluent trials; n = 240 trials</text>
<line class="grid" x1="82" x2="760" y1="470.00" y2="470.00"/>
<text class="tick" x="72" y="474.00" text-anchor="end">0.0</text>
<line class="grid" x1="82" x2="760" y1="428.80" y2="428.80"/>
<text class="tick" x="72" y="432.80" text-anchor="end">0.1</text>
<line class="grid" x1="82" x2="760" y1="387.60" y2="387.60"/>
<text class="tick" x="72" y="391.60" text-anchor="end">0.2</text>
<line class="grid" x1="82" x2="760" y1="346.40" y2="346.40"/>
<text class="tick" x="72" y="350.40" text-anchor="end">0.3</text>
<line class="grid" x1="82" x2="760" y1="305.20" y2="305.20"/>
<text class="tick" x="72" y="309.20" text-anchor="end">0.4</text>
<line class="grid" x1="82" x2="760" y1="264.00" y2="264.00"/>
<text class="tick" x="72" y="268.00" text-anchor="end">0.5</text>
<line class="grid" x1="82" x2="760" y1="222.80" y2="222.80"/>
<text class="tick" x="72" y="226.80" text-anchor="end">0.6</text>
<line class="grid" x1="82" x2="760" y1="181.60" y2="181.60"/>
<text class="tick" x="72" y="185.60" text-anchor="end">0.7</text>
<line class="grid" x1="82" x2="760" y1="140.40" y2="140.40"/>
<text class="tick" x="72" y="144.40" text-anchor="end">0.8</text>
<line class="grid" x1="82" x2="760" y1="99.20" y2="99.20"/>
<text class="tick" x="72" y="103.20" text-anchor="end">0.9</text>
<line class="grid" x1="82" x2="760" y1="58.00" y2="58.00"/>
<text class="tick" x="72" y="62.00" text-anchor="end">1.0</text>
<line class="grid" x1="82.00" x2="82.00" y1="58" y2="470"/>
<text class="tick" x="82.00" y="492" text-anchor="middle">0.0</text>
<line class="grid" x1="149.80" x2="149.80" y1="58" y2="470"/>
<text class="tick" x="149.80" y="492" text-anchor="middle">0.1</text>
<line class="grid" x1="217.60" x2="217.60" y1="58" y2="470"/>
<text class="tick" x="217.60" y="492" text-anchor="middle">0.2</text>
<line class="grid" x1="285.40" x2="285.40" y1="58" y2="470"/>
<text class="tick" x="285.40" y="492" text-anchor="middle">0.3</text>
<line class="grid" x1="353.20" x2="353.20" y1="58" y2="470"/>
<text class="tick" x="353.20" y="492" text-anchor="middle">0.4</text>
<line class="grid" x1="421.00" x2="421.00" y1="58" y2="470"/>
<text class="tick" x="421.00" y="492" text-anchor="middle">0.5</text>
<line class="grid" x1="488.80" x2="488.80" y1="58" y2="470"/>
<text class="tick" x="488.80" y="492" text-anchor="middle">0.6</text>
<line class="grid" x1="556.60" x2="556.60" y1="58" y2="470"/>
<text class="tick" x="556.60" y="492" text-anchor="middle">0.7</text>
<line class="grid" x1="624.40" x2="624.40" y1="58" y2="470"/>
<text class="tick" x="624.40" y="492" text-anchor="middle">0.8</text>
<line class="grid" x1="692.20" x2="692.20" y1="58" y2="470"/>
<text class="tick" x="692.20" y="492" text-anchor="middle">0.9</text>
<line class="grid" x1="760.00" x2="760.00" y1="58" y2="470"/>
<text class="tick" x="760.00" y="492" text-anchor="middle">1.0</text>
<line class="axis" x1="82" x2="760" y1="470" y2="470"/>
<line class="axis" x1="82" x2="82" y1="58" y2="470"/>
<text class="label" x="421.0" y="532" text-anchor="middle">Relative Time</text>
<text class="label" x="20" y="264.0" text-anchor="middle" transform="rotate(-90 20 264.0)">Proportion of Looks</text>
<polygon points="82.00,301.69 82.00,263.96 82.00,263.16 82.00,351.88 104.60,314.47 104.60,272.53 104.60,259.94 104.60,294.59 127.20,313.46 127.20,283.54 127.20,232.32 127.20,250.46 149.80,326.01 149.80,295.93 149.80,249.84 149.80,241.59 172.40,330.94 172.40,304.35 172.40,245.67 172.40,241.59 195.00,324.25 195.00,298.42 195.00,252.77 195.00,241.59 217.60,335.20 217.60,307.26 217.60,292.07 217.60,241.59 240.20,353.89 240.20,310.56 240.20,292.60 240.20,241.59 262.80,359.99 262.80,325.81 262.80,288.55 262.80,241.59 285.40,359.07 285.40,330.02 285.40,306.12 285.40,228.56 308.00,371.63 308.00,341.65 308.00,292.60 308.00,207.82 330.60,378.34 330.60,349.80 330.60,311.01 330.60,241.59 353.20,375.58 353.20,341.93 353.20,314.39 353.20,274.48 375.80,377.40 375.80,340.62 375.80,314.39 375.80,294.59 398.40,369.93 398.40,343.77 398.40,314.39 398.40,294.59 421.00,362.20 421.00,339.33 421.00,334.49 421.00,336.54 443.60,360.51 443.60,337.74 443.60,350.68 443.60,294.59 466.20,364.68 466.20,332.69 466.20,321.12 466.20,294.59 488.80,363.95 488.80,329.58 488.80,314.39 488.80,278.62 511.40,372.28 511.40,338.95 511.40,312.96 511.40,241.59 534.00,372.95 534.00,358.78 534.00,314.15 534.00,241.59 556.60,349.17 556.60,361.84 556.60,314.39 556.60,241.59 579.20,341.28 579.20,359.05 579.20,356.67 579.20,241.59 601.80,342.28 601.80,355.89 601.80,337.30 601.80,292.31 624.40,339.57 624.40,350.38 624.40,337.30 624.40,294.59 647.00,333.02 647.00,350.16 647.00,337.30 647.00,304.88 669.60,335.60 669.60,370.42 669.60,346.56 669.60,357.64 692.20,344.56 692.20,382.75 692.20,351.89 692.20,357.64 714.80,356.38 714.80,379.02 714.80,373.62 714.80,357.64 737.40,358.67 737.40,368.31 737.40,361.12 737.40,357.64 760.00,360.62 760.00,365.42 760.00,337.30 760.00,309.83 760.00,470.00 760.00,465.37 760.00,427.04 760.00,424.57 737.40,470.00 737.40,470.00 737.40,428.50 737.40,423.02 714.80,470.00 714.80,470.00 714.80,436.60 714.80,421.32 692.20,470.00 692.20,466.57 692.20,437.07 692.20,412.99 669.60,470.00 669.60,466.41 669.60,427.79 669.60,406.14 647.00,470.00 647.00,465.37 647.00,414.16 647.00,403.56 624.40,470.00 624.40,465.37 624.40,414.72 624.40,408.16 601.80,470.00 601.80,465.37 601.80,419.31 601.80,410.78 579.20,470.00 579.20,469.34 579.20,420.81 579.20,410.28 556.60,470.00 556.60,453.94 556.60,423.47 556.60,415.71 534.00,470.00 534.00,448.69 534.00,421.55 534.00,431.88 511.40,470.00 511.40,451.94 511.40,405.16 511.40,431.05 488.80,470.00 488.80,453.94 488.80,398.51 488.80,426.90 466.20,470.00 466.20,451.33 466.20,400.84 466.20,425.16 443.60,470.00 443.60,466.41 443.60,405.13 443.60,424.51 421.00,470.00 421.00,462.00 421.00,406.64 421.00,424.82 398.40,470.00 398.40,453.94 398.40,409.82 398.40,431.08 375.80,470.00 375.80,453.94 375.80,407.07 375.80,435.75 353.20,470.00 353.20,453.94 353.20,408.55 353.20,434.41 330.60,470.00 330.60,449.77 330.60,412.19 330.60,435.48 308.00,447.53 308.00,441.40 308.00,407.74 308.00,431.86 285.40,456.75 285.40,445.04 285.40,398.85 285.40,423.45 262.80,470.00 262.80,433.09 262.80,394.82 262.80,424.03 240.20,470.00 240.20,441.40 240.20,381.93 240.20,419.64 217.60,470.00 217.60,440.56 217.60,380.25 217.60,404.37 195.00,470.00 195.00,402.27 195.00,371.21 195.00,396.01 172.40,470.00 172.40,405.93 172.40,376.95 172.40,401.81 149.80,470.00 149.80,410.69 149.80,370.75 149.80,397.08 127.20,470.00 127.20,398.68 127.20,358.89 127.20,386.83 104.60,470.00 104.60,412.95 104.60,349.53 104.60,386.99 82.00,470.00 82.00,418.65 82.00,341.31 82.00,376.79" fill="#CC3311" opacity="0.12"/>
<path d="M82.00,339.24 L82.00,302.63 L82.00,340.91 L82.00,426.55 L104.60,350.73 L104.60,311.03 L104.60,336.44 L104.60,395.09 L127.20,350.15 L127.20,321.21 L127.20,315.50 L127.20,362.13 L149.80,361.55 L149.80,333.34 L149.80,330.26 L149.80,357.64 L172.40,366.38 L172.40,340.65 L172.40,325.80 L172.40,357.64 L195.00,360.13 L195.00,334.82 L195.00,327.52 L195.00,357.64 L217.60,369.79 L217.60,343.76 L217.60,366.31 L217.60,357.64 L240.20,386.77 L240.20,346.24 L240.20,367.00 L240.20,357.64 L262.80,392.01 L262.80,360.31 L262.80,360.82 L262.80,357.64 L285.40,391.26 L285.40,364.43 L285.40,375.58 L285.40,342.65 L308.00,401.75 L308.00,374.70 L308.00,367.00 L308.00,327.67 L330.60,406.91 L330.60,380.99 L330.60,380.39 L330.60,357.64 L353.20,405.00 L353.20,375.24 L353.20,384.17 L353.20,376.36 L375.80,406.58 L375.80,373.84 L375.80,384.17 L375.80,395.09 L398.40,400.50 L398.40,376.79 L398.40,384.17 L398.40,395.09 L421.00,393.51 L421.00,372.99 L421.00,398.24 L421.00,412.32 L443.60,392.51 L443.60,371.43 L443.60,408.54 L443.60,395.09 L466.20,394.92 L466.20,366.77 L466.20,386.23 L466.20,395.09 L488.80,395.42 L488.80,364.05 L488.80,384.17 L488.80,379.36 L511.40,401.67 L511.40,372.05 L511.40,382.45 L511.40,357.64 L534.00,402.42 L534.00,390.17 L534.00,381.42 L534.00,357.64 L556.60,382.44 L556.60,392.65 L556.60,384.17 L556.60,357.64 L579.20,375.78 L579.20,389.93 L579.20,413.01 L579.20,357.64 L601.80,376.53 L601.80,387.60 L601.80,401.33 L601.80,392.09 L624.40,373.87 L624.40,382.55 L624.40,401.33 L624.40,395.09 L647.00,368.29 L647.00,382.16 L647.00,401.33 L647.00,399.59 L669.60,370.87 L669.60,399.10 L669.60,406.48 L669.60,432.55 L692.20,378.78 L692.20,409.91 L692.20,409.23 L692.20,432.55 L714.80,388.85 L714.80,407.81 L714.80,424.68 L714.80,432.55 L737.40,390.85 L737.40,398.41 L737.40,416.10 L737.40,432.55 L760.00,392.59 L760.00,396.23 L760.00,401.33 L760.00,401.83" fill="none" stroke="#CC3311" stroke-width="3" stroke-linejoin="round" stroke-linecap="round"/>
<polygon points="82.00,241.14 82.00,227.50 82.00,207.86 82.00,77.67 104.60,217.50 104.60,221.31 104.60,196.05 104.60,82.47 127.20,224.87 127.20,222.99 127.20,210.68 127.20,115.04 149.80,215.28 149.80,217.24 149.80,162.93 149.80,115.53 172.40,203.44 172.40,218.65 172.40,144.96 172.40,112.04 195.00,197.48 195.00,219.11 195.00,156.44 195.00,82.47 217.60,195.13 217.60,202.69 217.60,122.28 217.60,82.47 240.20,195.49 240.20,201.45 240.20,114.34 240.20,82.47 262.80,185.74 262.80,185.36 262.80,111.01 262.80,82.47 285.40,187.15 285.40,185.26 285.40,96.57 285.40,119.53 308.00,179.28 308.00,184.54 308.00,108.49 308.00,152.98 330.60,165.25 330.60,178.49 330.60,114.34 330.60,147.40 353.20,163.92 353.20,190.08 353.20,116.64 353.20,104.60 375.80,159.92 375.80,189.17 375.80,112.85 375.80,110.73 398.40,176.59 398.40,175.63 398.40,101.60 398.40,118.06 421.00,192.67 421.00,162.93 421.00,114.70 421.00,139.78 443.60,209.78 443.60,163.33 443.60,133.18 443.60,181.16 466.20,205.66 466.20,177.00 466.20,160.05 466.20,194.83 488.80,184.74 488.80,185.36 488.80,142.40 488.80,191.00 511.40,159.33 511.40,190.98 511.40,126.16 511.40,152.98 534.00,155.36 534.00,178.60 534.00,117.31 534.00,178.44 556.60,165.80 556.60,172.62 556.60,113.22 556.60,152.98 579.20,183.15 579.20,163.15 579.20,82.06 579.20,152.98 601.80,201.17 601.80,167.19 601.80,86.50 601.80,125.50 624.40,195.84 624.40,166.06 624.40,96.76 624.40,115.53 647.00,187.50 647.00,158.62 647.00,125.50 647.00,99.65 669.60,179.97 669.60,155.03 669.60,129.32 669.60,58.00 692.20,173.67 692.20,154.37 692.20,125.36 692.20,58.00 714.80,174.19 714.80,158.05 714.80,112.25 714.80,58.00 737.40,171.61 737.40,151.26 737.40,93.77 737.40,80.18 760.00,174.57 760.00,145.84 760.00,88.85 760.00,150.22 760.00,403.25 760.00,228.35 760.00,216.74 760.00,251.89 737.40,318.97 737.40,229.60 737.40,225.00 737.40,248.35 714.80,286.41 714.80,270.17 714.80,232.82 714.80,253.93 692.20,286.41 692.20,279.73 692.20,225.46 692.20,251.45 669.60,286.41 669.60,295.68 669.60,226.52 669.60,257.81 647.00,338.46 647.00,275.47 647.00,233.50 647.00,267.09 624.40,375.02 624.40,246.52 624.40,239.59 624.40,274.56 601.80,378.53 601.80,234.81 601.80,242.96 601.80,279.56 579.20,412.47 579.20,220.03 579.20,237.20 579.20,263.11 556.60,412.47 556.60,272.64 556.60,246.39 556.60,242.84 534.00,418.47 534.00,278.16 534.00,253.32 534.00,230.31 511.40,412.47 511.40,284.42 511.40,267.06 511.40,234.33 488.80,426.90 488.80,304.57 488.80,262.89 488.80,263.19 466.20,445.53 466.20,329.50 466.20,253.52 466.20,285.55 443.60,424.75 443.60,298.00 443.60,237.65 443.60,290.42 421.00,388.22 421.00,273.90 421.00,237.89 421.00,271.57 398.40,357.51 398.40,254.05 398.40,250.69 398.40,255.36 375.80,358.84 375.80,271.64 375.80,265.30 375.80,234.58 353.20,348.49 353.20,271.28 353.20,268.12 353.20,239.23 330.60,397.08 330.60,276.33 330.60,252.96 330.60,243.90 308.00,412.47 308.00,263.64 308.00,260.75 308.00,257.66 285.40,354.54 285.40,237.79 285.40,260.81 285.40,265.94 262.80,333.17 262.80,267.29 262.80,262.57 262.80,264.86 240.20,333.17 240.20,276.33 240.20,278.51 240.20,274.91 217.60,333.17 217.60,281.43 217.60,279.76 217.60,275.94 195.00,333.17 195.00,309.07 195.00,297.39 195.00,277.42 172.40,362.03 172.40,314.37 172.40,296.13 172.40,283.44 149.80,375.02 149.80,325.24 149.80,296.45 149.80,295.91 127.20,372.51 127.20,377.74 127.20,300.03 127.20,305.79 104.60,333.17 104.60,366.97 104.60,299.39 104.60,296.85 82.00,311.00 82.00,374.39 82.00,306.41 82.00,321.16" fill="#0077BB" opacity="0.12"/>
<path d="M82.00,281.15 L82.00,266.95 L82.00,291.12 L82.00,194.33 L104.60,257.17 L104.60,260.35 L104.60,281.51 L104.60,207.82 L127.20,265.33 L127.20,261.51 L127.20,294.21 L127.20,243.77 L149.80,255.59 L149.80,256.85 L149.80,244.09 L149.80,245.27 L172.40,243.44 L172.40,257.39 L172.40,229.67 L172.40,237.03 L195.00,237.45 L195.00,258.25 L195.00,232.76 L195.00,207.82 L217.60,235.53 L217.60,241.22 L217.60,201.86 L217.60,207.82 L240.20,235.20 L240.20,239.98 L240.20,195.33 L240.20,207.82 L262.80,225.30 L262.80,223.97 L262.80,189.15 L262.80,207.82 L285.40,226.55 L285.40,223.03 L285.40,167.18 L285.40,237.03 L308.00,218.47 L308.00,222.64 L308.00,186.06 L308.00,282.73 L330.60,204.57 L330.60,215.73 L330.60,195.33 L330.60,272.24 L353.20,201.58 L353.20,229.10 L353.20,193.96 L353.20,226.55 L375.80,197.25 L375.80,227.23 L375.80,192.24 L375.80,234.79 L398.40,215.97 L398.40,213.16 L398.40,177.82 L398.40,237.78 L421.00,232.12 L421.00,200.41 L421.00,194.30 L421.00,264.00 L443.60,250.10 L443.60,200.49 L443.60,215.59 L443.60,302.95 L466.20,245.61 L466.20,215.26 L466.20,244.77 L466.20,320.18 L488.80,223.97 L488.80,224.12 L488.80,223.49 L488.80,308.95 L511.40,196.83 L511.40,229.02 L511.40,205.29 L511.40,282.73 L534.00,192.84 L534.00,215.96 L534.00,197.74 L534.00,298.46 L556.60,204.32 L556.60,209.51 L556.60,192.93 L556.60,282.73 L579.20,223.13 L579.20,200.18 L579.20,151.04 L579.20,282.73 L601.80,240.36 L601.80,205.08 L601.80,160.66 L601.80,252.01 L624.40,235.20 L624.40,202.82 L624.40,171.64 L624.40,245.27 L647.00,227.29 L647.00,196.06 L647.00,200.48 L647.00,219.05 L669.60,218.89 L669.60,190.77 L669.60,212.50 L669.60,170.36 L692.20,212.56 L692.20,189.92 L692.20,202.54 L692.20,170.36 L714.80,214.06 L714.80,195.44 L714.80,191.21 L714.80,170.36 L737.40,209.98 L737.40,188.13 L737.40,161.69 L737.40,199.58 L760.00,213.23 L760.00,181.29 L760.00,158.60 L760.00,276.73" fill="none" stroke="#0077BB" stroke-width="3" stroke-linejoin="round" stroke-linecap="round"/>
<line x1="605" x2="633" y1="76" y2="76" stroke="#CC3311" stroke-width="3"/>
<text class="legend" x="643" y="80">Agent</text>
<line x1="605" x2="633" y1="98" y2="98" stroke="#0077BB" stroke-width="3"/>
<text class="legend" x="643" y="102">Patient</text>
</svg>