<svg xmlns="http://www.w3.org/2000/svg" width="1920" height="1320" viewBox="0 0 1920 1320">
<image href="../../../../stimuli/Animate-animate%20centered%20and%20flipped/give_water-2-2-r.png" x="0" y="0" width="1920" height="1080" preserveAspectRatio="none"/>
<rect x="0" y="0" width="1920" height="1080" fill="none" stroke="#111" stroke-width="2"/>
<rect x="0" y="1080" width="1920" height="240" fill="#f7f7f7"/>
<rect x="970.0" y="100.0" width="850" height="850" fill="none" stroke="#00B8D9" stroke-width="6" stroke-dasharray="18 12"/>
<rect x="982.0" y="62.0" width="102.0" height="38" rx="6" fill="white" fill-opacity="0.86" stroke="#00B8D9" stroke-width="3"/>
<text x="992.0" y="88.0" font-family="Arial, Helvetica, sans-serif" font-size="24" font-weight="700" fill="#111">AGENT</text>
<rect x="40.0" y="100.0" width="850" height="850" fill="none" stroke="#FF3B8A" stroke-width="6" stroke-dasharray="18 12"/>
<rect x="52.0" y="62.0" width="134.0" height="38" rx="6" fill="white" fill-opacity="0.86" stroke="#FF3B8A" stroke-width="3"/>
<text x="62.0" y="88.0" font-family="Arial, Helvetica, sans-serif" font-size="24" font-weight="700" fill="#111">PATIENT</text>
<polyline points="940.8,548.8 1171.6,348.3 1067.1,482.1 1058.3,431.0 1157.2,481.6 1167.4,489.9 979.7,415.4 1067.3,426.5 939.3,375.9 885.3,345.9 898.4,383.5 943.9,361.9 1023.1,407.9 1087.5,435.3 1186.9,480.2 1193.4,513.3 1282.1,493.3 1388.4,372.6 1265.6,460.7 1170.7,601.8 1079.9,471.0 1135.6,300.4 904.9,318.2 889.1,357.3 1134.7,407.7 1261.3,326.1 1385.7,336.8 1428.5,332.4 1288.5,323.8 1208.8,298.4 1260.3,310.5 1269.3,503.6 1336.2,382.8 1402.4,377.9 1077.3,413.8 1161.4,422.6 1203.8,487.0 797.7,330.2 865.4,287.9 912.4,312.3 918.7,285.9 935.8,283.4 888.7,345.2 728.3,705.5 818.5,614.3 831.3,562.8 1163.9,448.6 1084.0,419.2 1235.9,793.4 1128.5,688.8 1127.7,519.1 1052.5,467.9 1084.6,473.4 1090.0,455.9 1024.8,437.6 1179.4,498.7 1207.4,467.7" fill="none" stroke="#111" stroke-width="4" stroke-opacity="0.36" stroke-linejoin="round"/>
<circle cx="940.8" cy="548.8" r="17.4" fill="white" fill-opacity="0.84"/>
<circle cx="940.8" cy="548.8" r="14.4" fill="#7A3CE8" fill-opacity="0.66" stroke="#111" stroke-width="2.5"/>
<text x="940.8" y="555.8" text-anchor="middle" font-family="Arial, Helvetica, sans-serif" font-size="21" font-weight="800" fill="white" stroke="#111" stroke-width="3" paint-order="stroke">1</text>
<circle cx="1171.6" cy="348.3" r="18.4" fill="white" fill-opacity="0.84"/>
<circle cx="1171.6" cy="348.3" r="15.4" fill="#7A3CE8" fill-opacity="0.66" stroke="#111" stroke-width="2.5"/>
<text x="1171.6" y="355.3" text-anchor="middle" font-family="Arial, Helvetica, sans-serif" font-size="21" font-weight="800" fill="white" stroke="#111" stroke-width="3" paint-order="stroke">2</text>
<circle cx="1067.1" cy="482.1" r="18.7" fill="white" fill-opacity="0.84"/>
<circle cx="1067.1" cy="482.1" r="15.7" fill="#7A3CE8" fill-opacity="0.66" stroke="#111" stroke-width="2.5"/>
<text x="1067.1" y="489.1" text-anchor="middle" font-family="Arial, Helvetica, sans-serif" font-size="21" font-weight="800" fill="white" stroke="#111" stroke-width="3" paint-order="stroke">3</text>
<circle cx="1058.3" cy="431.0" r="17.4" fill="white" fill-opacity="0.84"/>
<circle cx="1058.3" cy="431.0" r="14.4" fill="#7A3CE8" fill-opacity="0.66" stroke="#111" stroke-width="2.5"/>
<text x="1058.3" y="438.0" text-anchor="middle" font-family="Arial, Helvetica, sans-serif" font-size="21" font-weight="800" fill="white" stroke="#111" stroke-width="3" paint-order="stroke">4</text>
<circle cx="1157.2" cy="481.6" r="21.6" fill="white" fill-opacity="0.84"/>
<circle cx="1157.2" cy="481.6" r="18.6" fill="#7A3CE8" fill-opacity="0.66" stroke="#111" stroke-width="2.5"/>
<text x="1157.2" y="488.6" text-anchor="middle" font-family="Arial, Helvetica, sans-serif" font-size="21" font-weight="800" fill="white" stroke="#111" stroke-width="3" paint-order="stroke">5</text>
<circle cx="1167.4" cy="489.9" r="16.2" fill="white" fill-opacity="0.84"/>
<circle cx="1167.4" cy="489.9" r="13.2" fill="#7A3CE8" fill-opacity="0.66" stroke="#111" stroke-width="2.5"/>
<text x="1167.4" y="496.9" text-anchor="middle" font-family="Arial, Helvetica, sans-serif" font-size="21" font-weight="800" fill="white" stroke="#111" stroke-width="3" paint-order="stroke">6</text>
<circle cx="979.7" cy="415.4" r="13.5" fill="white" fill-opacity="0.84"/>
<circle cx="979.7" cy="415.4" r="10.5" fill="#7A3CE8" fill-opacity="0.66" stroke="#111" stroke-width="2.5"/>
<text x="979.7" y="422.4" text-anchor="middle" font-family="Arial, Helvetica, sans-serif" font-size="21" font-weight="800" fill="white" stroke="#111" stroke-width="3" paint-order="stroke">7</text>
<circle cx="1067.3" cy="426.5" r="17.4" fill="white" fill-opacity="0.84"/>
<circle cx="1067.3" cy="426.5" r="14.4" fill="#7A3CE8" fill-opacity="0.66" stroke="#111" stroke-width="2.5"/>
<text x="1067.3" y="433.5" text-anchor="middle" font-family="Arial, Helvetica, sans-serif" font-size="21" font-weight="800" fill="white" stroke="#111" stroke-width="3" paint-order="stroke">8</text>
<circle cx="939.3" cy="375.9" r="16.5" fill="white" fill-opacity="0.84"/>
<circle cx="939.3" cy="375.9" r="13.5" fill="#7A3CE8" fill-opacity="0.66" stroke="#111" stroke-width="2.5"/>
<text x="939.3" y="382.9" text-anchor="middle" font-family="Arial, Helvetica, sans-serif" font-size="21" font-weight="800" fill="white" stroke="#111" stroke-width="3" paint-order="stroke">9</text>
<circle cx="885.3" cy="345.9" r="16.7" fill="white" fill-opacity="0.84"/>
<circle cx="885.3" cy="345.9" r="13.7" fill="#7A3CE8" fill-opacity="0.66" stroke="#111" stroke-width="2.5"/>
<text x="885.3" y="352.9" text-anchor="middle" font-family="Arial, Helvetica, sans-serif" font-size="21" font-weight="800" fill="white" stroke="#111" stroke-width="3" paint-order="stroke">10</text>
<circle cx="898.4" cy="383.5" r="19.4" fill="white" fill-opacity="0.84"/>
<circle cx="898.4" cy="383.5" r="16.4" fill="#7A3CE8" fill-opacity="0.66" stroke="#111" stroke-width="2.5"/>
<text x="898.4" y="390.5" text-anchor="middle" font-family="Arial, Helvetica, sans-serif" font-size="21" font-weight="800" fill="white" stroke="#111" stroke-width="3" paint-order="stroke">11</text>
<circle cx="943.9" cy="361.9" r="17.4" fill="white" fill-opacity="0.84"/>
<circle cx="943.9" cy="361.9" r="14.4" fill="#7A3CE8" fill-opacity="0.66" stroke="#111" stroke-width="2.5"/>
<text x="943.9" y="368.9" text-anchor="middle" font-family="Arial, Helvetica, sans-serif" font-size="21" font-weight="800" fill="white" stroke="#111" stroke-width="3" paint-order="stroke">12</text>
<circle cx="1023.1" cy="407.9" r="18.2" fill="white" fill-opacity="0.84"/>
<circle cx="1023.1" cy="407.9" r="15.2" fill="#7A3CE8" fill-opacity="0.66" stroke="#111" stroke-width="2.5"/>
<text x="1023.1" y="414.9" text-anchor="middle" font-family="Arial, Helvetica, sans-serif" font-size="21" font-weight="800" fill="white" stroke="#111" stroke-width="3" paint-order="stroke">13</text>
<circle cx="1087.5" cy="435.3" r="18.7" fill="white" fill-opacity="0.84"/>
<circle cx="1087.5" cy="435.3" r="15.7" fill="#7A3CE8" fill-opacity="0.66" stroke="#111" stroke-width="2.5"/>
<text x="1087.5" y="442.3" text-anchor="middle" font-family="Arial, Helvetica, sans-serif" font-size="21" font-weight="800" fill="white" stroke="#111" stroke-width="3" paint-order="stroke">14</text>
<circle cx="1186.9" cy="480.2" r="23.4" fill="white" fill-opacity="0.84"/>
<circle cx="1186.9" cy="480.2" r="20.4" fill="#7A3CE8" fill-opacity="0.66" stroke="#111" stroke-width="2.5"/>
<text x="1186.9" y="487.2" text-anchor="middle" font-family="Arial, Helvetica, sans-serif" font-size="21" font-weight="800" fill="white" stroke="#111" stroke-width="3" paint-order="stroke">15</text>
<circle cx="1193.4" cy="513.3" r="21.4" fill="white" fill-opacity="0.84"/>
<circle cx="1193.4" cy="513.3" r="18.4" fill="#7A3CE8" fill-opacity="0.66" stroke="#111" stroke-width="2.5"/>
<text x="1193.4" y="520.3" text-anchor="middle" font-family="Arial, Helvetica, sans-serif" font-size="21" font-weight="800" fill="white" stroke="#111" stroke-width="3" paint-order="stroke">16</text>
<circle cx="1282.1" cy="493.3" r="16.1" fill="white" fill-opacity="0.84"/>
<circle cx="1282.1" cy="493.3" r="13.1" fill="#7A3CE8" fill-opacity="0.66" stroke="#111" stroke-width="2.5"/>
<text x="1282.1" y="500.3" text-anchor="middle" font-family="Arial, Helvetica, sans-serif" font-size="21" font-weight="800" fill="white" stroke="#111" stroke-width="3" paint-order="stroke">17</text>
<circle cx="1388.4" cy="372.6" r="18.5" fill="white" fill-opacity="0.84"/>
<circle cx="1388.4" cy="372.6" r="15.5" fill="#7A3CE8" fill-opacity="0.66" stroke="#111" stroke-width="2.5"/>
<text x="1388.4" y="379.6" text-anchor="middle" font-family="Arial, Helvetica, sans-serif" font-size="21" font-weight="800" fill="white" stroke="#111" stroke-width="3" paint-order="stroke">18</text>
<circle cx="1265.6" cy="460.7" r="14.7" fill="white" fill-opacity="0.84"/>
<circle cx="1265.6" cy="460.7" r="11.7" fill="#7A3CE8" fill-opacity="0.66" stroke="#111" stroke-width="2.5"/>
<text x="1265.6" y="467.7" text-anchor="middle" font-family="Arial, Helvetica, sans-serif" font-size="21" font-weight="800" fill="white" stroke="#111" stroke-width="3" paint-order="stroke">19</text>
<circle cx="1170.7" cy="601.8" r="17.7" fill="white" fill-opacity="0.84"/>
<circle cx="1170.7" cy="601.8" r="14.7" fill="#7A3CE8" fill-opacity="0.66" stroke="#111" stroke-width="2.5"/>
<text x="1170.7" y="608.8" text-anchor="middle" font-family="Arial, Helvetica, sans-serif" font-size="21" font-weight="800" fill="white" stroke="#111" stroke-width="3" paint-order="stroke">20</text>
<circle cx="1079.9" cy="471.0" r="21.2" fill="white" fill-opacity="0.84"/>
<circle cx="1079.9" cy="471.0" r="18.2" fill="#7A3CE8" fill-opacity="0.66" stroke="#111" stroke-width="2.5"/>
<text x="1079.9" y="478.0" text-anchor="middle" font-family="Arial, Helvetica, sans-serif" font-size="21" font-weight="800" fill="white" stroke="#111" stroke-width="3" paint-order="stroke">21</text>
<circle cx="1135.6" cy="300.4" r="17.7" fill="white" fill-opacity="0.84"/>
<circle cx="1135.6" cy="300.4" r="14.7" fill="#7A3CE8" fill-opacity="0.66" stroke="#111" stroke-width="2.5"/>
<text x="1135.6" y="307.4" text-anchor="middle" font-family="Arial, Helvetica, sans-serif" font-size="21" font-weight="800" fill="white" stroke="#111" stroke-width="3" paint-order="stroke">22</text>
<circle cx="904.9" cy="318.2" r="17.5" fill="white" fill-opacity="0.84"/>
<circle cx="904.9" cy="318.2" r="14.5" fill="#7A3CE8" fill-opacity="0.66" stroke="#111" stroke-width="2.5"/>
<text x="904.9" y="325.2" text-anchor="middle" font-family="Arial, Helvetica, sans-serif" font-size="21" font-weight="800" fill="white" stroke="#111" stroke-width="3" paint-order="stroke">23</text>
<circle cx="889.1" cy="357.3" r="17.7" fill="white" fill-opacity="0.84"/>
<circle cx="889.1" cy="357.3" r="14.7" fill="#7A3CE8" fill-opacity="0.66" stroke="#111" stroke-width="2.5"/>
<text x="889.1" y="364.3" text-anchor="middle" font-family="Arial, Helvetica, sans-serif" font-size="21" font-weight="800" fill="white" stroke="#111" stroke-width="3" paint-order="stroke">24</text>
<circle cx="1134.7" cy="407.7" r="16.7" fill="white" fill-opacity="0.84"/>
<circle cx="1134.7" cy="407.7" r="13.7" fill="#7A3CE8" fill-opacity="0.66" stroke="#111" stroke-width="2.5"/>
<text x="1134.7" y="414.7" text-anchor="middle" font-family="Arial, Helvetica, sans-serif" font-size="21" font-weight="800" fill="white" stroke="#111" stroke-width="3" paint-order="stroke">25</text>
<circle cx="1261.3" cy="326.1" r="18.0" fill="white" fill-opacity="0.84"/>
<circle cx="1261.3" cy="326.1" r="15.0" fill="#7A3CE8" fill-opacity="0.66" stroke="#111" stroke-width="2.5"/>
<text x="1261.3" y="333.1" text-anchor="middle" font-family="Arial, Helvetica, sans-serif" font-size="21" font-weight="800" fill="white" stroke="#111" stroke-width="3" paint-order="stroke">26</text>
<circle cx="1385.7" cy="336.8" r="18.1" fill="white" fill-opacity="0.84"/>
<circle cx="1385.7" cy="336.8" r="15.1" fill="#7A3CE8" fill-opacity="0.66" stroke="#111" stroke-width="2.5"/>
<text x="1385.7" y="343.8" text-anchor="middle" font-family="Arial, Helvetica, sans-serif" font-size="21" font-weight="800" fill="white" stroke="#111" stroke-width="3" paint-order="stroke">27</text>
<circle cx="1428.5" cy="332.4" r="19.1" fill="white" fill-opacity="0.84"/>
<circle cx="1428.5" cy="332.4" r="16.1" fill="#7A3CE8" fill-opacity="0.66" stroke="#111" stroke-width="2.5"/>
<text x="1428.5" y="339.4" text-anchor="middle" font-family="Arial, Helvetica, sans-serif" font-size="21" font-weight="800" fill="white" stroke="#111" stroke-width="3" paint-order="stroke">28</text>
<circle cx="1288.5" cy="323.8" r="17.0" fill="white" fill-opacity="0.84"/>
<circle cx="1288.5" cy="323.8" r="14.0" fill="#7A3CE8" fill-opacity="0.66" stroke="#111" stroke-width="2.5"/>
<text x="1288.5" y="330.8" text-anchor="middle" font-family="Arial, Helvetica, sans-serif" font-size="21" font-weight="800" fill="white" stroke="#111" stroke-width="3" paint-order="stroke">29</text>
<circle cx="1208.8" cy="298.4" r="19.9" fill="white" fill-opacity="0.84"/>
<circle cx="1208.8" cy="298.4" r="16.9" fill="#7A3CE8" fill-opacity="0.66" stroke="#111" stroke-width="2.5"/>
<text x="1208.8" y="305.4" text-anchor="middle" font-family="Arial, Helvetica, sans-serif" font-size="21" font-weight="800" fill="white" stroke="#111" stroke-width="3" paint-order="stroke">30</text>
<circle cx="1260.3" cy="310.5" r="13.5" fill="white" fill-opacity="0.84"/>
<circle cx="1260.3" cy="310.5" r="10.5" fill="#7A3CE8" fill-opacity="0.66" stroke="#111" stroke-width="2.5"/>
<text x="1260.3" y="317.5" text-anchor="middle" font-family="Arial, Helvetica, sans-serif" font-size="21" font-weight="800" fill="white" stroke="#111" stroke-width="3" paint-order="stroke">31</text>
<circle cx="1269.3" cy="503.6" r="19.8" fill="white" fill-opacity="0.84"/>
<circle cx="1269.3" cy="503.6" r="16.8" fill="#7A3CE8" fill-opacity="0.66" stroke="#111" stroke-width="2.5"/>
<text x="1269.3" y="510.6" text-anchor="middle" font-family="Arial, Helvetica, sans-serif" font-size="21" font-weight="800" fill="white" stroke="#111" stroke-width="3" paint-order="stroke">32</text>
<circle cx="1336.2" cy="382.8" r="15.7" fill="white" fill-opacity="0.84"/>
<circle cx="1336.2" cy="382.8" r="12.7" fill="#7A3CE8" fill-opacity="0.66" stroke="#111" stroke-width="2.5"/>
<text x="1336.2" y="389.8" text-anchor="middle" font-family="Arial, Helvetica, sans-serif" font-size="21" font-weight="800" fill="white" stroke="#111" stroke-width="3" paint-order="stroke">33</text>
<circle cx="1402.4" cy="377.9" r="21.8" fill="white" fill-opacity="0.84"/>
<circle cx="1402.4" cy="377.9" r="18.8" fill="#7A3CE8" fill-opacity="0.66" stroke="#111" stroke-width="2.5"/>
<text x="1402.4" y="384.9" text-anchor="middle" font-family="Arial, Helvetica, sans-serif" font-size="21" font-weight="800" fill="white" stroke="#111" stroke-width="3" paint-order="stroke">34</text>
<circle cx="1077.3" cy="413.8" r="22.8" fill="white" fill-opacity="0.84"/>
<circle cx="1077.3" cy="413.8" r="19.8" fill="#7A3CE8" fill-opacity="0.66" stroke="#111" stroke-width="2.5"/>
<text x="1077.3" y="420.8" text-anchor="middle" font-family="Arial, Helvetica, sans-serif" font-size="21" font-weight="800" fill="white" stroke="#111" stroke-width="3" paint-order="stroke">35</text>
<circle cx="1161.4" cy="422.6" r="19.1" fill="white" fill-opacity="0.84"/>
<circle cx="1161.4" cy="422.6" r="16.1" fill="#7A3CE8" fill-opacity="0.66" stroke="#111" stroke-width="2.5"/>
<text x="1161.4" y="429.6" text-anchor="middle" font-family="Arial, Helvetica, sans-serif" font-size="21" font-weight="800" fill="white" stroke="#111" stroke-width="3" paint-order="stroke">36</text>
<circle cx="1203.8" cy="487.0" r="17.3" fill="white" fill-opacity="0.84"/>
<circle cx="1203.8" cy="487.0" r="14.3" fill="#7A3CE8" fill-opacity="0.66" stroke="#111" stroke-width="2.5"/>
<text x="1203.8" y="494.0" text-anchor="middle" font-family="Arial, Helvetica, sans-serif" font-size="21" font-weight="800" fill="white" stroke="#111" stroke-width="3" paint-order="stroke">37</text>
<circle cx="797.7" cy="330.2" r="16.3" fill="white" fill-opacity="0.84"/>
<circle cx="797.7" cy="330.2" r="13.3" fill="#7A3CE8" fill-opacity="0.66" stroke="#111" stroke-width="2.5"/>
<text x="797.7" y="337.2" text-anchor="middle" font-family="Arial, Helvetica, sans-serif" font-size="21" font-weight="800" fill="white" stroke="#111" stroke-width="3" paint-order="stroke">38</text>
<circle cx="865.4" cy="287.9" r="16.2" fill="white" fill-opacity="0.84"/>
<circle cx="865.4" cy="287.9" r="13.2" fill="#7A3CE8" fill-opacity="0.66" stroke="#111" stroke-width="2.5"/>
<text x="865.4" y="294.9" text-anchor="middle" font-family="Arial, Helvetica, sans-serif" font-size="21" font-weight="800" fill="white" stroke="#111" stroke-width="3" paint-order="stroke">39</text>
<circle cx="912.4" cy="312.3" r="18.4" fill="white" fill-opacity="0.84"/>
<circle cx="912.4" cy="312.3" r="15.4" fill="#7A3CE8" fill-opacity="0.66" stroke="#111" stroke-width="2.5"/>
<text x="912.4" y="319.3" text-anchor="middle" font-family="Arial, Helvetica, sans-serif" font-size="21" font-weight="800" fill="white" stroke="#111" stroke-width="3" paint-order="stroke">40</text>
<circle cx="918.7" cy="285.9" r="17.6" fill="white" fill-opacity="0.84"/>
<circle cx="918.7" cy="285.9" r="14.6" fill="#7A3CE8" fill-opacity="0.66" stroke="#111" stroke-width="2.5"/>
<text x="918.7" y="292.9" text-anchor="middle" font-family="Arial, Helvetica, sans-serif" font-size="21" font-weight="800" fill="white" stroke="#111" stroke-width="3" paint-order="stroke">41</text>
<circle cx="935.8" cy="283.4" r="16.7" fill="white" fill-opacity="0.84"/>
<circle cx="935.8" cy="283.4" r="13.7" fill="#7A3CE8" fill-opacity="0.66" stroke="#111" stroke-width="2.5"/>
<text x="935.8" y="290.4" text-anchor="middle" font-family="Arial, Helvetica, sans-serif" font-size="21" font-weight="800" fill="white" stroke="#111" stroke-width="3" paint-order="stroke">42</text>
<circle cx="888.7" cy="345.2" r="18.8" fill="white" fill-opacity="0.84"/>
<circle cx="888.7" cy="345.2" r="15.8" fill="#7A3CE8" fill-opacity="0.66" stroke="#111" stroke-width="2.5"/>
<text x="888.7" y="352.2" text-anchor="middle" font-family="Arial, Helvetica, sans-serif" font-size="21" font-weight="800" fill="white" stroke="#111" stroke-width="3" paint-order="stroke">43</text>
<circle cx="728.3" cy="705.5" r="19.5" fill="white" fill-opacity="0.84"/>
<circle cx="728.3" cy="705.5" r="16.5" fill="#7A3CE8" fill-opacity="0.66" stroke="#111" stroke-width="2.5"/>
<text x="728.3" y="712.5" text-anchor="middle" font-family="Arial, Helvetica, sans-serif" font-size="21" font-weight="800" fill="white" stroke="#111" stroke-width="3" paint-order="stroke">44</text>
<circle cx="818.5" cy="614.3" r="18.7" fill="white" fill-opacity="0.84"/>
<circle cx="818.5" cy="614.3" r="15.7" fill="#7A3CE8" fill-opacity="0.66" stroke="#111" stroke-width="2.5"/>
<text x="818.5" y="621.3" text-anchor="middle" font-family="Arial, Helvetica, sans-serif" font-size="21" font-weight="800" fill="white" stroke="#111" stroke-width="3" paint-order="stroke">45</text>
<circle cx="831.3" cy="562.8" r="15.1" fill="white" fill-opacity="0.84"/>
<circle cx="831.3" cy="562.8" r="12.1" fill="#7A3CE8" fill-opacity="0.66" stroke="#111" stroke-width="2.5"/>
<text x="831.3" y="569.8" text-anchor="middle" font-family="Arial, Helvetica, sans-serif" font-size="21" font-weight="800" fill="white" stroke="#111" stroke-width="3" paint-order="stroke">46</text>
<circle cx="1163.9" cy="448.6" r="19.6" fill="white" fill-opacity="0.84"/>
<circle cx="1163.9" cy="448.6" r="16.6" fill="#7A3CE8" fill-opacity="0.66" stroke="#111" stroke-width="2.5"/>
<text x="1163.9" y="455.6" text-anchor="middle" font-family="Arial, Helvetica, sans-serif" font-size="21" font-weight="800" fill="white" stroke="#111" stroke-width="3" paint-order="stroke">47</text>
<circle cx="1084.0" cy="419.2" r="20.8" fill="white" fill-opacity="0.84"/>
<circle cx="1084.0" cy="419.2" r="17.8" fill="#7A3CE8" fill-opacity="0.66" stroke="#111" stroke-width="2.5"/>
<text x="1084.0" y="426.2" text-anchor="middle" font-family="Arial, Helvetica, sans-serif" font-size="21" font-weight="800" fill="white" stroke="#111" stroke-width="3" paint-order="stroke">48</text>
<circle cx="1235.9" cy="793.4" r="18.4" fill="white" fill-opacity="0.84"/>
<circle cx="1235.9" cy="793.4" r="15.4" fill="#7A3CE8" fill-opacity="0.66" stroke="#111" stroke-width="2.5"/>
<text x="1235.9" y="800.4" text-anchor="middle" font-family="Arial, Helvetica, sans-serif" font-size="21" font-weight="800" fill="white" stroke="#111" stroke-width="3" paint-order="stroke">49</text>
<circle cx="1128.5" cy="688.8" r="14.3" fill="white" fill-opacity="0.84"/>
<circle cx="1128.5" cy="688.8" r="11.3" fill="#7A3CE8" fill-opacity="0.66" stroke="#111" stroke-width="2.5"/>
<text x="1128.5" y="695.8" text-anchor="middle" font-family="Arial, Helvetica, sans-serif" font-size="21" font-weight="800" fill="white" stroke="#111" stroke-width="3" paint-order="stroke">50</text>
<circle cx="1127.7" cy="519.1" r="15.2" fill="white" fill-opacity="0.84"/>
<circle cx="1127.7" cy="519.1" r="12.2" fill="#7A3CE8" fill-opacity="0.66" stroke="#111" stroke-width="2.5"/>
<text x="1127.7" y="526.1" text-anchor="middle" font-family="Arial, Helvetica, sans-serif" font-size="21" font-weight="800" fill="white" stroke="#111" stroke-width="3" paint-order="stroke">51</text>
<circle cx="1052.5" cy="467.9" r="18.8" fill="white" fill-opacity="0.84"/>
<circle cx="1052.5" cy="467.9" r="15.8" fill="#7A3CE8" fill-opacity="0.66" stroke="#111" stroke-width="2.5"/>
<text x="1052.5" y="474.9" text-anchor="middle" font-family="Arial, Helvetica, sans-serif" font-size="21" font-weight="800" fill="white" stroke="#111" stroke-width="3" paint-order="stroke">52</text>
<circle cx="1084.6" cy="473.4" r="13.1" fill="white" fill-opacity="0.84"/>
<circle cx="1084.6" cy="473.4" r="10.1" fill="#7A3CE8" fill-opacity="0.66" stroke="#111" stroke-width="2.5"/>
<text x="1084.6" y="480.4" text-anchor="middle" font-family="Arial, Helvetica, sans-serif" font-size="21" font-weight="800" fill="white" stroke="#111" stroke-width="3" paint-order="stroke">53</text>
<circle cx="1090.0" cy="455.9" r="21.3" fill="white" fill-opacity="0.84"/>
<circle cx="1090.0" cy="455.9" r="18.3" fill="#7A3CE8" fill-opacity="0.66" stroke="#111" stroke-width="2.5"/>
<text x="1090.0" y="462.9" text-anchor="middle" font-family="Arial, Helvetica, sans-serif" font-size="21" font-weight="800" fill="white" stroke="#111" stroke-width="3" paint-order="stroke">54</text>
<circle cx="1024.8" cy="437.6" r="16.6" fill="white" fill-opacity="0.84"/>
<circle cx="1024.8" cy="437.6" r="13.6" fill="#7A3CE8" fill-opacity="0.66" stroke="#111" stroke-width="2.5"/>
<text x="1024.8" y="444.6" text-anchor="middle" font-family="Arial, Helvetica, sans-serif" font-size="21" font-weight="800" fill="white" stroke="#111" stroke-width="3" paint-order="stroke">55</text>
<circle cx="1179.4" cy="498.7" r="22.7" fill="white" fill-opacity="0.84"/>
<circle cx="1179.4" cy="498.7" r="19.7" fill="#7A3CE8" fill-opacity="0.66" stroke="#111" stroke-width="2.5"/>
<text x="1179.4" y="505.7" text-anchor="middle" font-family="Arial, Helvetica, sans-serif" font-size="21" font-weight="800" fill="white" stroke="#111" stroke-width="3" paint-order="stroke">56</text>
<circle cx="1207.4" cy="467.7" r="18.1" fill="white" fill-opacity="0.84"/>
<circle cx="1207.4" cy="467.7" r="15.1" fill="#7A3CE8" fill-opacity="0.66" stroke="#111" stroke-width="2.5"/>
<text x="1207.4" y="474.7" text-anchor="middle" font-family="Arial, Helvetica, sans-serif" font-size="21" font-weight="800" fill="white" stroke="#111" stroke-width="3" paint-order="stroke">57</text>
<rect x="16" y="1094" width="1120" height="168" rx="8" fill="white" fill-opacity="0.92" stroke="#111" stroke-opacity="0.22"/>
<text x="36.0" y="1128.0" font-family="Arial, Helvetica, sans-serif" font-size="24" font-weight="600" fill="#111">K16 / k16_2.asc block 20 | give_water-2-2-r.png | RT NA ms | 57 fixations</text>
<text x="36.0" y="1159.0" font-family="Arial, Helvetica, sans-serif" font-size="24" font-weight="600" fill="#111">numbers show fixation order; dot size shows fixation duration</text>
<circle cx="42" cy="1198" r="11" fill="#005DFF" fill-opacity="0.64" stroke="#111" stroke-width="2"/>
<text x="62.0" y="1206.0" font-family="Arial, Helvetica, sans-serif" font-size="22" font-weight="500" fill="#111">blue: before speech onset</text>
<circle cx="42" cy="1232" r="11" fill="#FF8A00" fill-opacity="0.64" stroke="#111" stroke-width="2"/>
<text x="62.0" y="1240.0" font-family="Arial, Helvetica, sans-serif" font-size="22" font-weight="500" fill="#111">orange: first 2000 ms after onset</text>
</svg>
