<svg xmlns="http://www.w3.org/2000/svg" width="1920" height="1320" viewBox="0 0 1920 1320">
<image href="https://raw.githubusercontent.com/mkurg/koryak/main/stimuli/Animate-animate%20centered%20and%20flipped/dress-1-1-r.png" x="0" y="0" width="1920" height="1080" preserveAspectRatio="none"/>
<rect x="0" y="0" width="1920" height="1080" fill="none" stroke="#111" stroke-width="2"/>
<rect x="0" y="1080" width="1920" height="240" fill="#f7f7f7"/>
<rect x="970.0" y="100.0" width="850" height="850" fill="none" stroke="#00B8D9" stroke-width="6" stroke-dasharray="18 12"/>
<rect x="982.0" y="62.0" width="102.0" height="38" rx="6" fill="white" fill-opacity="0.86" stroke="#00B8D9" stroke-width="3"/>
<text x="992.0" y="88.0" font-family="Arial, Helvetica, sans-serif" font-size="24" font-weight="700" fill="#111">AGENT</text>
<rect x="40.0" y="100.0" width="850" height="850" fill="none" stroke="#FF3B8A" stroke-width="6" stroke-dasharray="18 12"/>
<rect x="52.0" y="62.0" width="134.0" height="38" rx="6" fill="white" fill-opacity="0.86" stroke="#FF3B8A" stroke-width="3"/>
<text x="62.0" y="88.0" font-family="Arial, Helvetica, sans-serif" font-size="24" font-weight="700" fill="#111">PATIENT</text>
<polyline points="819.3,571.9 1037.3,621.0 1053.4,569.4 743.2,429.2 1241.4,402.8 1097.1,572.4 1129.3,602.4 827.3,546.1 968.1,604.0 919.7,657.6 786.5,486.9 1031.6,573.0 1258.3,514.3 1100.1,587.4 1180.3,543.2 1230.8,570.0 1123.1,572.1 1158.2,616.2 1091.0,618.2 1104.2,505.0 1156.3,531.6 1131.5,666.0 1121.9,535.0 1181.3,558.0 1132.0,630.2 1060.7,607.4 1147.2,619.0 1141.7,577.3 964.2,571.6 915.7,616.8 744.0,466.2 696.8,453.8 1180.9,620.0 1158.1,677.1 1145.6,586.3 1157.4,561.9 1118.5,628.7 1221.6,627.5 1251.8,618.8 1144.6,574.9 1180.5,631.1 1250.6,599.4 1192.8,606.6 1139.0,610.6 1143.0,534.9 1148.1,523.3 1164.0,684.4 1134.6,755.0 995.1,675.7 978.0,673.7 924.3,723.1 1198.6,768.4 1194.0,795.8 1147.5,646.4 1139.9,549.6 1163.6,610.7 1165.1,576.4 1137.8,510.7 1182.7,569.5 1165.3,634.0 1151.7,603.7 1160.5,639.6 1131.6,635.4 1132.1,630.4 1006.8,706.7 1117.5,628.1 846.6,723.9 918.2,681.4 787.2,592.1 792.9,602.9 1121.4,608.1 956.3,604.9 1097.6,621.1 910.9,653.9 1136.3,633.7 1109.7,574.3 1107.7,536.5 1062.6,573.5" fill="none" stroke="#111" stroke-width="4" stroke-opacity="0.36" stroke-linejoin="round"/>
<circle cx="819.3" cy="571.9" r="13.7" fill="white" fill-opacity="0.84"/>
<circle cx="819.3" cy="571.9" r="10.7" fill="#7A3CE8" fill-opacity="0.66" stroke="#111" stroke-width="2.5"/>
<text x="819.3" y="578.9" text-anchor="middle" font-family="Arial, Helvetica, sans-serif" font-size="21" font-weight="800" fill="white" stroke="#111" stroke-width="3" paint-order="stroke">1</text>
<circle cx="1037.3" cy="621.0" r="16.5" fill="white" fill-opacity="0.84"/>
<circle cx="1037.3" cy="621.0" r="13.5" fill="#7A3CE8" fill-opacity="0.66" stroke="#111" stroke-width="2.5"/>
<text x="1037.3" y="628.0" text-anchor="middle" font-family="Arial, Helvetica, sans-serif" font-size="21" font-weight="800" fill="white" stroke="#111" stroke-width="3" paint-order="stroke">2</text>
<circle cx="1053.4" cy="569.4" r="13.5" fill="white" fill-opacity="0.84"/>
<circle cx="1053.4" cy="569.4" r="10.5" fill="#7A3CE8" fill-opacity="0.66" stroke="#111" stroke-width="2.5"/>
<text x="1053.4" y="576.4" text-anchor="middle" font-family="Arial, Helvetica, sans-serif" font-size="21" font-weight="800" fill="white" stroke="#111" stroke-width="3" paint-order="stroke">3</text>
<circle cx="743.2" cy="429.2" r="15.5" fill="white" fill-opacity="0.84"/>
<circle cx="743.2" cy="429.2" r="12.5" fill="#7A3CE8" fill-opacity="0.66" stroke="#111" stroke-width="2.5"/>
<text x="743.2" y="436.2" text-anchor="middle" font-family="Arial, Helvetica, sans-serif" font-size="21" font-weight="800" fill="white" stroke="#111" stroke-width="3" paint-order="stroke">4</text>
<circle cx="1241.4" cy="402.8" r="19.0" fill="white" fill-opacity="0.84"/>
<circle cx="1241.4" cy="402.8" r="16.0" fill="#7A3CE8" fill-opacity="0.66" stroke="#111" stroke-width="2.5"/>
<text x="1241.4" y="409.8" text-anchor="middle" font-family="Arial, Helvetica, sans-serif" font-size="21" font-weight="800" fill="white" stroke="#111" stroke-width="3" paint-order="stroke">5</text>
<circle cx="1097.1" cy="572.4" r="18.1" fill="white" fill-opacity="0.84"/>
<circle cx="1097.1" cy="572.4" r="15.1" fill="#7A3CE8" fill-opacity="0.66" stroke="#111" stroke-width="2.5"/>
<text x="1097.1" y="579.4" text-anchor="middle" font-family="Arial, Helvetica, sans-serif" font-size="21" font-weight="800" fill="white" stroke="#111" stroke-width="3" paint-order="stroke">6</text>
<circle cx="1129.3" cy="602.4" r="15.1" fill="white" fill-opacity="0.84"/>
<circle cx="1129.3" cy="602.4" r="12.1" fill="#7A3CE8" fill-opacity="0.66" stroke="#111" stroke-width="2.5"/>
<text x="1129.3" y="609.4" text-anchor="middle" font-family="Arial, Helvetica, sans-serif" font-size="21" font-weight="800" fill="white" stroke="#111" stroke-width="3" paint-order="stroke">7</text>
<circle cx="827.3" cy="546.1" r="16.8" fill="white" fill-opacity="0.84"/>
<circle cx="827.3" cy="546.1" r="13.8" fill="#7A3CE8" fill-opacity="0.66" stroke="#111" stroke-width="2.5"/>
<text x="827.3" y="553.1" text-anchor="middle" font-family="Arial, Helvetica, sans-serif" font-size="21" font-weight="800" fill="white" stroke="#111" stroke-width="3" paint-order="stroke">8</text>
<circle cx="968.1" cy="604.0" r="15.9" fill="white" fill-opacity="0.84"/>
<circle cx="968.1" cy="604.0" r="12.9" fill="#7A3CE8" fill-opacity="0.66" stroke="#111" stroke-width="2.5"/>
<text x="968.1" y="611.0" text-anchor="middle" font-family="Arial, Helvetica, sans-serif" font-size="21" font-weight="800" fill="white" stroke="#111" stroke-width="3" paint-order="stroke">9</text>
<circle cx="919.7" cy="657.6" r="16.0" fill="white" fill-opacity="0.84"/>
<circle cx="919.7" cy="657.6" r="13.0" fill="#7A3CE8" fill-opacity="0.66" stroke="#111" stroke-width="2.5"/>
<text x="919.7" y="664.6" text-anchor="middle" font-family="Arial, Helvetica, sans-serif" font-size="21" font-weight="800" fill="white" stroke="#111" stroke-width="3" paint-order="stroke">10</text>
<circle cx="786.5" cy="486.9" r="18.1" fill="white" fill-opacity="0.84"/>
<circle cx="786.5" cy="486.9" r="15.1" fill="#7A3CE8" fill-opacity="0.66" stroke="#111" stroke-width="2.5"/>
<text x="786.5" y="493.9" text-anchor="middle" font-family="Arial, Helvetica, sans-serif" font-size="21" font-weight="800" fill="white" stroke="#111" stroke-width="3" paint-order="stroke">11</text>
<circle cx="1031.6" cy="573.0" r="19.5" fill="white" fill-opacity="0.84"/>
<circle cx="1031.6" cy="573.0" r="16.5" fill="#7A3CE8" fill-opacity="0.66" stroke="#111" stroke-width="2.5"/>
<text x="1031.6" y="580.0" text-anchor="middle" font-family="Arial, Helvetica, sans-serif" font-size="21" font-weight="800" fill="white" stroke="#111" stroke-width="3" paint-order="stroke">12</text>
<circle cx="1258.3" cy="514.3" r="17.6" fill="white" fill-opacity="0.84"/>
<circle cx="1258.3" cy="514.3" r="14.6" fill="#7A3CE8" fill-opacity="0.66" stroke="#111" stroke-width="2.5"/>
<text x="1258.3" y="521.3" text-anchor="middle" font-family="Arial, Helvetica, sans-serif" font-size="21" font-weight="800" fill="white" stroke="#111" stroke-width="3" paint-order="stroke">13</text>
<circle cx="1100.1" cy="587.4" r="18.9" fill="white" fill-opacity="0.84"/>
<circle cx="1100.1" cy="587.4" r="15.9" fill="#7A3CE8" fill-opacity="0.66" stroke="#111" stroke-width="2.5"/>
<text x="1100.1" y="594.4" text-anchor="middle" font-family="Arial, Helvetica, sans-serif" font-size="21" font-weight="800" fill="white" stroke="#111" stroke-width="3" paint-order="stroke">14</text>
<circle cx="1180.3" cy="543.2" r="15.1" fill="white" fill-opacity="0.84"/>
<circle cx="1180.3" cy="543.2" r="12.1" fill="#7A3CE8" fill-opacity="0.66" stroke="#111" stroke-width="2.5"/>
<text x="1180.3" y="550.2" text-anchor="middle" font-family="Arial, Helvetica, sans-serif" font-size="21" font-weight="800" fill="white" stroke="#111" stroke-width="3" paint-order="stroke">15</text>
<circle cx="1230.8" cy="570.0" r="18.2" fill="white" fill-opacity="0.84"/>
<circle cx="1230.8" cy="570.0" r="15.2" fill="#7A3CE8" fill-opacity="0.66" stroke="#111" stroke-width="2.5"/>
<text x="1230.8" y="577.0" text-anchor="middle" font-family="Arial, Helvetica, sans-serif" font-size="21" font-weight="800" fill="white" stroke="#111" stroke-width="3" paint-order="stroke">16</text>
<circle cx="1123.1" cy="572.1" r="20.1" fill="white" fill-opacity="0.84"/>
<circle cx="1123.1" cy="572.1" r="17.1" fill="#7A3CE8" fill-opacity="0.66" stroke="#111" stroke-width="2.5"/>
<text x="1123.1" y="579.1" text-anchor="middle" font-family="Arial, Helvetica, sans-serif" font-size="21" font-weight="800" fill="white" stroke="#111" stroke-width="3" paint-order="stroke">17</text>
<circle cx="1158.2" cy="616.2" r="18.0" fill="white" fill-opacity="0.84"/>
<circle cx="1158.2" cy="616.2" r="15.0" fill="#7A3CE8" fill-opacity="0.66" stroke="#111" stroke-width="2.5"/>
<text x="1158.2" y="623.2" text-anchor="middle" font-family="Arial, Helvetica, sans-serif" font-size="21" font-weight="800" fill="white" stroke="#111" stroke-width="3" paint-order="stroke">18</text>
<circle cx="1091.0" cy="618.2" r="15.8" fill="white" fill-opacity="0.84"/>
<circle cx="1091.0" cy="618.2" r="12.8" fill="#7A3CE8" fill-opacity="0.66" stroke="#111" stroke-width="2.5"/>
<text x="1091.0" y="625.2" text-anchor="middle" font-family="Arial, Helvetica, sans-serif" font-size="21" font-weight="800" fill="white" stroke="#111" stroke-width="3" paint-order="stroke">19</text>
<circle cx="1104.2" cy="505.0" r="17.7" fill="white" fill-opacity="0.84"/>
<circle cx="1104.2" cy="505.0" r="14.7" fill="#7A3CE8" fill-opacity="0.66" stroke="#111" stroke-width="2.5"/>
<text x="1104.2" y="512.0" text-anchor="middle" font-family="Arial, Helvetica, sans-serif" font-size="21" font-weight="800" fill="white" stroke="#111" stroke-width="3" paint-order="stroke">20</text>
<circle cx="1156.3" cy="531.6" r="18.7" fill="white" fill-opacity="0.84"/>
<circle cx="1156.3" cy="531.6" r="15.7" fill="#7A3CE8" fill-opacity="0.66" stroke="#111" stroke-width="2.5"/>
<text x="1156.3" y="538.6" text-anchor="middle" font-family="Arial, Helvetica, sans-serif" font-size="21" font-weight="800" fill="white" stroke="#111" stroke-width="3" paint-order="stroke">21</text>
<circle cx="1131.5" cy="666.0" r="20.3" fill="white" fill-opacity="0.84"/>
<circle cx="1131.5" cy="666.0" r="17.3" fill="#7A3CE8" fill-opacity="0.66" stroke="#111" stroke-width="2.5"/>
<text x="1131.5" y="673.0" text-anchor="middle" font-family="Arial, Helvetica, sans-serif" font-size="21" font-weight="800" fill="white" stroke="#111" stroke-width="3" paint-order="stroke">22</text>
<circle cx="1121.9" cy="535.0" r="18.3" fill="white" fill-opacity="0.84"/>
<circle cx="1121.9" cy="535.0" r="15.3" fill="#7A3CE8" fill-opacity="0.66" stroke="#111" stroke-width="2.5"/>
<text x="1121.9" y="542.0" text-anchor="middle" font-family="Arial, Helvetica, sans-serif" font-size="21" font-weight="800" fill="white" stroke="#111" stroke-width="3" paint-order="stroke">23</text>
<circle cx="1181.3" cy="558.0" r="17.6" fill="white" fill-opacity="0.84"/>
<circle cx="1181.3" cy="558.0" r="14.6" fill="#7A3CE8" fill-opacity="0.66" stroke="#111" stroke-width="2.5"/>
<text x="1181.3" y="565.0" text-anchor="middle" font-family="Arial, Helvetica, sans-serif" font-size="21" font-weight="800" fill="white" stroke="#111" stroke-width="3" paint-order="stroke">24</text>
<circle cx="1132.0" cy="630.2" r="18.6" fill="white" fill-opacity="0.84"/>
<circle cx="1132.0" cy="630.2" r="15.6" fill="#7A3CE8" fill-opacity="0.66" stroke="#111" stroke-width="2.5"/>
<text x="1132.0" y="637.2" text-anchor="middle" font-family="Arial, Helvetica, sans-serif" font-size="21" font-weight="800" fill="white" stroke="#111" stroke-width="3" paint-order="stroke">25</text>
<circle cx="1060.7" cy="607.4" r="17.9" fill="white" fill-opacity="0.84"/>
<circle cx="1060.7" cy="607.4" r="14.9" fill="#7A3CE8" fill-opacity="0.66" stroke="#111" stroke-width="2.5"/>
<text x="1060.7" y="614.4" text-anchor="middle" font-family="Arial, Helvetica, sans-serif" font-size="21" font-weight="800" fill="white" stroke="#111" stroke-width="3" paint-order="stroke">26</text>
<circle cx="1147.2" cy="619.0" r="17.8" fill="white" fill-opacity="0.84"/>
<circle cx="1147.2" cy="619.0" r="14.8" fill="#7A3CE8" fill-opacity="0.66" stroke="#111" stroke-width="2.5"/>
<text x="1147.2" y="626.0" text-anchor="middle" font-family="Arial, Helvetica, sans-serif" font-size="21" font-weight="800" fill="white" stroke="#111" stroke-width="3" paint-order="stroke">27</text>
<circle cx="1141.7" cy="577.3" r="17.2" fill="white" fill-opacity="0.84"/>
<circle cx="1141.7" cy="577.3" r="14.2" fill="#7A3CE8" fill-opacity="0.66" stroke="#111" stroke-width="2.5"/>
<text x="1141.7" y="584.3" text-anchor="middle" font-family="Arial, Helvetica, sans-serif" font-size="21" font-weight="800" fill="white" stroke="#111" stroke-width="3" paint-order="stroke">28</text>
<circle cx="964.2" cy="571.6" r="17.1" fill="white" fill-opacity="0.84"/>
<circle cx="964.2" cy="571.6" r="14.1" fill="#7A3CE8" fill-opacity="0.66" stroke="#111" stroke-width="2.5"/>
<text x="964.2" y="578.6" text-anchor="middle" font-family="Arial, Helvetica, sans-serif" font-size="21" font-weight="800" fill="white" stroke="#111" stroke-width="3" paint-order="stroke">29</text>
<circle cx="915.7" cy="616.8" r="17.0" fill="white" fill-opacity="0.84"/>
<circle cx="915.7" cy="616.8" r="14.0" fill="#7A3CE8" fill-opacity="0.66" stroke="#111" stroke-width="2.5"/>
<text x="915.7" y="623.8" text-anchor="middle" font-family="Arial, Helvetica, sans-serif" font-size="21" font-weight="800" fill="white" stroke="#111" stroke-width="3" paint-order="stroke">30</text>
<circle cx="744.0" cy="466.2" r="17.3" fill="white" fill-opacity="0.84"/>
<circle cx="744.0" cy="466.2" r="14.3" fill="#7A3CE8" fill-opacity="0.66" stroke="#111" stroke-width="2.5"/>
<text x="744.0" y="473.2" text-anchor="middle" font-family="Arial, Helvetica, sans-serif" font-size="21" font-weight="800" fill="white" stroke="#111" stroke-width="3" paint-order="stroke">31</text>
<circle cx="696.8" cy="453.8" r="15.7" fill="white" fill-opacity="0.84"/>
<circle cx="696.8" cy="453.8" r="12.7" fill="#7A3CE8" fill-opacity="0.66" stroke="#111" stroke-width="2.5"/>
<text x="696.8" y="460.8" text-anchor="middle" font-family="Arial, Helvetica, sans-serif" font-size="21" font-weight="800" fill="white" stroke="#111" stroke-width="3" paint-order="stroke">32</text>
<circle cx="1180.9" cy="620.0" r="17.7" fill="white" fill-opacity="0.84"/>
<circle cx="1180.9" cy="620.0" r="14.7" fill="#7A3CE8" fill-opacity="0.66" stroke="#111" stroke-width="2.5"/>
<text x="1180.9" y="627.0" text-anchor="middle" font-family="Arial, Helvetica, sans-serif" font-size="21" font-weight="800" fill="white" stroke="#111" stroke-width="3" paint-order="stroke">33</text>
<circle cx="1158.1" cy="677.1" r="15.7" fill="white" fill-opacity="0.84"/>
<circle cx="1158.1" cy="677.1" r="12.7" fill="#7A3CE8" fill-opacity="0.66" stroke="#111" stroke-width="2.5"/>
<text x="1158.1" y="684.1" text-anchor="middle" font-family="Arial, Helvetica, sans-serif" font-size="21" font-weight="800" fill="white" stroke="#111" stroke-width="3" paint-order="stroke">34</text>
<circle cx="1145.6" cy="586.3" r="17.4" fill="white" fill-opacity="0.84"/>
<circle cx="1145.6" cy="586.3" r="14.4" fill="#7A3CE8" fill-opacity="0.66" stroke="#111" stroke-width="2.5"/>
<text x="1145.6" y="593.3" text-anchor="middle" font-family="Arial, Helvetica, sans-serif" font-size="21" font-weight="800" fill="white" stroke="#111" stroke-width="3" paint-order="stroke">35</text>
<circle cx="1157.4" cy="561.9" r="19.8" fill="white" fill-opacity="0.84"/>
<circle cx="1157.4" cy="561.9" r="16.8" fill="#7A3CE8" fill-opacity="0.66" stroke="#111" stroke-width="2.5"/>
<text x="1157.4" y="568.9" text-anchor="middle" font-family="Arial, Helvetica, sans-serif" font-size="21" font-weight="800" fill="white" stroke="#111" stroke-width="3" paint-order="stroke">36</text>
<circle cx="1118.5" cy="628.7" r="14.8" fill="white" fill-opacity="0.84"/>
<circle cx="1118.5" cy="628.7" r="11.8" fill="#7A3CE8" fill-opacity="0.66" stroke="#111" stroke-width="2.5"/>
<text x="1118.5" y="635.7" text-anchor="middle" font-family="Arial, Helvetica, sans-serif" font-size="21" font-weight="800" fill="white" stroke="#111" stroke-width="3" paint-order="stroke">37</text>
<circle cx="1221.6" cy="627.5" r="12.4" fill="white" fill-opacity="0.84"/>
<circle cx="1221.6" cy="627.5" r="9.4" fill="#7A3CE8" fill-opacity="0.66" stroke="#111" stroke-width="2.5"/>
<text x="1221.6" y="634.5" text-anchor="middle" font-family="Arial, Helvetica, sans-serif" font-size="21" font-weight="800" fill="white" stroke="#111" stroke-width="3" paint-order="stroke">38</text>
<circle cx="1251.8" cy="618.8" r="17.4" fill="white" fill-opacity="0.84"/>
<circle cx="1251.8" cy="618.8" r="14.4" fill="#7A3CE8" fill-opacity="0.66" stroke="#111" stroke-width="2.5"/>
<text x="1251.8" y="625.8" text-anchor="middle" font-family="Arial, Helvetica, sans-serif" font-size="21" font-weight="800" fill="white" stroke="#111" stroke-width="3" paint-order="stroke">39</text>
<circle cx="1144.6" cy="574.9" r="19.6" fill="white" fill-opacity="0.84"/>
<circle cx="1144.6" cy="574.9" r="16.6" fill="#7A3CE8" fill-opacity="0.66" stroke="#111" stroke-width="2.5"/>
<text x="1144.6" y="581.9" text-anchor="middle" font-family="Arial, Helvetica, sans-serif" font-size="21" font-weight="800" fill="white" stroke="#111" stroke-width="3" paint-order="stroke">40</text>
<circle cx="1180.5" cy="631.1" r="17.3" fill="white" fill-opacity="0.84"/>
<circle cx="1180.5" cy="631.1" r="14.3" fill="#7A3CE8" fill-opacity="0.66" stroke="#111" stroke-width="2.5"/>
<text x="1180.5" y="638.1" text-anchor="middle" font-family="Arial, Helvetica, sans-serif" font-size="21" font-weight="800" fill="white" stroke="#111" stroke-width="3" paint-order="stroke">41</text>
<circle cx="1250.6" cy="599.4" r="17.8" fill="white" fill-opacity="0.84"/>
<circle cx="1250.6" cy="599.4" r="14.8" fill="#7A3CE8" fill-opacity="0.66" stroke="#111" stroke-width="2.5"/>
<text x="1250.6" y="606.4" text-anchor="middle" font-family="Arial, Helvetica, sans-serif" font-size="21" font-weight="800" fill="white" stroke="#111" stroke-width="3" paint-order="stroke">42</text>
<circle cx="1192.8" cy="606.6" r="16.8" fill="white" fill-opacity="0.84"/>
<circle cx="1192.8" cy="606.6" r="13.8" fill="#7A3CE8" fill-opacity="0.66" stroke="#111" stroke-width="2.5"/>
<text x="1192.8" y="613.6" text-anchor="middle" font-family="Arial, Helvetica, sans-serif" font-size="21" font-weight="800" fill="white" stroke="#111" stroke-width="3" paint-order="stroke">43</text>
<circle cx="1139.0" cy="610.6" r="17.1" fill="white" fill-opacity="0.84"/>
<circle cx="1139.0" cy="610.6" r="14.1" fill="#7A3CE8" fill-opacity="0.66" stroke="#111" stroke-width="2.5"/>
<text x="1139.0" y="617.6" text-anchor="middle" font-family="Arial, Helvetica, sans-serif" font-size="21" font-weight="800" fill="white" stroke="#111" stroke-width="3" paint-order="stroke">44</text>
<circle cx="1143.0" cy="534.9" r="17.9" fill="white" fill-opacity="0.84"/>
<circle cx="1143.0" cy="534.9" r="14.9" fill="#7A3CE8" fill-opacity="0.66" stroke="#111" stroke-width="2.5"/>
<text x="1143.0" y="541.9" text-anchor="middle" font-family="Arial, Helvetica, sans-serif" font-size="21" font-weight="800" fill="white" stroke="#111" stroke-width="3" paint-order="stroke">45</text>
<circle cx="1148.1" cy="523.3" r="16.5" fill="white" fill-opacity="0.84"/>
<circle cx="1148.1" cy="523.3" r="13.5" fill="#7A3CE8" fill-opacity="0.66" stroke="#111" stroke-width="2.5"/>
<text x="1148.1" y="530.3" text-anchor="middle" font-family="Arial, Helvetica, sans-serif" font-size="21" font-weight="800" fill="white" stroke="#111" stroke-width="3" paint-order="stroke">46</text>
<circle cx="1164.0" cy="684.4" r="17.8" fill="white" fill-opacity="0.84"/>
<circle cx="1164.0" cy="684.4" r="14.8" fill="#7A3CE8" fill-opacity="0.66" stroke="#111" stroke-width="2.5"/>
<text x="1164.0" y="691.4" text-anchor="middle" font-family="Arial, Helvetica, sans-serif" font-size="21" font-weight="800" fill="white" stroke="#111" stroke-width="3" paint-order="stroke">47</text>
<circle cx="1134.6" cy="755.0" r="17.4" fill="white" fill-opacity="0.84"/>
<circle cx="1134.6" cy="755.0" r="14.4" fill="#7A3CE8" fill-opacity="0.66" stroke="#111" stroke-width="2.5"/>
<text x="1134.6" y="762.0" text-anchor="middle" font-family="Arial, Helvetica, sans-serif" font-size="21" font-weight="800" fill="white" stroke="#111" stroke-width="3" paint-order="stroke">48</text>
<circle cx="995.1" cy="675.7" r="11.5" fill="white" fill-opacity="0.84"/>
<circle cx="995.1" cy="675.7" r="8.5" fill="#7A3CE8" fill-opacity="0.66" stroke="#111" stroke-width="2.5"/>
<text x="995.1" y="682.7" text-anchor="middle" font-family="Arial, Helvetica, sans-serif" font-size="21" font-weight="800" fill="white" stroke="#111" stroke-width="3" paint-order="stroke">49</text>
<circle cx="978.0" cy="673.7" r="16.4" fill="white" fill-opacity="0.84"/>
<circle cx="978.0" cy="673.7" r="13.4" fill="#7A3CE8" fill-opacity="0.66" stroke="#111" stroke-width="2.5"/>
<text x="978.0" y="680.7" text-anchor="middle" font-family="Arial, Helvetica, sans-serif" font-size="21" font-weight="800" fill="white" stroke="#111" stroke-width="3" paint-order="stroke">50</text>
<circle cx="924.3" cy="723.1" r="22.1" fill="white" fill-opacity="0.84"/>
<circle cx="924.3" cy="723.1" r="19.1" fill="#7A3CE8" fill-opacity="0.66" stroke="#111" stroke-width="2.5"/>
<text x="924.3" y="730.1" text-anchor="middle" font-family="Arial, Helvetica, sans-serif" font-size="21" font-weight="800" fill="white" stroke="#111" stroke-width="3" paint-order="stroke">51</text>
<circle cx="1198.6" cy="768.4" r="11.9" fill="white" fill-opacity="0.84"/>
<circle cx="1198.6" cy="768.4" r="8.9" fill="#7A3CE8" fill-opacity="0.66" stroke="#111" stroke-width="2.5"/>
<text x="1198.6" y="775.4" text-anchor="middle" font-family="Arial, Helvetica, sans-serif" font-size="21" font-weight="800" fill="white" stroke="#111" stroke-width="3" paint-order="stroke">52</text>
<circle cx="1194.0" cy="795.8" r="15.1" fill="white" fill-opacity="0.84"/>
<circle cx="1194.0" cy="795.8" r="12.1" fill="#7A3CE8" fill-opacity="0.66" stroke="#111" stroke-width="2.5"/>
<text x="1194.0" y="802.8" text-anchor="middle" font-family="Arial, Helvetica, sans-serif" font-size="21" font-weight="800" fill="white" stroke="#111" stroke-width="3" paint-order="stroke">53</text>
<circle cx="1147.5" cy="646.4" r="17.9" fill="white" fill-opacity="0.84"/>
<circle cx="1147.5" cy="646.4" r="14.9" fill="#7A3CE8" fill-opacity="0.66" stroke="#111" stroke-width="2.5"/>
<text x="1147.5" y="653.4" text-anchor="middle" font-family="Arial, Helvetica, sans-serif" font-size="21" font-weight="800" fill="white" stroke="#111" stroke-width="3" paint-order="stroke">54</text>
<circle cx="1139.9" cy="549.6" r="19.3" fill="white" fill-opacity="0.84"/>
<circle cx="1139.9" cy="549.6" r="16.3" fill="#7A3CE8" fill-opacity="0.66" stroke="#111" stroke-width="2.5"/>
<text x="1139.9" y="556.6" text-anchor="middle" font-family="Arial, Helvetica, sans-serif" font-size="21" font-weight="800" fill="white" stroke="#111" stroke-width="3" paint-order="stroke">55</text>
<circle cx="1163.6" cy="610.7" r="18.3" fill="white" fill-opacity="0.84"/>
<circle cx="1163.6" cy="610.7" r="15.3" fill="#7A3CE8" fill-opacity="0.66" stroke="#111" stroke-width="2.5"/>
<text x="1163.6" y="617.7" text-anchor="middle" font-family="Arial, Helvetica, sans-serif" font-size="21" font-weight="800" fill="white" stroke="#111" stroke-width="3" paint-order="stroke">56</text>
<circle cx="1165.1" cy="576.4" r="17.6" fill="white" fill-opacity="0.84"/>
<circle cx="1165.1" cy="576.4" r="14.6" fill="#7A3CE8" fill-opacity="0.66" stroke="#111" stroke-width="2.5"/>
<text x="1165.1" y="583.4" text-anchor="middle" font-family="Arial, Helvetica, sans-serif" font-size="21" font-weight="800" fill="white" stroke="#111" stroke-width="3" paint-order="stroke">57</text>
<circle cx="1137.8" cy="510.7" r="18.0" fill="white" fill-opacity="0.84"/>
<circle cx="1137.8" cy="510.7" r="15.0" fill="#7A3CE8" fill-opacity="0.66" stroke="#111" stroke-width="2.5"/>
<text x="1137.8" y="517.7" text-anchor="middle" font-family="Arial, Helvetica, sans-serif" font-size="21" font-weight="800" fill="white" stroke="#111" stroke-width="3" paint-order="stroke">58</text>
<circle cx="1182.7" cy="569.5" r="16.8" fill="white" fill-opacity="0.84"/>
<circle cx="1182.7" cy="569.5" r="13.8" fill="#7A3CE8" fill-opacity="0.66" stroke="#111" stroke-width="2.5"/>
<text x="1182.7" y="576.5" text-anchor="middle" font-family="Arial, Helvetica, sans-serif" font-size="21" font-weight="800" fill="white" stroke="#111" stroke-width="3" paint-order="stroke">59</text>
<circle cx="1165.3" cy="634.0" r="16.6" fill="white" fill-opacity="0.84"/>
<circle cx="1165.3" cy="634.0" r="13.6" fill="#7A3CE8" fill-opacity="0.66" stroke="#111" stroke-width="2.5"/>
<text x="1165.3" y="641.0" text-anchor="middle" font-family="Arial, Helvetica, sans-serif" font-size="21" font-weight="800" fill="white" stroke="#111" stroke-width="3" paint-order="stroke">60</text>
<circle cx="1151.7" cy="603.7" r="17.4" fill="white" fill-opacity="0.84"/>
<circle cx="1151.7" cy="603.7" r="14.4" fill="#7A3CE8" fill-opacity="0.66" stroke="#111" stroke-width="2.5"/>
<text x="1151.7" y="610.7" text-anchor="middle" font-family="Arial, Helvetica, sans-serif" font-size="21" font-weight="800" fill="white" stroke="#111" stroke-width="3" paint-order="stroke">61</text>
<circle cx="1160.5" cy="639.6" r="15.8" fill="white" fill-opacity="0.84"/>
<circle cx="1160.5" cy="639.6" r="12.8" fill="#7A3CE8" fill-opacity="0.66" stroke="#111" stroke-width="2.5"/>
<text x="1160.5" y="646.6" text-anchor="middle" font-family="Arial, Helvetica, sans-serif" font-size="21" font-weight="800" fill="white" stroke="#111" stroke-width="3" paint-order="stroke">62</text>
<circle cx="1131.6" cy="635.4" r="17.5" fill="white" fill-opacity="0.84"/>
<circle cx="1131.6" cy="635.4" r="14.5" fill="#7A3CE8" fill-opacity="0.66" stroke="#111" stroke-width="2.5"/>
<text x="1131.6" y="642.4" text-anchor="middle" font-family="Arial, Helvetica, sans-serif" font-size="21" font-weight="800" fill="white" stroke="#111" stroke-width="3" paint-order="stroke">63</text>
<circle cx="1132.1" cy="630.4" r="19.0" fill="white" fill-opacity="0.84"/>
<circle cx="1132.1" cy="630.4" r="16.0" fill="#7A3CE8" fill-opacity="0.66" stroke="#111" stroke-width="2.5"/>
<text x="1132.1" y="637.4" text-anchor="middle" font-family="Arial, Helvetica, sans-serif" font-size="21" font-weight="800" fill="white" stroke="#111" stroke-width="3" paint-order="stroke">64</text>
<circle cx="1006.8" cy="706.7" r="17.8" fill="white" fill-opacity="0.84"/>
<circle cx="1006.8" cy="706.7" r="14.8" fill="#7A3CE8" fill-opacity="0.66" stroke="#111" stroke-width="2.5"/>
<text x="1006.8" y="713.7" text-anchor="middle" font-family="Arial, Helvetica, sans-serif" font-size="21" font-weight="800" fill="white" stroke="#111" stroke-width="3" paint-order="stroke">65</text>
<circle cx="1117.5" cy="628.1" r="17.3" fill="white" fill-opacity="0.84"/>
<circle cx="1117.5" cy="628.1" r="14.3" fill="#7A3CE8" fill-opacity="0.66" stroke="#111" stroke-width="2.5"/>
<text x="1117.5" y="635.1" text-anchor="middle" font-family="Arial, Helvetica, sans-serif" font-size="21" font-weight="800" fill="white" stroke="#111" stroke-width="3" paint-order="stroke">66</text>
<circle cx="846.6" cy="723.9" r="15.8" fill="white" fill-opacity="0.84"/>
<circle cx="846.6" cy="723.9" r="12.8" fill="#7A3CE8" fill-opacity="0.66" stroke="#111" stroke-width="2.5"/>
<text x="846.6" y="730.9" text-anchor="middle" font-family="Arial, Helvetica, sans-serif" font-size="21" font-weight="800" fill="white" stroke="#111" stroke-width="3" paint-order="stroke">67</text>
<circle cx="918.2" cy="681.4" r="17.0" fill="white" fill-opacity="0.84"/>
<circle cx="918.2" cy="681.4" r="14.0" fill="#7A3CE8" fill-opacity="0.66" stroke="#111" stroke-width="2.5"/>
<text x="918.2" y="688.4" text-anchor="middle" font-family="Arial, Helvetica, sans-serif" font-size="21" font-weight="800" fill="white" stroke="#111" stroke-width="3" paint-order="stroke">68</text>
<circle cx="787.2" cy="592.1" r="13.1" fill="white" fill-opacity="0.84"/>
<circle cx="787.2" cy="592.1" r="10.1" fill="#7A3CE8" fill-opacity="0.66" stroke="#111" stroke-width="2.5"/>
<text x="787.2" y="599.1" text-anchor="middle" font-family="Arial, Helvetica, sans-serif" font-size="21" font-weight="800" fill="white" stroke="#111" stroke-width="3" paint-order="stroke">69</text>
<circle cx="792.9" cy="602.9" r="13.7" fill="white" fill-opacity="0.84"/>
<circle cx="792.9" cy="602.9" r="10.7" fill="#7A3CE8" fill-opacity="0.66" stroke="#111" stroke-width="2.5"/>
<text x="792.9" y="609.9" text-anchor="middle" font-family="Arial, Helvetica, sans-serif" font-size="21" font-weight="800" fill="white" stroke="#111" stroke-width="3" paint-order="stroke">70</text>
<circle cx="1121.4" cy="608.1" r="21.1" fill="white" fill-opacity="0.84"/>
<circle cx="1121.4" cy="608.1" r="18.1" fill="#7A3CE8" fill-opacity="0.66" stroke="#111" stroke-width="2.5"/>
<text x="1121.4" y="615.1" text-anchor="middle" font-family="Arial, Helvetica, sans-serif" font-size="21" font-weight="800" fill="white" stroke="#111" stroke-width="3" paint-order="stroke">71</text>
<circle cx="956.3" cy="604.9" r="18.2" fill="white" fill-opacity="0.84"/>
<circle cx="956.3" cy="604.9" r="15.2" fill="#7A3CE8" fill-opacity="0.66" stroke="#111" stroke-width="2.5"/>
<text x="956.3" y="611.9" text-anchor="middle" font-family="Arial, Helvetica, sans-serif" font-size="21" font-weight="800" fill="white" stroke="#111" stroke-width="3" paint-order="stroke">72</text>
<circle cx="1097.6" cy="621.1" r="16.6" fill="white" fill-opacity="0.84"/>
<circle cx="1097.6" cy="621.1" r="13.6" fill="#7A3CE8" fill-opacity="0.66" stroke="#111" stroke-width="2.5"/>
<text x="1097.6" y="628.1" text-anchor="middle" font-family="Arial, Helvetica, sans-serif" font-size="21" font-weight="800" fill="white" stroke="#111" stroke-width="3" paint-order="stroke">73</text>
<circle cx="910.9" cy="653.9" r="18.7" fill="white" fill-opacity="0.84"/>
<circle cx="910.9" cy="653.9" r="15.7" fill="#7A3CE8" fill-opacity="0.66" stroke="#111" stroke-width="2.5"/>
<text x="910.9" y="660.9" text-anchor="middle" font-family="Arial, Helvetica, sans-serif" font-size="21" font-weight="800" fill="white" stroke="#111" stroke-width="3" paint-order="stroke">74</text>
<circle cx="1136.3" cy="633.7" r="17.2" fill="white" fill-opacity="0.84"/>
<circle cx="1136.3" cy="633.7" r="14.2" fill="#7A3CE8" fill-opacity="0.66" stroke="#111" stroke-width="2.5"/>
<text x="1136.3" y="640.7" text-anchor="middle" font-family="Arial, Helvetica, sans-serif" font-size="21" font-weight="800" fill="white" stroke="#111" stroke-width="3" paint-order="stroke">75</text>
<circle cx="1109.7" cy="574.3" r="17.2" fill="white" fill-opacity="0.84"/>
<circle cx="1109.7" cy="574.3" r="14.2" fill="#7A3CE8" fill-opacity="0.66" stroke="#111" stroke-width="2.5"/>
<text x="1109.7" y="581.3" text-anchor="middle" font-family="Arial, Helvetica, sans-serif" font-size="21" font-weight="800" fill="white" stroke="#111" stroke-width="3" paint-order="stroke">76</text>
<circle cx="1107.7" cy="536.5" r="17.1" fill="white" fill-opacity="0.84"/>
<circle cx="1107.7" cy="536.5" r="14.1" fill="#7A3CE8" fill-opacity="0.66" stroke="#111" stroke-width="2.5"/>
<text x="1107.7" y="543.5" text-anchor="middle" font-family="Arial, Helvetica, sans-serif" font-size="21" font-weight="800" fill="white" stroke="#111" stroke-width="3" paint-order="stroke">77</text>
<circle cx="1062.6" cy="573.5" r="19.7" fill="white" fill-opacity="0.84"/>
<circle cx="1062.6" cy="573.5" r="16.7" fill="#7A3CE8" fill-opacity="0.66" stroke="#111" stroke-width="2.5"/>
<text x="1062.6" y="580.5" text-anchor="middle" font-family="Arial, Helvetica, sans-serif" font-size="21" font-weight="800" fill="white" stroke="#111" stroke-width="3" paint-order="stroke">78</text>
<rect x="16" y="1094" width="1120" height="168" rx="8" fill="white" fill-opacity="0.92" stroke="#111" stroke-opacity="0.22"/>
<text x="36.0" y="1128.0" font-family="Arial, Helvetica, sans-serif" font-size="24" font-weight="600" fill="#111">K13 / k13_2.asc block 61 | dress-1-1-r.png | RT NA ms | 78 fixations</text>
<text x="36.0" y="1159.0" font-family="Arial, Helvetica, sans-serif" font-size="24" font-weight="600" fill="#111">numbers show fixation order; dot size shows fixation duration</text>
<circle cx="42" cy="1198" r="11" fill="#005DFF" fill-opacity="0.64" stroke="#111" stroke-width="2"/>
<text x="62.0" y="1206.0" font-family="Arial, Helvetica, sans-serif" font-size="22" font-weight="500" fill="#111">blue: before speech onset</text>
<circle cx="42" cy="1232" r="11" fill="#FF8A00" fill-opacity="0.64" stroke="#111" stroke-width="2"/>
<text x="62.0" y="1240.0" font-family="Arial, Helvetica, sans-serif" font-size="22" font-weight="500" fill="#111">orange: first 2000 ms after onset</text>
</svg>
