<svg xmlns="http://www.w3.org/2000/svg" width="900" height="560" viewBox="0 0 900 560">
<rect width="100%" height="100%" fill="white"/>
<style>
text { font-family: Arial, Helvetica, sans-serif; fill: #222; }
.title { font-size: 21px; font-weight: 700; }
.subtitle { font-size: 13px; fill: #555; }
.axis { stroke: #222; stroke-width: 1; }
.grid { stroke: #dddddd; stroke-width: 1; }
.tick { font-size: 12px; fill: #333; }
.label { font-size: 14px; fill: #222; }
.legend { font-size: 13px; fill: #222; }
.onset { font-size: 13px; font-weight: 700; fill: #222; }
</style>
<text class="title" x="453.0" y="30" text-anchor="middle">Passive PAV Trials: SOL greater than cell mean</text>
<text class="subtitle" x="453.0" y="51" text-anchor="middle">n = 27; PAV mean SOL = 2539 ms; dashed line = group mean SOL; plotted to +1500 ms</text>
<line class="grid" x1="86" x2="820" y1="470.00" y2="470.00"/>
<text class="tick" x="76" y="474.00" text-anchor="end">0.0</text>
<line class="grid" x1="86" x2="820" y1="430.20" y2="430.20"/>
<text class="tick" x="76" y="434.20" text-anchor="end">0.1</text>
<line class="grid" x1="86" x2="820" y1="390.40" y2="390.40"/>
<text class="tick" x="76" y="394.40" text-anchor="end">0.2</text>
<line class="grid" x1="86" x2="820" y1="350.60" y2="350.60"/>
<text class="tick" x="76" y="354.60" text-anchor="end">0.3</text>
<line class="grid" x1="86" x2="820" y1="310.80" y2="310.80"/>
<text class="tick" x="76" y="314.80" text-anchor="end">0.4</text>
<line class="grid" x1="86" x2="820" y1="271.00" y2="271.00"/>
<text class="tick" x="76" y="275.00" text-anchor="end">0.5</text>
<line class="grid" x1="86" x2="820" y1="231.20" y2="231.20"/>
<text class="tick" x="76" y="235.20" text-anchor="end">0.6</text>
<line class="grid" x1="86" x2="820" y1="191.40" y2="191.40"/>
<text class="tick" x="76" y="195.40" text-anchor="end">0.7</text>
<line class="grid" x1="86" x2="820" y1="151.60" y2="151.60"/>
<text class="tick" x="76" y="155.60" text-anchor="end">0.8</text>
<line class="grid" x1="86" x2="820" y1="111.80" y2="111.80"/>
<text class="tick" x="76" y="115.80" text-anchor="end">0.9</text>
<line class="grid" x1="86" x2="820" y1="72.00" y2="72.00"/>
<text class="tick" x="76" y="76.00" text-anchor="end">1.0</text>
<line class="grid" x1="86.00" x2="86.00" y1="72" y2="470"/>
<text class="tick" x="86.00" y="492" text-anchor="middle">0</text>
<line class="grid" x1="161.52" x2="161.52" y1="72" y2="470"/>
<text class="tick" x="161.52" y="492" text-anchor="middle">500</text>
<line class="grid" x1="237.04" x2="237.04" y1="72" y2="470"/>
<text class="tick" x="237.04" y="492" text-anchor="middle">1000</text>
<line class="grid" x1="312.56" x2="312.56" y1="72" y2="470"/>
<text class="tick" x="312.56" y="492" text-anchor="middle">1500</text>
<line class="grid" x1="388.09" x2="388.09" y1="72" y2="470"/>
<text class="tick" x="388.09" y="492" text-anchor="middle">2000</text>
<line class="grid" x1="463.61" x2="463.61" y1="72" y2="470"/>
<text class="tick" x="463.61" y="492" text-anchor="middle">2500</text>
<line class="grid" x1="539.13" x2="539.13" y1="72" y2="470"/>
<text class="tick" x="539.13" y="492" text-anchor="middle">3000</text>
<line class="grid" x1="614.65" x2="614.65" y1="72" y2="470"/>
<text class="tick" x="614.65" y="492" text-anchor="middle">3500</text>
<line class="grid" x1="690.17" x2="690.17" y1="72" y2="470"/>
<text class="tick" x="690.17" y="492" text-anchor="middle">4000</text>
<line class="grid" x1="765.69" x2="765.69" y1="72" y2="470"/>
<text class="tick" x="765.69" y="492" text-anchor="middle">4500</text>
<line class="grid" x1="820.07" x2="820.07" y1="72" y2="470"/>
<text class="tick" x="820.07" y="492" text-anchor="middle">4860</text>
<line class="axis" x1="86" x2="820" y1="470" y2="470"/>
<line class="axis" x1="86" x2="86" y1="72" y2="470"/>
<text class="label" x="453.0" y="532" text-anchor="middle">Time from sentence display (ms)</text>
<text class="label" x="22" y="271.0" text-anchor="middle" transform="rotate(-90 22 271.0)">Proportion of Looks</text>
<line x1="593.44" x2="593.44" y1="72" y2="470" stroke="#333333" stroke-width="2" stroke-dasharray="7 6"/>
<rect x="599.44" y="77" width="80" height="22" fill="white" opacity="0.92"/>
<text class="onset" x="605.44" y="92">3360 ms</text>
<polygon points="86.00,222.12 93.55,206.74 101.10,185.63 108.66,209.81 116.21,267.37 123.76,246.22 131.31,234.92 138.86,226.84 146.42,193.41 153.97,173.16 161.52,159.71 169.07,184.11 176.63,186.44 184.18,177.10 191.73,141.68 199.28,118.64 206.83,116.19 214.39,107.49 221.94,116.38 229.49,106.33 237.04,95.30 244.59,90.31 252.15,83.47 259.70,113.00 267.25,137.54 274.80,148.42 282.36,134.97 289.91,138.26 297.46,173.55 305.01,192.87 312.56,216.55 320.12,217.92 327.67,207.79 335.22,212.88 342.77,205.75 350.32,239.61 357.88,253.01 365.43,263.74 372.98,263.74 380.53,274.11 388.09,287.77 395.64,306.30 403.19,316.66 410.74,318.66 418.29,329.72 425.85,296.02 433.40,264.20 440.95,253.81 448.50,222.61 456.05,200.37 463.61,204.12 471.16,215.93 478.71,223.14 486.26,229.18 493.82,229.41 501.37,243.60 508.92,236.42 516.47,219.72 524.02,209.45 531.58,213.76 539.13,231.40 546.68,259.72 554.23,243.49 561.78,216.79 569.34,230.53 576.89,223.68 584.44,219.92 591.99,247.21 599.54,226.49 607.10,195.55 614.65,204.22 622.20,185.00 629.75,171.63 637.31,148.65 644.86,115.59 652.41,125.89 659.96,137.67 667.51,140.90 675.07,150.77 682.62,156.25 690.17,165.94 697.72,142.85 705.27,154.27 712.83,171.14 720.38,215.96 727.93,227.83 735.48,218.79 743.04,197.86 750.59,209.67 758.14,215.54 765.69,215.54 773.24,200.37 780.80,200.51 788.35,183.85 795.90,191.14 803.45,185.63 811.00,186.09 818.56,205.08 818.56,354.61 811.00,339.99 803.45,341.63 795.90,340.24 788.35,337.52 780.80,349.75 773.24,356.37 765.69,370.68 758.14,370.68 750.59,362.41 743.04,348.86 735.48,366.26 727.93,379.03 720.38,365.54 712.83,320.15 705.27,299.87 697.72,286.53 690.17,315.33 682.62,307.92 675.07,299.83 667.51,286.72 659.96,283.46 652.41,265.75 644.86,250.70 637.31,290.75 629.75,320.84 622.20,334.60 614.65,352.52 607.10,348.81 599.54,376.83 591.99,397.98 584.44,366.30 576.89,373.16 569.34,383.40 561.78,371.20 554.23,385.19 546.68,404.92 539.13,376.64 531.58,363.61 524.02,356.73 516.47,368.86 508.92,386.36 501.37,392.74 493.82,381.57 486.26,381.22 478.71,374.87 471.16,367.35 463.61,353.21 456.05,356.37 448.50,371.87 440.95,398.45 433.40,411.06 425.85,428.77 418.29,451.08 410.74,446.81 403.19,446.46 395.64,434.41 388.09,425.81 380.53,415.88 372.98,410.92 365.43,410.92 357.88,400.43 350.32,383.17 342.77,359.25 335.22,365.68 327.67,360.74 320.12,367.12 312.56,363.18 305.01,346.18 297.46,320.69 289.91,277.56 282.36,277.32 274.80,293.94 267.25,281.23 259.70,236.19 252.15,194.37 244.59,210.53 237.04,220.28 229.49,240.51 221.94,254.63 214.39,244.06 206.83,254.23 199.28,261.21 191.73,281.21 184.18,327.17 176.63,336.10 169.07,336.67 161.52,312.13 153.97,322.85 146.42,340.92 138.86,369.40 131.31,384.32 123.76,393.66 116.21,404.94 108.66,356.36 101.10,341.63 93.55,357.07 86.00,374.13" fill="#CC3311" opacity="0.12"/>
<path d="M86.00,298.12 L93.55,281.91 L101.10,263.63 L108.66,283.09 L116.21,336.15 L123.76,319.94 L131.31,309.62 L138.86,298.12 L146.42,267.17 L153.97,248.00 L161.52,235.92 L169.07,260.39 L176.63,261.27 L184.18,252.13 L191.73,211.45 L199.28,189.93 L206.83,185.21 L214.39,175.77 L221.94,185.50 L229.49,173.42 L237.04,157.79 L244.59,150.42 L252.15,138.92 L259.70,174.60 L267.25,209.38 L274.80,221.18 L282.36,206.14 L289.91,207.91 L297.46,247.12 L305.01,269.53 L312.56,289.87 L320.12,292.52 L327.67,284.27 L335.22,289.28 L342.77,282.50 L350.32,311.39 L357.88,326.72 L365.43,337.33 L372.98,337.33 L380.53,345.00 L388.09,356.79 L395.64,370.35 L403.19,381.56 L410.74,382.73 L418.29,390.40 L425.85,362.39 L433.40,337.63 L440.95,326.13 L448.50,297.24 L456.05,278.37 L463.61,278.67 L471.16,291.64 L478.71,299.01 L486.26,305.20 L493.82,305.49 L501.37,318.17 L508.92,311.39 L516.47,294.29 L524.02,283.09 L531.58,288.69 L539.13,304.02 L546.68,332.32 L554.23,314.34 L561.78,294.00 L569.34,306.97 L576.89,298.42 L584.44,293.11 L591.99,322.59 L599.54,301.66 L607.10,272.18 L614.65,278.37 L622.20,259.80 L629.75,246.24 L637.31,219.70 L644.86,183.15 L652.41,195.82 L659.96,210.56 L667.51,213.81 L675.07,225.30 L682.62,232.08 L690.17,240.63 L697.72,214.69 L705.27,227.07 L712.83,245.65 L720.38,290.75 L727.93,303.43 L735.48,292.52 L743.04,273.36 L750.59,286.04 L758.14,293.11 L765.69,293.11 L773.24,278.37 L780.80,275.13 L788.35,260.68 L795.90,265.69 L803.45,263.63 L811.00,263.04 L818.56,279.84" fill="none" stroke="#CC3311" stroke-width="3" stroke-linejoin="round" stroke-linecap="round"/>
<polygon points="86.00,234.54 93.55,246.17 101.10,245.41 108.66,225.75 116.21,173.36 123.76,166.69 131.31,160.31 138.86,192.37 146.42,216.16 153.97,228.14 161.52,229.87 169.07,205.33 176.63,210.80 184.18,230.37 191.73,268.26 199.28,280.79 206.83,287.77 214.39,297.94 221.94,287.37 229.49,307.42 237.04,325.73 244.59,336.72 252.15,370.62 259.70,371.15 267.25,328.25 274.80,301.26 282.36,302.81 289.91,298.34 297.46,277.89 305.01,249.78 312.56,208.84 320.12,198.43 327.67,210.83 335.22,217.17 342.77,199.00 350.32,166.92 357.88,141.57 365.43,131.08 372.98,143.84 380.53,162.14 388.09,156.54 395.64,125.02 403.19,115.17 410.74,118.85 418.29,113.30 425.85,132.46 433.40,142.03 440.95,143.55 448.50,170.13 456.05,185.63 463.61,188.79 471.16,191.01 478.71,195.82 486.26,185.63 493.82,174.36 501.37,171.32 508.92,184.70 516.47,212.03 524.02,206.12 531.58,192.82 539.13,191.90 546.68,182.79 554.23,203.26 561.78,215.54 569.34,215.54 576.89,200.21 584.44,211.52 591.99,200.37 599.54,220.99 607.10,264.10 614.65,266.01 622.20,257.87 629.75,293.51 637.31,329.21 644.86,316.66 652.41,319.64 659.96,315.16 667.51,298.40 675.07,298.40 682.62,296.70 690.17,260.30 697.72,273.38 705.27,277.88 712.83,273.77 720.38,257.92 727.93,247.21 735.48,262.94 743.04,247.40 750.59,230.53 758.14,244.96 765.69,260.85 773.24,262.85 780.80,241.93 788.35,251.84 795.90,263.74 803.45,263.74 811.00,264.56 818.56,250.93 818.56,396.62 811.00,408.93 803.45,410.92 795.90,410.92 788.35,399.83 780.80,389.69 773.24,409.45 765.69,406.74 758.14,394.33 750.59,383.40 743.04,396.02 735.48,402.88 727.93,397.98 720.38,403.78 712.83,415.63 705.27,409.76 697.72,413.67 690.17,403.16 682.62,432.81 675.07,435.23 667.51,435.23 659.96,444.41 652.41,446.42 644.86,446.46 637.31,449.23 629.75,429.51 622.20,401.47 614.65,403.94 607.10,405.85 599.54,367.59 591.99,356.37 584.44,363.50 576.89,354.17 569.34,370.68 561.78,370.68 554.23,353.48 546.68,333.27 539.13,345.38 531.58,343.29 524.02,356.51 516.47,358.86 508.92,339.02 501.37,326.46 493.82,328.13 486.26,341.63 478.71,349.13 471.16,342.74 463.61,337.88 456.05,341.63 448.50,319.39 440.95,288.19 433.40,289.71 425.85,269.80 418.29,242.97 410.74,252.75 403.19,252.30 395.64,258.37 388.09,302.91 380.53,313.82 372.98,289.08 365.43,278.26 357.88,288.99 350.32,308.45 342.77,351.85 335.22,369.64 327.67,363.60 320.12,349.46 312.56,355.56 305.01,394.81 297.46,416.82 289.91,431.16 282.36,435.54 274.80,435.90 267.25,450.19 259.70,464.49 252.15,469.74 244.59,457.05 237.04,447.40 229.49,438.01 221.94,425.62 214.39,434.51 206.83,425.81 199.28,423.36 191.73,408.77 184.18,378.85 176.63,363.04 169.07,357.89 161.52,382.29 153.97,374.00 146.42,362.98 138.86,333.71 131.31,308.58 123.76,316.35 116.21,320.88 108.66,368.13 101.10,395.06 93.55,391.94 86.00,382.34" fill="#0077BB" opacity="0.12"/>
<path d="M86.00,308.44 L93.55,319.05 L101.10,320.23 L108.66,296.94 L116.21,247.12 L123.76,241.52 L131.31,234.44 L138.86,263.04 L146.42,289.57 L153.97,301.07 L161.52,306.08 L169.07,281.61 L176.63,286.92 L184.18,304.61 L191.73,338.51 L199.28,352.07 L206.83,356.79 L214.39,366.23 L221.94,356.50 L229.49,372.71 L237.04,386.57 L244.59,396.89 L252.15,420.18 L259.70,417.82 L267.25,389.22 L274.80,368.58 L282.36,369.17 L289.91,364.75 L297.46,347.36 L305.01,322.30 L312.56,282.20 L320.12,273.95 L327.67,287.21 L335.22,293.41 L342.77,275.42 L350.32,237.69 L357.88,215.28 L365.43,204.67 L372.98,216.46 L380.53,237.98 L388.09,229.73 L395.64,191.69 L403.19,183.73 L410.74,185.80 L418.29,178.13 L425.85,201.13 L433.40,215.87 L440.95,215.87 L448.50,244.76 L456.05,263.63 L463.61,263.33 L471.16,266.87 L478.71,272.47 L486.26,263.63 L493.82,251.25 L501.37,248.89 L508.92,261.86 L516.47,285.45 L524.02,281.32 L531.58,268.05 L539.13,268.64 L546.68,258.03 L554.23,278.37 L561.78,293.11 L569.34,293.11 L576.89,277.19 L584.44,287.51 L591.99,278.37 L599.54,294.29 L607.10,334.97 L614.65,334.97 L622.20,329.67 L629.75,361.51 L637.31,389.22 L644.86,381.56 L652.41,383.03 L659.96,379.79 L667.51,366.81 L675.07,366.81 L682.62,364.75 L690.17,331.73 L697.72,343.52 L705.27,343.82 L712.83,344.70 L720.38,330.85 L727.93,322.59 L735.48,332.91 L743.04,321.71 L750.59,306.97 L758.14,319.64 L765.69,333.80 L773.24,336.15 L780.80,315.81 L788.35,325.84 L795.90,337.33 L803.45,337.33 L811.00,336.74 L818.56,323.77" fill="none" stroke="#0077BB" stroke-width="3" stroke-linejoin="round" stroke-linecap="round"/>
<line x1="655" x2="683" y1="107" y2="107" stroke="#CC3311" stroke-width="3"/>
<text class="legend" x="693" y="111">Agent</text>
<line x1="655" x2="683" y1="129" y2="129" stroke="#0077BB" stroke-width="3"/>
<text class="legend" x="693" y="133">Patient</text>
<line x1="655" x2="683" y1="151" y2="151" stroke="#333333" stroke-width="2" stroke-dasharray="7 6"/>
<text class="legend" x="693" y="155">Group mean SOL</text>
</svg>