<svg xmlns="http://www.w3.org/2000/svg" width="900" height="560" viewBox="0 0 900 560">
<rect width="100%" height="100%" fill="white"/>
<style>
text { font-family: Arial, Helvetica, sans-serif; fill: #222; }
.title { font-size: 21px; font-weight: 700; }
.subtitle { font-size: 13px; fill: #555; }
.axis { stroke: #222; stroke-width: 1; }
.grid { stroke: #dddddd; stroke-width: 1; }
.tick { font-size: 12px; fill: #333; }
.label { font-size: 14px; fill: #222; }
.legend { font-size: 13px; fill: #222; }
.onset { font-size: 13px; font-weight: 700; fill: #222; }
</style>
<text class="title" x="453.0" y="30" text-anchor="middle">Passive AV Trials: SOL less than cell mean</text>
<text class="subtitle" x="453.0" y="51" text-anchor="middle">n = 47; AV mean SOL = 2279 ms; dashed line = group mean SOL; plotted to +1500 ms</text>
<line class="grid" x1="86" x2="820" y1="470.00" y2="470.00"/>
<text class="tick" x="76" y="474.00" text-anchor="end">0.0</text>
<line class="grid" x1="86" x2="820" y1="430.20" y2="430.20"/>
<text class="tick" x="76" y="434.20" text-anchor="end">0.1</text>
<line class="grid" x1="86" x2="820" y1="390.40" y2="390.40"/>
<text class="tick" x="76" y="394.40" text-anchor="end">0.2</text>
<line class="grid" x1="86" x2="820" y1="350.60" y2="350.60"/>
<text class="tick" x="76" y="354.60" text-anchor="end">0.3</text>
<line class="grid" x1="86" x2="820" y1="310.80" y2="310.80"/>
<text class="tick" x="76" y="314.80" text-anchor="end">0.4</text>
<line class="grid" x1="86" x2="820" y1="271.00" y2="271.00"/>
<text class="tick" x="76" y="275.00" text-anchor="end">0.5</text>
<line class="grid" x1="86" x2="820" y1="231.20" y2="231.20"/>
<text class="tick" x="76" y="235.20" text-anchor="end">0.6</text>
<line class="grid" x1="86" x2="820" y1="191.40" y2="191.40"/>
<text class="tick" x="76" y="195.40" text-anchor="end">0.7</text>
<line class="grid" x1="86" x2="820" y1="151.60" y2="151.60"/>
<text class="tick" x="76" y="155.60" text-anchor="end">0.8</text>
<line class="grid" x1="86" x2="820" y1="111.80" y2="111.80"/>
<text class="tick" x="76" y="115.80" text-anchor="end">0.9</text>
<line class="grid" x1="86" x2="820" y1="72.00" y2="72.00"/>
<text class="tick" x="76" y="76.00" text-anchor="end">1.0</text>
<line class="grid" x1="86.00" x2="86.00" y1="72" y2="470"/>
<text class="tick" x="86.00" y="492" text-anchor="middle">0</text>
<line class="grid" x1="201.91" x2="201.91" y1="72" y2="470"/>
<text class="tick" x="201.91" y="492" text-anchor="middle">500</text>
<line class="grid" x1="317.83" x2="317.83" y1="72" y2="470"/>
<text class="tick" x="317.83" y="492" text-anchor="middle">1000</text>
<line class="grid" x1="433.74" x2="433.74" y1="72" y2="470"/>
<text class="tick" x="433.74" y="492" text-anchor="middle">1500</text>
<line class="grid" x1="549.66" x2="549.66" y1="72" y2="470"/>
<text class="tick" x="549.66" y="492" text-anchor="middle">2000</text>
<line class="grid" x1="665.57" x2="665.57" y1="72" y2="470"/>
<text class="tick" x="665.57" y="492" text-anchor="middle">2500</text>
<line class="grid" x1="819.97" x2="819.97" y1="72" y2="470"/>
<text class="tick" x="819.97" y="492" text-anchor="middle">3166</text>
<line class="axis" x1="86" x2="820" y1="470" y2="470"/>
<line class="axis" x1="86" x2="86" y1="72" y2="470"/>
<text class="label" x="453.0" y="532" text-anchor="middle">Time from sentence display (ms)</text>
<text class="label" x="22" y="271.0" text-anchor="middle" transform="rotate(-90 22 271.0)">Proportion of Looks</text>
<line x1="472.26" x2="472.26" y1="72" y2="470" stroke="#333333" stroke-width="2" stroke-dasharray="7 6"/>
<rect x="478.26" y="77" width="80" height="22" fill="white" opacity="0.92"/>
<text class="onset" x="484.26" y="92">1666 ms</text>
<polygon points="86.00,286.49 97.59,271.78 109.18,258.02 120.77,270.82 132.37,261.86 143.96,249.89 155.55,243.94 167.14,240.87 178.73,224.34 190.32,223.31 201.91,205.27 213.51,173.63 225.10,167.45 236.69,147.30 248.28,144.01 259.87,130.07 271.46,113.66 283.05,128.29 294.65,135.17 306.24,133.20 317.83,147.66 329.42,166.80 341.01,170.04 352.60,183.11 364.19,207.25 375.79,201.70 387.38,199.86 398.97,197.68 410.56,200.72 422.15,228.57 433.74,252.34 445.33,264.53 456.93,274.00 468.52,277.98 480.11,271.96 491.70,287.41 503.29,280.34 514.88,281.74 526.47,287.14 538.07,280.03 549.66,254.19 561.25,261.58 572.84,259.67 584.43,257.74 596.02,268.50 607.62,258.40 619.21,244.16 630.80,258.71 642.39,252.96 653.98,256.38 665.57,251.80 677.16,241.85 688.76,266.84 700.35,269.83 711.94,299.76 723.53,297.18 735.12,306.08 746.71,314.85 758.30,281.92 769.90,277.91 781.49,274.29 793.08,284.90 804.67,311.29 816.26,322.22 816.26,420.64 804.67,413.95 793.08,393.60 781.49,381.52 769.90,384.34 758.30,391.51 746.71,412.77 735.12,410.70 723.53,403.34 711.94,404.15 700.35,380.56 688.76,376.44 677.16,356.72 665.57,361.67 653.98,365.89 642.39,366.27 630.80,372.04 619.21,359.49 607.62,370.31 596.02,378.50 584.43,370.64 572.84,369.38 561.25,374.25 549.66,365.03 538.07,385.26 526.47,394.75 514.88,387.62 503.29,389.36 491.70,392.79 480.11,381.82 468.52,383.25 456.93,383.17 445.33,376.04 433.74,365.53 422.15,341.54 410.56,316.89 398.97,311.81 387.38,313.69 375.79,315.24 364.19,323.23 352.60,294.20 341.01,281.85 329.42,278.67 317.83,253.43 306.24,235.03 294.65,236.79 283.05,229.45 271.46,209.19 259.87,225.63 248.28,253.01 236.69,256.16 225.10,280.05 213.51,283.02 201.91,318.10 190.32,338.67 178.73,334.59 167.14,350.59 155.55,359.37 143.96,360.19 132.37,364.82 120.77,375.51 109.18,371.37 97.59,383.36 86.00,395.07" fill="#CC3311" opacity="0.12"/>
<path d="M86.00,340.78 L97.59,327.57 L109.18,314.70 L120.77,323.16 L132.37,313.34 L143.96,305.04 L155.55,301.65 L167.14,295.73 L178.73,279.47 L190.32,280.99 L201.91,261.69 L213.51,228.32 L225.10,223.75 L236.69,201.73 L248.28,198.51 L259.87,177.85 L271.46,161.42 L283.05,178.87 L294.65,185.98 L306.24,184.12 L317.83,200.55 L329.42,222.73 L341.01,225.95 L352.60,238.65 L364.19,265.24 L375.79,258.47 L387.38,256.77 L398.97,254.74 L410.56,258.81 L422.15,285.06 L433.74,308.94 L445.33,320.28 L456.93,328.58 L468.52,330.62 L480.11,326.89 L491.70,340.10 L503.29,334.85 L514.88,334.68 L526.47,340.95 L538.07,332.65 L549.66,309.61 L561.25,317.91 L572.84,314.53 L584.43,314.19 L596.02,323.50 L607.62,314.36 L619.21,301.82 L630.80,315.37 L642.39,309.61 L653.98,311.14 L665.57,306.74 L677.16,299.28 L688.76,321.64 L700.35,325.20 L711.94,351.95 L723.53,350.26 L735.12,358.39 L746.71,363.81 L758.30,336.71 L769.90,331.12 L781.49,327.91 L793.08,339.25 L804.67,362.62 L816.26,371.43" fill="none" stroke="#CC3311" stroke-width="3" stroke-linejoin="round" stroke-linecap="round"/>
<polygon points="86.00,202.76 97.59,215.48 109.18,223.08 120.77,215.95 132.37,221.58 143.96,211.93 155.55,212.20 167.14,216.23 178.73,224.34 190.32,223.07 201.91,231.66 213.51,258.98 225.10,266.80 236.69,301.91 248.28,308.16 259.87,336.55 271.46,358.45 283.05,355.65 294.65,351.22 306.24,366.32 317.83,348.93 329.42,324.58 341.01,317.21 352.60,294.09 364.19,256.67 375.79,242.40 387.38,235.97 398.97,237.59 410.56,235.47 422.15,250.80 433.74,262.33 445.33,267.93 456.93,252.65 468.52,231.21 480.11,227.29 491.70,208.17 503.29,203.85 514.88,216.46 526.47,209.58 538.07,209.10 549.66,217.46 561.25,209.43 572.84,226.06 584.43,248.93 596.02,251.11 607.62,245.60 619.21,250.26 630.80,258.56 642.39,266.29 653.98,259.27 665.57,245.10 677.16,258.51 688.76,243.96 700.35,246.71 711.94,222.26 723.53,232.95 735.12,215.51 746.71,210.96 758.30,232.12 769.90,236.98 781.49,242.70 793.08,240.69 804.67,255.05 816.26,275.29 816.26,385.26 804.67,366.21 793.08,355.51 781.49,354.51 769.90,348.38 758.30,347.82 746.71,322.91 735.12,330.89 723.53,346.31 711.94,337.35 700.35,360.67 688.76,359.35 677.16,371.90 665.57,358.55 653.98,369.10 642.39,376.65 630.80,369.48 619.21,362.19 607.62,358.38 596.02,362.02 584.43,361.49 572.84,337.28 561.25,325.12 549.66,330.30 538.07,321.05 526.47,326.33 514.88,329.60 503.29,316.14 491.70,322.99 480.11,341.47 468.52,340.60 456.93,364.21 445.33,376.70 433.74,374.17 422.15,361.32 410.56,351.25 398.97,351.16 387.38,348.71 375.79,356.51 364.19,366.29 352.60,395.26 341.01,419.56 329.42,421.67 317.83,434.24 306.24,449.71 294.65,439.74 283.05,443.78 271.46,445.05 259.87,425.63 248.28,412.69 236.69,406.06 225.10,377.49 213.51,368.37 201.91,344.55 190.32,337.90 178.73,334.59 167.14,327.46 155.55,327.77 143.96,325.66 132.37,326.17 120.77,325.04 109.18,339.24 97.59,331.94 86.00,318.92" fill="#0077BB" opacity="0.12"/>
<path d="M86.00,260.84 L97.59,273.71 L109.18,281.16 L120.77,270.49 L132.37,273.88 L143.96,268.80 L155.55,269.98 L167.14,271.85 L178.73,279.47 L190.32,280.48 L201.91,288.11 L213.51,313.68 L225.10,322.15 L236.69,353.99 L248.28,360.42 L259.87,381.09 L271.46,401.75 L283.05,399.71 L294.65,395.48 L306.24,408.01 L317.83,391.59 L329.42,373.13 L341.01,368.38 L352.60,344.67 L364.19,311.48 L375.79,299.45 L387.38,292.34 L398.97,294.37 L410.56,293.36 L422.15,306.06 L433.74,318.25 L445.33,322.32 L456.93,308.43 L468.52,285.90 L480.11,284.38 L491.70,265.58 L503.29,259.99 L514.88,273.03 L526.47,267.95 L538.07,265.07 L549.66,273.88 L561.25,267.27 L572.84,281.67 L584.43,305.21 L596.02,306.57 L607.62,301.99 L619.21,306.23 L630.80,314.02 L642.39,321.47 L653.98,314.19 L665.57,301.82 L677.16,315.20 L688.76,301.65 L700.35,303.69 L711.94,279.81 L723.53,289.63 L735.12,273.20 L746.71,266.94 L758.30,289.97 L769.90,292.68 L781.49,298.61 L793.08,298.10 L804.67,310.63 L816.26,330.28" fill="none" stroke="#0077BB" stroke-width="3" stroke-linejoin="round" stroke-linecap="round"/>
<line x1="655" x2="683" y1="107" y2="107" stroke="#CC3311" stroke-width="3"/>
<text class="legend" x="693" y="111">Agent</text>
<line x1="655" x2="683" y1="129" y2="129" stroke="#0077BB" stroke-width="3"/>
<text class="legend" x="693" y="133">Patient</text>
<line x1="655" x2="683" y1="151" y2="151" stroke="#333333" stroke-width="2" stroke-dasharray="7 6"/>
<text class="legend" x="693" y="155">Group mean SOL</text>
</svg>