<svg xmlns="http://www.w3.org/2000/svg" width="900" height="560" viewBox="0 0 900 560">
<rect width="100%" height="100%" fill="white"/>
<style>
text { font-family: Arial, Helvetica, sans-serif; fill: #222; }
.title { font-size: 21px; font-weight: 700; }
.subtitle { font-size: 13px; fill: #555; }
.axis { stroke: #222; stroke-width: 1; }
.grid { stroke: #dddddd; stroke-width: 1; }
.tick { font-size: 12px; fill: #333; }
.label { font-size: 14px; fill: #222; }
.legend { font-size: 13px; fill: #222; }
.onset { font-size: 13px; font-weight: 700; fill: #222; }
</style>
<text class="title" x="453.0" y="30" text-anchor="middle">Passive PAV Trials: SOL less than cell mean</text>
<text class="subtitle" x="453.0" y="51" text-anchor="middle">n = 31; PAV mean SOL = 2539 ms; dashed line = group mean SOL; plotted to +1500 ms</text>
<line class="grid" x1="86" x2="820" y1="470.00" y2="470.00"/>
<text class="tick" x="76" y="474.00" text-anchor="end">0.0</text>
<line class="grid" x1="86" x2="820" y1="430.20" y2="430.20"/>
<text class="tick" x="76" y="434.20" text-anchor="end">0.1</text>
<line class="grid" x1="86" x2="820" y1="390.40" y2="390.40"/>
<text class="tick" x="76" y="394.40" text-anchor="end">0.2</text>
<line class="grid" x1="86" x2="820" y1="350.60" y2="350.60"/>
<text class="tick" x="76" y="354.60" text-anchor="end">0.3</text>
<line class="grid" x1="86" x2="820" y1="310.80" y2="310.80"/>
<text class="tick" x="76" y="314.80" text-anchor="end">0.4</text>
<line class="grid" x1="86" x2="820" y1="271.00" y2="271.00"/>
<text class="tick" x="76" y="275.00" text-anchor="end">0.5</text>
<line class="grid" x1="86" x2="820" y1="231.20" y2="231.20"/>
<text class="tick" x="76" y="235.20" text-anchor="end">0.6</text>
<line class="grid" x1="86" x2="820" y1="191.40" y2="191.40"/>
<text class="tick" x="76" y="195.40" text-anchor="end">0.7</text>
<line class="grid" x1="86" x2="820" y1="151.60" y2="151.60"/>
<text class="tick" x="76" y="155.60" text-anchor="end">0.8</text>
<line class="grid" x1="86" x2="820" y1="111.80" y2="111.80"/>
<text class="tick" x="76" y="115.80" text-anchor="end">0.9</text>
<line class="grid" x1="86" x2="820" y1="72.00" y2="72.00"/>
<text class="tick" x="76" y="76.00" text-anchor="end">1.0</text>
<line class="grid" x1="86.00" x2="86.00" y1="72" y2="470"/>
<text class="tick" x="86.00" y="492" text-anchor="middle">0</text>
<line class="grid" x1="196.42" x2="196.42" y1="72" y2="470"/>
<text class="tick" x="196.42" y="492" text-anchor="middle">500</text>
<line class="grid" x1="306.83" x2="306.83" y1="72" y2="470"/>
<text class="tick" x="306.83" y="492" text-anchor="middle">1000</text>
<line class="grid" x1="417.25" x2="417.25" y1="72" y2="470"/>
<text class="tick" x="417.25" y="492" text-anchor="middle">1500</text>
<line class="grid" x1="527.66" x2="527.66" y1="72" y2="470"/>
<text class="tick" x="527.66" y="492" text-anchor="middle">2000</text>
<line class="grid" x1="638.08" x2="638.08" y1="72" y2="470"/>
<text class="tick" x="638.08" y="492" text-anchor="middle">2500</text>
<line class="grid" x1="748.49" x2="748.49" y1="72" y2="470"/>
<text class="tick" x="748.49" y="492" text-anchor="middle">3000</text>
<line class="grid" x1="820.04" x2="820.04" y1="72" y2="470"/>
<text class="tick" x="820.04" y="492" text-anchor="middle">3324</text>
<line class="axis" x1="86" x2="820" y1="470" y2="470"/>
<line class="axis" x1="86" x2="86" y1="72" y2="470"/>
<text class="label" x="453.0" y="532" text-anchor="middle">Time from sentence display (ms)</text>
<text class="label" x="22" y="271.0" text-anchor="middle" transform="rotate(-90 22 271.0)">Proportion of Looks</text>
<line x1="488.75" x2="488.75" y1="72" y2="470" stroke="#333333" stroke-width="2" stroke-dasharray="7 6"/>
<rect x="494.75" y="77" width="80" height="22" fill="white" opacity="0.92"/>
<text class="onset" x="500.75" y="92">1824 ms</text>
<polygon points="86.00,190.91 97.04,174.19 108.08,167.86 119.12,171.54 130.17,229.34 141.21,268.24 152.25,252.96 163.29,234.09 174.33,240.77 185.37,233.65 196.42,214.26 207.46,202.83 218.50,222.93 229.54,227.85 240.58,176.68 251.62,156.39 262.66,141.51 273.71,127.12 284.75,117.82 295.79,120.29 306.83,128.65 317.87,156.24 328.91,165.32 339.96,168.18 351.00,184.68 362.04,202.38 373.08,224.06 384.12,267.86 395.16,280.59 406.21,282.90 417.25,301.23 428.29,303.70 439.33,304.11 450.37,317.15 461.41,306.23 472.45,286.98 483.50,262.99 494.54,229.74 505.58,223.54 516.62,246.91 527.66,261.89 538.70,256.60 549.75,247.59 560.79,234.41 571.83,240.50 582.87,255.07 593.91,251.65 604.95,239.22 615.99,236.86 627.04,227.45 638.08,219.35 649.12,231.75 660.16,258.28 671.20,252.49 682.24,238.30 693.29,227.36 704.33,240.20 715.37,246.70 726.41,242.47 737.45,231.38 748.49,256.62 759.54,273.68 770.58,280.95 781.62,245.89 792.66,239.57 803.70,245.15 814.74,238.65 814.74,377.30 803.70,386.72 792.66,378.94 781.62,387.01 770.58,410.49 759.54,409.55 748.49,389.63 737.45,374.81 726.41,382.73 715.37,383.63 704.33,379.34 693.29,369.08 682.24,378.68 671.20,389.14 660.16,396.70 649.12,374.96 638.08,363.22 627.04,367.96 615.99,377.55 604.95,377.76 593.91,387.92 582.87,392.72 571.83,380.58 560.79,371.78 549.75,384.28 538.70,392.22 527.66,392.06 516.62,381.37 505.58,365.71 494.54,369.26 483.50,397.13 472.45,415.25 461.41,421.16 450.37,435.40 439.33,430.98 428.29,430.88 417.25,427.70 406.21,414.19 395.16,412.40 384.12,402.02 373.08,364.16 362.04,338.08 351.00,324.45 339.96,311.16 328.91,306.33 317.87,292.81 306.83,253.63 295.79,249.67 284.75,244.44 273.71,258.25 262.66,277.75 251.62,290.61 240.58,310.37 229.54,369.62 218.50,365.28 207.46,340.71 196.42,357.01 185.37,371.52 174.33,379.81 163.29,371.07 152.25,389.18 141.21,396.49 130.17,357.85 119.12,308.83 108.08,310.98 97.04,315.43 86.00,331.58" fill="#CC3311" opacity="0.12"/>
<path d="M86.00,261.24 L97.04,244.81 L108.08,239.42 L119.12,240.19 L130.17,293.60 L141.21,332.37 L152.25,321.07 L163.29,302.58 L174.33,310.29 L185.37,302.58 L196.42,285.64 L207.46,271.77 L218.50,294.11 L229.54,298.73 L240.58,243.53 L251.62,223.50 L262.66,209.63 L273.71,192.68 L284.75,181.13 L295.79,184.98 L306.83,191.14 L317.87,224.52 L328.91,235.82 L339.96,239.67 L351.00,254.57 L362.04,270.23 L373.08,294.11 L384.12,334.94 L395.16,346.49 L406.21,348.55 L417.25,364.47 L428.29,367.29 L439.33,367.55 L450.37,376.28 L461.41,363.70 L472.45,351.11 L483.50,330.06 L494.54,299.50 L505.58,294.62 L516.62,314.14 L527.66,326.98 L538.70,324.41 L549.75,315.94 L560.79,303.10 L571.83,310.54 L582.87,323.90 L593.91,319.79 L604.95,308.49 L615.99,307.21 L627.04,297.70 L638.08,291.29 L649.12,303.35 L660.16,327.49 L671.20,320.81 L682.24,308.49 L693.29,298.22 L704.33,309.77 L715.37,315.17 L726.41,312.60 L737.45,303.10 L748.49,323.13 L759.54,341.61 L770.58,345.72 L781.62,316.45 L792.66,309.26 L803.70,315.94 L814.74,307.98" fill="none" stroke="#CC3311" stroke-width="3" stroke-linejoin="round" stroke-linecap="round"/>
<polygon points="86.00,261.11 97.04,309.67 108.08,318.94 119.12,292.12 130.17,221.55 141.21,167.94 152.25,164.57 163.29,183.14 174.33,180.89 185.37,195.23 196.42,210.58 207.46,227.57 218.50,201.90 229.54,197.34 240.58,254.06 251.62,265.62 262.66,278.81 273.71,298.84 284.75,313.06 295.79,322.61 306.83,321.11 317.87,292.85 328.91,265.98 339.96,258.66 351.00,231.68 362.04,222.89 373.08,216.08 384.12,175.16 395.16,167.33 406.21,168.03 417.25,150.38 428.29,154.11 439.33,165.68 450.37,176.72 461.41,180.34 472.45,161.55 483.50,171.68 494.54,189.37 505.58,188.72 516.62,185.60 527.66,201.41 538.70,211.33 549.75,213.58 560.79,234.38 571.83,246.03 582.87,235.59 593.91,228.28 604.95,221.12 615.99,201.74 627.04,190.75 638.08,191.29 649.12,185.90 660.16,192.64 671.20,209.30 682.24,207.39 693.29,210.87 704.33,192.92 715.37,186.32 726.41,191.47 737.45,191.95 748.49,178.44 759.54,177.52 770.58,183.90 781.62,207.81 792.66,204.79 803.70,204.79 814.74,197.06 814.74,340.32 803.70,350.05 792.66,350.05 781.62,349.08 770.58,321.64 759.54,320.32 748.49,318.37 737.45,337.21 726.41,331.53 715.37,328.97 704.33,334.19 693.29,353.73 682.24,347.96 671.20,350.68 660.16,337.55 649.12,327.85 638.08,335.82 627.04,334.82 615.99,344.89 604.95,358.37 593.91,368.15 582.87,373.17 571.83,384.30 560.79,373.35 549.75,352.56 538.70,352.24 527.66,340.08 516.62,321.99 505.58,331.71 494.54,332.61 483.50,313.32 472.45,298.79 461.41,315.44 450.37,319.07 439.33,303.40 428.29,290.31 417.25,285.32 406.21,305.15 395.16,305.34 384.12,316.00 373.08,356.74 362.04,357.63 351.00,370.92 339.96,397.35 328.91,400.81 317.87,419.14 306.83,436.06 295.79,440.73 284.75,434.36 273.71,425.47 262.66,411.60 251.62,397.06 240.58,386.54 229.54,340.55 218.50,345.23 207.46,364.25 196.42,353.50 185.37,334.95 174.33,322.59 163.29,321.37 152.25,302.96 141.21,304.21 130.17,349.72 119.12,417.81 108.08,440.29 97.04,430.04 86.00,393.87" fill="#0077BB" opacity="0.12"/>
<path d="M86.00,327.49 L97.04,369.86 L108.08,379.62 L119.12,354.97 L130.17,285.64 L141.21,236.08 L152.25,233.77 L163.29,252.26 L174.33,251.74 L185.37,265.09 L196.42,282.04 L207.46,295.91 L218.50,273.57 L229.54,268.95 L240.58,320.30 L251.62,331.34 L262.66,345.21 L273.71,362.15 L284.75,373.71 L295.79,381.67 L306.83,378.59 L317.87,355.99 L328.91,333.40 L339.96,328.00 L351.00,301.30 L362.04,290.26 L373.08,286.41 L384.12,245.58 L395.16,236.34 L406.21,236.59 L417.25,217.85 L428.29,222.21 L439.33,234.54 L450.37,247.89 L461.41,247.89 L472.45,230.17 L483.50,242.50 L494.54,260.99 L505.58,260.22 L516.62,253.80 L527.66,270.74 L538.70,281.78 L549.75,283.07 L560.79,303.87 L571.83,315.17 L582.87,304.38 L593.91,298.22 L604.95,289.74 L615.99,273.31 L627.04,262.78 L638.08,263.55 L649.12,256.88 L660.16,265.09 L671.20,279.99 L682.24,277.68 L693.29,282.30 L704.33,263.55 L715.37,257.65 L726.41,261.50 L737.45,264.58 L748.49,248.40 L759.54,248.92 L770.58,252.77 L781.62,278.45 L792.66,277.42 L803.70,277.42 L814.74,268.69" fill="none" stroke="#0077BB" stroke-width="3" stroke-linejoin="round" stroke-linecap="round"/>
<line x1="655" x2="683" y1="107" y2="107" stroke="#CC3311" stroke-width="3"/>
<text class="legend" x="693" y="111">Agent</text>
<line x1="655" x2="683" y1="129" y2="129" stroke="#0077BB" stroke-width="3"/>
<text class="legend" x="693" y="133">Patient</text>
<line x1="655" x2="683" y1="151" y2="151" stroke="#333333" stroke-width="2" stroke-dasharray="7 6"/>
<text class="legend" x="693" y="155">Group mean SOL</text>
</svg>