<svg xmlns="http://www.w3.org/2000/svg" width="1920" height="1320" viewBox="0 0 1920 1320">
<image href="../../../../stimuli/Koryak%20stimuli%20animate%20inanimate/burn-1-2-l.png" x="0" y="0" width="1920" height="1080" preserveAspectRatio="none"/>
<rect x="0" y="0" width="1920" height="1080" fill="none" stroke="#111" stroke-width="2"/>
<rect x="0" y="1080" width="1920" height="240" fill="#f7f7f7"/>
<rect x="40.0" y="100.0" width="850" height="850" fill="none" stroke="#00B8D9" stroke-width="6" stroke-dasharray="18 12"/>
<rect x="52.0" y="62.0" width="102.0" height="38" rx="6" fill="white" fill-opacity="0.86" stroke="#00B8D9" stroke-width="3"/>
<text x="62.0" y="88.0" font-family="Arial, Helvetica, sans-serif" font-size="24" font-weight="700" fill="#111">AGENT</text>
<rect x="970.0" y="100.0" width="850" height="850" fill="none" stroke="#FF3B8A" stroke-width="6" stroke-dasharray="18 12"/>
<rect x="982.0" y="62.0" width="134.0" height="38" rx="6" fill="white" fill-opacity="0.86" stroke="#FF3B8A" stroke-width="3"/>
<text x="992.0" y="88.0" font-family="Arial, Helvetica, sans-serif" font-size="24" font-weight="700" fill="#111">PATIENT</text>
<polyline points="746.4,401.2 1221.7,608.2 1055.4,636.0 1198.5,787.4 691.3,340.9 671.6,369.3 907.8,652.6 1227.4,681.7 837.5,698.7 1255.8,764.7 969.4,808.1 847.4,817.5 1267.5,853.4 1160.0,851.5 1643.2,997.5 1073.4,815.7 1216.6,819.6 758.1,757.8 869.7,764.5 806.2,750.0 847.5,707.0 791.7,706.2 643.7,378.7 1179.3,644.3 869.2,600.5 738.6,601.8 666.0,441.5 649.4,433.1 860.8,572.8 1106.5,625.0 1233.9,661.8 1103.9,676.6 844.0,758.3 1500.1,858.2 1484.8,845.8 1205.4,770.8 1291.8,757.7 1162.7,759.9 892.8,794.6 779.5,675.7 691.0,385.8 1050.1,670.8 1183.4,732.7 727.2,267.9 641.3,331.2 697.6,362.4 1171.8,650.3 964.9,691.0 650.6,475.9 881.3,567.0 669.7,453.2 1195.4,804.4 661.8,479.3 1292.3,865.1 1217.2,872.3 1211.5,862.1 659.0,502.2 1149.7,715.6 1237.9,809.5" fill="none" stroke="#111" stroke-width="4" stroke-opacity="0.36" stroke-linejoin="round"/>
<circle cx="746.4" cy="401.2" r="16.0" fill="white" fill-opacity="0.84"/>
<circle cx="746.4" cy="401.2" r="13.0" fill="#7A3CE8" fill-opacity="0.66" stroke="#111" stroke-width="2.5"/>
<text x="746.4" y="408.2" text-anchor="middle" font-family="Arial, Helvetica, sans-serif" font-size="21" font-weight="800" fill="white" stroke="#111" stroke-width="3" paint-order="stroke">1</text>
<circle cx="1221.7" cy="608.2" r="17.4" fill="white" fill-opacity="0.84"/>
<circle cx="1221.7" cy="608.2" r="14.4" fill="#7A3CE8" fill-opacity="0.66" stroke="#111" stroke-width="2.5"/>
<text x="1221.7" y="615.2" text-anchor="middle" font-family="Arial, Helvetica, sans-serif" font-size="21" font-weight="800" fill="white" stroke="#111" stroke-width="3" paint-order="stroke">2</text>
<circle cx="1055.4" cy="636.0" r="12.6" fill="white" fill-opacity="0.84"/>
<circle cx="1055.4" cy="636.0" r="9.6" fill="#7A3CE8" fill-opacity="0.66" stroke="#111" stroke-width="2.5"/>
<text x="1055.4" y="643.0" text-anchor="middle" font-family="Arial, Helvetica, sans-serif" font-size="21" font-weight="800" fill="white" stroke="#111" stroke-width="3" paint-order="stroke">3</text>
<circle cx="1198.5" cy="787.4" r="16.7" fill="white" fill-opacity="0.84"/>
<circle cx="1198.5" cy="787.4" r="13.7" fill="#7A3CE8" fill-opacity="0.66" stroke="#111" stroke-width="2.5"/>
<text x="1198.5" y="794.4" text-anchor="middle" font-family="Arial, Helvetica, sans-serif" font-size="21" font-weight="800" fill="white" stroke="#111" stroke-width="3" paint-order="stroke">4</text>
<circle cx="691.3" cy="340.9" r="18.2" fill="white" fill-opacity="0.84"/>
<circle cx="691.3" cy="340.9" r="15.2" fill="#7A3CE8" fill-opacity="0.66" stroke="#111" stroke-width="2.5"/>
<text x="691.3" y="347.9" text-anchor="middle" font-family="Arial, Helvetica, sans-serif" font-size="21" font-weight="800" fill="white" stroke="#111" stroke-width="3" paint-order="stroke">5</text>
<circle cx="671.6" cy="369.3" r="18.6" fill="white" fill-opacity="0.84"/>
<circle cx="671.6" cy="369.3" r="15.6" fill="#7A3CE8" fill-opacity="0.66" stroke="#111" stroke-width="2.5"/>
<text x="671.6" y="376.3" text-anchor="middle" font-family="Arial, Helvetica, sans-serif" font-size="21" font-weight="800" fill="white" stroke="#111" stroke-width="3" paint-order="stroke">6</text>
<circle cx="907.8" cy="652.6" r="17.4" fill="white" fill-opacity="0.84"/>
<circle cx="907.8" cy="652.6" r="14.4" fill="#7A3CE8" fill-opacity="0.66" stroke="#111" stroke-width="2.5"/>
<text x="907.8" y="659.6" text-anchor="middle" font-family="Arial, Helvetica, sans-serif" font-size="21" font-weight="800" fill="white" stroke="#111" stroke-width="3" paint-order="stroke">7</text>
<circle cx="1227.4" cy="681.7" r="20.5" fill="white" fill-opacity="0.84"/>
<circle cx="1227.4" cy="681.7" r="17.5" fill="#7A3CE8" fill-opacity="0.66" stroke="#111" stroke-width="2.5"/>
<text x="1227.4" y="688.7" text-anchor="middle" font-family="Arial, Helvetica, sans-serif" font-size="21" font-weight="800" fill="white" stroke="#111" stroke-width="3" paint-order="stroke">8</text>
<circle cx="837.5" cy="698.7" r="19.0" fill="white" fill-opacity="0.84"/>
<circle cx="837.5" cy="698.7" r="16.0" fill="#7A3CE8" fill-opacity="0.66" stroke="#111" stroke-width="2.5"/>
<text x="837.5" y="705.7" text-anchor="middle" font-family="Arial, Helvetica, sans-serif" font-size="21" font-weight="800" fill="white" stroke="#111" stroke-width="3" paint-order="stroke">9</text>
<circle cx="1255.8" cy="764.7" r="19.7" fill="white" fill-opacity="0.84"/>
<circle cx="1255.8" cy="764.7" r="16.7" fill="#7A3CE8" fill-opacity="0.66" stroke="#111" stroke-width="2.5"/>
<text x="1255.8" y="771.7" text-anchor="middle" font-family="Arial, Helvetica, sans-serif" font-size="21" font-weight="800" fill="white" stroke="#111" stroke-width="3" paint-order="stroke">10</text>
<circle cx="969.4" cy="808.1" r="16.3" fill="white" fill-opacity="0.84"/>
<circle cx="969.4" cy="808.1" r="13.3" fill="#7A3CE8" fill-opacity="0.66" stroke="#111" stroke-width="2.5"/>
<text x="969.4" y="815.1" text-anchor="middle" font-family="Arial, Helvetica, sans-serif" font-size="21" font-weight="800" fill="white" stroke="#111" stroke-width="3" paint-order="stroke">11</text>
<circle cx="847.4" cy="817.5" r="19.4" fill="white" fill-opacity="0.84"/>
<circle cx="847.4" cy="817.5" r="16.4" fill="#7A3CE8" fill-opacity="0.66" stroke="#111" stroke-width="2.5"/>
<text x="847.4" y="824.5" text-anchor="middle" font-family="Arial, Helvetica, sans-serif" font-size="21" font-weight="800" fill="white" stroke="#111" stroke-width="3" paint-order="stroke">12</text>
<circle cx="1267.5" cy="853.4" r="15.5" fill="white" fill-opacity="0.84"/>
<circle cx="1267.5" cy="853.4" r="12.5" fill="#7A3CE8" fill-opacity="0.66" stroke="#111" stroke-width="2.5"/>
<text x="1267.5" y="860.4" text-anchor="middle" font-family="Arial, Helvetica, sans-serif" font-size="21" font-weight="800" fill="white" stroke="#111" stroke-width="3" paint-order="stroke">13</text>
<circle cx="1160.0" cy="851.5" r="16.4" fill="white" fill-opacity="0.84"/>
<circle cx="1160.0" cy="851.5" r="13.4" fill="#7A3CE8" fill-opacity="0.66" stroke="#111" stroke-width="2.5"/>
<text x="1160.0" y="858.5" text-anchor="middle" font-family="Arial, Helvetica, sans-serif" font-size="21" font-weight="800" fill="white" stroke="#111" stroke-width="3" paint-order="stroke">14</text>
<circle cx="1643.2" cy="997.5" r="18.2" fill="white" fill-opacity="0.84"/>
<circle cx="1643.2" cy="997.5" r="15.2" fill="#7A3CE8" fill-opacity="0.66" stroke="#111" stroke-width="2.5"/>
<text x="1643.2" y="1004.5" text-anchor="middle" font-family="Arial, Helvetica, sans-serif" font-size="21" font-weight="800" fill="white" stroke="#111" stroke-width="3" paint-order="stroke">15</text>
<circle cx="1073.4" cy="815.7" r="13.1" fill="white" fill-opacity="0.84"/>
<circle cx="1073.4" cy="815.7" r="10.1" fill="#7A3CE8" fill-opacity="0.66" stroke="#111" stroke-width="2.5"/>
<text x="1073.4" y="822.7" text-anchor="middle" font-family="Arial, Helvetica, sans-serif" font-size="21" font-weight="800" fill="white" stroke="#111" stroke-width="3" paint-order="stroke">16</text>
<circle cx="1216.6" cy="819.6" r="16.2" fill="white" fill-opacity="0.84"/>
<circle cx="1216.6" cy="819.6" r="13.2" fill="#7A3CE8" fill-opacity="0.66" stroke="#111" stroke-width="2.5"/>
<text x="1216.6" y="826.6" text-anchor="middle" font-family="Arial, Helvetica, sans-serif" font-size="21" font-weight="800" fill="white" stroke="#111" stroke-width="3" paint-order="stroke">17</text>
<circle cx="758.1" cy="757.8" r="18.3" fill="white" fill-opacity="0.84"/>
<circle cx="758.1" cy="757.8" r="15.3" fill="#7A3CE8" fill-opacity="0.66" stroke="#111" stroke-width="2.5"/>
<text x="758.1" y="764.8" text-anchor="middle" font-family="Arial, Helvetica, sans-serif" font-size="21" font-weight="800" fill="white" stroke="#111" stroke-width="3" paint-order="stroke">18</text>
<circle cx="869.7" cy="764.5" r="21.8" fill="white" fill-opacity="0.84"/>
<circle cx="869.7" cy="764.5" r="18.8" fill="#7A3CE8" fill-opacity="0.66" stroke="#111" stroke-width="2.5"/>
<text x="869.7" y="771.5" text-anchor="middle" font-family="Arial, Helvetica, sans-serif" font-size="21" font-weight="800" fill="white" stroke="#111" stroke-width="3" paint-order="stroke">19</text>
<circle cx="806.2" cy="750.0" r="19.0" fill="white" fill-opacity="0.84"/>
<circle cx="806.2" cy="750.0" r="16.0" fill="#7A3CE8" fill-opacity="0.66" stroke="#111" stroke-width="2.5"/>
<text x="806.2" y="757.0" text-anchor="middle" font-family="Arial, Helvetica, sans-serif" font-size="21" font-weight="800" fill="white" stroke="#111" stroke-width="3" paint-order="stroke">20</text>
<circle cx="847.5" cy="707.0" r="18.2" fill="white" fill-opacity="0.84"/>
<circle cx="847.5" cy="707.0" r="15.2" fill="#7A3CE8" fill-opacity="0.66" stroke="#111" stroke-width="2.5"/>
<text x="847.5" y="714.0" text-anchor="middle" font-family="Arial, Helvetica, sans-serif" font-size="21" font-weight="800" fill="white" stroke="#111" stroke-width="3" paint-order="stroke">21</text>
<circle cx="791.7" cy="706.2" r="15.5" fill="white" fill-opacity="0.84"/>
<circle cx="791.7" cy="706.2" r="12.5" fill="#7A3CE8" fill-opacity="0.66" stroke="#111" stroke-width="2.5"/>
<text x="791.7" y="713.2" text-anchor="middle" font-family="Arial, Helvetica, sans-serif" font-size="21" font-weight="800" fill="white" stroke="#111" stroke-width="3" paint-order="stroke">22</text>
<circle cx="643.7" cy="378.7" r="17.4" fill="white" fill-opacity="0.84"/>
<circle cx="643.7" cy="378.7" r="14.4" fill="#7A3CE8" fill-opacity="0.66" stroke="#111" stroke-width="2.5"/>
<text x="643.7" y="385.7" text-anchor="middle" font-family="Arial, Helvetica, sans-serif" font-size="21" font-weight="800" fill="white" stroke="#111" stroke-width="3" paint-order="stroke">23</text>
<circle cx="1179.3" cy="644.3" r="18.7" fill="white" fill-opacity="0.84"/>
<circle cx="1179.3" cy="644.3" r="15.7" fill="#7A3CE8" fill-opacity="0.66" stroke="#111" stroke-width="2.5"/>
<text x="1179.3" y="651.3" text-anchor="middle" font-family="Arial, Helvetica, sans-serif" font-size="21" font-weight="800" fill="white" stroke="#111" stroke-width="3" paint-order="stroke">24</text>
<circle cx="869.2" cy="600.5" r="15.8" fill="white" fill-opacity="0.84"/>
<circle cx="869.2" cy="600.5" r="12.8" fill="#7A3CE8" fill-opacity="0.66" stroke="#111" stroke-width="2.5"/>
<text x="869.2" y="607.5" text-anchor="middle" font-family="Arial, Helvetica, sans-serif" font-size="21" font-weight="800" fill="white" stroke="#111" stroke-width="3" paint-order="stroke">25</text>
<circle cx="738.6" cy="601.8" r="18.2" fill="white" fill-opacity="0.84"/>
<circle cx="738.6" cy="601.8" r="15.2" fill="#7A3CE8" fill-opacity="0.66" stroke="#111" stroke-width="2.5"/>
<text x="738.6" y="608.8" text-anchor="middle" font-family="Arial, Helvetica, sans-serif" font-size="21" font-weight="800" fill="white" stroke="#111" stroke-width="3" paint-order="stroke">26</text>
<circle cx="666.0" cy="441.5" r="20.9" fill="white" fill-opacity="0.84"/>
<circle cx="666.0" cy="441.5" r="17.9" fill="#7A3CE8" fill-opacity="0.66" stroke="#111" stroke-width="2.5"/>
<text x="666.0" y="448.5" text-anchor="middle" font-family="Arial, Helvetica, sans-serif" font-size="21" font-weight="800" fill="white" stroke="#111" stroke-width="3" paint-order="stroke">27</text>
<circle cx="649.4" cy="433.1" r="19.9" fill="white" fill-opacity="0.84"/>
<circle cx="649.4" cy="433.1" r="16.9" fill="#7A3CE8" fill-opacity="0.66" stroke="#111" stroke-width="2.5"/>
<text x="649.4" y="440.1" text-anchor="middle" font-family="Arial, Helvetica, sans-serif" font-size="21" font-weight="800" fill="white" stroke="#111" stroke-width="3" paint-order="stroke">28</text>
<circle cx="860.8" cy="572.8" r="15.8" fill="white" fill-opacity="0.84"/>
<circle cx="860.8" cy="572.8" r="12.8" fill="#7A3CE8" fill-opacity="0.66" stroke="#111" stroke-width="2.5"/>
<text x="860.8" y="579.8" text-anchor="middle" font-family="Arial, Helvetica, sans-serif" font-size="21" font-weight="800" fill="white" stroke="#111" stroke-width="3" paint-order="stroke">29</text>
<circle cx="1106.5" cy="625.0" r="17.1" fill="white" fill-opacity="0.84"/>
<circle cx="1106.5" cy="625.0" r="14.1" fill="#7A3CE8" fill-opacity="0.66" stroke="#111" stroke-width="2.5"/>
<text x="1106.5" y="632.0" text-anchor="middle" font-family="Arial, Helvetica, sans-serif" font-size="21" font-weight="800" fill="white" stroke="#111" stroke-width="3" paint-order="stroke">30</text>
<circle cx="1233.9" cy="661.8" r="17.7" fill="white" fill-opacity="0.84"/>
<circle cx="1233.9" cy="661.8" r="14.7" fill="#7A3CE8" fill-opacity="0.66" stroke="#111" stroke-width="2.5"/>
<text x="1233.9" y="668.8" text-anchor="middle" font-family="Arial, Helvetica, sans-serif" font-size="21" font-weight="800" fill="white" stroke="#111" stroke-width="3" paint-order="stroke">31</text>
<circle cx="1103.9" cy="676.6" r="17.3" fill="white" fill-opacity="0.84"/>
<circle cx="1103.9" cy="676.6" r="14.3" fill="#7A3CE8" fill-opacity="0.66" stroke="#111" stroke-width="2.5"/>
<text x="1103.9" y="683.6" text-anchor="middle" font-family="Arial, Helvetica, sans-serif" font-size="21" font-weight="800" fill="white" stroke="#111" stroke-width="3" paint-order="stroke">32</text>
<circle cx="844.0" cy="758.3" r="17.3" fill="white" fill-opacity="0.84"/>
<circle cx="844.0" cy="758.3" r="14.3" fill="#7A3CE8" fill-opacity="0.66" stroke="#111" stroke-width="2.5"/>
<text x="844.0" y="765.3" text-anchor="middle" font-family="Arial, Helvetica, sans-serif" font-size="21" font-weight="800" fill="white" stroke="#111" stroke-width="3" paint-order="stroke">33</text>
<circle cx="1500.1" cy="858.2" r="14.2" fill="white" fill-opacity="0.84"/>
<circle cx="1500.1" cy="858.2" r="11.2" fill="#7A3CE8" fill-opacity="0.66" stroke="#111" stroke-width="2.5"/>
<text x="1500.1" y="865.2" text-anchor="middle" font-family="Arial, Helvetica, sans-serif" font-size="21" font-weight="800" fill="white" stroke="#111" stroke-width="3" paint-order="stroke">34</text>
<circle cx="1484.8" cy="845.8" r="11.6" fill="white" fill-opacity="0.84"/>
<circle cx="1484.8" cy="845.8" r="8.6" fill="#7A3CE8" fill-opacity="0.66" stroke="#111" stroke-width="2.5"/>
<text x="1484.8" y="852.8" text-anchor="middle" font-family="Arial, Helvetica, sans-serif" font-size="21" font-weight="800" fill="white" stroke="#111" stroke-width="3" paint-order="stroke">35</text>
<circle cx="1205.4" cy="770.8" r="17.7" fill="white" fill-opacity="0.84"/>
<circle cx="1205.4" cy="770.8" r="14.7" fill="#7A3CE8" fill-opacity="0.66" stroke="#111" stroke-width="2.5"/>
<text x="1205.4" y="777.8" text-anchor="middle" font-family="Arial, Helvetica, sans-serif" font-size="21" font-weight="800" fill="white" stroke="#111" stroke-width="3" paint-order="stroke">36</text>
<circle cx="1291.8" cy="757.7" r="17.1" fill="white" fill-opacity="0.84"/>
<circle cx="1291.8" cy="757.7" r="14.1" fill="#7A3CE8" fill-opacity="0.66" stroke="#111" stroke-width="2.5"/>
<text x="1291.8" y="764.7" text-anchor="middle" font-family="Arial, Helvetica, sans-serif" font-size="21" font-weight="800" fill="white" stroke="#111" stroke-width="3" paint-order="stroke">37</text>
<circle cx="1162.7" cy="759.9" r="19.4" fill="white" fill-opacity="0.84"/>
<circle cx="1162.7" cy="759.9" r="16.4" fill="#7A3CE8" fill-opacity="0.66" stroke="#111" stroke-width="2.5"/>
<text x="1162.7" y="766.9" text-anchor="middle" font-family="Arial, Helvetica, sans-serif" font-size="21" font-weight="800" fill="white" stroke="#111" stroke-width="3" paint-order="stroke">38</text>
<circle cx="892.8" cy="794.6" r="19.1" fill="white" fill-opacity="0.84"/>
<circle cx="892.8" cy="794.6" r="16.1" fill="#7A3CE8" fill-opacity="0.66" stroke="#111" stroke-width="2.5"/>
<text x="892.8" y="801.6" text-anchor="middle" font-family="Arial, Helvetica, sans-serif" font-size="21" font-weight="800" fill="white" stroke="#111" stroke-width="3" paint-order="stroke">39</text>
<circle cx="779.5" cy="675.7" r="16.4" fill="white" fill-opacity="0.84"/>
<circle cx="779.5" cy="675.7" r="13.4" fill="#7A3CE8" fill-opacity="0.66" stroke="#111" stroke-width="2.5"/>
<text x="779.5" y="682.7" text-anchor="middle" font-family="Arial, Helvetica, sans-serif" font-size="21" font-weight="800" fill="white" stroke="#111" stroke-width="3" paint-order="stroke">40</text>
<circle cx="691.0" cy="385.8" r="18.8" fill="white" fill-opacity="0.84"/>
<circle cx="691.0" cy="385.8" r="15.8" fill="#7A3CE8" fill-opacity="0.66" stroke="#111" stroke-width="2.5"/>
<text x="691.0" y="392.8" text-anchor="middle" font-family="Arial, Helvetica, sans-serif" font-size="21" font-weight="800" fill="white" stroke="#111" stroke-width="3" paint-order="stroke">41</text>
<circle cx="1050.1" cy="670.8" r="16.9" fill="white" fill-opacity="0.84"/>
<circle cx="1050.1" cy="670.8" r="13.9" fill="#7A3CE8" fill-opacity="0.66" stroke="#111" stroke-width="2.5"/>
<text x="1050.1" y="677.8" text-anchor="middle" font-family="Arial, Helvetica, sans-serif" font-size="21" font-weight="800" fill="white" stroke="#111" stroke-width="3" paint-order="stroke">42</text>
<circle cx="1183.4" cy="732.7" r="19.3" fill="white" fill-opacity="0.84"/>
<circle cx="1183.4" cy="732.7" r="16.3" fill="#7A3CE8" fill-opacity="0.66" stroke="#111" stroke-width="2.5"/>
<text x="1183.4" y="739.7" text-anchor="middle" font-family="Arial, Helvetica, sans-serif" font-size="21" font-weight="800" fill="white" stroke="#111" stroke-width="3" paint-order="stroke">43</text>
<circle cx="727.2" cy="267.9" r="17.0" fill="white" fill-opacity="0.84"/>
<circle cx="727.2" cy="267.9" r="14.0" fill="#7A3CE8" fill-opacity="0.66" stroke="#111" stroke-width="2.5"/>
<text x="727.2" y="274.9" text-anchor="middle" font-family="Arial, Helvetica, sans-serif" font-size="21" font-weight="800" fill="white" stroke="#111" stroke-width="3" paint-order="stroke">44</text>
<circle cx="641.3" cy="331.2" r="16.8" fill="white" fill-opacity="0.84"/>
<circle cx="641.3" cy="331.2" r="13.8" fill="#7A3CE8" fill-opacity="0.66" stroke="#111" stroke-width="2.5"/>
<text x="641.3" y="338.2" text-anchor="middle" font-family="Arial, Helvetica, sans-serif" font-size="21" font-weight="800" fill="white" stroke="#111" stroke-width="3" paint-order="stroke">45</text>
<circle cx="697.6" cy="362.4" r="19.6" fill="white" fill-opacity="0.84"/>
<circle cx="697.6" cy="362.4" r="16.6" fill="#7A3CE8" fill-opacity="0.66" stroke="#111" stroke-width="2.5"/>
<text x="697.6" y="369.4" text-anchor="middle" font-family="Arial, Helvetica, sans-serif" font-size="21" font-weight="800" fill="white" stroke="#111" stroke-width="3" paint-order="stroke">46</text>
<circle cx="1171.8" cy="650.3" r="20.8" fill="white" fill-opacity="0.84"/>
<circle cx="1171.8" cy="650.3" r="17.8" fill="#7A3CE8" fill-opacity="0.66" stroke="#111" stroke-width="2.5"/>
<text x="1171.8" y="657.3" text-anchor="middle" font-family="Arial, Helvetica, sans-serif" font-size="21" font-weight="800" fill="white" stroke="#111" stroke-width="3" paint-order="stroke">47</text>
<circle cx="964.9" cy="691.0" r="14.9" fill="white" fill-opacity="0.84"/>
<circle cx="964.9" cy="691.0" r="11.9" fill="#7A3CE8" fill-opacity="0.66" stroke="#111" stroke-width="2.5"/>
<text x="964.9" y="698.0" text-anchor="middle" font-family="Arial, Helvetica, sans-serif" font-size="21" font-weight="800" fill="white" stroke="#111" stroke-width="3" paint-order="stroke">48</text>
<circle cx="650.6" cy="475.9" r="19.6" fill="white" fill-opacity="0.84"/>
<circle cx="650.6" cy="475.9" r="16.6" fill="#7A3CE8" fill-opacity="0.66" stroke="#111" stroke-width="2.5"/>
<text x="650.6" y="482.9" text-anchor="middle" font-family="Arial, Helvetica, sans-serif" font-size="21" font-weight="800" fill="white" stroke="#111" stroke-width="3" paint-order="stroke">49</text>
<circle cx="881.3" cy="567.0" r="15.2" fill="white" fill-opacity="0.84"/>
<circle cx="881.3" cy="567.0" r="12.2" fill="#7A3CE8" fill-opacity="0.66" stroke="#111" stroke-width="2.5"/>
<text x="881.3" y="574.0" text-anchor="middle" font-family="Arial, Helvetica, sans-serif" font-size="21" font-weight="800" fill="white" stroke="#111" stroke-width="3" paint-order="stroke">50</text>
<circle cx="669.7" cy="453.2" r="19.6" fill="white" fill-opacity="0.84"/>
<circle cx="669.7" cy="453.2" r="16.6" fill="#7A3CE8" fill-opacity="0.66" stroke="#111" stroke-width="2.5"/>
<text x="669.7" y="460.2" text-anchor="middle" font-family="Arial, Helvetica, sans-serif" font-size="21" font-weight="800" fill="white" stroke="#111" stroke-width="3" paint-order="stroke">51</text>
<circle cx="1195.4" cy="804.4" r="21.2" fill="white" fill-opacity="0.84"/>
<circle cx="1195.4" cy="804.4" r="18.2" fill="#7A3CE8" fill-opacity="0.66" stroke="#111" stroke-width="2.5"/>
<text x="1195.4" y="811.4" text-anchor="middle" font-family="Arial, Helvetica, sans-serif" font-size="21" font-weight="800" fill="white" stroke="#111" stroke-width="3" paint-order="stroke">52</text>
<circle cx="661.8" cy="479.3" r="17.9" fill="white" fill-opacity="0.84"/>
<circle cx="661.8" cy="479.3" r="14.9" fill="#7A3CE8" fill-opacity="0.66" stroke="#111" stroke-width="2.5"/>
<text x="661.8" y="486.3" text-anchor="middle" font-family="Arial, Helvetica, sans-serif" font-size="21" font-weight="800" fill="white" stroke="#111" stroke-width="3" paint-order="stroke">53</text>
<circle cx="1292.3" cy="865.1" r="18.6" fill="white" fill-opacity="0.84"/>
<circle cx="1292.3" cy="865.1" r="15.6" fill="#7A3CE8" fill-opacity="0.66" stroke="#111" stroke-width="2.5"/>
<text x="1292.3" y="872.1" text-anchor="middle" font-family="Arial, Helvetica, sans-serif" font-size="21" font-weight="800" fill="white" stroke="#111" stroke-width="3" paint-order="stroke">54</text>
<circle cx="1217.2" cy="872.3" r="15.7" fill="white" fill-opacity="0.84"/>
<circle cx="1217.2" cy="872.3" r="12.7" fill="#7A3CE8" fill-opacity="0.66" stroke="#111" stroke-width="2.5"/>
<text x="1217.2" y="879.3" text-anchor="middle" font-family="Arial, Helvetica, sans-serif" font-size="21" font-weight="800" fill="white" stroke="#111" stroke-width="3" paint-order="stroke">55</text>
<circle cx="1211.5" cy="862.1" r="11.9" fill="white" fill-opacity="0.84"/>
<circle cx="1211.5" cy="862.1" r="8.9" fill="#7A3CE8" fill-opacity="0.66" stroke="#111" stroke-width="2.5"/>
<text x="1211.5" y="869.1" text-anchor="middle" font-family="Arial, Helvetica, sans-serif" font-size="21" font-weight="800" fill="white" stroke="#111" stroke-width="3" paint-order="stroke">56</text>
<circle cx="659.0" cy="502.2" r="18.2" fill="white" fill-opacity="0.84"/>
<circle cx="659.0" cy="502.2" r="15.2" fill="#7A3CE8" fill-opacity="0.66" stroke="#111" stroke-width="2.5"/>
<text x="659.0" y="509.2" text-anchor="middle" font-family="Arial, Helvetica, sans-serif" font-size="21" font-weight="800" fill="white" stroke="#111" stroke-width="3" paint-order="stroke">57</text>
<circle cx="1149.7" cy="715.6" r="18.8" fill="white" fill-opacity="0.84"/>
<circle cx="1149.7" cy="715.6" r="15.8" fill="#7A3CE8" fill-opacity="0.66" stroke="#111" stroke-width="2.5"/>
<text x="1149.7" y="722.6" text-anchor="middle" font-family="Arial, Helvetica, sans-serif" font-size="21" font-weight="800" fill="white" stroke="#111" stroke-width="3" paint-order="stroke">58</text>
<circle cx="1237.9" cy="809.5" r="16.9" fill="white" fill-opacity="0.84"/>
<circle cx="1237.9" cy="809.5" r="13.9" fill="#7A3CE8" fill-opacity="0.66" stroke="#111" stroke-width="2.5"/>
<text x="1237.9" y="816.5" text-anchor="middle" font-family="Arial, Helvetica, sans-serif" font-size="21" font-weight="800" fill="white" stroke="#111" stroke-width="3" paint-order="stroke">59</text>
<rect x="16" y="1094" width="1120" height="168" rx="8" fill="white" fill-opacity="0.92" stroke="#111" stroke-opacity="0.22"/>
<text x="36.0" y="1128.0" font-family="Arial, Helvetica, sans-serif" font-size="24" font-weight="600" fill="#111">K02 / k02.asc block 61 | burn-1-2-l.png | RT NA ms | 59 fixations</text>
<text x="36.0" y="1159.0" font-family="Arial, Helvetica, sans-serif" font-size="24" font-weight="600" fill="#111">numbers show fixation order; dot size shows fixation duration</text>
<circle cx="42" cy="1198" r="11" fill="#005DFF" fill-opacity="0.64" stroke="#111" stroke-width="2"/>
<text x="62.0" y="1206.0" font-family="Arial, Helvetica, sans-serif" font-size="22" font-weight="500" fill="#111">blue: before speech onset</text>
<circle cx="42" cy="1232" r="11" fill="#FF8A00" fill-opacity="0.64" stroke="#111" stroke-width="2"/>
<text x="62.0" y="1240.0" font-family="Arial, Helvetica, sans-serif" font-size="22" font-weight="500" fill="#111">orange: first 2000 ms after onset</text>
</svg>
