<svg xmlns="http://www.w3.org/2000/svg" width="900" height="560" viewBox="0 0 900 560">
<rect width="100%" height="100%" fill="white"/>
<style>
text { font-family: Arial, Helvetica, sans-serif; fill: #222; }
.title { font-size: 21px; font-weight: 700; }
.subtitle { font-size: 13px; fill: #555; }
.axis { stroke: #222; stroke-width: 1; }
.grid { stroke: #dddddd; stroke-width: 1; }
.tick { font-size: 12px; fill: #333; }
.label { font-size: 14px; fill: #222; }
.legend { font-size: 13px; fill: #222; }
.onset { font-size: 13px; font-weight: 700; fill: #222; }
</style>
<text class="title" x="453.0" y="30" text-anchor="middle">Khanty Passive Speech Planning: PRM</text>
<text class="subtitle" x="453.0" y="51" text-anchor="middle">0-3500 ms from display; 50-ms bins; n = 18 passive trials</text>
<line class="grid" x1="86" x2="820" y1="470.00" y2="470.00"/>
<text class="tick" x="76" y="474.00" text-anchor="end">0.0</text>
<line class="grid" x1="86" x2="820" y1="430.20" y2="430.20"/>
<text class="tick" x="76" y="434.20" text-anchor="end">0.1</text>
<line class="grid" x1="86" x2="820" y1="390.40" y2="390.40"/>
<text class="tick" x="76" y="394.40" text-anchor="end">0.2</text>
<line class="grid" x1="86" x2="820" y1="350.60" y2="350.60"/>
<text class="tick" x="76" y="354.60" text-anchor="end">0.3</text>
<line class="grid" x1="86" x2="820" y1="310.80" y2="310.80"/>
<text class="tick" x="76" y="314.80" text-anchor="end">0.4</text>
<line class="grid" x1="86" x2="820" y1="271.00" y2="271.00"/>
<text class="tick" x="76" y="275.00" text-anchor="end">0.5</text>
<line class="grid" x1="86" x2="820" y1="231.20" y2="231.20"/>
<text class="tick" x="76" y="235.20" text-anchor="end">0.6</text>
<line class="grid" x1="86" x2="820" y1="191.40" y2="191.40"/>
<text class="tick" x="76" y="195.40" text-anchor="end">0.7</text>
<line class="grid" x1="86" x2="820" y1="151.60" y2="151.60"/>
<text class="tick" x="76" y="155.60" text-anchor="end">0.8</text>
<line class="grid" x1="86" x2="820" y1="111.80" y2="111.80"/>
<text class="tick" x="76" y="115.80" text-anchor="end">0.9</text>
<line class="grid" x1="86" x2="820" y1="72.00" y2="72.00"/>
<text class="tick" x="76" y="76.00" text-anchor="end">1.0</text>
<line class="grid" x1="86.00" x2="86.00" y1="72" y2="470"/>
<text class="tick" x="86.00" y="492" text-anchor="middle">0</text>
<line class="grid" x1="190.86" x2="190.86" y1="72" y2="470"/>
<text class="tick" x="190.86" y="492" text-anchor="middle">500</text>
<line class="grid" x1="295.71" x2="295.71" y1="72" y2="470"/>
<text class="tick" x="295.71" y="492" text-anchor="middle">1000</text>
<line class="grid" x1="400.57" x2="400.57" y1="72" y2="470"/>
<text class="tick" x="400.57" y="492" text-anchor="middle">1500</text>
<line class="grid" x1="505.43" x2="505.43" y1="72" y2="470"/>
<text class="tick" x="505.43" y="492" text-anchor="middle">2000</text>
<line class="grid" x1="610.29" x2="610.29" y1="72" y2="470"/>
<text class="tick" x="610.29" y="492" text-anchor="middle">2500</text>
<line class="grid" x1="715.14" x2="715.14" y1="72" y2="470"/>
<text class="tick" x="715.14" y="492" text-anchor="middle">3000</text>
<line class="grid" x1="820.00" x2="820.00" y1="72" y2="470"/>
<text class="tick" x="820.00" y="492" text-anchor="middle">3500</text>
<line class="axis" x1="86" x2="820" y1="470" y2="470"/>
<line class="axis" x1="86" x2="86" y1="72" y2="470"/>
<text class="label" x="453.0" y="532" text-anchor="middle">Time from sentence display (ms)</text>
<text class="label" x="22" y="271.0" text-anchor="middle" transform="rotate(-90 22 271.0)">Proportion of Looks</text>
<line x1="526.53" x2="526.53" y1="72" y2="470" stroke="#333333" stroke-width="2" stroke-dasharray="7 6"/>
<rect x="532.53" y="77" width="80" height="22" fill="white" opacity="0.92"/>
<text class="onset" x="538.53" y="92">2101 ms</text>
<polygon points="86.00,272.97 96.49,253.09 106.97,215.31 117.46,234.25 127.94,236.95 138.43,178.16 148.91,158.34 159.40,174.46 169.89,186.13 180.37,197.18 190.86,183.29 201.34,193.34 211.83,197.18 222.31,183.97 232.80,197.07 243.29,200.16 253.77,191.17 264.26,177.04 274.74,193.73 285.23,215.31 295.71,216.89 306.20,207.09 316.69,190.57 327.17,170.85 337.66,180.82 348.14,193.95 358.63,170.85 369.11,150.98 379.60,146.24 390.09,215.35 400.57,246.32 411.06,246.32 421.54,196.45 432.03,183.98 442.51,159.66 453.00,190.45 463.49,174.47 473.97,185.01 484.46,177.66 494.94,171.80 505.43,189.24 515.91,227.25 526.40,238.34 536.89,210.66 547.37,198.27 557.86,207.01 568.34,187.47 578.83,175.12 589.31,188.92 599.80,154.06 610.29,165.41 620.77,157.78 631.26,180.63 641.74,218.34 652.23,240.59 662.71,249.96 673.20,272.97 683.69,264.98 694.17,270.96 704.66,260.92 715.14,266.87 725.63,272.97 736.11,281.90 746.60,254.70 757.09,230.89 767.57,225.83 778.06,232.07 788.54,244.43 799.03,221.54 809.51,217.19 809.51,407.22 799.03,408.48 788.54,424.93 778.06,407.22 767.57,404.62 757.09,412.82 746.60,430.58 736.11,446.72 725.63,445.92 715.14,437.86 704.66,429.66 694.17,442.62 683.69,436.22 673.20,445.92 662.71,429.13 652.23,419.93 641.74,404.15 631.26,364.90 620.77,347.08 610.29,352.71 599.80,334.87 589.31,373.43 578.83,367.76 568.34,374.87 557.86,392.48 547.37,388.83 536.89,389.72 526.40,417.76 515.91,407.62 505.43,366.02 494.94,361.35 484.46,368.76 473.97,372.91 463.49,367.53 453.00,375.43 442.51,347.84 432.03,357.14 421.54,372.97 411.06,428.34 400.57,428.34 390.09,389.45 379.60,326.78 369.11,338.84 358.63,359.65 348.14,382.55 337.66,364.72 327.17,359.65 316.69,377.97 306.20,393.28 295.71,402.05 285.23,400.10 274.74,368.61 264.26,368.50 253.77,362.32 243.29,381.64 232.80,379.42 222.31,372.18 211.83,389.04 201.34,376.96 190.86,371.09 180.37,389.04 169.89,364.71 159.40,358.69 148.91,347.39 138.43,364.72 127.94,408.53 117.46,410.35 106.97,400.10 96.49,429.53 86.00,445.92" fill="#CC3311" opacity="0.12"/>
<path d="M86.00,359.44 L96.49,341.31 L106.97,307.70 L117.46,322.30 L127.94,322.74 L138.43,271.44 L148.91,252.87 L159.40,266.58 L169.89,275.42 L180.37,293.11 L190.86,277.19 L201.34,285.15 L211.83,293.11 L222.31,278.08 L232.80,288.25 L243.29,290.90 L253.77,276.75 L264.26,272.77 L274.74,281.17 L285.23,307.70 L295.71,309.47 L306.20,300.19 L316.69,284.27 L327.17,265.25 L337.66,272.77 L348.14,288.25 L358.63,265.25 L369.11,244.91 L379.60,236.51 L390.09,302.40 L400.57,337.33 L411.06,337.33 L421.54,284.71 L432.03,270.56 L442.51,253.75 L453.00,282.94 L463.49,271.00 L473.97,278.96 L484.46,273.21 L494.94,266.58 L505.43,277.63 L515.91,317.43 L526.40,328.05 L536.89,300.19 L547.37,293.55 L557.86,299.74 L568.34,281.17 L578.83,271.44 L589.31,281.17 L599.80,244.47 L610.29,259.06 L620.77,252.43 L631.26,272.77 L641.74,311.24 L652.23,330.26 L662.71,339.54 L673.20,359.44 L683.69,350.60 L694.17,356.79 L704.66,345.29 L715.14,352.37 L725.63,359.44 L736.11,364.31 L746.60,342.64 L757.09,321.86 L767.57,315.22 L778.06,319.64 L788.54,334.68 L799.03,315.01 L809.51,312.20" fill="none" stroke="#CC3311" stroke-width="3" stroke-linejoin="round" stroke-linecap="round"/>
<polygon points="86.00,221.11 96.49,243.74 106.97,267.32 117.46,236.99 127.94,191.28 138.43,201.32 148.91,209.11 159.40,183.31 169.89,177.29 180.37,152.96 190.86,170.91 201.34,165.04 211.83,165.41 222.31,209.27 232.80,240.54 243.29,254.57 253.77,262.04 264.26,230.89 274.74,253.38 285.23,246.32 295.71,262.74 306.20,258.45 316.69,246.32 327.17,231.87 337.66,181.13 348.14,159.45 358.63,182.35 369.11,203.16 379.60,223.89 390.09,232.12 400.57,246.32 411.06,256.62 421.54,290.06 432.03,279.80 442.51,270.21 453.00,227.83 463.49,229.85 473.97,217.63 484.46,224.44 494.94,232.03 505.43,239.53 515.91,204.81 526.40,209.76 536.89,235.87 547.37,198.01 557.86,193.00 568.34,180.07 578.83,183.44 589.31,214.15 599.80,257.13 610.29,267.67 620.77,265.07 631.26,249.25 641.74,252.72 652.23,207.78 662.71,194.03 673.20,146.97 683.69,143.28 694.17,174.24 704.66,157.51 715.14,152.96 725.63,171.02 736.11,209.57 746.60,238.88 757.09,267.32 767.57,269.81 778.06,216.12 788.54,213.49 799.03,206.71 809.51,203.90 809.51,396.16 799.03,400.84 788.54,395.73 778.06,401.06 767.57,431.39 757.09,438.30 746.60,415.44 736.11,394.35 725.63,357.71 715.14,344.82 704.66,336.73 694.17,366.88 683.69,327.96 673.20,332.24 662.71,371.85 652.23,393.47 641.74,429.91 631.26,428.96 620.77,434.36 610.29,437.95 599.80,426.38 589.31,395.95 578.83,371.83 568.34,369.89 557.86,379.95 547.37,388.21 536.89,415.80 526.40,395.03 515.91,392.03 505.43,410.37 494.94,412.57 484.46,407.78 473.97,403.08 463.49,406.78 453.00,411.46 442.51,441.60 432.03,437.32 421.54,450.94 411.06,431.32 400.57,428.34 390.09,406.28 379.60,410.09 369.11,391.02 358.63,371.15 348.14,348.05 337.66,362.64 327.17,403.89 316.69,428.34 306.20,432.14 295.71,426.08 285.23,428.34 274.74,420.40 264.26,412.82 253.77,431.20 243.29,424.52 232.80,419.09 222.31,390.22 211.83,352.71 201.34,348.66 190.86,358.71 180.37,344.82 169.89,355.87 159.40,367.54 148.91,391.26 138.43,388.44 127.94,372.83 117.46,415.56 106.97,438.30 96.49,422.97 86.00,409.34" fill="#0077BB" opacity="0.12"/>
<path d="M86.00,315.22 L96.49,333.35 L106.97,352.81 L117.46,326.28 L127.94,282.06 L138.43,294.88 L148.91,300.19 L159.40,275.42 L169.89,266.58 L180.37,248.89 L190.86,264.81 L201.34,256.85 L211.83,259.06 L222.31,299.74 L232.80,329.82 L243.29,339.54 L253.77,346.62 L264.26,321.86 L274.74,336.89 L285.23,337.33 L295.71,344.41 L306.20,345.29 L316.69,337.33 L327.17,317.88 L337.66,271.88 L348.14,253.75 L358.63,276.75 L369.11,297.09 L379.60,316.99 L390.09,319.20 L400.57,337.33 L411.06,343.97 L421.54,370.50 L432.03,358.56 L442.51,355.91 L453.00,319.64 L463.49,318.32 L473.97,310.36 L484.46,316.11 L494.94,322.30 L505.43,324.95 L515.91,298.42 L526.40,302.40 L536.89,325.84 L547.37,293.11 L557.86,286.48 L568.34,274.98 L578.83,277.63 L589.31,305.05 L599.80,341.76 L610.29,352.81 L620.77,349.72 L631.26,339.10 L641.74,341.31 L652.23,300.63 L662.71,282.94 L673.20,239.60 L683.69,235.62 L694.17,270.56 L704.66,247.12 L715.14,248.89 L725.63,264.37 L736.11,301.96 L746.60,327.16 L757.09,352.81 L767.57,350.60 L778.06,308.59 L788.54,304.61 L799.03,303.78 L809.51,300.03" fill="none" stroke="#0077BB" stroke-width="3" stroke-linejoin="round" stroke-linecap="round"/>
<line x1="655" x2="683" y1="107" y2="107" stroke="#CC3311" stroke-width="3"/>
<text class="legend" x="693" y="111">Agent</text>
<line x1="655" x2="683" y1="129" y2="129" stroke="#0077BB" stroke-width="3"/>
<text class="legend" x="693" y="133">Patient</text>
<line x1="655" x2="683" y1="151" y2="151" stroke="#333333" stroke-width="2" stroke-dasharray="7 6"/>
<text class="legend" x="693" y="155">Mean speech onset</text>
</svg>