<svg xmlns="http://www.w3.org/2000/svg" width="1920" height="1320" viewBox="0 0 1920 1320">
<image href="../../../../stimuli/Animate-animate%20centered%20and%20flipped/push-1-2-l.png" x="0" y="0" width="1920" height="1080" preserveAspectRatio="none"/>
<rect x="0" y="0" width="1920" height="1080" fill="none" stroke="#111" stroke-width="2"/>
<rect x="0" y="1080" width="1920" height="240" fill="#f7f7f7"/>
<rect x="40.0" y="100.0" width="850" height="850" fill="none" stroke="#00B8D9" stroke-width="6" stroke-dasharray="18 12"/>
<rect x="52.0" y="62.0" width="102.0" height="38" rx="6" fill="white" fill-opacity="0.86" stroke="#00B8D9" stroke-width="3"/>
<text x="62.0" y="88.0" font-family="Arial, Helvetica, sans-serif" font-size="24" font-weight="700" fill="#111">AGENT</text>
<rect x="970.0" y="100.0" width="850" height="850" fill="none" stroke="#FF3B8A" stroke-width="6" stroke-dasharray="18 12"/>
<rect x="982.0" y="62.0" width="134.0" height="38" rx="6" fill="white" fill-opacity="0.86" stroke="#FF3B8A" stroke-width="3"/>
<text x="992.0" y="88.0" font-family="Arial, Helvetica, sans-serif" font-size="24" font-weight="700" fill="#111">PATIENT</text>
<polyline points="1304.3,355.4 565.1,373.1 625.0,421.6 1227.0,476.2 689.8,431.5 1238.4,456.0 1509.5,579.6 615.7,510.1 733.3,407.0 703.5,421.1 1338.5,481.4 627.4,464.5 662.7,346.1 1245.2,659.3 663.8,466.7 1261.3,445.1 606.8,474.6 652.5,319.2 764.8,335.7 627.9,466.8 587.6,430.7 521.5,524.4 607.0,406.4 587.1,416.3 619.8,472.3 610.8,402.8 544.7,344.8 529.1,731.5 606.6,354.4 639.2,412.6 550.0,391.5 603.5,471.5 592.6,352.5 590.3,406.8 658.4,401.3 694.0,459.5 654.9,399.8 645.5,422.7 607.4,394.3 655.3,392.9 619.1,397.4 1281.1,555.7 801.9,501.3 1279.8,407.6 617.0,307.5 1102.4,426.5 622.5,372.0 904.2,460.9 562.6,393.8 610.0,380.2 582.1,382.3 542.5,425.4 598.4,378.4 1420.9,391.6 1248.6,379.5" fill="none" stroke="#111" stroke-width="4" stroke-opacity="0.36" stroke-linejoin="round"/>
<circle cx="1304.3" cy="355.4" r="16.8" fill="white" fill-opacity="0.84"/>
<circle cx="1304.3" cy="355.4" r="13.8" fill="#7A3CE8" fill-opacity="0.66" stroke="#111" stroke-width="2.5"/>
<text x="1304.3" y="362.4" text-anchor="middle" font-family="Arial, Helvetica, sans-serif" font-size="21" font-weight="800" fill="white" stroke="#111" stroke-width="3" paint-order="stroke">1</text>
<circle cx="565.1" cy="373.1" r="16.6" fill="white" fill-opacity="0.84"/>
<circle cx="565.1" cy="373.1" r="13.6" fill="#7A3CE8" fill-opacity="0.66" stroke="#111" stroke-width="2.5"/>
<text x="565.1" y="380.1" text-anchor="middle" font-family="Arial, Helvetica, sans-serif" font-size="21" font-weight="800" fill="white" stroke="#111" stroke-width="3" paint-order="stroke">2</text>
<circle cx="625.0" cy="421.6" r="20.8" fill="white" fill-opacity="0.84"/>
<circle cx="625.0" cy="421.6" r="17.8" fill="#7A3CE8" fill-opacity="0.66" stroke="#111" stroke-width="2.5"/>
<text x="625.0" y="428.6" text-anchor="middle" font-family="Arial, Helvetica, sans-serif" font-size="21" font-weight="800" fill="white" stroke="#111" stroke-width="3" paint-order="stroke">3</text>
<circle cx="1227.0" cy="476.2" r="20.2" fill="white" fill-opacity="0.84"/>
<circle cx="1227.0" cy="476.2" r="17.2" fill="#7A3CE8" fill-opacity="0.66" stroke="#111" stroke-width="2.5"/>
<text x="1227.0" y="483.2" text-anchor="middle" font-family="Arial, Helvetica, sans-serif" font-size="21" font-weight="800" fill="white" stroke="#111" stroke-width="3" paint-order="stroke">4</text>
<circle cx="689.8" cy="431.5" r="16.2" fill="white" fill-opacity="0.84"/>
<circle cx="689.8" cy="431.5" r="13.2" fill="#7A3CE8" fill-opacity="0.66" stroke="#111" stroke-width="2.5"/>
<text x="689.8" y="438.5" text-anchor="middle" font-family="Arial, Helvetica, sans-serif" font-size="21" font-weight="800" fill="white" stroke="#111" stroke-width="3" paint-order="stroke">5</text>
<circle cx="1238.4" cy="456.0" r="18.8" fill="white" fill-opacity="0.84"/>
<circle cx="1238.4" cy="456.0" r="15.8" fill="#7A3CE8" fill-opacity="0.66" stroke="#111" stroke-width="2.5"/>
<text x="1238.4" y="463.0" text-anchor="middle" font-family="Arial, Helvetica, sans-serif" font-size="21" font-weight="800" fill="white" stroke="#111" stroke-width="3" paint-order="stroke">6</text>
<circle cx="1509.5" cy="579.6" r="16.7" fill="white" fill-opacity="0.84"/>
<circle cx="1509.5" cy="579.6" r="13.7" fill="#7A3CE8" fill-opacity="0.66" stroke="#111" stroke-width="2.5"/>
<text x="1509.5" y="586.6" text-anchor="middle" font-family="Arial, Helvetica, sans-serif" font-size="21" font-weight="800" fill="white" stroke="#111" stroke-width="3" paint-order="stroke">7</text>
<circle cx="615.7" cy="510.1" r="17.9" fill="white" fill-opacity="0.84"/>
<circle cx="615.7" cy="510.1" r="14.9" fill="#7A3CE8" fill-opacity="0.66" stroke="#111" stroke-width="2.5"/>
<text x="615.7" y="517.1" text-anchor="middle" font-family="Arial, Helvetica, sans-serif" font-size="21" font-weight="800" fill="white" stroke="#111" stroke-width="3" paint-order="stroke">8</text>
<circle cx="733.3" cy="407.0" r="17.0" fill="white" fill-opacity="0.84"/>
<circle cx="733.3" cy="407.0" r="14.0" fill="#7A3CE8" fill-opacity="0.66" stroke="#111" stroke-width="2.5"/>
<text x="733.3" y="414.0" text-anchor="middle" font-family="Arial, Helvetica, sans-serif" font-size="21" font-weight="800" fill="white" stroke="#111" stroke-width="3" paint-order="stroke">9</text>
<circle cx="703.5" cy="421.1" r="16.1" fill="white" fill-opacity="0.84"/>
<circle cx="703.5" cy="421.1" r="13.1" fill="#7A3CE8" fill-opacity="0.66" stroke="#111" stroke-width="2.5"/>
<text x="703.5" y="428.1" text-anchor="middle" font-family="Arial, Helvetica, sans-serif" font-size="21" font-weight="800" fill="white" stroke="#111" stroke-width="3" paint-order="stroke">10</text>
<circle cx="1338.5" cy="481.4" r="18.1" fill="white" fill-opacity="0.84"/>
<circle cx="1338.5" cy="481.4" r="15.1" fill="#7A3CE8" fill-opacity="0.66" stroke="#111" stroke-width="2.5"/>
<text x="1338.5" y="488.4" text-anchor="middle" font-family="Arial, Helvetica, sans-serif" font-size="21" font-weight="800" fill="white" stroke="#111" stroke-width="3" paint-order="stroke">11</text>
<circle cx="627.4" cy="464.5" r="15.4" fill="white" fill-opacity="0.84"/>
<circle cx="627.4" cy="464.5" r="12.4" fill="#7A3CE8" fill-opacity="0.66" stroke="#111" stroke-width="2.5"/>
<text x="627.4" y="471.5" text-anchor="middle" font-family="Arial, Helvetica, sans-serif" font-size="21" font-weight="800" fill="white" stroke="#111" stroke-width="3" paint-order="stroke">12</text>
<circle cx="662.7" cy="346.1" r="17.8" fill="white" fill-opacity="0.84"/>
<circle cx="662.7" cy="346.1" r="14.8" fill="#7A3CE8" fill-opacity="0.66" stroke="#111" stroke-width="2.5"/>
<text x="662.7" y="353.1" text-anchor="middle" font-family="Arial, Helvetica, sans-serif" font-size="21" font-weight="800" fill="white" stroke="#111" stroke-width="3" paint-order="stroke">13</text>
<circle cx="1245.2" cy="659.3" r="16.5" fill="white" fill-opacity="0.84"/>
<circle cx="1245.2" cy="659.3" r="13.5" fill="#7A3CE8" fill-opacity="0.66" stroke="#111" stroke-width="2.5"/>
<text x="1245.2" y="666.3" text-anchor="middle" font-family="Arial, Helvetica, sans-serif" font-size="21" font-weight="800" fill="white" stroke="#111" stroke-width="3" paint-order="stroke">14</text>
<circle cx="663.8" cy="466.7" r="18.5" fill="white" fill-opacity="0.84"/>
<circle cx="663.8" cy="466.7" r="15.5" fill="#7A3CE8" fill-opacity="0.66" stroke="#111" stroke-width="2.5"/>
<text x="663.8" y="473.7" text-anchor="middle" font-family="Arial, Helvetica, sans-serif" font-size="21" font-weight="800" fill="white" stroke="#111" stroke-width="3" paint-order="stroke">15</text>
<circle cx="1261.3" cy="445.1" r="16.4" fill="white" fill-opacity="0.84"/>
<circle cx="1261.3" cy="445.1" r="13.4" fill="#7A3CE8" fill-opacity="0.66" stroke="#111" stroke-width="2.5"/>
<text x="1261.3" y="452.1" text-anchor="middle" font-family="Arial, Helvetica, sans-serif" font-size="21" font-weight="800" fill="white" stroke="#111" stroke-width="3" paint-order="stroke">16</text>
<circle cx="606.8" cy="474.6" r="16.8" fill="white" fill-opacity="0.84"/>
<circle cx="606.8" cy="474.6" r="13.8" fill="#7A3CE8" fill-opacity="0.66" stroke="#111" stroke-width="2.5"/>
<text x="606.8" y="481.6" text-anchor="middle" font-family="Arial, Helvetica, sans-serif" font-size="21" font-weight="800" fill="white" stroke="#111" stroke-width="3" paint-order="stroke">17</text>
<circle cx="652.5" cy="319.2" r="18.0" fill="white" fill-opacity="0.84"/>
<circle cx="652.5" cy="319.2" r="15.0" fill="#7A3CE8" fill-opacity="0.66" stroke="#111" stroke-width="2.5"/>
<text x="652.5" y="326.2" text-anchor="middle" font-family="Arial, Helvetica, sans-serif" font-size="21" font-weight="800" fill="white" stroke="#111" stroke-width="3" paint-order="stroke">18</text>
<circle cx="764.8" cy="335.7" r="16.3" fill="white" fill-opacity="0.84"/>
<circle cx="764.8" cy="335.7" r="13.3" fill="#7A3CE8" fill-opacity="0.66" stroke="#111" stroke-width="2.5"/>
<text x="764.8" y="342.7" text-anchor="middle" font-family="Arial, Helvetica, sans-serif" font-size="21" font-weight="800" fill="white" stroke="#111" stroke-width="3" paint-order="stroke">19</text>
<circle cx="627.9" cy="466.8" r="19.7" fill="white" fill-opacity="0.84"/>
<circle cx="627.9" cy="466.8" r="16.7" fill="#7A3CE8" fill-opacity="0.66" stroke="#111" stroke-width="2.5"/>
<text x="627.9" y="473.8" text-anchor="middle" font-family="Arial, Helvetica, sans-serif" font-size="21" font-weight="800" fill="white" stroke="#111" stroke-width="3" paint-order="stroke">20</text>
<circle cx="587.6" cy="430.7" r="22.4" fill="white" fill-opacity="0.84"/>
<circle cx="587.6" cy="430.7" r="19.4" fill="#7A3CE8" fill-opacity="0.66" stroke="#111" stroke-width="2.5"/>
<text x="587.6" y="437.7" text-anchor="middle" font-family="Arial, Helvetica, sans-serif" font-size="21" font-weight="800" fill="white" stroke="#111" stroke-width="3" paint-order="stroke">21</text>
<circle cx="521.5" cy="524.4" r="16.6" fill="white" fill-opacity="0.84"/>
<circle cx="521.5" cy="524.4" r="13.6" fill="#7A3CE8" fill-opacity="0.66" stroke="#111" stroke-width="2.5"/>
<text x="521.5" y="531.4" text-anchor="middle" font-family="Arial, Helvetica, sans-serif" font-size="21" font-weight="800" fill="white" stroke="#111" stroke-width="3" paint-order="stroke">22</text>
<circle cx="607.0" cy="406.4" r="21.0" fill="white" fill-opacity="0.84"/>
<circle cx="607.0" cy="406.4" r="18.0" fill="#7A3CE8" fill-opacity="0.66" stroke="#111" stroke-width="2.5"/>
<text x="607.0" y="413.4" text-anchor="middle" font-family="Arial, Helvetica, sans-serif" font-size="21" font-weight="800" fill="white" stroke="#111" stroke-width="3" paint-order="stroke">23</text>
<circle cx="587.1" cy="416.3" r="16.5" fill="white" fill-opacity="0.84"/>
<circle cx="587.1" cy="416.3" r="13.5" fill="#7A3CE8" fill-opacity="0.66" stroke="#111" stroke-width="2.5"/>
<text x="587.1" y="423.3" text-anchor="middle" font-family="Arial, Helvetica, sans-serif" font-size="21" font-weight="800" fill="white" stroke="#111" stroke-width="3" paint-order="stroke">24</text>
<circle cx="619.8" cy="472.3" r="18.0" fill="white" fill-opacity="0.84"/>
<circle cx="619.8" cy="472.3" r="15.0" fill="#7A3CE8" fill-opacity="0.66" stroke="#111" stroke-width="2.5"/>
<text x="619.8" y="479.3" text-anchor="middle" font-family="Arial, Helvetica, sans-serif" font-size="21" font-weight="800" fill="white" stroke="#111" stroke-width="3" paint-order="stroke">25</text>
<circle cx="610.8" cy="402.8" r="12.8" fill="white" fill-opacity="0.84"/>
<circle cx="610.8" cy="402.8" r="9.8" fill="#7A3CE8" fill-opacity="0.66" stroke="#111" stroke-width="2.5"/>
<text x="610.8" y="409.8" text-anchor="middle" font-family="Arial, Helvetica, sans-serif" font-size="21" font-weight="800" fill="white" stroke="#111" stroke-width="3" paint-order="stroke">26</text>
<circle cx="544.7" cy="344.8" r="20.0" fill="white" fill-opacity="0.84"/>
<circle cx="544.7" cy="344.8" r="17.0" fill="#7A3CE8" fill-opacity="0.66" stroke="#111" stroke-width="2.5"/>
<text x="544.7" y="351.8" text-anchor="middle" font-family="Arial, Helvetica, sans-serif" font-size="21" font-weight="800" fill="white" stroke="#111" stroke-width="3" paint-order="stroke">27</text>
<circle cx="529.1" cy="731.5" r="16.1" fill="white" fill-opacity="0.84"/>
<circle cx="529.1" cy="731.5" r="13.2" fill="#7A3CE8" fill-opacity="0.66" stroke="#111" stroke-width="2.5"/>
<text x="529.1" y="738.5" text-anchor="middle" font-family="Arial, Helvetica, sans-serif" font-size="21" font-weight="800" fill="white" stroke="#111" stroke-width="3" paint-order="stroke">28</text>
<circle cx="606.6" cy="354.4" r="14.9" fill="white" fill-opacity="0.84"/>
<circle cx="606.6" cy="354.4" r="11.9" fill="#7A3CE8" fill-opacity="0.66" stroke="#111" stroke-width="2.5"/>
<text x="606.6" y="361.4" text-anchor="middle" font-family="Arial, Helvetica, sans-serif" font-size="21" font-weight="800" fill="white" stroke="#111" stroke-width="3" paint-order="stroke">29</text>
<circle cx="639.2" cy="412.6" r="18.1" fill="white" fill-opacity="0.84"/>
<circle cx="639.2" cy="412.6" r="15.1" fill="#7A3CE8" fill-opacity="0.66" stroke="#111" stroke-width="2.5"/>
<text x="639.2" y="419.6" text-anchor="middle" font-family="Arial, Helvetica, sans-serif" font-size="21" font-weight="800" fill="white" stroke="#111" stroke-width="3" paint-order="stroke">30</text>
<circle cx="550.0" cy="391.5" r="16.5" fill="white" fill-opacity="0.84"/>
<circle cx="550.0" cy="391.5" r="13.5" fill="#7A3CE8" fill-opacity="0.66" stroke="#111" stroke-width="2.5"/>
<text x="550.0" y="398.5" text-anchor="middle" font-family="Arial, Helvetica, sans-serif" font-size="21" font-weight="800" fill="white" stroke="#111" stroke-width="3" paint-order="stroke">31</text>
<circle cx="603.5" cy="471.5" r="17.0" fill="white" fill-opacity="0.84"/>
<circle cx="603.5" cy="471.5" r="14.0" fill="#7A3CE8" fill-opacity="0.66" stroke="#111" stroke-width="2.5"/>
<text x="603.5" y="478.5" text-anchor="middle" font-family="Arial, Helvetica, sans-serif" font-size="21" font-weight="800" fill="white" stroke="#111" stroke-width="3" paint-order="stroke">32</text>
<circle cx="592.6" cy="352.5" r="19.0" fill="white" fill-opacity="0.84"/>
<circle cx="592.6" cy="352.5" r="16.0" fill="#7A3CE8" fill-opacity="0.66" stroke="#111" stroke-width="2.5"/>
<text x="592.6" y="359.5" text-anchor="middle" font-family="Arial, Helvetica, sans-serif" font-size="21" font-weight="800" fill="white" stroke="#111" stroke-width="3" paint-order="stroke">33</text>
<circle cx="590.3" cy="406.8" r="17.7" fill="white" fill-opacity="0.84"/>
<circle cx="590.3" cy="406.8" r="14.7" fill="#7A3CE8" fill-opacity="0.66" stroke="#111" stroke-width="2.5"/>
<text x="590.3" y="413.8" text-anchor="middle" font-family="Arial, Helvetica, sans-serif" font-size="21" font-weight="800" fill="white" stroke="#111" stroke-width="3" paint-order="stroke">34</text>
<circle cx="658.4" cy="401.3" r="14.7" fill="white" fill-opacity="0.84"/>
<circle cx="658.4" cy="401.3" r="11.7" fill="#7A3CE8" fill-opacity="0.66" stroke="#111" stroke-width="2.5"/>
<text x="658.4" y="408.3" text-anchor="middle" font-family="Arial, Helvetica, sans-serif" font-size="21" font-weight="800" fill="white" stroke="#111" stroke-width="3" paint-order="stroke">35</text>
<circle cx="694.0" cy="459.5" r="17.6" fill="white" fill-opacity="0.84"/>
<circle cx="694.0" cy="459.5" r="14.6" fill="#7A3CE8" fill-opacity="0.66" stroke="#111" stroke-width="2.5"/>
<text x="694.0" y="466.5" text-anchor="middle" font-family="Arial, Helvetica, sans-serif" font-size="21" font-weight="800" fill="white" stroke="#111" stroke-width="3" paint-order="stroke">36</text>
<circle cx="654.9" cy="399.8" r="15.3" fill="white" fill-opacity="0.84"/>
<circle cx="654.9" cy="399.8" r="12.3" fill="#7A3CE8" fill-opacity="0.66" stroke="#111" stroke-width="2.5"/>
<text x="654.9" y="406.8" text-anchor="middle" font-family="Arial, Helvetica, sans-serif" font-size="21" font-weight="800" fill="white" stroke="#111" stroke-width="3" paint-order="stroke">37</text>
<circle cx="645.5" cy="422.7" r="18.4" fill="white" fill-opacity="0.84"/>
<circle cx="645.5" cy="422.7" r="15.4" fill="#7A3CE8" fill-opacity="0.66" stroke="#111" stroke-width="2.5"/>
<text x="645.5" y="429.7" text-anchor="middle" font-family="Arial, Helvetica, sans-serif" font-size="21" font-weight="800" fill="white" stroke="#111" stroke-width="3" paint-order="stroke">38</text>
<circle cx="607.4" cy="394.3" r="19.0" fill="white" fill-opacity="0.84"/>
<circle cx="607.4" cy="394.3" r="16.0" fill="#7A3CE8" fill-opacity="0.66" stroke="#111" stroke-width="2.5"/>
<text x="607.4" y="401.3" text-anchor="middle" font-family="Arial, Helvetica, sans-serif" font-size="21" font-weight="800" fill="white" stroke="#111" stroke-width="3" paint-order="stroke">39</text>
<circle cx="655.3" cy="392.9" r="17.2" fill="white" fill-opacity="0.84"/>
<circle cx="655.3" cy="392.9" r="14.2" fill="#7A3CE8" fill-opacity="0.66" stroke="#111" stroke-width="2.5"/>
<text x="655.3" y="399.9" text-anchor="middle" font-family="Arial, Helvetica, sans-serif" font-size="21" font-weight="800" fill="white" stroke="#111" stroke-width="3" paint-order="stroke">40</text>
<circle cx="619.1" cy="397.4" r="17.5" fill="white" fill-opacity="0.84"/>
<circle cx="619.1" cy="397.4" r="14.5" fill="#7A3CE8" fill-opacity="0.66" stroke="#111" stroke-width="2.5"/>
<text x="619.1" y="404.4" text-anchor="middle" font-family="Arial, Helvetica, sans-serif" font-size="21" font-weight="800" fill="white" stroke="#111" stroke-width="3" paint-order="stroke">41</text>
<circle cx="1281.1" cy="555.7" r="18.1" fill="white" fill-opacity="0.84"/>
<circle cx="1281.1" cy="555.7" r="15.1" fill="#7A3CE8" fill-opacity="0.66" stroke="#111" stroke-width="2.5"/>
<text x="1281.1" y="562.7" text-anchor="middle" font-family="Arial, Helvetica, sans-serif" font-size="21" font-weight="800" fill="white" stroke="#111" stroke-width="3" paint-order="stroke">42</text>
<circle cx="801.9" cy="501.3" r="14.0" fill="white" fill-opacity="0.84"/>
<circle cx="801.9" cy="501.3" r="11.0" fill="#7A3CE8" fill-opacity="0.66" stroke="#111" stroke-width="2.5"/>
<text x="801.9" y="508.3" text-anchor="middle" font-family="Arial, Helvetica, sans-serif" font-size="21" font-weight="800" fill="white" stroke="#111" stroke-width="3" paint-order="stroke">43</text>
<circle cx="1279.8" cy="407.6" r="16.0" fill="white" fill-opacity="0.84"/>
<circle cx="1279.8" cy="407.6" r="13.0" fill="#7A3CE8" fill-opacity="0.66" stroke="#111" stroke-width="2.5"/>
<text x="1279.8" y="414.6" text-anchor="middle" font-family="Arial, Helvetica, sans-serif" font-size="21" font-weight="800" fill="white" stroke="#111" stroke-width="3" paint-order="stroke">44</text>
<circle cx="617.0" cy="307.5" r="17.6" fill="white" fill-opacity="0.84"/>
<circle cx="617.0" cy="307.5" r="14.6" fill="#7A3CE8" fill-opacity="0.66" stroke="#111" stroke-width="2.5"/>
<text x="617.0" y="314.5" text-anchor="middle" font-family="Arial, Helvetica, sans-serif" font-size="21" font-weight="800" fill="white" stroke="#111" stroke-width="3" paint-order="stroke">45</text>
<circle cx="1102.4" cy="426.5" r="17.0" fill="white" fill-opacity="0.84"/>
<circle cx="1102.4" cy="426.5" r="14.0" fill="#7A3CE8" fill-opacity="0.66" stroke="#111" stroke-width="2.5"/>
<text x="1102.4" y="433.5" text-anchor="middle" font-family="Arial, Helvetica, sans-serif" font-size="21" font-weight="800" fill="white" stroke="#111" stroke-width="3" paint-order="stroke">46</text>
<circle cx="622.5" cy="372.0" r="17.4" fill="white" fill-opacity="0.84"/>
<circle cx="622.5" cy="372.0" r="14.4" fill="#7A3CE8" fill-opacity="0.66" stroke="#111" stroke-width="2.5"/>
<text x="622.5" y="379.0" text-anchor="middle" font-family="Arial, Helvetica, sans-serif" font-size="21" font-weight="800" fill="white" stroke="#111" stroke-width="3" paint-order="stroke">47</text>
<circle cx="904.2" cy="460.9" r="15.2" fill="white" fill-opacity="0.84"/>
<circle cx="904.2" cy="460.9" r="12.2" fill="#7A3CE8" fill-opacity="0.66" stroke="#111" stroke-width="2.5"/>
<text x="904.2" y="467.9" text-anchor="middle" font-family="Arial, Helvetica, sans-serif" font-size="21" font-weight="800" fill="white" stroke="#111" stroke-width="3" paint-order="stroke">48</text>
<circle cx="562.6" cy="393.8" r="21.0" fill="white" fill-opacity="0.84"/>
<circle cx="562.6" cy="393.8" r="18.0" fill="#7A3CE8" fill-opacity="0.66" stroke="#111" stroke-width="2.5"/>
<text x="562.6" y="400.8" text-anchor="middle" font-family="Arial, Helvetica, sans-serif" font-size="21" font-weight="800" fill="white" stroke="#111" stroke-width="3" paint-order="stroke">49</text>
<circle cx="610.0" cy="380.2" r="17.4" fill="white" fill-opacity="0.84"/>
<circle cx="610.0" cy="380.2" r="14.4" fill="#7A3CE8" fill-opacity="0.66" stroke="#111" stroke-width="2.5"/>
<text x="610.0" y="387.2" text-anchor="middle" font-family="Arial, Helvetica, sans-serif" font-size="21" font-weight="800" fill="white" stroke="#111" stroke-width="3" paint-order="stroke">50</text>
<circle cx="582.1" cy="382.3" r="25.4" fill="white" fill-opacity="0.84"/>
<circle cx="582.1" cy="382.3" r="22.4" fill="#7A3CE8" fill-opacity="0.66" stroke="#111" stroke-width="2.5"/>
<text x="582.1" y="389.3" text-anchor="middle" font-family="Arial, Helvetica, sans-serif" font-size="21" font-weight="800" fill="white" stroke="#111" stroke-width="3" paint-order="stroke">51</text>
<circle cx="542.5" cy="425.4" r="26.5" fill="white" fill-opacity="0.84"/>
<circle cx="542.5" cy="425.4" r="23.5" fill="#7A3CE8" fill-opacity="0.66" stroke="#111" stroke-width="2.5"/>
<text x="542.5" y="432.4" text-anchor="middle" font-family="Arial, Helvetica, sans-serif" font-size="21" font-weight="800" fill="white" stroke="#111" stroke-width="3" paint-order="stroke">52</text>
<circle cx="598.4" cy="378.4" r="23.0" fill="white" fill-opacity="0.84"/>
<circle cx="598.4" cy="378.4" r="20.0" fill="#7A3CE8" fill-opacity="0.66" stroke="#111" stroke-width="2.5"/>
<text x="598.4" y="385.4" text-anchor="middle" font-family="Arial, Helvetica, sans-serif" font-size="21" font-weight="800" fill="white" stroke="#111" stroke-width="3" paint-order="stroke">53</text>
<circle cx="1420.9" cy="391.6" r="16.4" fill="white" fill-opacity="0.84"/>
<circle cx="1420.9" cy="391.6" r="13.4" fill="#7A3CE8" fill-opacity="0.66" stroke="#111" stroke-width="2.5"/>
<text x="1420.9" y="398.6" text-anchor="middle" font-family="Arial, Helvetica, sans-serif" font-size="21" font-weight="800" fill="white" stroke="#111" stroke-width="3" paint-order="stroke">54</text>
<circle cx="1248.6" cy="379.5" r="16.8" fill="white" fill-opacity="0.84"/>
<circle cx="1248.6" cy="379.5" r="13.8" fill="#7A3CE8" fill-opacity="0.66" stroke="#111" stroke-width="2.5"/>
<text x="1248.6" y="386.5" text-anchor="middle" font-family="Arial, Helvetica, sans-serif" font-size="21" font-weight="800" fill="white" stroke="#111" stroke-width="3" paint-order="stroke">55</text>
<rect x="16" y="1094" width="1120" height="168" rx="8" fill="white" fill-opacity="0.92" stroke="#111" stroke-opacity="0.22"/>
<text x="36.0" y="1128.0" font-family="Arial, Helvetica, sans-serif" font-size="24" font-weight="600" fill="#111">K15 / k15_1.asc block 25 | push-1-2-l.png | RT NA ms | 55 fixations</text>
<text x="36.0" y="1159.0" font-family="Arial, Helvetica, sans-serif" font-size="24" font-weight="600" fill="#111">numbers show fixation order; dot size shows fixation duration</text>
<circle cx="42" cy="1198" r="11" fill="#005DFF" fill-opacity="0.64" stroke="#111" stroke-width="2"/>
<text x="62.0" y="1206.0" font-family="Arial, Helvetica, sans-serif" font-size="22" font-weight="500" fill="#111">blue: before speech onset</text>
<circle cx="42" cy="1232" r="11" fill="#FF8A00" fill-opacity="0.64" stroke="#111" stroke-width="2"/>
<text x="62.0" y="1240.0" font-family="Arial, Helvetica, sans-serif" font-size="22" font-weight="500" fill="#111">orange: first 2000 ms after onset</text>
</svg>
