<svg xmlns="http://www.w3.org/2000/svg" width="1920" height="1320" viewBox="0 0 1920 1320">
<image href="../../../../stimuli/Animate-animate%20centered%20and%20flipped/tie-1-2-l.png" x="0" y="0" width="1920" height="1080" preserveAspectRatio="none"/>
<rect x="0" y="0" width="1920" height="1080" fill="none" stroke="#111" stroke-width="2"/>
<rect x="0" y="1080" width="1920" height="240" fill="#f7f7f7"/>
<rect x="40.0" y="100.0" width="850" height="850" fill="none" stroke="#00B8D9" stroke-width="6" stroke-dasharray="18 12"/>
<rect x="52.0" y="62.0" width="102.0" height="38" rx="6" fill="white" fill-opacity="0.86" stroke="#00B8D9" stroke-width="3"/>
<text x="62.0" y="88.0" font-family="Arial, Helvetica, sans-serif" font-size="24" font-weight="700" fill="#111">AGENT</text>
<rect x="970.0" y="100.0" width="850" height="850" fill="none" stroke="#FF3B8A" stroke-width="6" stroke-dasharray="18 12"/>
<rect x="982.0" y="62.0" width="134.0" height="38" rx="6" fill="white" fill-opacity="0.86" stroke="#FF3B8A" stroke-width="3"/>
<text x="992.0" y="88.0" font-family="Arial, Helvetica, sans-serif" font-size="24" font-weight="700" fill="#111">PATIENT</text>
<polyline points="722.0,516.2 1006.8,602.9 1157.5,590.8 706.8,511.9 685.9,436.3 661.4,424.4 1180.5,411.7 1158.7,426.6 788.7,522.6 669.6,573.9 847.1,594.3 1143.0,577.8 765.9,559.6 616.6,566.1 680.0,433.7 643.0,433.3 645.3,421.5 724.1,462.5 650.6,502.6 636.5,443.3 671.9,403.9 1155.1,424.9 1109.2,470.0 1180.7,437.9 1136.2,423.5 1349.8,553.6 1422.8,594.0 1191.9,426.1 1141.6,421.7 1160.0,630.9" fill="none" stroke="#111" stroke-width="4" stroke-opacity="0.36" stroke-linejoin="round"/>
<circle cx="722.0" cy="516.2" r="13.9" fill="white" fill-opacity="0.84"/>
<circle cx="722.0" cy="516.2" r="10.9" fill="#005DFF" fill-opacity="0.66" stroke="#111" stroke-width="2.5"/>
<text x="722.0" y="523.2" text-anchor="middle" font-family="Arial, Helvetica, sans-serif" font-size="21" font-weight="800" fill="white" stroke="#111" stroke-width="3" paint-order="stroke">1</text>
<circle cx="1006.8" cy="602.9" r="14.8" fill="white" fill-opacity="0.84"/>
<circle cx="1006.8" cy="602.9" r="11.8" fill="#005DFF" fill-opacity="0.66" stroke="#111" stroke-width="2.5"/>
<text x="1006.8" y="609.9" text-anchor="middle" font-family="Arial, Helvetica, sans-serif" font-size="21" font-weight="800" fill="white" stroke="#111" stroke-width="3" paint-order="stroke">2</text>
<circle cx="1157.5" cy="590.8" r="25.0" fill="white" fill-opacity="0.84"/>
<circle cx="1157.5" cy="590.8" r="22.0" fill="#005DFF" fill-opacity="0.66" stroke="#111" stroke-width="2.5"/>
<text x="1157.5" y="597.8" text-anchor="middle" font-family="Arial, Helvetica, sans-serif" font-size="21" font-weight="800" fill="white" stroke="#111" stroke-width="3" paint-order="stroke">3</text>
<circle cx="706.8" cy="511.9" r="15.5" fill="white" fill-opacity="0.84"/>
<circle cx="706.8" cy="511.9" r="12.5" fill="#005DFF" fill-opacity="0.66" stroke="#111" stroke-width="2.5"/>
<text x="706.8" y="518.9" text-anchor="middle" font-family="Arial, Helvetica, sans-serif" font-size="21" font-weight="800" fill="white" stroke="#111" stroke-width="3" paint-order="stroke">4</text>
<circle cx="685.9" cy="436.3" r="18.8" fill="white" fill-opacity="0.84"/>
<circle cx="685.9" cy="436.3" r="15.8" fill="#005DFF" fill-opacity="0.66" stroke="#111" stroke-width="2.5"/>
<text x="685.9" y="443.3" text-anchor="middle" font-family="Arial, Helvetica, sans-serif" font-size="21" font-weight="800" fill="white" stroke="#111" stroke-width="3" paint-order="stroke">5</text>
<circle cx="661.4" cy="424.4" r="14.5" fill="white" fill-opacity="0.84"/>
<circle cx="661.4" cy="424.4" r="11.5" fill="#005DFF" fill-opacity="0.66" stroke="#111" stroke-width="2.5"/>
<text x="661.4" y="431.4" text-anchor="middle" font-family="Arial, Helvetica, sans-serif" font-size="21" font-weight="800" fill="white" stroke="#111" stroke-width="3" paint-order="stroke">6</text>
<circle cx="1180.5" cy="411.7" r="16.9" fill="white" fill-opacity="0.84"/>
<circle cx="1180.5" cy="411.7" r="13.9" fill="#005DFF" fill-opacity="0.66" stroke="#111" stroke-width="2.5"/>
<text x="1180.5" y="418.7" text-anchor="middle" font-family="Arial, Helvetica, sans-serif" font-size="21" font-weight="800" fill="white" stroke="#111" stroke-width="3" paint-order="stroke">7</text>
<circle cx="1158.7" cy="426.6" r="22.8" fill="white" fill-opacity="0.84"/>
<circle cx="1158.7" cy="426.6" r="19.8" fill="#005DFF" fill-opacity="0.66" stroke="#111" stroke-width="2.5"/>
<text x="1158.7" y="433.6" text-anchor="middle" font-family="Arial, Helvetica, sans-serif" font-size="21" font-weight="800" fill="white" stroke="#111" stroke-width="3" paint-order="stroke">8</text>
<circle cx="788.7" cy="522.6" r="17.3" fill="white" fill-opacity="0.84"/>
<circle cx="788.7" cy="522.6" r="14.3" fill="#005DFF" fill-opacity="0.66" stroke="#111" stroke-width="2.5"/>
<text x="788.7" y="529.6" text-anchor="middle" font-family="Arial, Helvetica, sans-serif" font-size="21" font-weight="800" fill="white" stroke="#111" stroke-width="3" paint-order="stroke">9</text>
<circle cx="669.6" cy="573.9" r="17.0" fill="white" fill-opacity="0.84"/>
<circle cx="669.6" cy="573.9" r="14.0" fill="#005DFF" fill-opacity="0.66" stroke="#111" stroke-width="2.5"/>
<text x="669.6" y="580.9" text-anchor="middle" font-family="Arial, Helvetica, sans-serif" font-size="21" font-weight="800" fill="white" stroke="#111" stroke-width="3" paint-order="stroke">10</text>
<circle cx="847.1" cy="594.3" r="21.8" fill="white" fill-opacity="0.84"/>
<circle cx="847.1" cy="594.3" r="18.8" fill="#005DFF" fill-opacity="0.66" stroke="#111" stroke-width="2.5"/>
<text x="847.1" y="601.3" text-anchor="middle" font-family="Arial, Helvetica, sans-serif" font-size="21" font-weight="800" fill="white" stroke="#111" stroke-width="3" paint-order="stroke">11</text>
<circle cx="1143.0" cy="577.8" r="24.1" fill="white" fill-opacity="0.84"/>
<circle cx="1143.0" cy="577.8" r="21.1" fill="#005DFF" fill-opacity="0.66" stroke="#111" stroke-width="2.5"/>
<text x="1143.0" y="584.8" text-anchor="middle" font-family="Arial, Helvetica, sans-serif" font-size="21" font-weight="800" fill="white" stroke="#111" stroke-width="3" paint-order="stroke">12</text>
<circle cx="765.9" cy="559.6" r="20.2" fill="white" fill-opacity="0.84"/>
<circle cx="765.9" cy="559.6" r="17.2" fill="#005DFF" fill-opacity="0.66" stroke="#111" stroke-width="2.5"/>
<text x="765.9" y="566.6" text-anchor="middle" font-family="Arial, Helvetica, sans-serif" font-size="21" font-weight="800" fill="white" stroke="#111" stroke-width="3" paint-order="stroke">13</text>
<circle cx="616.6" cy="566.1" r="19.1" fill="white" fill-opacity="0.84"/>
<circle cx="616.6" cy="566.1" r="16.1" fill="#005DFF" fill-opacity="0.66" stroke="#111" stroke-width="2.5"/>
<text x="616.6" y="573.1" text-anchor="middle" font-family="Arial, Helvetica, sans-serif" font-size="21" font-weight="800" fill="white" stroke="#111" stroke-width="3" paint-order="stroke">14</text>
<circle cx="680.0" cy="433.7" r="14.2" fill="white" fill-opacity="0.84"/>
<circle cx="680.0" cy="433.7" r="11.2" fill="#005DFF" fill-opacity="0.66" stroke="#111" stroke-width="2.5"/>
<text x="680.0" y="440.7" text-anchor="middle" font-family="Arial, Helvetica, sans-serif" font-size="21" font-weight="800" fill="white" stroke="#111" stroke-width="3" paint-order="stroke">15</text>
<circle cx="643.0" cy="433.3" r="16.6" fill="white" fill-opacity="0.84"/>
<circle cx="643.0" cy="433.3" r="13.6" fill="#005DFF" fill-opacity="0.66" stroke="#111" stroke-width="2.5"/>
<text x="643.0" y="440.3" text-anchor="middle" font-family="Arial, Helvetica, sans-serif" font-size="21" font-weight="800" fill="white" stroke="#111" stroke-width="3" paint-order="stroke">16</text>
<circle cx="645.3" cy="421.5" r="22.9" fill="white" fill-opacity="0.84"/>
<circle cx="645.3" cy="421.5" r="19.9" fill="#005DFF" fill-opacity="0.66" stroke="#111" stroke-width="2.5"/>
<text x="645.3" y="428.5" text-anchor="middle" font-family="Arial, Helvetica, sans-serif" font-size="21" font-weight="800" fill="white" stroke="#111" stroke-width="3" paint-order="stroke">17</text>
<circle cx="724.1" cy="462.5" r="18.1" fill="white" fill-opacity="0.84"/>
<circle cx="724.1" cy="462.5" r="15.1" fill="#005DFF" fill-opacity="0.66" stroke="#111" stroke-width="2.5"/>
<text x="724.1" y="469.5" text-anchor="middle" font-family="Arial, Helvetica, sans-serif" font-size="21" font-weight="800" fill="white" stroke="#111" stroke-width="3" paint-order="stroke">18</text>
<circle cx="650.6" cy="502.6" r="17.8" fill="white" fill-opacity="0.84"/>
<circle cx="650.6" cy="502.6" r="14.8" fill="#005DFF" fill-opacity="0.66" stroke="#111" stroke-width="2.5"/>
<text x="650.6" y="509.6" text-anchor="middle" font-family="Arial, Helvetica, sans-serif" font-size="21" font-weight="800" fill="white" stroke="#111" stroke-width="3" paint-order="stroke">19</text>
<circle cx="636.5" cy="443.3" r="15.3" fill="white" fill-opacity="0.84"/>
<circle cx="636.5" cy="443.3" r="12.3" fill="#005DFF" fill-opacity="0.66" stroke="#111" stroke-width="2.5"/>
<text x="636.5" y="450.3" text-anchor="middle" font-family="Arial, Helvetica, sans-serif" font-size="21" font-weight="800" fill="white" stroke="#111" stroke-width="3" paint-order="stroke">20</text>
<circle cx="671.9" cy="403.9" r="17.3" fill="white" fill-opacity="0.84"/>
<circle cx="671.9" cy="403.9" r="14.3" fill="#005DFF" fill-opacity="0.66" stroke="#111" stroke-width="2.5"/>
<text x="671.9" y="410.9" text-anchor="middle" font-family="Arial, Helvetica, sans-serif" font-size="21" font-weight="800" fill="white" stroke="#111" stroke-width="3" paint-order="stroke">21</text>
<circle cx="1155.1" cy="424.9" r="20.0" fill="white" fill-opacity="0.84"/>
<circle cx="1155.1" cy="424.9" r="17.0" fill="#005DFF" fill-opacity="0.66" stroke="#111" stroke-width="2.5"/>
<text x="1155.1" y="431.9" text-anchor="middle" font-family="Arial, Helvetica, sans-serif" font-size="21" font-weight="800" fill="white" stroke="#111" stroke-width="3" paint-order="stroke">22</text>
<circle cx="1109.2" cy="470.0" r="21.3" fill="white" fill-opacity="0.84"/>
<circle cx="1109.2" cy="470.0" r="18.3" fill="#005DFF" fill-opacity="0.66" stroke="#111" stroke-width="2.5"/>
<text x="1109.2" y="477.0" text-anchor="middle" font-family="Arial, Helvetica, sans-serif" font-size="21" font-weight="800" fill="white" stroke="#111" stroke-width="3" paint-order="stroke">23</text>
<circle cx="1180.7" cy="437.9" r="12.4" fill="white" fill-opacity="0.84"/>
<circle cx="1180.7" cy="437.9" r="9.4" fill="#005DFF" fill-opacity="0.66" stroke="#111" stroke-width="2.5"/>
<text x="1180.7" y="444.9" text-anchor="middle" font-family="Arial, Helvetica, sans-serif" font-size="21" font-weight="800" fill="white" stroke="#111" stroke-width="3" paint-order="stroke">24</text>
<circle cx="1136.2" cy="423.5" r="20.8" fill="white" fill-opacity="0.84"/>
<circle cx="1136.2" cy="423.5" r="17.8" fill="#005DFF" fill-opacity="0.66" stroke="#111" stroke-width="2.5"/>
<text x="1136.2" y="430.5" text-anchor="middle" font-family="Arial, Helvetica, sans-serif" font-size="21" font-weight="800" fill="white" stroke="#111" stroke-width="3" paint-order="stroke">25</text>
<circle cx="1349.8" cy="553.6" r="17.7" fill="white" fill-opacity="0.84"/>
<circle cx="1349.8" cy="553.6" r="14.7" fill="#FF8A00" fill-opacity="0.66" stroke="#111" stroke-width="2.5"/>
<text x="1349.8" y="560.6" text-anchor="middle" font-family="Arial, Helvetica, sans-serif" font-size="21" font-weight="800" fill="white" stroke="#111" stroke-width="3" paint-order="stroke">26</text>
<circle cx="1422.8" cy="594.0" r="19.8" fill="white" fill-opacity="0.84"/>
<circle cx="1422.8" cy="594.0" r="16.8" fill="#FF8A00" fill-opacity="0.66" stroke="#111" stroke-width="2.5"/>
<text x="1422.8" y="601.0" text-anchor="middle" font-family="Arial, Helvetica, sans-serif" font-size="21" font-weight="800" fill="white" stroke="#111" stroke-width="3" paint-order="stroke">27</text>
<circle cx="1191.9" cy="426.1" r="15.2" fill="white" fill-opacity="0.84"/>
<circle cx="1191.9" cy="426.1" r="12.2" fill="#FF8A00" fill-opacity="0.66" stroke="#111" stroke-width="2.5"/>
<text x="1191.9" y="433.1" text-anchor="middle" font-family="Arial, Helvetica, sans-serif" font-size="21" font-weight="800" fill="white" stroke="#111" stroke-width="3" paint-order="stroke">28</text>
<circle cx="1141.6" cy="421.7" r="20.0" fill="white" fill-opacity="0.84"/>
<circle cx="1141.6" cy="421.7" r="17.0" fill="#FF8A00" fill-opacity="0.66" stroke="#111" stroke-width="2.5"/>
<text x="1141.6" y="428.7" text-anchor="middle" font-family="Arial, Helvetica, sans-serif" font-size="21" font-weight="800" fill="white" stroke="#111" stroke-width="3" paint-order="stroke">29</text>
<circle cx="1160.0" cy="630.9" r="21.3" fill="white" fill-opacity="0.84"/>
<circle cx="1160.0" cy="630.9" r="18.3" fill="#FF8A00" fill-opacity="0.66" stroke="#111" stroke-width="2.5"/>
<text x="1160.0" y="637.9" text-anchor="middle" font-family="Arial, Helvetica, sans-serif" font-size="21" font-weight="800" fill="white" stroke="#111" stroke-width="3" paint-order="stroke">30</text>
<rect x="16" y="1094" width="1120" height="168" rx="8" fill="white" fill-opacity="0.92" stroke="#111" stroke-opacity="0.22"/>
<text x="36.0" y="1128.0" font-family="Arial, Helvetica, sans-serif" font-size="24" font-weight="600" fill="#111">K11 / k11_2.asc block 28 | tie-1-2-l.png | RT 9781 ms | 30 fixations</text>
<text x="36.0" y="1159.0" font-family="Arial, Helvetica, sans-serif" font-size="24" font-weight="600" fill="#111">numbers show fixation order; dot size shows fixation duration</text>
<circle cx="42" cy="1198" r="11" fill="#005DFF" fill-opacity="0.64" stroke="#111" stroke-width="2"/>
<text x="62.0" y="1206.0" font-family="Arial, Helvetica, sans-serif" font-size="22" font-weight="500" fill="#111">blue: before speech onset</text>
<circle cx="42" cy="1232" r="11" fill="#FF8A00" fill-opacity="0.64" stroke="#111" stroke-width="2"/>
<text x="62.0" y="1240.0" font-family="Arial, Helvetica, sans-serif" font-size="22" font-weight="500" fill="#111">orange: first 2000 ms after onset</text>
</svg>
