<svg xmlns="http://www.w3.org/2000/svg" width="820" height="560" viewBox="0 0 820 560">
<rect width="100%" height="100%" fill="white"/>
<style>
text { font-family: Arial, Helvetica, sans-serif; fill: #222; }
.title { font-size: 20px; font-weight: 700; }
.subtitle { font-size: 13px; fill: #555; }
.axis { stroke: #222; stroke-width: 1; }
.grid { stroke: #dddddd; stroke-width: 1; }
.tick { font-size: 12px; fill: #333; }
.label { font-size: 14px; fill: #222; }
.legend { font-size: 13px; fill: #222; }
</style>
<text class="title" x="421.0" y="28" text-anchor="middle">Inverse AVP, inanimate patient</text>
<text class="subtitle" x="421.0" y="47" text-anchor="middle">Linguistic encoding III, RT &lt; 6000 ms, fluent trials; n = 113 trials</text>
<line class="grid" x1="82" x2="760" y1="470.00" y2="470.00"/>
<text class="tick" x="72" y="474.00" text-anchor="end">0.0</text>
<line class="grid" x1="82" x2="760" y1="428.80" y2="428.80"/>
<text class="tick" x="72" y="432.80" text-anchor="end">0.1</text>
<line class="grid" x1="82" x2="760" y1="387.60" y2="387.60"/>
<text class="tick" x="72" y="391.60" text-anchor="end">0.2</text>
<line class="grid" x1="82" x2="760" y1="346.40" y2="346.40"/>
<text class="tick" x="72" y="350.40" text-anchor="end">0.3</text>
<line class="grid" x1="82" x2="760" y1="305.20" y2="305.20"/>
<text class="tick" x="72" y="309.20" text-anchor="end">0.4</text>
<line class="grid" x1="82" x2="760" y1="264.00" y2="264.00"/>
<text class="tick" x="72" y="268.00" text-anchor="end">0.5</text>
<line class="grid" x1="82" x2="760" y1="222.80" y2="222.80"/>
<text class="tick" x="72" y="226.80" text-anchor="end">0.6</text>
<line class="grid" x1="82" x2="760" y1="181.60" y2="181.60"/>
<text class="tick" x="72" y="185.60" text-anchor="end">0.7</text>
<line class="grid" x1="82" x2="760" y1="140.40" y2="140.40"/>
<text class="tick" x="72" y="144.40" text-anchor="end">0.8</text>
<line class="grid" x1="82" x2="760" y1="99.20" y2="99.20"/>
<text class="tick" x="72" y="103.20" text-anchor="end">0.9</text>
<line class="grid" x1="82" x2="760" y1="58.00" y2="58.00"/>
<text class="tick" x="72" y="62.00" text-anchor="end">1.0</text>
<line class="grid" x1="82.00" x2="82.00" y1="58" y2="470"/>
<text class="tick" x="82.00" y="492" text-anchor="middle">0.0</text>
<line class="grid" x1="149.80" x2="149.80" y1="58" y2="470"/>
<text class="tick" x="149.80" y="492" text-anchor="middle">0.1</text>
<line class="grid" x1="217.60" x2="217.60" y1="58" y2="470"/>
<text class="tick" x="217.60" y="492" text-anchor="middle">0.2</text>
<line class="grid" x1="285.40" x2="285.40" y1="58" y2="470"/>
<text class="tick" x="285.40" y="492" text-anchor="middle">0.3</text>
<line class="grid" x1="353.20" x2="353.20" y1="58" y2="470"/>
<text class="tick" x="353.20" y="492" text-anchor="middle">0.4</text>
<line class="grid" x1="421.00" x2="421.00" y1="58" y2="470"/>
<text class="tick" x="421.00" y="492" text-anchor="middle">0.5</text>
<line class="grid" x1="488.80" x2="488.80" y1="58" y2="470"/>
<text class="tick" x="488.80" y="492" text-anchor="middle">0.6</text>
<line class="grid" x1="556.60" x2="556.60" y1="58" y2="470"/>
<text class="tick" x="556.60" y="492" text-anchor="middle">0.7</text>
<line class="grid" x1="624.40" x2="624.40" y1="58" y2="470"/>
<text class="tick" x="624.40" y="492" text-anchor="middle">0.8</text>
<line class="grid" x1="692.20" x2="692.20" y1="58" y2="470"/>
<text class="tick" x="692.20" y="492" text-anchor="middle">0.9</text>
<line class="grid" x1="760.00" x2="760.00" y1="58" y2="470"/>
<text class="tick" x="760.00" y="492" text-anchor="middle">1.0</text>
<line class="axis" x1="82" x2="760" y1="470" y2="470"/>
<line class="axis" x1="82" x2="82" y1="58" y2="470"/>
<text class="label" x="421.0" y="532" text-anchor="middle">Relative Time</text>
<text class="label" x="20" y="264.0" text-anchor="middle" transform="rotate(-90 20 264.0)">Proportion of Looks</text>
<polygon points="82.00,155.01 115.90,167.12 149.80,168.26 183.70,168.57 217.60,159.87 251.50,154.72 285.40,147.65 319.30,136.99 353.20,142.50 387.10,147.48 421.00,157.13 454.90,161.29 488.80,154.10 522.70,149.75 556.60,159.33 590.50,169.00 624.40,185.63 658.30,206.38 692.20,222.01 726.10,228.42 760.00,237.48 760.00,311.81 726.10,304.53 692.20,296.36 658.30,281.37 624.40,259.97 590.50,241.45 556.60,230.42 522.70,219.72 488.80,225.00 454.90,232.40 421.00,227.51 387.10,216.60 353.20,212.97 319.30,204.33 285.40,217.88 251.50,225.69 217.60,231.62 183.70,240.28 149.80,242.19 115.90,238.66 82.00,225.58" fill="#CC3311" opacity="0.12"/>
<path d="M82.00,190.30 L115.90,202.89 L149.80,205.23 L183.70,204.42 L217.60,195.75 L251.50,190.20 L285.40,182.77 L319.30,170.66 L353.20,177.74 L387.10,182.04 L421.00,192.32 L454.90,196.84 L488.80,189.55 L522.70,184.74 L556.60,194.87 L590.50,205.23 L624.40,222.80 L658.30,243.87 L692.20,259.19 L726.10,266.48 L760.00,274.65" fill="none" stroke="#CC3311" stroke-width="3" stroke-linejoin="round" stroke-linecap="round"/>
<polygon points="82.00,365.93 115.90,360.25 149.80,353.38 183.70,353.71 217.60,342.20 251.50,329.25 285.40,333.35 319.30,346.74 353.20,347.41 387.10,354.33 421.00,359.34 454.90,365.29 488.80,377.90 522.70,374.11 556.60,364.37 590.50,362.21 624.40,349.00 658.30,335.53 692.20,312.38 726.10,295.78 760.00,281.61 760.00,355.33 726.10,367.42 692.20,380.86 658.30,400.01 624.40,411.18 590.50,422.03 556.60,421.33 522.70,430.99 488.80,433.33 454.90,422.30 421.00,418.34 387.10,416.21 353.20,410.29 319.30,409.94 285.40,399.12 251.50,396.07 217.60,407.33 183.70,415.21 149.80,415.40 115.90,419.47 82.00,424.36" fill="#0077BB" opacity="0.12"/>
<path d="M82.00,395.15 L115.90,389.86 L149.80,384.39 L183.70,384.46 L217.60,374.77 L251.50,362.66 L285.40,366.23 L319.30,378.34 L353.20,378.85 L387.10,385.27 L421.00,388.84 L454.90,393.80 L488.80,405.61 L522.70,402.55 L556.60,392.85 L590.50,392.12 L624.40,380.09 L658.30,367.77 L692.20,346.62 L726.10,331.60 L760.00,318.47" fill="none" stroke="#0077BB" stroke-width="3" stroke-linejoin="round" stroke-linecap="round"/>
<line x1="605" x2="633" y1="76" y2="76" stroke="#CC3311" stroke-width="3"/>
<text class="legend" x="643" y="80">Agent</text>
<line x1="605" x2="633" y1="98" y2="98" stroke="#0077BB" stroke-width="3"/>
<text class="legend" x="643" y="102">Patient</text>
</svg>