<svg xmlns="http://www.w3.org/2000/svg" width="820" height="560" viewBox="0 0 820 560">
<rect width="100%" height="100%" fill="white"/>
<style>
text { font-family: Arial, Helvetica, sans-serif; fill: #222; }
.title { font-size: 20px; font-weight: 700; }
.subtitle { font-size: 13px; fill: #555; }
.axis { stroke: #222; stroke-width: 1; }
.grid { stroke: #dddddd; stroke-width: 1; }
.tick { font-size: 12px; fill: #333; }
.label { font-size: 14px; fill: #222; }
.legend { font-size: 13px; fill: #222; }
</style>
<text class="title" x="421.0" y="28" text-anchor="middle">Direct AVP, inanimate patient</text>
<text class="subtitle" x="421.0" y="47" text-anchor="middle">Early event apprehension, RT &lt; 6000 ms, fluent trials; n = 166 trials</text>
<line class="grid" x1="82" x2="760" y1="470.00" y2="470.00"/>
<text class="tick" x="72" y="474.00" text-anchor="end">0.0</text>
<line class="grid" x1="82" x2="760" y1="428.80" y2="428.80"/>
<text class="tick" x="72" y="432.80" text-anchor="end">0.1</text>
<line class="grid" x1="82" x2="760" y1="387.60" y2="387.60"/>
<text class="tick" x="72" y="391.60" text-anchor="end">0.2</text>
<line class="grid" x1="82" x2="760" y1="346.40" y2="346.40"/>
<text class="tick" x="72" y="350.40" text-anchor="end">0.3</text>
<line class="grid" x1="82" x2="760" y1="305.20" y2="305.20"/>
<text class="tick" x="72" y="309.20" text-anchor="end">0.4</text>
<line class="grid" x1="82" x2="760" y1="264.00" y2="264.00"/>
<text class="tick" x="72" y="268.00" text-anchor="end">0.5</text>
<line class="grid" x1="82" x2="760" y1="222.80" y2="222.80"/>
<text class="tick" x="72" y="226.80" text-anchor="end">0.6</text>
<line class="grid" x1="82" x2="760" y1="181.60" y2="181.60"/>
<text class="tick" x="72" y="185.60" text-anchor="end">0.7</text>
<line class="grid" x1="82" x2="760" y1="140.40" y2="140.40"/>
<text class="tick" x="72" y="144.40" text-anchor="end">0.8</text>
<line class="grid" x1="82" x2="760" y1="99.20" y2="99.20"/>
<text class="tick" x="72" y="103.20" text-anchor="end">0.9</text>
<line class="grid" x1="82" x2="760" y1="58.00" y2="58.00"/>
<text class="tick" x="72" y="62.00" text-anchor="end">1.0</text>
<line class="grid" x1="82.00" x2="82.00" y1="58" y2="470"/>
<text class="tick" x="82.00" y="492" text-anchor="middle">0.0</text>
<line class="grid" x1="149.80" x2="149.80" y1="58" y2="470"/>
<text class="tick" x="149.80" y="492" text-anchor="middle">0.1</text>
<line class="grid" x1="217.60" x2="217.60" y1="58" y2="470"/>
<text class="tick" x="217.60" y="492" text-anchor="middle">0.2</text>
<line class="grid" x1="285.40" x2="285.40" y1="58" y2="470"/>
<text class="tick" x="285.40" y="492" text-anchor="middle">0.3</text>
<line class="grid" x1="353.20" x2="353.20" y1="58" y2="470"/>
<text class="tick" x="353.20" y="492" text-anchor="middle">0.4</text>
<line class="grid" x1="421.00" x2="421.00" y1="58" y2="470"/>
<text class="tick" x="421.00" y="492" text-anchor="middle">0.5</text>
<line class="grid" x1="488.80" x2="488.80" y1="58" y2="470"/>
<text class="tick" x="488.80" y="492" text-anchor="middle">0.6</text>
<line class="grid" x1="556.60" x2="556.60" y1="58" y2="470"/>
<text class="tick" x="556.60" y="492" text-anchor="middle">0.7</text>
<line class="grid" x1="624.40" x2="624.40" y1="58" y2="470"/>
<text class="tick" x="624.40" y="492" text-anchor="middle">0.8</text>
<line class="grid" x1="692.20" x2="692.20" y1="58" y2="470"/>
<text class="tick" x="692.20" y="492" text-anchor="middle">0.9</text>
<line class="grid" x1="760.00" x2="760.00" y1="58" y2="470"/>
<text class="tick" x="760.00" y="492" text-anchor="middle">1.0</text>
<line class="axis" x1="82" x2="760" y1="470" y2="470"/>
<line class="axis" x1="82" x2="82" y1="58" y2="470"/>
<text class="label" x="421.0" y="532" text-anchor="middle">Relative Time</text>
<text class="label" x="20" y="264.0" text-anchor="middle" transform="rotate(-90 20 264.0)">Proportion of Looks</text>
<polygon points="82.00,366.79 149.80,310.73 217.60,200.96 285.40,156.78 353.20,141.30 421.00,138.03 488.80,150.15 556.60,157.42 624.40,182.87 692.20,200.74 760.00,213.79 760.00,276.09 692.20,261.73 624.40,241.88 556.60,213.42 488.80,205.70 421.00,192.21 353.20,196.09 285.40,213.86 217.60,258.74 149.80,362.91 82.00,415.06" fill="#CC3311" opacity="0.12"/>
<path d="M82.00,390.93 L149.80,336.82 L217.60,229.85 L285.40,185.32 L353.20,168.69 L421.00,165.12 L488.80,177.93 L556.60,185.42 L624.40,212.38 L692.20,231.24 L760.00,244.94" fill="none" stroke="#CC3311" stroke-width="3" stroke-linejoin="round" stroke-linecap="round"/>
<polygon points="82.00,396.41 149.80,410.26 217.60,388.04 285.40,362.26 353.20,353.76 421.00,347.97 488.80,340.13 556.60,331.33 624.40,314.22 692.20,313.97 760.00,310.54 760.00,368.85 692.20,371.49 624.40,370.84 556.60,385.69 488.80,392.58 421.00,400.83 353.20,404.76 285.40,412.14 217.60,429.25 149.80,445.55 82.00,437.76" fill="#0077BB" opacity="0.12"/>
<path d="M82.00,417.09 L149.80,427.91 L217.60,408.65 L285.40,387.20 L353.20,379.26 L421.00,374.40 L488.80,366.35 L556.60,358.51 L624.40,342.53 L692.20,342.73 L760.00,339.70" fill="none" stroke="#0077BB" stroke-width="3" stroke-linejoin="round" stroke-linecap="round"/>
<line x1="605" x2="633" y1="76" y2="76" stroke="#CC3311" stroke-width="3"/>
<text class="legend" x="643" y="80">Agent</text>
<line x1="605" x2="633" y1="98" y2="98" stroke="#0077BB" stroke-width="3"/>
<text class="legend" x="643" y="102">Patient</text>
</svg>