<svg xmlns="http://www.w3.org/2000/svg" width="820" height="560" viewBox="0 0 820 560">
<rect width="100%" height="100%" fill="white"/>
<style>
text { font-family: Arial, Helvetica, sans-serif; fill: #222; }
.title { font-size: 20px; font-weight: 700; }
.subtitle { font-size: 13px; fill: #555; }
.axis { stroke: #222; stroke-width: 1; }
.grid { stroke: #dddddd; stroke-width: 1; }
.tick { font-size: 12px; fill: #333; }
.label { font-size: 14px; fill: #222; }
.legend { font-size: 13px; fill: #222; }
</style>
<text class="title" x="421.0" y="28" text-anchor="middle">Direct AVP, animate patient</text>
<text class="subtitle" x="421.0" y="47" text-anchor="middle">Early event apprehension, RT &lt; 6000 ms, fluent trials; n = 197 trials</text>
<line class="grid" x1="82" x2="760" y1="470.00" y2="470.00"/>
<text class="tick" x="72" y="474.00" text-anchor="end">0.0</text>
<line class="grid" x1="82" x2="760" y1="428.80" y2="428.80"/>
<text class="tick" x="72" y="432.80" text-anchor="end">0.1</text>
<line class="grid" x1="82" x2="760" y1="387.60" y2="387.60"/>
<text class="tick" x="72" y="391.60" text-anchor="end">0.2</text>
<line class="grid" x1="82" x2="760" y1="346.40" y2="346.40"/>
<text class="tick" x="72" y="350.40" text-anchor="end">0.3</text>
<line class="grid" x1="82" x2="760" y1="305.20" y2="305.20"/>
<text class="tick" x="72" y="309.20" text-anchor="end">0.4</text>
<line class="grid" x1="82" x2="760" y1="264.00" y2="264.00"/>
<text class="tick" x="72" y="268.00" text-anchor="end">0.5</text>
<line class="grid" x1="82" x2="760" y1="222.80" y2="222.80"/>
<text class="tick" x="72" y="226.80" text-anchor="end">0.6</text>
<line class="grid" x1="82" x2="760" y1="181.60" y2="181.60"/>
<text class="tick" x="72" y="185.60" text-anchor="end">0.7</text>
<line class="grid" x1="82" x2="760" y1="140.40" y2="140.40"/>
<text class="tick" x="72" y="144.40" text-anchor="end">0.8</text>
<line class="grid" x1="82" x2="760" y1="99.20" y2="99.20"/>
<text class="tick" x="72" y="103.20" text-anchor="end">0.9</text>
<line class="grid" x1="82" x2="760" y1="58.00" y2="58.00"/>
<text class="tick" x="72" y="62.00" text-anchor="end">1.0</text>
<line class="grid" x1="82.00" x2="82.00" y1="58" y2="470"/>
<text class="tick" x="82.00" y="492" text-anchor="middle">0.0</text>
<line class="grid" x1="149.80" x2="149.80" y1="58" y2="470"/>
<text class="tick" x="149.80" y="492" text-anchor="middle">0.1</text>
<line class="grid" x1="217.60" x2="217.60" y1="58" y2="470"/>
<text class="tick" x="217.60" y="492" text-anchor="middle">0.2</text>
<line class="grid" x1="285.40" x2="285.40" y1="58" y2="470"/>
<text class="tick" x="285.40" y="492" text-anchor="middle">0.3</text>
<line class="grid" x1="353.20" x2="353.20" y1="58" y2="470"/>
<text class="tick" x="353.20" y="492" text-anchor="middle">0.4</text>
<line class="grid" x1="421.00" x2="421.00" y1="58" y2="470"/>
<text class="tick" x="421.00" y="492" text-anchor="middle">0.5</text>
<line class="grid" x1="488.80" x2="488.80" y1="58" y2="470"/>
<text class="tick" x="488.80" y="492" text-anchor="middle">0.6</text>
<line class="grid" x1="556.60" x2="556.60" y1="58" y2="470"/>
<text class="tick" x="556.60" y="492" text-anchor="middle">0.7</text>
<line class="grid" x1="624.40" x2="624.40" y1="58" y2="470"/>
<text class="tick" x="624.40" y="492" text-anchor="middle">0.8</text>
<line class="grid" x1="692.20" x2="692.20" y1="58" y2="470"/>
<text class="tick" x="692.20" y="492" text-anchor="middle">0.9</text>
<line class="grid" x1="760.00" x2="760.00" y1="58" y2="470"/>
<text class="tick" x="760.00" y="492" text-anchor="middle">1.0</text>
<line class="axis" x1="82" x2="760" y1="470" y2="470"/>
<line class="axis" x1="82" x2="82" y1="58" y2="470"/>
<text class="label" x="421.0" y="532" text-anchor="middle">Relative Time</text>
<text class="label" x="20" y="264.0" text-anchor="middle" transform="rotate(-90 20 264.0)">Proportion of Looks</text>
<polygon points="82.00,368.62 149.80,366.40 217.60,336.55 285.40,314.01 353.20,296.66 421.00,278.47 488.80,254.93 556.60,230.79 624.40,206.64 692.20,188.82 760.00,185.13 760.00,238.97 692.20,243.40 624.40,262.97 556.60,287.68 488.80,311.38 421.00,333.86 353.20,352.39 285.40,366.82 217.60,385.94 149.80,408.55 82.00,413.11" fill="#CC3311" opacity="0.12"/>
<path d="M82.00,390.86 L149.80,387.47 L217.60,361.25 L285.40,340.42 L353.20,324.52 L421.00,306.16 L488.80,283.16 L556.60,259.23 L624.40,234.80 L692.20,216.11 L760.00,212.05" fill="none" stroke="#CC3311" stroke-width="3" stroke-linejoin="round" stroke-linecap="round"/>
<polygon points="82.00,391.33 149.80,366.02 217.60,274.40 285.40,217.96 353.20,200.79 421.00,213.30 488.80,230.55 556.60,258.23 624.40,292.89 692.20,325.55 760.00,346.81 760.00,395.51 692.20,377.46 624.40,347.38 556.60,314.78 488.80,287.07 421.00,269.61 353.20,257.52 285.40,273.90 217.60,327.13 149.80,404.66 82.00,430.13" fill="#0077BB" opacity="0.12"/>
<path d="M82.00,410.73 L149.80,385.34 L217.60,300.77 L285.40,245.93 L353.20,229.16 L421.00,241.46 L488.80,258.81 L556.60,286.50 L624.40,320.13 L692.20,351.50 L760.00,371.16" fill="none" stroke="#0077BB" stroke-width="3" stroke-linejoin="round" stroke-linecap="round"/>
<line x1="605" x2="633" y1="76" y2="76" stroke="#CC3311" stroke-width="3"/>
<text class="legend" x="643" y="80">Agent</text>
<line x1="605" x2="633" y1="98" y2="98" stroke="#0077BB" stroke-width="3"/>
<text class="legend" x="643" y="102">Patient</text>
</svg>