<svg xmlns="http://www.w3.org/2000/svg" width="1920" height="1320" viewBox="0 0 1920 1320">
<image href="../../../../stimuli/Animate-animate%20centered%20and%20flipped/makelaugh-2-1-l.png" x="0" y="0" width="1920" height="1080" preserveAspectRatio="none"/>
<rect x="0" y="0" width="1920" height="1080" fill="none" stroke="#111" stroke-width="2"/>
<rect x="0" y="1080" width="1920" height="240" fill="#f7f7f7"/>
<rect x="40.0" y="100.0" width="850" height="850" fill="none" stroke="#00B8D9" stroke-width="6" stroke-dasharray="18 12"/>
<rect x="52.0" y="62.0" width="102.0" height="38" rx="6" fill="white" fill-opacity="0.86" stroke="#00B8D9" stroke-width="3"/>
<text x="62.0" y="88.0" font-family="Arial, Helvetica, sans-serif" font-size="24" font-weight="700" fill="#111">AGENT</text>
<rect x="970.0" y="100.0" width="850" height="850" fill="none" stroke="#FF3B8A" stroke-width="6" stroke-dasharray="18 12"/>
<rect x="982.0" y="62.0" width="134.0" height="38" rx="6" fill="white" fill-opacity="0.86" stroke="#FF3B8A" stroke-width="3"/>
<text x="992.0" y="88.0" font-family="Arial, Helvetica, sans-serif" font-size="24" font-weight="700" fill="#111">PATIENT</text>
<polyline points="681.6,440.0 668.9,393.0 1243.3,359.2 1352.3,360.4 1160.9,370.7 681.1,375.5 663.5,335.2 1199.7,329.3 1159.4,365.1 1159.3,425.3 1357.6,371.3 1169.1,372.2 1136.4,404.5 1180.9,390.3 640.9,401.7 664.3,392.5 1243.0,377.0 1167.6,345.3 680.6,370.9 670.2,401.3 1209.9,366.9 1177.1,368.6 712.0,383.9 1192.3,385.1 694.2,410.8 667.5,412.9 1218.7,358.3 1158.8,349.6 1167.0,416.3 1165.2,362.8 1182.2,402.6 1189.0,393.9 1144.1,419.7 1195.5,399.7 1182.3,383.9 738.1,416.8 692.4,407.3 673.4,337.0 1385.6,377.5 1333.4,419.6 721.7,403.2 669.5,375.0 677.3,352.0 1211.2,354.1 656.2,401.9 649.8,338.6 658.0,388.7 1249.0,384.7 1242.1,365.0" fill="none" stroke="#111" stroke-width="4" stroke-opacity="0.36" stroke-linejoin="round"/>
<circle cx="681.6" cy="440.0" r="16.4" fill="white" fill-opacity="0.84"/>
<circle cx="681.6" cy="440.0" r="13.4" fill="#005DFF" fill-opacity="0.66" stroke="#111" stroke-width="2.5"/>
<text x="681.6" y="447.0" text-anchor="middle" font-family="Arial, Helvetica, sans-serif" font-size="21" font-weight="800" fill="white" stroke="#111" stroke-width="3" paint-order="stroke">1</text>
<circle cx="668.9" cy="393.0" r="21.3" fill="white" fill-opacity="0.84"/>
<circle cx="668.9" cy="393.0" r="18.3" fill="#005DFF" fill-opacity="0.66" stroke="#111" stroke-width="2.5"/>
<text x="668.9" y="400.0" text-anchor="middle" font-family="Arial, Helvetica, sans-serif" font-size="21" font-weight="800" fill="white" stroke="#111" stroke-width="3" paint-order="stroke">2</text>
<circle cx="1243.3" cy="359.2" r="17.3" fill="white" fill-opacity="0.84"/>
<circle cx="1243.3" cy="359.2" r="14.3" fill="#005DFF" fill-opacity="0.66" stroke="#111" stroke-width="2.5"/>
<text x="1243.3" y="366.2" text-anchor="middle" font-family="Arial, Helvetica, sans-serif" font-size="21" font-weight="800" fill="white" stroke="#111" stroke-width="3" paint-order="stroke">3</text>
<circle cx="1352.3" cy="360.4" r="17.7" fill="white" fill-opacity="0.84"/>
<circle cx="1352.3" cy="360.4" r="14.7" fill="#005DFF" fill-opacity="0.66" stroke="#111" stroke-width="2.5"/>
<text x="1352.3" y="367.4" text-anchor="middle" font-family="Arial, Helvetica, sans-serif" font-size="21" font-weight="800" fill="white" stroke="#111" stroke-width="3" paint-order="stroke">4</text>
<circle cx="1160.9" cy="370.7" r="18.9" fill="white" fill-opacity="0.84"/>
<circle cx="1160.9" cy="370.7" r="15.9" fill="#005DFF" fill-opacity="0.66" stroke="#111" stroke-width="2.5"/>
<text x="1160.9" y="377.7" text-anchor="middle" font-family="Arial, Helvetica, sans-serif" font-size="21" font-weight="800" fill="white" stroke="#111" stroke-width="3" paint-order="stroke">5</text>
<circle cx="681.1" cy="375.5" r="23.6" fill="white" fill-opacity="0.84"/>
<circle cx="681.1" cy="375.5" r="20.6" fill="#005DFF" fill-opacity="0.66" stroke="#111" stroke-width="2.5"/>
<text x="681.1" y="382.5" text-anchor="middle" font-family="Arial, Helvetica, sans-serif" font-size="21" font-weight="800" fill="white" stroke="#111" stroke-width="3" paint-order="stroke">6</text>
<circle cx="663.5" cy="335.2" r="19.3" fill="white" fill-opacity="0.84"/>
<circle cx="663.5" cy="335.2" r="16.3" fill="#005DFF" fill-opacity="0.66" stroke="#111" stroke-width="2.5"/>
<text x="663.5" y="342.2" text-anchor="middle" font-family="Arial, Helvetica, sans-serif" font-size="21" font-weight="800" fill="white" stroke="#111" stroke-width="3" paint-order="stroke">7</text>
<circle cx="1199.7" cy="329.3" r="17.9" fill="white" fill-opacity="0.84"/>
<circle cx="1199.7" cy="329.3" r="14.9" fill="#005DFF" fill-opacity="0.66" stroke="#111" stroke-width="2.5"/>
<text x="1199.7" y="336.3" text-anchor="middle" font-family="Arial, Helvetica, sans-serif" font-size="21" font-weight="800" fill="white" stroke="#111" stroke-width="3" paint-order="stroke">8</text>
<circle cx="1159.4" cy="365.1" r="20.4" fill="white" fill-opacity="0.84"/>
<circle cx="1159.4" cy="365.1" r="17.4" fill="#005DFF" fill-opacity="0.66" stroke="#111" stroke-width="2.5"/>
<text x="1159.4" y="372.1" text-anchor="middle" font-family="Arial, Helvetica, sans-serif" font-size="21" font-weight="800" fill="white" stroke="#111" stroke-width="3" paint-order="stroke">9</text>
<circle cx="1159.3" cy="425.3" r="24.8" fill="white" fill-opacity="0.84"/>
<circle cx="1159.3" cy="425.3" r="21.8" fill="#005DFF" fill-opacity="0.66" stroke="#111" stroke-width="2.5"/>
<text x="1159.3" y="432.3" text-anchor="middle" font-family="Arial, Helvetica, sans-serif" font-size="21" font-weight="800" fill="white" stroke="#111" stroke-width="3" paint-order="stroke">10</text>
<circle cx="1357.6" cy="371.3" r="20.1" fill="white" fill-opacity="0.84"/>
<circle cx="1357.6" cy="371.3" r="17.1" fill="#005DFF" fill-opacity="0.66" stroke="#111" stroke-width="2.5"/>
<text x="1357.6" y="378.3" text-anchor="middle" font-family="Arial, Helvetica, sans-serif" font-size="21" font-weight="800" fill="white" stroke="#111" stroke-width="3" paint-order="stroke">11</text>
<circle cx="1169.1" cy="372.2" r="17.0" fill="white" fill-opacity="0.84"/>
<circle cx="1169.1" cy="372.2" r="14.0" fill="#005DFF" fill-opacity="0.66" stroke="#111" stroke-width="2.5"/>
<text x="1169.1" y="379.2" text-anchor="middle" font-family="Arial, Helvetica, sans-serif" font-size="21" font-weight="800" fill="white" stroke="#111" stroke-width="3" paint-order="stroke">12</text>
<circle cx="1136.4" cy="404.5" r="20.4" fill="white" fill-opacity="0.84"/>
<circle cx="1136.4" cy="404.5" r="17.4" fill="#005DFF" fill-opacity="0.66" stroke="#111" stroke-width="2.5"/>
<text x="1136.4" y="411.5" text-anchor="middle" font-family="Arial, Helvetica, sans-serif" font-size="21" font-weight="800" fill="white" stroke="#111" stroke-width="3" paint-order="stroke">13</text>
<circle cx="1180.9" cy="390.3" r="19.7" fill="white" fill-opacity="0.84"/>
<circle cx="1180.9" cy="390.3" r="16.7" fill="#005DFF" fill-opacity="0.66" stroke="#111" stroke-width="2.5"/>
<text x="1180.9" y="397.3" text-anchor="middle" font-family="Arial, Helvetica, sans-serif" font-size="21" font-weight="800" fill="white" stroke="#111" stroke-width="3" paint-order="stroke">14</text>
<circle cx="640.9" cy="401.7" r="16.5" fill="white" fill-opacity="0.84"/>
<circle cx="640.9" cy="401.7" r="13.5" fill="#005DFF" fill-opacity="0.66" stroke="#111" stroke-width="2.5"/>
<text x="640.9" y="408.7" text-anchor="middle" font-family="Arial, Helvetica, sans-serif" font-size="21" font-weight="800" fill="white" stroke="#111" stroke-width="3" paint-order="stroke">15</text>
<circle cx="664.3" cy="392.5" r="14.2" fill="white" fill-opacity="0.84"/>
<circle cx="664.3" cy="392.5" r="11.2" fill="#005DFF" fill-opacity="0.66" stroke="#111" stroke-width="2.5"/>
<text x="664.3" y="399.5" text-anchor="middle" font-family="Arial, Helvetica, sans-serif" font-size="21" font-weight="800" fill="white" stroke="#111" stroke-width="3" paint-order="stroke">16</text>
<circle cx="1243.0" cy="377.0" r="17.4" fill="white" fill-opacity="0.84"/>
<circle cx="1243.0" cy="377.0" r="14.4" fill="#005DFF" fill-opacity="0.66" stroke="#111" stroke-width="2.5"/>
<text x="1243.0" y="384.0" text-anchor="middle" font-family="Arial, Helvetica, sans-serif" font-size="21" font-weight="800" fill="white" stroke="#111" stroke-width="3" paint-order="stroke">17</text>
<circle cx="1167.6" cy="345.3" r="17.3" fill="white" fill-opacity="0.84"/>
<circle cx="1167.6" cy="345.3" r="14.3" fill="#005DFF" fill-opacity="0.66" stroke="#111" stroke-width="2.5"/>
<text x="1167.6" y="352.3" text-anchor="middle" font-family="Arial, Helvetica, sans-serif" font-size="21" font-weight="800" fill="white" stroke="#111" stroke-width="3" paint-order="stroke">18</text>
<circle cx="680.6" cy="370.9" r="18.2" fill="white" fill-opacity="0.84"/>
<circle cx="680.6" cy="370.9" r="15.2" fill="#005DFF" fill-opacity="0.66" stroke="#111" stroke-width="2.5"/>
<text x="680.6" y="377.9" text-anchor="middle" font-family="Arial, Helvetica, sans-serif" font-size="21" font-weight="800" fill="white" stroke="#111" stroke-width="3" paint-order="stroke">19</text>
<circle cx="670.2" cy="401.3" r="17.1" fill="white" fill-opacity="0.84"/>
<circle cx="670.2" cy="401.3" r="14.1" fill="#005DFF" fill-opacity="0.66" stroke="#111" stroke-width="2.5"/>
<text x="670.2" y="408.3" text-anchor="middle" font-family="Arial, Helvetica, sans-serif" font-size="21" font-weight="800" fill="white" stroke="#111" stroke-width="3" paint-order="stroke">20</text>
<circle cx="1209.9" cy="366.9" r="17.8" fill="white" fill-opacity="0.84"/>
<circle cx="1209.9" cy="366.9" r="14.8" fill="#005DFF" fill-opacity="0.66" stroke="#111" stroke-width="2.5"/>
<text x="1209.9" y="373.9" text-anchor="middle" font-family="Arial, Helvetica, sans-serif" font-size="21" font-weight="800" fill="white" stroke="#111" stroke-width="3" paint-order="stroke">21</text>
<circle cx="1177.1" cy="368.6" r="16.4" fill="white" fill-opacity="0.84"/>
<circle cx="1177.1" cy="368.6" r="13.4" fill="#005DFF" fill-opacity="0.66" stroke="#111" stroke-width="2.5"/>
<text x="1177.1" y="375.6" text-anchor="middle" font-family="Arial, Helvetica, sans-serif" font-size="21" font-weight="800" fill="white" stroke="#111" stroke-width="3" paint-order="stroke">22</text>
<circle cx="712.0" cy="383.9" r="16.8" fill="white" fill-opacity="0.84"/>
<circle cx="712.0" cy="383.9" r="13.8" fill="#005DFF" fill-opacity="0.66" stroke="#111" stroke-width="2.5"/>
<text x="712.0" y="390.9" text-anchor="middle" font-family="Arial, Helvetica, sans-serif" font-size="21" font-weight="800" fill="white" stroke="#111" stroke-width="3" paint-order="stroke">23</text>
<circle cx="1192.3" cy="385.1" r="15.6" fill="white" fill-opacity="0.84"/>
<circle cx="1192.3" cy="385.1" r="12.6" fill="#005DFF" fill-opacity="0.66" stroke="#111" stroke-width="2.5"/>
<text x="1192.3" y="392.1" text-anchor="middle" font-family="Arial, Helvetica, sans-serif" font-size="21" font-weight="800" fill="white" stroke="#111" stroke-width="3" paint-order="stroke">24</text>
<circle cx="694.2" cy="410.8" r="17.9" fill="white" fill-opacity="0.84"/>
<circle cx="694.2" cy="410.8" r="14.9" fill="#005DFF" fill-opacity="0.66" stroke="#111" stroke-width="2.5"/>
<text x="694.2" y="417.8" text-anchor="middle" font-family="Arial, Helvetica, sans-serif" font-size="21" font-weight="800" fill="white" stroke="#111" stroke-width="3" paint-order="stroke">25</text>
<circle cx="667.5" cy="412.9" r="17.5" fill="white" fill-opacity="0.84"/>
<circle cx="667.5" cy="412.9" r="14.5" fill="#005DFF" fill-opacity="0.66" stroke="#111" stroke-width="2.5"/>
<text x="667.5" y="419.9" text-anchor="middle" font-family="Arial, Helvetica, sans-serif" font-size="21" font-weight="800" fill="white" stroke="#111" stroke-width="3" paint-order="stroke">26</text>
<circle cx="1218.7" cy="358.3" r="15.5" fill="white" fill-opacity="0.84"/>
<circle cx="1218.7" cy="358.3" r="12.5" fill="#005DFF" fill-opacity="0.66" stroke="#111" stroke-width="2.5"/>
<text x="1218.7" y="365.3" text-anchor="middle" font-family="Arial, Helvetica, sans-serif" font-size="21" font-weight="800" fill="white" stroke="#111" stroke-width="3" paint-order="stroke">27</text>
<circle cx="1158.8" cy="349.6" r="17.0" fill="white" fill-opacity="0.84"/>
<circle cx="1158.8" cy="349.6" r="14.0" fill="#005DFF" fill-opacity="0.66" stroke="#111" stroke-width="2.5"/>
<text x="1158.8" y="356.6" text-anchor="middle" font-family="Arial, Helvetica, sans-serif" font-size="21" font-weight="800" fill="white" stroke="#111" stroke-width="3" paint-order="stroke">28</text>
<circle cx="1167.0" cy="416.3" r="19.4" fill="white" fill-opacity="0.84"/>
<circle cx="1167.0" cy="416.3" r="16.4" fill="#005DFF" fill-opacity="0.66" stroke="#111" stroke-width="2.5"/>
<text x="1167.0" y="423.3" text-anchor="middle" font-family="Arial, Helvetica, sans-serif" font-size="21" font-weight="800" fill="white" stroke="#111" stroke-width="3" paint-order="stroke">29</text>
<circle cx="1165.2" cy="362.8" r="20.4" fill="white" fill-opacity="0.84"/>
<circle cx="1165.2" cy="362.8" r="17.4" fill="#005DFF" fill-opacity="0.66" stroke="#111" stroke-width="2.5"/>
<text x="1165.2" y="369.8" text-anchor="middle" font-family="Arial, Helvetica, sans-serif" font-size="21" font-weight="800" fill="white" stroke="#111" stroke-width="3" paint-order="stroke">30</text>
<circle cx="1182.2" cy="402.6" r="17.4" fill="white" fill-opacity="0.84"/>
<circle cx="1182.2" cy="402.6" r="14.4" fill="#005DFF" fill-opacity="0.66" stroke="#111" stroke-width="2.5"/>
<text x="1182.2" y="409.6" text-anchor="middle" font-family="Arial, Helvetica, sans-serif" font-size="21" font-weight="800" fill="white" stroke="#111" stroke-width="3" paint-order="stroke">31</text>
<circle cx="1189.0" cy="393.9" r="21.1" fill="white" fill-opacity="0.84"/>
<circle cx="1189.0" cy="393.9" r="18.1" fill="#005DFF" fill-opacity="0.66" stroke="#111" stroke-width="2.5"/>
<text x="1189.0" y="400.9" text-anchor="middle" font-family="Arial, Helvetica, sans-serif" font-size="21" font-weight="800" fill="white" stroke="#111" stroke-width="3" paint-order="stroke">32</text>
<circle cx="1144.1" cy="419.7" r="18.3" fill="white" fill-opacity="0.84"/>
<circle cx="1144.1" cy="419.7" r="15.3" fill="#005DFF" fill-opacity="0.66" stroke="#111" stroke-width="2.5"/>
<text x="1144.1" y="426.7" text-anchor="middle" font-family="Arial, Helvetica, sans-serif" font-size="21" font-weight="800" fill="white" stroke="#111" stroke-width="3" paint-order="stroke">33</text>
<circle cx="1195.5" cy="399.7" r="17.1" fill="white" fill-opacity="0.84"/>
<circle cx="1195.5" cy="399.7" r="14.1" fill="#005DFF" fill-opacity="0.66" stroke="#111" stroke-width="2.5"/>
<text x="1195.5" y="406.7" text-anchor="middle" font-family="Arial, Helvetica, sans-serif" font-size="21" font-weight="800" fill="white" stroke="#111" stroke-width="3" paint-order="stroke">34</text>
<circle cx="1182.3" cy="383.9" r="13.6" fill="white" fill-opacity="0.84"/>
<circle cx="1182.3" cy="383.9" r="10.6" fill="#005DFF" fill-opacity="0.66" stroke="#111" stroke-width="2.5"/>
<text x="1182.3" y="390.9" text-anchor="middle" font-family="Arial, Helvetica, sans-serif" font-size="21" font-weight="800" fill="white" stroke="#111" stroke-width="3" paint-order="stroke">35</text>
<circle cx="738.1" cy="416.8" r="16.5" fill="white" fill-opacity="0.84"/>
<circle cx="738.1" cy="416.8" r="13.5" fill="#005DFF" fill-opacity="0.66" stroke="#111" stroke-width="2.5"/>
<text x="738.1" y="423.8" text-anchor="middle" font-family="Arial, Helvetica, sans-serif" font-size="21" font-weight="800" fill="white" stroke="#111" stroke-width="3" paint-order="stroke">36</text>
<circle cx="692.4" cy="407.3" r="22.0" fill="white" fill-opacity="0.84"/>
<circle cx="692.4" cy="407.3" r="19.0" fill="#005DFF" fill-opacity="0.66" stroke="#111" stroke-width="2.5"/>
<text x="692.4" y="414.3" text-anchor="middle" font-family="Arial, Helvetica, sans-serif" font-size="21" font-weight="800" fill="white" stroke="#111" stroke-width="3" paint-order="stroke">37</text>
<circle cx="673.4" cy="337.0" r="20.1" fill="white" fill-opacity="0.84"/>
<circle cx="673.4" cy="337.0" r="17.1" fill="#005DFF" fill-opacity="0.66" stroke="#111" stroke-width="2.5"/>
<text x="673.4" y="344.0" text-anchor="middle" font-family="Arial, Helvetica, sans-serif" font-size="21" font-weight="800" fill="white" stroke="#111" stroke-width="3" paint-order="stroke">38</text>
<circle cx="1385.6" cy="377.5" r="13.7" fill="white" fill-opacity="0.84"/>
<circle cx="1385.6" cy="377.5" r="10.7" fill="#005DFF" fill-opacity="0.66" stroke="#111" stroke-width="2.5"/>
<text x="1385.6" y="384.5" text-anchor="middle" font-family="Arial, Helvetica, sans-serif" font-size="21" font-weight="800" fill="white" stroke="#111" stroke-width="3" paint-order="stroke">39</text>
<circle cx="1333.4" cy="419.6" r="15.6" fill="white" fill-opacity="0.84"/>
<circle cx="1333.4" cy="419.6" r="12.6" fill="#005DFF" fill-opacity="0.66" stroke="#111" stroke-width="2.5"/>
<text x="1333.4" y="426.6" text-anchor="middle" font-family="Arial, Helvetica, sans-serif" font-size="21" font-weight="800" fill="white" stroke="#111" stroke-width="3" paint-order="stroke">40</text>
<circle cx="721.7" cy="403.2" r="18.3" fill="white" fill-opacity="0.84"/>
<circle cx="721.7" cy="403.2" r="15.3" fill="#005DFF" fill-opacity="0.66" stroke="#111" stroke-width="2.5"/>
<text x="721.7" y="410.2" text-anchor="middle" font-family="Arial, Helvetica, sans-serif" font-size="21" font-weight="800" fill="white" stroke="#111" stroke-width="3" paint-order="stroke">41</text>
<circle cx="669.5" cy="375.0" r="18.6" fill="white" fill-opacity="0.84"/>
<circle cx="669.5" cy="375.0" r="15.6" fill="#005DFF" fill-opacity="0.66" stroke="#111" stroke-width="2.5"/>
<text x="669.5" y="382.0" text-anchor="middle" font-family="Arial, Helvetica, sans-serif" font-size="21" font-weight="800" fill="white" stroke="#111" stroke-width="3" paint-order="stroke">42</text>
<circle cx="677.3" cy="352.0" r="19.4" fill="white" fill-opacity="0.84"/>
<circle cx="677.3" cy="352.0" r="16.4" fill="#005DFF" fill-opacity="0.66" stroke="#111" stroke-width="2.5"/>
<text x="677.3" y="359.0" text-anchor="middle" font-family="Arial, Helvetica, sans-serif" font-size="21" font-weight="800" fill="white" stroke="#111" stroke-width="3" paint-order="stroke">43</text>
<circle cx="1211.2" cy="354.1" r="17.5" fill="white" fill-opacity="0.84"/>
<circle cx="1211.2" cy="354.1" r="14.5" fill="#FF8A00" fill-opacity="0.66" stroke="#111" stroke-width="2.5"/>
<text x="1211.2" y="361.1" text-anchor="middle" font-family="Arial, Helvetica, sans-serif" font-size="21" font-weight="800" fill="white" stroke="#111" stroke-width="3" paint-order="stroke">44</text>
<circle cx="656.2" cy="401.9" r="17.7" fill="white" fill-opacity="0.84"/>
<circle cx="656.2" cy="401.9" r="14.7" fill="#FF8A00" fill-opacity="0.66" stroke="#111" stroke-width="2.5"/>
<text x="656.2" y="408.9" text-anchor="middle" font-family="Arial, Helvetica, sans-serif" font-size="21" font-weight="800" fill="white" stroke="#111" stroke-width="3" paint-order="stroke">45</text>
<circle cx="649.8" cy="338.6" r="19.2" fill="white" fill-opacity="0.84"/>
<circle cx="649.8" cy="338.6" r="16.2" fill="#FF8A00" fill-opacity="0.66" stroke="#111" stroke-width="2.5"/>
<text x="649.8" y="345.6" text-anchor="middle" font-family="Arial, Helvetica, sans-serif" font-size="21" font-weight="800" fill="white" stroke="#111" stroke-width="3" paint-order="stroke">46</text>
<circle cx="658.0" cy="388.7" r="17.4" fill="white" fill-opacity="0.84"/>
<circle cx="658.0" cy="388.7" r="14.4" fill="#FF8A00" fill-opacity="0.66" stroke="#111" stroke-width="2.5"/>
<text x="658.0" y="395.7" text-anchor="middle" font-family="Arial, Helvetica, sans-serif" font-size="21" font-weight="800" fill="white" stroke="#111" stroke-width="3" paint-order="stroke">47</text>
<circle cx="1249.0" cy="384.7" r="14.6" fill="white" fill-opacity="0.84"/>
<circle cx="1249.0" cy="384.7" r="11.6" fill="#FF8A00" fill-opacity="0.66" stroke="#111" stroke-width="2.5"/>
<text x="1249.0" y="391.7" text-anchor="middle" font-family="Arial, Helvetica, sans-serif" font-size="21" font-weight="800" fill="white" stroke="#111" stroke-width="3" paint-order="stroke">48</text>
<circle cx="1242.1" cy="365.0" r="13.9" fill="white" fill-opacity="0.84"/>
<circle cx="1242.1" cy="365.0" r="10.9" fill="#FF8A00" fill-opacity="0.66" stroke="#111" stroke-width="2.5"/>
<text x="1242.1" y="372.0" text-anchor="middle" font-family="Arial, Helvetica, sans-serif" font-size="21" font-weight="800" fill="white" stroke="#111" stroke-width="3" paint-order="stroke">49</text>
<rect x="16" y="1094" width="1120" height="168" rx="8" fill="white" fill-opacity="0.92" stroke="#111" stroke-opacity="0.22"/>
<text x="36.0" y="1128.0" font-family="Arial, Helvetica, sans-serif" font-size="24" font-weight="600" fill="#111">K04 / k04_1.asc block 10 | makelaugh-2-1-l.png | RT 14741 ms | 49 fixations</text>
<text x="36.0" y="1159.0" font-family="Arial, Helvetica, sans-serif" font-size="24" font-weight="600" fill="#111">numbers show fixation order; dot size shows fixation duration</text>
<circle cx="42" cy="1198" r="11" fill="#005DFF" fill-opacity="0.64" stroke="#111" stroke-width="2"/>
<text x="62.0" y="1206.0" font-family="Arial, Helvetica, sans-serif" font-size="22" font-weight="500" fill="#111">blue: before speech onset</text>
<circle cx="42" cy="1232" r="11" fill="#FF8A00" fill-opacity="0.64" stroke="#111" stroke-width="2"/>
<text x="62.0" y="1240.0" font-family="Arial, Helvetica, sans-serif" font-size="22" font-weight="500" fill="#111">orange: first 2000 ms after onset</text>
</svg>
