<svg xmlns="http://www.w3.org/2000/svg" width="1920" height="1320" viewBox="0 0 1920 1320">
<image href="../../../../stimuli/Koryak%20stimuli%20animate%20inanimate/clean-2-2-r.png" x="0" y="0" width="1920" height="1080" preserveAspectRatio="none"/>
<rect x="0" y="0" width="1920" height="1080" fill="none" stroke="#111" stroke-width="2"/>
<rect x="0" y="1080" width="1920" height="240" fill="#f7f7f7"/>
<rect x="970.0" y="100.0" width="850" height="850" fill="none" stroke="#00B8D9" stroke-width="6" stroke-dasharray="18 12"/>
<rect x="982.0" y="62.0" width="102.0" height="38" rx="6" fill="white" fill-opacity="0.86" stroke="#00B8D9" stroke-width="3"/>
<text x="992.0" y="88.0" font-family="Arial, Helvetica, sans-serif" font-size="24" font-weight="700" fill="#111">AGENT</text>
<rect x="40.0" y="100.0" width="850" height="850" fill="none" stroke="#FF3B8A" stroke-width="6" stroke-dasharray="18 12"/>
<rect x="52.0" y="62.0" width="134.0" height="38" rx="6" fill="white" fill-opacity="0.86" stroke="#FF3B8A" stroke-width="3"/>
<text x="62.0" y="88.0" font-family="Arial, Helvetica, sans-serif" font-size="24" font-weight="700" fill="#111">PATIENT</text>
<polyline points="1032.6,456.6 725.5,398.6 1092.0,481.0 1052.3,484.9 717.6,425.2 787.3,427.0 1334.4,424.8 1226.8,399.5 1083.7,503.7 1057.0,508.5 800.0,428.8 1265.4,410.2 1227.3,393.5 1460.3,399.2 1120.9,452.2 788.3,439.7 778.8,441.6 736.6,421.2 1247.7,420.8 1367.2,537.7 722.0,455.8 768.0,420.5 774.1,345.7 778.5,487.3 762.3,572.0 491.9,551.4 734.3,415.2 748.3,340.7 757.3,292.1 769.7,390.6 807.3,419.9 723.8,407.1 504.6,424.7 733.6,416.8 767.9,356.9 754.1,280.6 746.0,371.5 768.6,425.7 755.3,506.7 746.3,558.0 747.6,430.3 742.8,353.4 549.4,436.2 744.6,410.3 753.6,369.3 747.9,281.6 755.0,262.8 541.1,347.0 567.8,493.9 745.9,506.5 741.1,528.3 765.0,481.1 754.1,357.0" fill="none" stroke="#111" stroke-width="4" stroke-opacity="0.36" stroke-linejoin="round"/>
<circle cx="1032.6" cy="456.6" r="11.9" fill="white" fill-opacity="0.84"/>
<circle cx="1032.6" cy="456.6" r="8.9" fill="#7A3CE8" fill-opacity="0.66" stroke="#111" stroke-width="2.5"/>
<text x="1032.6" y="463.6" text-anchor="middle" font-family="Arial, Helvetica, sans-serif" font-size="21" font-weight="800" fill="white" stroke="#111" stroke-width="3" paint-order="stroke">1</text>
<circle cx="725.5" cy="398.6" r="20.4" fill="white" fill-opacity="0.84"/>
<circle cx="725.5" cy="398.6" r="17.4" fill="#7A3CE8" fill-opacity="0.66" stroke="#111" stroke-width="2.5"/>
<text x="725.5" y="405.6" text-anchor="middle" font-family="Arial, Helvetica, sans-serif" font-size="21" font-weight="800" fill="white" stroke="#111" stroke-width="3" paint-order="stroke">2</text>
<circle cx="1092.0" cy="481.0" r="19.3" fill="white" fill-opacity="0.84"/>
<circle cx="1092.0" cy="481.0" r="16.3" fill="#7A3CE8" fill-opacity="0.66" stroke="#111" stroke-width="2.5"/>
<text x="1092.0" y="488.0" text-anchor="middle" font-family="Arial, Helvetica, sans-serif" font-size="21" font-weight="800" fill="white" stroke="#111" stroke-width="3" paint-order="stroke">3</text>
<circle cx="1052.3" cy="484.9" r="14.3" fill="white" fill-opacity="0.84"/>
<circle cx="1052.3" cy="484.9" r="11.3" fill="#7A3CE8" fill-opacity="0.66" stroke="#111" stroke-width="2.5"/>
<text x="1052.3" y="491.9" text-anchor="middle" font-family="Arial, Helvetica, sans-serif" font-size="21" font-weight="800" fill="white" stroke="#111" stroke-width="3" paint-order="stroke">4</text>
<circle cx="717.6" cy="425.2" r="16.7" fill="white" fill-opacity="0.84"/>
<circle cx="717.6" cy="425.2" r="13.7" fill="#7A3CE8" fill-opacity="0.66" stroke="#111" stroke-width="2.5"/>
<text x="717.6" y="432.2" text-anchor="middle" font-family="Arial, Helvetica, sans-serif" font-size="21" font-weight="800" fill="white" stroke="#111" stroke-width="3" paint-order="stroke">5</text>
<circle cx="787.3" cy="427.0" r="23.4" fill="white" fill-opacity="0.84"/>
<circle cx="787.3" cy="427.0" r="20.4" fill="#7A3CE8" fill-opacity="0.66" stroke="#111" stroke-width="2.5"/>
<text x="787.3" y="434.0" text-anchor="middle" font-family="Arial, Helvetica, sans-serif" font-size="21" font-weight="800" fill="white" stroke="#111" stroke-width="3" paint-order="stroke">6</text>
<circle cx="1334.4" cy="424.8" r="16.4" fill="white" fill-opacity="0.84"/>
<circle cx="1334.4" cy="424.8" r="13.4" fill="#7A3CE8" fill-opacity="0.66" stroke="#111" stroke-width="2.5"/>
<text x="1334.4" y="431.8" text-anchor="middle" font-family="Arial, Helvetica, sans-serif" font-size="21" font-weight="800" fill="white" stroke="#111" stroke-width="3" paint-order="stroke">7</text>
<circle cx="1226.8" cy="399.5" r="16.2" fill="white" fill-opacity="0.84"/>
<circle cx="1226.8" cy="399.5" r="13.2" fill="#7A3CE8" fill-opacity="0.66" stroke="#111" stroke-width="2.5"/>
<text x="1226.8" y="406.5" text-anchor="middle" font-family="Arial, Helvetica, sans-serif" font-size="21" font-weight="800" fill="white" stroke="#111" stroke-width="3" paint-order="stroke">8</text>
<circle cx="1083.7" cy="503.7" r="17.6" fill="white" fill-opacity="0.84"/>
<circle cx="1083.7" cy="503.7" r="14.6" fill="#7A3CE8" fill-opacity="0.66" stroke="#111" stroke-width="2.5"/>
<text x="1083.7" y="510.7" text-anchor="middle" font-family="Arial, Helvetica, sans-serif" font-size="21" font-weight="800" fill="white" stroke="#111" stroke-width="3" paint-order="stroke">9</text>
<circle cx="1057.0" cy="508.5" r="17.6" fill="white" fill-opacity="0.84"/>
<circle cx="1057.0" cy="508.5" r="14.6" fill="#7A3CE8" fill-opacity="0.66" stroke="#111" stroke-width="2.5"/>
<text x="1057.0" y="515.5" text-anchor="middle" font-family="Arial, Helvetica, sans-serif" font-size="21" font-weight="800" fill="white" stroke="#111" stroke-width="3" paint-order="stroke">10</text>
<circle cx="800.0" cy="428.8" r="15.8" fill="white" fill-opacity="0.84"/>
<circle cx="800.0" cy="428.8" r="12.8" fill="#7A3CE8" fill-opacity="0.66" stroke="#111" stroke-width="2.5"/>
<text x="800.0" y="435.8" text-anchor="middle" font-family="Arial, Helvetica, sans-serif" font-size="21" font-weight="800" fill="white" stroke="#111" stroke-width="3" paint-order="stroke">11</text>
<circle cx="1265.4" cy="410.2" r="17.0" fill="white" fill-opacity="0.84"/>
<circle cx="1265.4" cy="410.2" r="14.0" fill="#7A3CE8" fill-opacity="0.66" stroke="#111" stroke-width="2.5"/>
<text x="1265.4" y="417.2" text-anchor="middle" font-family="Arial, Helvetica, sans-serif" font-size="21" font-weight="800" fill="white" stroke="#111" stroke-width="3" paint-order="stroke">12</text>
<circle cx="1227.3" cy="393.5" r="18.5" fill="white" fill-opacity="0.84"/>
<circle cx="1227.3" cy="393.5" r="15.5" fill="#7A3CE8" fill-opacity="0.66" stroke="#111" stroke-width="2.5"/>
<text x="1227.3" y="400.5" text-anchor="middle" font-family="Arial, Helvetica, sans-serif" font-size="21" font-weight="800" fill="white" stroke="#111" stroke-width="3" paint-order="stroke">13</text>
<circle cx="1460.3" cy="399.2" r="21.0" fill="white" fill-opacity="0.84"/>
<circle cx="1460.3" cy="399.2" r="18.0" fill="#7A3CE8" fill-opacity="0.66" stroke="#111" stroke-width="2.5"/>
<text x="1460.3" y="406.2" text-anchor="middle" font-family="Arial, Helvetica, sans-serif" font-size="21" font-weight="800" fill="white" stroke="#111" stroke-width="3" paint-order="stroke">14</text>
<circle cx="1120.9" cy="452.2" r="14.9" fill="white" fill-opacity="0.84"/>
<circle cx="1120.9" cy="452.2" r="11.9" fill="#7A3CE8" fill-opacity="0.66" stroke="#111" stroke-width="2.5"/>
<text x="1120.9" y="459.2" text-anchor="middle" font-family="Arial, Helvetica, sans-serif" font-size="21" font-weight="800" fill="white" stroke="#111" stroke-width="3" paint-order="stroke">15</text>
<circle cx="788.3" cy="439.7" r="17.2" fill="white" fill-opacity="0.84"/>
<circle cx="788.3" cy="439.7" r="14.2" fill="#7A3CE8" fill-opacity="0.66" stroke="#111" stroke-width="2.5"/>
<text x="788.3" y="446.7" text-anchor="middle" font-family="Arial, Helvetica, sans-serif" font-size="21" font-weight="800" fill="white" stroke="#111" stroke-width="3" paint-order="stroke">16</text>
<circle cx="778.8" cy="441.6" r="20.7" fill="white" fill-opacity="0.84"/>
<circle cx="778.8" cy="441.6" r="17.7" fill="#7A3CE8" fill-opacity="0.66" stroke="#111" stroke-width="2.5"/>
<text x="778.8" y="448.6" text-anchor="middle" font-family="Arial, Helvetica, sans-serif" font-size="21" font-weight="800" fill="white" stroke="#111" stroke-width="3" paint-order="stroke">17</text>
<circle cx="736.6" cy="421.2" r="15.6" fill="white" fill-opacity="0.84"/>
<circle cx="736.6" cy="421.2" r="12.6" fill="#7A3CE8" fill-opacity="0.66" stroke="#111" stroke-width="2.5"/>
<text x="736.6" y="428.2" text-anchor="middle" font-family="Arial, Helvetica, sans-serif" font-size="21" font-weight="800" fill="white" stroke="#111" stroke-width="3" paint-order="stroke">18</text>
<circle cx="1247.7" cy="420.8" r="19.2" fill="white" fill-opacity="0.84"/>
<circle cx="1247.7" cy="420.8" r="16.2" fill="#7A3CE8" fill-opacity="0.66" stroke="#111" stroke-width="2.5"/>
<text x="1247.7" y="427.8" text-anchor="middle" font-family="Arial, Helvetica, sans-serif" font-size="21" font-weight="800" fill="white" stroke="#111" stroke-width="3" paint-order="stroke">19</text>
<circle cx="1367.2" cy="537.7" r="20.4" fill="white" fill-opacity="0.84"/>
<circle cx="1367.2" cy="537.7" r="17.4" fill="#7A3CE8" fill-opacity="0.66" stroke="#111" stroke-width="2.5"/>
<text x="1367.2" y="544.7" text-anchor="middle" font-family="Arial, Helvetica, sans-serif" font-size="21" font-weight="800" fill="white" stroke="#111" stroke-width="3" paint-order="stroke">20</text>
<circle cx="722.0" cy="455.8" r="17.5" fill="white" fill-opacity="0.84"/>
<circle cx="722.0" cy="455.8" r="14.5" fill="#7A3CE8" fill-opacity="0.66" stroke="#111" stroke-width="2.5"/>
<text x="722.0" y="462.8" text-anchor="middle" font-family="Arial, Helvetica, sans-serif" font-size="21" font-weight="800" fill="white" stroke="#111" stroke-width="3" paint-order="stroke">21</text>
<circle cx="768.0" cy="420.5" r="17.3" fill="white" fill-opacity="0.84"/>
<circle cx="768.0" cy="420.5" r="14.3" fill="#7A3CE8" fill-opacity="0.66" stroke="#111" stroke-width="2.5"/>
<text x="768.0" y="427.5" text-anchor="middle" font-family="Arial, Helvetica, sans-serif" font-size="21" font-weight="800" fill="white" stroke="#111" stroke-width="3" paint-order="stroke">22</text>
<circle cx="774.1" cy="345.7" r="19.7" fill="white" fill-opacity="0.84"/>
<circle cx="774.1" cy="345.7" r="16.7" fill="#7A3CE8" fill-opacity="0.66" stroke="#111" stroke-width="2.5"/>
<text x="774.1" y="352.7" text-anchor="middle" font-family="Arial, Helvetica, sans-serif" font-size="21" font-weight="800" fill="white" stroke="#111" stroke-width="3" paint-order="stroke">23</text>
<circle cx="778.5" cy="487.3" r="18.5" fill="white" fill-opacity="0.84"/>
<circle cx="778.5" cy="487.3" r="15.5" fill="#7A3CE8" fill-opacity="0.66" stroke="#111" stroke-width="2.5"/>
<text x="778.5" y="494.3" text-anchor="middle" font-family="Arial, Helvetica, sans-serif" font-size="21" font-weight="800" fill="white" stroke="#111" stroke-width="3" paint-order="stroke">24</text>
<circle cx="762.3" cy="572.0" r="21.8" fill="white" fill-opacity="0.84"/>
<circle cx="762.3" cy="572.0" r="18.8" fill="#7A3CE8" fill-opacity="0.66" stroke="#111" stroke-width="2.5"/>
<text x="762.3" y="579.0" text-anchor="middle" font-family="Arial, Helvetica, sans-serif" font-size="21" font-weight="800" fill="white" stroke="#111" stroke-width="3" paint-order="stroke">25</text>
<circle cx="491.9" cy="551.4" r="18.7" fill="white" fill-opacity="0.84"/>
<circle cx="491.9" cy="551.4" r="15.7" fill="#7A3CE8" fill-opacity="0.66" stroke="#111" stroke-width="2.5"/>
<text x="491.9" y="558.4" text-anchor="middle" font-family="Arial, Helvetica, sans-serif" font-size="21" font-weight="800" fill="white" stroke="#111" stroke-width="3" paint-order="stroke">26</text>
<circle cx="734.3" cy="415.2" r="20.9" fill="white" fill-opacity="0.84"/>
<circle cx="734.3" cy="415.2" r="17.9" fill="#7A3CE8" fill-opacity="0.66" stroke="#111" stroke-width="2.5"/>
<text x="734.3" y="422.2" text-anchor="middle" font-family="Arial, Helvetica, sans-serif" font-size="21" font-weight="800" fill="white" stroke="#111" stroke-width="3" paint-order="stroke">27</text>
<circle cx="748.3" cy="340.7" r="17.6" fill="white" fill-opacity="0.84"/>
<circle cx="748.3" cy="340.7" r="14.6" fill="#7A3CE8" fill-opacity="0.66" stroke="#111" stroke-width="2.5"/>
<text x="748.3" y="347.7" text-anchor="middle" font-family="Arial, Helvetica, sans-serif" font-size="21" font-weight="800" fill="white" stroke="#111" stroke-width="3" paint-order="stroke">28</text>
<circle cx="757.3" cy="292.1" r="18.6" fill="white" fill-opacity="0.84"/>
<circle cx="757.3" cy="292.1" r="15.6" fill="#7A3CE8" fill-opacity="0.66" stroke="#111" stroke-width="2.5"/>
<text x="757.3" y="299.1" text-anchor="middle" font-family="Arial, Helvetica, sans-serif" font-size="21" font-weight="800" fill="white" stroke="#111" stroke-width="3" paint-order="stroke">29</text>
<circle cx="769.7" cy="390.6" r="20.6" fill="white" fill-opacity="0.84"/>
<circle cx="769.7" cy="390.6" r="17.6" fill="#7A3CE8" fill-opacity="0.66" stroke="#111" stroke-width="2.5"/>
<text x="769.7" y="397.6" text-anchor="middle" font-family="Arial, Helvetica, sans-serif" font-size="21" font-weight="800" fill="white" stroke="#111" stroke-width="3" paint-order="stroke">30</text>
<circle cx="807.3" cy="419.9" r="18.5" fill="white" fill-opacity="0.84"/>
<circle cx="807.3" cy="419.9" r="15.5" fill="#7A3CE8" fill-opacity="0.66" stroke="#111" stroke-width="2.5"/>
<text x="807.3" y="426.9" text-anchor="middle" font-family="Arial, Helvetica, sans-serif" font-size="21" font-weight="800" fill="white" stroke="#111" stroke-width="3" paint-order="stroke">31</text>
<circle cx="723.8" cy="407.1" r="23.2" fill="white" fill-opacity="0.84"/>
<circle cx="723.8" cy="407.1" r="20.2" fill="#7A3CE8" fill-opacity="0.66" stroke="#111" stroke-width="2.5"/>
<text x="723.8" y="414.1" text-anchor="middle" font-family="Arial, Helvetica, sans-serif" font-size="21" font-weight="800" fill="white" stroke="#111" stroke-width="3" paint-order="stroke">32</text>
<circle cx="504.6" cy="424.7" r="18.6" fill="white" fill-opacity="0.84"/>
<circle cx="504.6" cy="424.7" r="15.6" fill="#7A3CE8" fill-opacity="0.66" stroke="#111" stroke-width="2.5"/>
<text x="504.6" y="431.7" text-anchor="middle" font-family="Arial, Helvetica, sans-serif" font-size="21" font-weight="800" fill="white" stroke="#111" stroke-width="3" paint-order="stroke">33</text>
<circle cx="733.6" cy="416.8" r="19.1" fill="white" fill-opacity="0.84"/>
<circle cx="733.6" cy="416.8" r="16.1" fill="#7A3CE8" fill-opacity="0.66" stroke="#111" stroke-width="2.5"/>
<text x="733.6" y="423.8" text-anchor="middle" font-family="Arial, Helvetica, sans-serif" font-size="21" font-weight="800" fill="white" stroke="#111" stroke-width="3" paint-order="stroke">34</text>
<circle cx="767.9" cy="356.9" r="16.5" fill="white" fill-opacity="0.84"/>
<circle cx="767.9" cy="356.9" r="13.5" fill="#7A3CE8" fill-opacity="0.66" stroke="#111" stroke-width="2.5"/>
<text x="767.9" y="363.9" text-anchor="middle" font-family="Arial, Helvetica, sans-serif" font-size="21" font-weight="800" fill="white" stroke="#111" stroke-width="3" paint-order="stroke">35</text>
<circle cx="754.1" cy="280.6" r="18.9" fill="white" fill-opacity="0.84"/>
<circle cx="754.1" cy="280.6" r="15.9" fill="#7A3CE8" fill-opacity="0.66" stroke="#111" stroke-width="2.5"/>
<text x="754.1" y="287.6" text-anchor="middle" font-family="Arial, Helvetica, sans-serif" font-size="21" font-weight="800" fill="white" stroke="#111" stroke-width="3" paint-order="stroke">36</text>
<circle cx="746.0" cy="371.5" r="17.3" fill="white" fill-opacity="0.84"/>
<circle cx="746.0" cy="371.5" r="14.3" fill="#7A3CE8" fill-opacity="0.66" stroke="#111" stroke-width="2.5"/>
<text x="746.0" y="378.5" text-anchor="middle" font-family="Arial, Helvetica, sans-serif" font-size="21" font-weight="800" fill="white" stroke="#111" stroke-width="3" paint-order="stroke">37</text>
<circle cx="768.6" cy="425.7" r="18.9" fill="white" fill-opacity="0.84"/>
<circle cx="768.6" cy="425.7" r="15.9" fill="#7A3CE8" fill-opacity="0.66" stroke="#111" stroke-width="2.5"/>
<text x="768.6" y="432.7" text-anchor="middle" font-family="Arial, Helvetica, sans-serif" font-size="21" font-weight="800" fill="white" stroke="#111" stroke-width="3" paint-order="stroke">38</text>
<circle cx="755.3" cy="506.7" r="20.5" fill="white" fill-opacity="0.84"/>
<circle cx="755.3" cy="506.7" r="17.5" fill="#7A3CE8" fill-opacity="0.66" stroke="#111" stroke-width="2.5"/>
<text x="755.3" y="513.7" text-anchor="middle" font-family="Arial, Helvetica, sans-serif" font-size="21" font-weight="800" fill="white" stroke="#111" stroke-width="3" paint-order="stroke">39</text>
<circle cx="746.3" cy="558.0" r="20.6" fill="white" fill-opacity="0.84"/>
<circle cx="746.3" cy="558.0" r="17.6" fill="#7A3CE8" fill-opacity="0.66" stroke="#111" stroke-width="2.5"/>
<text x="746.3" y="565.0" text-anchor="middle" font-family="Arial, Helvetica, sans-serif" font-size="21" font-weight="800" fill="white" stroke="#111" stroke-width="3" paint-order="stroke">40</text>
<circle cx="747.6" cy="430.3" r="16.5" fill="white" fill-opacity="0.84"/>
<circle cx="747.6" cy="430.3" r="13.5" fill="#7A3CE8" fill-opacity="0.66" stroke="#111" stroke-width="2.5"/>
<text x="747.6" y="437.3" text-anchor="middle" font-family="Arial, Helvetica, sans-serif" font-size="21" font-weight="800" fill="white" stroke="#111" stroke-width="3" paint-order="stroke">41</text>
<circle cx="742.8" cy="353.4" r="18.9" fill="white" fill-opacity="0.84"/>
<circle cx="742.8" cy="353.4" r="15.9" fill="#7A3CE8" fill-opacity="0.66" stroke="#111" stroke-width="2.5"/>
<text x="742.8" y="360.4" text-anchor="middle" font-family="Arial, Helvetica, sans-serif" font-size="21" font-weight="800" fill="white" stroke="#111" stroke-width="3" paint-order="stroke">42</text>
<circle cx="549.4" cy="436.2" r="18.6" fill="white" fill-opacity="0.84"/>
<circle cx="549.4" cy="436.2" r="15.6" fill="#7A3CE8" fill-opacity="0.66" stroke="#111" stroke-width="2.5"/>
<text x="549.4" y="443.2" text-anchor="middle" font-family="Arial, Helvetica, sans-serif" font-size="21" font-weight="800" fill="white" stroke="#111" stroke-width="3" paint-order="stroke">43</text>
<circle cx="744.6" cy="410.3" r="18.0" fill="white" fill-opacity="0.84"/>
<circle cx="744.6" cy="410.3" r="15.0" fill="#7A3CE8" fill-opacity="0.66" stroke="#111" stroke-width="2.5"/>
<text x="744.6" y="417.3" text-anchor="middle" font-family="Arial, Helvetica, sans-serif" font-size="21" font-weight="800" fill="white" stroke="#111" stroke-width="3" paint-order="stroke">44</text>
<circle cx="753.6" cy="369.3" r="16.4" fill="white" fill-opacity="0.84"/>
<circle cx="753.6" cy="369.3" r="13.4" fill="#7A3CE8" fill-opacity="0.66" stroke="#111" stroke-width="2.5"/>
<text x="753.6" y="376.3" text-anchor="middle" font-family="Arial, Helvetica, sans-serif" font-size="21" font-weight="800" fill="white" stroke="#111" stroke-width="3" paint-order="stroke">45</text>
<circle cx="747.9" cy="281.6" r="17.5" fill="white" fill-opacity="0.84"/>
<circle cx="747.9" cy="281.6" r="14.5" fill="#7A3CE8" fill-opacity="0.66" stroke="#111" stroke-width="2.5"/>
<text x="747.9" y="288.6" text-anchor="middle" font-family="Arial, Helvetica, sans-serif" font-size="21" font-weight="800" fill="white" stroke="#111" stroke-width="3" paint-order="stroke">46</text>
<circle cx="755.0" cy="262.8" r="20.3" fill="white" fill-opacity="0.84"/>
<circle cx="755.0" cy="262.8" r="17.3" fill="#7A3CE8" fill-opacity="0.66" stroke="#111" stroke-width="2.5"/>
<text x="755.0" y="269.8" text-anchor="middle" font-family="Arial, Helvetica, sans-serif" font-size="21" font-weight="800" fill="white" stroke="#111" stroke-width="3" paint-order="stroke">47</text>
<circle cx="541.1" cy="347.0" r="19.8" fill="white" fill-opacity="0.84"/>
<circle cx="541.1" cy="347.0" r="16.8" fill="#7A3CE8" fill-opacity="0.66" stroke="#111" stroke-width="2.5"/>
<text x="541.1" y="354.0" text-anchor="middle" font-family="Arial, Helvetica, sans-serif" font-size="21" font-weight="800" fill="white" stroke="#111" stroke-width="3" paint-order="stroke">48</text>
<circle cx="567.8" cy="493.9" r="16.7" fill="white" fill-opacity="0.84"/>
<circle cx="567.8" cy="493.9" r="13.7" fill="#7A3CE8" fill-opacity="0.66" stroke="#111" stroke-width="2.5"/>
<text x="567.8" y="500.9" text-anchor="middle" font-family="Arial, Helvetica, sans-serif" font-size="21" font-weight="800" fill="white" stroke="#111" stroke-width="3" paint-order="stroke">49</text>
<circle cx="745.9" cy="506.5" r="17.6" fill="white" fill-opacity="0.84"/>
<circle cx="745.9" cy="506.5" r="14.6" fill="#7A3CE8" fill-opacity="0.66" stroke="#111" stroke-width="2.5"/>
<text x="745.9" y="513.5" text-anchor="middle" font-family="Arial, Helvetica, sans-serif" font-size="21" font-weight="800" fill="white" stroke="#111" stroke-width="3" paint-order="stroke">50</text>
<circle cx="741.1" cy="528.3" r="19.5" fill="white" fill-opacity="0.84"/>
<circle cx="741.1" cy="528.3" r="16.5" fill="#7A3CE8" fill-opacity="0.66" stroke="#111" stroke-width="2.5"/>
<text x="741.1" y="535.3" text-anchor="middle" font-family="Arial, Helvetica, sans-serif" font-size="21" font-weight="800" fill="white" stroke="#111" stroke-width="3" paint-order="stroke">51</text>
<circle cx="765.0" cy="481.1" r="16.1" fill="white" fill-opacity="0.84"/>
<circle cx="765.0" cy="481.1" r="13.1" fill="#7A3CE8" fill-opacity="0.66" stroke="#111" stroke-width="2.5"/>
<text x="765.0" y="488.1" text-anchor="middle" font-family="Arial, Helvetica, sans-serif" font-size="21" font-weight="800" fill="white" stroke="#111" stroke-width="3" paint-order="stroke">52</text>
<circle cx="754.1" cy="357.0" r="18.3" fill="white" fill-opacity="0.84"/>
<circle cx="754.1" cy="357.0" r="15.3" fill="#7A3CE8" fill-opacity="0.66" stroke="#111" stroke-width="2.5"/>
<text x="754.1" y="364.0" text-anchor="middle" font-family="Arial, Helvetica, sans-serif" font-size="21" font-weight="800" fill="white" stroke="#111" stroke-width="3" paint-order="stroke">53</text>
<rect x="16" y="1094" width="1120" height="168" rx="8" fill="white" fill-opacity="0.92" stroke="#111" stroke-opacity="0.22"/>
<text x="36.0" y="1128.0" font-family="Arial, Helvetica, sans-serif" font-size="24" font-weight="600" fill="#111">K04 / k04_1.asc block 21 | clean-2-2-r.png | RT NA ms | 53 fixations</text>
<text x="36.0" y="1159.0" font-family="Arial, Helvetica, sans-serif" font-size="24" font-weight="600" fill="#111">numbers show fixation order; dot size shows fixation duration</text>
<circle cx="42" cy="1198" r="11" fill="#005DFF" fill-opacity="0.64" stroke="#111" stroke-width="2"/>
<text x="62.0" y="1206.0" font-family="Arial, Helvetica, sans-serif" font-size="22" font-weight="500" fill="#111">blue: before speech onset</text>
<circle cx="42" cy="1232" r="11" fill="#FF8A00" fill-opacity="0.64" stroke="#111" stroke-width="2"/>
<text x="62.0" y="1240.0" font-family="Arial, Helvetica, sans-serif" font-size="22" font-weight="500" fill="#111">orange: first 2000 ms after onset</text>
</svg>
