<svg xmlns="http://www.w3.org/2000/svg" width="1920" height="1320" viewBox="0 0 1920 1320">
<image href="../../../../stimuli/Koryak%20stimuli%20animate%20inanimate/water-2-1-l.png" x="0" y="0" width="1920" height="1080" preserveAspectRatio="none"/>
<rect x="0" y="0" width="1920" height="1080" fill="none" stroke="#111" stroke-width="2"/>
<rect x="0" y="1080" width="1920" height="240" fill="#f7f7f7"/>
<rect x="40.0" y="100.0" width="850" height="850" fill="none" stroke="#00B8D9" stroke-width="6" stroke-dasharray="18 12"/>
<rect x="52.0" y="62.0" width="102.0" height="38" rx="6" fill="white" fill-opacity="0.86" stroke="#00B8D9" stroke-width="3"/>
<text x="62.0" y="88.0" font-family="Arial, Helvetica, sans-serif" font-size="24" font-weight="700" fill="#111">AGENT</text>
<rect x="970.0" y="100.0" width="850" height="850" fill="none" stroke="#FF3B8A" stroke-width="6" stroke-dasharray="18 12"/>
<rect x="982.0" y="62.0" width="134.0" height="38" rx="6" fill="white" fill-opacity="0.86" stroke="#FF3B8A" stroke-width="3"/>
<text x="992.0" y="88.0" font-family="Arial, Helvetica, sans-serif" font-size="24" font-weight="700" fill="#111">PATIENT</text>
<polyline points="652.9,414.5 451.1,394.4 556.4,500.1 676.0,518.3 468.8,360.1 250.3,365.7 427.9,417.3 1123.9,747.8 1133.6,641.8 662.9,553.8 404.1,559.8 548.0,505.1 681.4,515.1 492.0,419.0 589.9,473.8 655.4,496.0 714.5,532.1 1154.3,630.6 1076.4,673.6 1098.7,748.3 810.4,655.5 852.4,625.9 1110.6,581.2 1134.8,614.4 841.3,594.6 708.5,534.0 1082.1,627.9 1135.9,671.7 1108.6,775.2 1118.5,639.9 1150.2,661.1 818.4,619.2 701.8,562.2 448.2,703.1 503.8,650.8 428.7,584.6 315.1,465.0 261.6,447.6 483.1,457.8 267.6,429.4 537.8,564.7 695.2,558.1 811.3,581.6 687.6,554.8 597.3,548.5 510.2,624.1 597.8,692.6 1079.7,676.9 717.4,574.0 818.2,589.7 1107.5,641.4 1119.1,680.2 880.9,628.6 1090.0,679.4 1128.8,688.8 783.9,582.3 527.5,572.2 476.8,435.2 993.5,636.1 1144.8,646.5 1287.8,693.4 1148.2,693.8 693.6,561.6 533.5,481.6 884.5,584.0 1144.6,657.0 1167.4,699.6 1129.5,679.4 723.7,563.4 524.7,582.0 293.8,422.9 252.2,414.6 501.0,391.8 558.6,418.7 617.4,456.6 279.2,393.2 548.6,399.1 810.1,501.4 1111.2,633.3 823.5,572.7 714.6,541.4 1041.0,632.2 495.7,489.9 1164.8,712.9 429.3,483.3 286.3,431.5 535.2,569.4 953.6,616.1 1134.6,639.8 1148.7,686.3 1169.7,735.7 1143.3,624.7 1150.8,644.9 1149.1,681.0 865.1,617.9 1136.8,629.5" fill="none" stroke="#111" stroke-width="4" stroke-opacity="0.36" stroke-linejoin="round"/>
<circle cx="652.9" cy="414.5" r="14.8" fill="white" fill-opacity="0.84"/>
<circle cx="652.9" cy="414.5" r="11.8" fill="#7A3CE8" fill-opacity="0.66" stroke="#111" stroke-width="2.5"/>
<text x="652.9" y="421.5" text-anchor="middle" font-family="Arial, Helvetica, sans-serif" font-size="21" font-weight="800" fill="white" stroke="#111" stroke-width="3" paint-order="stroke">1</text>
<circle cx="451.1" cy="394.4" r="17.8" fill="white" fill-opacity="0.84"/>
<circle cx="451.1" cy="394.4" r="14.8" fill="#7A3CE8" fill-opacity="0.66" stroke="#111" stroke-width="2.5"/>
<text x="451.1" y="401.4" text-anchor="middle" font-family="Arial, Helvetica, sans-serif" font-size="21" font-weight="800" fill="white" stroke="#111" stroke-width="3" paint-order="stroke">2</text>
<circle cx="556.4" cy="500.1" r="20.2" fill="white" fill-opacity="0.84"/>
<circle cx="556.4" cy="500.1" r="17.2" fill="#7A3CE8" fill-opacity="0.66" stroke="#111" stroke-width="2.5"/>
<text x="556.4" y="507.1" text-anchor="middle" font-family="Arial, Helvetica, sans-serif" font-size="21" font-weight="800" fill="white" stroke="#111" stroke-width="3" paint-order="stroke">3</text>
<circle cx="676.0" cy="518.3" r="16.9" fill="white" fill-opacity="0.84"/>
<circle cx="676.0" cy="518.3" r="13.9" fill="#7A3CE8" fill-opacity="0.66" stroke="#111" stroke-width="2.5"/>
<text x="676.0" y="525.3" text-anchor="middle" font-family="Arial, Helvetica, sans-serif" font-size="21" font-weight="800" fill="white" stroke="#111" stroke-width="3" paint-order="stroke">4</text>
<circle cx="468.8" cy="360.1" r="19.6" fill="white" fill-opacity="0.84"/>
<circle cx="468.8" cy="360.1" r="16.6" fill="#7A3CE8" fill-opacity="0.66" stroke="#111" stroke-width="2.5"/>
<text x="468.8" y="367.1" text-anchor="middle" font-family="Arial, Helvetica, sans-serif" font-size="21" font-weight="800" fill="white" stroke="#111" stroke-width="3" paint-order="stroke">5</text>
<circle cx="250.3" cy="365.7" r="19.7" fill="white" fill-opacity="0.84"/>
<circle cx="250.3" cy="365.7" r="16.7" fill="#7A3CE8" fill-opacity="0.66" stroke="#111" stroke-width="2.5"/>
<text x="250.3" y="372.7" text-anchor="middle" font-family="Arial, Helvetica, sans-serif" font-size="21" font-weight="800" fill="white" stroke="#111" stroke-width="3" paint-order="stroke">6</text>
<circle cx="427.9" cy="417.3" r="15.8" fill="white" fill-opacity="0.84"/>
<circle cx="427.9" cy="417.3" r="12.8" fill="#7A3CE8" fill-opacity="0.66" stroke="#111" stroke-width="2.5"/>
<text x="427.9" y="424.3" text-anchor="middle" font-family="Arial, Helvetica, sans-serif" font-size="21" font-weight="800" fill="white" stroke="#111" stroke-width="3" paint-order="stroke">7</text>
<circle cx="1123.9" cy="747.8" r="21.8" fill="white" fill-opacity="0.84"/>
<circle cx="1123.9" cy="747.8" r="18.8" fill="#7A3CE8" fill-opacity="0.66" stroke="#111" stroke-width="2.5"/>
<text x="1123.9" y="754.8" text-anchor="middle" font-family="Arial, Helvetica, sans-serif" font-size="21" font-weight="800" fill="white" stroke="#111" stroke-width="3" paint-order="stroke">8</text>
<circle cx="1133.6" cy="641.8" r="18.8" fill="white" fill-opacity="0.84"/>
<circle cx="1133.6" cy="641.8" r="15.8" fill="#7A3CE8" fill-opacity="0.66" stroke="#111" stroke-width="2.5"/>
<text x="1133.6" y="648.8" text-anchor="middle" font-family="Arial, Helvetica, sans-serif" font-size="21" font-weight="800" fill="white" stroke="#111" stroke-width="3" paint-order="stroke">9</text>
<circle cx="662.9" cy="553.8" r="19.3" fill="white" fill-opacity="0.84"/>
<circle cx="662.9" cy="553.8" r="16.3" fill="#7A3CE8" fill-opacity="0.66" stroke="#111" stroke-width="2.5"/>
<text x="662.9" y="560.8" text-anchor="middle" font-family="Arial, Helvetica, sans-serif" font-size="21" font-weight="800" fill="white" stroke="#111" stroke-width="3" paint-order="stroke">10</text>
<circle cx="404.1" cy="559.8" r="22.8" fill="white" fill-opacity="0.84"/>
<circle cx="404.1" cy="559.8" r="19.8" fill="#7A3CE8" fill-opacity="0.66" stroke="#111" stroke-width="2.5"/>
<text x="404.1" y="566.8" text-anchor="middle" font-family="Arial, Helvetica, sans-serif" font-size="21" font-weight="800" fill="white" stroke="#111" stroke-width="3" paint-order="stroke">11</text>
<circle cx="548.0" cy="505.1" r="16.5" fill="white" fill-opacity="0.84"/>
<circle cx="548.0" cy="505.1" r="13.5" fill="#7A3CE8" fill-opacity="0.66" stroke="#111" stroke-width="2.5"/>
<text x="548.0" y="512.1" text-anchor="middle" font-family="Arial, Helvetica, sans-serif" font-size="21" font-weight="800" fill="white" stroke="#111" stroke-width="3" paint-order="stroke">12</text>
<circle cx="681.4" cy="515.1" r="27.6" fill="white" fill-opacity="0.84"/>
<circle cx="681.4" cy="515.1" r="24.6" fill="#7A3CE8" fill-opacity="0.66" stroke="#111" stroke-width="2.5"/>
<text x="681.4" y="522.1" text-anchor="middle" font-family="Arial, Helvetica, sans-serif" font-size="21" font-weight="800" fill="white" stroke="#111" stroke-width="3" paint-order="stroke">13</text>
<circle cx="492.0" cy="419.0" r="23.9" fill="white" fill-opacity="0.84"/>
<circle cx="492.0" cy="419.0" r="20.9" fill="#7A3CE8" fill-opacity="0.66" stroke="#111" stroke-width="2.5"/>
<text x="492.0" y="426.0" text-anchor="middle" font-family="Arial, Helvetica, sans-serif" font-size="21" font-weight="800" fill="white" stroke="#111" stroke-width="3" paint-order="stroke">14</text>
<circle cx="589.9" cy="473.8" r="18.6" fill="white" fill-opacity="0.84"/>
<circle cx="589.9" cy="473.8" r="15.6" fill="#7A3CE8" fill-opacity="0.66" stroke="#111" stroke-width="2.5"/>
<text x="589.9" y="480.8" text-anchor="middle" font-family="Arial, Helvetica, sans-serif" font-size="21" font-weight="800" fill="white" stroke="#111" stroke-width="3" paint-order="stroke">15</text>
<circle cx="655.4" cy="496.0" r="18.6" fill="white" fill-opacity="0.84"/>
<circle cx="655.4" cy="496.0" r="15.6" fill="#7A3CE8" fill-opacity="0.66" stroke="#111" stroke-width="2.5"/>
<text x="655.4" y="503.0" text-anchor="middle" font-family="Arial, Helvetica, sans-serif" font-size="21" font-weight="800" fill="white" stroke="#111" stroke-width="3" paint-order="stroke">16</text>
<circle cx="714.5" cy="532.1" r="20.5" fill="white" fill-opacity="0.84"/>
<circle cx="714.5" cy="532.1" r="17.5" fill="#7A3CE8" fill-opacity="0.66" stroke="#111" stroke-width="2.5"/>
<text x="714.5" y="539.1" text-anchor="middle" font-family="Arial, Helvetica, sans-serif" font-size="21" font-weight="800" fill="white" stroke="#111" stroke-width="3" paint-order="stroke">17</text>
<circle cx="1154.3" cy="630.6" r="18.2" fill="white" fill-opacity="0.84"/>
<circle cx="1154.3" cy="630.6" r="15.2" fill="#7A3CE8" fill-opacity="0.66" stroke="#111" stroke-width="2.5"/>
<text x="1154.3" y="637.6" text-anchor="middle" font-family="Arial, Helvetica, sans-serif" font-size="21" font-weight="800" fill="white" stroke="#111" stroke-width="3" paint-order="stroke">18</text>
<circle cx="1076.4" cy="673.6" r="23.3" fill="white" fill-opacity="0.84"/>
<circle cx="1076.4" cy="673.6" r="20.3" fill="#7A3CE8" fill-opacity="0.66" stroke="#111" stroke-width="2.5"/>
<text x="1076.4" y="680.6" text-anchor="middle" font-family="Arial, Helvetica, sans-serif" font-size="21" font-weight="800" fill="white" stroke="#111" stroke-width="3" paint-order="stroke">19</text>
<circle cx="1098.7" cy="748.3" r="22.2" fill="white" fill-opacity="0.84"/>
<circle cx="1098.7" cy="748.3" r="19.2" fill="#7A3CE8" fill-opacity="0.66" stroke="#111" stroke-width="2.5"/>
<text x="1098.7" y="755.3" text-anchor="middle" font-family="Arial, Helvetica, sans-serif" font-size="21" font-weight="800" fill="white" stroke="#111" stroke-width="3" paint-order="stroke">20</text>
<circle cx="810.4" cy="655.5" r="16.6" fill="white" fill-opacity="0.84"/>
<circle cx="810.4" cy="655.5" r="13.6" fill="#7A3CE8" fill-opacity="0.66" stroke="#111" stroke-width="2.5"/>
<text x="810.4" y="662.5" text-anchor="middle" font-family="Arial, Helvetica, sans-serif" font-size="21" font-weight="800" fill="white" stroke="#111" stroke-width="3" paint-order="stroke">21</text>
<circle cx="852.4" cy="625.9" r="17.3" fill="white" fill-opacity="0.84"/>
<circle cx="852.4" cy="625.9" r="14.3" fill="#7A3CE8" fill-opacity="0.66" stroke="#111" stroke-width="2.5"/>
<text x="852.4" y="632.9" text-anchor="middle" font-family="Arial, Helvetica, sans-serif" font-size="21" font-weight="800" fill="white" stroke="#111" stroke-width="3" paint-order="stroke">22</text>
<circle cx="1110.6" cy="581.2" r="15.1" fill="white" fill-opacity="0.84"/>
<circle cx="1110.6" cy="581.2" r="12.1" fill="#7A3CE8" fill-opacity="0.66" stroke="#111" stroke-width="2.5"/>
<text x="1110.6" y="588.2" text-anchor="middle" font-family="Arial, Helvetica, sans-serif" font-size="21" font-weight="800" fill="white" stroke="#111" stroke-width="3" paint-order="stroke">23</text>
<circle cx="1134.8" cy="614.4" r="16.1" fill="white" fill-opacity="0.84"/>
<circle cx="1134.8" cy="614.4" r="13.1" fill="#7A3CE8" fill-opacity="0.66" stroke="#111" stroke-width="2.5"/>
<text x="1134.8" y="621.4" text-anchor="middle" font-family="Arial, Helvetica, sans-serif" font-size="21" font-weight="800" fill="white" stroke="#111" stroke-width="3" paint-order="stroke">24</text>
<circle cx="841.3" cy="594.6" r="19.8" fill="white" fill-opacity="0.84"/>
<circle cx="841.3" cy="594.6" r="16.8" fill="#7A3CE8" fill-opacity="0.66" stroke="#111" stroke-width="2.5"/>
<text x="841.3" y="601.6" text-anchor="middle" font-family="Arial, Helvetica, sans-serif" font-size="21" font-weight="800" fill="white" stroke="#111" stroke-width="3" paint-order="stroke">25</text>
<circle cx="708.5" cy="534.0" r="21.5" fill="white" fill-opacity="0.84"/>
<circle cx="708.5" cy="534.0" r="18.5" fill="#7A3CE8" fill-opacity="0.66" stroke="#111" stroke-width="2.5"/>
<text x="708.5" y="541.0" text-anchor="middle" font-family="Arial, Helvetica, sans-serif" font-size="21" font-weight="800" fill="white" stroke="#111" stroke-width="3" paint-order="stroke">26</text>
<circle cx="1082.1" cy="627.9" r="18.3" fill="white" fill-opacity="0.84"/>
<circle cx="1082.1" cy="627.9" r="15.3" fill="#7A3CE8" fill-opacity="0.66" stroke="#111" stroke-width="2.5"/>
<text x="1082.1" y="634.9" text-anchor="middle" font-family="Arial, Helvetica, sans-serif" font-size="21" font-weight="800" fill="white" stroke="#111" stroke-width="3" paint-order="stroke">27</text>
<circle cx="1135.9" cy="671.7" r="21.0" fill="white" fill-opacity="0.84"/>
<circle cx="1135.9" cy="671.7" r="18.0" fill="#7A3CE8" fill-opacity="0.66" stroke="#111" stroke-width="2.5"/>
<text x="1135.9" y="678.7" text-anchor="middle" font-family="Arial, Helvetica, sans-serif" font-size="21" font-weight="800" fill="white" stroke="#111" stroke-width="3" paint-order="stroke">28</text>
<circle cx="1108.6" cy="775.2" r="23.1" fill="white" fill-opacity="0.84"/>
<circle cx="1108.6" cy="775.2" r="20.1" fill="#7A3CE8" fill-opacity="0.66" stroke="#111" stroke-width="2.5"/>
<text x="1108.6" y="782.2" text-anchor="middle" font-family="Arial, Helvetica, sans-serif" font-size="21" font-weight="800" fill="white" stroke="#111" stroke-width="3" paint-order="stroke">29</text>
<circle cx="1118.5" cy="639.9" r="22.4" fill="white" fill-opacity="0.84"/>
<circle cx="1118.5" cy="639.9" r="19.4" fill="#7A3CE8" fill-opacity="0.66" stroke="#111" stroke-width="2.5"/>
<text x="1118.5" y="646.9" text-anchor="middle" font-family="Arial, Helvetica, sans-serif" font-size="21" font-weight="800" fill="white" stroke="#111" stroke-width="3" paint-order="stroke">30</text>
<circle cx="1150.2" cy="661.1" r="23.2" fill="white" fill-opacity="0.84"/>
<circle cx="1150.2" cy="661.1" r="20.2" fill="#7A3CE8" fill-opacity="0.66" stroke="#111" stroke-width="2.5"/>
<text x="1150.2" y="668.1" text-anchor="middle" font-family="Arial, Helvetica, sans-serif" font-size="21" font-weight="800" fill="white" stroke="#111" stroke-width="3" paint-order="stroke">31</text>
<circle cx="818.4" cy="619.2" r="20.8" fill="white" fill-opacity="0.84"/>
<circle cx="818.4" cy="619.2" r="17.8" fill="#7A3CE8" fill-opacity="0.66" stroke="#111" stroke-width="2.5"/>
<text x="818.4" y="626.2" text-anchor="middle" font-family="Arial, Helvetica, sans-serif" font-size="21" font-weight="800" fill="white" stroke="#111" stroke-width="3" paint-order="stroke">32</text>
<circle cx="701.8" cy="562.2" r="18.8" fill="white" fill-opacity="0.84"/>
<circle cx="701.8" cy="562.2" r="15.8" fill="#7A3CE8" fill-opacity="0.66" stroke="#111" stroke-width="2.5"/>
<text x="701.8" y="569.2" text-anchor="middle" font-family="Arial, Helvetica, sans-serif" font-size="21" font-weight="800" fill="white" stroke="#111" stroke-width="3" paint-order="stroke">33</text>
<circle cx="448.2" cy="703.1" r="20.3" fill="white" fill-opacity="0.84"/>
<circle cx="448.2" cy="703.1" r="17.3" fill="#7A3CE8" fill-opacity="0.66" stroke="#111" stroke-width="2.5"/>
<text x="448.2" y="710.1" text-anchor="middle" font-family="Arial, Helvetica, sans-serif" font-size="21" font-weight="800" fill="white" stroke="#111" stroke-width="3" paint-order="stroke">34</text>
<circle cx="503.8" cy="650.8" r="18.4" fill="white" fill-opacity="0.84"/>
<circle cx="503.8" cy="650.8" r="15.4" fill="#7A3CE8" fill-opacity="0.66" stroke="#111" stroke-width="2.5"/>
<text x="503.8" y="657.8" text-anchor="middle" font-family="Arial, Helvetica, sans-serif" font-size="21" font-weight="800" fill="white" stroke="#111" stroke-width="3" paint-order="stroke">35</text>
<circle cx="428.7" cy="584.6" r="23.9" fill="white" fill-opacity="0.84"/>
<circle cx="428.7" cy="584.6" r="20.9" fill="#7A3CE8" fill-opacity="0.66" stroke="#111" stroke-width="2.5"/>
<text x="428.7" y="591.6" text-anchor="middle" font-family="Arial, Helvetica, sans-serif" font-size="21" font-weight="800" fill="white" stroke="#111" stroke-width="3" paint-order="stroke">36</text>
<circle cx="315.1" cy="465.0" r="16.4" fill="white" fill-opacity="0.84"/>
<circle cx="315.1" cy="465.0" r="13.4" fill="#7A3CE8" fill-opacity="0.66" stroke="#111" stroke-width="2.5"/>
<text x="315.1" y="472.0" text-anchor="middle" font-family="Arial, Helvetica, sans-serif" font-size="21" font-weight="800" fill="white" stroke="#111" stroke-width="3" paint-order="stroke">37</text>
<circle cx="261.6" cy="447.6" r="18.0" fill="white" fill-opacity="0.84"/>
<circle cx="261.6" cy="447.6" r="15.0" fill="#7A3CE8" fill-opacity="0.66" stroke="#111" stroke-width="2.5"/>
<text x="261.6" y="454.6" text-anchor="middle" font-family="Arial, Helvetica, sans-serif" font-size="21" font-weight="800" fill="white" stroke="#111" stroke-width="3" paint-order="stroke">38</text>
<circle cx="483.1" cy="457.8" r="21.0" fill="white" fill-opacity="0.84"/>
<circle cx="483.1" cy="457.8" r="18.0" fill="#7A3CE8" fill-opacity="0.66" stroke="#111" stroke-width="2.5"/>
<text x="483.1" y="464.8" text-anchor="middle" font-family="Arial, Helvetica, sans-serif" font-size="21" font-weight="800" fill="white" stroke="#111" stroke-width="3" paint-order="stroke">39</text>
<circle cx="267.6" cy="429.4" r="18.2" fill="white" fill-opacity="0.84"/>
<circle cx="267.6" cy="429.4" r="15.2" fill="#7A3CE8" fill-opacity="0.66" stroke="#111" stroke-width="2.5"/>
<text x="267.6" y="436.4" text-anchor="middle" font-family="Arial, Helvetica, sans-serif" font-size="21" font-weight="800" fill="white" stroke="#111" stroke-width="3" paint-order="stroke">40</text>
<circle cx="537.8" cy="564.7" r="19.7" fill="white" fill-opacity="0.84"/>
<circle cx="537.8" cy="564.7" r="16.7" fill="#7A3CE8" fill-opacity="0.66" stroke="#111" stroke-width="2.5"/>
<text x="537.8" y="571.7" text-anchor="middle" font-family="Arial, Helvetica, sans-serif" font-size="21" font-weight="800" fill="white" stroke="#111" stroke-width="3" paint-order="stroke">41</text>
<circle cx="695.2" cy="558.1" r="19.9" fill="white" fill-opacity="0.84"/>
<circle cx="695.2" cy="558.1" r="16.9" fill="#7A3CE8" fill-opacity="0.66" stroke="#111" stroke-width="2.5"/>
<text x="695.2" y="565.1" text-anchor="middle" font-family="Arial, Helvetica, sans-serif" font-size="21" font-weight="800" fill="white" stroke="#111" stroke-width="3" paint-order="stroke">42</text>
<circle cx="811.3" cy="581.6" r="25.1" fill="white" fill-opacity="0.84"/>
<circle cx="811.3" cy="581.6" r="22.1" fill="#7A3CE8" fill-opacity="0.66" stroke="#111" stroke-width="2.5"/>
<text x="811.3" y="588.6" text-anchor="middle" font-family="Arial, Helvetica, sans-serif" font-size="21" font-weight="800" fill="white" stroke="#111" stroke-width="3" paint-order="stroke">43</text>
<circle cx="687.6" cy="554.8" r="21.5" fill="white" fill-opacity="0.84"/>
<circle cx="687.6" cy="554.8" r="18.5" fill="#7A3CE8" fill-opacity="0.66" stroke="#111" stroke-width="2.5"/>
<text x="687.6" y="561.8" text-anchor="middle" font-family="Arial, Helvetica, sans-serif" font-size="21" font-weight="800" fill="white" stroke="#111" stroke-width="3" paint-order="stroke">44</text>
<circle cx="597.3" cy="548.5" r="22.2" fill="white" fill-opacity="0.84"/>
<circle cx="597.3" cy="548.5" r="19.2" fill="#7A3CE8" fill-opacity="0.66" stroke="#111" stroke-width="2.5"/>
<text x="597.3" y="555.5" text-anchor="middle" font-family="Arial, Helvetica, sans-serif" font-size="21" font-weight="800" fill="white" stroke="#111" stroke-width="3" paint-order="stroke">45</text>
<circle cx="510.2" cy="624.1" r="25.5" fill="white" fill-opacity="0.84"/>
<circle cx="510.2" cy="624.1" r="22.5" fill="#7A3CE8" fill-opacity="0.66" stroke="#111" stroke-width="2.5"/>
<text x="510.2" y="631.1" text-anchor="middle" font-family="Arial, Helvetica, sans-serif" font-size="21" font-weight="800" fill="white" stroke="#111" stroke-width="3" paint-order="stroke">46</text>
<circle cx="597.8" cy="692.6" r="20.0" fill="white" fill-opacity="0.84"/>
<circle cx="597.8" cy="692.6" r="17.0" fill="#7A3CE8" fill-opacity="0.66" stroke="#111" stroke-width="2.5"/>
<text x="597.8" y="699.6" text-anchor="middle" font-family="Arial, Helvetica, sans-serif" font-size="21" font-weight="800" fill="white" stroke="#111" stroke-width="3" paint-order="stroke">47</text>
<circle cx="1079.7" cy="676.9" r="19.3" fill="white" fill-opacity="0.84"/>
<circle cx="1079.7" cy="676.9" r="16.3" fill="#7A3CE8" fill-opacity="0.66" stroke="#111" stroke-width="2.5"/>
<text x="1079.7" y="683.9" text-anchor="middle" font-family="Arial, Helvetica, sans-serif" font-size="21" font-weight="800" fill="white" stroke="#111" stroke-width="3" paint-order="stroke">48</text>
<circle cx="717.4" cy="574.0" r="20.8" fill="white" fill-opacity="0.84"/>
<circle cx="717.4" cy="574.0" r="17.8" fill="#7A3CE8" fill-opacity="0.66" stroke="#111" stroke-width="2.5"/>
<text x="717.4" y="581.0" text-anchor="middle" font-family="Arial, Helvetica, sans-serif" font-size="21" font-weight="800" fill="white" stroke="#111" stroke-width="3" paint-order="stroke">49</text>
<circle cx="818.2" cy="589.7" r="24.8" fill="white" fill-opacity="0.84"/>
<circle cx="818.2" cy="589.7" r="21.8" fill="#7A3CE8" fill-opacity="0.66" stroke="#111" stroke-width="2.5"/>
<text x="818.2" y="596.7" text-anchor="middle" font-family="Arial, Helvetica, sans-serif" font-size="21" font-weight="800" fill="white" stroke="#111" stroke-width="3" paint-order="stroke">50</text>
<circle cx="1107.5" cy="641.4" r="21.8" fill="white" fill-opacity="0.84"/>
<circle cx="1107.5" cy="641.4" r="18.8" fill="#7A3CE8" fill-opacity="0.66" stroke="#111" stroke-width="2.5"/>
<text x="1107.5" y="648.4" text-anchor="middle" font-family="Arial, Helvetica, sans-serif" font-size="21" font-weight="800" fill="white" stroke="#111" stroke-width="3" paint-order="stroke">51</text>
<circle cx="1119.1" cy="680.2" r="18.9" fill="white" fill-opacity="0.84"/>
<circle cx="1119.1" cy="680.2" r="15.9" fill="#7A3CE8" fill-opacity="0.66" stroke="#111" stroke-width="2.5"/>
<text x="1119.1" y="687.2" text-anchor="middle" font-family="Arial, Helvetica, sans-serif" font-size="21" font-weight="800" fill="white" stroke="#111" stroke-width="3" paint-order="stroke">52</text>
<circle cx="880.9" cy="628.6" r="23.5" fill="white" fill-opacity="0.84"/>
<circle cx="880.9" cy="628.6" r="20.5" fill="#7A3CE8" fill-opacity="0.66" stroke="#111" stroke-width="2.5"/>
<text x="880.9" y="635.6" text-anchor="middle" font-family="Arial, Helvetica, sans-serif" font-size="21" font-weight="800" fill="white" stroke="#111" stroke-width="3" paint-order="stroke">53</text>
<circle cx="1090.0" cy="679.4" r="18.8" fill="white" fill-opacity="0.84"/>
<circle cx="1090.0" cy="679.4" r="15.8" fill="#7A3CE8" fill-opacity="0.66" stroke="#111" stroke-width="2.5"/>
<text x="1090.0" y="686.4" text-anchor="middle" font-family="Arial, Helvetica, sans-serif" font-size="21" font-weight="800" fill="white" stroke="#111" stroke-width="3" paint-order="stroke">54</text>
<circle cx="1128.8" cy="688.8" r="27.0" fill="white" fill-opacity="0.84"/>
<circle cx="1128.8" cy="688.8" r="24.0" fill="#7A3CE8" fill-opacity="0.66" stroke="#111" stroke-width="2.5"/>
<text x="1128.8" y="695.8" text-anchor="middle" font-family="Arial, Helvetica, sans-serif" font-size="21" font-weight="800" fill="white" stroke="#111" stroke-width="3" paint-order="stroke">55</text>
<circle cx="783.9" cy="582.3" r="23.4" fill="white" fill-opacity="0.84"/>
<circle cx="783.9" cy="582.3" r="20.4" fill="#7A3CE8" fill-opacity="0.66" stroke="#111" stroke-width="2.5"/>
<text x="783.9" y="589.3" text-anchor="middle" font-family="Arial, Helvetica, sans-serif" font-size="21" font-weight="800" fill="white" stroke="#111" stroke-width="3" paint-order="stroke">56</text>
<circle cx="527.5" cy="572.2" r="26.9" fill="white" fill-opacity="0.84"/>
<circle cx="527.5" cy="572.2" r="23.9" fill="#7A3CE8" fill-opacity="0.66" stroke="#111" stroke-width="2.5"/>
<text x="527.5" y="579.2" text-anchor="middle" font-family="Arial, Helvetica, sans-serif" font-size="21" font-weight="800" fill="white" stroke="#111" stroke-width="3" paint-order="stroke">57</text>
<circle cx="476.8" cy="435.2" r="21.0" fill="white" fill-opacity="0.84"/>
<circle cx="476.8" cy="435.2" r="18.0" fill="#7A3CE8" fill-opacity="0.66" stroke="#111" stroke-width="2.5"/>
<text x="476.8" y="442.2" text-anchor="middle" font-family="Arial, Helvetica, sans-serif" font-size="21" font-weight="800" fill="white" stroke="#111" stroke-width="3" paint-order="stroke">58</text>
<circle cx="993.5" cy="636.1" r="18.2" fill="white" fill-opacity="0.84"/>
<circle cx="993.5" cy="636.1" r="15.2" fill="#7A3CE8" fill-opacity="0.66" stroke="#111" stroke-width="2.5"/>
<text x="993.5" y="643.1" text-anchor="middle" font-family="Arial, Helvetica, sans-serif" font-size="21" font-weight="800" fill="white" stroke="#111" stroke-width="3" paint-order="stroke">59</text>
<circle cx="1144.8" cy="646.5" r="20.2" fill="white" fill-opacity="0.84"/>
<circle cx="1144.8" cy="646.5" r="17.2" fill="#7A3CE8" fill-opacity="0.66" stroke="#111" stroke-width="2.5"/>
<text x="1144.8" y="653.5" text-anchor="middle" font-family="Arial, Helvetica, sans-serif" font-size="21" font-weight="800" fill="white" stroke="#111" stroke-width="3" paint-order="stroke">60</text>
<circle cx="1287.8" cy="693.4" r="19.2" fill="white" fill-opacity="0.84"/>
<circle cx="1287.8" cy="693.4" r="16.2" fill="#7A3CE8" fill-opacity="0.66" stroke="#111" stroke-width="2.5"/>
<text x="1287.8" y="700.4" text-anchor="middle" font-family="Arial, Helvetica, sans-serif" font-size="21" font-weight="800" fill="white" stroke="#111" stroke-width="3" paint-order="stroke">61</text>
<circle cx="1148.2" cy="693.8" r="20.8" fill="white" fill-opacity="0.84"/>
<circle cx="1148.2" cy="693.8" r="17.8" fill="#7A3CE8" fill-opacity="0.66" stroke="#111" stroke-width="2.5"/>
<text x="1148.2" y="700.8" text-anchor="middle" font-family="Arial, Helvetica, sans-serif" font-size="21" font-weight="800" fill="white" stroke="#111" stroke-width="3" paint-order="stroke">62</text>
<circle cx="693.6" cy="561.6" r="15.2" fill="white" fill-opacity="0.84"/>
<circle cx="693.6" cy="561.6" r="12.2" fill="#7A3CE8" fill-opacity="0.66" stroke="#111" stroke-width="2.5"/>
<text x="693.6" y="568.6" text-anchor="middle" font-family="Arial, Helvetica, sans-serif" font-size="21" font-weight="800" fill="white" stroke="#111" stroke-width="3" paint-order="stroke">63</text>
<circle cx="533.5" cy="481.6" r="21.5" fill="white" fill-opacity="0.84"/>
<circle cx="533.5" cy="481.6" r="18.5" fill="#7A3CE8" fill-opacity="0.66" stroke="#111" stroke-width="2.5"/>
<text x="533.5" y="488.6" text-anchor="middle" font-family="Arial, Helvetica, sans-serif" font-size="21" font-weight="800" fill="white" stroke="#111" stroke-width="3" paint-order="stroke">64</text>
<circle cx="884.5" cy="584.0" r="17.1" fill="white" fill-opacity="0.84"/>
<circle cx="884.5" cy="584.0" r="14.1" fill="#7A3CE8" fill-opacity="0.66" stroke="#111" stroke-width="2.5"/>
<text x="884.5" y="591.0" text-anchor="middle" font-family="Arial, Helvetica, sans-serif" font-size="21" font-weight="800" fill="white" stroke="#111" stroke-width="3" paint-order="stroke">65</text>
<circle cx="1144.6" cy="657.0" r="19.8" fill="white" fill-opacity="0.84"/>
<circle cx="1144.6" cy="657.0" r="16.8" fill="#7A3CE8" fill-opacity="0.66" stroke="#111" stroke-width="2.5"/>
<text x="1144.6" y="664.0" text-anchor="middle" font-family="Arial, Helvetica, sans-serif" font-size="21" font-weight="800" fill="white" stroke="#111" stroke-width="3" paint-order="stroke">66</text>
<circle cx="1167.4" cy="699.6" r="24.4" fill="white" fill-opacity="0.84"/>
<circle cx="1167.4" cy="699.6" r="21.4" fill="#7A3CE8" fill-opacity="0.66" stroke="#111" stroke-width="2.5"/>
<text x="1167.4" y="706.6" text-anchor="middle" font-family="Arial, Helvetica, sans-serif" font-size="21" font-weight="800" fill="white" stroke="#111" stroke-width="3" paint-order="stroke">67</text>
<circle cx="1129.5" cy="679.4" r="15.6" fill="white" fill-opacity="0.84"/>
<circle cx="1129.5" cy="679.4" r="12.6" fill="#7A3CE8" fill-opacity="0.66" stroke="#111" stroke-width="2.5"/>
<text x="1129.5" y="686.4" text-anchor="middle" font-family="Arial, Helvetica, sans-serif" font-size="21" font-weight="800" fill="white" stroke="#111" stroke-width="3" paint-order="stroke">68</text>
<circle cx="723.7" cy="563.4" r="21.0" fill="white" fill-opacity="0.84"/>
<circle cx="723.7" cy="563.4" r="18.0" fill="#7A3CE8" fill-opacity="0.66" stroke="#111" stroke-width="2.5"/>
<text x="723.7" y="570.4" text-anchor="middle" font-family="Arial, Helvetica, sans-serif" font-size="21" font-weight="800" fill="white" stroke="#111" stroke-width="3" paint-order="stroke">69</text>
<circle cx="524.7" cy="582.0" r="22.1" fill="white" fill-opacity="0.84"/>
<circle cx="524.7" cy="582.0" r="19.1" fill="#7A3CE8" fill-opacity="0.66" stroke="#111" stroke-width="2.5"/>
<text x="524.7" y="589.0" text-anchor="middle" font-family="Arial, Helvetica, sans-serif" font-size="21" font-weight="800" fill="white" stroke="#111" stroke-width="3" paint-order="stroke">70</text>
<circle cx="293.8" cy="422.9" r="20.4" fill="white" fill-opacity="0.84"/>
<circle cx="293.8" cy="422.9" r="17.4" fill="#7A3CE8" fill-opacity="0.66" stroke="#111" stroke-width="2.5"/>
<text x="293.8" y="429.9" text-anchor="middle" font-family="Arial, Helvetica, sans-serif" font-size="21" font-weight="800" fill="white" stroke="#111" stroke-width="3" paint-order="stroke">71</text>
<circle cx="252.2" cy="414.6" r="17.6" fill="white" fill-opacity="0.84"/>
<circle cx="252.2" cy="414.6" r="14.6" fill="#7A3CE8" fill-opacity="0.66" stroke="#111" stroke-width="2.5"/>
<text x="252.2" y="421.6" text-anchor="middle" font-family="Arial, Helvetica, sans-serif" font-size="21" font-weight="800" fill="white" stroke="#111" stroke-width="3" paint-order="stroke">72</text>
<circle cx="501.0" cy="391.8" r="22.4" fill="white" fill-opacity="0.84"/>
<circle cx="501.0" cy="391.8" r="19.4" fill="#7A3CE8" fill-opacity="0.66" stroke="#111" stroke-width="2.5"/>
<text x="501.0" y="398.8" text-anchor="middle" font-family="Arial, Helvetica, sans-serif" font-size="21" font-weight="800" fill="white" stroke="#111" stroke-width="3" paint-order="stroke">73</text>
<circle cx="558.6" cy="418.7" r="19.8" fill="white" fill-opacity="0.84"/>
<circle cx="558.6" cy="418.7" r="16.8" fill="#7A3CE8" fill-opacity="0.66" stroke="#111" stroke-width="2.5"/>
<text x="558.6" y="425.7" text-anchor="middle" font-family="Arial, Helvetica, sans-serif" font-size="21" font-weight="800" fill="white" stroke="#111" stroke-width="3" paint-order="stroke">74</text>
<circle cx="617.4" cy="456.6" r="19.6" fill="white" fill-opacity="0.84"/>
<circle cx="617.4" cy="456.6" r="16.6" fill="#7A3CE8" fill-opacity="0.66" stroke="#111" stroke-width="2.5"/>
<text x="617.4" y="463.6" text-anchor="middle" font-family="Arial, Helvetica, sans-serif" font-size="21" font-weight="800" fill="white" stroke="#111" stroke-width="3" paint-order="stroke">75</text>
<circle cx="279.2" cy="393.2" r="19.3" fill="white" fill-opacity="0.84"/>
<circle cx="279.2" cy="393.2" r="16.3" fill="#7A3CE8" fill-opacity="0.66" stroke="#111" stroke-width="2.5"/>
<text x="279.2" y="400.2" text-anchor="middle" font-family="Arial, Helvetica, sans-serif" font-size="21" font-weight="800" fill="white" stroke="#111" stroke-width="3" paint-order="stroke">76</text>
<circle cx="548.6" cy="399.1" r="16.6" fill="white" fill-opacity="0.84"/>
<circle cx="548.6" cy="399.1" r="13.6" fill="#7A3CE8" fill-opacity="0.66" stroke="#111" stroke-width="2.5"/>
<text x="548.6" y="406.1" text-anchor="middle" font-family="Arial, Helvetica, sans-serif" font-size="21" font-weight="800" fill="white" stroke="#111" stroke-width="3" paint-order="stroke">77</text>
<circle cx="810.1" cy="501.4" r="17.9" fill="white" fill-opacity="0.84"/>
<circle cx="810.1" cy="501.4" r="14.9" fill="#7A3CE8" fill-opacity="0.66" stroke="#111" stroke-width="2.5"/>
<text x="810.1" y="508.4" text-anchor="middle" font-family="Arial, Helvetica, sans-serif" font-size="21" font-weight="800" fill="white" stroke="#111" stroke-width="3" paint-order="stroke">78</text>
<circle cx="1111.2" cy="633.3" r="22.2" fill="white" fill-opacity="0.84"/>
<circle cx="1111.2" cy="633.3" r="19.2" fill="#7A3CE8" fill-opacity="0.66" stroke="#111" stroke-width="2.5"/>
<text x="1111.2" y="640.3" text-anchor="middle" font-family="Arial, Helvetica, sans-serif" font-size="21" font-weight="800" fill="white" stroke="#111" stroke-width="3" paint-order="stroke">79</text>
<circle cx="823.5" cy="572.7" r="19.2" fill="white" fill-opacity="0.84"/>
<circle cx="823.5" cy="572.7" r="16.2" fill="#7A3CE8" fill-opacity="0.66" stroke="#111" stroke-width="2.5"/>
<text x="823.5" y="579.7" text-anchor="middle" font-family="Arial, Helvetica, sans-serif" font-size="21" font-weight="800" fill="white" stroke="#111" stroke-width="3" paint-order="stroke">80</text>
<circle cx="714.6" cy="541.4" r="22.0" fill="white" fill-opacity="0.84"/>
<circle cx="714.6" cy="541.4" r="19.0" fill="#7A3CE8" fill-opacity="0.66" stroke="#111" stroke-width="2.5"/>
<text x="714.6" y="548.4" text-anchor="middle" font-family="Arial, Helvetica, sans-serif" font-size="21" font-weight="800" fill="white" stroke="#111" stroke-width="3" paint-order="stroke">81</text>
<circle cx="1041.0" cy="632.2" r="19.0" fill="white" fill-opacity="0.84"/>
<circle cx="1041.0" cy="632.2" r="16.0" fill="#7A3CE8" fill-opacity="0.66" stroke="#111" stroke-width="2.5"/>
<text x="1041.0" y="639.2" text-anchor="middle" font-family="Arial, Helvetica, sans-serif" font-size="21" font-weight="800" fill="white" stroke="#111" stroke-width="3" paint-order="stroke">82</text>
<circle cx="495.7" cy="489.9" r="18.8" fill="white" fill-opacity="0.84"/>
<circle cx="495.7" cy="489.9" r="15.8" fill="#7A3CE8" fill-opacity="0.66" stroke="#111" stroke-width="2.5"/>
<text x="495.7" y="496.9" text-anchor="middle" font-family="Arial, Helvetica, sans-serif" font-size="21" font-weight="800" fill="white" stroke="#111" stroke-width="3" paint-order="stroke">83</text>
<circle cx="1164.8" cy="712.9" r="17.9" fill="white" fill-opacity="0.84"/>
<circle cx="1164.8" cy="712.9" r="14.9" fill="#7A3CE8" fill-opacity="0.66" stroke="#111" stroke-width="2.5"/>
<text x="1164.8" y="719.9" text-anchor="middle" font-family="Arial, Helvetica, sans-serif" font-size="21" font-weight="800" fill="white" stroke="#111" stroke-width="3" paint-order="stroke">84</text>
<circle cx="429.3" cy="483.3" r="16.3" fill="white" fill-opacity="0.84"/>
<circle cx="429.3" cy="483.3" r="13.3" fill="#7A3CE8" fill-opacity="0.66" stroke="#111" stroke-width="2.5"/>
<text x="429.3" y="490.3" text-anchor="middle" font-family="Arial, Helvetica, sans-serif" font-size="21" font-weight="800" fill="white" stroke="#111" stroke-width="3" paint-order="stroke">85</text>
<circle cx="286.3" cy="431.5" r="19.1" fill="white" fill-opacity="0.84"/>
<circle cx="286.3" cy="431.5" r="16.1" fill="#7A3CE8" fill-opacity="0.66" stroke="#111" stroke-width="2.5"/>
<text x="286.3" y="438.5" text-anchor="middle" font-family="Arial, Helvetica, sans-serif" font-size="21" font-weight="800" fill="white" stroke="#111" stroke-width="3" paint-order="stroke">86</text>
<circle cx="535.2" cy="569.4" r="20.8" fill="white" fill-opacity="0.84"/>
<circle cx="535.2" cy="569.4" r="17.8" fill="#7A3CE8" fill-opacity="0.66" stroke="#111" stroke-width="2.5"/>
<text x="535.2" y="576.4" text-anchor="middle" font-family="Arial, Helvetica, sans-serif" font-size="21" font-weight="800" fill="white" stroke="#111" stroke-width="3" paint-order="stroke">87</text>
<circle cx="953.6" cy="616.1" r="17.2" fill="white" fill-opacity="0.84"/>
<circle cx="953.6" cy="616.1" r="14.2" fill="#7A3CE8" fill-opacity="0.66" stroke="#111" stroke-width="2.5"/>
<text x="953.6" y="623.1" text-anchor="middle" font-family="Arial, Helvetica, sans-serif" font-size="21" font-weight="800" fill="white" stroke="#111" stroke-width="3" paint-order="stroke">88</text>
<circle cx="1134.6" cy="639.8" r="18.7" fill="white" fill-opacity="0.84"/>
<circle cx="1134.6" cy="639.8" r="15.7" fill="#7A3CE8" fill-opacity="0.66" stroke="#111" stroke-width="2.5"/>
<text x="1134.6" y="646.8" text-anchor="middle" font-family="Arial, Helvetica, sans-serif" font-size="21" font-weight="800" fill="white" stroke="#111" stroke-width="3" paint-order="stroke">89</text>
<circle cx="1148.7" cy="686.3" r="24.9" fill="white" fill-opacity="0.84"/>
<circle cx="1148.7" cy="686.3" r="21.9" fill="#7A3CE8" fill-opacity="0.66" stroke="#111" stroke-width="2.5"/>
<text x="1148.7" y="693.3" text-anchor="middle" font-family="Arial, Helvetica, sans-serif" font-size="21" font-weight="800" fill="white" stroke="#111" stroke-width="3" paint-order="stroke">90</text>
<circle cx="1169.7" cy="735.7" r="21.8" fill="white" fill-opacity="0.84"/>
<circle cx="1169.7" cy="735.7" r="18.8" fill="#7A3CE8" fill-opacity="0.66" stroke="#111" stroke-width="2.5"/>
<text x="1169.7" y="742.7" text-anchor="middle" font-family="Arial, Helvetica, sans-serif" font-size="21" font-weight="800" fill="white" stroke="#111" stroke-width="3" paint-order="stroke">91</text>
<circle cx="1143.3" cy="624.7" r="22.6" fill="white" fill-opacity="0.84"/>
<circle cx="1143.3" cy="624.7" r="19.6" fill="#7A3CE8" fill-opacity="0.66" stroke="#111" stroke-width="2.5"/>
<text x="1143.3" y="631.7" text-anchor="middle" font-family="Arial, Helvetica, sans-serif" font-size="21" font-weight="800" fill="white" stroke="#111" stroke-width="3" paint-order="stroke">92</text>
<circle cx="1150.8" cy="644.9" r="19.4" fill="white" fill-opacity="0.84"/>
<circle cx="1150.8" cy="644.9" r="16.4" fill="#7A3CE8" fill-opacity="0.66" stroke="#111" stroke-width="2.5"/>
<text x="1150.8" y="651.9" text-anchor="middle" font-family="Arial, Helvetica, sans-serif" font-size="21" font-weight="800" fill="white" stroke="#111" stroke-width="3" paint-order="stroke">93</text>
<circle cx="1149.1" cy="681.0" r="26.1" fill="white" fill-opacity="0.84"/>
<circle cx="1149.1" cy="681.0" r="23.1" fill="#7A3CE8" fill-opacity="0.66" stroke="#111" stroke-width="2.5"/>
<text x="1149.1" y="688.0" text-anchor="middle" font-family="Arial, Helvetica, sans-serif" font-size="21" font-weight="800" fill="white" stroke="#111" stroke-width="3" paint-order="stroke">94</text>
<circle cx="865.1" cy="617.9" r="18.7" fill="white" fill-opacity="0.84"/>
<circle cx="865.1" cy="617.9" r="15.7" fill="#7A3CE8" fill-opacity="0.66" stroke="#111" stroke-width="2.5"/>
<text x="865.1" y="624.9" text-anchor="middle" font-family="Arial, Helvetica, sans-serif" font-size="21" font-weight="800" fill="white" stroke="#111" stroke-width="3" paint-order="stroke">95</text>
<circle cx="1136.8" cy="629.5" r="21.9" fill="white" fill-opacity="0.84"/>
<circle cx="1136.8" cy="629.5" r="18.9" fill="#7A3CE8" fill-opacity="0.66" stroke="#111" stroke-width="2.5"/>
<text x="1136.8" y="636.5" text-anchor="middle" font-family="Arial, Helvetica, sans-serif" font-size="21" font-weight="800" fill="white" stroke="#111" stroke-width="3" paint-order="stroke">96</text>
<rect x="16" y="1094" width="1120" height="168" rx="8" fill="white" fill-opacity="0.92" stroke="#111" stroke-opacity="0.22"/>
<text x="36.0" y="1128.0" font-family="Arial, Helvetica, sans-serif" font-size="24" font-weight="600" fill="#111">K07 / k07.asc block 27 | water-2-1-l.png | RT NA ms | 96 fixations</text>
<text x="36.0" y="1159.0" font-family="Arial, Helvetica, sans-serif" font-size="24" font-weight="600" fill="#111">numbers show fixation order; dot size shows fixation duration</text>
<circle cx="42" cy="1198" r="11" fill="#005DFF" fill-opacity="0.64" stroke="#111" stroke-width="2"/>
<text x="62.0" y="1206.0" font-family="Arial, Helvetica, sans-serif" font-size="22" font-weight="500" fill="#111">blue: before speech onset</text>
<circle cx="42" cy="1232" r="11" fill="#FF8A00" fill-opacity="0.64" stroke="#111" stroke-width="2"/>
<text x="62.0" y="1240.0" font-family="Arial, Helvetica, sans-serif" font-size="22" font-weight="500" fill="#111">orange: first 2000 ms after onset</text>
</svg>
