<svg xmlns="http://www.w3.org/2000/svg" width="1920" height="1320" viewBox="0 0 1920 1320">
<image href="https://raw.githubusercontent.com/mkurg/koryak/main/stimuli/Koryak%20stimuli%20animate%20inanimate/eat-1-2-l.png" x="0" y="0" width="1920" height="1080" preserveAspectRatio="none"/>
<rect x="0" y="0" width="1920" height="1080" fill="none" stroke="#111" stroke-width="2"/>
<rect x="0" y="1080" width="1920" height="240" fill="#f7f7f7"/>
<rect x="40.0" y="100.0" width="850" height="850" fill="none" stroke="#00B8D9" stroke-width="6" stroke-dasharray="18 12"/>
<rect x="52.0" y="62.0" width="102.0" height="38" rx="6" fill="white" fill-opacity="0.86" stroke="#00B8D9" stroke-width="3"/>
<text x="62.0" y="88.0" font-family="Arial, Helvetica, sans-serif" font-size="24" font-weight="700" fill="#111">AGENT</text>
<rect x="970.0" y="100.0" width="850" height="850" fill="none" stroke="#FF3B8A" stroke-width="6" stroke-dasharray="18 12"/>
<rect x="982.0" y="62.0" width="134.0" height="38" rx="6" fill="white" fill-opacity="0.86" stroke="#FF3B8A" stroke-width="3"/>
<text x="992.0" y="88.0" font-family="Arial, Helvetica, sans-serif" font-size="24" font-weight="700" fill="#111">PATIENT</text>
<polyline points="838.9,628.5 807.5,499.5 785.6,486.4 1125.3,657.5 1261.6,743.6 1230.6,793.8 752.3,481.3 799.1,483.5 729.9,487.6 780.5,467.9 799.8,474.8 820.7,488.0 772.3,490.3 766.9,708.2 806.4,713.0 794.4,451.3 806.3,471.0 773.7,482.3 812.9,457.4 765.6,460.2 841.4,471.1 777.2,473.3 833.7,477.2 1266.6,754.6 1220.6,823.2 1274.5,727.3 1486.8,736.1 1586.5,792.6 1490.4,833.0 1501.3,835.4 1489.7,828.8 1499.7,754.8 1469.6,733.6 1318.1,707.7 1253.7,749.3 1322.0,842.3 1074.7,668.3 845.9,508.2 818.2,460.4 764.0,456.5 828.2,464.5 738.1,491.5 776.6,493.4 697.9,632.3 699.1,734.7 788.6,449.4 822.4,463.7 783.2,469.4 843.1,475.7 812.9,524.8 1270.3,736.7 1208.0,758.0 1348.0,785.3 1602.6,788.8 1320.2,773.1" fill="none" stroke="#111" stroke-width="4" stroke-opacity="0.36" stroke-linejoin="round"/>
<circle cx="838.9" cy="628.5" r="15.7" fill="white" fill-opacity="0.84"/>
<circle cx="838.9" cy="628.5" r="12.7" fill="#005DFF" fill-opacity="0.66" stroke="#111" stroke-width="2.5"/>
<text x="838.9" y="635.5" text-anchor="middle" font-family="Arial, Helvetica, sans-serif" font-size="21" font-weight="800" fill="white" stroke="#111" stroke-width="3" paint-order="stroke">1</text>
<circle cx="807.5" cy="499.5" r="18.7" fill="white" fill-opacity="0.84"/>
<circle cx="807.5" cy="499.5" r="15.7" fill="#005DFF" fill-opacity="0.66" stroke="#111" stroke-width="2.5"/>
<text x="807.5" y="506.5" text-anchor="middle" font-family="Arial, Helvetica, sans-serif" font-size="21" font-weight="800" fill="white" stroke="#111" stroke-width="3" paint-order="stroke">2</text>
<circle cx="785.6" cy="486.4" r="18.1" fill="white" fill-opacity="0.84"/>
<circle cx="785.6" cy="486.4" r="15.1" fill="#005DFF" fill-opacity="0.66" stroke="#111" stroke-width="2.5"/>
<text x="785.6" y="493.4" text-anchor="middle" font-family="Arial, Helvetica, sans-serif" font-size="21" font-weight="800" fill="white" stroke="#111" stroke-width="3" paint-order="stroke">3</text>
<circle cx="1125.3" cy="657.5" r="16.4" fill="white" fill-opacity="0.84"/>
<circle cx="1125.3" cy="657.5" r="13.4" fill="#005DFF" fill-opacity="0.66" stroke="#111" stroke-width="2.5"/>
<text x="1125.3" y="664.5" text-anchor="middle" font-family="Arial, Helvetica, sans-serif" font-size="21" font-weight="800" fill="white" stroke="#111" stroke-width="3" paint-order="stroke">4</text>
<circle cx="1261.6" cy="743.6" r="20.4" fill="white" fill-opacity="0.84"/>
<circle cx="1261.6" cy="743.6" r="17.4" fill="#005DFF" fill-opacity="0.66" stroke="#111" stroke-width="2.5"/>
<text x="1261.6" y="750.6" text-anchor="middle" font-family="Arial, Helvetica, sans-serif" font-size="21" font-weight="800" fill="white" stroke="#111" stroke-width="3" paint-order="stroke">5</text>
<circle cx="1230.6" cy="793.8" r="18.5" fill="white" fill-opacity="0.84"/>
<circle cx="1230.6" cy="793.8" r="15.5" fill="#005DFF" fill-opacity="0.66" stroke="#111" stroke-width="2.5"/>
<text x="1230.6" y="800.8" text-anchor="middle" font-family="Arial, Helvetica, sans-serif" font-size="21" font-weight="800" fill="white" stroke="#111" stroke-width="3" paint-order="stroke">6</text>
<circle cx="752.3" cy="481.3" r="17.6" fill="white" fill-opacity="0.84"/>
<circle cx="752.3" cy="481.3" r="14.6" fill="#005DFF" fill-opacity="0.66" stroke="#111" stroke-width="2.5"/>
<text x="752.3" y="488.3" text-anchor="middle" font-family="Arial, Helvetica, sans-serif" font-size="21" font-weight="800" fill="white" stroke="#111" stroke-width="3" paint-order="stroke">7</text>
<circle cx="799.1" cy="483.5" r="20.0" fill="white" fill-opacity="0.84"/>
<circle cx="799.1" cy="483.5" r="17.0" fill="#005DFF" fill-opacity="0.66" stroke="#111" stroke-width="2.5"/>
<text x="799.1" y="490.5" text-anchor="middle" font-family="Arial, Helvetica, sans-serif" font-size="21" font-weight="800" fill="white" stroke="#111" stroke-width="3" paint-order="stroke">8</text>
<circle cx="729.9" cy="487.6" r="17.5" fill="white" fill-opacity="0.84"/>
<circle cx="729.9" cy="487.6" r="14.5" fill="#005DFF" fill-opacity="0.66" stroke="#111" stroke-width="2.5"/>
<text x="729.9" y="494.6" text-anchor="middle" font-family="Arial, Helvetica, sans-serif" font-size="21" font-weight="800" fill="white" stroke="#111" stroke-width="3" paint-order="stroke">9</text>
<circle cx="780.5" cy="467.9" r="17.5" fill="white" fill-opacity="0.84"/>
<circle cx="780.5" cy="467.9" r="14.5" fill="#005DFF" fill-opacity="0.66" stroke="#111" stroke-width="2.5"/>
<text x="780.5" y="474.9" text-anchor="middle" font-family="Arial, Helvetica, sans-serif" font-size="21" font-weight="800" fill="white" stroke="#111" stroke-width="3" paint-order="stroke">10</text>
<circle cx="799.8" cy="474.8" r="19.5" fill="white" fill-opacity="0.84"/>
<circle cx="799.8" cy="474.8" r="16.5" fill="#005DFF" fill-opacity="0.66" stroke="#111" stroke-width="2.5"/>
<text x="799.8" y="481.8" text-anchor="middle" font-family="Arial, Helvetica, sans-serif" font-size="21" font-weight="800" fill="white" stroke="#111" stroke-width="3" paint-order="stroke">11</text>
<circle cx="820.7" cy="488.0" r="19.5" fill="white" fill-opacity="0.84"/>
<circle cx="820.7" cy="488.0" r="16.5" fill="#005DFF" fill-opacity="0.66" stroke="#111" stroke-width="2.5"/>
<text x="820.7" y="495.0" text-anchor="middle" font-family="Arial, Helvetica, sans-serif" font-size="21" font-weight="800" fill="white" stroke="#111" stroke-width="3" paint-order="stroke">12</text>
<circle cx="772.3" cy="490.3" r="18.2" fill="white" fill-opacity="0.84"/>
<circle cx="772.3" cy="490.3" r="15.2" fill="#005DFF" fill-opacity="0.66" stroke="#111" stroke-width="2.5"/>
<text x="772.3" y="497.3" text-anchor="middle" font-family="Arial, Helvetica, sans-serif" font-size="21" font-weight="800" fill="white" stroke="#111" stroke-width="3" paint-order="stroke">13</text>
<circle cx="766.9" cy="708.2" r="21.0" fill="white" fill-opacity="0.84"/>
<circle cx="766.9" cy="708.2" r="18.0" fill="#005DFF" fill-opacity="0.66" stroke="#111" stroke-width="2.5"/>
<text x="766.9" y="715.2" text-anchor="middle" font-family="Arial, Helvetica, sans-serif" font-size="21" font-weight="800" fill="white" stroke="#111" stroke-width="3" paint-order="stroke">14</text>
<circle cx="806.4" cy="713.0" r="17.8" fill="white" fill-opacity="0.84"/>
<circle cx="806.4" cy="713.0" r="14.8" fill="#005DFF" fill-opacity="0.66" stroke="#111" stroke-width="2.5"/>
<text x="806.4" y="720.0" text-anchor="middle" font-family="Arial, Helvetica, sans-serif" font-size="21" font-weight="800" fill="white" stroke="#111" stroke-width="3" paint-order="stroke">15</text>
<circle cx="794.4" cy="451.3" r="18.0" fill="white" fill-opacity="0.84"/>
<circle cx="794.4" cy="451.3" r="15.0" fill="#005DFF" fill-opacity="0.66" stroke="#111" stroke-width="2.5"/>
<text x="794.4" y="458.3" text-anchor="middle" font-family="Arial, Helvetica, sans-serif" font-size="21" font-weight="800" fill="white" stroke="#111" stroke-width="3" paint-order="stroke">16</text>
<circle cx="806.3" cy="471.0" r="21.6" fill="white" fill-opacity="0.84"/>
<circle cx="806.3" cy="471.0" r="18.6" fill="#005DFF" fill-opacity="0.66" stroke="#111" stroke-width="2.5"/>
<text x="806.3" y="478.0" text-anchor="middle" font-family="Arial, Helvetica, sans-serif" font-size="21" font-weight="800" fill="white" stroke="#111" stroke-width="3" paint-order="stroke">17</text>
<circle cx="773.7" cy="482.3" r="20.2" fill="white" fill-opacity="0.84"/>
<circle cx="773.7" cy="482.3" r="17.2" fill="#005DFF" fill-opacity="0.66" stroke="#111" stroke-width="2.5"/>
<text x="773.7" y="489.3" text-anchor="middle" font-family="Arial, Helvetica, sans-serif" font-size="21" font-weight="800" fill="white" stroke="#111" stroke-width="3" paint-order="stroke">18</text>
<circle cx="812.9" cy="457.4" r="21.9" fill="white" fill-opacity="0.84"/>
<circle cx="812.9" cy="457.4" r="18.9" fill="#005DFF" fill-opacity="0.66" stroke="#111" stroke-width="2.5"/>
<text x="812.9" y="464.4" text-anchor="middle" font-family="Arial, Helvetica, sans-serif" font-size="21" font-weight="800" fill="white" stroke="#111" stroke-width="3" paint-order="stroke">19</text>
<circle cx="765.6" cy="460.2" r="17.5" fill="white" fill-opacity="0.84"/>
<circle cx="765.6" cy="460.2" r="14.5" fill="#005DFF" fill-opacity="0.66" stroke="#111" stroke-width="2.5"/>
<text x="765.6" y="467.2" text-anchor="middle" font-family="Arial, Helvetica, sans-serif" font-size="21" font-weight="800" fill="white" stroke="#111" stroke-width="3" paint-order="stroke">20</text>
<circle cx="841.4" cy="471.1" r="16.0" fill="white" fill-opacity="0.84"/>
<circle cx="841.4" cy="471.1" r="13.0" fill="#005DFF" fill-opacity="0.66" stroke="#111" stroke-width="2.5"/>
<text x="841.4" y="478.1" text-anchor="middle" font-family="Arial, Helvetica, sans-serif" font-size="21" font-weight="800" fill="white" stroke="#111" stroke-width="3" paint-order="stroke">21</text>
<circle cx="777.2" cy="473.3" r="20.2" fill="white" fill-opacity="0.84"/>
<circle cx="777.2" cy="473.3" r="17.2" fill="#005DFF" fill-opacity="0.66" stroke="#111" stroke-width="2.5"/>
<text x="777.2" y="480.3" text-anchor="middle" font-family="Arial, Helvetica, sans-serif" font-size="21" font-weight="800" fill="white" stroke="#111" stroke-width="3" paint-order="stroke">22</text>
<circle cx="833.7" cy="477.2" r="15.4" fill="white" fill-opacity="0.84"/>
<circle cx="833.7" cy="477.2" r="12.4" fill="#005DFF" fill-opacity="0.66" stroke="#111" stroke-width="2.5"/>
<text x="833.7" y="484.2" text-anchor="middle" font-family="Arial, Helvetica, sans-serif" font-size="21" font-weight="800" fill="white" stroke="#111" stroke-width="3" paint-order="stroke">23</text>
<circle cx="1266.6" cy="754.6" r="20.1" fill="white" fill-opacity="0.84"/>
<circle cx="1266.6" cy="754.6" r="17.1" fill="#005DFF" fill-opacity="0.66" stroke="#111" stroke-width="2.5"/>
<text x="1266.6" y="761.6" text-anchor="middle" font-family="Arial, Helvetica, sans-serif" font-size="21" font-weight="800" fill="white" stroke="#111" stroke-width="3" paint-order="stroke">24</text>
<circle cx="1220.6" cy="823.2" r="18.1" fill="white" fill-opacity="0.84"/>
<circle cx="1220.6" cy="823.2" r="15.1" fill="#005DFF" fill-opacity="0.66" stroke="#111" stroke-width="2.5"/>
<text x="1220.6" y="830.2" text-anchor="middle" font-family="Arial, Helvetica, sans-serif" font-size="21" font-weight="800" fill="white" stroke="#111" stroke-width="3" paint-order="stroke">25</text>
<circle cx="1274.5" cy="727.3" r="19.3" fill="white" fill-opacity="0.84"/>
<circle cx="1274.5" cy="727.3" r="16.3" fill="#005DFF" fill-opacity="0.66" stroke="#111" stroke-width="2.5"/>
<text x="1274.5" y="734.3" text-anchor="middle" font-family="Arial, Helvetica, sans-serif" font-size="21" font-weight="800" fill="white" stroke="#111" stroke-width="3" paint-order="stroke">26</text>
<circle cx="1486.8" cy="736.1" r="22.3" fill="white" fill-opacity="0.84"/>
<circle cx="1486.8" cy="736.1" r="19.3" fill="#005DFF" fill-opacity="0.66" stroke="#111" stroke-width="2.5"/>
<text x="1486.8" y="743.1" text-anchor="middle" font-family="Arial, Helvetica, sans-serif" font-size="21" font-weight="800" fill="white" stroke="#111" stroke-width="3" paint-order="stroke">27</text>
<circle cx="1586.5" cy="792.6" r="18.1" fill="white" fill-opacity="0.84"/>
<circle cx="1586.5" cy="792.6" r="15.1" fill="#005DFF" fill-opacity="0.66" stroke="#111" stroke-width="2.5"/>
<text x="1586.5" y="799.6" text-anchor="middle" font-family="Arial, Helvetica, sans-serif" font-size="21" font-weight="800" fill="white" stroke="#111" stroke-width="3" paint-order="stroke">28</text>
<circle cx="1490.4" cy="833.0" r="14.2" fill="white" fill-opacity="0.84"/>
<circle cx="1490.4" cy="833.0" r="11.2" fill="#005DFF" fill-opacity="0.66" stroke="#111" stroke-width="2.5"/>
<text x="1490.4" y="840.0" text-anchor="middle" font-family="Arial, Helvetica, sans-serif" font-size="21" font-weight="800" fill="white" stroke="#111" stroke-width="3" paint-order="stroke">29</text>
<circle cx="1501.3" cy="835.4" r="13.9" fill="white" fill-opacity="0.84"/>
<circle cx="1501.3" cy="835.4" r="10.9" fill="#005DFF" fill-opacity="0.66" stroke="#111" stroke-width="2.5"/>
<text x="1501.3" y="842.4" text-anchor="middle" font-family="Arial, Helvetica, sans-serif" font-size="21" font-weight="800" fill="white" stroke="#111" stroke-width="3" paint-order="stroke">30</text>
<circle cx="1489.7" cy="828.8" r="14.0" fill="white" fill-opacity="0.84"/>
<circle cx="1489.7" cy="828.8" r="11.0" fill="#005DFF" fill-opacity="0.66" stroke="#111" stroke-width="2.5"/>
<text x="1489.7" y="835.8" text-anchor="middle" font-family="Arial, Helvetica, sans-serif" font-size="21" font-weight="800" fill="white" stroke="#111" stroke-width="3" paint-order="stroke">31</text>
<circle cx="1499.7" cy="754.8" r="20.8" fill="white" fill-opacity="0.84"/>
<circle cx="1499.7" cy="754.8" r="17.8" fill="#005DFF" fill-opacity="0.66" stroke="#111" stroke-width="2.5"/>
<text x="1499.7" y="761.8" text-anchor="middle" font-family="Arial, Helvetica, sans-serif" font-size="21" font-weight="800" fill="white" stroke="#111" stroke-width="3" paint-order="stroke">32</text>
<circle cx="1469.6" cy="733.6" r="12.3" fill="white" fill-opacity="0.84"/>
<circle cx="1469.6" cy="733.6" r="9.3" fill="#005DFF" fill-opacity="0.66" stroke="#111" stroke-width="2.5"/>
<text x="1469.6" y="740.6" text-anchor="middle" font-family="Arial, Helvetica, sans-serif" font-size="21" font-weight="800" fill="white" stroke="#111" stroke-width="3" paint-order="stroke">33</text>
<circle cx="1318.1" cy="707.7" r="17.6" fill="white" fill-opacity="0.84"/>
<circle cx="1318.1" cy="707.7" r="14.6" fill="#005DFF" fill-opacity="0.66" stroke="#111" stroke-width="2.5"/>
<text x="1318.1" y="714.7" text-anchor="middle" font-family="Arial, Helvetica, sans-serif" font-size="21" font-weight="800" fill="white" stroke="#111" stroke-width="3" paint-order="stroke">34</text>
<circle cx="1253.7" cy="749.3" r="18.0" fill="white" fill-opacity="0.84"/>
<circle cx="1253.7" cy="749.3" r="15.0" fill="#005DFF" fill-opacity="0.66" stroke="#111" stroke-width="2.5"/>
<text x="1253.7" y="756.3" text-anchor="middle" font-family="Arial, Helvetica, sans-serif" font-size="21" font-weight="800" fill="white" stroke="#111" stroke-width="3" paint-order="stroke">35</text>
<circle cx="1322.0" cy="842.3" r="23.5" fill="white" fill-opacity="0.84"/>
<circle cx="1322.0" cy="842.3" r="20.5" fill="#005DFF" fill-opacity="0.66" stroke="#111" stroke-width="2.5"/>
<text x="1322.0" y="849.3" text-anchor="middle" font-family="Arial, Helvetica, sans-serif" font-size="21" font-weight="800" fill="white" stroke="#111" stroke-width="3" paint-order="stroke">36</text>
<circle cx="1074.7" cy="668.3" r="14.2" fill="white" fill-opacity="0.84"/>
<circle cx="1074.7" cy="668.3" r="11.2" fill="#005DFF" fill-opacity="0.66" stroke="#111" stroke-width="2.5"/>
<text x="1074.7" y="675.3" text-anchor="middle" font-family="Arial, Helvetica, sans-serif" font-size="21" font-weight="800" fill="white" stroke="#111" stroke-width="3" paint-order="stroke">37</text>
<circle cx="845.9" cy="508.2" r="17.1" fill="white" fill-opacity="0.84"/>
<circle cx="845.9" cy="508.2" r="14.1" fill="#005DFF" fill-opacity="0.66" stroke="#111" stroke-width="2.5"/>
<text x="845.9" y="515.2" text-anchor="middle" font-family="Arial, Helvetica, sans-serif" font-size="21" font-weight="800" fill="white" stroke="#111" stroke-width="3" paint-order="stroke">38</text>
<circle cx="818.2" cy="460.4" r="20.0" fill="white" fill-opacity="0.84"/>
<circle cx="818.2" cy="460.4" r="17.0" fill="#005DFF" fill-opacity="0.66" stroke="#111" stroke-width="2.5"/>
<text x="818.2" y="467.4" text-anchor="middle" font-family="Arial, Helvetica, sans-serif" font-size="21" font-weight="800" fill="white" stroke="#111" stroke-width="3" paint-order="stroke">39</text>
<circle cx="764.0" cy="456.5" r="17.8" fill="white" fill-opacity="0.84"/>
<circle cx="764.0" cy="456.5" r="14.8" fill="#005DFF" fill-opacity="0.66" stroke="#111" stroke-width="2.5"/>
<text x="764.0" y="463.5" text-anchor="middle" font-family="Arial, Helvetica, sans-serif" font-size="21" font-weight="800" fill="white" stroke="#111" stroke-width="3" paint-order="stroke">40</text>
<circle cx="828.2" cy="464.5" r="18.3" fill="white" fill-opacity="0.84"/>
<circle cx="828.2" cy="464.5" r="15.3" fill="#005DFF" fill-opacity="0.66" stroke="#111" stroke-width="2.5"/>
<text x="828.2" y="471.5" text-anchor="middle" font-family="Arial, Helvetica, sans-serif" font-size="21" font-weight="800" fill="white" stroke="#111" stroke-width="3" paint-order="stroke">41</text>
<circle cx="738.1" cy="491.5" r="19.6" fill="white" fill-opacity="0.84"/>
<circle cx="738.1" cy="491.5" r="16.6" fill="#005DFF" fill-opacity="0.66" stroke="#111" stroke-width="2.5"/>
<text x="738.1" y="498.5" text-anchor="middle" font-family="Arial, Helvetica, sans-serif" font-size="21" font-weight="800" fill="white" stroke="#111" stroke-width="3" paint-order="stroke">42</text>
<circle cx="776.6" cy="493.4" r="17.4" fill="white" fill-opacity="0.84"/>
<circle cx="776.6" cy="493.4" r="14.4" fill="#005DFF" fill-opacity="0.66" stroke="#111" stroke-width="2.5"/>
<text x="776.6" y="500.4" text-anchor="middle" font-family="Arial, Helvetica, sans-serif" font-size="21" font-weight="800" fill="white" stroke="#111" stroke-width="3" paint-order="stroke">43</text>
<circle cx="697.9" cy="632.3" r="18.1" fill="white" fill-opacity="0.84"/>
<circle cx="697.9" cy="632.3" r="15.1" fill="#005DFF" fill-opacity="0.66" stroke="#111" stroke-width="2.5"/>
<text x="697.9" y="639.3" text-anchor="middle" font-family="Arial, Helvetica, sans-serif" font-size="21" font-weight="800" fill="white" stroke="#111" stroke-width="3" paint-order="stroke">44</text>
<circle cx="699.1" cy="734.7" r="21.7" fill="white" fill-opacity="0.84"/>
<circle cx="699.1" cy="734.7" r="18.7" fill="#005DFF" fill-opacity="0.66" stroke="#111" stroke-width="2.5"/>
<text x="699.1" y="741.7" text-anchor="middle" font-family="Arial, Helvetica, sans-serif" font-size="21" font-weight="800" fill="white" stroke="#111" stroke-width="3" paint-order="stroke">45</text>
<circle cx="788.6" cy="449.4" r="18.4" fill="white" fill-opacity="0.84"/>
<circle cx="788.6" cy="449.4" r="15.4" fill="#005DFF" fill-opacity="0.66" stroke="#111" stroke-width="2.5"/>
<text x="788.6" y="456.4" text-anchor="middle" font-family="Arial, Helvetica, sans-serif" font-size="21" font-weight="800" fill="white" stroke="#111" stroke-width="3" paint-order="stroke">46</text>
<circle cx="822.4" cy="463.7" r="20.2" fill="white" fill-opacity="0.84"/>
<circle cx="822.4" cy="463.7" r="17.2" fill="#005DFF" fill-opacity="0.66" stroke="#111" stroke-width="2.5"/>
<text x="822.4" y="470.7" text-anchor="middle" font-family="Arial, Helvetica, sans-serif" font-size="21" font-weight="800" fill="white" stroke="#111" stroke-width="3" paint-order="stroke">47</text>
<circle cx="783.2" cy="469.4" r="20.4" fill="white" fill-opacity="0.84"/>
<circle cx="783.2" cy="469.4" r="17.4" fill="#005DFF" fill-opacity="0.66" stroke="#111" stroke-width="2.5"/>
<text x="783.2" y="476.4" text-anchor="middle" font-family="Arial, Helvetica, sans-serif" font-size="21" font-weight="800" fill="white" stroke="#111" stroke-width="3" paint-order="stroke">48</text>
<circle cx="843.1" cy="475.7" r="20.8" fill="white" fill-opacity="0.84"/>
<circle cx="843.1" cy="475.7" r="17.8" fill="#005DFF" fill-opacity="0.66" stroke="#111" stroke-width="2.5"/>
<text x="843.1" y="482.7" text-anchor="middle" font-family="Arial, Helvetica, sans-serif" font-size="21" font-weight="800" fill="white" stroke="#111" stroke-width="3" paint-order="stroke">49</text>
<circle cx="812.9" cy="524.8" r="13.9" fill="white" fill-opacity="0.84"/>
<circle cx="812.9" cy="524.8" r="10.9" fill="#FF8A00" fill-opacity="0.66" stroke="#111" stroke-width="2.5"/>
<text x="812.9" y="531.8" text-anchor="middle" font-family="Arial, Helvetica, sans-serif" font-size="21" font-weight="800" fill="white" stroke="#111" stroke-width="3" paint-order="stroke">50</text>
<circle cx="1270.3" cy="736.7" r="20.4" fill="white" fill-opacity="0.84"/>
<circle cx="1270.3" cy="736.7" r="17.4" fill="#FF8A00" fill-opacity="0.66" stroke="#111" stroke-width="2.5"/>
<text x="1270.3" y="743.7" text-anchor="middle" font-family="Arial, Helvetica, sans-serif" font-size="21" font-weight="800" fill="white" stroke="#111" stroke-width="3" paint-order="stroke">51</text>
<circle cx="1208.0" cy="758.0" r="14.7" fill="white" fill-opacity="0.84"/>
<circle cx="1208.0" cy="758.0" r="11.7" fill="#FF8A00" fill-opacity="0.66" stroke="#111" stroke-width="2.5"/>
<text x="1208.0" y="765.0" text-anchor="middle" font-family="Arial, Helvetica, sans-serif" font-size="21" font-weight="800" fill="white" stroke="#111" stroke-width="3" paint-order="stroke">52</text>
<circle cx="1348.0" cy="785.3" r="19.7" fill="white" fill-opacity="0.84"/>
<circle cx="1348.0" cy="785.3" r="16.7" fill="#FF8A00" fill-opacity="0.66" stroke="#111" stroke-width="2.5"/>
<text x="1348.0" y="792.3" text-anchor="middle" font-family="Arial, Helvetica, sans-serif" font-size="21" font-weight="800" fill="white" stroke="#111" stroke-width="3" paint-order="stroke">53</text>
<circle cx="1602.6" cy="788.8" r="19.1" fill="white" fill-opacity="0.84"/>
<circle cx="1602.6" cy="788.8" r="16.1" fill="#FF8A00" fill-opacity="0.66" stroke="#111" stroke-width="2.5"/>
<text x="1602.6" y="795.8" text-anchor="middle" font-family="Arial, Helvetica, sans-serif" font-size="21" font-weight="800" fill="white" stroke="#111" stroke-width="3" paint-order="stroke">54</text>
<circle cx="1320.2" cy="773.1" r="18.4" fill="white" fill-opacity="0.84"/>
<circle cx="1320.2" cy="773.1" r="15.4" fill="#FF8A00" fill-opacity="0.66" stroke="#111" stroke-width="2.5"/>
<text x="1320.2" y="780.1" text-anchor="middle" font-family="Arial, Helvetica, sans-serif" font-size="21" font-weight="800" fill="white" stroke="#111" stroke-width="3" paint-order="stroke">55</text>
<rect x="16" y="1094" width="1120" height="168" rx="8" fill="white" fill-opacity="0.92" stroke="#111" stroke-opacity="0.22"/>
<text x="36.0" y="1128.0" font-family="Arial, Helvetica, sans-serif" font-size="24" font-weight="600" fill="#111">K16 / k16_2.asc block 7 | eat-1-2-l.png | RT 18223 ms | 55 fixations</text>
<text x="36.0" y="1159.0" font-family="Arial, Helvetica, sans-serif" font-size="24" font-weight="600" fill="#111">numbers show fixation order; dot size shows fixation duration</text>
<circle cx="42" cy="1198" r="11" fill="#005DFF" fill-opacity="0.64" stroke="#111" stroke-width="2"/>
<text x="62.0" y="1206.0" font-family="Arial, Helvetica, sans-serif" font-size="22" font-weight="500" fill="#111">blue: before speech onset</text>
<circle cx="42" cy="1232" r="11" fill="#FF8A00" fill-opacity="0.64" stroke="#111" stroke-width="2"/>
<text x="62.0" y="1240.0" font-family="Arial, Helvetica, sans-serif" font-size="22" font-weight="500" fill="#111">orange: first 2000 ms after onset</text>
</svg>
