<svg xmlns="http://www.w3.org/2000/svg" width="1920" height="1320" viewBox="0 0 1920 1320">
<image href="../../../../stimuli/Koryak%20stimuli%20animate%20inanimate/clean-2-1-l.png" x="0" y="0" width="1920" height="1080" preserveAspectRatio="none"/>
<rect x="0" y="0" width="1920" height="1080" fill="none" stroke="#111" stroke-width="2"/>
<rect x="0" y="1080" width="1920" height="240" fill="#f7f7f7"/>
<rect x="40.0" y="100.0" width="850" height="850" fill="none" stroke="#00B8D9" stroke-width="6" stroke-dasharray="18 12"/>
<rect x="52.0" y="62.0" width="102.0" height="38" rx="6" fill="white" fill-opacity="0.86" stroke="#00B8D9" stroke-width="3"/>
<text x="62.0" y="88.0" font-family="Arial, Helvetica, sans-serif" font-size="24" font-weight="700" fill="#111">AGENT</text>
<rect x="970.0" y="100.0" width="850" height="850" fill="none" stroke="#FF3B8A" stroke-width="6" stroke-dasharray="18 12"/>
<rect x="982.0" y="62.0" width="134.0" height="38" rx="6" fill="white" fill-opacity="0.86" stroke="#FF3B8A" stroke-width="3"/>
<text x="992.0" y="88.0" font-family="Arial, Helvetica, sans-serif" font-size="24" font-weight="700" fill="#111">PATIENT</text>
<polyline points="639.8,372.7 634.2,446.9 819.4,462.0 1157.9,418.2 1171.0,438.8 1179.3,475.7 622.8,469.9 598.1,490.6 633.9,457.0 816.0,473.0 862.4,473.3 1145.3,457.6 1206.0,440.6 1177.6,418.8 1104.8,468.9 1200.1,464.9 1178.8,403.1 1204.2,406.0 1153.6,347.3 1190.3,463.9 1198.8,461.2 1182.6,474.3 1197.2,490.2 1176.2,310.5 1241.8,402.3" fill="none" stroke="#111" stroke-width="4" stroke-opacity="0.36" stroke-linejoin="round"/>
<circle cx="639.8" cy="372.7" r="17.6" fill="white" fill-opacity="0.84"/>
<circle cx="639.8" cy="372.7" r="14.6" fill="#7A3CE8" fill-opacity="0.66" stroke="#111" stroke-width="2.5"/>
<text x="639.8" y="379.7" text-anchor="middle" font-family="Arial, Helvetica, sans-serif" font-size="21" font-weight="800" fill="white" stroke="#111" stroke-width="3" paint-order="stroke">1</text>
<circle cx="634.2" cy="446.9" r="15.3" fill="white" fill-opacity="0.84"/>
<circle cx="634.2" cy="446.9" r="12.3" fill="#7A3CE8" fill-opacity="0.66" stroke="#111" stroke-width="2.5"/>
<text x="634.2" y="453.9" text-anchor="middle" font-family="Arial, Helvetica, sans-serif" font-size="21" font-weight="800" fill="white" stroke="#111" stroke-width="3" paint-order="stroke">2</text>
<circle cx="819.4" cy="462.0" r="17.3" fill="white" fill-opacity="0.84"/>
<circle cx="819.4" cy="462.0" r="14.3" fill="#7A3CE8" fill-opacity="0.66" stroke="#111" stroke-width="2.5"/>
<text x="819.4" y="469.0" text-anchor="middle" font-family="Arial, Helvetica, sans-serif" font-size="21" font-weight="800" fill="white" stroke="#111" stroke-width="3" paint-order="stroke">3</text>
<circle cx="1157.9" cy="418.2" r="17.6" fill="white" fill-opacity="0.84"/>
<circle cx="1157.9" cy="418.2" r="14.6" fill="#7A3CE8" fill-opacity="0.66" stroke="#111" stroke-width="2.5"/>
<text x="1157.9" y="425.2" text-anchor="middle" font-family="Arial, Helvetica, sans-serif" font-size="21" font-weight="800" fill="white" stroke="#111" stroke-width="3" paint-order="stroke">4</text>
<circle cx="1171.0" cy="438.8" r="18.1" fill="white" fill-opacity="0.84"/>
<circle cx="1171.0" cy="438.8" r="15.1" fill="#7A3CE8" fill-opacity="0.66" stroke="#111" stroke-width="2.5"/>
<text x="1171.0" y="445.8" text-anchor="middle" font-family="Arial, Helvetica, sans-serif" font-size="21" font-weight="800" fill="white" stroke="#111" stroke-width="3" paint-order="stroke">5</text>
<circle cx="1179.3" cy="475.7" r="16.4" fill="white" fill-opacity="0.84"/>
<circle cx="1179.3" cy="475.7" r="13.4" fill="#7A3CE8" fill-opacity="0.66" stroke="#111" stroke-width="2.5"/>
<text x="1179.3" y="482.7" text-anchor="middle" font-family="Arial, Helvetica, sans-serif" font-size="21" font-weight="800" fill="white" stroke="#111" stroke-width="3" paint-order="stroke">6</text>
<circle cx="622.8" cy="469.9" r="18.5" fill="white" fill-opacity="0.84"/>
<circle cx="622.8" cy="469.9" r="15.5" fill="#7A3CE8" fill-opacity="0.66" stroke="#111" stroke-width="2.5"/>
<text x="622.8" y="476.9" text-anchor="middle" font-family="Arial, Helvetica, sans-serif" font-size="21" font-weight="800" fill="white" stroke="#111" stroke-width="3" paint-order="stroke">7</text>
<circle cx="598.1" cy="490.6" r="18.1" fill="white" fill-opacity="0.84"/>
<circle cx="598.1" cy="490.6" r="15.1" fill="#7A3CE8" fill-opacity="0.66" stroke="#111" stroke-width="2.5"/>
<text x="598.1" y="497.6" text-anchor="middle" font-family="Arial, Helvetica, sans-serif" font-size="21" font-weight="800" fill="white" stroke="#111" stroke-width="3" paint-order="stroke">8</text>
<circle cx="633.9" cy="457.0" r="19.1" fill="white" fill-opacity="0.84"/>
<circle cx="633.9" cy="457.0" r="16.1" fill="#7A3CE8" fill-opacity="0.66" stroke="#111" stroke-width="2.5"/>
<text x="633.9" y="464.0" text-anchor="middle" font-family="Arial, Helvetica, sans-serif" font-size="21" font-weight="800" fill="white" stroke="#111" stroke-width="3" paint-order="stroke">9</text>
<circle cx="816.0" cy="473.0" r="17.2" fill="white" fill-opacity="0.84"/>
<circle cx="816.0" cy="473.0" r="14.2" fill="#7A3CE8" fill-opacity="0.66" stroke="#111" stroke-width="2.5"/>
<text x="816.0" y="480.0" text-anchor="middle" font-family="Arial, Helvetica, sans-serif" font-size="21" font-weight="800" fill="white" stroke="#111" stroke-width="3" paint-order="stroke">10</text>
<circle cx="862.4" cy="473.3" r="16.9" fill="white" fill-opacity="0.84"/>
<circle cx="862.4" cy="473.3" r="13.9" fill="#7A3CE8" fill-opacity="0.66" stroke="#111" stroke-width="2.5"/>
<text x="862.4" y="480.3" text-anchor="middle" font-family="Arial, Helvetica, sans-serif" font-size="21" font-weight="800" fill="white" stroke="#111" stroke-width="3" paint-order="stroke">11</text>
<circle cx="1145.3" cy="457.6" r="19.0" fill="white" fill-opacity="0.84"/>
<circle cx="1145.3" cy="457.6" r="16.0" fill="#7A3CE8" fill-opacity="0.66" stroke="#111" stroke-width="2.5"/>
<text x="1145.3" y="464.6" text-anchor="middle" font-family="Arial, Helvetica, sans-serif" font-size="21" font-weight="800" fill="white" stroke="#111" stroke-width="3" paint-order="stroke">12</text>
<circle cx="1206.0" cy="440.6" r="24.4" fill="white" fill-opacity="0.84"/>
<circle cx="1206.0" cy="440.6" r="21.4" fill="#7A3CE8" fill-opacity="0.66" stroke="#111" stroke-width="2.5"/>
<text x="1206.0" y="447.6" text-anchor="middle" font-family="Arial, Helvetica, sans-serif" font-size="21" font-weight="800" fill="white" stroke="#111" stroke-width="3" paint-order="stroke">13</text>
<circle cx="1177.6" cy="418.8" r="17.7" fill="white" fill-opacity="0.84"/>
<circle cx="1177.6" cy="418.8" r="14.7" fill="#7A3CE8" fill-opacity="0.66" stroke="#111" stroke-width="2.5"/>
<text x="1177.6" y="425.8" text-anchor="middle" font-family="Arial, Helvetica, sans-serif" font-size="21" font-weight="800" fill="white" stroke="#111" stroke-width="3" paint-order="stroke">14</text>
<circle cx="1104.8" cy="468.9" r="18.0" fill="white" fill-opacity="0.84"/>
<circle cx="1104.8" cy="468.9" r="15.0" fill="#7A3CE8" fill-opacity="0.66" stroke="#111" stroke-width="2.5"/>
<text x="1104.8" y="475.9" text-anchor="middle" font-family="Arial, Helvetica, sans-serif" font-size="21" font-weight="800" fill="white" stroke="#111" stroke-width="3" paint-order="stroke">15</text>
<circle cx="1200.1" cy="464.9" r="19.6" fill="white" fill-opacity="0.84"/>
<circle cx="1200.1" cy="464.9" r="16.6" fill="#7A3CE8" fill-opacity="0.66" stroke="#111" stroke-width="2.5"/>
<text x="1200.1" y="471.9" text-anchor="middle" font-family="Arial, Helvetica, sans-serif" font-size="21" font-weight="800" fill="white" stroke="#111" stroke-width="3" paint-order="stroke">16</text>
<circle cx="1178.8" cy="403.1" r="19.9" fill="white" fill-opacity="0.84"/>
<circle cx="1178.8" cy="403.1" r="16.9" fill="#7A3CE8" fill-opacity="0.66" stroke="#111" stroke-width="2.5"/>
<text x="1178.8" y="410.1" text-anchor="middle" font-family="Arial, Helvetica, sans-serif" font-size="21" font-weight="800" fill="white" stroke="#111" stroke-width="3" paint-order="stroke">17</text>
<circle cx="1204.2" cy="406.0" r="19.7" fill="white" fill-opacity="0.84"/>
<circle cx="1204.2" cy="406.0" r="16.7" fill="#7A3CE8" fill-opacity="0.66" stroke="#111" stroke-width="2.5"/>
<text x="1204.2" y="413.0" text-anchor="middle" font-family="Arial, Helvetica, sans-serif" font-size="21" font-weight="800" fill="white" stroke="#111" stroke-width="3" paint-order="stroke">18</text>
<circle cx="1153.6" cy="347.3" r="25.0" fill="white" fill-opacity="0.84"/>
<circle cx="1153.6" cy="347.3" r="22.0" fill="#7A3CE8" fill-opacity="0.66" stroke="#111" stroke-width="2.5"/>
<text x="1153.6" y="354.3" text-anchor="middle" font-family="Arial, Helvetica, sans-serif" font-size="21" font-weight="800" fill="white" stroke="#111" stroke-width="3" paint-order="stroke">19</text>
<circle cx="1190.3" cy="463.9" r="17.9" fill="white" fill-opacity="0.84"/>
<circle cx="1190.3" cy="463.9" r="14.9" fill="#7A3CE8" fill-opacity="0.66" stroke="#111" stroke-width="2.5"/>
<text x="1190.3" y="470.9" text-anchor="middle" font-family="Arial, Helvetica, sans-serif" font-size="21" font-weight="800" fill="white" stroke="#111" stroke-width="3" paint-order="stroke">20</text>
<circle cx="1198.8" cy="461.2" r="13.9" fill="white" fill-opacity="0.84"/>
<circle cx="1198.8" cy="461.2" r="10.9" fill="#7A3CE8" fill-opacity="0.66" stroke="#111" stroke-width="2.5"/>
<text x="1198.8" y="468.2" text-anchor="middle" font-family="Arial, Helvetica, sans-serif" font-size="21" font-weight="800" fill="white" stroke="#111" stroke-width="3" paint-order="stroke">21</text>
<circle cx="1182.6" cy="474.3" r="16.1" fill="white" fill-opacity="0.84"/>
<circle cx="1182.6" cy="474.3" r="13.1" fill="#7A3CE8" fill-opacity="0.66" stroke="#111" stroke-width="2.5"/>
<text x="1182.6" y="481.3" text-anchor="middle" font-family="Arial, Helvetica, sans-serif" font-size="21" font-weight="800" fill="white" stroke="#111" stroke-width="3" paint-order="stroke">22</text>
<circle cx="1197.2" cy="490.2" r="22.3" fill="white" fill-opacity="0.84"/>
<circle cx="1197.2" cy="490.2" r="19.3" fill="#7A3CE8" fill-opacity="0.66" stroke="#111" stroke-width="2.5"/>
<text x="1197.2" y="497.2" text-anchor="middle" font-family="Arial, Helvetica, sans-serif" font-size="21" font-weight="800" fill="white" stroke="#111" stroke-width="3" paint-order="stroke">23</text>
<circle cx="1176.2" cy="310.5" r="16.5" fill="white" fill-opacity="0.84"/>
<circle cx="1176.2" cy="310.5" r="13.5" fill="#7A3CE8" fill-opacity="0.66" stroke="#111" stroke-width="2.5"/>
<text x="1176.2" y="317.5" text-anchor="middle" font-family="Arial, Helvetica, sans-serif" font-size="21" font-weight="800" fill="white" stroke="#111" stroke-width="3" paint-order="stroke">24</text>
<circle cx="1241.8" cy="402.3" r="18.7" fill="white" fill-opacity="0.84"/>
<circle cx="1241.8" cy="402.3" r="15.7" fill="#7A3CE8" fill-opacity="0.66" stroke="#111" stroke-width="2.5"/>
<text x="1241.8" y="409.3" text-anchor="middle" font-family="Arial, Helvetica, sans-serif" font-size="21" font-weight="800" fill="white" stroke="#111" stroke-width="3" paint-order="stroke">25</text>
<rect x="16" y="1094" width="1120" height="168" rx="8" fill="white" fill-opacity="0.92" stroke="#111" stroke-opacity="0.22"/>
<text x="36.0" y="1128.0" font-family="Arial, Helvetica, sans-serif" font-size="24" font-weight="600" fill="#111">K04 / k04.asc block 46 | clean-2-1-l.png | RT NA ms | 25 fixations</text>
<text x="36.0" y="1159.0" font-family="Arial, Helvetica, sans-serif" font-size="24" font-weight="600" fill="#111">numbers show fixation order; dot size shows fixation duration</text>
<circle cx="42" cy="1198" r="11" fill="#005DFF" fill-opacity="0.64" stroke="#111" stroke-width="2"/>
<text x="62.0" y="1206.0" font-family="Arial, Helvetica, sans-serif" font-size="22" font-weight="500" fill="#111">blue: before speech onset</text>
<circle cx="42" cy="1232" r="11" fill="#FF8A00" fill-opacity="0.64" stroke="#111" stroke-width="2"/>
<text x="62.0" y="1240.0" font-family="Arial, Helvetica, sans-serif" font-size="22" font-weight="500" fill="#111">orange: first 2000 ms after onset</text>
</svg>
