<svg xmlns="http://www.w3.org/2000/svg" width="1920" height="1320" viewBox="0 0 1920 1320">
<image href="../../../../stimuli/Koryak%20stimuli%20animate%20inanimate/clean-2-2-r.png" x="0" y="0" width="1920" height="1080" preserveAspectRatio="none"/>
<rect x="0" y="0" width="1920" height="1080" fill="none" stroke="#111" stroke-width="2"/>
<rect x="0" y="1080" width="1920" height="240" fill="#f7f7f7"/>
<rect x="970.0" y="100.0" width="850" height="850" fill="none" stroke="#00B8D9" stroke-width="6" stroke-dasharray="18 12"/>
<rect x="982.0" y="62.0" width="102.0" height="38" rx="6" fill="white" fill-opacity="0.86" stroke="#00B8D9" stroke-width="3"/>
<text x="992.0" y="88.0" font-family="Arial, Helvetica, sans-serif" font-size="24" font-weight="700" fill="#111">AGENT</text>
<rect x="40.0" y="100.0" width="850" height="850" fill="none" stroke="#FF3B8A" stroke-width="6" stroke-dasharray="18 12"/>
<rect x="52.0" y="62.0" width="134.0" height="38" rx="6" fill="white" fill-opacity="0.86" stroke="#FF3B8A" stroke-width="3"/>
<text x="62.0" y="88.0" font-family="Arial, Helvetica, sans-serif" font-size="24" font-weight="700" fill="#111">PATIENT</text>
<polyline points="1015.6,535.9 788.7,462.4 1222.2,388.7 1194.1,379.3 1461.1,370.2 1429.8,380.4 658.1,482.7 522.7,471.2 794.0,456.6 846.2,430.0 1221.4,403.0 1448.2,371.1 623.4,469.3 508.3,466.7 836.0,420.2 1270.6,397.2 1212.5,394.8 1453.6,378.6 1437.2,362.5 1216.6,396.8 1058.1,477.7 1343.1,407.3 1435.3,347.4 616.9,438.6 512.2,401.8 808.1,395.8 1257.4,393.6 1208.1,395.4 593.1,440.7 520.2,437.1 868.7,398.5 797.4,438.3 1093.5,498.7 1047.0,508.9 526.6,450.9 855.7,389.8 800.8,404.8 561.1,450.1 1169.5,396.4 534.6,432.6 1281.3,412.0 1445.8,377.6 1423.4,381.0 1193.9,404.6 1465.6,393.6 1417.8,395.3 616.7,484.3 496.2,467.7 1027.9,399.7 1272.0,268.1 1199.4,395.8 651.0,440.1 534.4,448.0 777.8,416.3 558.9,461.2 453.6,424.4 643.0,382.1 798.2,376.0 696.8,384.6 486.3,414.8 530.7,584.8 474.2,586.9 788.0,525.7 766.6,519.8 1087.6,497.9 1016.7,506.4 478.5,528.7 588.6,453.7 524.4,419.0 983.2,383.5 514.8,405.3 1200.6,377.1 518.0,427.4 922.7,401.5 1202.8,387.7 518.4,438.9 889.2,437.1 454.7,459.1 595.8,419.1 499.6,417.4 1082.3,394.5 533.7,412.7 1229.6,407.9 1203.0,404.4 1485.0,406.5 1424.2,403.7 533.8,493.8 996.8,408.0 815.1,419.0 685.8,454.6 505.7,390.8 822.0,422.2 615.4,412.9 1089.5,444.2 1237.4,362.7 613.5,422.1 896.9,416.9 1273.0,448.5 1204.9,444.6 565.3,459.6 1192.5,420.6 500.9,450.3 1004.2,407.7 485.6,441.3 1237.6,376.8 1434.0,380.1" fill="none" stroke="#111" stroke-width="4" stroke-opacity="0.36" stroke-linejoin="round"/>
<circle cx="1015.6" cy="535.9" r="15.7" fill="white" fill-opacity="0.84"/>
<circle cx="1015.6" cy="535.9" r="12.7" fill="#7A3CE8" fill-opacity="0.66" stroke="#111" stroke-width="2.5"/>
<text x="1015.6" y="542.9" text-anchor="middle" font-family="Arial, Helvetica, sans-serif" font-size="21" font-weight="800" fill="white" stroke="#111" stroke-width="3" paint-order="stroke">1</text>
<circle cx="788.7" cy="462.4" r="20.2" fill="white" fill-opacity="0.84"/>
<circle cx="788.7" cy="462.4" r="17.2" fill="#7A3CE8" fill-opacity="0.66" stroke="#111" stroke-width="2.5"/>
<text x="788.7" y="469.4" text-anchor="middle" font-family="Arial, Helvetica, sans-serif" font-size="21" font-weight="800" fill="white" stroke="#111" stroke-width="3" paint-order="stroke">2</text>
<circle cx="1222.2" cy="388.7" r="15.4" fill="white" fill-opacity="0.84"/>
<circle cx="1222.2" cy="388.7" r="12.4" fill="#7A3CE8" fill-opacity="0.66" stroke="#111" stroke-width="2.5"/>
<text x="1222.2" y="395.7" text-anchor="middle" font-family="Arial, Helvetica, sans-serif" font-size="21" font-weight="800" fill="white" stroke="#111" stroke-width="3" paint-order="stroke">3</text>
<circle cx="1194.1" cy="379.3" r="17.1" fill="white" fill-opacity="0.84"/>
<circle cx="1194.1" cy="379.3" r="14.1" fill="#7A3CE8" fill-opacity="0.66" stroke="#111" stroke-width="2.5"/>
<text x="1194.1" y="386.3" text-anchor="middle" font-family="Arial, Helvetica, sans-serif" font-size="21" font-weight="800" fill="white" stroke="#111" stroke-width="3" paint-order="stroke">4</text>
<circle cx="1461.1" cy="370.2" r="17.1" fill="white" fill-opacity="0.84"/>
<circle cx="1461.1" cy="370.2" r="14.1" fill="#7A3CE8" fill-opacity="0.66" stroke="#111" stroke-width="2.5"/>
<text x="1461.1" y="377.2" text-anchor="middle" font-family="Arial, Helvetica, sans-serif" font-size="21" font-weight="800" fill="white" stroke="#111" stroke-width="3" paint-order="stroke">5</text>
<circle cx="1429.8" cy="380.4" r="17.0" fill="white" fill-opacity="0.84"/>
<circle cx="1429.8" cy="380.4" r="14.0" fill="#7A3CE8" fill-opacity="0.66" stroke="#111" stroke-width="2.5"/>
<text x="1429.8" y="387.4" text-anchor="middle" font-family="Arial, Helvetica, sans-serif" font-size="21" font-weight="800" fill="white" stroke="#111" stroke-width="3" paint-order="stroke">6</text>
<circle cx="658.1" cy="482.7" r="15.6" fill="white" fill-opacity="0.84"/>
<circle cx="658.1" cy="482.7" r="12.6" fill="#7A3CE8" fill-opacity="0.66" stroke="#111" stroke-width="2.5"/>
<text x="658.1" y="489.7" text-anchor="middle" font-family="Arial, Helvetica, sans-serif" font-size="21" font-weight="800" fill="white" stroke="#111" stroke-width="3" paint-order="stroke">7</text>
<circle cx="522.7" cy="471.2" r="19.5" fill="white" fill-opacity="0.84"/>
<circle cx="522.7" cy="471.2" r="16.5" fill="#7A3CE8" fill-opacity="0.66" stroke="#111" stroke-width="2.5"/>
<text x="522.7" y="478.2" text-anchor="middle" font-family="Arial, Helvetica, sans-serif" font-size="21" font-weight="800" fill="white" stroke="#111" stroke-width="3" paint-order="stroke">8</text>
<circle cx="794.0" cy="456.6" r="16.6" fill="white" fill-opacity="0.84"/>
<circle cx="794.0" cy="456.6" r="13.6" fill="#7A3CE8" fill-opacity="0.66" stroke="#111" stroke-width="2.5"/>
<text x="794.0" y="463.6" text-anchor="middle" font-family="Arial, Helvetica, sans-serif" font-size="21" font-weight="800" fill="white" stroke="#111" stroke-width="3" paint-order="stroke">9</text>
<circle cx="846.2" cy="430.0" r="19.0" fill="white" fill-opacity="0.84"/>
<circle cx="846.2" cy="430.0" r="16.0" fill="#7A3CE8" fill-opacity="0.66" stroke="#111" stroke-width="2.5"/>
<text x="846.2" y="437.0" text-anchor="middle" font-family="Arial, Helvetica, sans-serif" font-size="21" font-weight="800" fill="white" stroke="#111" stroke-width="3" paint-order="stroke">10</text>
<circle cx="1221.4" cy="403.0" r="19.0" fill="white" fill-opacity="0.84"/>
<circle cx="1221.4" cy="403.0" r="16.0" fill="#7A3CE8" fill-opacity="0.66" stroke="#111" stroke-width="2.5"/>
<text x="1221.4" y="410.0" text-anchor="middle" font-family="Arial, Helvetica, sans-serif" font-size="21" font-weight="800" fill="white" stroke="#111" stroke-width="3" paint-order="stroke">11</text>
<circle cx="1448.2" cy="371.1" r="20.7" fill="white" fill-opacity="0.84"/>
<circle cx="1448.2" cy="371.1" r="17.7" fill="#7A3CE8" fill-opacity="0.66" stroke="#111" stroke-width="2.5"/>
<text x="1448.2" y="378.1" text-anchor="middle" font-family="Arial, Helvetica, sans-serif" font-size="21" font-weight="800" fill="white" stroke="#111" stroke-width="3" paint-order="stroke">12</text>
<circle cx="623.4" cy="469.3" r="16.4" fill="white" fill-opacity="0.84"/>
<circle cx="623.4" cy="469.3" r="13.4" fill="#7A3CE8" fill-opacity="0.66" stroke="#111" stroke-width="2.5"/>
<text x="623.4" y="476.3" text-anchor="middle" font-family="Arial, Helvetica, sans-serif" font-size="21" font-weight="800" fill="white" stroke="#111" stroke-width="3" paint-order="stroke">13</text>
<circle cx="508.3" cy="466.7" r="19.2" fill="white" fill-opacity="0.84"/>
<circle cx="508.3" cy="466.7" r="16.2" fill="#7A3CE8" fill-opacity="0.66" stroke="#111" stroke-width="2.5"/>
<text x="508.3" y="473.7" text-anchor="middle" font-family="Arial, Helvetica, sans-serif" font-size="21" font-weight="800" fill="white" stroke="#111" stroke-width="3" paint-order="stroke">14</text>
<circle cx="836.0" cy="420.2" r="17.4" fill="white" fill-opacity="0.84"/>
<circle cx="836.0" cy="420.2" r="14.4" fill="#7A3CE8" fill-opacity="0.66" stroke="#111" stroke-width="2.5"/>
<text x="836.0" y="427.2" text-anchor="middle" font-family="Arial, Helvetica, sans-serif" font-size="21" font-weight="800" fill="white" stroke="#111" stroke-width="3" paint-order="stroke">15</text>
<circle cx="1270.6" cy="397.2" r="15.9" fill="white" fill-opacity="0.84"/>
<circle cx="1270.6" cy="397.2" r="12.9" fill="#7A3CE8" fill-opacity="0.66" stroke="#111" stroke-width="2.5"/>
<text x="1270.6" y="404.2" text-anchor="middle" font-family="Arial, Helvetica, sans-serif" font-size="21" font-weight="800" fill="white" stroke="#111" stroke-width="3" paint-order="stroke">16</text>
<circle cx="1212.5" cy="394.8" r="20.0" fill="white" fill-opacity="0.84"/>
<circle cx="1212.5" cy="394.8" r="17.0" fill="#7A3CE8" fill-opacity="0.66" stroke="#111" stroke-width="2.5"/>
<text x="1212.5" y="401.8" text-anchor="middle" font-family="Arial, Helvetica, sans-serif" font-size="21" font-weight="800" fill="white" stroke="#111" stroke-width="3" paint-order="stroke">17</text>
<circle cx="1453.6" cy="378.6" r="17.9" fill="white" fill-opacity="0.84"/>
<circle cx="1453.6" cy="378.6" r="14.9" fill="#7A3CE8" fill-opacity="0.66" stroke="#111" stroke-width="2.5"/>
<text x="1453.6" y="385.6" text-anchor="middle" font-family="Arial, Helvetica, sans-serif" font-size="21" font-weight="800" fill="white" stroke="#111" stroke-width="3" paint-order="stroke">18</text>
<circle cx="1437.2" cy="362.5" r="18.3" fill="white" fill-opacity="0.84"/>
<circle cx="1437.2" cy="362.5" r="15.3" fill="#7A3CE8" fill-opacity="0.66" stroke="#111" stroke-width="2.5"/>
<text x="1437.2" y="369.5" text-anchor="middle" font-family="Arial, Helvetica, sans-serif" font-size="21" font-weight="800" fill="white" stroke="#111" stroke-width="3" paint-order="stroke">19</text>
<circle cx="1216.6" cy="396.8" r="18.9" fill="white" fill-opacity="0.84"/>
<circle cx="1216.6" cy="396.8" r="15.9" fill="#7A3CE8" fill-opacity="0.66" stroke="#111" stroke-width="2.5"/>
<text x="1216.6" y="403.8" text-anchor="middle" font-family="Arial, Helvetica, sans-serif" font-size="21" font-weight="800" fill="white" stroke="#111" stroke-width="3" paint-order="stroke">20</text>
<circle cx="1058.1" cy="477.7" r="17.1" fill="white" fill-opacity="0.84"/>
<circle cx="1058.1" cy="477.7" r="14.1" fill="#7A3CE8" fill-opacity="0.66" stroke="#111" stroke-width="2.5"/>
<text x="1058.1" y="484.7" text-anchor="middle" font-family="Arial, Helvetica, sans-serif" font-size="21" font-weight="800" fill="white" stroke="#111" stroke-width="3" paint-order="stroke">21</text>
<circle cx="1343.1" cy="407.3" r="16.1" fill="white" fill-opacity="0.84"/>
<circle cx="1343.1" cy="407.3" r="13.1" fill="#7A3CE8" fill-opacity="0.66" stroke="#111" stroke-width="2.5"/>
<text x="1343.1" y="414.3" text-anchor="middle" font-family="Arial, Helvetica, sans-serif" font-size="21" font-weight="800" fill="white" stroke="#111" stroke-width="3" paint-order="stroke">22</text>
<circle cx="1435.3" cy="347.4" r="16.4" fill="white" fill-opacity="0.84"/>
<circle cx="1435.3" cy="347.4" r="13.4" fill="#7A3CE8" fill-opacity="0.66" stroke="#111" stroke-width="2.5"/>
<text x="1435.3" y="354.4" text-anchor="middle" font-family="Arial, Helvetica, sans-serif" font-size="21" font-weight="800" fill="white" stroke="#111" stroke-width="3" paint-order="stroke">23</text>
<circle cx="616.9" cy="438.6" r="17.2" fill="white" fill-opacity="0.84"/>
<circle cx="616.9" cy="438.6" r="14.2" fill="#7A3CE8" fill-opacity="0.66" stroke="#111" stroke-width="2.5"/>
<text x="616.9" y="445.6" text-anchor="middle" font-family="Arial, Helvetica, sans-serif" font-size="21" font-weight="800" fill="white" stroke="#111" stroke-width="3" paint-order="stroke">24</text>
<circle cx="512.2" cy="401.8" r="17.8" fill="white" fill-opacity="0.84"/>
<circle cx="512.2" cy="401.8" r="14.8" fill="#7A3CE8" fill-opacity="0.66" stroke="#111" stroke-width="2.5"/>
<text x="512.2" y="408.8" text-anchor="middle" font-family="Arial, Helvetica, sans-serif" font-size="21" font-weight="800" fill="white" stroke="#111" stroke-width="3" paint-order="stroke">25</text>
<circle cx="808.1" cy="395.8" r="18.7" fill="white" fill-opacity="0.84"/>
<circle cx="808.1" cy="395.8" r="15.7" fill="#7A3CE8" fill-opacity="0.66" stroke="#111" stroke-width="2.5"/>
<text x="808.1" y="402.8" text-anchor="middle" font-family="Arial, Helvetica, sans-serif" font-size="21" font-weight="800" fill="white" stroke="#111" stroke-width="3" paint-order="stroke">26</text>
<circle cx="1257.4" cy="393.6" r="15.7" fill="white" fill-opacity="0.84"/>
<circle cx="1257.4" cy="393.6" r="12.7" fill="#7A3CE8" fill-opacity="0.66" stroke="#111" stroke-width="2.5"/>
<text x="1257.4" y="400.6" text-anchor="middle" font-family="Arial, Helvetica, sans-serif" font-size="21" font-weight="800" fill="white" stroke="#111" stroke-width="3" paint-order="stroke">27</text>
<circle cx="1208.1" cy="395.4" r="18.0" fill="white" fill-opacity="0.84"/>
<circle cx="1208.1" cy="395.4" r="15.0" fill="#7A3CE8" fill-opacity="0.66" stroke="#111" stroke-width="2.5"/>
<text x="1208.1" y="402.4" text-anchor="middle" font-family="Arial, Helvetica, sans-serif" font-size="21" font-weight="800" fill="white" stroke="#111" stroke-width="3" paint-order="stroke">28</text>
<circle cx="593.1" cy="440.7" r="17.1" fill="white" fill-opacity="0.84"/>
<circle cx="593.1" cy="440.7" r="14.1" fill="#7A3CE8" fill-opacity="0.66" stroke="#111" stroke-width="2.5"/>
<text x="593.1" y="447.7" text-anchor="middle" font-family="Arial, Helvetica, sans-serif" font-size="21" font-weight="800" fill="white" stroke="#111" stroke-width="3" paint-order="stroke">29</text>
<circle cx="520.2" cy="437.1" r="17.9" fill="white" fill-opacity="0.84"/>
<circle cx="520.2" cy="437.1" r="14.9" fill="#7A3CE8" fill-opacity="0.66" stroke="#111" stroke-width="2.5"/>
<text x="520.2" y="444.1" text-anchor="middle" font-family="Arial, Helvetica, sans-serif" font-size="21" font-weight="800" fill="white" stroke="#111" stroke-width="3" paint-order="stroke">30</text>
<circle cx="868.7" cy="398.5" r="16.4" fill="white" fill-opacity="0.84"/>
<circle cx="868.7" cy="398.5" r="13.4" fill="#7A3CE8" fill-opacity="0.66" stroke="#111" stroke-width="2.5"/>
<text x="868.7" y="405.5" text-anchor="middle" font-family="Arial, Helvetica, sans-serif" font-size="21" font-weight="800" fill="white" stroke="#111" stroke-width="3" paint-order="stroke">31</text>
<circle cx="797.4" cy="438.3" r="19.2" fill="white" fill-opacity="0.84"/>
<circle cx="797.4" cy="438.3" r="16.2" fill="#7A3CE8" fill-opacity="0.66" stroke="#111" stroke-width="2.5"/>
<text x="797.4" y="445.3" text-anchor="middle" font-family="Arial, Helvetica, sans-serif" font-size="21" font-weight="800" fill="white" stroke="#111" stroke-width="3" paint-order="stroke">32</text>
<circle cx="1093.5" cy="498.7" r="17.2" fill="white" fill-opacity="0.84"/>
<circle cx="1093.5" cy="498.7" r="14.2" fill="#7A3CE8" fill-opacity="0.66" stroke="#111" stroke-width="2.5"/>
<text x="1093.5" y="505.7" text-anchor="middle" font-family="Arial, Helvetica, sans-serif" font-size="21" font-weight="800" fill="white" stroke="#111" stroke-width="3" paint-order="stroke">33</text>
<circle cx="1047.0" cy="508.9" r="16.4" fill="white" fill-opacity="0.84"/>
<circle cx="1047.0" cy="508.9" r="13.4" fill="#7A3CE8" fill-opacity="0.66" stroke="#111" stroke-width="2.5"/>
<text x="1047.0" y="515.9" text-anchor="middle" font-family="Arial, Helvetica, sans-serif" font-size="21" font-weight="800" fill="white" stroke="#111" stroke-width="3" paint-order="stroke">34</text>
<circle cx="526.6" cy="450.9" r="19.0" fill="white" fill-opacity="0.84"/>
<circle cx="526.6" cy="450.9" r="16.0" fill="#7A3CE8" fill-opacity="0.66" stroke="#111" stroke-width="2.5"/>
<text x="526.6" y="457.9" text-anchor="middle" font-family="Arial, Helvetica, sans-serif" font-size="21" font-weight="800" fill="white" stroke="#111" stroke-width="3" paint-order="stroke">35</text>
<circle cx="855.7" cy="389.8" r="17.7" fill="white" fill-opacity="0.84"/>
<circle cx="855.7" cy="389.8" r="14.7" fill="#7A3CE8" fill-opacity="0.66" stroke="#111" stroke-width="2.5"/>
<text x="855.7" y="396.8" text-anchor="middle" font-family="Arial, Helvetica, sans-serif" font-size="21" font-weight="800" fill="white" stroke="#111" stroke-width="3" paint-order="stroke">36</text>
<circle cx="800.8" cy="404.8" r="19.0" fill="white" fill-opacity="0.84"/>
<circle cx="800.8" cy="404.8" r="16.0" fill="#7A3CE8" fill-opacity="0.66" stroke="#111" stroke-width="2.5"/>
<text x="800.8" y="411.8" text-anchor="middle" font-family="Arial, Helvetica, sans-serif" font-size="21" font-weight="800" fill="white" stroke="#111" stroke-width="3" paint-order="stroke">37</text>
<circle cx="561.1" cy="450.1" r="19.7" fill="white" fill-opacity="0.84"/>
<circle cx="561.1" cy="450.1" r="16.7" fill="#7A3CE8" fill-opacity="0.66" stroke="#111" stroke-width="2.5"/>
<text x="561.1" y="457.1" text-anchor="middle" font-family="Arial, Helvetica, sans-serif" font-size="21" font-weight="800" fill="white" stroke="#111" stroke-width="3" paint-order="stroke">38</text>
<circle cx="1169.5" cy="396.4" r="20.1" fill="white" fill-opacity="0.84"/>
<circle cx="1169.5" cy="396.4" r="17.1" fill="#7A3CE8" fill-opacity="0.66" stroke="#111" stroke-width="2.5"/>
<text x="1169.5" y="403.4" text-anchor="middle" font-family="Arial, Helvetica, sans-serif" font-size="21" font-weight="800" fill="white" stroke="#111" stroke-width="3" paint-order="stroke">39</text>
<circle cx="534.6" cy="432.6" r="16.7" fill="white" fill-opacity="0.84"/>
<circle cx="534.6" cy="432.6" r="13.7" fill="#7A3CE8" fill-opacity="0.66" stroke="#111" stroke-width="2.5"/>
<text x="534.6" y="439.6" text-anchor="middle" font-family="Arial, Helvetica, sans-serif" font-size="21" font-weight="800" fill="white" stroke="#111" stroke-width="3" paint-order="stroke">40</text>
<circle cx="1281.3" cy="412.0" r="19.1" fill="white" fill-opacity="0.84"/>
<circle cx="1281.3" cy="412.0" r="16.1" fill="#7A3CE8" fill-opacity="0.66" stroke="#111" stroke-width="2.5"/>
<text x="1281.3" y="419.0" text-anchor="middle" font-family="Arial, Helvetica, sans-serif" font-size="21" font-weight="800" fill="white" stroke="#111" stroke-width="3" paint-order="stroke">41</text>
<circle cx="1445.8" cy="377.6" r="18.0" fill="white" fill-opacity="0.84"/>
<circle cx="1445.8" cy="377.6" r="15.0" fill="#7A3CE8" fill-opacity="0.66" stroke="#111" stroke-width="2.5"/>
<text x="1445.8" y="384.6" text-anchor="middle" font-family="Arial, Helvetica, sans-serif" font-size="21" font-weight="800" fill="white" stroke="#111" stroke-width="3" paint-order="stroke">42</text>
<circle cx="1423.4" cy="381.0" r="17.1" fill="white" fill-opacity="0.84"/>
<circle cx="1423.4" cy="381.0" r="14.1" fill="#7A3CE8" fill-opacity="0.66" stroke="#111" stroke-width="2.5"/>
<text x="1423.4" y="388.0" text-anchor="middle" font-family="Arial, Helvetica, sans-serif" font-size="21" font-weight="800" fill="white" stroke="#111" stroke-width="3" paint-order="stroke">43</text>
<circle cx="1193.9" cy="404.6" r="18.8" fill="white" fill-opacity="0.84"/>
<circle cx="1193.9" cy="404.6" r="15.8" fill="#7A3CE8" fill-opacity="0.66" stroke="#111" stroke-width="2.5"/>
<text x="1193.9" y="411.6" text-anchor="middle" font-family="Arial, Helvetica, sans-serif" font-size="21" font-weight="800" fill="white" stroke="#111" stroke-width="3" paint-order="stroke">44</text>
<circle cx="1465.6" cy="393.6" r="15.8" fill="white" fill-opacity="0.84"/>
<circle cx="1465.6" cy="393.6" r="12.8" fill="#7A3CE8" fill-opacity="0.66" stroke="#111" stroke-width="2.5"/>
<text x="1465.6" y="400.6" text-anchor="middle" font-family="Arial, Helvetica, sans-serif" font-size="21" font-weight="800" fill="white" stroke="#111" stroke-width="3" paint-order="stroke">45</text>
<circle cx="1417.8" cy="395.3" r="15.3" fill="white" fill-opacity="0.84"/>
<circle cx="1417.8" cy="395.3" r="12.3" fill="#7A3CE8" fill-opacity="0.66" stroke="#111" stroke-width="2.5"/>
<text x="1417.8" y="402.3" text-anchor="middle" font-family="Arial, Helvetica, sans-serif" font-size="21" font-weight="800" fill="white" stroke="#111" stroke-width="3" paint-order="stroke">46</text>
<circle cx="616.7" cy="484.3" r="16.0" fill="white" fill-opacity="0.84"/>
<circle cx="616.7" cy="484.3" r="13.0" fill="#7A3CE8" fill-opacity="0.66" stroke="#111" stroke-width="2.5"/>
<text x="616.7" y="491.3" text-anchor="middle" font-family="Arial, Helvetica, sans-serif" font-size="21" font-weight="800" fill="white" stroke="#111" stroke-width="3" paint-order="stroke">47</text>
<circle cx="496.2" cy="467.7" r="17.7" fill="white" fill-opacity="0.84"/>
<circle cx="496.2" cy="467.7" r="14.7" fill="#7A3CE8" fill-opacity="0.66" stroke="#111" stroke-width="2.5"/>
<text x="496.2" y="474.7" text-anchor="middle" font-family="Arial, Helvetica, sans-serif" font-size="21" font-weight="800" fill="white" stroke="#111" stroke-width="3" paint-order="stroke">48</text>
<circle cx="1027.9" cy="399.7" r="16.4" fill="white" fill-opacity="0.84"/>
<circle cx="1027.9" cy="399.7" r="13.4" fill="#7A3CE8" fill-opacity="0.66" stroke="#111" stroke-width="2.5"/>
<text x="1027.9" y="406.7" text-anchor="middle" font-family="Arial, Helvetica, sans-serif" font-size="21" font-weight="800" fill="white" stroke="#111" stroke-width="3" paint-order="stroke">49</text>
<circle cx="1272.0" cy="268.1" r="12.3" fill="white" fill-opacity="0.84"/>
<circle cx="1272.0" cy="268.1" r="9.3" fill="#7A3CE8" fill-opacity="0.66" stroke="#111" stroke-width="2.5"/>
<text x="1272.0" y="275.1" text-anchor="middle" font-family="Arial, Helvetica, sans-serif" font-size="21" font-weight="800" fill="white" stroke="#111" stroke-width="3" paint-order="stroke">50</text>
<circle cx="1199.4" cy="395.8" r="16.5" fill="white" fill-opacity="0.84"/>
<circle cx="1199.4" cy="395.8" r="13.5" fill="#7A3CE8" fill-opacity="0.66" stroke="#111" stroke-width="2.5"/>
<text x="1199.4" y="402.8" text-anchor="middle" font-family="Arial, Helvetica, sans-serif" font-size="21" font-weight="800" fill="white" stroke="#111" stroke-width="3" paint-order="stroke">51</text>
<circle cx="651.0" cy="440.1" r="19.4" fill="white" fill-opacity="0.84"/>
<circle cx="651.0" cy="440.1" r="16.4" fill="#7A3CE8" fill-opacity="0.66" stroke="#111" stroke-width="2.5"/>
<text x="651.0" y="447.1" text-anchor="middle" font-family="Arial, Helvetica, sans-serif" font-size="21" font-weight="800" fill="white" stroke="#111" stroke-width="3" paint-order="stroke">52</text>
<circle cx="534.4" cy="448.0" r="22.2" fill="white" fill-opacity="0.84"/>
<circle cx="534.4" cy="448.0" r="19.2" fill="#7A3CE8" fill-opacity="0.66" stroke="#111" stroke-width="2.5"/>
<text x="534.4" y="455.0" text-anchor="middle" font-family="Arial, Helvetica, sans-serif" font-size="21" font-weight="800" fill="white" stroke="#111" stroke-width="3" paint-order="stroke">53</text>
<circle cx="777.8" cy="416.3" r="19.7" fill="white" fill-opacity="0.84"/>
<circle cx="777.8" cy="416.3" r="16.7" fill="#7A3CE8" fill-opacity="0.66" stroke="#111" stroke-width="2.5"/>
<text x="777.8" y="423.3" text-anchor="middle" font-family="Arial, Helvetica, sans-serif" font-size="21" font-weight="800" fill="white" stroke="#111" stroke-width="3" paint-order="stroke">54</text>
<circle cx="558.9" cy="461.2" r="16.7" fill="white" fill-opacity="0.84"/>
<circle cx="558.9" cy="461.2" r="13.7" fill="#7A3CE8" fill-opacity="0.66" stroke="#111" stroke-width="2.5"/>
<text x="558.9" y="468.2" text-anchor="middle" font-family="Arial, Helvetica, sans-serif" font-size="21" font-weight="800" fill="white" stroke="#111" stroke-width="3" paint-order="stroke">55</text>
<circle cx="453.6" cy="424.4" r="17.8" fill="white" fill-opacity="0.84"/>
<circle cx="453.6" cy="424.4" r="14.8" fill="#7A3CE8" fill-opacity="0.66" stroke="#111" stroke-width="2.5"/>
<text x="453.6" y="431.4" text-anchor="middle" font-family="Arial, Helvetica, sans-serif" font-size="21" font-weight="800" fill="white" stroke="#111" stroke-width="3" paint-order="stroke">56</text>
<circle cx="643.0" cy="382.1" r="16.4" fill="white" fill-opacity="0.84"/>
<circle cx="643.0" cy="382.1" r="13.4" fill="#7A3CE8" fill-opacity="0.66" stroke="#111" stroke-width="2.5"/>
<text x="643.0" y="389.1" text-anchor="middle" font-family="Arial, Helvetica, sans-serif" font-size="21" font-weight="800" fill="white" stroke="#111" stroke-width="3" paint-order="stroke">57</text>
<circle cx="798.2" cy="376.0" r="17.5" fill="white" fill-opacity="0.84"/>
<circle cx="798.2" cy="376.0" r="14.5" fill="#7A3CE8" fill-opacity="0.66" stroke="#111" stroke-width="2.5"/>
<text x="798.2" y="383.0" text-anchor="middle" font-family="Arial, Helvetica, sans-serif" font-size="21" font-weight="800" fill="white" stroke="#111" stroke-width="3" paint-order="stroke">58</text>
<circle cx="696.8" cy="384.6" r="17.2" fill="white" fill-opacity="0.84"/>
<circle cx="696.8" cy="384.6" r="14.2" fill="#7A3CE8" fill-opacity="0.66" stroke="#111" stroke-width="2.5"/>
<text x="696.8" y="391.6" text-anchor="middle" font-family="Arial, Helvetica, sans-serif" font-size="21" font-weight="800" fill="white" stroke="#111" stroke-width="3" paint-order="stroke">59</text>
<circle cx="486.3" cy="414.8" r="19.4" fill="white" fill-opacity="0.84"/>
<circle cx="486.3" cy="414.8" r="16.4" fill="#7A3CE8" fill-opacity="0.66" stroke="#111" stroke-width="2.5"/>
<text x="486.3" y="421.8" text-anchor="middle" font-family="Arial, Helvetica, sans-serif" font-size="21" font-weight="800" fill="white" stroke="#111" stroke-width="3" paint-order="stroke">60</text>
<circle cx="530.7" cy="584.8" r="15.9" fill="white" fill-opacity="0.84"/>
<circle cx="530.7" cy="584.8" r="12.9" fill="#7A3CE8" fill-opacity="0.66" stroke="#111" stroke-width="2.5"/>
<text x="530.7" y="591.8" text-anchor="middle" font-family="Arial, Helvetica, sans-serif" font-size="21" font-weight="800" fill="white" stroke="#111" stroke-width="3" paint-order="stroke">61</text>
<circle cx="474.2" cy="586.9" r="17.4" fill="white" fill-opacity="0.84"/>
<circle cx="474.2" cy="586.9" r="14.4" fill="#7A3CE8" fill-opacity="0.66" stroke="#111" stroke-width="2.5"/>
<text x="474.2" y="593.9" text-anchor="middle" font-family="Arial, Helvetica, sans-serif" font-size="21" font-weight="800" fill="white" stroke="#111" stroke-width="3" paint-order="stroke">62</text>
<circle cx="788.0" cy="525.7" r="16.7" fill="white" fill-opacity="0.84"/>
<circle cx="788.0" cy="525.7" r="13.7" fill="#7A3CE8" fill-opacity="0.66" stroke="#111" stroke-width="2.5"/>
<text x="788.0" y="532.7" text-anchor="middle" font-family="Arial, Helvetica, sans-serif" font-size="21" font-weight="800" fill="white" stroke="#111" stroke-width="3" paint-order="stroke">63</text>
<circle cx="766.6" cy="519.8" r="17.8" fill="white" fill-opacity="0.84"/>
<circle cx="766.6" cy="519.8" r="14.8" fill="#7A3CE8" fill-opacity="0.66" stroke="#111" stroke-width="2.5"/>
<text x="766.6" y="526.8" text-anchor="middle" font-family="Arial, Helvetica, sans-serif" font-size="21" font-weight="800" fill="white" stroke="#111" stroke-width="3" paint-order="stroke">64</text>
<circle cx="1087.6" cy="497.9" r="16.3" fill="white" fill-opacity="0.84"/>
<circle cx="1087.6" cy="497.9" r="13.3" fill="#7A3CE8" fill-opacity="0.66" stroke="#111" stroke-width="2.5"/>
<text x="1087.6" y="504.9" text-anchor="middle" font-family="Arial, Helvetica, sans-serif" font-size="21" font-weight="800" fill="white" stroke="#111" stroke-width="3" paint-order="stroke">65</text>
<circle cx="1016.7" cy="506.4" r="18.1" fill="white" fill-opacity="0.84"/>
<circle cx="1016.7" cy="506.4" r="15.1" fill="#7A3CE8" fill-opacity="0.66" stroke="#111" stroke-width="2.5"/>
<text x="1016.7" y="513.4" text-anchor="middle" font-family="Arial, Helvetica, sans-serif" font-size="21" font-weight="800" fill="white" stroke="#111" stroke-width="3" paint-order="stroke">66</text>
<circle cx="478.5" cy="528.7" r="17.8" fill="white" fill-opacity="0.84"/>
<circle cx="478.5" cy="528.7" r="14.8" fill="#7A3CE8" fill-opacity="0.66" stroke="#111" stroke-width="2.5"/>
<text x="478.5" y="535.7" text-anchor="middle" font-family="Arial, Helvetica, sans-serif" font-size="21" font-weight="800" fill="white" stroke="#111" stroke-width="3" paint-order="stroke">67</text>
<circle cx="588.6" cy="453.7" r="16.9" fill="white" fill-opacity="0.84"/>
<circle cx="588.6" cy="453.7" r="13.9" fill="#7A3CE8" fill-opacity="0.66" stroke="#111" stroke-width="2.5"/>
<text x="588.6" y="460.7" text-anchor="middle" font-family="Arial, Helvetica, sans-serif" font-size="21" font-weight="800" fill="white" stroke="#111" stroke-width="3" paint-order="stroke">68</text>
<circle cx="524.4" cy="419.0" r="18.4" fill="white" fill-opacity="0.84"/>
<circle cx="524.4" cy="419.0" r="15.4" fill="#7A3CE8" fill-opacity="0.66" stroke="#111" stroke-width="2.5"/>
<text x="524.4" y="426.0" text-anchor="middle" font-family="Arial, Helvetica, sans-serif" font-size="21" font-weight="800" fill="white" stroke="#111" stroke-width="3" paint-order="stroke">69</text>
<circle cx="983.2" cy="383.5" r="17.6" fill="white" fill-opacity="0.84"/>
<circle cx="983.2" cy="383.5" r="14.6" fill="#7A3CE8" fill-opacity="0.66" stroke="#111" stroke-width="2.5"/>
<text x="983.2" y="390.5" text-anchor="middle" font-family="Arial, Helvetica, sans-serif" font-size="21" font-weight="800" fill="white" stroke="#111" stroke-width="3" paint-order="stroke">70</text>
<circle cx="514.8" cy="405.3" r="19.1" fill="white" fill-opacity="0.84"/>
<circle cx="514.8" cy="405.3" r="16.1" fill="#7A3CE8" fill-opacity="0.66" stroke="#111" stroke-width="2.5"/>
<text x="514.8" y="412.3" text-anchor="middle" font-family="Arial, Helvetica, sans-serif" font-size="21" font-weight="800" fill="white" stroke="#111" stroke-width="3" paint-order="stroke">71</text>
<circle cx="1200.6" cy="377.1" r="18.3" fill="white" fill-opacity="0.84"/>
<circle cx="1200.6" cy="377.1" r="15.3" fill="#7A3CE8" fill-opacity="0.66" stroke="#111" stroke-width="2.5"/>
<text x="1200.6" y="384.1" text-anchor="middle" font-family="Arial, Helvetica, sans-serif" font-size="21" font-weight="800" fill="white" stroke="#111" stroke-width="3" paint-order="stroke">72</text>
<circle cx="518.0" cy="427.4" r="21.2" fill="white" fill-opacity="0.84"/>
<circle cx="518.0" cy="427.4" r="18.2" fill="#7A3CE8" fill-opacity="0.66" stroke="#111" stroke-width="2.5"/>
<text x="518.0" y="434.4" text-anchor="middle" font-family="Arial, Helvetica, sans-serif" font-size="21" font-weight="800" fill="white" stroke="#111" stroke-width="3" paint-order="stroke">73</text>
<circle cx="922.7" cy="401.5" r="17.6" fill="white" fill-opacity="0.84"/>
<circle cx="922.7" cy="401.5" r="14.6" fill="#7A3CE8" fill-opacity="0.66" stroke="#111" stroke-width="2.5"/>
<text x="922.7" y="408.5" text-anchor="middle" font-family="Arial, Helvetica, sans-serif" font-size="21" font-weight="800" fill="white" stroke="#111" stroke-width="3" paint-order="stroke">74</text>
<circle cx="1202.8" cy="387.7" r="16.4" fill="white" fill-opacity="0.84"/>
<circle cx="1202.8" cy="387.7" r="13.4" fill="#7A3CE8" fill-opacity="0.66" stroke="#111" stroke-width="2.5"/>
<text x="1202.8" y="394.7" text-anchor="middle" font-family="Arial, Helvetica, sans-serif" font-size="21" font-weight="800" fill="white" stroke="#111" stroke-width="3" paint-order="stroke">75</text>
<circle cx="518.4" cy="438.9" r="18.4" fill="white" fill-opacity="0.84"/>
<circle cx="518.4" cy="438.9" r="15.4" fill="#7A3CE8" fill-opacity="0.66" stroke="#111" stroke-width="2.5"/>
<text x="518.4" y="445.9" text-anchor="middle" font-family="Arial, Helvetica, sans-serif" font-size="21" font-weight="800" fill="white" stroke="#111" stroke-width="3" paint-order="stroke">76</text>
<circle cx="889.2" cy="437.1" r="19.1" fill="white" fill-opacity="0.84"/>
<circle cx="889.2" cy="437.1" r="16.1" fill="#7A3CE8" fill-opacity="0.66" stroke="#111" stroke-width="2.5"/>
<text x="889.2" y="444.1" text-anchor="middle" font-family="Arial, Helvetica, sans-serif" font-size="21" font-weight="800" fill="white" stroke="#111" stroke-width="3" paint-order="stroke">77</text>
<circle cx="454.7" cy="459.1" r="17.3" fill="white" fill-opacity="0.84"/>
<circle cx="454.7" cy="459.1" r="14.3" fill="#7A3CE8" fill-opacity="0.66" stroke="#111" stroke-width="2.5"/>
<text x="454.7" y="466.1" text-anchor="middle" font-family="Arial, Helvetica, sans-serif" font-size="21" font-weight="800" fill="white" stroke="#111" stroke-width="3" paint-order="stroke">78</text>
<circle cx="595.8" cy="419.1" r="18.9" fill="white" fill-opacity="0.84"/>
<circle cx="595.8" cy="419.1" r="15.9" fill="#7A3CE8" fill-opacity="0.66" stroke="#111" stroke-width="2.5"/>
<text x="595.8" y="426.1" text-anchor="middle" font-family="Arial, Helvetica, sans-serif" font-size="21" font-weight="800" fill="white" stroke="#111" stroke-width="3" paint-order="stroke">79</text>
<circle cx="499.6" cy="417.4" r="17.5" fill="white" fill-opacity="0.84"/>
<circle cx="499.6" cy="417.4" r="14.5" fill="#7A3CE8" fill-opacity="0.66" stroke="#111" stroke-width="2.5"/>
<text x="499.6" y="424.4" text-anchor="middle" font-family="Arial, Helvetica, sans-serif" font-size="21" font-weight="800" fill="white" stroke="#111" stroke-width="3" paint-order="stroke">80</text>
<circle cx="1082.3" cy="394.5" r="16.8" fill="white" fill-opacity="0.84"/>
<circle cx="1082.3" cy="394.5" r="13.8" fill="#7A3CE8" fill-opacity="0.66" stroke="#111" stroke-width="2.5"/>
<text x="1082.3" y="401.5" text-anchor="middle" font-family="Arial, Helvetica, sans-serif" font-size="21" font-weight="800" fill="white" stroke="#111" stroke-width="3" paint-order="stroke">81</text>
<circle cx="533.7" cy="412.7" r="16.2" fill="white" fill-opacity="0.84"/>
<circle cx="533.7" cy="412.7" r="13.2" fill="#7A3CE8" fill-opacity="0.66" stroke="#111" stroke-width="2.5"/>
<text x="533.7" y="419.7" text-anchor="middle" font-family="Arial, Helvetica, sans-serif" font-size="21" font-weight="800" fill="white" stroke="#111" stroke-width="3" paint-order="stroke">82</text>
<circle cx="1229.6" cy="407.9" r="16.4" fill="white" fill-opacity="0.84"/>
<circle cx="1229.6" cy="407.9" r="13.4" fill="#7A3CE8" fill-opacity="0.66" stroke="#111" stroke-width="2.5"/>
<text x="1229.6" y="414.9" text-anchor="middle" font-family="Arial, Helvetica, sans-serif" font-size="21" font-weight="800" fill="white" stroke="#111" stroke-width="3" paint-order="stroke">83</text>
<circle cx="1203.0" cy="404.4" r="15.8" fill="white" fill-opacity="0.84"/>
<circle cx="1203.0" cy="404.4" r="12.8" fill="#7A3CE8" fill-opacity="0.66" stroke="#111" stroke-width="2.5"/>
<text x="1203.0" y="411.4" text-anchor="middle" font-family="Arial, Helvetica, sans-serif" font-size="21" font-weight="800" fill="white" stroke="#111" stroke-width="3" paint-order="stroke">84</text>
<circle cx="1485.0" cy="406.5" r="15.4" fill="white" fill-opacity="0.84"/>
<circle cx="1485.0" cy="406.5" r="12.4" fill="#7A3CE8" fill-opacity="0.66" stroke="#111" stroke-width="2.5"/>
<text x="1485.0" y="413.5" text-anchor="middle" font-family="Arial, Helvetica, sans-serif" font-size="21" font-weight="800" fill="white" stroke="#111" stroke-width="3" paint-order="stroke">85</text>
<circle cx="1424.2" cy="403.7" r="20.3" fill="white" fill-opacity="0.84"/>
<circle cx="1424.2" cy="403.7" r="17.3" fill="#7A3CE8" fill-opacity="0.66" stroke="#111" stroke-width="2.5"/>
<text x="1424.2" y="410.7" text-anchor="middle" font-family="Arial, Helvetica, sans-serif" font-size="21" font-weight="800" fill="white" stroke="#111" stroke-width="3" paint-order="stroke">86</text>
<circle cx="533.8" cy="493.8" r="18.0" fill="white" fill-opacity="0.84"/>
<circle cx="533.8" cy="493.8" r="15.0" fill="#7A3CE8" fill-opacity="0.66" stroke="#111" stroke-width="2.5"/>
<text x="533.8" y="500.8" text-anchor="middle" font-family="Arial, Helvetica, sans-serif" font-size="21" font-weight="800" fill="white" stroke="#111" stroke-width="3" paint-order="stroke">87</text>
<circle cx="996.8" cy="408.0" r="16.7" fill="white" fill-opacity="0.84"/>
<circle cx="996.8" cy="408.0" r="13.7" fill="#7A3CE8" fill-opacity="0.66" stroke="#111" stroke-width="2.5"/>
<text x="996.8" y="415.0" text-anchor="middle" font-family="Arial, Helvetica, sans-serif" font-size="21" font-weight="800" fill="white" stroke="#111" stroke-width="3" paint-order="stroke">88</text>
<circle cx="815.1" cy="419.0" r="20.1" fill="white" fill-opacity="0.84"/>
<circle cx="815.1" cy="419.0" r="17.1" fill="#7A3CE8" fill-opacity="0.66" stroke="#111" stroke-width="2.5"/>
<text x="815.1" y="426.0" text-anchor="middle" font-family="Arial, Helvetica, sans-serif" font-size="21" font-weight="800" fill="white" stroke="#111" stroke-width="3" paint-order="stroke">89</text>
<circle cx="685.8" cy="454.6" r="20.3" fill="white" fill-opacity="0.84"/>
<circle cx="685.8" cy="454.6" r="17.3" fill="#7A3CE8" fill-opacity="0.66" stroke="#111" stroke-width="2.5"/>
<text x="685.8" y="461.6" text-anchor="middle" font-family="Arial, Helvetica, sans-serif" font-size="21" font-weight="800" fill="white" stroke="#111" stroke-width="3" paint-order="stroke">90</text>
<circle cx="505.7" cy="390.8" r="20.4" fill="white" fill-opacity="0.84"/>
<circle cx="505.7" cy="390.8" r="17.4" fill="#7A3CE8" fill-opacity="0.66" stroke="#111" stroke-width="2.5"/>
<text x="505.7" y="397.8" text-anchor="middle" font-family="Arial, Helvetica, sans-serif" font-size="21" font-weight="800" fill="white" stroke="#111" stroke-width="3" paint-order="stroke">91</text>
<circle cx="822.0" cy="422.2" r="23.7" fill="white" fill-opacity="0.84"/>
<circle cx="822.0" cy="422.2" r="20.7" fill="#7A3CE8" fill-opacity="0.66" stroke="#111" stroke-width="2.5"/>
<text x="822.0" y="429.2" text-anchor="middle" font-family="Arial, Helvetica, sans-serif" font-size="21" font-weight="800" fill="white" stroke="#111" stroke-width="3" paint-order="stroke">92</text>
<circle cx="615.4" cy="412.9" r="17.7" fill="white" fill-opacity="0.84"/>
<circle cx="615.4" cy="412.9" r="14.7" fill="#7A3CE8" fill-opacity="0.66" stroke="#111" stroke-width="2.5"/>
<text x="615.4" y="419.9" text-anchor="middle" font-family="Arial, Helvetica, sans-serif" font-size="21" font-weight="800" fill="white" stroke="#111" stroke-width="3" paint-order="stroke">93</text>
<circle cx="1089.5" cy="444.2" r="17.7" fill="white" fill-opacity="0.84"/>
<circle cx="1089.5" cy="444.2" r="14.7" fill="#7A3CE8" fill-opacity="0.66" stroke="#111" stroke-width="2.5"/>
<text x="1089.5" y="451.2" text-anchor="middle" font-family="Arial, Helvetica, sans-serif" font-size="21" font-weight="800" fill="white" stroke="#111" stroke-width="3" paint-order="stroke">94</text>
<circle cx="1237.4" cy="362.7" r="18.3" fill="white" fill-opacity="0.84"/>
<circle cx="1237.4" cy="362.7" r="15.3" fill="#7A3CE8" fill-opacity="0.66" stroke="#111" stroke-width="2.5"/>
<text x="1237.4" y="369.7" text-anchor="middle" font-family="Arial, Helvetica, sans-serif" font-size="21" font-weight="800" fill="white" stroke="#111" stroke-width="3" paint-order="stroke">95</text>
<circle cx="613.5" cy="422.1" r="20.2" fill="white" fill-opacity="0.84"/>
<circle cx="613.5" cy="422.1" r="17.2" fill="#7A3CE8" fill-opacity="0.66" stroke="#111" stroke-width="2.5"/>
<text x="613.5" y="429.1" text-anchor="middle" font-family="Arial, Helvetica, sans-serif" font-size="21" font-weight="800" fill="white" stroke="#111" stroke-width="3" paint-order="stroke">96</text>
<circle cx="896.9" cy="416.9" r="15.4" fill="white" fill-opacity="0.84"/>
<circle cx="896.9" cy="416.9" r="12.4" fill="#7A3CE8" fill-opacity="0.66" stroke="#111" stroke-width="2.5"/>
<text x="896.9" y="423.9" text-anchor="middle" font-family="Arial, Helvetica, sans-serif" font-size="21" font-weight="800" fill="white" stroke="#111" stroke-width="3" paint-order="stroke">97</text>
<circle cx="1273.0" cy="448.5" r="17.0" fill="white" fill-opacity="0.84"/>
<circle cx="1273.0" cy="448.5" r="14.0" fill="#7A3CE8" fill-opacity="0.66" stroke="#111" stroke-width="2.5"/>
<text x="1273.0" y="455.5" text-anchor="middle" font-family="Arial, Helvetica, sans-serif" font-size="21" font-weight="800" fill="white" stroke="#111" stroke-width="3" paint-order="stroke">98</text>
<circle cx="1204.9" cy="444.6" r="16.3" fill="white" fill-opacity="0.84"/>
<circle cx="1204.9" cy="444.6" r="13.3" fill="#7A3CE8" fill-opacity="0.66" stroke="#111" stroke-width="2.5"/>
<text x="1204.9" y="451.6" text-anchor="middle" font-family="Arial, Helvetica, sans-serif" font-size="21" font-weight="800" fill="white" stroke="#111" stroke-width="3" paint-order="stroke">99</text>
<circle cx="565.3" cy="459.6" r="19.0" fill="white" fill-opacity="0.84"/>
<circle cx="565.3" cy="459.6" r="16.0" fill="#7A3CE8" fill-opacity="0.66" stroke="#111" stroke-width="2.5"/>
<text x="565.3" y="466.6" text-anchor="middle" font-family="Arial, Helvetica, sans-serif" font-size="21" font-weight="800" fill="white" stroke="#111" stroke-width="3" paint-order="stroke">100</text>
<circle cx="1192.5" cy="420.6" r="17.8" fill="white" fill-opacity="0.84"/>
<circle cx="1192.5" cy="420.6" r="14.8" fill="#7A3CE8" fill-opacity="0.66" stroke="#111" stroke-width="2.5"/>
<text x="1192.5" y="427.6" text-anchor="middle" font-family="Arial, Helvetica, sans-serif" font-size="21" font-weight="800" fill="white" stroke="#111" stroke-width="3" paint-order="stroke">101</text>
<circle cx="500.9" cy="450.3" r="20.3" fill="white" fill-opacity="0.84"/>
<circle cx="500.9" cy="450.3" r="17.3" fill="#7A3CE8" fill-opacity="0.66" stroke="#111" stroke-width="2.5"/>
<text x="500.9" y="457.3" text-anchor="middle" font-family="Arial, Helvetica, sans-serif" font-size="21" font-weight="800" fill="white" stroke="#111" stroke-width="3" paint-order="stroke">102</text>
<circle cx="1004.2" cy="407.7" r="15.6" fill="white" fill-opacity="0.84"/>
<circle cx="1004.2" cy="407.7" r="12.6" fill="#7A3CE8" fill-opacity="0.66" stroke="#111" stroke-width="2.5"/>
<text x="1004.2" y="414.7" text-anchor="middle" font-family="Arial, Helvetica, sans-serif" font-size="21" font-weight="800" fill="white" stroke="#111" stroke-width="3" paint-order="stroke">103</text>
<circle cx="485.6" cy="441.3" r="17.3" fill="white" fill-opacity="0.84"/>
<circle cx="485.6" cy="441.3" r="14.3" fill="#7A3CE8" fill-opacity="0.66" stroke="#111" stroke-width="2.5"/>
<text x="485.6" y="448.3" text-anchor="middle" font-family="Arial, Helvetica, sans-serif" font-size="21" font-weight="800" fill="white" stroke="#111" stroke-width="3" paint-order="stroke">104</text>
<circle cx="1237.6" cy="376.8" r="21.4" fill="white" fill-opacity="0.84"/>
<circle cx="1237.6" cy="376.8" r="18.4" fill="#7A3CE8" fill-opacity="0.66" stroke="#111" stroke-width="2.5"/>
<text x="1237.6" y="383.8" text-anchor="middle" font-family="Arial, Helvetica, sans-serif" font-size="21" font-weight="800" fill="white" stroke="#111" stroke-width="3" paint-order="stroke">105</text>
<circle cx="1434.0" cy="380.1" r="19.6" fill="white" fill-opacity="0.84"/>
<circle cx="1434.0" cy="380.1" r="16.6" fill="#7A3CE8" fill-opacity="0.66" stroke="#111" stroke-width="2.5"/>
<text x="1434.0" y="387.1" text-anchor="middle" font-family="Arial, Helvetica, sans-serif" font-size="21" font-weight="800" fill="white" stroke="#111" stroke-width="3" paint-order="stroke">106</text>
<rect x="16" y="1094" width="1120" height="168" rx="8" fill="white" fill-opacity="0.92" stroke="#111" stroke-opacity="0.22"/>
<text x="36.0" y="1128.0" font-family="Arial, Helvetica, sans-serif" font-size="24" font-weight="600" fill="#111">K05 / k05.asc block 25 | clean-2-2-r.png | RT NA ms | 106 fixations</text>
<text x="36.0" y="1159.0" font-family="Arial, Helvetica, sans-serif" font-size="24" font-weight="600" fill="#111">numbers show fixation order; dot size shows fixation duration</text>
<circle cx="42" cy="1198" r="11" fill="#005DFF" fill-opacity="0.64" stroke="#111" stroke-width="2"/>
<text x="62.0" y="1206.0" font-family="Arial, Helvetica, sans-serif" font-size="22" font-weight="500" fill="#111">blue: before speech onset</text>
<circle cx="42" cy="1232" r="11" fill="#FF8A00" fill-opacity="0.64" stroke="#111" stroke-width="2"/>
<text x="62.0" y="1240.0" font-family="Arial, Helvetica, sans-serif" font-size="22" font-weight="500" fill="#111">orange: first 2000 ms after onset</text>
</svg>
