<svg xmlns="http://www.w3.org/2000/svg" width="1920" height="1320" viewBox="0 0 1920 1320">
<image href="https://raw.githubusercontent.com/mkurg/koryak/main/stimuli/Koryak%20stimuli%20animate%20inanimate/open-1-2-l.png" x="0" y="0" width="1920" height="1080" preserveAspectRatio="none"/>
<rect x="0" y="0" width="1920" height="1080" fill="none" stroke="#111" stroke-width="2"/>
<rect x="0" y="1080" width="1920" height="240" fill="#f7f7f7"/>
<rect x="40.0" y="100.0" width="850" height="850" fill="none" stroke="#00B8D9" stroke-width="6" stroke-dasharray="18 12"/>
<rect x="52.0" y="62.0" width="102.0" height="38" rx="6" fill="white" fill-opacity="0.86" stroke="#00B8D9" stroke-width="3"/>
<text x="62.0" y="88.0" font-family="Arial, Helvetica, sans-serif" font-size="24" font-weight="700" fill="#111">AGENT</text>
<rect x="970.0" y="100.0" width="850" height="850" fill="none" stroke="#FF3B8A" stroke-width="6" stroke-dasharray="18 12"/>
<rect x="982.0" y="62.0" width="134.0" height="38" rx="6" fill="white" fill-opacity="0.86" stroke="#FF3B8A" stroke-width="3"/>
<text x="992.0" y="88.0" font-family="Arial, Helvetica, sans-serif" font-size="24" font-weight="700" fill="#111">PATIENT</text>
<polyline points="716.0,484.4 651.9,424.1 642.8,434.8 764.7,578.4 608.0,374.3 990.5,530.7 1075.1,600.4 1088.2,610.5 788.8,636.5 776.1,646.7 733.5,650.4 1134.7,603.0 1093.0,621.7 876.4,644.0 750.8,663.8 710.0,653.8 849.4,662.9 875.9,730.5 1146.7,709.4 1134.4,769.5 1097.7,778.3 1150.4,651.0 1110.6,597.5 1123.9,611.9 1072.1,619.8 1104.6,645.6 1116.6,628.3 1249.6,614.0 1205.5,630.6 1408.1,646.8 1477.1,616.3 1431.8,614.9 1438.9,632.3 1222.4,630.7 1130.8,620.8 1112.4,633.0 1295.8,575.4 1220.3,590.5 1196.9,612.4 1195.6,623.7 1445.5,579.2 1148.0,604.1 1119.8,624.6 1141.8,633.6 1468.1,612.1 1202.4,631.6 1167.5,647.0 1161.7,651.7 1498.7,666.6 1224.5,654.2 1101.9,644.9 1134.6,616.1 1114.0,627.7 1143.9,635.1" fill="none" stroke="#111" stroke-width="4" stroke-opacity="0.36" stroke-linejoin="round"/>
<circle cx="716.0" cy="484.4" r="14.0" fill="white" fill-opacity="0.84"/>
<circle cx="716.0" cy="484.4" r="11.0" fill="#7A3CE8" fill-opacity="0.66" stroke="#111" stroke-width="2.5"/>
<text x="716.0" y="491.4" text-anchor="middle" font-family="Arial, Helvetica, sans-serif" font-size="21" font-weight="800" fill="white" stroke="#111" stroke-width="3" paint-order="stroke">1</text>
<circle cx="651.9" cy="424.1" r="17.5" fill="white" fill-opacity="0.84"/>
<circle cx="651.9" cy="424.1" r="14.5" fill="#7A3CE8" fill-opacity="0.66" stroke="#111" stroke-width="2.5"/>
<text x="651.9" y="431.1" text-anchor="middle" font-family="Arial, Helvetica, sans-serif" font-size="21" font-weight="800" fill="white" stroke="#111" stroke-width="3" paint-order="stroke">2</text>
<circle cx="642.8" cy="434.8" r="14.5" fill="white" fill-opacity="0.84"/>
<circle cx="642.8" cy="434.8" r="11.5" fill="#7A3CE8" fill-opacity="0.66" stroke="#111" stroke-width="2.5"/>
<text x="642.8" y="441.8" text-anchor="middle" font-family="Arial, Helvetica, sans-serif" font-size="21" font-weight="800" fill="white" stroke="#111" stroke-width="3" paint-order="stroke">3</text>
<circle cx="764.7" cy="578.4" r="15.9" fill="white" fill-opacity="0.84"/>
<circle cx="764.7" cy="578.4" r="12.9" fill="#7A3CE8" fill-opacity="0.66" stroke="#111" stroke-width="2.5"/>
<text x="764.7" y="585.4" text-anchor="middle" font-family="Arial, Helvetica, sans-serif" font-size="21" font-weight="800" fill="white" stroke="#111" stroke-width="3" paint-order="stroke">4</text>
<circle cx="608.0" cy="374.3" r="16.7" fill="white" fill-opacity="0.84"/>
<circle cx="608.0" cy="374.3" r="13.7" fill="#7A3CE8" fill-opacity="0.66" stroke="#111" stroke-width="2.5"/>
<text x="608.0" y="381.3" text-anchor="middle" font-family="Arial, Helvetica, sans-serif" font-size="21" font-weight="800" fill="white" stroke="#111" stroke-width="3" paint-order="stroke">5</text>
<circle cx="990.5" cy="530.7" r="14.2" fill="white" fill-opacity="0.84"/>
<circle cx="990.5" cy="530.7" r="11.2" fill="#7A3CE8" fill-opacity="0.66" stroke="#111" stroke-width="2.5"/>
<text x="990.5" y="537.7" text-anchor="middle" font-family="Arial, Helvetica, sans-serif" font-size="21" font-weight="800" fill="white" stroke="#111" stroke-width="3" paint-order="stroke">6</text>
<circle cx="1075.1" cy="600.4" r="15.7" fill="white" fill-opacity="0.84"/>
<circle cx="1075.1" cy="600.4" r="12.7" fill="#7A3CE8" fill-opacity="0.66" stroke="#111" stroke-width="2.5"/>
<text x="1075.1" y="607.4" text-anchor="middle" font-family="Arial, Helvetica, sans-serif" font-size="21" font-weight="800" fill="white" stroke="#111" stroke-width="3" paint-order="stroke">7</text>
<circle cx="1088.2" cy="610.5" r="16.8" fill="white" fill-opacity="0.84"/>
<circle cx="1088.2" cy="610.5" r="13.8" fill="#7A3CE8" fill-opacity="0.66" stroke="#111" stroke-width="2.5"/>
<text x="1088.2" y="617.5" text-anchor="middle" font-family="Arial, Helvetica, sans-serif" font-size="21" font-weight="800" fill="white" stroke="#111" stroke-width="3" paint-order="stroke">8</text>
<circle cx="788.8" cy="636.5" r="17.5" fill="white" fill-opacity="0.84"/>
<circle cx="788.8" cy="636.5" r="14.5" fill="#7A3CE8" fill-opacity="0.66" stroke="#111" stroke-width="2.5"/>
<text x="788.8" y="643.5" text-anchor="middle" font-family="Arial, Helvetica, sans-serif" font-size="21" font-weight="800" fill="white" stroke="#111" stroke-width="3" paint-order="stroke">9</text>
<circle cx="776.1" cy="646.7" r="16.5" fill="white" fill-opacity="0.84"/>
<circle cx="776.1" cy="646.7" r="13.5" fill="#7A3CE8" fill-opacity="0.66" stroke="#111" stroke-width="2.5"/>
<text x="776.1" y="653.7" text-anchor="middle" font-family="Arial, Helvetica, sans-serif" font-size="21" font-weight="800" fill="white" stroke="#111" stroke-width="3" paint-order="stroke">10</text>
<circle cx="733.5" cy="650.4" r="14.7" fill="white" fill-opacity="0.84"/>
<circle cx="733.5" cy="650.4" r="11.7" fill="#7A3CE8" fill-opacity="0.66" stroke="#111" stroke-width="2.5"/>
<text x="733.5" y="657.4" text-anchor="middle" font-family="Arial, Helvetica, sans-serif" font-size="21" font-weight="800" fill="white" stroke="#111" stroke-width="3" paint-order="stroke">11</text>
<circle cx="1134.7" cy="603.0" r="16.1" fill="white" fill-opacity="0.84"/>
<circle cx="1134.7" cy="603.0" r="13.1" fill="#7A3CE8" fill-opacity="0.66" stroke="#111" stroke-width="2.5"/>
<text x="1134.7" y="610.0" text-anchor="middle" font-family="Arial, Helvetica, sans-serif" font-size="21" font-weight="800" fill="white" stroke="#111" stroke-width="3" paint-order="stroke">12</text>
<circle cx="1093.0" cy="621.7" r="19.1" fill="white" fill-opacity="0.84"/>
<circle cx="1093.0" cy="621.7" r="16.1" fill="#7A3CE8" fill-opacity="0.66" stroke="#111" stroke-width="2.5"/>
<text x="1093.0" y="628.7" text-anchor="middle" font-family="Arial, Helvetica, sans-serif" font-size="21" font-weight="800" fill="white" stroke="#111" stroke-width="3" paint-order="stroke">13</text>
<circle cx="876.4" cy="644.0" r="14.9" fill="white" fill-opacity="0.84"/>
<circle cx="876.4" cy="644.0" r="11.9" fill="#7A3CE8" fill-opacity="0.66" stroke="#111" stroke-width="2.5"/>
<text x="876.4" y="651.0" text-anchor="middle" font-family="Arial, Helvetica, sans-serif" font-size="21" font-weight="800" fill="white" stroke="#111" stroke-width="3" paint-order="stroke">14</text>
<circle cx="750.8" cy="663.8" r="16.5" fill="white" fill-opacity="0.84"/>
<circle cx="750.8" cy="663.8" r="13.5" fill="#7A3CE8" fill-opacity="0.66" stroke="#111" stroke-width="2.5"/>
<text x="750.8" y="670.8" text-anchor="middle" font-family="Arial, Helvetica, sans-serif" font-size="21" font-weight="800" fill="white" stroke="#111" stroke-width="3" paint-order="stroke">15</text>
<circle cx="710.0" cy="653.8" r="19.8" fill="white" fill-opacity="0.84"/>
<circle cx="710.0" cy="653.8" r="16.8" fill="#7A3CE8" fill-opacity="0.66" stroke="#111" stroke-width="2.5"/>
<text x="710.0" y="660.8" text-anchor="middle" font-family="Arial, Helvetica, sans-serif" font-size="21" font-weight="800" fill="white" stroke="#111" stroke-width="3" paint-order="stroke">16</text>
<circle cx="849.4" cy="662.9" r="14.9" fill="white" fill-opacity="0.84"/>
<circle cx="849.4" cy="662.9" r="11.9" fill="#7A3CE8" fill-opacity="0.66" stroke="#111" stroke-width="2.5"/>
<text x="849.4" y="669.9" text-anchor="middle" font-family="Arial, Helvetica, sans-serif" font-size="21" font-weight="800" fill="white" stroke="#111" stroke-width="3" paint-order="stroke">17</text>
<circle cx="875.9" cy="730.5" r="14.4" fill="white" fill-opacity="0.84"/>
<circle cx="875.9" cy="730.5" r="11.4" fill="#7A3CE8" fill-opacity="0.66" stroke="#111" stroke-width="2.5"/>
<text x="875.9" y="737.5" text-anchor="middle" font-family="Arial, Helvetica, sans-serif" font-size="21" font-weight="800" fill="white" stroke="#111" stroke-width="3" paint-order="stroke">18</text>
<circle cx="1146.7" cy="709.4" r="18.2" fill="white" fill-opacity="0.84"/>
<circle cx="1146.7" cy="709.4" r="15.2" fill="#7A3CE8" fill-opacity="0.66" stroke="#111" stroke-width="2.5"/>
<text x="1146.7" y="716.4" text-anchor="middle" font-family="Arial, Helvetica, sans-serif" font-size="21" font-weight="800" fill="white" stroke="#111" stroke-width="3" paint-order="stroke">19</text>
<circle cx="1134.4" cy="769.5" r="12.7" fill="white" fill-opacity="0.84"/>
<circle cx="1134.4" cy="769.5" r="9.7" fill="#7A3CE8" fill-opacity="0.66" stroke="#111" stroke-width="2.5"/>
<text x="1134.4" y="776.5" text-anchor="middle" font-family="Arial, Helvetica, sans-serif" font-size="21" font-weight="800" fill="white" stroke="#111" stroke-width="3" paint-order="stroke">20</text>
<circle cx="1097.7" cy="778.3" r="14.0" fill="white" fill-opacity="0.84"/>
<circle cx="1097.7" cy="778.3" r="11.0" fill="#7A3CE8" fill-opacity="0.66" stroke="#111" stroke-width="2.5"/>
<text x="1097.7" y="785.3" text-anchor="middle" font-family="Arial, Helvetica, sans-serif" font-size="21" font-weight="800" fill="white" stroke="#111" stroke-width="3" paint-order="stroke">21</text>
<circle cx="1150.4" cy="651.0" r="20.2" fill="white" fill-opacity="0.84"/>
<circle cx="1150.4" cy="651.0" r="17.2" fill="#7A3CE8" fill-opacity="0.66" stroke="#111" stroke-width="2.5"/>
<text x="1150.4" y="658.0" text-anchor="middle" font-family="Arial, Helvetica, sans-serif" font-size="21" font-weight="800" fill="white" stroke="#111" stroke-width="3" paint-order="stroke">22</text>
<circle cx="1110.6" cy="597.5" r="14.8" fill="white" fill-opacity="0.84"/>
<circle cx="1110.6" cy="597.5" r="11.8" fill="#7A3CE8" fill-opacity="0.66" stroke="#111" stroke-width="2.5"/>
<text x="1110.6" y="604.5" text-anchor="middle" font-family="Arial, Helvetica, sans-serif" font-size="21" font-weight="800" fill="white" stroke="#111" stroke-width="3" paint-order="stroke">23</text>
<circle cx="1123.9" cy="611.9" r="15.7" fill="white" fill-opacity="0.84"/>
<circle cx="1123.9" cy="611.9" r="12.7" fill="#7A3CE8" fill-opacity="0.66" stroke="#111" stroke-width="2.5"/>
<text x="1123.9" y="618.9" text-anchor="middle" font-family="Arial, Helvetica, sans-serif" font-size="21" font-weight="800" fill="white" stroke="#111" stroke-width="3" paint-order="stroke">24</text>
<circle cx="1072.1" cy="619.8" r="13.8" fill="white" fill-opacity="0.84"/>
<circle cx="1072.1" cy="619.8" r="10.8" fill="#7A3CE8" fill-opacity="0.66" stroke="#111" stroke-width="2.5"/>
<text x="1072.1" y="626.8" text-anchor="middle" font-family="Arial, Helvetica, sans-serif" font-size="21" font-weight="800" fill="white" stroke="#111" stroke-width="3" paint-order="stroke">25</text>
<circle cx="1104.6" cy="645.6" r="21.7" fill="white" fill-opacity="0.84"/>
<circle cx="1104.6" cy="645.6" r="18.7" fill="#7A3CE8" fill-opacity="0.66" stroke="#111" stroke-width="2.5"/>
<text x="1104.6" y="652.6" text-anchor="middle" font-family="Arial, Helvetica, sans-serif" font-size="21" font-weight="800" fill="white" stroke="#111" stroke-width="3" paint-order="stroke">26</text>
<circle cx="1116.6" cy="628.3" r="17.8" fill="white" fill-opacity="0.84"/>
<circle cx="1116.6" cy="628.3" r="14.8" fill="#7A3CE8" fill-opacity="0.66" stroke="#111" stroke-width="2.5"/>
<text x="1116.6" y="635.3" text-anchor="middle" font-family="Arial, Helvetica, sans-serif" font-size="21" font-weight="800" fill="white" stroke="#111" stroke-width="3" paint-order="stroke">27</text>
<circle cx="1249.6" cy="614.0" r="16.9" fill="white" fill-opacity="0.84"/>
<circle cx="1249.6" cy="614.0" r="13.9" fill="#7A3CE8" fill-opacity="0.66" stroke="#111" stroke-width="2.5"/>
<text x="1249.6" y="621.0" text-anchor="middle" font-family="Arial, Helvetica, sans-serif" font-size="21" font-weight="800" fill="white" stroke="#111" stroke-width="3" paint-order="stroke">28</text>
<circle cx="1205.5" cy="630.6" r="14.7" fill="white" fill-opacity="0.84"/>
<circle cx="1205.5" cy="630.6" r="11.7" fill="#7A3CE8" fill-opacity="0.66" stroke="#111" stroke-width="2.5"/>
<text x="1205.5" y="637.6" text-anchor="middle" font-family="Arial, Helvetica, sans-serif" font-size="21" font-weight="800" fill="white" stroke="#111" stroke-width="3" paint-order="stroke">29</text>
<circle cx="1408.1" cy="646.8" r="16.4" fill="white" fill-opacity="0.84"/>
<circle cx="1408.1" cy="646.8" r="13.4" fill="#7A3CE8" fill-opacity="0.66" stroke="#111" stroke-width="2.5"/>
<text x="1408.1" y="653.8" text-anchor="middle" font-family="Arial, Helvetica, sans-serif" font-size="21" font-weight="800" fill="white" stroke="#111" stroke-width="3" paint-order="stroke">30</text>
<circle cx="1477.1" cy="616.3" r="14.5" fill="white" fill-opacity="0.84"/>
<circle cx="1477.1" cy="616.3" r="11.5" fill="#7A3CE8" fill-opacity="0.66" stroke="#111" stroke-width="2.5"/>
<text x="1477.1" y="623.3" text-anchor="middle" font-family="Arial, Helvetica, sans-serif" font-size="21" font-weight="800" fill="white" stroke="#111" stroke-width="3" paint-order="stroke">31</text>
<circle cx="1431.8" cy="614.9" r="15.0" fill="white" fill-opacity="0.84"/>
<circle cx="1431.8" cy="614.9" r="12.0" fill="#7A3CE8" fill-opacity="0.66" stroke="#111" stroke-width="2.5"/>
<text x="1431.8" y="621.9" text-anchor="middle" font-family="Arial, Helvetica, sans-serif" font-size="21" font-weight="800" fill="white" stroke="#111" stroke-width="3" paint-order="stroke">32</text>
<circle cx="1438.9" cy="632.3" r="16.8" fill="white" fill-opacity="0.84"/>
<circle cx="1438.9" cy="632.3" r="13.8" fill="#7A3CE8" fill-opacity="0.66" stroke="#111" stroke-width="2.5"/>
<text x="1438.9" y="639.3" text-anchor="middle" font-family="Arial, Helvetica, sans-serif" font-size="21" font-weight="800" fill="white" stroke="#111" stroke-width="3" paint-order="stroke">33</text>
<circle cx="1222.4" cy="630.7" r="14.5" fill="white" fill-opacity="0.84"/>
<circle cx="1222.4" cy="630.7" r="11.5" fill="#7A3CE8" fill-opacity="0.66" stroke="#111" stroke-width="2.5"/>
<text x="1222.4" y="637.7" text-anchor="middle" font-family="Arial, Helvetica, sans-serif" font-size="21" font-weight="800" fill="white" stroke="#111" stroke-width="3" paint-order="stroke">34</text>
<circle cx="1130.8" cy="620.8" r="16.4" fill="white" fill-opacity="0.84"/>
<circle cx="1130.8" cy="620.8" r="13.4" fill="#7A3CE8" fill-opacity="0.66" stroke="#111" stroke-width="2.5"/>
<text x="1130.8" y="627.8" text-anchor="middle" font-family="Arial, Helvetica, sans-serif" font-size="21" font-weight="800" fill="white" stroke="#111" stroke-width="3" paint-order="stroke">35</text>
<circle cx="1112.4" cy="633.0" r="19.2" fill="white" fill-opacity="0.84"/>
<circle cx="1112.4" cy="633.0" r="16.2" fill="#7A3CE8" fill-opacity="0.66" stroke="#111" stroke-width="2.5"/>
<text x="1112.4" y="640.0" text-anchor="middle" font-family="Arial, Helvetica, sans-serif" font-size="21" font-weight="800" fill="white" stroke="#111" stroke-width="3" paint-order="stroke">36</text>
<circle cx="1295.8" cy="575.4" r="16.3" fill="white" fill-opacity="0.84"/>
<circle cx="1295.8" cy="575.4" r="13.3" fill="#7A3CE8" fill-opacity="0.66" stroke="#111" stroke-width="2.5"/>
<text x="1295.8" y="582.4" text-anchor="middle" font-family="Arial, Helvetica, sans-serif" font-size="21" font-weight="800" fill="white" stroke="#111" stroke-width="3" paint-order="stroke">37</text>
<circle cx="1220.3" cy="590.5" r="16.3" fill="white" fill-opacity="0.84"/>
<circle cx="1220.3" cy="590.5" r="13.3" fill="#7A3CE8" fill-opacity="0.66" stroke="#111" stroke-width="2.5"/>
<text x="1220.3" y="597.5" text-anchor="middle" font-family="Arial, Helvetica, sans-serif" font-size="21" font-weight="800" fill="white" stroke="#111" stroke-width="3" paint-order="stroke">38</text>
<circle cx="1196.9" cy="612.4" r="15.2" fill="white" fill-opacity="0.84"/>
<circle cx="1196.9" cy="612.4" r="12.2" fill="#7A3CE8" fill-opacity="0.66" stroke="#111" stroke-width="2.5"/>
<text x="1196.9" y="619.4" text-anchor="middle" font-family="Arial, Helvetica, sans-serif" font-size="21" font-weight="800" fill="white" stroke="#111" stroke-width="3" paint-order="stroke">39</text>
<circle cx="1195.6" cy="623.7" r="14.4" fill="white" fill-opacity="0.84"/>
<circle cx="1195.6" cy="623.7" r="11.4" fill="#7A3CE8" fill-opacity="0.66" stroke="#111" stroke-width="2.5"/>
<text x="1195.6" y="630.7" text-anchor="middle" font-family="Arial, Helvetica, sans-serif" font-size="21" font-weight="800" fill="white" stroke="#111" stroke-width="3" paint-order="stroke">40</text>
<circle cx="1445.5" cy="579.2" r="13.7" fill="white" fill-opacity="0.84"/>
<circle cx="1445.5" cy="579.2" r="10.7" fill="#7A3CE8" fill-opacity="0.66" stroke="#111" stroke-width="2.5"/>
<text x="1445.5" y="586.2" text-anchor="middle" font-family="Arial, Helvetica, sans-serif" font-size="21" font-weight="800" fill="white" stroke="#111" stroke-width="3" paint-order="stroke">41</text>
<circle cx="1148.0" cy="604.1" r="16.0" fill="white" fill-opacity="0.84"/>
<circle cx="1148.0" cy="604.1" r="13.0" fill="#7A3CE8" fill-opacity="0.66" stroke="#111" stroke-width="2.5"/>
<text x="1148.0" y="611.1" text-anchor="middle" font-family="Arial, Helvetica, sans-serif" font-size="21" font-weight="800" fill="white" stroke="#111" stroke-width="3" paint-order="stroke">42</text>
<circle cx="1119.8" cy="624.6" r="16.4" fill="white" fill-opacity="0.84"/>
<circle cx="1119.8" cy="624.6" r="13.4" fill="#7A3CE8" fill-opacity="0.66" stroke="#111" stroke-width="2.5"/>
<text x="1119.8" y="631.6" text-anchor="middle" font-family="Arial, Helvetica, sans-serif" font-size="21" font-weight="800" fill="white" stroke="#111" stroke-width="3" paint-order="stroke">43</text>
<circle cx="1141.8" cy="633.6" r="17.7" fill="white" fill-opacity="0.84"/>
<circle cx="1141.8" cy="633.6" r="14.7" fill="#7A3CE8" fill-opacity="0.66" stroke="#111" stroke-width="2.5"/>
<text x="1141.8" y="640.6" text-anchor="middle" font-family="Arial, Helvetica, sans-serif" font-size="21" font-weight="800" fill="white" stroke="#111" stroke-width="3" paint-order="stroke">44</text>
<circle cx="1468.1" cy="612.1" r="17.8" fill="white" fill-opacity="0.84"/>
<circle cx="1468.1" cy="612.1" r="14.8" fill="#7A3CE8" fill-opacity="0.66" stroke="#111" stroke-width="2.5"/>
<text x="1468.1" y="619.1" text-anchor="middle" font-family="Arial, Helvetica, sans-serif" font-size="21" font-weight="800" fill="white" stroke="#111" stroke-width="3" paint-order="stroke">45</text>
<circle cx="1202.4" cy="631.6" r="16.7" fill="white" fill-opacity="0.84"/>
<circle cx="1202.4" cy="631.6" r="13.7" fill="#7A3CE8" fill-opacity="0.66" stroke="#111" stroke-width="2.5"/>
<text x="1202.4" y="638.6" text-anchor="middle" font-family="Arial, Helvetica, sans-serif" font-size="21" font-weight="800" fill="white" stroke="#111" stroke-width="3" paint-order="stroke">46</text>
<circle cx="1167.5" cy="647.0" r="13.1" fill="white" fill-opacity="0.84"/>
<circle cx="1167.5" cy="647.0" r="10.1" fill="#7A3CE8" fill-opacity="0.66" stroke="#111" stroke-width="2.5"/>
<text x="1167.5" y="654.0" text-anchor="middle" font-family="Arial, Helvetica, sans-serif" font-size="21" font-weight="800" fill="white" stroke="#111" stroke-width="3" paint-order="stroke">47</text>
<circle cx="1161.7" cy="651.7" r="12.2" fill="white" fill-opacity="0.84"/>
<circle cx="1161.7" cy="651.7" r="9.2" fill="#7A3CE8" fill-opacity="0.66" stroke="#111" stroke-width="2.5"/>
<text x="1161.7" y="658.7" text-anchor="middle" font-family="Arial, Helvetica, sans-serif" font-size="21" font-weight="800" fill="white" stroke="#111" stroke-width="3" paint-order="stroke">48</text>
<circle cx="1498.7" cy="666.6" r="18.9" fill="white" fill-opacity="0.84"/>
<circle cx="1498.7" cy="666.6" r="15.9" fill="#7A3CE8" fill-opacity="0.66" stroke="#111" stroke-width="2.5"/>
<text x="1498.7" y="673.6" text-anchor="middle" font-family="Arial, Helvetica, sans-serif" font-size="21" font-weight="800" fill="white" stroke="#111" stroke-width="3" paint-order="stroke">49</text>
<circle cx="1224.5" cy="654.2" r="13.5" fill="white" fill-opacity="0.84"/>
<circle cx="1224.5" cy="654.2" r="10.5" fill="#7A3CE8" fill-opacity="0.66" stroke="#111" stroke-width="2.5"/>
<text x="1224.5" y="661.2" text-anchor="middle" font-family="Arial, Helvetica, sans-serif" font-size="21" font-weight="800" fill="white" stroke="#111" stroke-width="3" paint-order="stroke">50</text>
<circle cx="1101.9" cy="644.9" r="18.7" fill="white" fill-opacity="0.84"/>
<circle cx="1101.9" cy="644.9" r="15.7" fill="#7A3CE8" fill-opacity="0.66" stroke="#111" stroke-width="2.5"/>
<text x="1101.9" y="651.9" text-anchor="middle" font-family="Arial, Helvetica, sans-serif" font-size="21" font-weight="800" fill="white" stroke="#111" stroke-width="3" paint-order="stroke">51</text>
<circle cx="1134.6" cy="616.1" r="15.4" fill="white" fill-opacity="0.84"/>
<circle cx="1134.6" cy="616.1" r="12.4" fill="#7A3CE8" fill-opacity="0.66" stroke="#111" stroke-width="2.5"/>
<text x="1134.6" y="623.1" text-anchor="middle" font-family="Arial, Helvetica, sans-serif" font-size="21" font-weight="800" fill="white" stroke="#111" stroke-width="3" paint-order="stroke">52</text>
<circle cx="1114.0" cy="627.7" r="16.7" fill="white" fill-opacity="0.84"/>
<circle cx="1114.0" cy="627.7" r="13.7" fill="#7A3CE8" fill-opacity="0.66" stroke="#111" stroke-width="2.5"/>
<text x="1114.0" y="634.7" text-anchor="middle" font-family="Arial, Helvetica, sans-serif" font-size="21" font-weight="800" fill="white" stroke="#111" stroke-width="3" paint-order="stroke">53</text>
<circle cx="1143.9" cy="635.1" r="12.2" fill="white" fill-opacity="0.84"/>
<circle cx="1143.9" cy="635.1" r="9.2" fill="#7A3CE8" fill-opacity="0.66" stroke="#111" stroke-width="2.5"/>
<text x="1143.9" y="642.1" text-anchor="middle" font-family="Arial, Helvetica, sans-serif" font-size="21" font-weight="800" fill="white" stroke="#111" stroke-width="3" paint-order="stroke">54</text>
<rect x="16" y="1094" width="1120" height="168" rx="8" fill="white" fill-opacity="0.92" stroke="#111" stroke-opacity="0.22"/>
<text x="36.0" y="1128.0" font-family="Arial, Helvetica, sans-serif" font-size="24" font-weight="600" fill="#111">K09 / k09.asc block 61 | open-1-2-l.png | RT NA ms | 54 fixations</text>
<text x="36.0" y="1159.0" font-family="Arial, Helvetica, sans-serif" font-size="24" font-weight="600" fill="#111">numbers show fixation order; dot size shows fixation duration</text>
<circle cx="42" cy="1198" r="11" fill="#005DFF" fill-opacity="0.64" stroke="#111" stroke-width="2"/>
<text x="62.0" y="1206.0" font-family="Arial, Helvetica, sans-serif" font-size="22" font-weight="500" fill="#111">blue: before speech onset</text>
<circle cx="42" cy="1232" r="11" fill="#FF8A00" fill-opacity="0.64" stroke="#111" stroke-width="2"/>
<text x="62.0" y="1240.0" font-family="Arial, Helvetica, sans-serif" font-size="22" font-weight="500" fill="#111">orange: first 2000 ms after onset</text>
</svg>
