<svg xmlns="http://www.w3.org/2000/svg" width="1920" height="1320" viewBox="0 0 1920 1320">
<image href="../../../../stimuli/Koryak%20stimuli%20animate%20inanimate/cover-2-1-l.png" x="0" y="0" width="1920" height="1080" preserveAspectRatio="none"/>
<rect x="0" y="0" width="1920" height="1080" fill="none" stroke="#111" stroke-width="2"/>
<rect x="0" y="1080" width="1920" height="240" fill="#f7f7f7"/>
<rect x="40.0" y="100.0" width="850" height="850" fill="none" stroke="#00B8D9" stroke-width="6" stroke-dasharray="18 12"/>
<rect x="52.0" y="62.0" width="102.0" height="38" rx="6" fill="white" fill-opacity="0.86" stroke="#00B8D9" stroke-width="3"/>
<text x="62.0" y="88.0" font-family="Arial, Helvetica, sans-serif" font-size="24" font-weight="700" fill="#111">AGENT</text>
<rect x="970.0" y="100.0" width="850" height="850" fill="none" stroke="#FF3B8A" stroke-width="6" stroke-dasharray="18 12"/>
<rect x="982.0" y="62.0" width="134.0" height="38" rx="6" fill="white" fill-opacity="0.86" stroke="#FF3B8A" stroke-width="3"/>
<text x="992.0" y="88.0" font-family="Arial, Helvetica, sans-serif" font-size="24" font-weight="700" fill="#111">PATIENT</text>
<polyline points="677.9,490.8 530.8,481.9 686.9,553.1 690.7,511.8 691.0,469.1 606.2,459.6 687.0,568.6 875.8,631.6 1089.3,780.6 819.5,705.7 861.1,735.0 796.9,653.9 772.0,569.2 1084.5,632.5 1143.4,670.7 839.8,582.1 798.1,585.4 761.8,568.5 688.9,588.5 788.0,622.2 801.2,512.8 752.9,514.6 1007.1,647.9 1145.1,716.7 1153.8,830.2 1131.8,805.2 1168.7,785.4 1142.2,770.5 1116.1,859.4 1145.9,885.3 1132.6,852.4 1170.7,818.2 1150.5,701.7 1083.2,746.6 1148.8,732.9 808.5,559.1 1020.4,679.4 1124.3,691.3 1154.9,706.8 801.5,673.1 858.9,616.7" fill="none" stroke="#111" stroke-width="4" stroke-opacity="0.36" stroke-linejoin="round"/>
<circle cx="677.9" cy="490.8" r="16.3" fill="white" fill-opacity="0.84"/>
<circle cx="677.9" cy="490.8" r="13.3" fill="#7A3CE8" fill-opacity="0.66" stroke="#111" stroke-width="2.5"/>
<text x="677.9" y="497.8" text-anchor="middle" font-family="Arial, Helvetica, sans-serif" font-size="21" font-weight="800" fill="white" stroke="#111" stroke-width="3" paint-order="stroke">1</text>
<circle cx="530.8" cy="481.9" r="16.2" fill="white" fill-opacity="0.84"/>
<circle cx="530.8" cy="481.9" r="13.2" fill="#7A3CE8" fill-opacity="0.66" stroke="#111" stroke-width="2.5"/>
<text x="530.8" y="488.9" text-anchor="middle" font-family="Arial, Helvetica, sans-serif" font-size="21" font-weight="800" fill="white" stroke="#111" stroke-width="3" paint-order="stroke">2</text>
<circle cx="686.9" cy="553.1" r="17.6" fill="white" fill-opacity="0.84"/>
<circle cx="686.9" cy="553.1" r="14.6" fill="#7A3CE8" fill-opacity="0.66" stroke="#111" stroke-width="2.5"/>
<text x="686.9" y="560.1" text-anchor="middle" font-family="Arial, Helvetica, sans-serif" font-size="21" font-weight="800" fill="white" stroke="#111" stroke-width="3" paint-order="stroke">3</text>
<circle cx="690.7" cy="511.8" r="15.9" fill="white" fill-opacity="0.84"/>
<circle cx="690.7" cy="511.8" r="12.9" fill="#7A3CE8" fill-opacity="0.66" stroke="#111" stroke-width="2.5"/>
<text x="690.7" y="518.8" text-anchor="middle" font-family="Arial, Helvetica, sans-serif" font-size="21" font-weight="800" fill="white" stroke="#111" stroke-width="3" paint-order="stroke">4</text>
<circle cx="691.0" cy="469.1" r="16.7" fill="white" fill-opacity="0.84"/>
<circle cx="691.0" cy="469.1" r="13.7" fill="#7A3CE8" fill-opacity="0.66" stroke="#111" stroke-width="2.5"/>
<text x="691.0" y="476.1" text-anchor="middle" font-family="Arial, Helvetica, sans-serif" font-size="21" font-weight="800" fill="white" stroke="#111" stroke-width="3" paint-order="stroke">5</text>
<circle cx="606.2" cy="459.6" r="21.5" fill="white" fill-opacity="0.84"/>
<circle cx="606.2" cy="459.6" r="18.5" fill="#7A3CE8" fill-opacity="0.66" stroke="#111" stroke-width="2.5"/>
<text x="606.2" y="466.6" text-anchor="middle" font-family="Arial, Helvetica, sans-serif" font-size="21" font-weight="800" fill="white" stroke="#111" stroke-width="3" paint-order="stroke">6</text>
<circle cx="687.0" cy="568.6" r="17.0" fill="white" fill-opacity="0.84"/>
<circle cx="687.0" cy="568.6" r="14.0" fill="#7A3CE8" fill-opacity="0.66" stroke="#111" stroke-width="2.5"/>
<text x="687.0" y="575.6" text-anchor="middle" font-family="Arial, Helvetica, sans-serif" font-size="21" font-weight="800" fill="white" stroke="#111" stroke-width="3" paint-order="stroke">7</text>
<circle cx="875.8" cy="631.6" r="12.8" fill="white" fill-opacity="0.84"/>
<circle cx="875.8" cy="631.6" r="9.8" fill="#7A3CE8" fill-opacity="0.66" stroke="#111" stroke-width="2.5"/>
<text x="875.8" y="638.6" text-anchor="middle" font-family="Arial, Helvetica, sans-serif" font-size="21" font-weight="800" fill="white" stroke="#111" stroke-width="3" paint-order="stroke">8</text>
<circle cx="1089.3" cy="780.6" r="13.9" fill="white" fill-opacity="0.84"/>
<circle cx="1089.3" cy="780.6" r="10.9" fill="#7A3CE8" fill-opacity="0.66" stroke="#111" stroke-width="2.5"/>
<text x="1089.3" y="787.6" text-anchor="middle" font-family="Arial, Helvetica, sans-serif" font-size="21" font-weight="800" fill="white" stroke="#111" stroke-width="3" paint-order="stroke">9</text>
<circle cx="819.5" cy="705.7" r="16.9" fill="white" fill-opacity="0.84"/>
<circle cx="819.5" cy="705.7" r="13.9" fill="#7A3CE8" fill-opacity="0.66" stroke="#111" stroke-width="2.5"/>
<text x="819.5" y="712.7" text-anchor="middle" font-family="Arial, Helvetica, sans-serif" font-size="21" font-weight="800" fill="white" stroke="#111" stroke-width="3" paint-order="stroke">10</text>
<circle cx="861.1" cy="735.0" r="19.4" fill="white" fill-opacity="0.84"/>
<circle cx="861.1" cy="735.0" r="16.4" fill="#7A3CE8" fill-opacity="0.66" stroke="#111" stroke-width="2.5"/>
<text x="861.1" y="742.0" text-anchor="middle" font-family="Arial, Helvetica, sans-serif" font-size="21" font-weight="800" fill="white" stroke="#111" stroke-width="3" paint-order="stroke">11</text>
<circle cx="796.9" cy="653.9" r="19.0" fill="white" fill-opacity="0.84"/>
<circle cx="796.9" cy="653.9" r="16.0" fill="#7A3CE8" fill-opacity="0.66" stroke="#111" stroke-width="2.5"/>
<text x="796.9" y="660.9" text-anchor="middle" font-family="Arial, Helvetica, sans-serif" font-size="21" font-weight="800" fill="white" stroke="#111" stroke-width="3" paint-order="stroke">12</text>
<circle cx="772.0" cy="569.2" r="16.9" fill="white" fill-opacity="0.84"/>
<circle cx="772.0" cy="569.2" r="13.9" fill="#7A3CE8" fill-opacity="0.66" stroke="#111" stroke-width="2.5"/>
<text x="772.0" y="576.2" text-anchor="middle" font-family="Arial, Helvetica, sans-serif" font-size="21" font-weight="800" fill="white" stroke="#111" stroke-width="3" paint-order="stroke">13</text>
<circle cx="1084.5" cy="632.5" r="15.2" fill="white" fill-opacity="0.84"/>
<circle cx="1084.5" cy="632.5" r="12.2" fill="#7A3CE8" fill-opacity="0.66" stroke="#111" stroke-width="2.5"/>
<text x="1084.5" y="639.5" text-anchor="middle" font-family="Arial, Helvetica, sans-serif" font-size="21" font-weight="800" fill="white" stroke="#111" stroke-width="3" paint-order="stroke">14</text>
<circle cx="1143.4" cy="670.7" r="13.5" fill="white" fill-opacity="0.84"/>
<circle cx="1143.4" cy="670.7" r="10.5" fill="#7A3CE8" fill-opacity="0.66" stroke="#111" stroke-width="2.5"/>
<text x="1143.4" y="677.7" text-anchor="middle" font-family="Arial, Helvetica, sans-serif" font-size="21" font-weight="800" fill="white" stroke="#111" stroke-width="3" paint-order="stroke">15</text>
<circle cx="839.8" cy="582.1" r="18.2" fill="white" fill-opacity="0.84"/>
<circle cx="839.8" cy="582.1" r="15.2" fill="#7A3CE8" fill-opacity="0.66" stroke="#111" stroke-width="2.5"/>
<text x="839.8" y="589.1" text-anchor="middle" font-family="Arial, Helvetica, sans-serif" font-size="21" font-weight="800" fill="white" stroke="#111" stroke-width="3" paint-order="stroke">16</text>
<circle cx="798.1" cy="585.4" r="19.1" fill="white" fill-opacity="0.84"/>
<circle cx="798.1" cy="585.4" r="16.1" fill="#7A3CE8" fill-opacity="0.66" stroke="#111" stroke-width="2.5"/>
<text x="798.1" y="592.4" text-anchor="middle" font-family="Arial, Helvetica, sans-serif" font-size="21" font-weight="800" fill="white" stroke="#111" stroke-width="3" paint-order="stroke">17</text>
<circle cx="761.8" cy="568.5" r="13.7" fill="white" fill-opacity="0.84"/>
<circle cx="761.8" cy="568.5" r="10.7" fill="#7A3CE8" fill-opacity="0.66" stroke="#111" stroke-width="2.5"/>
<text x="761.8" y="575.5" text-anchor="middle" font-family="Arial, Helvetica, sans-serif" font-size="21" font-weight="800" fill="white" stroke="#111" stroke-width="3" paint-order="stroke">18</text>
<circle cx="688.9" cy="588.5" r="17.6" fill="white" fill-opacity="0.84"/>
<circle cx="688.9" cy="588.5" r="14.6" fill="#7A3CE8" fill-opacity="0.66" stroke="#111" stroke-width="2.5"/>
<text x="688.9" y="595.5" text-anchor="middle" font-family="Arial, Helvetica, sans-serif" font-size="21" font-weight="800" fill="white" stroke="#111" stroke-width="3" paint-order="stroke">19</text>
<circle cx="788.0" cy="622.2" r="14.7" fill="white" fill-opacity="0.84"/>
<circle cx="788.0" cy="622.2" r="11.7" fill="#7A3CE8" fill-opacity="0.66" stroke="#111" stroke-width="2.5"/>
<text x="788.0" y="629.2" text-anchor="middle" font-family="Arial, Helvetica, sans-serif" font-size="21" font-weight="800" fill="white" stroke="#111" stroke-width="3" paint-order="stroke">20</text>
<circle cx="801.2" cy="512.8" r="18.6" fill="white" fill-opacity="0.84"/>
<circle cx="801.2" cy="512.8" r="15.6" fill="#7A3CE8" fill-opacity="0.66" stroke="#111" stroke-width="2.5"/>
<text x="801.2" y="519.8" text-anchor="middle" font-family="Arial, Helvetica, sans-serif" font-size="21" font-weight="800" fill="white" stroke="#111" stroke-width="3" paint-order="stroke">21</text>
<circle cx="752.9" cy="514.6" r="18.0" fill="white" fill-opacity="0.84"/>
<circle cx="752.9" cy="514.6" r="15.0" fill="#7A3CE8" fill-opacity="0.66" stroke="#111" stroke-width="2.5"/>
<text x="752.9" y="521.6" text-anchor="middle" font-family="Arial, Helvetica, sans-serif" font-size="21" font-weight="800" fill="white" stroke="#111" stroke-width="3" paint-order="stroke">22</text>
<circle cx="1007.1" cy="647.9" r="13.4" fill="white" fill-opacity="0.84"/>
<circle cx="1007.1" cy="647.9" r="10.4" fill="#7A3CE8" fill-opacity="0.66" stroke="#111" stroke-width="2.5"/>
<text x="1007.1" y="654.9" text-anchor="middle" font-family="Arial, Helvetica, sans-serif" font-size="21" font-weight="800" fill="white" stroke="#111" stroke-width="3" paint-order="stroke">23</text>
<circle cx="1145.1" cy="716.7" r="18.2" fill="white" fill-opacity="0.84"/>
<circle cx="1145.1" cy="716.7" r="15.2" fill="#7A3CE8" fill-opacity="0.66" stroke="#111" stroke-width="2.5"/>
<text x="1145.1" y="723.7" text-anchor="middle" font-family="Arial, Helvetica, sans-serif" font-size="21" font-weight="800" fill="white" stroke="#111" stroke-width="3" paint-order="stroke">24</text>
<circle cx="1153.8" cy="830.2" r="23.1" fill="white" fill-opacity="0.84"/>
<circle cx="1153.8" cy="830.2" r="20.1" fill="#7A3CE8" fill-opacity="0.66" stroke="#111" stroke-width="2.5"/>
<text x="1153.8" y="837.2" text-anchor="middle" font-family="Arial, Helvetica, sans-serif" font-size="21" font-weight="800" fill="white" stroke="#111" stroke-width="3" paint-order="stroke">25</text>
<circle cx="1131.8" cy="805.2" r="15.7" fill="white" fill-opacity="0.84"/>
<circle cx="1131.8" cy="805.2" r="12.7" fill="#7A3CE8" fill-opacity="0.66" stroke="#111" stroke-width="2.5"/>
<text x="1131.8" y="812.2" text-anchor="middle" font-family="Arial, Helvetica, sans-serif" font-size="21" font-weight="800" fill="white" stroke="#111" stroke-width="3" paint-order="stroke">26</text>
<circle cx="1168.7" cy="785.4" r="20.5" fill="white" fill-opacity="0.84"/>
<circle cx="1168.7" cy="785.4" r="17.5" fill="#7A3CE8" fill-opacity="0.66" stroke="#111" stroke-width="2.5"/>
<text x="1168.7" y="792.4" text-anchor="middle" font-family="Arial, Helvetica, sans-serif" font-size="21" font-weight="800" fill="white" stroke="#111" stroke-width="3" paint-order="stroke">27</text>
<circle cx="1142.2" cy="770.5" r="18.8" fill="white" fill-opacity="0.84"/>
<circle cx="1142.2" cy="770.5" r="15.8" fill="#7A3CE8" fill-opacity="0.66" stroke="#111" stroke-width="2.5"/>
<text x="1142.2" y="777.5" text-anchor="middle" font-family="Arial, Helvetica, sans-serif" font-size="21" font-weight="800" fill="white" stroke="#111" stroke-width="3" paint-order="stroke">28</text>
<circle cx="1116.1" cy="859.4" r="12.5" fill="white" fill-opacity="0.84"/>
<circle cx="1116.1" cy="859.4" r="9.5" fill="#7A3CE8" fill-opacity="0.66" stroke="#111" stroke-width="2.5"/>
<text x="1116.1" y="866.4" text-anchor="middle" font-family="Arial, Helvetica, sans-serif" font-size="21" font-weight="800" fill="white" stroke="#111" stroke-width="3" paint-order="stroke">29</text>
<circle cx="1145.9" cy="885.3" r="17.0" fill="white" fill-opacity="0.84"/>
<circle cx="1145.9" cy="885.3" r="14.0" fill="#7A3CE8" fill-opacity="0.66" stroke="#111" stroke-width="2.5"/>
<text x="1145.9" y="892.3" text-anchor="middle" font-family="Arial, Helvetica, sans-serif" font-size="21" font-weight="800" fill="white" stroke="#111" stroke-width="3" paint-order="stroke">30</text>
<circle cx="1132.6" cy="852.4" r="18.1" fill="white" fill-opacity="0.84"/>
<circle cx="1132.6" cy="852.4" r="15.1" fill="#7A3CE8" fill-opacity="0.66" stroke="#111" stroke-width="2.5"/>
<text x="1132.6" y="859.4" text-anchor="middle" font-family="Arial, Helvetica, sans-serif" font-size="21" font-weight="800" fill="white" stroke="#111" stroke-width="3" paint-order="stroke">31</text>
<circle cx="1170.7" cy="818.2" r="13.2" fill="white" fill-opacity="0.84"/>
<circle cx="1170.7" cy="818.2" r="10.2" fill="#7A3CE8" fill-opacity="0.66" stroke="#111" stroke-width="2.5"/>
<text x="1170.7" y="825.2" text-anchor="middle" font-family="Arial, Helvetica, sans-serif" font-size="21" font-weight="800" fill="white" stroke="#111" stroke-width="3" paint-order="stroke">32</text>
<circle cx="1150.5" cy="701.7" r="21.3" fill="white" fill-opacity="0.84"/>
<circle cx="1150.5" cy="701.7" r="18.3" fill="#7A3CE8" fill-opacity="0.66" stroke="#111" stroke-width="2.5"/>
<text x="1150.5" y="708.7" text-anchor="middle" font-family="Arial, Helvetica, sans-serif" font-size="21" font-weight="800" fill="white" stroke="#111" stroke-width="3" paint-order="stroke">33</text>
<circle cx="1083.2" cy="746.6" r="16.5" fill="white" fill-opacity="0.84"/>
<circle cx="1083.2" cy="746.6" r="13.5" fill="#7A3CE8" fill-opacity="0.66" stroke="#111" stroke-width="2.5"/>
<text x="1083.2" y="753.6" text-anchor="middle" font-family="Arial, Helvetica, sans-serif" font-size="21" font-weight="800" fill="white" stroke="#111" stroke-width="3" paint-order="stroke">34</text>
<circle cx="1148.8" cy="732.9" r="18.0" fill="white" fill-opacity="0.84"/>
<circle cx="1148.8" cy="732.9" r="15.0" fill="#7A3CE8" fill-opacity="0.66" stroke="#111" stroke-width="2.5"/>
<text x="1148.8" y="739.9" text-anchor="middle" font-family="Arial, Helvetica, sans-serif" font-size="21" font-weight="800" fill="white" stroke="#111" stroke-width="3" paint-order="stroke">35</text>
<circle cx="808.5" cy="559.1" r="16.7" fill="white" fill-opacity="0.84"/>
<circle cx="808.5" cy="559.1" r="13.7" fill="#7A3CE8" fill-opacity="0.66" stroke="#111" stroke-width="2.5"/>
<text x="808.5" y="566.1" text-anchor="middle" font-family="Arial, Helvetica, sans-serif" font-size="21" font-weight="800" fill="white" stroke="#111" stroke-width="3" paint-order="stroke">36</text>
<circle cx="1020.4" cy="679.4" r="13.5" fill="white" fill-opacity="0.84"/>
<circle cx="1020.4" cy="679.4" r="10.5" fill="#7A3CE8" fill-opacity="0.66" stroke="#111" stroke-width="2.5"/>
<text x="1020.4" y="686.4" text-anchor="middle" font-family="Arial, Helvetica, sans-serif" font-size="21" font-weight="800" fill="white" stroke="#111" stroke-width="3" paint-order="stroke">37</text>
<circle cx="1124.3" cy="691.3" r="19.6" fill="white" fill-opacity="0.84"/>
<circle cx="1124.3" cy="691.3" r="16.6" fill="#7A3CE8" fill-opacity="0.66" stroke="#111" stroke-width="2.5"/>
<text x="1124.3" y="698.3" text-anchor="middle" font-family="Arial, Helvetica, sans-serif" font-size="21" font-weight="800" fill="white" stroke="#111" stroke-width="3" paint-order="stroke">38</text>
<circle cx="1154.9" cy="706.8" r="14.8" fill="white" fill-opacity="0.84"/>
<circle cx="1154.9" cy="706.8" r="11.8" fill="#7A3CE8" fill-opacity="0.66" stroke="#111" stroke-width="2.5"/>
<text x="1154.9" y="713.8" text-anchor="middle" font-family="Arial, Helvetica, sans-serif" font-size="21" font-weight="800" fill="white" stroke="#111" stroke-width="3" paint-order="stroke">39</text>
<circle cx="801.5" cy="673.1" r="16.9" fill="white" fill-opacity="0.84"/>
<circle cx="801.5" cy="673.1" r="13.9" fill="#7A3CE8" fill-opacity="0.66" stroke="#111" stroke-width="2.5"/>
<text x="801.5" y="680.1" text-anchor="middle" font-family="Arial, Helvetica, sans-serif" font-size="21" font-weight="800" fill="white" stroke="#111" stroke-width="3" paint-order="stroke">40</text>
<circle cx="858.9" cy="616.7" r="14.3" fill="white" fill-opacity="0.84"/>
<circle cx="858.9" cy="616.7" r="11.3" fill="#7A3CE8" fill-opacity="0.66" stroke="#111" stroke-width="2.5"/>
<text x="858.9" y="623.7" text-anchor="middle" font-family="Arial, Helvetica, sans-serif" font-size="21" font-weight="800" fill="white" stroke="#111" stroke-width="3" paint-order="stroke">41</text>
<rect x="16" y="1094" width="1120" height="168" rx="8" fill="white" fill-opacity="0.92" stroke="#111" stroke-opacity="0.22"/>
<text x="36.0" y="1128.0" font-family="Arial, Helvetica, sans-serif" font-size="24" font-weight="600" fill="#111">K09 / k09.asc block 65 | cover-2-1-l.png | RT NA ms | 41 fixations</text>
<text x="36.0" y="1159.0" font-family="Arial, Helvetica, sans-serif" font-size="24" font-weight="600" fill="#111">numbers show fixation order; dot size shows fixation duration</text>
<circle cx="42" cy="1198" r="11" fill="#005DFF" fill-opacity="0.64" stroke="#111" stroke-width="2"/>
<text x="62.0" y="1206.0" font-family="Arial, Helvetica, sans-serif" font-size="22" font-weight="500" fill="#111">blue: before speech onset</text>
<circle cx="42" cy="1232" r="11" fill="#FF8A00" fill-opacity="0.64" stroke="#111" stroke-width="2"/>
<text x="62.0" y="1240.0" font-family="Arial, Helvetica, sans-serif" font-size="22" font-weight="500" fill="#111">orange: first 2000 ms after onset</text>
</svg>
