<svg xmlns="http://www.w3.org/2000/svg" width="900" height="560" viewBox="0 0 900 560">
<rect width="100%" height="100%" fill="white"/>
<style>
text { font-family: Arial, Helvetica, sans-serif; fill: #222; }
.title { font-size: 21px; font-weight: 700; }
.subtitle { font-size: 13px; fill: #555; }
.axis { stroke: #222; stroke-width: 1; }
.grid { stroke: #dddddd; stroke-width: 1; }
.tick { font-size: 12px; fill: #333; }
.label { font-size: 14px; fill: #222; }
.legend { font-size: 13px; fill: #222; }
.onset { font-size: 13px; font-weight: 700; fill: #222; }
</style>
<text class="title" x="453.0" y="30" text-anchor="middle">Active Trials: SOL less than type mean</text>
<text class="subtitle" x="453.0" y="51" text-anchor="middle">n = 239; type mean SOL = 2576 ms; dashed line = group mean SOL; plotted to +1500 ms</text>
<line class="grid" x1="86" x2="820" y1="470.00" y2="470.00"/>
<text class="tick" x="76" y="474.00" text-anchor="end">0.0</text>
<line class="grid" x1="86" x2="820" y1="430.20" y2="430.20"/>
<text class="tick" x="76" y="434.20" text-anchor="end">0.1</text>
<line class="grid" x1="86" x2="820" y1="390.40" y2="390.40"/>
<text class="tick" x="76" y="394.40" text-anchor="end">0.2</text>
<line class="grid" x1="86" x2="820" y1="350.60" y2="350.60"/>
<text class="tick" x="76" y="354.60" text-anchor="end">0.3</text>
<line class="grid" x1="86" x2="820" y1="310.80" y2="310.80"/>
<text class="tick" x="76" y="314.80" text-anchor="end">0.4</text>
<line class="grid" x1="86" x2="820" y1="271.00" y2="271.00"/>
<text class="tick" x="76" y="275.00" text-anchor="end">0.5</text>
<line class="grid" x1="86" x2="820" y1="231.20" y2="231.20"/>
<text class="tick" x="76" y="235.20" text-anchor="end">0.6</text>
<line class="grid" x1="86" x2="820" y1="191.40" y2="191.40"/>
<text class="tick" x="76" y="195.40" text-anchor="end">0.7</text>
<line class="grid" x1="86" x2="820" y1="151.60" y2="151.60"/>
<text class="tick" x="76" y="155.60" text-anchor="end">0.8</text>
<line class="grid" x1="86" x2="820" y1="111.80" y2="111.80"/>
<text class="tick" x="76" y="115.80" text-anchor="end">0.9</text>
<line class="grid" x1="86" x2="820" y1="72.00" y2="72.00"/>
<text class="tick" x="76" y="76.00" text-anchor="end">1.0</text>
<line class="grid" x1="86.00" x2="86.00" y1="72" y2="470"/>
<text class="tick" x="86.00" y="492" text-anchor="middle">0</text>
<line class="grid" x1="193.55" x2="193.55" y1="72" y2="470"/>
<text class="tick" x="193.55" y="492" text-anchor="middle">500</text>
<line class="grid" x1="301.10" x2="301.10" y1="72" y2="470"/>
<text class="tick" x="301.10" y="492" text-anchor="middle">1000</text>
<line class="grid" x1="408.65" x2="408.65" y1="72" y2="470"/>
<text class="tick" x="408.65" y="492" text-anchor="middle">1500</text>
<line class="grid" x1="516.20" x2="516.20" y1="72" y2="470"/>
<text class="tick" x="516.20" y="492" text-anchor="middle">2000</text>
<line class="grid" x1="623.75" x2="623.75" y1="72" y2="470"/>
<text class="tick" x="623.75" y="492" text-anchor="middle">2500</text>
<line class="grid" x1="731.29" x2="731.29" y1="72" y2="470"/>
<text class="tick" x="731.29" y="492" text-anchor="middle">3000</text>
<line class="grid" x1="819.92" x2="819.92" y1="72" y2="470"/>
<text class="tick" x="819.92" y="492" text-anchor="middle">3412</text>
<line class="axis" x1="86" x2="820" y1="470" y2="470"/>
<line class="axis" x1="86" x2="86" y1="72" y2="470"/>
<text class="label" x="453.0" y="532" text-anchor="middle">Time from sentence display (ms)</text>
<text class="label" x="22" y="271.0" text-anchor="middle" transform="rotate(-90 22 271.0)">Proportion of Looks</text>
<line x1="497.35" x2="497.35" y1="72" y2="470" stroke="#333333" stroke-width="2" stroke-dasharray="7 6"/>
<rect x="503.35" y="77" width="80" height="22" fill="white" opacity="0.92"/>
<text class="onset" x="509.35" y="92">1912 ms</text>
<polygon points="86.00,288.93 96.75,295.36 107.51,294.39 118.26,285.20 129.02,263.77 139.77,261.08 150.53,248.60 161.28,240.62 172.04,230.51 182.79,222.75 193.55,226.08 204.30,223.96 215.06,217.86 225.81,200.11 236.57,198.98 247.32,190.30 258.08,190.86 268.83,193.28 279.59,199.97 290.34,205.28 301.10,214.01 311.85,210.90 322.61,202.64 333.36,197.72 344.12,206.83 354.87,213.23 365.63,219.81 376.38,218.06 387.14,218.36 397.89,222.84 408.65,222.62 419.40,222.50 430.16,236.30 440.91,249.68 451.67,259.45 462.42,266.31 473.18,263.06 483.93,264.70 494.69,262.48 505.44,265.84 516.20,273.17 526.95,284.88 537.71,291.20 548.46,294.03 559.22,290.24 569.97,300.39 580.73,303.80 591.48,305.69 602.24,307.34 612.99,314.84 623.75,325.41 634.50,335.41 645.26,340.16 656.01,345.59 666.77,346.68 677.52,352.03 688.28,352.10 699.03,351.79 709.79,352.47 720.54,356.50 731.29,358.21 742.05,358.89 752.80,347.36 763.56,341.48 774.31,346.59 785.07,337.61 795.82,333.25 806.58,325.28 817.33,317.37 817.33,364.85 806.58,371.99 795.82,378.81 785.07,382.24 774.31,390.58 763.56,386.16 752.80,391.27 742.05,400.39 731.29,400.47 720.54,399.06 709.79,395.76 699.03,394.44 688.28,395.19 677.52,395.60 666.77,390.62 656.01,389.38 645.26,384.49 634.50,380.32 623.75,371.80 612.99,362.18 602.24,355.43 591.48,353.34 580.73,352.57 569.97,349.45 559.22,338.68 548.46,342.76 537.71,340.45 526.95,333.92 516.20,323.18 505.44,315.19 494.69,312.69 483.93,314.80 473.18,313.38 462.42,316.12 451.67,309.86 440.91,299.51 430.16,286.52 419.40,272.80 408.65,272.35 397.89,272.47 387.14,268.15 376.38,267.26 365.63,270.24 354.87,262.23 344.12,255.10 333.36,246.17 322.61,251.77 311.85,259.89 301.10,263.52 290.34,253.79 279.59,248.24 268.83,240.81 258.08,239.63 247.32,238.26 236.57,247.97 225.81,248.64 215.06,267.65 204.30,273.88 193.55,276.22 182.79,272.63 172.04,280.11 161.28,290.19 150.53,298.20 139.77,310.76 129.02,310.47 118.26,333.27 107.51,343.73 96.75,344.36 86.00,338.06" fill="#CC3311" opacity="0.12"/>
<path d="M86.00,313.50 L96.75,319.86 L107.51,319.06 L118.26,309.23 L129.02,287.12 L139.77,285.92 L150.53,273.40 L161.28,265.40 L172.04,255.31 L182.79,247.69 L193.55,251.15 L204.30,248.92 L215.06,242.76 L225.81,224.37 L236.57,223.47 L247.32,214.28 L258.08,215.25 L268.83,217.05 L279.59,224.11 L290.34,229.53 L301.10,238.76 L311.85,235.40 L322.61,227.20 L333.36,221.94 L344.12,230.97 L354.87,237.73 L365.63,245.02 L376.38,242.66 L387.14,243.26 L397.89,247.65 L408.65,247.49 L419.40,247.65 L430.16,261.41 L440.91,274.60 L451.67,284.66 L462.42,291.22 L473.18,288.22 L483.93,289.75 L494.69,287.59 L505.44,290.52 L516.20,298.18 L526.95,309.40 L537.71,315.83 L548.46,318.39 L559.22,314.46 L569.97,324.92 L580.73,328.19 L591.48,329.52 L602.24,331.38 L612.99,338.51 L623.75,348.60 L634.50,357.86 L645.26,362.32 L656.01,367.49 L666.77,368.65 L677.52,373.81 L688.28,373.65 L699.03,373.11 L709.79,374.11 L720.54,377.78 L731.29,379.34 L742.05,379.64 L752.80,369.32 L763.56,363.82 L774.31,368.58 L785.07,359.93 L795.82,356.03 L806.58,348.63 L817.33,341.11" fill="none" stroke="#CC3311" stroke-width="3" stroke-linejoin="round" stroke-linecap="round"/>
<polygon points="86.00,277.33 96.75,272.21 107.51,274.19 118.26,274.34 129.02,274.31 139.77,256.72 150.53,263.80 161.28,269.15 172.04,279.51 182.79,290.02 193.55,290.53 204.30,298.01 215.06,306.37 225.81,320.85 236.57,321.06 247.32,328.94 258.08,334.46 268.83,342.89 279.59,347.20 290.34,348.96 301.10,339.91 311.85,334.02 322.61,339.66 333.36,343.34 344.12,337.38 354.87,328.51 365.63,320.79 376.38,320.28 387.14,324.78 397.89,319.81 408.65,316.62 419.40,317.39 430.16,305.77 440.91,297.71 451.67,292.37 462.42,292.94 473.18,298.35 483.93,299.52 494.69,294.31 505.44,281.86 516.20,279.31 526.95,275.81 537.71,272.99 548.46,266.56 559.22,266.15 569.97,260.85 580.73,264.15 591.48,263.05 602.24,268.42 612.99,266.20 623.75,254.77 634.50,247.95 645.26,240.69 656.01,243.34 666.77,248.00 677.52,246.01 688.28,250.88 699.03,254.97 709.79,239.48 720.54,230.21 731.29,224.57 742.05,225.59 752.80,226.74 763.56,228.65 774.31,232.94 785.07,240.16 795.82,240.54 806.58,247.14 817.33,249.27 817.33,299.99 806.58,297.79 795.82,290.80 785.07,290.19 774.31,283.35 763.56,278.78 752.80,276.56 742.05,274.98 731.29,274.26 720.54,279.95 709.79,289.80 699.03,304.42 688.28,301.18 677.52,295.80 666.77,298.20 656.01,293.33 645.26,290.46 634.50,298.18 623.75,304.94 612.99,316.44 602.24,318.74 591.48,311.92 580.73,314.08 569.97,311.32 559.22,314.82 548.46,316.27 537.71,322.76 526.95,325.61 516.20,328.64 505.44,330.41 494.69,343.21 483.93,348.53 473.18,346.50 462.42,341.65 451.67,341.15 440.91,346.21 430.16,353.07 419.40,364.56 408.65,363.66 397.89,366.20 387.14,371.29 376.38,367.06 365.63,368.09 354.87,374.02 344.12,381.60 333.36,387.56 322.61,384.39 311.85,379.17 301.10,384.87 290.34,392.21 279.59,390.37 268.83,386.88 258.08,380.19 247.32,374.46 236.57,368.01 225.81,367.10 215.06,354.40 204.30,346.17 193.55,339.80 182.79,338.84 172.04,328.50 161.28,318.48 150.53,313.37 139.77,306.66 129.02,320.91 118.26,323.35 107.51,324.43 96.75,322.28 86.00,326.89" fill="#0077BB" opacity="0.12"/>
<path d="M86.00,302.11 L96.75,297.24 L107.51,299.31 L118.26,298.84 L129.02,297.61 L139.77,281.69 L150.53,288.59 L161.28,293.81 L172.04,304.01 L182.79,314.43 L193.55,315.16 L204.30,322.09 L215.06,330.38 L225.81,343.97 L236.57,344.54 L247.32,351.70 L258.08,357.33 L268.83,364.89 L279.59,368.78 L290.34,370.58 L301.10,362.39 L311.85,356.59 L322.61,362.02 L333.36,365.45 L344.12,359.49 L354.87,351.27 L365.63,344.44 L376.38,343.67 L387.14,348.04 L397.89,343.01 L408.65,340.14 L419.40,340.97 L430.16,329.42 L440.91,321.96 L451.67,316.76 L462.42,317.29 L473.18,322.42 L483.93,324.02 L494.69,318.76 L505.44,306.14 L516.20,303.97 L526.95,300.71 L537.71,297.88 L548.46,291.42 L559.22,290.48 L569.97,286.09 L580.73,289.12 L591.48,287.49 L602.24,293.58 L612.99,291.32 L623.75,279.86 L634.50,273.06 L645.26,265.57 L656.01,268.34 L666.77,273.10 L677.52,270.90 L688.28,276.03 L699.03,279.69 L709.79,264.64 L720.54,255.08 L731.29,249.42 L742.05,250.28 L752.80,251.65 L763.56,253.71 L774.31,258.14 L785.07,265.17 L795.82,265.67 L806.58,272.47 L817.33,274.63" fill="none" stroke="#0077BB" stroke-width="3" stroke-linejoin="round" stroke-linecap="round"/>
<line x1="655" x2="683" y1="107" y2="107" stroke="#CC3311" stroke-width="3"/>
<text class="legend" x="693" y="111">Agent</text>
<line x1="655" x2="683" y1="129" y2="129" stroke="#0077BB" stroke-width="3"/>
<text class="legend" x="693" y="133">Patient</text>
<line x1="655" x2="683" y1="151" y2="151" stroke="#333333" stroke-width="2" stroke-dasharray="7 6"/>
<text class="legend" x="693" y="155">Group mean SOL</text>
</svg>