<svg xmlns="http://www.w3.org/2000/svg" width="1920" height="1320" viewBox="0 0 1920 1320">
<image href="../../../../stimuli/Animate-animate%20centered%20and%20flipped/dress-1-2-l.png" x="0" y="0" width="1920" height="1080" preserveAspectRatio="none"/>
<rect x="0" y="0" width="1920" height="1080" fill="none" stroke="#111" stroke-width="2"/>
<rect x="0" y="1080" width="1920" height="240" fill="#f7f7f7"/>
<rect x="40.0" y="100.0" width="850" height="850" fill="none" stroke="#00B8D9" stroke-width="6" stroke-dasharray="18 12"/>
<rect x="52.0" y="62.0" width="102.0" height="38" rx="6" fill="white" fill-opacity="0.86" stroke="#00B8D9" stroke-width="3"/>
<text x="62.0" y="88.0" font-family="Arial, Helvetica, sans-serif" font-size="24" font-weight="700" fill="#111">AGENT</text>
<rect x="970.0" y="100.0" width="850" height="850" fill="none" stroke="#FF3B8A" stroke-width="6" stroke-dasharray="18 12"/>
<rect x="982.0" y="62.0" width="134.0" height="38" rx="6" fill="white" fill-opacity="0.86" stroke="#FF3B8A" stroke-width="3"/>
<text x="992.0" y="88.0" font-family="Arial, Helvetica, sans-serif" font-size="24" font-weight="700" fill="#111">PATIENT</text>
<polyline points="982.9,489.0 1210.0,249.1 863.7,516.2 1203.0,295.6 1378.9,413.0 783.7,487.1 609.8,515.4 674.2,574.0 1417.3,331.1 1241.4,274.0 629.3,289.3 672.6,300.4 1345.3,278.9 1510.3,329.9 1345.7,538.8 726.7,598.5 812.5,501.1 612.6,538.9 784.6,579.6 867.4,602.5 1036.5,541.0 589.8,654.2 1388.1,752.5 948.5,659.6 714.1,700.9 854.6,608.8 1339.3,330.6 1229.1,313.7 644.8,658.0 881.8,619.2 883.9,620.2 884.1,620.2 1196.2,269.8 1031.1,540.3 1045.5,447.4 988.2,501.5 1028.9,597.8 607.7,480.1 809.7,553.8 1306.5,519.3 1470.5,324.7 1338.2,482.7 1029.0,518.8 850.5,348.4 833.3,342.7 704.9,373.7 1077.8,768.0 1182.5,656.3 1215.8,550.3 823.6,631.7 837.7,579.8 635.5,430.0 1397.9,377.7 1337.7,311.5 1242.6,361.6 1289.6,889.6 1023.1,747.0 810.3,633.2 889.8,570.4 893.5,573.8 1358.8,511.4 1082.4,531.1 1266.0,513.6 775.3,586.4 770.0,580.8 1190.3,677.3 823.2,583.5 823.5,588.3 854.9,475.6 1202.2,521.9 1182.9,565.2 1132.4,469.1 1273.2,368.5 1283.8,329.6 675.9,372.7 651.2,314.8 685.1,716.9 1452.5,522.5 1436.5,260.9 1494.4,280.6 1233.5,284.4 704.1,293.0 1016.5,720.8 902.7,652.1" fill="none" stroke="#111" stroke-width="4" stroke-opacity="0.36" stroke-linejoin="round"/>
<circle cx="982.9" cy="489.0" r="16.0" fill="white" fill-opacity="0.84"/>
<circle cx="982.9" cy="489.0" r="13.0" fill="#7A3CE8" fill-opacity="0.66" stroke="#111" stroke-width="2.5"/>
<text x="982.9" y="496.0" text-anchor="middle" font-family="Arial, Helvetica, sans-serif" font-size="21" font-weight="800" fill="white" stroke="#111" stroke-width="3" paint-order="stroke">1</text>
<circle cx="1210.0" cy="249.1" r="15.4" fill="white" fill-opacity="0.84"/>
<circle cx="1210.0" cy="249.1" r="12.4" fill="#7A3CE8" fill-opacity="0.66" stroke="#111" stroke-width="2.5"/>
<text x="1210.0" y="256.1" text-anchor="middle" font-family="Arial, Helvetica, sans-serif" font-size="21" font-weight="800" fill="white" stroke="#111" stroke-width="3" paint-order="stroke">2</text>
<circle cx="863.7" cy="516.2" r="20.3" fill="white" fill-opacity="0.84"/>
<circle cx="863.7" cy="516.2" r="17.3" fill="#7A3CE8" fill-opacity="0.66" stroke="#111" stroke-width="2.5"/>
<text x="863.7" y="523.2" text-anchor="middle" font-family="Arial, Helvetica, sans-serif" font-size="21" font-weight="800" fill="white" stroke="#111" stroke-width="3" paint-order="stroke">3</text>
<circle cx="1203.0" cy="295.6" r="18.7" fill="white" fill-opacity="0.84"/>
<circle cx="1203.0" cy="295.6" r="15.7" fill="#7A3CE8" fill-opacity="0.66" stroke="#111" stroke-width="2.5"/>
<text x="1203.0" y="302.6" text-anchor="middle" font-family="Arial, Helvetica, sans-serif" font-size="21" font-weight="800" fill="white" stroke="#111" stroke-width="3" paint-order="stroke">4</text>
<circle cx="1378.9" cy="413.0" r="19.1" fill="white" fill-opacity="0.84"/>
<circle cx="1378.9" cy="413.0" r="16.1" fill="#7A3CE8" fill-opacity="0.66" stroke="#111" stroke-width="2.5"/>
<text x="1378.9" y="420.0" text-anchor="middle" font-family="Arial, Helvetica, sans-serif" font-size="21" font-weight="800" fill="white" stroke="#111" stroke-width="3" paint-order="stroke">5</text>
<circle cx="783.7" cy="487.1" r="19.9" fill="white" fill-opacity="0.84"/>
<circle cx="783.7" cy="487.1" r="16.9" fill="#7A3CE8" fill-opacity="0.66" stroke="#111" stroke-width="2.5"/>
<text x="783.7" y="494.1" text-anchor="middle" font-family="Arial, Helvetica, sans-serif" font-size="21" font-weight="800" fill="white" stroke="#111" stroke-width="3" paint-order="stroke">6</text>
<circle cx="609.8" cy="515.4" r="19.4" fill="white" fill-opacity="0.84"/>
<circle cx="609.8" cy="515.4" r="16.4" fill="#7A3CE8" fill-opacity="0.66" stroke="#111" stroke-width="2.5"/>
<text x="609.8" y="522.4" text-anchor="middle" font-family="Arial, Helvetica, sans-serif" font-size="21" font-weight="800" fill="white" stroke="#111" stroke-width="3" paint-order="stroke">7</text>
<circle cx="674.2" cy="574.0" r="16.7" fill="white" fill-opacity="0.84"/>
<circle cx="674.2" cy="574.0" r="13.7" fill="#7A3CE8" fill-opacity="0.66" stroke="#111" stroke-width="2.5"/>
<text x="674.2" y="581.0" text-anchor="middle" font-family="Arial, Helvetica, sans-serif" font-size="21" font-weight="800" fill="white" stroke="#111" stroke-width="3" paint-order="stroke">8</text>
<circle cx="1417.3" cy="331.1" r="18.4" fill="white" fill-opacity="0.84"/>
<circle cx="1417.3" cy="331.1" r="15.4" fill="#7A3CE8" fill-opacity="0.66" stroke="#111" stroke-width="2.5"/>
<text x="1417.3" y="338.1" text-anchor="middle" font-family="Arial, Helvetica, sans-serif" font-size="21" font-weight="800" fill="white" stroke="#111" stroke-width="3" paint-order="stroke">9</text>
<circle cx="1241.4" cy="274.0" r="17.2" fill="white" fill-opacity="0.84"/>
<circle cx="1241.4" cy="274.0" r="14.2" fill="#7A3CE8" fill-opacity="0.66" stroke="#111" stroke-width="2.5"/>
<text x="1241.4" y="281.0" text-anchor="middle" font-family="Arial, Helvetica, sans-serif" font-size="21" font-weight="800" fill="white" stroke="#111" stroke-width="3" paint-order="stroke">10</text>
<circle cx="629.3" cy="289.3" r="19.6" fill="white" fill-opacity="0.84"/>
<circle cx="629.3" cy="289.3" r="16.6" fill="#7A3CE8" fill-opacity="0.66" stroke="#111" stroke-width="2.5"/>
<text x="629.3" y="296.3" text-anchor="middle" font-family="Arial, Helvetica, sans-serif" font-size="21" font-weight="800" fill="white" stroke="#111" stroke-width="3" paint-order="stroke">11</text>
<circle cx="672.6" cy="300.4" r="18.5" fill="white" fill-opacity="0.84"/>
<circle cx="672.6" cy="300.4" r="15.5" fill="#7A3CE8" fill-opacity="0.66" stroke="#111" stroke-width="2.5"/>
<text x="672.6" y="307.4" text-anchor="middle" font-family="Arial, Helvetica, sans-serif" font-size="21" font-weight="800" fill="white" stroke="#111" stroke-width="3" paint-order="stroke">12</text>
<circle cx="1345.3" cy="278.9" r="17.7" fill="white" fill-opacity="0.84"/>
<circle cx="1345.3" cy="278.9" r="14.7" fill="#7A3CE8" fill-opacity="0.66" stroke="#111" stroke-width="2.5"/>
<text x="1345.3" y="285.9" text-anchor="middle" font-family="Arial, Helvetica, sans-serif" font-size="21" font-weight="800" fill="white" stroke="#111" stroke-width="3" paint-order="stroke">13</text>
<circle cx="1510.3" cy="329.9" r="18.0" fill="white" fill-opacity="0.84"/>
<circle cx="1510.3" cy="329.9" r="15.0" fill="#7A3CE8" fill-opacity="0.66" stroke="#111" stroke-width="2.5"/>
<text x="1510.3" y="336.9" text-anchor="middle" font-family="Arial, Helvetica, sans-serif" font-size="21" font-weight="800" fill="white" stroke="#111" stroke-width="3" paint-order="stroke">14</text>
<circle cx="1345.7" cy="538.8" r="16.4" fill="white" fill-opacity="0.84"/>
<circle cx="1345.7" cy="538.8" r="13.4" fill="#7A3CE8" fill-opacity="0.66" stroke="#111" stroke-width="2.5"/>
<text x="1345.7" y="545.8" text-anchor="middle" font-family="Arial, Helvetica, sans-serif" font-size="21" font-weight="800" fill="white" stroke="#111" stroke-width="3" paint-order="stroke">15</text>
<circle cx="726.7" cy="598.5" r="17.4" fill="white" fill-opacity="0.84"/>
<circle cx="726.7" cy="598.5" r="14.4" fill="#7A3CE8" fill-opacity="0.66" stroke="#111" stroke-width="2.5"/>
<text x="726.7" y="605.5" text-anchor="middle" font-family="Arial, Helvetica, sans-serif" font-size="21" font-weight="800" fill="white" stroke="#111" stroke-width="3" paint-order="stroke">16</text>
<circle cx="812.5" cy="501.1" r="21.8" fill="white" fill-opacity="0.84"/>
<circle cx="812.5" cy="501.1" r="18.8" fill="#7A3CE8" fill-opacity="0.66" stroke="#111" stroke-width="2.5"/>
<text x="812.5" y="508.1" text-anchor="middle" font-family="Arial, Helvetica, sans-serif" font-size="21" font-weight="800" fill="white" stroke="#111" stroke-width="3" paint-order="stroke">17</text>
<circle cx="612.6" cy="538.9" r="21.8" fill="white" fill-opacity="0.84"/>
<circle cx="612.6" cy="538.9" r="18.8" fill="#7A3CE8" fill-opacity="0.66" stroke="#111" stroke-width="2.5"/>
<text x="612.6" y="545.9" text-anchor="middle" font-family="Arial, Helvetica, sans-serif" font-size="21" font-weight="800" fill="white" stroke="#111" stroke-width="3" paint-order="stroke">18</text>
<circle cx="784.6" cy="579.6" r="21.8" fill="white" fill-opacity="0.84"/>
<circle cx="784.6" cy="579.6" r="18.8" fill="#7A3CE8" fill-opacity="0.66" stroke="#111" stroke-width="2.5"/>
<text x="784.6" y="586.6" text-anchor="middle" font-family="Arial, Helvetica, sans-serif" font-size="21" font-weight="800" fill="white" stroke="#111" stroke-width="3" paint-order="stroke">19</text>
<circle cx="867.4" cy="602.5" r="21.3" fill="white" fill-opacity="0.84"/>
<circle cx="867.4" cy="602.5" r="18.3" fill="#7A3CE8" fill-opacity="0.66" stroke="#111" stroke-width="2.5"/>
<text x="867.4" y="609.5" text-anchor="middle" font-family="Arial, Helvetica, sans-serif" font-size="21" font-weight="800" fill="white" stroke="#111" stroke-width="3" paint-order="stroke">20</text>
<circle cx="1036.5" cy="541.0" r="27.5" fill="white" fill-opacity="0.84"/>
<circle cx="1036.5" cy="541.0" r="24.5" fill="#7A3CE8" fill-opacity="0.66" stroke="#111" stroke-width="2.5"/>
<text x="1036.5" y="548.0" text-anchor="middle" font-family="Arial, Helvetica, sans-serif" font-size="21" font-weight="800" fill="white" stroke="#111" stroke-width="3" paint-order="stroke">21</text>
<circle cx="589.8" cy="654.2" r="18.9" fill="white" fill-opacity="0.84"/>
<circle cx="589.8" cy="654.2" r="15.9" fill="#7A3CE8" fill-opacity="0.66" stroke="#111" stroke-width="2.5"/>
<text x="589.8" y="661.2" text-anchor="middle" font-family="Arial, Helvetica, sans-serif" font-size="21" font-weight="800" fill="white" stroke="#111" stroke-width="3" paint-order="stroke">22</text>
<circle cx="1388.1" cy="752.5" r="16.7" fill="white" fill-opacity="0.84"/>
<circle cx="1388.1" cy="752.5" r="13.7" fill="#7A3CE8" fill-opacity="0.66" stroke="#111" stroke-width="2.5"/>
<text x="1388.1" y="759.5" text-anchor="middle" font-family="Arial, Helvetica, sans-serif" font-size="21" font-weight="800" fill="white" stroke="#111" stroke-width="3" paint-order="stroke">23</text>
<circle cx="948.5" cy="659.6" r="15.4" fill="white" fill-opacity="0.84"/>
<circle cx="948.5" cy="659.6" r="12.4" fill="#7A3CE8" fill-opacity="0.66" stroke="#111" stroke-width="2.5"/>
<text x="948.5" y="666.6" text-anchor="middle" font-family="Arial, Helvetica, sans-serif" font-size="21" font-weight="800" fill="white" stroke="#111" stroke-width="3" paint-order="stroke">24</text>
<circle cx="714.1" cy="700.9" r="17.4" fill="white" fill-opacity="0.84"/>
<circle cx="714.1" cy="700.9" r="14.4" fill="#7A3CE8" fill-opacity="0.66" stroke="#111" stroke-width="2.5"/>
<text x="714.1" y="707.9" text-anchor="middle" font-family="Arial, Helvetica, sans-serif" font-size="21" font-weight="800" fill="white" stroke="#111" stroke-width="3" paint-order="stroke">25</text>
<circle cx="854.6" cy="608.8" r="13.3" fill="white" fill-opacity="0.84"/>
<circle cx="854.6" cy="608.8" r="10.3" fill="#7A3CE8" fill-opacity="0.66" stroke="#111" stroke-width="2.5"/>
<text x="854.6" y="615.8" text-anchor="middle" font-family="Arial, Helvetica, sans-serif" font-size="21" font-weight="800" fill="white" stroke="#111" stroke-width="3" paint-order="stroke">26</text>
<circle cx="1339.3" cy="330.6" r="19.6" fill="white" fill-opacity="0.84"/>
<circle cx="1339.3" cy="330.6" r="16.6" fill="#7A3CE8" fill-opacity="0.66" stroke="#111" stroke-width="2.5"/>
<text x="1339.3" y="337.6" text-anchor="middle" font-family="Arial, Helvetica, sans-serif" font-size="21" font-weight="800" fill="white" stroke="#111" stroke-width="3" paint-order="stroke">27</text>
<circle cx="1229.1" cy="313.7" r="16.9" fill="white" fill-opacity="0.84"/>
<circle cx="1229.1" cy="313.7" r="13.9" fill="#7A3CE8" fill-opacity="0.66" stroke="#111" stroke-width="2.5"/>
<text x="1229.1" y="320.7" text-anchor="middle" font-family="Arial, Helvetica, sans-serif" font-size="21" font-weight="800" fill="white" stroke="#111" stroke-width="3" paint-order="stroke">28</text>
<circle cx="644.8" cy="658.0" r="20.9" fill="white" fill-opacity="0.84"/>
<circle cx="644.8" cy="658.0" r="17.9" fill="#7A3CE8" fill-opacity="0.66" stroke="#111" stroke-width="2.5"/>
<text x="644.8" y="665.0" text-anchor="middle" font-family="Arial, Helvetica, sans-serif" font-size="21" font-weight="800" fill="white" stroke="#111" stroke-width="3" paint-order="stroke">29</text>
<circle cx="881.8" cy="619.2" r="13.4" fill="white" fill-opacity="0.84"/>
<circle cx="881.8" cy="619.2" r="10.4" fill="#7A3CE8" fill-opacity="0.66" stroke="#111" stroke-width="2.5"/>
<text x="881.8" y="626.2" text-anchor="middle" font-family="Arial, Helvetica, sans-serif" font-size="21" font-weight="800" fill="white" stroke="#111" stroke-width="3" paint-order="stroke">30</text>
<circle cx="883.9" cy="620.2" r="13.5" fill="white" fill-opacity="0.84"/>
<circle cx="883.9" cy="620.2" r="10.5" fill="#7A3CE8" fill-opacity="0.66" stroke="#111" stroke-width="2.5"/>
<text x="883.9" y="627.2" text-anchor="middle" font-family="Arial, Helvetica, sans-serif" font-size="21" font-weight="800" fill="white" stroke="#111" stroke-width="3" paint-order="stroke">31</text>
<circle cx="884.1" cy="620.2" r="12.4" fill="white" fill-opacity="0.84"/>
<circle cx="884.1" cy="620.2" r="9.4" fill="#7A3CE8" fill-opacity="0.66" stroke="#111" stroke-width="2.5"/>
<text x="884.1" y="627.2" text-anchor="middle" font-family="Arial, Helvetica, sans-serif" font-size="21" font-weight="800" fill="white" stroke="#111" stroke-width="3" paint-order="stroke">32</text>
<circle cx="1196.2" cy="269.8" r="18.0" fill="white" fill-opacity="0.84"/>
<circle cx="1196.2" cy="269.8" r="15.0" fill="#7A3CE8" fill-opacity="0.66" stroke="#111" stroke-width="2.5"/>
<text x="1196.2" y="276.8" text-anchor="middle" font-family="Arial, Helvetica, sans-serif" font-size="21" font-weight="800" fill="white" stroke="#111" stroke-width="3" paint-order="stroke">33</text>
<circle cx="1031.1" cy="540.3" r="14.4" fill="white" fill-opacity="0.84"/>
<circle cx="1031.1" cy="540.3" r="11.4" fill="#7A3CE8" fill-opacity="0.66" stroke="#111" stroke-width="2.5"/>
<text x="1031.1" y="547.3" text-anchor="middle" font-family="Arial, Helvetica, sans-serif" font-size="21" font-weight="800" fill="white" stroke="#111" stroke-width="3" paint-order="stroke">34</text>
<circle cx="1045.5" cy="447.4" r="13.9" fill="white" fill-opacity="0.84"/>
<circle cx="1045.5" cy="447.4" r="10.9" fill="#7A3CE8" fill-opacity="0.66" stroke="#111" stroke-width="2.5"/>
<text x="1045.5" y="454.4" text-anchor="middle" font-family="Arial, Helvetica, sans-serif" font-size="21" font-weight="800" fill="white" stroke="#111" stroke-width="3" paint-order="stroke">35</text>
<circle cx="988.2" cy="501.5" r="17.2" fill="white" fill-opacity="0.84"/>
<circle cx="988.2" cy="501.5" r="14.2" fill="#7A3CE8" fill-opacity="0.66" stroke="#111" stroke-width="2.5"/>
<text x="988.2" y="508.5" text-anchor="middle" font-family="Arial, Helvetica, sans-serif" font-size="21" font-weight="800" fill="white" stroke="#111" stroke-width="3" paint-order="stroke">36</text>
<circle cx="1028.9" cy="597.8" r="16.5" fill="white" fill-opacity="0.84"/>
<circle cx="1028.9" cy="597.8" r="13.5" fill="#7A3CE8" fill-opacity="0.66" stroke="#111" stroke-width="2.5"/>
<text x="1028.9" y="604.8" text-anchor="middle" font-family="Arial, Helvetica, sans-serif" font-size="21" font-weight="800" fill="white" stroke="#111" stroke-width="3" paint-order="stroke">37</text>
<circle cx="607.7" cy="480.1" r="16.7" fill="white" fill-opacity="0.84"/>
<circle cx="607.7" cy="480.1" r="13.7" fill="#7A3CE8" fill-opacity="0.66" stroke="#111" stroke-width="2.5"/>
<text x="607.7" y="487.1" text-anchor="middle" font-family="Arial, Helvetica, sans-serif" font-size="21" font-weight="800" fill="white" stroke="#111" stroke-width="3" paint-order="stroke">38</text>
<circle cx="809.7" cy="553.8" r="19.4" fill="white" fill-opacity="0.84"/>
<circle cx="809.7" cy="553.8" r="16.4" fill="#7A3CE8" fill-opacity="0.66" stroke="#111" stroke-width="2.5"/>
<text x="809.7" y="560.8" text-anchor="middle" font-family="Arial, Helvetica, sans-serif" font-size="21" font-weight="800" fill="white" stroke="#111" stroke-width="3" paint-order="stroke">39</text>
<circle cx="1306.5" cy="519.3" r="18.6" fill="white" fill-opacity="0.84"/>
<circle cx="1306.5" cy="519.3" r="15.6" fill="#7A3CE8" fill-opacity="0.66" stroke="#111" stroke-width="2.5"/>
<text x="1306.5" y="526.3" text-anchor="middle" font-family="Arial, Helvetica, sans-serif" font-size="21" font-weight="800" fill="white" stroke="#111" stroke-width="3" paint-order="stroke">40</text>
<circle cx="1470.5" cy="324.7" r="19.4" fill="white" fill-opacity="0.84"/>
<circle cx="1470.5" cy="324.7" r="16.4" fill="#7A3CE8" fill-opacity="0.66" stroke="#111" stroke-width="2.5"/>
<text x="1470.5" y="331.7" text-anchor="middle" font-family="Arial, Helvetica, sans-serif" font-size="21" font-weight="800" fill="white" stroke="#111" stroke-width="3" paint-order="stroke">41</text>
<circle cx="1338.2" cy="482.7" r="18.6" fill="white" fill-opacity="0.84"/>
<circle cx="1338.2" cy="482.7" r="15.6" fill="#7A3CE8" fill-opacity="0.66" stroke="#111" stroke-width="2.5"/>
<text x="1338.2" y="489.7" text-anchor="middle" font-family="Arial, Helvetica, sans-serif" font-size="21" font-weight="800" fill="white" stroke="#111" stroke-width="3" paint-order="stroke">42</text>
<circle cx="1029.0" cy="518.8" r="17.9" fill="white" fill-opacity="0.84"/>
<circle cx="1029.0" cy="518.8" r="14.9" fill="#7A3CE8" fill-opacity="0.66" stroke="#111" stroke-width="2.5"/>
<text x="1029.0" y="525.8" text-anchor="middle" font-family="Arial, Helvetica, sans-serif" font-size="21" font-weight="800" fill="white" stroke="#111" stroke-width="3" paint-order="stroke">43</text>
<circle cx="850.5" cy="348.4" r="14.2" fill="white" fill-opacity="0.84"/>
<circle cx="850.5" cy="348.4" r="11.2" fill="#7A3CE8" fill-opacity="0.66" stroke="#111" stroke-width="2.5"/>
<text x="850.5" y="355.4" text-anchor="middle" font-family="Arial, Helvetica, sans-serif" font-size="21" font-weight="800" fill="white" stroke="#111" stroke-width="3" paint-order="stroke">44</text>
<circle cx="833.3" cy="342.7" r="12.3" fill="white" fill-opacity="0.84"/>
<circle cx="833.3" cy="342.7" r="9.3" fill="#7A3CE8" fill-opacity="0.66" stroke="#111" stroke-width="2.5"/>
<text x="833.3" y="349.7" text-anchor="middle" font-family="Arial, Helvetica, sans-serif" font-size="21" font-weight="800" fill="white" stroke="#111" stroke-width="3" paint-order="stroke">45</text>
<circle cx="704.9" cy="373.7" r="14.2" fill="white" fill-opacity="0.84"/>
<circle cx="704.9" cy="373.7" r="11.2" fill="#7A3CE8" fill-opacity="0.66" stroke="#111" stroke-width="2.5"/>
<text x="704.9" y="380.7" text-anchor="middle" font-family="Arial, Helvetica, sans-serif" font-size="21" font-weight="800" fill="white" stroke="#111" stroke-width="3" paint-order="stroke">46</text>
<circle cx="1077.8" cy="768.0" r="19.2" fill="white" fill-opacity="0.84"/>
<circle cx="1077.8" cy="768.0" r="16.2" fill="#7A3CE8" fill-opacity="0.66" stroke="#111" stroke-width="2.5"/>
<text x="1077.8" y="775.0" text-anchor="middle" font-family="Arial, Helvetica, sans-serif" font-size="21" font-weight="800" fill="white" stroke="#111" stroke-width="3" paint-order="stroke">47</text>
<circle cx="1182.5" cy="656.3" r="19.1" fill="white" fill-opacity="0.84"/>
<circle cx="1182.5" cy="656.3" r="16.1" fill="#7A3CE8" fill-opacity="0.66" stroke="#111" stroke-width="2.5"/>
<text x="1182.5" y="663.3" text-anchor="middle" font-family="Arial, Helvetica, sans-serif" font-size="21" font-weight="800" fill="white" stroke="#111" stroke-width="3" paint-order="stroke">48</text>
<circle cx="1215.8" cy="550.3" r="15.1" fill="white" fill-opacity="0.84"/>
<circle cx="1215.8" cy="550.3" r="12.1" fill="#7A3CE8" fill-opacity="0.66" stroke="#111" stroke-width="2.5"/>
<text x="1215.8" y="557.3" text-anchor="middle" font-family="Arial, Helvetica, sans-serif" font-size="21" font-weight="800" fill="white" stroke="#111" stroke-width="3" paint-order="stroke">49</text>
<circle cx="823.6" cy="631.7" r="12.0" fill="white" fill-opacity="0.84"/>
<circle cx="823.6" cy="631.7" r="9.0" fill="#7A3CE8" fill-opacity="0.66" stroke="#111" stroke-width="2.5"/>
<text x="823.6" y="638.7" text-anchor="middle" font-family="Arial, Helvetica, sans-serif" font-size="21" font-weight="800" fill="white" stroke="#111" stroke-width="3" paint-order="stroke">50</text>
<circle cx="837.7" cy="579.8" r="15.9" fill="white" fill-opacity="0.84"/>
<circle cx="837.7" cy="579.8" r="12.9" fill="#7A3CE8" fill-opacity="0.66" stroke="#111" stroke-width="2.5"/>
<text x="837.7" y="586.8" text-anchor="middle" font-family="Arial, Helvetica, sans-serif" font-size="21" font-weight="800" fill="white" stroke="#111" stroke-width="3" paint-order="stroke">51</text>
<circle cx="635.5" cy="430.0" r="19.0" fill="white" fill-opacity="0.84"/>
<circle cx="635.5" cy="430.0" r="16.0" fill="#7A3CE8" fill-opacity="0.66" stroke="#111" stroke-width="2.5"/>
<text x="635.5" y="437.0" text-anchor="middle" font-family="Arial, Helvetica, sans-serif" font-size="21" font-weight="800" fill="white" stroke="#111" stroke-width="3" paint-order="stroke">52</text>
<circle cx="1397.9" cy="377.7" r="17.8" fill="white" fill-opacity="0.84"/>
<circle cx="1397.9" cy="377.7" r="14.8" fill="#7A3CE8" fill-opacity="0.66" stroke="#111" stroke-width="2.5"/>
<text x="1397.9" y="384.7" text-anchor="middle" font-family="Arial, Helvetica, sans-serif" font-size="21" font-weight="800" fill="white" stroke="#111" stroke-width="3" paint-order="stroke">53</text>
<circle cx="1337.7" cy="311.5" r="17.1" fill="white" fill-opacity="0.84"/>
<circle cx="1337.7" cy="311.5" r="14.1" fill="#7A3CE8" fill-opacity="0.66" stroke="#111" stroke-width="2.5"/>
<text x="1337.7" y="318.5" text-anchor="middle" font-family="Arial, Helvetica, sans-serif" font-size="21" font-weight="800" fill="white" stroke="#111" stroke-width="3" paint-order="stroke">54</text>
<circle cx="1242.6" cy="361.6" r="18.6" fill="white" fill-opacity="0.84"/>
<circle cx="1242.6" cy="361.6" r="15.6" fill="#7A3CE8" fill-opacity="0.66" stroke="#111" stroke-width="2.5"/>
<text x="1242.6" y="368.6" text-anchor="middle" font-family="Arial, Helvetica, sans-serif" font-size="21" font-weight="800" fill="white" stroke="#111" stroke-width="3" paint-order="stroke">55</text>
<circle cx="1289.6" cy="889.6" r="19.9" fill="white" fill-opacity="0.84"/>
<circle cx="1289.6" cy="889.6" r="16.9" fill="#7A3CE8" fill-opacity="0.66" stroke="#111" stroke-width="2.5"/>
<text x="1289.6" y="896.6" text-anchor="middle" font-family="Arial, Helvetica, sans-serif" font-size="21" font-weight="800" fill="white" stroke="#111" stroke-width="3" paint-order="stroke">56</text>
<circle cx="1023.1" cy="747.0" r="16.4" fill="white" fill-opacity="0.84"/>
<circle cx="1023.1" cy="747.0" r="13.4" fill="#7A3CE8" fill-opacity="0.66" stroke="#111" stroke-width="2.5"/>
<text x="1023.1" y="754.0" text-anchor="middle" font-family="Arial, Helvetica, sans-serif" font-size="21" font-weight="800" fill="white" stroke="#111" stroke-width="3" paint-order="stroke">57</text>
<circle cx="810.3" cy="633.2" r="17.8" fill="white" fill-opacity="0.84"/>
<circle cx="810.3" cy="633.2" r="14.8" fill="#7A3CE8" fill-opacity="0.66" stroke="#111" stroke-width="2.5"/>
<text x="810.3" y="640.2" text-anchor="middle" font-family="Arial, Helvetica, sans-serif" font-size="21" font-weight="800" fill="white" stroke="#111" stroke-width="3" paint-order="stroke">58</text>
<circle cx="889.8" cy="570.4" r="17.3" fill="white" fill-opacity="0.84"/>
<circle cx="889.8" cy="570.4" r="14.3" fill="#7A3CE8" fill-opacity="0.66" stroke="#111" stroke-width="2.5"/>
<text x="889.8" y="577.4" text-anchor="middle" font-family="Arial, Helvetica, sans-serif" font-size="21" font-weight="800" fill="white" stroke="#111" stroke-width="3" paint-order="stroke">59</text>
<circle cx="893.5" cy="573.8" r="13.7" fill="white" fill-opacity="0.84"/>
<circle cx="893.5" cy="573.8" r="10.7" fill="#7A3CE8" fill-opacity="0.66" stroke="#111" stroke-width="2.5"/>
<text x="893.5" y="580.8" text-anchor="middle" font-family="Arial, Helvetica, sans-serif" font-size="21" font-weight="800" fill="white" stroke="#111" stroke-width="3" paint-order="stroke">60</text>
<circle cx="1358.8" cy="511.4" r="20.9" fill="white" fill-opacity="0.84"/>
<circle cx="1358.8" cy="511.4" r="17.9" fill="#7A3CE8" fill-opacity="0.66" stroke="#111" stroke-width="2.5"/>
<text x="1358.8" y="518.4" text-anchor="middle" font-family="Arial, Helvetica, sans-serif" font-size="21" font-weight="800" fill="white" stroke="#111" stroke-width="3" paint-order="stroke">61</text>
<circle cx="1082.4" cy="531.1" r="16.4" fill="white" fill-opacity="0.84"/>
<circle cx="1082.4" cy="531.1" r="13.4" fill="#7A3CE8" fill-opacity="0.66" stroke="#111" stroke-width="2.5"/>
<text x="1082.4" y="538.1" text-anchor="middle" font-family="Arial, Helvetica, sans-serif" font-size="21" font-weight="800" fill="white" stroke="#111" stroke-width="3" paint-order="stroke">62</text>
<circle cx="1266.0" cy="513.6" r="18.8" fill="white" fill-opacity="0.84"/>
<circle cx="1266.0" cy="513.6" r="15.8" fill="#7A3CE8" fill-opacity="0.66" stroke="#111" stroke-width="2.5"/>
<text x="1266.0" y="520.6" text-anchor="middle" font-family="Arial, Helvetica, sans-serif" font-size="21" font-weight="800" fill="white" stroke="#111" stroke-width="3" paint-order="stroke">63</text>
<circle cx="775.3" cy="586.4" r="20.2" fill="white" fill-opacity="0.84"/>
<circle cx="775.3" cy="586.4" r="17.2" fill="#7A3CE8" fill-opacity="0.66" stroke="#111" stroke-width="2.5"/>
<text x="775.3" y="593.4" text-anchor="middle" font-family="Arial, Helvetica, sans-serif" font-size="21" font-weight="800" fill="white" stroke="#111" stroke-width="3" paint-order="stroke">64</text>
<circle cx="770.0" cy="580.8" r="12.8" fill="white" fill-opacity="0.84"/>
<circle cx="770.0" cy="580.8" r="9.8" fill="#7A3CE8" fill-opacity="0.66" stroke="#111" stroke-width="2.5"/>
<text x="770.0" y="587.8" text-anchor="middle" font-family="Arial, Helvetica, sans-serif" font-size="21" font-weight="800" fill="white" stroke="#111" stroke-width="3" paint-order="stroke">65</text>
<circle cx="1190.3" cy="677.3" r="21.6" fill="white" fill-opacity="0.84"/>
<circle cx="1190.3" cy="677.3" r="18.6" fill="#7A3CE8" fill-opacity="0.66" stroke="#111" stroke-width="2.5"/>
<text x="1190.3" y="684.3" text-anchor="middle" font-family="Arial, Helvetica, sans-serif" font-size="21" font-weight="800" fill="white" stroke="#111" stroke-width="3" paint-order="stroke">66</text>
<circle cx="823.2" cy="583.5" r="16.3" fill="white" fill-opacity="0.84"/>
<circle cx="823.2" cy="583.5" r="13.3" fill="#7A3CE8" fill-opacity="0.66" stroke="#111" stroke-width="2.5"/>
<text x="823.2" y="590.5" text-anchor="middle" font-family="Arial, Helvetica, sans-serif" font-size="21" font-weight="800" fill="white" stroke="#111" stroke-width="3" paint-order="stroke">67</text>
<circle cx="823.5" cy="588.3" r="18.9" fill="white" fill-opacity="0.84"/>
<circle cx="823.5" cy="588.3" r="15.9" fill="#7A3CE8" fill-opacity="0.66" stroke="#111" stroke-width="2.5"/>
<text x="823.5" y="595.3" text-anchor="middle" font-family="Arial, Helvetica, sans-serif" font-size="21" font-weight="800" fill="white" stroke="#111" stroke-width="3" paint-order="stroke">68</text>
<circle cx="854.9" cy="475.6" r="19.3" fill="white" fill-opacity="0.84"/>
<circle cx="854.9" cy="475.6" r="16.3" fill="#7A3CE8" fill-opacity="0.66" stroke="#111" stroke-width="2.5"/>
<text x="854.9" y="482.6" text-anchor="middle" font-family="Arial, Helvetica, sans-serif" font-size="21" font-weight="800" fill="white" stroke="#111" stroke-width="3" paint-order="stroke">69</text>
<circle cx="1202.2" cy="521.9" r="12.3" fill="white" fill-opacity="0.84"/>
<circle cx="1202.2" cy="521.9" r="9.3" fill="#7A3CE8" fill-opacity="0.66" stroke="#111" stroke-width="2.5"/>
<text x="1202.2" y="528.9" text-anchor="middle" font-family="Arial, Helvetica, sans-serif" font-size="21" font-weight="800" fill="white" stroke="#111" stroke-width="3" paint-order="stroke">70</text>
<circle cx="1182.9" cy="565.2" r="16.4" fill="white" fill-opacity="0.84"/>
<circle cx="1182.9" cy="565.2" r="13.4" fill="#7A3CE8" fill-opacity="0.66" stroke="#111" stroke-width="2.5"/>
<text x="1182.9" y="572.2" text-anchor="middle" font-family="Arial, Helvetica, sans-serif" font-size="21" font-weight="800" fill="white" stroke="#111" stroke-width="3" paint-order="stroke">71</text>
<circle cx="1132.4" cy="469.1" r="15.7" fill="white" fill-opacity="0.84"/>
<circle cx="1132.4" cy="469.1" r="12.7" fill="#7A3CE8" fill-opacity="0.66" stroke="#111" stroke-width="2.5"/>
<text x="1132.4" y="476.1" text-anchor="middle" font-family="Arial, Helvetica, sans-serif" font-size="21" font-weight="800" fill="white" stroke="#111" stroke-width="3" paint-order="stroke">72</text>
<circle cx="1273.2" cy="368.5" r="14.6" fill="white" fill-opacity="0.84"/>
<circle cx="1273.2" cy="368.5" r="11.6" fill="#7A3CE8" fill-opacity="0.66" stroke="#111" stroke-width="2.5"/>
<text x="1273.2" y="375.5" text-anchor="middle" font-family="Arial, Helvetica, sans-serif" font-size="21" font-weight="800" fill="white" stroke="#111" stroke-width="3" paint-order="stroke">73</text>
<circle cx="1283.8" cy="329.6" r="15.8" fill="white" fill-opacity="0.84"/>
<circle cx="1283.8" cy="329.6" r="12.8" fill="#7A3CE8" fill-opacity="0.66" stroke="#111" stroke-width="2.5"/>
<text x="1283.8" y="336.6" text-anchor="middle" font-family="Arial, Helvetica, sans-serif" font-size="21" font-weight="800" fill="white" stroke="#111" stroke-width="3" paint-order="stroke">74</text>
<circle cx="675.9" cy="372.7" r="18.0" fill="white" fill-opacity="0.84"/>
<circle cx="675.9" cy="372.7" r="15.0" fill="#7A3CE8" fill-opacity="0.66" stroke="#111" stroke-width="2.5"/>
<text x="675.9" y="379.7" text-anchor="middle" font-family="Arial, Helvetica, sans-serif" font-size="21" font-weight="800" fill="white" stroke="#111" stroke-width="3" paint-order="stroke">75</text>
<circle cx="651.2" cy="314.8" r="24.8" fill="white" fill-opacity="0.84"/>
<circle cx="651.2" cy="314.8" r="21.8" fill="#7A3CE8" fill-opacity="0.66" stroke="#111" stroke-width="2.5"/>
<text x="651.2" y="321.8" text-anchor="middle" font-family="Arial, Helvetica, sans-serif" font-size="21" font-weight="800" fill="white" stroke="#111" stroke-width="3" paint-order="stroke">76</text>
<circle cx="685.1" cy="716.9" r="20.1" fill="white" fill-opacity="0.84"/>
<circle cx="685.1" cy="716.9" r="17.1" fill="#7A3CE8" fill-opacity="0.66" stroke="#111" stroke-width="2.5"/>
<text x="685.1" y="723.9" text-anchor="middle" font-family="Arial, Helvetica, sans-serif" font-size="21" font-weight="800" fill="white" stroke="#111" stroke-width="3" paint-order="stroke">77</text>
<circle cx="1452.5" cy="522.5" r="15.6" fill="white" fill-opacity="0.84"/>
<circle cx="1452.5" cy="522.5" r="12.6" fill="#7A3CE8" fill-opacity="0.66" stroke="#111" stroke-width="2.5"/>
<text x="1452.5" y="529.5" text-anchor="middle" font-family="Arial, Helvetica, sans-serif" font-size="21" font-weight="800" fill="white" stroke="#111" stroke-width="3" paint-order="stroke">78</text>
<circle cx="1436.5" cy="260.9" r="17.1" fill="white" fill-opacity="0.84"/>
<circle cx="1436.5" cy="260.9" r="14.1" fill="#7A3CE8" fill-opacity="0.66" stroke="#111" stroke-width="2.5"/>
<text x="1436.5" y="267.9" text-anchor="middle" font-family="Arial, Helvetica, sans-serif" font-size="21" font-weight="800" fill="white" stroke="#111" stroke-width="3" paint-order="stroke">79</text>
<circle cx="1494.4" cy="280.6" r="18.9" fill="white" fill-opacity="0.84"/>
<circle cx="1494.4" cy="280.6" r="15.9" fill="#7A3CE8" fill-opacity="0.66" stroke="#111" stroke-width="2.5"/>
<text x="1494.4" y="287.6" text-anchor="middle" font-family="Arial, Helvetica, sans-serif" font-size="21" font-weight="800" fill="white" stroke="#111" stroke-width="3" paint-order="stroke">80</text>
<circle cx="1233.5" cy="284.4" r="19.4" fill="white" fill-opacity="0.84"/>
<circle cx="1233.5" cy="284.4" r="16.4" fill="#7A3CE8" fill-opacity="0.66" stroke="#111" stroke-width="2.5"/>
<text x="1233.5" y="291.4" text-anchor="middle" font-family="Arial, Helvetica, sans-serif" font-size="21" font-weight="800" fill="white" stroke="#111" stroke-width="3" paint-order="stroke">81</text>
<circle cx="704.1" cy="293.0" r="20.7" fill="white" fill-opacity="0.84"/>
<circle cx="704.1" cy="293.0" r="17.7" fill="#7A3CE8" fill-opacity="0.66" stroke="#111" stroke-width="2.5"/>
<text x="704.1" y="300.0" text-anchor="middle" font-family="Arial, Helvetica, sans-serif" font-size="21" font-weight="800" fill="white" stroke="#111" stroke-width="3" paint-order="stroke">82</text>
<circle cx="1016.5" cy="720.8" r="20.3" fill="white" fill-opacity="0.84"/>
<circle cx="1016.5" cy="720.8" r="17.3" fill="#7A3CE8" fill-opacity="0.66" stroke="#111" stroke-width="2.5"/>
<text x="1016.5" y="727.8" text-anchor="middle" font-family="Arial, Helvetica, sans-serif" font-size="21" font-weight="800" fill="white" stroke="#111" stroke-width="3" paint-order="stroke">83</text>
<circle cx="902.7" cy="652.1" r="19.5" fill="white" fill-opacity="0.84"/>
<circle cx="902.7" cy="652.1" r="16.5" fill="#7A3CE8" fill-opacity="0.66" stroke="#111" stroke-width="2.5"/>
<text x="902.7" y="659.1" text-anchor="middle" font-family="Arial, Helvetica, sans-serif" font-size="21" font-weight="800" fill="white" stroke="#111" stroke-width="3" paint-order="stroke">84</text>
<rect x="16" y="1094" width="1120" height="168" rx="8" fill="white" fill-opacity="0.92" stroke="#111" stroke-opacity="0.22"/>
<text x="36.0" y="1128.0" font-family="Arial, Helvetica, sans-serif" font-size="24" font-weight="600" fill="#111">K19 / k19_1.asc block 17 | dress-1-2-l.png | RT NA ms | 84 fixations</text>
<text x="36.0" y="1159.0" font-family="Arial, Helvetica, sans-serif" font-size="24" font-weight="600" fill="#111">numbers show fixation order; dot size shows fixation duration</text>
<circle cx="42" cy="1198" r="11" fill="#005DFF" fill-opacity="0.64" stroke="#111" stroke-width="2"/>
<text x="62.0" y="1206.0" font-family="Arial, Helvetica, sans-serif" font-size="22" font-weight="500" fill="#111">blue: before speech onset</text>
<circle cx="42" cy="1232" r="11" fill="#FF8A00" fill-opacity="0.64" stroke="#111" stroke-width="2"/>
<text x="62.0" y="1240.0" font-family="Arial, Helvetica, sans-serif" font-size="22" font-weight="500" fill="#111">orange: first 2000 ms after onset</text>
</svg>
