<svg xmlns="http://www.w3.org/2000/svg" width="1920" height="1320" viewBox="0 0 1920 1320">
<image href="https://raw.githubusercontent.com/mkurg/koryak/main/stimuli/Animate-animate%20centered%20and%20flipped/shoot-1-1-r.png" x="0" y="0" width="1920" height="1080" preserveAspectRatio="none"/>
<rect x="0" y="0" width="1920" height="1080" fill="none" stroke="#111" stroke-width="2"/>
<rect x="0" y="1080" width="1920" height="240" fill="#f7f7f7"/>
<rect x="970.0" y="100.0" width="850" height="850" fill="none" stroke="#00B8D9" stroke-width="6" stroke-dasharray="18 12"/>
<rect x="982.0" y="62.0" width="102.0" height="38" rx="6" fill="white" fill-opacity="0.86" stroke="#00B8D9" stroke-width="3"/>
<text x="992.0" y="88.0" font-family="Arial, Helvetica, sans-serif" font-size="24" font-weight="700" fill="#111">AGENT</text>
<rect x="40.0" y="100.0" width="850" height="850" fill="none" stroke="#FF3B8A" stroke-width="6" stroke-dasharray="18 12"/>
<rect x="52.0" y="62.0" width="134.0" height="38" rx="6" fill="white" fill-opacity="0.86" stroke="#FF3B8A" stroke-width="3"/>
<text x="62.0" y="88.0" font-family="Arial, Helvetica, sans-serif" font-size="24" font-weight="700" fill="#111">PATIENT</text>
<polyline points="1283.2,314.3 968.5,439.6 717.7,425.9 797.8,454.1 1298.5,304.4 1474.0,309.8 1490.4,305.8 925.8,303.0 955.4,343.2 1047.4,517.6 1049.8,486.5 1181.1,460.7 1585.9,433.4 1384.1,425.9 1394.7,417.8 1495.5,428.3 1502.4,418.3 1140.0,463.2 1059.3,472.7 1019.1,327.0 1058.5,339.7 1051.2,328.9 1041.8,546.8 1045.2,531.2 1051.0,489.9 1108.7,477.2 1061.3,470.9 1468.4,466.3 1536.1,528.9 1465.0,390.4 1501.9,369.7 1820.2,234.1 1814.2,236.4 1732.8,285.1 1512.9,438.1 1497.2,551.9 1395.3,536.5 1094.2,445.4 1238.1,488.3 1159.8,488.4 1391.1,451.9 1080.1,486.9 1252.3,418.5 1256.0,421.7" fill="none" stroke="#111" stroke-width="4" stroke-opacity="0.36" stroke-linejoin="round"/>
<circle cx="1283.2" cy="314.3" r="15.7" fill="white" fill-opacity="0.84"/>
<circle cx="1283.2" cy="314.3" r="12.7" fill="#7A3CE8" fill-opacity="0.66" stroke="#111" stroke-width="2.5"/>
<text x="1283.2" y="321.3" text-anchor="middle" font-family="Arial, Helvetica, sans-serif" font-size="21" font-weight="800" fill="white" stroke="#111" stroke-width="3" paint-order="stroke">1</text>
<circle cx="968.5" cy="439.6" r="16.0" fill="white" fill-opacity="0.84"/>
<circle cx="968.5" cy="439.6" r="13.0" fill="#7A3CE8" fill-opacity="0.66" stroke="#111" stroke-width="2.5"/>
<text x="968.5" y="446.6" text-anchor="middle" font-family="Arial, Helvetica, sans-serif" font-size="21" font-weight="800" fill="white" stroke="#111" stroke-width="3" paint-order="stroke">2</text>
<circle cx="717.7" cy="425.9" r="16.4" fill="white" fill-opacity="0.84"/>
<circle cx="717.7" cy="425.9" r="13.4" fill="#7A3CE8" fill-opacity="0.66" stroke="#111" stroke-width="2.5"/>
<text x="717.7" y="432.9" text-anchor="middle" font-family="Arial, Helvetica, sans-serif" font-size="21" font-weight="800" fill="white" stroke="#111" stroke-width="3" paint-order="stroke">3</text>
<circle cx="797.8" cy="454.1" r="19.1" fill="white" fill-opacity="0.84"/>
<circle cx="797.8" cy="454.1" r="16.1" fill="#7A3CE8" fill-opacity="0.66" stroke="#111" stroke-width="2.5"/>
<text x="797.8" y="461.1" text-anchor="middle" font-family="Arial, Helvetica, sans-serif" font-size="21" font-weight="800" fill="white" stroke="#111" stroke-width="3" paint-order="stroke">4</text>
<circle cx="1298.5" cy="304.4" r="17.3" fill="white" fill-opacity="0.84"/>
<circle cx="1298.5" cy="304.4" r="14.3" fill="#7A3CE8" fill-opacity="0.66" stroke="#111" stroke-width="2.5"/>
<text x="1298.5" y="311.4" text-anchor="middle" font-family="Arial, Helvetica, sans-serif" font-size="21" font-weight="800" fill="white" stroke="#111" stroke-width="3" paint-order="stroke">5</text>
<circle cx="1474.0" cy="309.8" r="17.0" fill="white" fill-opacity="0.84"/>
<circle cx="1474.0" cy="309.8" r="14.0" fill="#7A3CE8" fill-opacity="0.66" stroke="#111" stroke-width="2.5"/>
<text x="1474.0" y="316.8" text-anchor="middle" font-family="Arial, Helvetica, sans-serif" font-size="21" font-weight="800" fill="white" stroke="#111" stroke-width="3" paint-order="stroke">6</text>
<circle cx="1490.4" cy="305.8" r="17.2" fill="white" fill-opacity="0.84"/>
<circle cx="1490.4" cy="305.8" r="14.2" fill="#7A3CE8" fill-opacity="0.66" stroke="#111" stroke-width="2.5"/>
<text x="1490.4" y="312.8" text-anchor="middle" font-family="Arial, Helvetica, sans-serif" font-size="21" font-weight="800" fill="white" stroke="#111" stroke-width="3" paint-order="stroke">7</text>
<circle cx="925.8" cy="303.0" r="18.8" fill="white" fill-opacity="0.84"/>
<circle cx="925.8" cy="303.0" r="15.8" fill="#7A3CE8" fill-opacity="0.66" stroke="#111" stroke-width="2.5"/>
<text x="925.8" y="310.0" text-anchor="middle" font-family="Arial, Helvetica, sans-serif" font-size="21" font-weight="800" fill="white" stroke="#111" stroke-width="3" paint-order="stroke">8</text>
<circle cx="955.4" cy="343.2" r="21.3" fill="white" fill-opacity="0.84"/>
<circle cx="955.4" cy="343.2" r="18.3" fill="#7A3CE8" fill-opacity="0.66" stroke="#111" stroke-width="2.5"/>
<text x="955.4" y="350.2" text-anchor="middle" font-family="Arial, Helvetica, sans-serif" font-size="21" font-weight="800" fill="white" stroke="#111" stroke-width="3" paint-order="stroke">9</text>
<circle cx="1047.4" cy="517.6" r="16.9" fill="white" fill-opacity="0.84"/>
<circle cx="1047.4" cy="517.6" r="13.9" fill="#7A3CE8" fill-opacity="0.66" stroke="#111" stroke-width="2.5"/>
<text x="1047.4" y="524.6" text-anchor="middle" font-family="Arial, Helvetica, sans-serif" font-size="21" font-weight="800" fill="white" stroke="#111" stroke-width="3" paint-order="stroke">10</text>
<circle cx="1049.8" cy="486.5" r="16.6" fill="white" fill-opacity="0.84"/>
<circle cx="1049.8" cy="486.5" r="13.6" fill="#7A3CE8" fill-opacity="0.66" stroke="#111" stroke-width="2.5"/>
<text x="1049.8" y="493.5" text-anchor="middle" font-family="Arial, Helvetica, sans-serif" font-size="21" font-weight="800" fill="white" stroke="#111" stroke-width="3" paint-order="stroke">11</text>
<circle cx="1181.1" cy="460.7" r="17.4" fill="white" fill-opacity="0.84"/>
<circle cx="1181.1" cy="460.7" r="14.4" fill="#7A3CE8" fill-opacity="0.66" stroke="#111" stroke-width="2.5"/>
<text x="1181.1" y="467.7" text-anchor="middle" font-family="Arial, Helvetica, sans-serif" font-size="21" font-weight="800" fill="white" stroke="#111" stroke-width="3" paint-order="stroke">12</text>
<circle cx="1585.9" cy="433.4" r="18.1" fill="white" fill-opacity="0.84"/>
<circle cx="1585.9" cy="433.4" r="15.1" fill="#7A3CE8" fill-opacity="0.66" stroke="#111" stroke-width="2.5"/>
<text x="1585.9" y="440.4" text-anchor="middle" font-family="Arial, Helvetica, sans-serif" font-size="21" font-weight="800" fill="white" stroke="#111" stroke-width="3" paint-order="stroke">13</text>
<circle cx="1384.1" cy="425.9" r="16.1" fill="white" fill-opacity="0.84"/>
<circle cx="1384.1" cy="425.9" r="13.2" fill="#7A3CE8" fill-opacity="0.66" stroke="#111" stroke-width="2.5"/>
<text x="1384.1" y="432.9" text-anchor="middle" font-family="Arial, Helvetica, sans-serif" font-size="21" font-weight="800" fill="white" stroke="#111" stroke-width="3" paint-order="stroke">14</text>
<circle cx="1394.7" cy="417.8" r="12.6" fill="white" fill-opacity="0.84"/>
<circle cx="1394.7" cy="417.8" r="9.6" fill="#7A3CE8" fill-opacity="0.66" stroke="#111" stroke-width="2.5"/>
<text x="1394.7" y="424.8" text-anchor="middle" font-family="Arial, Helvetica, sans-serif" font-size="21" font-weight="800" fill="white" stroke="#111" stroke-width="3" paint-order="stroke">15</text>
<circle cx="1495.5" cy="428.3" r="14.8" fill="white" fill-opacity="0.84"/>
<circle cx="1495.5" cy="428.3" r="11.8" fill="#7A3CE8" fill-opacity="0.66" stroke="#111" stroke-width="2.5"/>
<text x="1495.5" y="435.3" text-anchor="middle" font-family="Arial, Helvetica, sans-serif" font-size="21" font-weight="800" fill="white" stroke="#111" stroke-width="3" paint-order="stroke">16</text>
<circle cx="1502.4" cy="418.3" r="15.8" fill="white" fill-opacity="0.84"/>
<circle cx="1502.4" cy="418.3" r="12.8" fill="#7A3CE8" fill-opacity="0.66" stroke="#111" stroke-width="2.5"/>
<text x="1502.4" y="425.3" text-anchor="middle" font-family="Arial, Helvetica, sans-serif" font-size="21" font-weight="800" fill="white" stroke="#111" stroke-width="3" paint-order="stroke">17</text>
<circle cx="1140.0" cy="463.2" r="21.0" fill="white" fill-opacity="0.84"/>
<circle cx="1140.0" cy="463.2" r="18.0" fill="#7A3CE8" fill-opacity="0.66" stroke="#111" stroke-width="2.5"/>
<text x="1140.0" y="470.2" text-anchor="middle" font-family="Arial, Helvetica, sans-serif" font-size="21" font-weight="800" fill="white" stroke="#111" stroke-width="3" paint-order="stroke">18</text>
<circle cx="1059.3" cy="472.7" r="17.5" fill="white" fill-opacity="0.84"/>
<circle cx="1059.3" cy="472.7" r="14.5" fill="#7A3CE8" fill-opacity="0.66" stroke="#111" stroke-width="2.5"/>
<text x="1059.3" y="479.7" text-anchor="middle" font-family="Arial, Helvetica, sans-serif" font-size="21" font-weight="800" fill="white" stroke="#111" stroke-width="3" paint-order="stroke">19</text>
<circle cx="1019.1" cy="327.0" r="16.6" fill="white" fill-opacity="0.84"/>
<circle cx="1019.1" cy="327.0" r="13.6" fill="#7A3CE8" fill-opacity="0.66" stroke="#111" stroke-width="2.5"/>
<text x="1019.1" y="334.0" text-anchor="middle" font-family="Arial, Helvetica, sans-serif" font-size="21" font-weight="800" fill="white" stroke="#111" stroke-width="3" paint-order="stroke">20</text>
<circle cx="1058.5" cy="339.7" r="19.4" fill="white" fill-opacity="0.84"/>
<circle cx="1058.5" cy="339.7" r="16.4" fill="#7A3CE8" fill-opacity="0.66" stroke="#111" stroke-width="2.5"/>
<text x="1058.5" y="346.7" text-anchor="middle" font-family="Arial, Helvetica, sans-serif" font-size="21" font-weight="800" fill="white" stroke="#111" stroke-width="3" paint-order="stroke">21</text>
<circle cx="1051.2" cy="328.9" r="12.5" fill="white" fill-opacity="0.84"/>
<circle cx="1051.2" cy="328.9" r="9.5" fill="#7A3CE8" fill-opacity="0.66" stroke="#111" stroke-width="2.5"/>
<text x="1051.2" y="335.9" text-anchor="middle" font-family="Arial, Helvetica, sans-serif" font-size="21" font-weight="800" fill="white" stroke="#111" stroke-width="3" paint-order="stroke">22</text>
<circle cx="1041.8" cy="546.8" r="12.8" fill="white" fill-opacity="0.84"/>
<circle cx="1041.8" cy="546.8" r="9.8" fill="#7A3CE8" fill-opacity="0.66" stroke="#111" stroke-width="2.5"/>
<text x="1041.8" y="553.8" text-anchor="middle" font-family="Arial, Helvetica, sans-serif" font-size="21" font-weight="800" fill="white" stroke="#111" stroke-width="3" paint-order="stroke">23</text>
<circle cx="1045.2" cy="531.2" r="15.8" fill="white" fill-opacity="0.84"/>
<circle cx="1045.2" cy="531.2" r="12.8" fill="#7A3CE8" fill-opacity="0.66" stroke="#111" stroke-width="2.5"/>
<text x="1045.2" y="538.2" text-anchor="middle" font-family="Arial, Helvetica, sans-serif" font-size="21" font-weight="800" fill="white" stroke="#111" stroke-width="3" paint-order="stroke">24</text>
<circle cx="1051.0" cy="489.9" r="24.5" fill="white" fill-opacity="0.84"/>
<circle cx="1051.0" cy="489.9" r="21.5" fill="#7A3CE8" fill-opacity="0.66" stroke="#111" stroke-width="2.5"/>
<text x="1051.0" y="496.9" text-anchor="middle" font-family="Arial, Helvetica, sans-serif" font-size="21" font-weight="800" fill="white" stroke="#111" stroke-width="3" paint-order="stroke">25</text>
<circle cx="1108.7" cy="477.2" r="16.2" fill="white" fill-opacity="0.84"/>
<circle cx="1108.7" cy="477.2" r="13.2" fill="#7A3CE8" fill-opacity="0.66" stroke="#111" stroke-width="2.5"/>
<text x="1108.7" y="484.2" text-anchor="middle" font-family="Arial, Helvetica, sans-serif" font-size="21" font-weight="800" fill="white" stroke="#111" stroke-width="3" paint-order="stroke">26</text>
<circle cx="1061.3" cy="470.9" r="20.4" fill="white" fill-opacity="0.84"/>
<circle cx="1061.3" cy="470.9" r="17.4" fill="#7A3CE8" fill-opacity="0.66" stroke="#111" stroke-width="2.5"/>
<text x="1061.3" y="477.9" text-anchor="middle" font-family="Arial, Helvetica, sans-serif" font-size="21" font-weight="800" fill="white" stroke="#111" stroke-width="3" paint-order="stroke">27</text>
<circle cx="1468.4" cy="466.3" r="17.8" fill="white" fill-opacity="0.84"/>
<circle cx="1468.4" cy="466.3" r="14.8" fill="#7A3CE8" fill-opacity="0.66" stroke="#111" stroke-width="2.5"/>
<text x="1468.4" y="473.3" text-anchor="middle" font-family="Arial, Helvetica, sans-serif" font-size="21" font-weight="800" fill="white" stroke="#111" stroke-width="3" paint-order="stroke">28</text>
<circle cx="1536.1" cy="528.9" r="15.2" fill="white" fill-opacity="0.84"/>
<circle cx="1536.1" cy="528.9" r="12.2" fill="#7A3CE8" fill-opacity="0.66" stroke="#111" stroke-width="2.5"/>
<text x="1536.1" y="535.9" text-anchor="middle" font-family="Arial, Helvetica, sans-serif" font-size="21" font-weight="800" fill="white" stroke="#111" stroke-width="3" paint-order="stroke">29</text>
<circle cx="1465.0" cy="390.4" r="17.1" fill="white" fill-opacity="0.84"/>
<circle cx="1465.0" cy="390.4" r="14.1" fill="#7A3CE8" fill-opacity="0.66" stroke="#111" stroke-width="2.5"/>
<text x="1465.0" y="397.4" text-anchor="middle" font-family="Arial, Helvetica, sans-serif" font-size="21" font-weight="800" fill="white" stroke="#111" stroke-width="3" paint-order="stroke">30</text>
<circle cx="1501.9" cy="369.7" r="19.1" fill="white" fill-opacity="0.84"/>
<circle cx="1501.9" cy="369.7" r="16.1" fill="#7A3CE8" fill-opacity="0.66" stroke="#111" stroke-width="2.5"/>
<text x="1501.9" y="376.7" text-anchor="middle" font-family="Arial, Helvetica, sans-serif" font-size="21" font-weight="800" fill="white" stroke="#111" stroke-width="3" paint-order="stroke">31</text>
<circle cx="1820.2" cy="234.1" r="12.1" fill="white" fill-opacity="0.84"/>
<circle cx="1820.2" cy="234.1" r="9.1" fill="#7A3CE8" fill-opacity="0.66" stroke="#111" stroke-width="2.5"/>
<text x="1820.2" y="241.1" text-anchor="middle" font-family="Arial, Helvetica, sans-serif" font-size="21" font-weight="800" fill="white" stroke="#111" stroke-width="3" paint-order="stroke">32</text>
<circle cx="1814.2" cy="236.4" r="12.6" fill="white" fill-opacity="0.84"/>
<circle cx="1814.2" cy="236.4" r="9.6" fill="#7A3CE8" fill-opacity="0.66" stroke="#111" stroke-width="2.5"/>
<text x="1814.2" y="243.4" text-anchor="middle" font-family="Arial, Helvetica, sans-serif" font-size="21" font-weight="800" fill="white" stroke="#111" stroke-width="3" paint-order="stroke">33</text>
<circle cx="1732.8" cy="285.1" r="15.5" fill="white" fill-opacity="0.84"/>
<circle cx="1732.8" cy="285.1" r="12.5" fill="#7A3CE8" fill-opacity="0.66" stroke="#111" stroke-width="2.5"/>
<text x="1732.8" y="292.1" text-anchor="middle" font-family="Arial, Helvetica, sans-serif" font-size="21" font-weight="800" fill="white" stroke="#111" stroke-width="3" paint-order="stroke">34</text>
<circle cx="1512.9" cy="438.1" r="14.7" fill="white" fill-opacity="0.84"/>
<circle cx="1512.9" cy="438.1" r="11.7" fill="#7A3CE8" fill-opacity="0.66" stroke="#111" stroke-width="2.5"/>
<text x="1512.9" y="445.1" text-anchor="middle" font-family="Arial, Helvetica, sans-serif" font-size="21" font-weight="800" fill="white" stroke="#111" stroke-width="3" paint-order="stroke">35</text>
<circle cx="1497.2" cy="551.9" r="15.9" fill="white" fill-opacity="0.84"/>
<circle cx="1497.2" cy="551.9" r="12.9" fill="#7A3CE8" fill-opacity="0.66" stroke="#111" stroke-width="2.5"/>
<text x="1497.2" y="558.9" text-anchor="middle" font-family="Arial, Helvetica, sans-serif" font-size="21" font-weight="800" fill="white" stroke="#111" stroke-width="3" paint-order="stroke">36</text>
<circle cx="1395.3" cy="536.5" r="12.6" fill="white" fill-opacity="0.84"/>
<circle cx="1395.3" cy="536.5" r="9.6" fill="#7A3CE8" fill-opacity="0.66" stroke="#111" stroke-width="2.5"/>
<text x="1395.3" y="543.5" text-anchor="middle" font-family="Arial, Helvetica, sans-serif" font-size="21" font-weight="800" fill="white" stroke="#111" stroke-width="3" paint-order="stroke">37</text>
<circle cx="1094.2" cy="445.4" r="17.2" fill="white" fill-opacity="0.84"/>
<circle cx="1094.2" cy="445.4" r="14.2" fill="#7A3CE8" fill-opacity="0.66" stroke="#111" stroke-width="2.5"/>
<text x="1094.2" y="452.4" text-anchor="middle" font-family="Arial, Helvetica, sans-serif" font-size="21" font-weight="800" fill="white" stroke="#111" stroke-width="3" paint-order="stroke">38</text>
<circle cx="1238.1" cy="488.3" r="18.7" fill="white" fill-opacity="0.84"/>
<circle cx="1238.1" cy="488.3" r="15.7" fill="#7A3CE8" fill-opacity="0.66" stroke="#111" stroke-width="2.5"/>
<text x="1238.1" y="495.3" text-anchor="middle" font-family="Arial, Helvetica, sans-serif" font-size="21" font-weight="800" fill="white" stroke="#111" stroke-width="3" paint-order="stroke">39</text>
<circle cx="1159.8" cy="488.4" r="12.4" fill="white" fill-opacity="0.84"/>
<circle cx="1159.8" cy="488.4" r="9.4" fill="#7A3CE8" fill-opacity="0.66" stroke="#111" stroke-width="2.5"/>
<text x="1159.8" y="495.4" text-anchor="middle" font-family="Arial, Helvetica, sans-serif" font-size="21" font-weight="800" fill="white" stroke="#111" stroke-width="3" paint-order="stroke">40</text>
<circle cx="1391.1" cy="451.9" r="15.1" fill="white" fill-opacity="0.84"/>
<circle cx="1391.1" cy="451.9" r="12.1" fill="#7A3CE8" fill-opacity="0.66" stroke="#111" stroke-width="2.5"/>
<text x="1391.1" y="458.9" text-anchor="middle" font-family="Arial, Helvetica, sans-serif" font-size="21" font-weight="800" fill="white" stroke="#111" stroke-width="3" paint-order="stroke">41</text>
<circle cx="1080.1" cy="486.9" r="18.9" fill="white" fill-opacity="0.84"/>
<circle cx="1080.1" cy="486.9" r="15.9" fill="#7A3CE8" fill-opacity="0.66" stroke="#111" stroke-width="2.5"/>
<text x="1080.1" y="493.9" text-anchor="middle" font-family="Arial, Helvetica, sans-serif" font-size="21" font-weight="800" fill="white" stroke="#111" stroke-width="3" paint-order="stroke">42</text>
<circle cx="1252.3" cy="418.5" r="13.6" fill="white" fill-opacity="0.84"/>
<circle cx="1252.3" cy="418.5" r="10.6" fill="#7A3CE8" fill-opacity="0.66" stroke="#111" stroke-width="2.5"/>
<text x="1252.3" y="425.5" text-anchor="middle" font-family="Arial, Helvetica, sans-serif" font-size="21" font-weight="800" fill="white" stroke="#111" stroke-width="3" paint-order="stroke">43</text>
<circle cx="1256.0" cy="421.7" r="17.5" fill="white" fill-opacity="0.84"/>
<circle cx="1256.0" cy="421.7" r="14.5" fill="#7A3CE8" fill-opacity="0.66" stroke="#111" stroke-width="2.5"/>
<text x="1256.0" y="428.7" text-anchor="middle" font-family="Arial, Helvetica, sans-serif" font-size="21" font-weight="800" fill="white" stroke="#111" stroke-width="3" paint-order="stroke">44</text>
<rect x="16" y="1094" width="1120" height="168" rx="8" fill="white" fill-opacity="0.92" stroke="#111" stroke-opacity="0.22"/>
<text x="36.0" y="1128.0" font-family="Arial, Helvetica, sans-serif" font-size="24" font-weight="600" fill="#111">K19 / k19_1.asc block 35 | shoot-1-1-r.png | RT NA ms | 44 fixations</text>
<text x="36.0" y="1159.0" font-family="Arial, Helvetica, sans-serif" font-size="24" font-weight="600" fill="#111">numbers show fixation order; dot size shows fixation duration</text>
<circle cx="42" cy="1198" r="11" fill="#005DFF" fill-opacity="0.64" stroke="#111" stroke-width="2"/>
<text x="62.0" y="1206.0" font-family="Arial, Helvetica, sans-serif" font-size="22" font-weight="500" fill="#111">blue: before speech onset</text>
<circle cx="42" cy="1232" r="11" fill="#FF8A00" fill-opacity="0.64" stroke="#111" stroke-width="2"/>
<text x="62.0" y="1240.0" font-family="Arial, Helvetica, sans-serif" font-size="22" font-weight="500" fill="#111">orange: first 2000 ms after onset</text>
</svg>
