<svg xmlns="http://www.w3.org/2000/svg" width="1920" height="1320" viewBox="0 0 1920 1320">
<image href="../../../../stimuli/Koryak%20stimuli%20animate%20inanimate/hang-2-2-r.png" x="0" y="0" width="1920" height="1080" preserveAspectRatio="none"/>
<rect x="0" y="0" width="1920" height="1080" fill="none" stroke="#111" stroke-width="2"/>
<rect x="0" y="1080" width="1920" height="240" fill="#f7f7f7"/>
<rect x="970.0" y="100.0" width="850" height="850" fill="none" stroke="#00B8D9" stroke-width="6" stroke-dasharray="18 12"/>
<rect x="982.0" y="62.0" width="102.0" height="38" rx="6" fill="white" fill-opacity="0.86" stroke="#00B8D9" stroke-width="3"/>
<text x="992.0" y="88.0" font-family="Arial, Helvetica, sans-serif" font-size="24" font-weight="700" fill="#111">AGENT</text>
<rect x="40.0" y="100.0" width="850" height="850" fill="none" stroke="#FF3B8A" stroke-width="6" stroke-dasharray="18 12"/>
<rect x="52.0" y="62.0" width="134.0" height="38" rx="6" fill="white" fill-opacity="0.86" stroke="#FF3B8A" stroke-width="3"/>
<text x="62.0" y="88.0" font-family="Arial, Helvetica, sans-serif" font-size="24" font-weight="700" fill="#111">PATIENT</text>
<polyline points="733.6,719.4 586.3,755.2 903.9,340.8 840.4,371.8 676.9,769.0 793.8,758.1 800.9,715.9 1343.2,304.0 1245.0,328.3 1083.2,371.9 1447.6,365.8 1512.4,304.2 656.1,749.1 787.0,698.1 735.1,724.2 806.5,721.4 752.6,698.3 799.1,685.8 770.4,684.6 666.8,648.2 559.4,733.9 751.6,637.3 602.3,751.7 567.3,775.8 638.2,724.7 596.0,761.2 772.7,726.2 805.9,734.4 630.9,760.1 552.1,777.6 699.1,642.4 1057.1,431.1 1283.8,301.7 1226.3,343.5 1490.0,114.1 1492.2,124.3 1491.3,123.5 1246.5,325.5 1454.1,274.9 1503.0,277.0 1408.6,299.0 1080.8,443.9 1042.2,387.9" fill="none" stroke="#111" stroke-width="4" stroke-opacity="0.36" stroke-linejoin="round"/>
<circle cx="733.6" cy="719.4" r="19.8" fill="white" fill-opacity="0.84"/>
<circle cx="733.6" cy="719.4" r="16.8" fill="#005DFF" fill-opacity="0.66" stroke="#111" stroke-width="2.5"/>
<text x="733.6" y="726.4" text-anchor="middle" font-family="Arial, Helvetica, sans-serif" font-size="21" font-weight="800" fill="white" stroke="#111" stroke-width="3" paint-order="stroke">1</text>
<circle cx="586.3" cy="755.2" r="15.0" fill="white" fill-opacity="0.84"/>
<circle cx="586.3" cy="755.2" r="12.0" fill="#005DFF" fill-opacity="0.66" stroke="#111" stroke-width="2.5"/>
<text x="586.3" y="762.2" text-anchor="middle" font-family="Arial, Helvetica, sans-serif" font-size="21" font-weight="800" fill="white" stroke="#111" stroke-width="3" paint-order="stroke">2</text>
<circle cx="903.9" cy="340.8" r="16.9" fill="white" fill-opacity="0.84"/>
<circle cx="903.9" cy="340.8" r="13.9" fill="#005DFF" fill-opacity="0.66" stroke="#111" stroke-width="2.5"/>
<text x="903.9" y="347.8" text-anchor="middle" font-family="Arial, Helvetica, sans-serif" font-size="21" font-weight="800" fill="white" stroke="#111" stroke-width="3" paint-order="stroke">3</text>
<circle cx="840.4" cy="371.8" r="14.6" fill="white" fill-opacity="0.84"/>
<circle cx="840.4" cy="371.8" r="11.6" fill="#005DFF" fill-opacity="0.66" stroke="#111" stroke-width="2.5"/>
<text x="840.4" y="378.8" text-anchor="middle" font-family="Arial, Helvetica, sans-serif" font-size="21" font-weight="800" fill="white" stroke="#111" stroke-width="3" paint-order="stroke">4</text>
<circle cx="676.9" cy="769.0" r="16.9" fill="white" fill-opacity="0.84"/>
<circle cx="676.9" cy="769.0" r="13.9" fill="#005DFF" fill-opacity="0.66" stroke="#111" stroke-width="2.5"/>
<text x="676.9" y="776.0" text-anchor="middle" font-family="Arial, Helvetica, sans-serif" font-size="21" font-weight="800" fill="white" stroke="#111" stroke-width="3" paint-order="stroke">5</text>
<circle cx="793.8" cy="758.1" r="22.2" fill="white" fill-opacity="0.84"/>
<circle cx="793.8" cy="758.1" r="19.2" fill="#005DFF" fill-opacity="0.66" stroke="#111" stroke-width="2.5"/>
<text x="793.8" y="765.1" text-anchor="middle" font-family="Arial, Helvetica, sans-serif" font-size="21" font-weight="800" fill="white" stroke="#111" stroke-width="3" paint-order="stroke">6</text>
<circle cx="800.9" cy="715.9" r="24.7" fill="white" fill-opacity="0.84"/>
<circle cx="800.9" cy="715.9" r="21.7" fill="#005DFF" fill-opacity="0.66" stroke="#111" stroke-width="2.5"/>
<text x="800.9" y="722.9" text-anchor="middle" font-family="Arial, Helvetica, sans-serif" font-size="21" font-weight="800" fill="white" stroke="#111" stroke-width="3" paint-order="stroke">7</text>
<circle cx="1343.2" cy="304.0" r="16.1" fill="white" fill-opacity="0.84"/>
<circle cx="1343.2" cy="304.0" r="13.1" fill="#005DFF" fill-opacity="0.66" stroke="#111" stroke-width="2.5"/>
<text x="1343.2" y="311.0" text-anchor="middle" font-family="Arial, Helvetica, sans-serif" font-size="21" font-weight="800" fill="white" stroke="#111" stroke-width="3" paint-order="stroke">8</text>
<circle cx="1245.0" cy="328.3" r="17.4" fill="white" fill-opacity="0.84"/>
<circle cx="1245.0" cy="328.3" r="14.4" fill="#005DFF" fill-opacity="0.66" stroke="#111" stroke-width="2.5"/>
<text x="1245.0" y="335.3" text-anchor="middle" font-family="Arial, Helvetica, sans-serif" font-size="21" font-weight="800" fill="white" stroke="#111" stroke-width="3" paint-order="stroke">9</text>
<circle cx="1083.2" cy="371.9" r="19.1" fill="white" fill-opacity="0.84"/>
<circle cx="1083.2" cy="371.9" r="16.1" fill="#005DFF" fill-opacity="0.66" stroke="#111" stroke-width="2.5"/>
<text x="1083.2" y="378.9" text-anchor="middle" font-family="Arial, Helvetica, sans-serif" font-size="21" font-weight="800" fill="white" stroke="#111" stroke-width="3" paint-order="stroke">10</text>
<circle cx="1447.6" cy="365.8" r="18.4" fill="white" fill-opacity="0.84"/>
<circle cx="1447.6" cy="365.8" r="15.4" fill="#005DFF" fill-opacity="0.66" stroke="#111" stroke-width="2.5"/>
<text x="1447.6" y="372.8" text-anchor="middle" font-family="Arial, Helvetica, sans-serif" font-size="21" font-weight="800" fill="white" stroke="#111" stroke-width="3" paint-order="stroke">11</text>
<circle cx="1512.4" cy="304.2" r="17.4" fill="white" fill-opacity="0.84"/>
<circle cx="1512.4" cy="304.2" r="14.4" fill="#005DFF" fill-opacity="0.66" stroke="#111" stroke-width="2.5"/>
<text x="1512.4" y="311.2" text-anchor="middle" font-family="Arial, Helvetica, sans-serif" font-size="21" font-weight="800" fill="white" stroke="#111" stroke-width="3" paint-order="stroke">12</text>
<circle cx="656.1" cy="749.1" r="19.1" fill="white" fill-opacity="0.84"/>
<circle cx="656.1" cy="749.1" r="16.1" fill="#005DFF" fill-opacity="0.66" stroke="#111" stroke-width="2.5"/>
<text x="656.1" y="756.1" text-anchor="middle" font-family="Arial, Helvetica, sans-serif" font-size="21" font-weight="800" fill="white" stroke="#111" stroke-width="3" paint-order="stroke">13</text>
<circle cx="787.0" cy="698.1" r="20.1" fill="white" fill-opacity="0.84"/>
<circle cx="787.0" cy="698.1" r="17.1" fill="#005DFF" fill-opacity="0.66" stroke="#111" stroke-width="2.5"/>
<text x="787.0" y="705.1" text-anchor="middle" font-family="Arial, Helvetica, sans-serif" font-size="21" font-weight="800" fill="white" stroke="#111" stroke-width="3" paint-order="stroke">14</text>
<circle cx="735.1" cy="724.2" r="17.5" fill="white" fill-opacity="0.84"/>
<circle cx="735.1" cy="724.2" r="14.5" fill="#005DFF" fill-opacity="0.66" stroke="#111" stroke-width="2.5"/>
<text x="735.1" y="731.2" text-anchor="middle" font-family="Arial, Helvetica, sans-serif" font-size="21" font-weight="800" fill="white" stroke="#111" stroke-width="3" paint-order="stroke">15</text>
<circle cx="806.5" cy="721.4" r="20.5" fill="white" fill-opacity="0.84"/>
<circle cx="806.5" cy="721.4" r="17.5" fill="#005DFF" fill-opacity="0.66" stroke="#111" stroke-width="2.5"/>
<text x="806.5" y="728.4" text-anchor="middle" font-family="Arial, Helvetica, sans-serif" font-size="21" font-weight="800" fill="white" stroke="#111" stroke-width="3" paint-order="stroke">16</text>
<circle cx="752.6" cy="698.3" r="21.8" fill="white" fill-opacity="0.84"/>
<circle cx="752.6" cy="698.3" r="18.8" fill="#005DFF" fill-opacity="0.66" stroke="#111" stroke-width="2.5"/>
<text x="752.6" y="705.3" text-anchor="middle" font-family="Arial, Helvetica, sans-serif" font-size="21" font-weight="800" fill="white" stroke="#111" stroke-width="3" paint-order="stroke">17</text>
<circle cx="799.1" cy="685.8" r="20.0" fill="white" fill-opacity="0.84"/>
<circle cx="799.1" cy="685.8" r="17.0" fill="#005DFF" fill-opacity="0.66" stroke="#111" stroke-width="2.5"/>
<text x="799.1" y="692.8" text-anchor="middle" font-family="Arial, Helvetica, sans-serif" font-size="21" font-weight="800" fill="white" stroke="#111" stroke-width="3" paint-order="stroke">18</text>
<circle cx="770.4" cy="684.6" r="20.3" fill="white" fill-opacity="0.84"/>
<circle cx="770.4" cy="684.6" r="17.3" fill="#005DFF" fill-opacity="0.66" stroke="#111" stroke-width="2.5"/>
<text x="770.4" y="691.6" text-anchor="middle" font-family="Arial, Helvetica, sans-serif" font-size="21" font-weight="800" fill="white" stroke="#111" stroke-width="3" paint-order="stroke">19</text>
<circle cx="666.8" cy="648.2" r="17.9" fill="white" fill-opacity="0.84"/>
<circle cx="666.8" cy="648.2" r="14.9" fill="#005DFF" fill-opacity="0.66" stroke="#111" stroke-width="2.5"/>
<text x="666.8" y="655.2" text-anchor="middle" font-family="Arial, Helvetica, sans-serif" font-size="21" font-weight="800" fill="white" stroke="#111" stroke-width="3" paint-order="stroke">20</text>
<circle cx="559.4" cy="733.9" r="18.7" fill="white" fill-opacity="0.84"/>
<circle cx="559.4" cy="733.9" r="15.7" fill="#005DFF" fill-opacity="0.66" stroke="#111" stroke-width="2.5"/>
<text x="559.4" y="740.9" text-anchor="middle" font-family="Arial, Helvetica, sans-serif" font-size="21" font-weight="800" fill="white" stroke="#111" stroke-width="3" paint-order="stroke">21</text>
<circle cx="751.6" cy="637.3" r="22.9" fill="white" fill-opacity="0.84"/>
<circle cx="751.6" cy="637.3" r="19.9" fill="#005DFF" fill-opacity="0.66" stroke="#111" stroke-width="2.5"/>
<text x="751.6" y="644.3" text-anchor="middle" font-family="Arial, Helvetica, sans-serif" font-size="21" font-weight="800" fill="white" stroke="#111" stroke-width="3" paint-order="stroke">22</text>
<circle cx="602.3" cy="751.7" r="19.0" fill="white" fill-opacity="0.84"/>
<circle cx="602.3" cy="751.7" r="16.0" fill="#005DFF" fill-opacity="0.66" stroke="#111" stroke-width="2.5"/>
<text x="602.3" y="758.7" text-anchor="middle" font-family="Arial, Helvetica, sans-serif" font-size="21" font-weight="800" fill="white" stroke="#111" stroke-width="3" paint-order="stroke">23</text>
<circle cx="567.3" cy="775.8" r="21.6" fill="white" fill-opacity="0.84"/>
<circle cx="567.3" cy="775.8" r="18.6" fill="#005DFF" fill-opacity="0.66" stroke="#111" stroke-width="2.5"/>
<text x="567.3" y="782.8" text-anchor="middle" font-family="Arial, Helvetica, sans-serif" font-size="21" font-weight="800" fill="white" stroke="#111" stroke-width="3" paint-order="stroke">24</text>
<circle cx="638.2" cy="724.7" r="17.0" fill="white" fill-opacity="0.84"/>
<circle cx="638.2" cy="724.7" r="14.0" fill="#005DFF" fill-opacity="0.66" stroke="#111" stroke-width="2.5"/>
<text x="638.2" y="731.7" text-anchor="middle" font-family="Arial, Helvetica, sans-serif" font-size="21" font-weight="800" fill="white" stroke="#111" stroke-width="3" paint-order="stroke">25</text>
<circle cx="596.0" cy="761.2" r="19.7" fill="white" fill-opacity="0.84"/>
<circle cx="596.0" cy="761.2" r="16.7" fill="#005DFF" fill-opacity="0.66" stroke="#111" stroke-width="2.5"/>
<text x="596.0" y="768.2" text-anchor="middle" font-family="Arial, Helvetica, sans-serif" font-size="21" font-weight="800" fill="white" stroke="#111" stroke-width="3" paint-order="stroke">26</text>
<circle cx="772.7" cy="726.2" r="20.4" fill="white" fill-opacity="0.84"/>
<circle cx="772.7" cy="726.2" r="17.4" fill="#005DFF" fill-opacity="0.66" stroke="#111" stroke-width="2.5"/>
<text x="772.7" y="733.2" text-anchor="middle" font-family="Arial, Helvetica, sans-serif" font-size="21" font-weight="800" fill="white" stroke="#111" stroke-width="3" paint-order="stroke">27</text>
<circle cx="805.9" cy="734.4" r="21.0" fill="white" fill-opacity="0.84"/>
<circle cx="805.9" cy="734.4" r="18.0" fill="#005DFF" fill-opacity="0.66" stroke="#111" stroke-width="2.5"/>
<text x="805.9" y="741.4" text-anchor="middle" font-family="Arial, Helvetica, sans-serif" font-size="21" font-weight="800" fill="white" stroke="#111" stroke-width="3" paint-order="stroke">28</text>
<circle cx="630.9" cy="760.1" r="18.5" fill="white" fill-opacity="0.84"/>
<circle cx="630.9" cy="760.1" r="15.5" fill="#005DFF" fill-opacity="0.66" stroke="#111" stroke-width="2.5"/>
<text x="630.9" y="767.1" text-anchor="middle" font-family="Arial, Helvetica, sans-serif" font-size="21" font-weight="800" fill="white" stroke="#111" stroke-width="3" paint-order="stroke">29</text>
<circle cx="552.1" cy="777.6" r="18.0" fill="white" fill-opacity="0.84"/>
<circle cx="552.1" cy="777.6" r="15.0" fill="#005DFF" fill-opacity="0.66" stroke="#111" stroke-width="2.5"/>
<text x="552.1" y="784.6" text-anchor="middle" font-family="Arial, Helvetica, sans-serif" font-size="21" font-weight="800" fill="white" stroke="#111" stroke-width="3" paint-order="stroke">30</text>
<circle cx="699.1" cy="642.4" r="15.7" fill="white" fill-opacity="0.84"/>
<circle cx="699.1" cy="642.4" r="12.7" fill="#005DFF" fill-opacity="0.66" stroke="#111" stroke-width="2.5"/>
<text x="699.1" y="649.4" text-anchor="middle" font-family="Arial, Helvetica, sans-serif" font-size="21" font-weight="800" fill="white" stroke="#111" stroke-width="3" paint-order="stroke">31</text>
<circle cx="1057.1" cy="431.1" r="24.9" fill="white" fill-opacity="0.84"/>
<circle cx="1057.1" cy="431.1" r="21.9" fill="#005DFF" fill-opacity="0.66" stroke="#111" stroke-width="2.5"/>
<text x="1057.1" y="438.1" text-anchor="middle" font-family="Arial, Helvetica, sans-serif" font-size="21" font-weight="800" fill="white" stroke="#111" stroke-width="3" paint-order="stroke">32</text>
<circle cx="1283.8" cy="301.7" r="17.4" fill="white" fill-opacity="0.84"/>
<circle cx="1283.8" cy="301.7" r="14.4" fill="#005DFF" fill-opacity="0.66" stroke="#111" stroke-width="2.5"/>
<text x="1283.8" y="308.7" text-anchor="middle" font-family="Arial, Helvetica, sans-serif" font-size="21" font-weight="800" fill="white" stroke="#111" stroke-width="3" paint-order="stroke">33</text>
<circle cx="1226.3" cy="343.5" r="22.6" fill="white" fill-opacity="0.84"/>
<circle cx="1226.3" cy="343.5" r="19.6" fill="#005DFF" fill-opacity="0.66" stroke="#111" stroke-width="2.5"/>
<text x="1226.3" y="350.5" text-anchor="middle" font-family="Arial, Helvetica, sans-serif" font-size="21" font-weight="800" fill="white" stroke="#111" stroke-width="3" paint-order="stroke">34</text>
<circle cx="1490.0" cy="114.1" r="21.9" fill="white" fill-opacity="0.84"/>
<circle cx="1490.0" cy="114.1" r="18.9" fill="#005DFF" fill-opacity="0.66" stroke="#111" stroke-width="2.5"/>
<text x="1490.0" y="121.1" text-anchor="middle" font-family="Arial, Helvetica, sans-serif" font-size="21" font-weight="800" fill="white" stroke="#111" stroke-width="3" paint-order="stroke">35</text>
<circle cx="1492.2" cy="124.3" r="12.2" fill="white" fill-opacity="0.84"/>
<circle cx="1492.2" cy="124.3" r="9.2" fill="#005DFF" fill-opacity="0.66" stroke="#111" stroke-width="2.5"/>
<text x="1492.2" y="131.3" text-anchor="middle" font-family="Arial, Helvetica, sans-serif" font-size="21" font-weight="800" fill="white" stroke="#111" stroke-width="3" paint-order="stroke">36</text>
<circle cx="1491.3" cy="123.5" r="13.5" fill="white" fill-opacity="0.84"/>
<circle cx="1491.3" cy="123.5" r="10.5" fill="#005DFF" fill-opacity="0.66" stroke="#111" stroke-width="2.5"/>
<text x="1491.3" y="130.5" text-anchor="middle" font-family="Arial, Helvetica, sans-serif" font-size="21" font-weight="800" fill="white" stroke="#111" stroke-width="3" paint-order="stroke">37</text>
<circle cx="1246.5" cy="325.5" r="24.9" fill="white" fill-opacity="0.84"/>
<circle cx="1246.5" cy="325.5" r="21.9" fill="#005DFF" fill-opacity="0.66" stroke="#111" stroke-width="2.5"/>
<text x="1246.5" y="332.5" text-anchor="middle" font-family="Arial, Helvetica, sans-serif" font-size="21" font-weight="800" fill="white" stroke="#111" stroke-width="3" paint-order="stroke">38</text>
<circle cx="1454.1" cy="274.9" r="17.5" fill="white" fill-opacity="0.84"/>
<circle cx="1454.1" cy="274.9" r="14.5" fill="#FF8A00" fill-opacity="0.66" stroke="#111" stroke-width="2.5"/>
<text x="1454.1" y="281.9" text-anchor="middle" font-family="Arial, Helvetica, sans-serif" font-size="21" font-weight="800" fill="white" stroke="#111" stroke-width="3" paint-order="stroke">39</text>
<circle cx="1503.0" cy="277.0" r="17.1" fill="white" fill-opacity="0.84"/>
<circle cx="1503.0" cy="277.0" r="14.1" fill="#FF8A00" fill-opacity="0.66" stroke="#111" stroke-width="2.5"/>
<text x="1503.0" y="284.0" text-anchor="middle" font-family="Arial, Helvetica, sans-serif" font-size="21" font-weight="800" fill="white" stroke="#111" stroke-width="3" paint-order="stroke">40</text>
<circle cx="1408.6" cy="299.0" r="15.8" fill="white" fill-opacity="0.84"/>
<circle cx="1408.6" cy="299.0" r="12.8" fill="#FF8A00" fill-opacity="0.66" stroke="#111" stroke-width="2.5"/>
<text x="1408.6" y="306.0" text-anchor="middle" font-family="Arial, Helvetica, sans-serif" font-size="21" font-weight="800" fill="white" stroke="#111" stroke-width="3" paint-order="stroke">41</text>
<circle cx="1080.8" cy="443.9" r="17.2" fill="white" fill-opacity="0.84"/>
<circle cx="1080.8" cy="443.9" r="14.2" fill="#FF8A00" fill-opacity="0.66" stroke="#111" stroke-width="2.5"/>
<text x="1080.8" y="450.9" text-anchor="middle" font-family="Arial, Helvetica, sans-serif" font-size="21" font-weight="800" fill="white" stroke="#111" stroke-width="3" paint-order="stroke">42</text>
<circle cx="1042.2" cy="387.9" r="18.6" fill="white" fill-opacity="0.84"/>
<circle cx="1042.2" cy="387.9" r="15.6" fill="#FF8A00" fill-opacity="0.66" stroke="#111" stroke-width="2.5"/>
<text x="1042.2" y="394.9" text-anchor="middle" font-family="Arial, Helvetica, sans-serif" font-size="21" font-weight="800" fill="white" stroke="#111" stroke-width="3" paint-order="stroke">43</text>
<rect x="16" y="1094" width="1120" height="168" rx="8" fill="white" fill-opacity="0.92" stroke="#111" stroke-opacity="0.22"/>
<text x="36.0" y="1128.0" font-family="Arial, Helvetica, sans-serif" font-size="24" font-weight="600" fill="#111">K10 / k10_1.asc block 31 | hang-2-2-r.png | RT 15486 ms | 43 fixations</text>
<text x="36.0" y="1159.0" font-family="Arial, Helvetica, sans-serif" font-size="24" font-weight="600" fill="#111">numbers show fixation order; dot size shows fixation duration</text>
<circle cx="42" cy="1198" r="11" fill="#005DFF" fill-opacity="0.64" stroke="#111" stroke-width="2"/>
<text x="62.0" y="1206.0" font-family="Arial, Helvetica, sans-serif" font-size="22" font-weight="500" fill="#111">blue: before speech onset</text>
<circle cx="42" cy="1232" r="11" fill="#FF8A00" fill-opacity="0.64" stroke="#111" stroke-width="2"/>
<text x="62.0" y="1240.0" font-family="Arial, Helvetica, sans-serif" font-size="22" font-weight="500" fill="#111">orange: first 2000 ms after onset</text>
</svg>
