<svg xmlns="http://www.w3.org/2000/svg" width="1920" height="1320" viewBox="0 0 1920 1320">
<image href="https://raw.githubusercontent.com/mkurg/koryak/main/stimuli/Animate-animate%20centered%20and%20flipped/call-1-2-l.png" x="0" y="0" width="1920" height="1080" preserveAspectRatio="none"/>
<rect x="0" y="0" width="1920" height="1080" fill="none" stroke="#111" stroke-width="2"/>
<rect x="0" y="1080" width="1920" height="240" fill="#f7f7f7"/>
<rect x="40.0" y="100.0" width="850" height="850" fill="none" stroke="#00B8D9" stroke-width="6" stroke-dasharray="18 12"/>
<rect x="52.0" y="62.0" width="102.0" height="38" rx="6" fill="white" fill-opacity="0.86" stroke="#00B8D9" stroke-width="3"/>
<text x="62.0" y="88.0" font-family="Arial, Helvetica, sans-serif" font-size="24" font-weight="700" fill="#111">AGENT</text>
<rect x="970.0" y="100.0" width="850" height="850" fill="none" stroke="#FF3B8A" stroke-width="6" stroke-dasharray="18 12"/>
<rect x="982.0" y="62.0" width="134.0" height="38" rx="6" fill="white" fill-opacity="0.86" stroke="#FF3B8A" stroke-width="3"/>
<text x="992.0" y="88.0" font-family="Arial, Helvetica, sans-serif" font-size="24" font-weight="700" fill="#111">PATIENT</text>
<polyline points="1199.1,427.2 793.9,420.3 748.2,409.7 744.7,371.0 756.5,403.7 780.1,401.9 744.7,367.7 731.7,402.8 729.4,359.3 1310.9,386.9 744.9,391.4 686.5,555.3 747.9,433.0 726.3,356.2 693.7,573.2 713.3,363.4 734.8,339.7 692.8,445.8 714.0,370.8 698.8,341.7 643.2,523.4 710.7,386.6 647.7,546.5 716.1,368.8 660.2,594.1 654.4,688.5 747.0,460.4 782.8,414.8 1409.3,322.6 1445.1,349.8 1603.2,365.3 1327.5,357.7 729.7,433.4 866.7,403.1 1324.1,409.6" fill="none" stroke="#111" stroke-width="4" stroke-opacity="0.36" stroke-linejoin="round"/>
<circle cx="1199.1" cy="427.2" r="15.8" fill="white" fill-opacity="0.84"/>
<circle cx="1199.1" cy="427.2" r="12.8" fill="#005DFF" fill-opacity="0.66" stroke="#111" stroke-width="2.5"/>
<text x="1199.1" y="434.2" text-anchor="middle" font-family="Arial, Helvetica, sans-serif" font-size="21" font-weight="800" fill="white" stroke="#111" stroke-width="3" paint-order="stroke">1</text>
<circle cx="793.9" cy="420.3" r="16.8" fill="white" fill-opacity="0.84"/>
<circle cx="793.9" cy="420.3" r="13.8" fill="#005DFF" fill-opacity="0.66" stroke="#111" stroke-width="2.5"/>
<text x="793.9" y="427.3" text-anchor="middle" font-family="Arial, Helvetica, sans-serif" font-size="21" font-weight="800" fill="white" stroke="#111" stroke-width="3" paint-order="stroke">2</text>
<circle cx="748.2" cy="409.7" r="16.6" fill="white" fill-opacity="0.84"/>
<circle cx="748.2" cy="409.7" r="13.6" fill="#005DFF" fill-opacity="0.66" stroke="#111" stroke-width="2.5"/>
<text x="748.2" y="416.7" text-anchor="middle" font-family="Arial, Helvetica, sans-serif" font-size="21" font-weight="800" fill="white" stroke="#111" stroke-width="3" paint-order="stroke">3</text>
<circle cx="744.7" cy="371.0" r="17.4" fill="white" fill-opacity="0.84"/>
<circle cx="744.7" cy="371.0" r="14.4" fill="#005DFF" fill-opacity="0.66" stroke="#111" stroke-width="2.5"/>
<text x="744.7" y="378.0" text-anchor="middle" font-family="Arial, Helvetica, sans-serif" font-size="21" font-weight="800" fill="white" stroke="#111" stroke-width="3" paint-order="stroke">4</text>
<circle cx="756.5" cy="403.7" r="16.3" fill="white" fill-opacity="0.84"/>
<circle cx="756.5" cy="403.7" r="13.3" fill="#005DFF" fill-opacity="0.66" stroke="#111" stroke-width="2.5"/>
<text x="756.5" y="410.7" text-anchor="middle" font-family="Arial, Helvetica, sans-serif" font-size="21" font-weight="800" fill="white" stroke="#111" stroke-width="3" paint-order="stroke">5</text>
<circle cx="780.1" cy="401.9" r="15.6" fill="white" fill-opacity="0.84"/>
<circle cx="780.1" cy="401.9" r="12.6" fill="#005DFF" fill-opacity="0.66" stroke="#111" stroke-width="2.5"/>
<text x="780.1" y="408.9" text-anchor="middle" font-family="Arial, Helvetica, sans-serif" font-size="21" font-weight="800" fill="white" stroke="#111" stroke-width="3" paint-order="stroke">6</text>
<circle cx="744.7" cy="367.7" r="17.0" fill="white" fill-opacity="0.84"/>
<circle cx="744.7" cy="367.7" r="14.0" fill="#005DFF" fill-opacity="0.66" stroke="#111" stroke-width="2.5"/>
<text x="744.7" y="374.7" text-anchor="middle" font-family="Arial, Helvetica, sans-serif" font-size="21" font-weight="800" fill="white" stroke="#111" stroke-width="3" paint-order="stroke">7</text>
<circle cx="731.7" cy="402.8" r="16.5" fill="white" fill-opacity="0.84"/>
<circle cx="731.7" cy="402.8" r="13.5" fill="#005DFF" fill-opacity="0.66" stroke="#111" stroke-width="2.5"/>
<text x="731.7" y="409.8" text-anchor="middle" font-family="Arial, Helvetica, sans-serif" font-size="21" font-weight="800" fill="white" stroke="#111" stroke-width="3" paint-order="stroke">8</text>
<circle cx="729.4" cy="359.3" r="16.5" fill="white" fill-opacity="0.84"/>
<circle cx="729.4" cy="359.3" r="13.5" fill="#005DFF" fill-opacity="0.66" stroke="#111" stroke-width="2.5"/>
<text x="729.4" y="366.3" text-anchor="middle" font-family="Arial, Helvetica, sans-serif" font-size="21" font-weight="800" fill="white" stroke="#111" stroke-width="3" paint-order="stroke">9</text>
<circle cx="1310.9" cy="386.9" r="20.4" fill="white" fill-opacity="0.84"/>
<circle cx="1310.9" cy="386.9" r="17.4" fill="#005DFF" fill-opacity="0.66" stroke="#111" stroke-width="2.5"/>
<text x="1310.9" y="393.9" text-anchor="middle" font-family="Arial, Helvetica, sans-serif" font-size="21" font-weight="800" fill="white" stroke="#111" stroke-width="3" paint-order="stroke">10</text>
<circle cx="744.9" cy="391.4" r="18.7" fill="white" fill-opacity="0.84"/>
<circle cx="744.9" cy="391.4" r="15.7" fill="#005DFF" fill-opacity="0.66" stroke="#111" stroke-width="2.5"/>
<text x="744.9" y="398.4" text-anchor="middle" font-family="Arial, Helvetica, sans-serif" font-size="21" font-weight="800" fill="white" stroke="#111" stroke-width="3" paint-order="stroke">11</text>
<circle cx="686.5" cy="555.3" r="17.6" fill="white" fill-opacity="0.84"/>
<circle cx="686.5" cy="555.3" r="14.6" fill="#005DFF" fill-opacity="0.66" stroke="#111" stroke-width="2.5"/>
<text x="686.5" y="562.3" text-anchor="middle" font-family="Arial, Helvetica, sans-serif" font-size="21" font-weight="800" fill="white" stroke="#111" stroke-width="3" paint-order="stroke">12</text>
<circle cx="747.9" cy="433.0" r="17.3" fill="white" fill-opacity="0.84"/>
<circle cx="747.9" cy="433.0" r="14.3" fill="#005DFF" fill-opacity="0.66" stroke="#111" stroke-width="2.5"/>
<text x="747.9" y="440.0" text-anchor="middle" font-family="Arial, Helvetica, sans-serif" font-size="21" font-weight="800" fill="white" stroke="#111" stroke-width="3" paint-order="stroke">13</text>
<circle cx="726.3" cy="356.2" r="19.2" fill="white" fill-opacity="0.84"/>
<circle cx="726.3" cy="356.2" r="16.2" fill="#005DFF" fill-opacity="0.66" stroke="#111" stroke-width="2.5"/>
<text x="726.3" y="363.2" text-anchor="middle" font-family="Arial, Helvetica, sans-serif" font-size="21" font-weight="800" fill="white" stroke="#111" stroke-width="3" paint-order="stroke">14</text>
<circle cx="693.7" cy="573.2" r="17.6" fill="white" fill-opacity="0.84"/>
<circle cx="693.7" cy="573.2" r="14.6" fill="#005DFF" fill-opacity="0.66" stroke="#111" stroke-width="2.5"/>
<text x="693.7" y="580.2" text-anchor="middle" font-family="Arial, Helvetica, sans-serif" font-size="21" font-weight="800" fill="white" stroke="#111" stroke-width="3" paint-order="stroke">15</text>
<circle cx="713.3" cy="363.4" r="18.6" fill="white" fill-opacity="0.84"/>
<circle cx="713.3" cy="363.4" r="15.6" fill="#005DFF" fill-opacity="0.66" stroke="#111" stroke-width="2.5"/>
<text x="713.3" y="370.4" text-anchor="middle" font-family="Arial, Helvetica, sans-serif" font-size="21" font-weight="800" fill="white" stroke="#111" stroke-width="3" paint-order="stroke">16</text>
<circle cx="734.8" cy="339.7" r="16.9" fill="white" fill-opacity="0.84"/>
<circle cx="734.8" cy="339.7" r="13.9" fill="#005DFF" fill-opacity="0.66" stroke="#111" stroke-width="2.5"/>
<text x="734.8" y="346.7" text-anchor="middle" font-family="Arial, Helvetica, sans-serif" font-size="21" font-weight="800" fill="white" stroke="#111" stroke-width="3" paint-order="stroke">17</text>
<circle cx="692.8" cy="445.8" r="16.9" fill="white" fill-opacity="0.84"/>
<circle cx="692.8" cy="445.8" r="13.9" fill="#005DFF" fill-opacity="0.66" stroke="#111" stroke-width="2.5"/>
<text x="692.8" y="452.8" text-anchor="middle" font-family="Arial, Helvetica, sans-serif" font-size="21" font-weight="800" fill="white" stroke="#111" stroke-width="3" paint-order="stroke">18</text>
<circle cx="714.0" cy="370.8" r="15.6" fill="white" fill-opacity="0.84"/>
<circle cx="714.0" cy="370.8" r="12.6" fill="#005DFF" fill-opacity="0.66" stroke="#111" stroke-width="2.5"/>
<text x="714.0" y="377.8" text-anchor="middle" font-family="Arial, Helvetica, sans-serif" font-size="21" font-weight="800" fill="white" stroke="#111" stroke-width="3" paint-order="stroke">19</text>
<circle cx="698.8" cy="341.7" r="16.3" fill="white" fill-opacity="0.84"/>
<circle cx="698.8" cy="341.7" r="13.3" fill="#005DFF" fill-opacity="0.66" stroke="#111" stroke-width="2.5"/>
<text x="698.8" y="348.7" text-anchor="middle" font-family="Arial, Helvetica, sans-serif" font-size="21" font-weight="800" fill="white" stroke="#111" stroke-width="3" paint-order="stroke">20</text>
<circle cx="643.2" cy="523.4" r="16.8" fill="white" fill-opacity="0.84"/>
<circle cx="643.2" cy="523.4" r="13.8" fill="#005DFF" fill-opacity="0.66" stroke="#111" stroke-width="2.5"/>
<text x="643.2" y="530.4" text-anchor="middle" font-family="Arial, Helvetica, sans-serif" font-size="21" font-weight="800" fill="white" stroke="#111" stroke-width="3" paint-order="stroke">21</text>
<circle cx="710.7" cy="386.6" r="17.8" fill="white" fill-opacity="0.84"/>
<circle cx="710.7" cy="386.6" r="14.8" fill="#005DFF" fill-opacity="0.66" stroke="#111" stroke-width="2.5"/>
<text x="710.7" y="393.6" text-anchor="middle" font-family="Arial, Helvetica, sans-serif" font-size="21" font-weight="800" fill="white" stroke="#111" stroke-width="3" paint-order="stroke">22</text>
<circle cx="647.7" cy="546.5" r="17.9" fill="white" fill-opacity="0.84"/>
<circle cx="647.7" cy="546.5" r="14.9" fill="#005DFF" fill-opacity="0.66" stroke="#111" stroke-width="2.5"/>
<text x="647.7" y="553.5" text-anchor="middle" font-family="Arial, Helvetica, sans-serif" font-size="21" font-weight="800" fill="white" stroke="#111" stroke-width="3" paint-order="stroke">23</text>
<circle cx="716.1" cy="368.8" r="18.4" fill="white" fill-opacity="0.84"/>
<circle cx="716.1" cy="368.8" r="15.4" fill="#005DFF" fill-opacity="0.66" stroke="#111" stroke-width="2.5"/>
<text x="716.1" y="375.8" text-anchor="middle" font-family="Arial, Helvetica, sans-serif" font-size="21" font-weight="800" fill="white" stroke="#111" stroke-width="3" paint-order="stroke">24</text>
<circle cx="660.2" cy="594.1" r="16.3" fill="white" fill-opacity="0.84"/>
<circle cx="660.2" cy="594.1" r="13.3" fill="#005DFF" fill-opacity="0.66" stroke="#111" stroke-width="2.5"/>
<text x="660.2" y="601.1" text-anchor="middle" font-family="Arial, Helvetica, sans-serif" font-size="21" font-weight="800" fill="white" stroke="#111" stroke-width="3" paint-order="stroke">25</text>
<circle cx="654.4" cy="688.5" r="15.5" fill="white" fill-opacity="0.84"/>
<circle cx="654.4" cy="688.5" r="12.5" fill="#005DFF" fill-opacity="0.66" stroke="#111" stroke-width="2.5"/>
<text x="654.4" y="695.5" text-anchor="middle" font-family="Arial, Helvetica, sans-serif" font-size="21" font-weight="800" fill="white" stroke="#111" stroke-width="3" paint-order="stroke">26</text>
<circle cx="747.0" cy="460.4" r="18.2" fill="white" fill-opacity="0.84"/>
<circle cx="747.0" cy="460.4" r="15.2" fill="#FF8A00" fill-opacity="0.66" stroke="#111" stroke-width="2.5"/>
<text x="747.0" y="467.4" text-anchor="middle" font-family="Arial, Helvetica, sans-serif" font-size="21" font-weight="800" fill="white" stroke="#111" stroke-width="3" paint-order="stroke">27</text>
<circle cx="782.8" cy="414.8" r="14.4" fill="white" fill-opacity="0.84"/>
<circle cx="782.8" cy="414.8" r="11.4" fill="#FF8A00" fill-opacity="0.66" stroke="#111" stroke-width="2.5"/>
<text x="782.8" y="421.8" text-anchor="middle" font-family="Arial, Helvetica, sans-serif" font-size="21" font-weight="800" fill="white" stroke="#111" stroke-width="3" paint-order="stroke">28</text>
<circle cx="1409.3" cy="322.6" r="13.4" fill="white" fill-opacity="0.84"/>
<circle cx="1409.3" cy="322.6" r="10.4" fill="#FF8A00" fill-opacity="0.66" stroke="#111" stroke-width="2.5"/>
<text x="1409.3" y="329.6" text-anchor="middle" font-family="Arial, Helvetica, sans-serif" font-size="21" font-weight="800" fill="white" stroke="#111" stroke-width="3" paint-order="stroke">29</text>
<circle cx="1445.1" cy="349.8" r="12.5" fill="white" fill-opacity="0.84"/>
<circle cx="1445.1" cy="349.8" r="9.5" fill="#FF8A00" fill-opacity="0.66" stroke="#111" stroke-width="2.5"/>
<text x="1445.1" y="356.8" text-anchor="middle" font-family="Arial, Helvetica, sans-serif" font-size="21" font-weight="800" fill="white" stroke="#111" stroke-width="3" paint-order="stroke">30</text>
<circle cx="1603.2" cy="365.3" r="17.0" fill="white" fill-opacity="0.84"/>
<circle cx="1603.2" cy="365.3" r="14.0" fill="#FF8A00" fill-opacity="0.66" stroke="#111" stroke-width="2.5"/>
<text x="1603.2" y="372.3" text-anchor="middle" font-family="Arial, Helvetica, sans-serif" font-size="21" font-weight="800" fill="white" stroke="#111" stroke-width="3" paint-order="stroke">31</text>
<circle cx="1327.5" cy="357.7" r="15.6" fill="white" fill-opacity="0.84"/>
<circle cx="1327.5" cy="357.7" r="12.6" fill="#FF8A00" fill-opacity="0.66" stroke="#111" stroke-width="2.5"/>
<text x="1327.5" y="364.7" text-anchor="middle" font-family="Arial, Helvetica, sans-serif" font-size="21" font-weight="800" fill="white" stroke="#111" stroke-width="3" paint-order="stroke">32</text>
<circle cx="729.7" cy="433.4" r="18.2" fill="white" fill-opacity="0.84"/>
<circle cx="729.7" cy="433.4" r="15.2" fill="#FF8A00" fill-opacity="0.66" stroke="#111" stroke-width="2.5"/>
<text x="729.7" y="440.4" text-anchor="middle" font-family="Arial, Helvetica, sans-serif" font-size="21" font-weight="800" fill="white" stroke="#111" stroke-width="3" paint-order="stroke">33</text>
<circle cx="866.7" cy="403.1" r="15.5" fill="white" fill-opacity="0.84"/>
<circle cx="866.7" cy="403.1" r="12.5" fill="#FF8A00" fill-opacity="0.66" stroke="#111" stroke-width="2.5"/>
<text x="866.7" y="410.1" text-anchor="middle" font-family="Arial, Helvetica, sans-serif" font-size="21" font-weight="800" fill="white" stroke="#111" stroke-width="3" paint-order="stroke">34</text>
<circle cx="1324.1" cy="409.6" r="14.7" fill="white" fill-opacity="0.84"/>
<circle cx="1324.1" cy="409.6" r="11.7" fill="#FF8A00" fill-opacity="0.66" stroke="#111" stroke-width="2.5"/>
<text x="1324.1" y="416.6" text-anchor="middle" font-family="Arial, Helvetica, sans-serif" font-size="21" font-weight="800" fill="white" stroke="#111" stroke-width="3" paint-order="stroke">35</text>
<rect x="16" y="1094" width="1120" height="168" rx="8" fill="white" fill-opacity="0.92" stroke="#111" stroke-opacity="0.22"/>
<text x="36.0" y="1128.0" font-family="Arial, Helvetica, sans-serif" font-size="24" font-weight="600" fill="#111">K18 / k18_2.asc block 47 | call-1-2-l.png | RT 7042 ms | 35 fixations</text>
<text x="36.0" y="1159.0" font-family="Arial, Helvetica, sans-serif" font-size="24" font-weight="600" fill="#111">numbers show fixation order; dot size shows fixation duration</text>
<circle cx="42" cy="1198" r="11" fill="#005DFF" fill-opacity="0.64" stroke="#111" stroke-width="2"/>
<text x="62.0" y="1206.0" font-family="Arial, Helvetica, sans-serif" font-size="22" font-weight="500" fill="#111">blue: before speech onset</text>
<circle cx="42" cy="1232" r="11" fill="#FF8A00" fill-opacity="0.64" stroke="#111" stroke-width="2"/>
<text x="62.0" y="1240.0" font-family="Arial, Helvetica, sans-serif" font-size="22" font-weight="500" fill="#111">orange: first 2000 ms after onset</text>
</svg>
