<svg xmlns="http://www.w3.org/2000/svg" width="1920" height="1320" viewBox="0 0 1920 1320">
<image href="../../../../stimuli/Animate-animate%20centered%20and%20flipped/push-2-1-l.png" x="0" y="0" width="1920" height="1080" preserveAspectRatio="none"/>
<rect x="0" y="0" width="1920" height="1080" fill="none" stroke="#111" stroke-width="2"/>
<rect x="0" y="1080" width="1920" height="240" fill="#f7f7f7"/>
<rect x="40.0" y="100.0" width="850" height="850" fill="none" stroke="#00B8D9" stroke-width="6" stroke-dasharray="18 12"/>
<rect x="52.0" y="62.0" width="102.0" height="38" rx="6" fill="white" fill-opacity="0.86" stroke="#00B8D9" stroke-width="3"/>
<text x="62.0" y="88.0" font-family="Arial, Helvetica, sans-serif" font-size="24" font-weight="700" fill="#111">AGENT</text>
<rect x="970.0" y="100.0" width="850" height="850" fill="none" stroke="#FF3B8A" stroke-width="6" stroke-dasharray="18 12"/>
<rect x="982.0" y="62.0" width="134.0" height="38" rx="6" fill="white" fill-opacity="0.86" stroke="#FF3B8A" stroke-width="3"/>
<text x="992.0" y="88.0" font-family="Arial, Helvetica, sans-serif" font-size="24" font-weight="700" fill="#111">PATIENT</text>
<polyline points="669.1,439.3 676.7,382.1 1265.1,392.5 751.6,520.0 649.1,369.3 661.4,340.7 550.4,360.0 566.1,369.4 589.4,307.2 691.0,360.8 1261.4,371.4 1197.4,714.6 1146.2,766.7 1266.1,922.9 1221.2,412.6 1239.4,144.6 679.4,497.6 655.1,362.1 649.4,327.0 556.0,401.5 615.1,602.9 589.4,851.4 725.2,839.6 709.3,586.1 620.5,415.9 590.9,278.0 619.2,364.4 686.4,375.9 572.2,405.8 556.2,428.9 676.8,411.4 694.9,392.9 630.3,365.8 693.4,387.4 736.4,364.5 1263.0,398.3 1205.3,495.7 1168.3,548.7 1261.9,393.0 616.7,350.3 538.1,274.1 567.0,364.7 561.6,308.0 578.5,397.4 703.8,368.3 569.9,415.5 709.0,513.6" fill="none" stroke="#111" stroke-width="4" stroke-opacity="0.36" stroke-linejoin="round"/>
<circle cx="669.1" cy="439.3" r="18.2" fill="white" fill-opacity="0.84"/>
<circle cx="669.1" cy="439.3" r="15.2" fill="#005DFF" fill-opacity="0.66" stroke="#111" stroke-width="2.5"/>
<text x="669.1" y="446.3" text-anchor="middle" font-family="Arial, Helvetica, sans-serif" font-size="21" font-weight="800" fill="white" stroke="#111" stroke-width="3" paint-order="stroke">1</text>
<circle cx="676.7" cy="382.1" r="18.3" fill="white" fill-opacity="0.84"/>
<circle cx="676.7" cy="382.1" r="15.3" fill="#005DFF" fill-opacity="0.66" stroke="#111" stroke-width="2.5"/>
<text x="676.7" y="389.1" text-anchor="middle" font-family="Arial, Helvetica, sans-serif" font-size="21" font-weight="800" fill="white" stroke="#111" stroke-width="3" paint-order="stroke">2</text>
<circle cx="1265.1" cy="392.5" r="22.4" fill="white" fill-opacity="0.84"/>
<circle cx="1265.1" cy="392.5" r="19.4" fill="#005DFF" fill-opacity="0.66" stroke="#111" stroke-width="2.5"/>
<text x="1265.1" y="399.5" text-anchor="middle" font-family="Arial, Helvetica, sans-serif" font-size="21" font-weight="800" fill="white" stroke="#111" stroke-width="3" paint-order="stroke">3</text>
<circle cx="751.6" cy="520.0" r="20.6" fill="white" fill-opacity="0.84"/>
<circle cx="751.6" cy="520.0" r="17.6" fill="#005DFF" fill-opacity="0.66" stroke="#111" stroke-width="2.5"/>
<text x="751.6" y="527.0" text-anchor="middle" font-family="Arial, Helvetica, sans-serif" font-size="21" font-weight="800" fill="white" stroke="#111" stroke-width="3" paint-order="stroke">4</text>
<circle cx="649.1" cy="369.3" r="18.7" fill="white" fill-opacity="0.84"/>
<circle cx="649.1" cy="369.3" r="15.7" fill="#005DFF" fill-opacity="0.66" stroke="#111" stroke-width="2.5"/>
<text x="649.1" y="376.3" text-anchor="middle" font-family="Arial, Helvetica, sans-serif" font-size="21" font-weight="800" fill="white" stroke="#111" stroke-width="3" paint-order="stroke">5</text>
<circle cx="661.4" cy="340.7" r="15.5" fill="white" fill-opacity="0.84"/>
<circle cx="661.4" cy="340.7" r="12.5" fill="#005DFF" fill-opacity="0.66" stroke="#111" stroke-width="2.5"/>
<text x="661.4" y="347.7" text-anchor="middle" font-family="Arial, Helvetica, sans-serif" font-size="21" font-weight="800" fill="white" stroke="#111" stroke-width="3" paint-order="stroke">6</text>
<circle cx="550.4" cy="360.0" r="15.1" fill="white" fill-opacity="0.84"/>
<circle cx="550.4" cy="360.0" r="12.1" fill="#005DFF" fill-opacity="0.66" stroke="#111" stroke-width="2.5"/>
<text x="550.4" y="367.0" text-anchor="middle" font-family="Arial, Helvetica, sans-serif" font-size="21" font-weight="800" fill="white" stroke="#111" stroke-width="3" paint-order="stroke">7</text>
<circle cx="566.1" cy="369.4" r="21.2" fill="white" fill-opacity="0.84"/>
<circle cx="566.1" cy="369.4" r="18.2" fill="#005DFF" fill-opacity="0.66" stroke="#111" stroke-width="2.5"/>
<text x="566.1" y="376.4" text-anchor="middle" font-family="Arial, Helvetica, sans-serif" font-size="21" font-weight="800" fill="white" stroke="#111" stroke-width="3" paint-order="stroke">8</text>
<circle cx="589.4" cy="307.2" r="16.6" fill="white" fill-opacity="0.84"/>
<circle cx="589.4" cy="307.2" r="13.6" fill="#005DFF" fill-opacity="0.66" stroke="#111" stroke-width="2.5"/>
<text x="589.4" y="314.2" text-anchor="middle" font-family="Arial, Helvetica, sans-serif" font-size="21" font-weight="800" fill="white" stroke="#111" stroke-width="3" paint-order="stroke">9</text>
<circle cx="691.0" cy="360.8" r="23.5" fill="white" fill-opacity="0.84"/>
<circle cx="691.0" cy="360.8" r="20.5" fill="#005DFF" fill-opacity="0.66" stroke="#111" stroke-width="2.5"/>
<text x="691.0" y="367.8" text-anchor="middle" font-family="Arial, Helvetica, sans-serif" font-size="21" font-weight="800" fill="white" stroke="#111" stroke-width="3" paint-order="stroke">10</text>
<circle cx="1261.4" cy="371.4" r="21.5" fill="white" fill-opacity="0.84"/>
<circle cx="1261.4" cy="371.4" r="18.5" fill="#005DFF" fill-opacity="0.66" stroke="#111" stroke-width="2.5"/>
<text x="1261.4" y="378.4" text-anchor="middle" font-family="Arial, Helvetica, sans-serif" font-size="21" font-weight="800" fill="white" stroke="#111" stroke-width="3" paint-order="stroke">11</text>
<circle cx="1197.4" cy="714.6" r="20.1" fill="white" fill-opacity="0.84"/>
<circle cx="1197.4" cy="714.6" r="17.1" fill="#005DFF" fill-opacity="0.66" stroke="#111" stroke-width="2.5"/>
<text x="1197.4" y="721.6" text-anchor="middle" font-family="Arial, Helvetica, sans-serif" font-size="21" font-weight="800" fill="white" stroke="#111" stroke-width="3" paint-order="stroke">12</text>
<circle cx="1146.2" cy="766.7" r="17.4" fill="white" fill-opacity="0.84"/>
<circle cx="1146.2" cy="766.7" r="14.4" fill="#005DFF" fill-opacity="0.66" stroke="#111" stroke-width="2.5"/>
<text x="1146.2" y="773.7" text-anchor="middle" font-family="Arial, Helvetica, sans-serif" font-size="21" font-weight="800" fill="white" stroke="#111" stroke-width="3" paint-order="stroke">13</text>
<circle cx="1266.1" cy="922.9" r="19.7" fill="white" fill-opacity="0.84"/>
<circle cx="1266.1" cy="922.9" r="16.7" fill="#005DFF" fill-opacity="0.66" stroke="#111" stroke-width="2.5"/>
<text x="1266.1" y="929.9" text-anchor="middle" font-family="Arial, Helvetica, sans-serif" font-size="21" font-weight="800" fill="white" stroke="#111" stroke-width="3" paint-order="stroke">14</text>
<circle cx="1221.2" cy="412.6" r="15.8" fill="white" fill-opacity="0.84"/>
<circle cx="1221.2" cy="412.6" r="12.8" fill="#005DFF" fill-opacity="0.66" stroke="#111" stroke-width="2.5"/>
<text x="1221.2" y="419.6" text-anchor="middle" font-family="Arial, Helvetica, sans-serif" font-size="21" font-weight="800" fill="white" stroke="#111" stroke-width="3" paint-order="stroke">15</text>
<circle cx="1239.4" cy="144.6" r="13.4" fill="white" fill-opacity="0.84"/>
<circle cx="1239.4" cy="144.6" r="10.4" fill="#005DFF" fill-opacity="0.66" stroke="#111" stroke-width="2.5"/>
<text x="1239.4" y="151.6" text-anchor="middle" font-family="Arial, Helvetica, sans-serif" font-size="21" font-weight="800" fill="white" stroke="#111" stroke-width="3" paint-order="stroke">16</text>
<circle cx="679.4" cy="497.6" r="18.2" fill="white" fill-opacity="0.84"/>
<circle cx="679.4" cy="497.6" r="15.2" fill="#005DFF" fill-opacity="0.66" stroke="#111" stroke-width="2.5"/>
<text x="679.4" y="504.6" text-anchor="middle" font-family="Arial, Helvetica, sans-serif" font-size="21" font-weight="800" fill="white" stroke="#111" stroke-width="3" paint-order="stroke">17</text>
<circle cx="655.1" cy="362.1" r="18.5" fill="white" fill-opacity="0.84"/>
<circle cx="655.1" cy="362.1" r="15.5" fill="#005DFF" fill-opacity="0.66" stroke="#111" stroke-width="2.5"/>
<text x="655.1" y="369.1" text-anchor="middle" font-family="Arial, Helvetica, sans-serif" font-size="21" font-weight="800" fill="white" stroke="#111" stroke-width="3" paint-order="stroke">18</text>
<circle cx="649.4" cy="327.0" r="15.9" fill="white" fill-opacity="0.84"/>
<circle cx="649.4" cy="327.0" r="12.9" fill="#005DFF" fill-opacity="0.66" stroke="#111" stroke-width="2.5"/>
<text x="649.4" y="334.0" text-anchor="middle" font-family="Arial, Helvetica, sans-serif" font-size="21" font-weight="800" fill="white" stroke="#111" stroke-width="3" paint-order="stroke">19</text>
<circle cx="556.0" cy="401.5" r="23.8" fill="white" fill-opacity="0.84"/>
<circle cx="556.0" cy="401.5" r="20.8" fill="#005DFF" fill-opacity="0.66" stroke="#111" stroke-width="2.5"/>
<text x="556.0" y="408.5" text-anchor="middle" font-family="Arial, Helvetica, sans-serif" font-size="21" font-weight="800" fill="white" stroke="#111" stroke-width="3" paint-order="stroke">20</text>
<circle cx="615.1" cy="602.9" r="18.9" fill="white" fill-opacity="0.84"/>
<circle cx="615.1" cy="602.9" r="15.9" fill="#005DFF" fill-opacity="0.66" stroke="#111" stroke-width="2.5"/>
<text x="615.1" y="609.9" text-anchor="middle" font-family="Arial, Helvetica, sans-serif" font-size="21" font-weight="800" fill="white" stroke="#111" stroke-width="3" paint-order="stroke">21</text>
<circle cx="589.4" cy="851.4" r="23.1" fill="white" fill-opacity="0.84"/>
<circle cx="589.4" cy="851.4" r="20.1" fill="#005DFF" fill-opacity="0.66" stroke="#111" stroke-width="2.5"/>
<text x="589.4" y="858.4" text-anchor="middle" font-family="Arial, Helvetica, sans-serif" font-size="21" font-weight="800" fill="white" stroke="#111" stroke-width="3" paint-order="stroke">22</text>
<circle cx="725.2" cy="839.6" r="18.8" fill="white" fill-opacity="0.84"/>
<circle cx="725.2" cy="839.6" r="15.8" fill="#005DFF" fill-opacity="0.66" stroke="#111" stroke-width="2.5"/>
<text x="725.2" y="846.6" text-anchor="middle" font-family="Arial, Helvetica, sans-serif" font-size="21" font-weight="800" fill="white" stroke="#111" stroke-width="3" paint-order="stroke">23</text>
<circle cx="709.3" cy="586.1" r="20.9" fill="white" fill-opacity="0.84"/>
<circle cx="709.3" cy="586.1" r="17.9" fill="#005DFF" fill-opacity="0.66" stroke="#111" stroke-width="2.5"/>
<text x="709.3" y="593.1" text-anchor="middle" font-family="Arial, Helvetica, sans-serif" font-size="21" font-weight="800" fill="white" stroke="#111" stroke-width="3" paint-order="stroke">24</text>
<circle cx="620.5" cy="415.9" r="20.2" fill="white" fill-opacity="0.84"/>
<circle cx="620.5" cy="415.9" r="17.2" fill="#005DFF" fill-opacity="0.66" stroke="#111" stroke-width="2.5"/>
<text x="620.5" y="422.9" text-anchor="middle" font-family="Arial, Helvetica, sans-serif" font-size="21" font-weight="800" fill="white" stroke="#111" stroke-width="3" paint-order="stroke">25</text>
<circle cx="590.9" cy="278.0" r="12.0" fill="white" fill-opacity="0.84"/>
<circle cx="590.9" cy="278.0" r="9.0" fill="#005DFF" fill-opacity="0.66" stroke="#111" stroke-width="2.5"/>
<text x="590.9" y="285.0" text-anchor="middle" font-family="Arial, Helvetica, sans-serif" font-size="21" font-weight="800" fill="white" stroke="#111" stroke-width="3" paint-order="stroke">26</text>
<circle cx="619.2" cy="364.4" r="16.1" fill="white" fill-opacity="0.84"/>
<circle cx="619.2" cy="364.4" r="13.1" fill="#005DFF" fill-opacity="0.66" stroke="#111" stroke-width="2.5"/>
<text x="619.2" y="371.4" text-anchor="middle" font-family="Arial, Helvetica, sans-serif" font-size="21" font-weight="800" fill="white" stroke="#111" stroke-width="3" paint-order="stroke">27</text>
<circle cx="686.4" cy="375.9" r="27.9" fill="white" fill-opacity="0.84"/>
<circle cx="686.4" cy="375.9" r="24.9" fill="#005DFF" fill-opacity="0.66" stroke="#111" stroke-width="2.5"/>
<text x="686.4" y="382.9" text-anchor="middle" font-family="Arial, Helvetica, sans-serif" font-size="21" font-weight="800" fill="white" stroke="#111" stroke-width="3" paint-order="stroke">28</text>
<circle cx="572.2" cy="405.8" r="19.2" fill="white" fill-opacity="0.84"/>
<circle cx="572.2" cy="405.8" r="16.2" fill="#005DFF" fill-opacity="0.66" stroke="#111" stroke-width="2.5"/>
<text x="572.2" y="412.8" text-anchor="middle" font-family="Arial, Helvetica, sans-serif" font-size="21" font-weight="800" fill="white" stroke="#111" stroke-width="3" paint-order="stroke">29</text>
<circle cx="556.2" cy="428.9" r="31.0" fill="white" fill-opacity="0.84"/>
<circle cx="556.2" cy="428.9" r="28.0" fill="#005DFF" fill-opacity="0.66" stroke="#111" stroke-width="2.5"/>
<text x="556.2" y="435.9" text-anchor="middle" font-family="Arial, Helvetica, sans-serif" font-size="21" font-weight="800" fill="white" stroke="#111" stroke-width="3" paint-order="stroke">30</text>
<circle cx="676.8" cy="411.4" r="14.8" fill="white" fill-opacity="0.84"/>
<circle cx="676.8" cy="411.4" r="11.8" fill="#005DFF" fill-opacity="0.66" stroke="#111" stroke-width="2.5"/>
<text x="676.8" y="418.4" text-anchor="middle" font-family="Arial, Helvetica, sans-serif" font-size="21" font-weight="800" fill="white" stroke="#111" stroke-width="3" paint-order="stroke">31</text>
<circle cx="694.9" cy="392.9" r="18.2" fill="white" fill-opacity="0.84"/>
<circle cx="694.9" cy="392.9" r="15.2" fill="#005DFF" fill-opacity="0.66" stroke="#111" stroke-width="2.5"/>
<text x="694.9" y="399.9" text-anchor="middle" font-family="Arial, Helvetica, sans-serif" font-size="21" font-weight="800" fill="white" stroke="#111" stroke-width="3" paint-order="stroke">32</text>
<circle cx="630.3" cy="365.8" r="16.8" fill="white" fill-opacity="0.84"/>
<circle cx="630.3" cy="365.8" r="13.8" fill="#005DFF" fill-opacity="0.66" stroke="#111" stroke-width="2.5"/>
<text x="630.3" y="372.8" text-anchor="middle" font-family="Arial, Helvetica, sans-serif" font-size="21" font-weight="800" fill="white" stroke="#111" stroke-width="3" paint-order="stroke">33</text>
<circle cx="693.4" cy="387.4" r="19.6" fill="white" fill-opacity="0.84"/>
<circle cx="693.4" cy="387.4" r="16.6" fill="#005DFF" fill-opacity="0.66" stroke="#111" stroke-width="2.5"/>
<text x="693.4" y="394.4" text-anchor="middle" font-family="Arial, Helvetica, sans-serif" font-size="21" font-weight="800" fill="white" stroke="#111" stroke-width="3" paint-order="stroke">34</text>
<circle cx="736.4" cy="364.5" r="18.4" fill="white" fill-opacity="0.84"/>
<circle cx="736.4" cy="364.5" r="15.4" fill="#005DFF" fill-opacity="0.66" stroke="#111" stroke-width="2.5"/>
<text x="736.4" y="371.5" text-anchor="middle" font-family="Arial, Helvetica, sans-serif" font-size="21" font-weight="800" fill="white" stroke="#111" stroke-width="3" paint-order="stroke">35</text>
<circle cx="1263.0" cy="398.3" r="25.2" fill="white" fill-opacity="0.84"/>
<circle cx="1263.0" cy="398.3" r="22.2" fill="#005DFF" fill-opacity="0.66" stroke="#111" stroke-width="2.5"/>
<text x="1263.0" y="405.3" text-anchor="middle" font-family="Arial, Helvetica, sans-serif" font-size="21" font-weight="800" fill="white" stroke="#111" stroke-width="3" paint-order="stroke">36</text>
<circle cx="1205.3" cy="495.7" r="21.3" fill="white" fill-opacity="0.84"/>
<circle cx="1205.3" cy="495.7" r="18.3" fill="#005DFF" fill-opacity="0.66" stroke="#111" stroke-width="2.5"/>
<text x="1205.3" y="502.7" text-anchor="middle" font-family="Arial, Helvetica, sans-serif" font-size="21" font-weight="800" fill="white" stroke="#111" stroke-width="3" paint-order="stroke">37</text>
<circle cx="1168.3" cy="548.7" r="19.2" fill="white" fill-opacity="0.84"/>
<circle cx="1168.3" cy="548.7" r="16.2" fill="#005DFF" fill-opacity="0.66" stroke="#111" stroke-width="2.5"/>
<text x="1168.3" y="555.7" text-anchor="middle" font-family="Arial, Helvetica, sans-serif" font-size="21" font-weight="800" fill="white" stroke="#111" stroke-width="3" paint-order="stroke">38</text>
<circle cx="1261.9" cy="393.0" r="20.8" fill="white" fill-opacity="0.84"/>
<circle cx="1261.9" cy="393.0" r="17.8" fill="#005DFF" fill-opacity="0.66" stroke="#111" stroke-width="2.5"/>
<text x="1261.9" y="400.0" text-anchor="middle" font-family="Arial, Helvetica, sans-serif" font-size="21" font-weight="800" fill="white" stroke="#111" stroke-width="3" paint-order="stroke">39</text>
<circle cx="616.7" cy="350.3" r="20.1" fill="white" fill-opacity="0.84"/>
<circle cx="616.7" cy="350.3" r="17.1" fill="#005DFF" fill-opacity="0.66" stroke="#111" stroke-width="2.5"/>
<text x="616.7" y="357.3" text-anchor="middle" font-family="Arial, Helvetica, sans-serif" font-size="21" font-weight="800" fill="white" stroke="#111" stroke-width="3" paint-order="stroke">40</text>
<circle cx="538.1" cy="274.1" r="11.6" fill="white" fill-opacity="0.84"/>
<circle cx="538.1" cy="274.1" r="8.6" fill="#005DFF" fill-opacity="0.66" stroke="#111" stroke-width="2.5"/>
<text x="538.1" y="281.1" text-anchor="middle" font-family="Arial, Helvetica, sans-serif" font-size="21" font-weight="800" fill="white" stroke="#111" stroke-width="3" paint-order="stroke">41</text>
<circle cx="567.0" cy="364.7" r="16.7" fill="white" fill-opacity="0.84"/>
<circle cx="567.0" cy="364.7" r="13.7" fill="#005DFF" fill-opacity="0.66" stroke="#111" stroke-width="2.5"/>
<text x="567.0" y="371.7" text-anchor="middle" font-family="Arial, Helvetica, sans-serif" font-size="21" font-weight="800" fill="white" stroke="#111" stroke-width="3" paint-order="stroke">42</text>
<circle cx="561.6" cy="308.0" r="11.8" fill="white" fill-opacity="0.84"/>
<circle cx="561.6" cy="308.0" r="8.8" fill="#005DFF" fill-opacity="0.66" stroke="#111" stroke-width="2.5"/>
<text x="561.6" y="315.0" text-anchor="middle" font-family="Arial, Helvetica, sans-serif" font-size="21" font-weight="800" fill="white" stroke="#111" stroke-width="3" paint-order="stroke">43</text>
<circle cx="578.5" cy="397.4" r="22.6" fill="white" fill-opacity="0.84"/>
<circle cx="578.5" cy="397.4" r="19.6" fill="#005DFF" fill-opacity="0.66" stroke="#111" stroke-width="2.5"/>
<text x="578.5" y="404.4" text-anchor="middle" font-family="Arial, Helvetica, sans-serif" font-size="21" font-weight="800" fill="white" stroke="#111" stroke-width="3" paint-order="stroke">44</text>
<circle cx="703.8" cy="368.3" r="23.2" fill="white" fill-opacity="0.84"/>
<circle cx="703.8" cy="368.3" r="20.2" fill="#FF8A00" fill-opacity="0.66" stroke="#111" stroke-width="2.5"/>
<text x="703.8" y="375.3" text-anchor="middle" font-family="Arial, Helvetica, sans-serif" font-size="21" font-weight="800" fill="white" stroke="#111" stroke-width="3" paint-order="stroke">45</text>
<circle cx="569.9" cy="415.5" r="23.3" fill="white" fill-opacity="0.84"/>
<circle cx="569.9" cy="415.5" r="20.3" fill="#FF8A00" fill-opacity="0.66" stroke="#111" stroke-width="2.5"/>
<text x="569.9" y="422.5" text-anchor="middle" font-family="Arial, Helvetica, sans-serif" font-size="21" font-weight="800" fill="white" stroke="#111" stroke-width="3" paint-order="stroke">46</text>
<circle cx="709.0" cy="513.6" r="21.5" fill="white" fill-opacity="0.84"/>
<circle cx="709.0" cy="513.6" r="18.5" fill="#FF8A00" fill-opacity="0.66" stroke="#111" stroke-width="2.5"/>
<text x="709.0" y="520.6" text-anchor="middle" font-family="Arial, Helvetica, sans-serif" font-size="21" font-weight="800" fill="white" stroke="#111" stroke-width="3" paint-order="stroke">47</text>
<rect x="16" y="1094" width="1120" height="168" rx="8" fill="white" fill-opacity="0.92" stroke="#111" stroke-opacity="0.22"/>
<text x="36.0" y="1128.0" font-family="Arial, Helvetica, sans-serif" font-size="24" font-weight="600" fill="#111">K10 / k10.asc block 26 | push-2-1-l.png | RT 20535 ms | 47 fixations</text>
<text x="36.0" y="1159.0" font-family="Arial, Helvetica, sans-serif" font-size="24" font-weight="600" fill="#111">numbers show fixation order; dot size shows fixation duration</text>
<circle cx="42" cy="1198" r="11" fill="#005DFF" fill-opacity="0.64" stroke="#111" stroke-width="2"/>
<text x="62.0" y="1206.0" font-family="Arial, Helvetica, sans-serif" font-size="22" font-weight="500" fill="#111">blue: before speech onset</text>
<circle cx="42" cy="1232" r="11" fill="#FF8A00" fill-opacity="0.64" stroke="#111" stroke-width="2"/>
<text x="62.0" y="1240.0" font-family="Arial, Helvetica, sans-serif" font-size="22" font-weight="500" fill="#111">orange: first 2000 ms after onset</text>
</svg>
