<svg xmlns="http://www.w3.org/2000/svg" width="1920" height="1320" viewBox="0 0 1920 1320">
<image href="../../../../stimuli/Animate-animate%20centered%20and%20flipped/treat-2-1-l.png" x="0" y="0" width="1920" height="1080" preserveAspectRatio="none"/>
<rect x="0" y="0" width="1920" height="1080" fill="none" stroke="#111" stroke-width="2"/>
<rect x="0" y="1080" width="1920" height="240" fill="#f7f7f7"/>
<rect x="40.0" y="100.0" width="850" height="850" fill="none" stroke="#00B8D9" stroke-width="6" stroke-dasharray="18 12"/>
<rect x="52.0" y="62.0" width="102.0" height="38" rx="6" fill="white" fill-opacity="0.86" stroke="#00B8D9" stroke-width="3"/>
<text x="62.0" y="88.0" font-family="Arial, Helvetica, sans-serif" font-size="24" font-weight="700" fill="#111">AGENT</text>
<rect x="970.0" y="100.0" width="850" height="850" fill="none" stroke="#FF3B8A" stroke-width="6" stroke-dasharray="18 12"/>
<rect x="982.0" y="62.0" width="134.0" height="38" rx="6" fill="white" fill-opacity="0.86" stroke="#FF3B8A" stroke-width="3"/>
<text x="992.0" y="88.0" font-family="Arial, Helvetica, sans-serif" font-size="24" font-weight="700" fill="#111">PATIENT</text>
<polyline points="734.6,454.6 730.9,395.9 1164.9,437.3 1138.9,438.3 927.8,436.3 848.7,512.8 685.5,437.5 705.1,362.2 567.5,406.0 887.8,474.4 1168.3,452.8 1149.0,458.6 1173.5,458.9 1145.6,449.3 1098.4,441.7 1134.3,429.4 1081.5,460.1 1109.1,458.2 1065.3,460.1" fill="none" stroke="#111" stroke-width="4" stroke-opacity="0.36" stroke-linejoin="round"/>
<circle cx="734.6" cy="454.6" r="14.7" fill="white" fill-opacity="0.84"/>
<circle cx="734.6" cy="454.6" r="11.7" fill="#005DFF" fill-opacity="0.66" stroke="#111" stroke-width="2.5"/>
<text x="734.6" y="461.6" text-anchor="middle" font-family="Arial, Helvetica, sans-serif" font-size="21" font-weight="800" fill="white" stroke="#111" stroke-width="3" paint-order="stroke">1</text>
<circle cx="730.9" cy="395.9" r="15.8" fill="white" fill-opacity="0.84"/>
<circle cx="730.9" cy="395.9" r="12.8" fill="#005DFF" fill-opacity="0.66" stroke="#111" stroke-width="2.5"/>
<text x="730.9" y="402.9" text-anchor="middle" font-family="Arial, Helvetica, sans-serif" font-size="21" font-weight="800" fill="white" stroke="#111" stroke-width="3" paint-order="stroke">2</text>
<circle cx="1164.9" cy="437.3" r="21.6" fill="white" fill-opacity="0.84"/>
<circle cx="1164.9" cy="437.3" r="18.6" fill="#005DFF" fill-opacity="0.66" stroke="#111" stroke-width="2.5"/>
<text x="1164.9" y="444.3" text-anchor="middle" font-family="Arial, Helvetica, sans-serif" font-size="21" font-weight="800" fill="white" stroke="#111" stroke-width="3" paint-order="stroke">3</text>
<circle cx="1138.9" cy="438.3" r="19.1" fill="white" fill-opacity="0.84"/>
<circle cx="1138.9" cy="438.3" r="16.1" fill="#005DFF" fill-opacity="0.66" stroke="#111" stroke-width="2.5"/>
<text x="1138.9" y="445.3" text-anchor="middle" font-family="Arial, Helvetica, sans-serif" font-size="21" font-weight="800" fill="white" stroke="#111" stroke-width="3" paint-order="stroke">4</text>
<circle cx="927.8" cy="436.3" r="15.2" fill="white" fill-opacity="0.84"/>
<circle cx="927.8" cy="436.3" r="12.2" fill="#005DFF" fill-opacity="0.66" stroke="#111" stroke-width="2.5"/>
<text x="927.8" y="443.3" text-anchor="middle" font-family="Arial, Helvetica, sans-serif" font-size="21" font-weight="800" fill="white" stroke="#111" stroke-width="3" paint-order="stroke">5</text>
<circle cx="848.7" cy="512.8" r="21.0" fill="white" fill-opacity="0.84"/>
<circle cx="848.7" cy="512.8" r="18.0" fill="#005DFF" fill-opacity="0.66" stroke="#111" stroke-width="2.5"/>
<text x="848.7" y="519.8" text-anchor="middle" font-family="Arial, Helvetica, sans-serif" font-size="21" font-weight="800" fill="white" stroke="#111" stroke-width="3" paint-order="stroke">6</text>
<circle cx="685.5" cy="437.5" r="14.6" fill="white" fill-opacity="0.84"/>
<circle cx="685.5" cy="437.5" r="11.6" fill="#005DFF" fill-opacity="0.66" stroke="#111" stroke-width="2.5"/>
<text x="685.5" y="444.5" text-anchor="middle" font-family="Arial, Helvetica, sans-serif" font-size="21" font-weight="800" fill="white" stroke="#111" stroke-width="3" paint-order="stroke">7</text>
<circle cx="705.1" cy="362.2" r="17.3" fill="white" fill-opacity="0.84"/>
<circle cx="705.1" cy="362.2" r="14.3" fill="#005DFF" fill-opacity="0.66" stroke="#111" stroke-width="2.5"/>
<text x="705.1" y="369.2" text-anchor="middle" font-family="Arial, Helvetica, sans-serif" font-size="21" font-weight="800" fill="white" stroke="#111" stroke-width="3" paint-order="stroke">8</text>
<circle cx="567.5" cy="406.0" r="17.9" fill="white" fill-opacity="0.84"/>
<circle cx="567.5" cy="406.0" r="14.9" fill="#005DFF" fill-opacity="0.66" stroke="#111" stroke-width="2.5"/>
<text x="567.5" y="413.0" text-anchor="middle" font-family="Arial, Helvetica, sans-serif" font-size="21" font-weight="800" fill="white" stroke="#111" stroke-width="3" paint-order="stroke">9</text>
<circle cx="887.8" cy="474.4" r="16.5" fill="white" fill-opacity="0.84"/>
<circle cx="887.8" cy="474.4" r="13.5" fill="#005DFF" fill-opacity="0.66" stroke="#111" stroke-width="2.5"/>
<text x="887.8" y="481.4" text-anchor="middle" font-family="Arial, Helvetica, sans-serif" font-size="21" font-weight="800" fill="white" stroke="#111" stroke-width="3" paint-order="stroke">10</text>
<circle cx="1168.3" cy="452.8" r="19.2" fill="white" fill-opacity="0.84"/>
<circle cx="1168.3" cy="452.8" r="16.2" fill="#005DFF" fill-opacity="0.66" stroke="#111" stroke-width="2.5"/>
<text x="1168.3" y="459.8" text-anchor="middle" font-family="Arial, Helvetica, sans-serif" font-size="21" font-weight="800" fill="white" stroke="#111" stroke-width="3" paint-order="stroke">11</text>
<circle cx="1149.0" cy="458.6" r="17.7" fill="white" fill-opacity="0.84"/>
<circle cx="1149.0" cy="458.6" r="14.7" fill="#005DFF" fill-opacity="0.66" stroke="#111" stroke-width="2.5"/>
<text x="1149.0" y="465.6" text-anchor="middle" font-family="Arial, Helvetica, sans-serif" font-size="21" font-weight="800" fill="white" stroke="#111" stroke-width="3" paint-order="stroke">12</text>
<circle cx="1173.5" cy="458.9" r="16.8" fill="white" fill-opacity="0.84"/>
<circle cx="1173.5" cy="458.9" r="13.8" fill="#005DFF" fill-opacity="0.66" stroke="#111" stroke-width="2.5"/>
<text x="1173.5" y="465.9" text-anchor="middle" font-family="Arial, Helvetica, sans-serif" font-size="21" font-weight="800" fill="white" stroke="#111" stroke-width="3" paint-order="stroke">13</text>
<circle cx="1145.6" cy="449.3" r="24.6" fill="white" fill-opacity="0.84"/>
<circle cx="1145.6" cy="449.3" r="21.6" fill="#FF8A00" fill-opacity="0.66" stroke="#111" stroke-width="2.5"/>
<text x="1145.6" y="456.3" text-anchor="middle" font-family="Arial, Helvetica, sans-serif" font-size="21" font-weight="800" fill="white" stroke="#111" stroke-width="3" paint-order="stroke">14</text>
<circle cx="1098.4" cy="441.7" r="17.7" fill="white" fill-opacity="0.84"/>
<circle cx="1098.4" cy="441.7" r="14.7" fill="#FF8A00" fill-opacity="0.66" stroke="#111" stroke-width="2.5"/>
<text x="1098.4" y="448.7" text-anchor="middle" font-family="Arial, Helvetica, sans-serif" font-size="21" font-weight="800" fill="white" stroke="#111" stroke-width="3" paint-order="stroke">15</text>
<circle cx="1134.3" cy="429.4" r="19.4" fill="white" fill-opacity="0.84"/>
<circle cx="1134.3" cy="429.4" r="16.4" fill="#FF8A00" fill-opacity="0.66" stroke="#111" stroke-width="2.5"/>
<text x="1134.3" y="436.4" text-anchor="middle" font-family="Arial, Helvetica, sans-serif" font-size="21" font-weight="800" fill="white" stroke="#111" stroke-width="3" paint-order="stroke">16</text>
<circle cx="1081.5" cy="460.1" r="16.5" fill="white" fill-opacity="0.84"/>
<circle cx="1081.5" cy="460.1" r="13.5" fill="#FF8A00" fill-opacity="0.66" stroke="#111" stroke-width="2.5"/>
<text x="1081.5" y="467.1" text-anchor="middle" font-family="Arial, Helvetica, sans-serif" font-size="21" font-weight="800" fill="white" stroke="#111" stroke-width="3" paint-order="stroke">17</text>
<circle cx="1109.1" cy="458.2" r="17.0" fill="white" fill-opacity="0.84"/>
<circle cx="1109.1" cy="458.2" r="14.0" fill="#FF8A00" fill-opacity="0.66" stroke="#111" stroke-width="2.5"/>
<text x="1109.1" y="465.2" text-anchor="middle" font-family="Arial, Helvetica, sans-serif" font-size="21" font-weight="800" fill="white" stroke="#111" stroke-width="3" paint-order="stroke">18</text>
<circle cx="1065.3" cy="460.1" r="16.3" fill="white" fill-opacity="0.84"/>
<circle cx="1065.3" cy="460.1" r="13.3" fill="#FF8A00" fill-opacity="0.66" stroke="#111" stroke-width="2.5"/>
<text x="1065.3" y="467.1" text-anchor="middle" font-family="Arial, Helvetica, sans-serif" font-size="21" font-weight="800" fill="white" stroke="#111" stroke-width="3" paint-order="stroke">19</text>
<rect x="16" y="1094" width="1120" height="168" rx="8" fill="white" fill-opacity="0.92" stroke="#111" stroke-opacity="0.22"/>
<text x="36.0" y="1128.0" font-family="Arial, Helvetica, sans-serif" font-size="24" font-weight="600" fill="#111">K09 / k09_2.asc block 30 | treat-2-1-l.png | RT 4388 ms | 19 fixations</text>
<text x="36.0" y="1159.0" font-family="Arial, Helvetica, sans-serif" font-size="24" font-weight="600" fill="#111">numbers show fixation order; dot size shows fixation duration</text>
<circle cx="42" cy="1198" r="11" fill="#005DFF" fill-opacity="0.64" stroke="#111" stroke-width="2"/>
<text x="62.0" y="1206.0" font-family="Arial, Helvetica, sans-serif" font-size="22" font-weight="500" fill="#111">blue: before speech onset</text>
<circle cx="42" cy="1232" r="11" fill="#FF8A00" fill-opacity="0.64" stroke="#111" stroke-width="2"/>
<text x="62.0" y="1240.0" font-family="Arial, Helvetica, sans-serif" font-size="22" font-weight="500" fill="#111">orange: first 2000 ms after onset</text>
</svg>
