<svg xmlns="http://www.w3.org/2000/svg" width="1920" height="1320" viewBox="0 0 1920 1320">
<image href="https://raw.githubusercontent.com/mkurg/koryak/main/stimuli/Animate-animate%20centered%20and%20flipped/wash-1-2-l.png" x="0" y="0" width="1920" height="1080" preserveAspectRatio="none"/>
<rect x="0" y="0" width="1920" height="1080" fill="none" stroke="#111" stroke-width="2"/>
<rect x="0" y="1080" width="1920" height="240" fill="#f7f7f7"/>
<rect x="40.0" y="100.0" width="850" height="850" fill="none" stroke="#00B8D9" stroke-width="6" stroke-dasharray="18 12"/>
<rect x="52.0" y="62.0" width="102.0" height="38" rx="6" fill="white" fill-opacity="0.86" stroke="#00B8D9" stroke-width="3"/>
<text x="62.0" y="88.0" font-family="Arial, Helvetica, sans-serif" font-size="24" font-weight="700" fill="#111">AGENT</text>
<rect x="970.0" y="100.0" width="850" height="850" fill="none" stroke="#FF3B8A" stroke-width="6" stroke-dasharray="18 12"/>
<rect x="982.0" y="62.0" width="134.0" height="38" rx="6" fill="white" fill-opacity="0.86" stroke="#FF3B8A" stroke-width="3"/>
<text x="992.0" y="88.0" font-family="Arial, Helvetica, sans-serif" font-size="24" font-weight="700" fill="#111">PATIENT</text>
<polyline points="991.3,518.3 1066.5,320.8 1184.7,475.9 1359.9,437.2 1316.1,563.6 1354.4,347.8 1361.7,317.0 1329.4,393.6 1277.8,424.2 1363.2,456.6 1370.5,459.1 1225.5,452.7 757.8,381.7 936.8,563.0 930.3,535.5 959.7,586.2 1191.2,496.3 1346.7,307.1 1107.1,499.1 664.2,813.2 971.2,671.7 1250.4,647.8 1323.1,682.7 1443.7,538.7 1349.7,495.9 1309.6,551.7 1373.9,337.0 1346.1,432.7 1150.6,496.4 1058.7,515.3 1090.9,522.0 1358.6,526.6 1292.3,541.9 856.8,625.6 834.9,590.0 887.6,549.0 905.7,562.8 915.8,566.8 697.0,636.6 731.0,638.3 917.0,559.4 924.8,573.7 926.0,581.6 932.6,548.7 928.3,559.5 925.3,554.1 924.0,549.3 924.4,547.5 1034.3,533.6 1415.3,403.8 1343.8,436.9 1187.6,516.6 1267.0,507.5 1301.7,473.5 1476.3,381.8 1371.6,730.5 953.5,611.5 954.0,600.9 1360.8,400.7 742.4,659.2 872.5,590.3 1366.6,572.3 1295.7,428.0 1273.2,520.6 1267.5,525.1" fill="none" stroke="#111" stroke-width="4" stroke-opacity="0.36" stroke-linejoin="round"/>
<circle cx="991.3" cy="518.3" r="15.5" fill="white" fill-opacity="0.84"/>
<circle cx="991.3" cy="518.3" r="12.5" fill="#7A3CE8" fill-opacity="0.66" stroke="#111" stroke-width="2.5"/>
<text x="991.3" y="525.3" text-anchor="middle" font-family="Arial, Helvetica, sans-serif" font-size="21" font-weight="800" fill="white" stroke="#111" stroke-width="3" paint-order="stroke">1</text>
<circle cx="1066.5" cy="320.8" r="15.9" fill="white" fill-opacity="0.84"/>
<circle cx="1066.5" cy="320.8" r="12.9" fill="#7A3CE8" fill-opacity="0.66" stroke="#111" stroke-width="2.5"/>
<text x="1066.5" y="327.8" text-anchor="middle" font-family="Arial, Helvetica, sans-serif" font-size="21" font-weight="800" fill="white" stroke="#111" stroke-width="3" paint-order="stroke">2</text>
<circle cx="1184.7" cy="475.9" r="16.9" fill="white" fill-opacity="0.84"/>
<circle cx="1184.7" cy="475.9" r="13.9" fill="#7A3CE8" fill-opacity="0.66" stroke="#111" stroke-width="2.5"/>
<text x="1184.7" y="482.9" text-anchor="middle" font-family="Arial, Helvetica, sans-serif" font-size="21" font-weight="800" fill="white" stroke="#111" stroke-width="3" paint-order="stroke">3</text>
<circle cx="1359.9" cy="437.2" r="23.6" fill="white" fill-opacity="0.84"/>
<circle cx="1359.9" cy="437.2" r="20.6" fill="#7A3CE8" fill-opacity="0.66" stroke="#111" stroke-width="2.5"/>
<text x="1359.9" y="444.2" text-anchor="middle" font-family="Arial, Helvetica, sans-serif" font-size="21" font-weight="800" fill="white" stroke="#111" stroke-width="3" paint-order="stroke">4</text>
<circle cx="1316.1" cy="563.6" r="19.9" fill="white" fill-opacity="0.84"/>
<circle cx="1316.1" cy="563.6" r="16.9" fill="#7A3CE8" fill-opacity="0.66" stroke="#111" stroke-width="2.5"/>
<text x="1316.1" y="570.6" text-anchor="middle" font-family="Arial, Helvetica, sans-serif" font-size="21" font-weight="800" fill="white" stroke="#111" stroke-width="3" paint-order="stroke">5</text>
<circle cx="1354.4" cy="347.8" r="18.2" fill="white" fill-opacity="0.84"/>
<circle cx="1354.4" cy="347.8" r="15.2" fill="#7A3CE8" fill-opacity="0.66" stroke="#111" stroke-width="2.5"/>
<text x="1354.4" y="354.8" text-anchor="middle" font-family="Arial, Helvetica, sans-serif" font-size="21" font-weight="800" fill="white" stroke="#111" stroke-width="3" paint-order="stroke">6</text>
<circle cx="1361.7" cy="317.0" r="17.9" fill="white" fill-opacity="0.84"/>
<circle cx="1361.7" cy="317.0" r="14.9" fill="#7A3CE8" fill-opacity="0.66" stroke="#111" stroke-width="2.5"/>
<text x="1361.7" y="324.0" text-anchor="middle" font-family="Arial, Helvetica, sans-serif" font-size="21" font-weight="800" fill="white" stroke="#111" stroke-width="3" paint-order="stroke">7</text>
<circle cx="1329.4" cy="393.6" r="18.5" fill="white" fill-opacity="0.84"/>
<circle cx="1329.4" cy="393.6" r="15.5" fill="#7A3CE8" fill-opacity="0.66" stroke="#111" stroke-width="2.5"/>
<text x="1329.4" y="400.6" text-anchor="middle" font-family="Arial, Helvetica, sans-serif" font-size="21" font-weight="800" fill="white" stroke="#111" stroke-width="3" paint-order="stroke">8</text>
<circle cx="1277.8" cy="424.2" r="15.6" fill="white" fill-opacity="0.84"/>
<circle cx="1277.8" cy="424.2" r="12.6" fill="#7A3CE8" fill-opacity="0.66" stroke="#111" stroke-width="2.5"/>
<text x="1277.8" y="431.2" text-anchor="middle" font-family="Arial, Helvetica, sans-serif" font-size="21" font-weight="800" fill="white" stroke="#111" stroke-width="3" paint-order="stroke">9</text>
<circle cx="1363.2" cy="456.6" r="17.1" fill="white" fill-opacity="0.84"/>
<circle cx="1363.2" cy="456.6" r="14.1" fill="#7A3CE8" fill-opacity="0.66" stroke="#111" stroke-width="2.5"/>
<text x="1363.2" y="463.6" text-anchor="middle" font-family="Arial, Helvetica, sans-serif" font-size="21" font-weight="800" fill="white" stroke="#111" stroke-width="3" paint-order="stroke">10</text>
<circle cx="1370.5" cy="459.1" r="16.3" fill="white" fill-opacity="0.84"/>
<circle cx="1370.5" cy="459.1" r="13.3" fill="#7A3CE8" fill-opacity="0.66" stroke="#111" stroke-width="2.5"/>
<text x="1370.5" y="466.1" text-anchor="middle" font-family="Arial, Helvetica, sans-serif" font-size="21" font-weight="800" fill="white" stroke="#111" stroke-width="3" paint-order="stroke">11</text>
<circle cx="1225.5" cy="452.7" r="18.6" fill="white" fill-opacity="0.84"/>
<circle cx="1225.5" cy="452.7" r="15.6" fill="#7A3CE8" fill-opacity="0.66" stroke="#111" stroke-width="2.5"/>
<text x="1225.5" y="459.7" text-anchor="middle" font-family="Arial, Helvetica, sans-serif" font-size="21" font-weight="800" fill="white" stroke="#111" stroke-width="3" paint-order="stroke">12</text>
<circle cx="757.8" cy="381.7" r="18.3" fill="white" fill-opacity="0.84"/>
<circle cx="757.8" cy="381.7" r="15.3" fill="#7A3CE8" fill-opacity="0.66" stroke="#111" stroke-width="2.5"/>
<text x="757.8" y="388.7" text-anchor="middle" font-family="Arial, Helvetica, sans-serif" font-size="21" font-weight="800" fill="white" stroke="#111" stroke-width="3" paint-order="stroke">13</text>
<circle cx="936.8" cy="563.0" r="16.4" fill="white" fill-opacity="0.84"/>
<circle cx="936.8" cy="563.0" r="13.4" fill="#7A3CE8" fill-opacity="0.66" stroke="#111" stroke-width="2.5"/>
<text x="936.8" y="570.0" text-anchor="middle" font-family="Arial, Helvetica, sans-serif" font-size="21" font-weight="800" fill="white" stroke="#111" stroke-width="3" paint-order="stroke">14</text>
<circle cx="930.3" cy="535.5" r="21.7" fill="white" fill-opacity="0.84"/>
<circle cx="930.3" cy="535.5" r="18.7" fill="#7A3CE8" fill-opacity="0.66" stroke="#111" stroke-width="2.5"/>
<text x="930.3" y="542.5" text-anchor="middle" font-family="Arial, Helvetica, sans-serif" font-size="21" font-weight="800" fill="white" stroke="#111" stroke-width="3" paint-order="stroke">15</text>
<circle cx="959.7" cy="586.2" r="16.1" fill="white" fill-opacity="0.84"/>
<circle cx="959.7" cy="586.2" r="13.2" fill="#7A3CE8" fill-opacity="0.66" stroke="#111" stroke-width="2.5"/>
<text x="959.7" y="593.2" text-anchor="middle" font-family="Arial, Helvetica, sans-serif" font-size="21" font-weight="800" fill="white" stroke="#111" stroke-width="3" paint-order="stroke">16</text>
<circle cx="1191.2" cy="496.3" r="14.0" fill="white" fill-opacity="0.84"/>
<circle cx="1191.2" cy="496.3" r="11.0" fill="#7A3CE8" fill-opacity="0.66" stroke="#111" stroke-width="2.5"/>
<text x="1191.2" y="503.3" text-anchor="middle" font-family="Arial, Helvetica, sans-serif" font-size="21" font-weight="800" fill="white" stroke="#111" stroke-width="3" paint-order="stroke">17</text>
<circle cx="1346.7" cy="307.1" r="18.7" fill="white" fill-opacity="0.84"/>
<circle cx="1346.7" cy="307.1" r="15.7" fill="#7A3CE8" fill-opacity="0.66" stroke="#111" stroke-width="2.5"/>
<text x="1346.7" y="314.1" text-anchor="middle" font-family="Arial, Helvetica, sans-serif" font-size="21" font-weight="800" fill="white" stroke="#111" stroke-width="3" paint-order="stroke">18</text>
<circle cx="1107.1" cy="499.1" r="18.2" fill="white" fill-opacity="0.84"/>
<circle cx="1107.1" cy="499.1" r="15.2" fill="#7A3CE8" fill-opacity="0.66" stroke="#111" stroke-width="2.5"/>
<text x="1107.1" y="506.1" text-anchor="middle" font-family="Arial, Helvetica, sans-serif" font-size="21" font-weight="800" fill="white" stroke="#111" stroke-width="3" paint-order="stroke">19</text>
<circle cx="664.2" cy="813.2" r="18.8" fill="white" fill-opacity="0.84"/>
<circle cx="664.2" cy="813.2" r="15.8" fill="#7A3CE8" fill-opacity="0.66" stroke="#111" stroke-width="2.5"/>
<text x="664.2" y="820.2" text-anchor="middle" font-family="Arial, Helvetica, sans-serif" font-size="21" font-weight="800" fill="white" stroke="#111" stroke-width="3" paint-order="stroke">20</text>
<circle cx="971.2" cy="671.7" r="11.8" fill="white" fill-opacity="0.84"/>
<circle cx="971.2" cy="671.7" r="8.8" fill="#7A3CE8" fill-opacity="0.66" stroke="#111" stroke-width="2.5"/>
<text x="971.2" y="678.7" text-anchor="middle" font-family="Arial, Helvetica, sans-serif" font-size="21" font-weight="800" fill="white" stroke="#111" stroke-width="3" paint-order="stroke">21</text>
<circle cx="1250.4" cy="647.8" r="18.9" fill="white" fill-opacity="0.84"/>
<circle cx="1250.4" cy="647.8" r="15.9" fill="#7A3CE8" fill-opacity="0.66" stroke="#111" stroke-width="2.5"/>
<text x="1250.4" y="654.8" text-anchor="middle" font-family="Arial, Helvetica, sans-serif" font-size="21" font-weight="800" fill="white" stroke="#111" stroke-width="3" paint-order="stroke">22</text>
<circle cx="1323.1" cy="682.7" r="16.0" fill="white" fill-opacity="0.84"/>
<circle cx="1323.1" cy="682.7" r="13.0" fill="#7A3CE8" fill-opacity="0.66" stroke="#111" stroke-width="2.5"/>
<text x="1323.1" y="689.7" text-anchor="middle" font-family="Arial, Helvetica, sans-serif" font-size="21" font-weight="800" fill="white" stroke="#111" stroke-width="3" paint-order="stroke">23</text>
<circle cx="1443.7" cy="538.7" r="15.6" fill="white" fill-opacity="0.84"/>
<circle cx="1443.7" cy="538.7" r="12.6" fill="#7A3CE8" fill-opacity="0.66" stroke="#111" stroke-width="2.5"/>
<text x="1443.7" y="545.7" text-anchor="middle" font-family="Arial, Helvetica, sans-serif" font-size="21" font-weight="800" fill="white" stroke="#111" stroke-width="3" paint-order="stroke">24</text>
<circle cx="1349.7" cy="495.9" r="17.4" fill="white" fill-opacity="0.84"/>
<circle cx="1349.7" cy="495.9" r="14.4" fill="#7A3CE8" fill-opacity="0.66" stroke="#111" stroke-width="2.5"/>
<text x="1349.7" y="502.9" text-anchor="middle" font-family="Arial, Helvetica, sans-serif" font-size="21" font-weight="800" fill="white" stroke="#111" stroke-width="3" paint-order="stroke">25</text>
<circle cx="1309.6" cy="551.7" r="20.0" fill="white" fill-opacity="0.84"/>
<circle cx="1309.6" cy="551.7" r="17.0" fill="#7A3CE8" fill-opacity="0.66" stroke="#111" stroke-width="2.5"/>
<text x="1309.6" y="558.7" text-anchor="middle" font-family="Arial, Helvetica, sans-serif" font-size="21" font-weight="800" fill="white" stroke="#111" stroke-width="3" paint-order="stroke">26</text>
<circle cx="1373.9" cy="337.0" r="16.4" fill="white" fill-opacity="0.84"/>
<circle cx="1373.9" cy="337.0" r="13.4" fill="#7A3CE8" fill-opacity="0.66" stroke="#111" stroke-width="2.5"/>
<text x="1373.9" y="344.0" text-anchor="middle" font-family="Arial, Helvetica, sans-serif" font-size="21" font-weight="800" fill="white" stroke="#111" stroke-width="3" paint-order="stroke">27</text>
<circle cx="1346.1" cy="432.7" r="15.4" fill="white" fill-opacity="0.84"/>
<circle cx="1346.1" cy="432.7" r="12.4" fill="#7A3CE8" fill-opacity="0.66" stroke="#111" stroke-width="2.5"/>
<text x="1346.1" y="439.7" text-anchor="middle" font-family="Arial, Helvetica, sans-serif" font-size="21" font-weight="800" fill="white" stroke="#111" stroke-width="3" paint-order="stroke">28</text>
<circle cx="1150.6" cy="496.4" r="17.7" fill="white" fill-opacity="0.84"/>
<circle cx="1150.6" cy="496.4" r="14.7" fill="#7A3CE8" fill-opacity="0.66" stroke="#111" stroke-width="2.5"/>
<text x="1150.6" y="503.4" text-anchor="middle" font-family="Arial, Helvetica, sans-serif" font-size="21" font-weight="800" fill="white" stroke="#111" stroke-width="3" paint-order="stroke">29</text>
<circle cx="1058.7" cy="515.3" r="17.5" fill="white" fill-opacity="0.84"/>
<circle cx="1058.7" cy="515.3" r="14.5" fill="#7A3CE8" fill-opacity="0.66" stroke="#111" stroke-width="2.5"/>
<text x="1058.7" y="522.3" text-anchor="middle" font-family="Arial, Helvetica, sans-serif" font-size="21" font-weight="800" fill="white" stroke="#111" stroke-width="3" paint-order="stroke">30</text>
<circle cx="1090.9" cy="522.0" r="20.0" fill="white" fill-opacity="0.84"/>
<circle cx="1090.9" cy="522.0" r="17.0" fill="#7A3CE8" fill-opacity="0.66" stroke="#111" stroke-width="2.5"/>
<text x="1090.9" y="529.0" text-anchor="middle" font-family="Arial, Helvetica, sans-serif" font-size="21" font-weight="800" fill="white" stroke="#111" stroke-width="3" paint-order="stroke">31</text>
<circle cx="1358.6" cy="526.6" r="16.3" fill="white" fill-opacity="0.84"/>
<circle cx="1358.6" cy="526.6" r="13.3" fill="#7A3CE8" fill-opacity="0.66" stroke="#111" stroke-width="2.5"/>
<text x="1358.6" y="533.6" text-anchor="middle" font-family="Arial, Helvetica, sans-serif" font-size="21" font-weight="800" fill="white" stroke="#111" stroke-width="3" paint-order="stroke">32</text>
<circle cx="1292.3" cy="541.9" r="17.3" fill="white" fill-opacity="0.84"/>
<circle cx="1292.3" cy="541.9" r="14.3" fill="#7A3CE8" fill-opacity="0.66" stroke="#111" stroke-width="2.5"/>
<text x="1292.3" y="548.9" text-anchor="middle" font-family="Arial, Helvetica, sans-serif" font-size="21" font-weight="800" fill="white" stroke="#111" stroke-width="3" paint-order="stroke">33</text>
<circle cx="856.8" cy="625.6" r="13.3" fill="white" fill-opacity="0.84"/>
<circle cx="856.8" cy="625.6" r="10.3" fill="#7A3CE8" fill-opacity="0.66" stroke="#111" stroke-width="2.5"/>
<text x="856.8" y="632.6" text-anchor="middle" font-family="Arial, Helvetica, sans-serif" font-size="21" font-weight="800" fill="white" stroke="#111" stroke-width="3" paint-order="stroke">34</text>
<circle cx="834.9" cy="590.0" r="14.3" fill="white" fill-opacity="0.84"/>
<circle cx="834.9" cy="590.0" r="11.3" fill="#7A3CE8" fill-opacity="0.66" stroke="#111" stroke-width="2.5"/>
<text x="834.9" y="597.0" text-anchor="middle" font-family="Arial, Helvetica, sans-serif" font-size="21" font-weight="800" fill="white" stroke="#111" stroke-width="3" paint-order="stroke">35</text>
<circle cx="887.6" cy="549.0" r="11.7" fill="white" fill-opacity="0.84"/>
<circle cx="887.6" cy="549.0" r="8.7" fill="#7A3CE8" fill-opacity="0.66" stroke="#111" stroke-width="2.5"/>
<text x="887.6" y="556.0" text-anchor="middle" font-family="Arial, Helvetica, sans-serif" font-size="21" font-weight="800" fill="white" stroke="#111" stroke-width="3" paint-order="stroke">36</text>
<circle cx="905.7" cy="562.8" r="12.6" fill="white" fill-opacity="0.84"/>
<circle cx="905.7" cy="562.8" r="9.6" fill="#7A3CE8" fill-opacity="0.66" stroke="#111" stroke-width="2.5"/>
<text x="905.7" y="569.8" text-anchor="middle" font-family="Arial, Helvetica, sans-serif" font-size="21" font-weight="800" fill="white" stroke="#111" stroke-width="3" paint-order="stroke">37</text>
<circle cx="915.8" cy="566.8" r="16.8" fill="white" fill-opacity="0.84"/>
<circle cx="915.8" cy="566.8" r="13.8" fill="#7A3CE8" fill-opacity="0.66" stroke="#111" stroke-width="2.5"/>
<text x="915.8" y="573.8" text-anchor="middle" font-family="Arial, Helvetica, sans-serif" font-size="21" font-weight="800" fill="white" stroke="#111" stroke-width="3" paint-order="stroke">38</text>
<circle cx="697.0" cy="636.6" r="21.8" fill="white" fill-opacity="0.84"/>
<circle cx="697.0" cy="636.6" r="18.8" fill="#7A3CE8" fill-opacity="0.66" stroke="#111" stroke-width="2.5"/>
<text x="697.0" y="643.6" text-anchor="middle" font-family="Arial, Helvetica, sans-serif" font-size="21" font-weight="800" fill="white" stroke="#111" stroke-width="3" paint-order="stroke">39</text>
<circle cx="731.0" cy="638.3" r="18.5" fill="white" fill-opacity="0.84"/>
<circle cx="731.0" cy="638.3" r="15.5" fill="#7A3CE8" fill-opacity="0.66" stroke="#111" stroke-width="2.5"/>
<text x="731.0" y="645.3" text-anchor="middle" font-family="Arial, Helvetica, sans-serif" font-size="21" font-weight="800" fill="white" stroke="#111" stroke-width="3" paint-order="stroke">40</text>
<circle cx="917.0" cy="559.4" r="11.8" fill="white" fill-opacity="0.84"/>
<circle cx="917.0" cy="559.4" r="8.8" fill="#7A3CE8" fill-opacity="0.66" stroke="#111" stroke-width="2.5"/>
<text x="917.0" y="566.4" text-anchor="middle" font-family="Arial, Helvetica, sans-serif" font-size="21" font-weight="800" fill="white" stroke="#111" stroke-width="3" paint-order="stroke">41</text>
<circle cx="924.8" cy="573.7" r="18.6" fill="white" fill-opacity="0.84"/>
<circle cx="924.8" cy="573.7" r="15.6" fill="#7A3CE8" fill-opacity="0.66" stroke="#111" stroke-width="2.5"/>
<text x="924.8" y="580.7" text-anchor="middle" font-family="Arial, Helvetica, sans-serif" font-size="21" font-weight="800" fill="white" stroke="#111" stroke-width="3" paint-order="stroke">42</text>
<circle cx="926.0" cy="581.6" r="14.5" fill="white" fill-opacity="0.84"/>
<circle cx="926.0" cy="581.6" r="11.5" fill="#7A3CE8" fill-opacity="0.66" stroke="#111" stroke-width="2.5"/>
<text x="926.0" y="588.6" text-anchor="middle" font-family="Arial, Helvetica, sans-serif" font-size="21" font-weight="800" fill="white" stroke="#111" stroke-width="3" paint-order="stroke">43</text>
<circle cx="932.6" cy="548.7" r="11.9" fill="white" fill-opacity="0.84"/>
<circle cx="932.6" cy="548.7" r="8.9" fill="#7A3CE8" fill-opacity="0.66" stroke="#111" stroke-width="2.5"/>
<text x="932.6" y="555.7" text-anchor="middle" font-family="Arial, Helvetica, sans-serif" font-size="21" font-weight="800" fill="white" stroke="#111" stroke-width="3" paint-order="stroke">44</text>
<circle cx="928.3" cy="559.5" r="11.9" fill="white" fill-opacity="0.84"/>
<circle cx="928.3" cy="559.5" r="8.9" fill="#7A3CE8" fill-opacity="0.66" stroke="#111" stroke-width="2.5"/>
<text x="928.3" y="566.5" text-anchor="middle" font-family="Arial, Helvetica, sans-serif" font-size="21" font-weight="800" fill="white" stroke="#111" stroke-width="3" paint-order="stroke">45</text>
<circle cx="925.3" cy="554.1" r="13.2" fill="white" fill-opacity="0.84"/>
<circle cx="925.3" cy="554.1" r="10.2" fill="#7A3CE8" fill-opacity="0.66" stroke="#111" stroke-width="2.5"/>
<text x="925.3" y="561.1" text-anchor="middle" font-family="Arial, Helvetica, sans-serif" font-size="21" font-weight="800" fill="white" stroke="#111" stroke-width="3" paint-order="stroke">46</text>
<circle cx="924.0" cy="549.3" r="12.0" fill="white" fill-opacity="0.84"/>
<circle cx="924.0" cy="549.3" r="9.0" fill="#7A3CE8" fill-opacity="0.66" stroke="#111" stroke-width="2.5"/>
<text x="924.0" y="556.3" text-anchor="middle" font-family="Arial, Helvetica, sans-serif" font-size="21" font-weight="800" fill="white" stroke="#111" stroke-width="3" paint-order="stroke">47</text>
<circle cx="924.4" cy="547.5" r="12.3" fill="white" fill-opacity="0.84"/>
<circle cx="924.4" cy="547.5" r="9.3" fill="#7A3CE8" fill-opacity="0.66" stroke="#111" stroke-width="2.5"/>
<text x="924.4" y="554.5" text-anchor="middle" font-family="Arial, Helvetica, sans-serif" font-size="21" font-weight="800" fill="white" stroke="#111" stroke-width="3" paint-order="stroke">48</text>
<circle cx="1034.3" cy="533.6" r="12.9" fill="white" fill-opacity="0.84"/>
<circle cx="1034.3" cy="533.6" r="9.9" fill="#7A3CE8" fill-opacity="0.66" stroke="#111" stroke-width="2.5"/>
<text x="1034.3" y="540.6" text-anchor="middle" font-family="Arial, Helvetica, sans-serif" font-size="21" font-weight="800" fill="white" stroke="#111" stroke-width="3" paint-order="stroke">49</text>
<circle cx="1415.3" cy="403.8" r="18.8" fill="white" fill-opacity="0.84"/>
<circle cx="1415.3" cy="403.8" r="15.8" fill="#7A3CE8" fill-opacity="0.66" stroke="#111" stroke-width="2.5"/>
<text x="1415.3" y="410.8" text-anchor="middle" font-family="Arial, Helvetica, sans-serif" font-size="21" font-weight="800" fill="white" stroke="#111" stroke-width="3" paint-order="stroke">50</text>
<circle cx="1343.8" cy="436.9" r="21.4" fill="white" fill-opacity="0.84"/>
<circle cx="1343.8" cy="436.9" r="18.4" fill="#7A3CE8" fill-opacity="0.66" stroke="#111" stroke-width="2.5"/>
<text x="1343.8" y="443.9" text-anchor="middle" font-family="Arial, Helvetica, sans-serif" font-size="21" font-weight="800" fill="white" stroke="#111" stroke-width="3" paint-order="stroke">51</text>
<circle cx="1187.6" cy="516.6" r="23.7" fill="white" fill-opacity="0.84"/>
<circle cx="1187.6" cy="516.6" r="20.7" fill="#7A3CE8" fill-opacity="0.66" stroke="#111" stroke-width="2.5"/>
<text x="1187.6" y="523.6" text-anchor="middle" font-family="Arial, Helvetica, sans-serif" font-size="21" font-weight="800" fill="white" stroke="#111" stroke-width="3" paint-order="stroke">52</text>
<circle cx="1267.0" cy="507.5" r="15.9" fill="white" fill-opacity="0.84"/>
<circle cx="1267.0" cy="507.5" r="12.9" fill="#7A3CE8" fill-opacity="0.66" stroke="#111" stroke-width="2.5"/>
<text x="1267.0" y="514.5" text-anchor="middle" font-family="Arial, Helvetica, sans-serif" font-size="21" font-weight="800" fill="white" stroke="#111" stroke-width="3" paint-order="stroke">53</text>
<circle cx="1301.7" cy="473.5" r="14.2" fill="white" fill-opacity="0.84"/>
<circle cx="1301.7" cy="473.5" r="11.2" fill="#7A3CE8" fill-opacity="0.66" stroke="#111" stroke-width="2.5"/>
<text x="1301.7" y="480.5" text-anchor="middle" font-family="Arial, Helvetica, sans-serif" font-size="21" font-weight="800" fill="white" stroke="#111" stroke-width="3" paint-order="stroke">54</text>
<circle cx="1476.3" cy="381.8" r="17.5" fill="white" fill-opacity="0.84"/>
<circle cx="1476.3" cy="381.8" r="14.5" fill="#7A3CE8" fill-opacity="0.66" stroke="#111" stroke-width="2.5"/>
<text x="1476.3" y="388.8" text-anchor="middle" font-family="Arial, Helvetica, sans-serif" font-size="21" font-weight="800" fill="white" stroke="#111" stroke-width="3" paint-order="stroke">55</text>
<circle cx="1371.6" cy="730.5" r="18.8" fill="white" fill-opacity="0.84"/>
<circle cx="1371.6" cy="730.5" r="15.8" fill="#7A3CE8" fill-opacity="0.66" stroke="#111" stroke-width="2.5"/>
<text x="1371.6" y="737.5" text-anchor="middle" font-family="Arial, Helvetica, sans-serif" font-size="21" font-weight="800" fill="white" stroke="#111" stroke-width="3" paint-order="stroke">56</text>
<circle cx="953.5" cy="611.5" r="11.8" fill="white" fill-opacity="0.84"/>
<circle cx="953.5" cy="611.5" r="8.8" fill="#7A3CE8" fill-opacity="0.66" stroke="#111" stroke-width="2.5"/>
<text x="953.5" y="618.5" text-anchor="middle" font-family="Arial, Helvetica, sans-serif" font-size="21" font-weight="800" fill="white" stroke="#111" stroke-width="3" paint-order="stroke">57</text>
<circle cx="954.0" cy="600.9" r="12.7" fill="white" fill-opacity="0.84"/>
<circle cx="954.0" cy="600.9" r="9.7" fill="#7A3CE8" fill-opacity="0.66" stroke="#111" stroke-width="2.5"/>
<text x="954.0" y="607.9" text-anchor="middle" font-family="Arial, Helvetica, sans-serif" font-size="21" font-weight="800" fill="white" stroke="#111" stroke-width="3" paint-order="stroke">58</text>
<circle cx="1360.8" cy="400.7" r="16.9" fill="white" fill-opacity="0.84"/>
<circle cx="1360.8" cy="400.7" r="13.9" fill="#7A3CE8" fill-opacity="0.66" stroke="#111" stroke-width="2.5"/>
<text x="1360.8" y="407.7" text-anchor="middle" font-family="Arial, Helvetica, sans-serif" font-size="21" font-weight="800" fill="white" stroke="#111" stroke-width="3" paint-order="stroke">59</text>
<circle cx="742.4" cy="659.2" r="17.4" fill="white" fill-opacity="0.84"/>
<circle cx="742.4" cy="659.2" r="14.4" fill="#7A3CE8" fill-opacity="0.66" stroke="#111" stroke-width="2.5"/>
<text x="742.4" y="666.2" text-anchor="middle" font-family="Arial, Helvetica, sans-serif" font-size="21" font-weight="800" fill="white" stroke="#111" stroke-width="3" paint-order="stroke">60</text>
<circle cx="872.5" cy="590.3" r="14.0" fill="white" fill-opacity="0.84"/>
<circle cx="872.5" cy="590.3" r="11.0" fill="#7A3CE8" fill-opacity="0.66" stroke="#111" stroke-width="2.5"/>
<text x="872.5" y="597.3" text-anchor="middle" font-family="Arial, Helvetica, sans-serif" font-size="21" font-weight="800" fill="white" stroke="#111" stroke-width="3" paint-order="stroke">61</text>
<circle cx="1366.6" cy="572.3" r="16.7" fill="white" fill-opacity="0.84"/>
<circle cx="1366.6" cy="572.3" r="13.7" fill="#7A3CE8" fill-opacity="0.66" stroke="#111" stroke-width="2.5"/>
<text x="1366.6" y="579.3" text-anchor="middle" font-family="Arial, Helvetica, sans-serif" font-size="21" font-weight="800" fill="white" stroke="#111" stroke-width="3" paint-order="stroke">62</text>
<circle cx="1295.7" cy="428.0" r="15.8" fill="white" fill-opacity="0.84"/>
<circle cx="1295.7" cy="428.0" r="12.8" fill="#7A3CE8" fill-opacity="0.66" stroke="#111" stroke-width="2.5"/>
<text x="1295.7" y="435.0" text-anchor="middle" font-family="Arial, Helvetica, sans-serif" font-size="21" font-weight="800" fill="white" stroke="#111" stroke-width="3" paint-order="stroke">63</text>
<circle cx="1273.2" cy="520.6" r="11.6" fill="white" fill-opacity="0.84"/>
<circle cx="1273.2" cy="520.6" r="8.6" fill="#7A3CE8" fill-opacity="0.66" stroke="#111" stroke-width="2.5"/>
<text x="1273.2" y="527.6" text-anchor="middle" font-family="Arial, Helvetica, sans-serif" font-size="21" font-weight="800" fill="white" stroke="#111" stroke-width="3" paint-order="stroke">64</text>
<circle cx="1267.5" cy="525.1" r="11.8" fill="white" fill-opacity="0.84"/>
<circle cx="1267.5" cy="525.1" r="8.8" fill="#7A3CE8" fill-opacity="0.66" stroke="#111" stroke-width="2.5"/>
<text x="1267.5" y="532.1" text-anchor="middle" font-family="Arial, Helvetica, sans-serif" font-size="21" font-weight="800" fill="white" stroke="#111" stroke-width="3" paint-order="stroke">65</text>
<rect x="16" y="1094" width="1120" height="168" rx="8" fill="white" fill-opacity="0.92" stroke="#111" stroke-opacity="0.22"/>
<text x="36.0" y="1128.0" font-family="Arial, Helvetica, sans-serif" font-size="24" font-weight="600" fill="#111">K19 / k19.asc block 23 | wash-1-2-l.png | RT NA ms | 65 fixations</text>
<text x="36.0" y="1159.0" font-family="Arial, Helvetica, sans-serif" font-size="24" font-weight="600" fill="#111">numbers show fixation order; dot size shows fixation duration</text>
<circle cx="42" cy="1198" r="11" fill="#005DFF" fill-opacity="0.64" stroke="#111" stroke-width="2"/>
<text x="62.0" y="1206.0" font-family="Arial, Helvetica, sans-serif" font-size="22" font-weight="500" fill="#111">blue: before speech onset</text>
<circle cx="42" cy="1232" r="11" fill="#FF8A00" fill-opacity="0.64" stroke="#111" stroke-width="2"/>
<text x="62.0" y="1240.0" font-family="Arial, Helvetica, sans-serif" font-size="22" font-weight="500" fill="#111">orange: first 2000 ms after onset</text>
</svg>
