<svg xmlns="http://www.w3.org/2000/svg" width="1920" height="1320" viewBox="0 0 1920 1320">
<image href="https://raw.githubusercontent.com/mkurg/koryak/main/stimuli/Koryak%20stimuli%20animate%20inanimate/eat-2-2-r.png" x="0" y="0" width="1920" height="1080" preserveAspectRatio="none"/>
<rect x="0" y="0" width="1920" height="1080" fill="none" stroke="#111" stroke-width="2"/>
<rect x="0" y="1080" width="1920" height="240" fill="#f7f7f7"/>
<rect x="970.0" y="100.0" width="850" height="850" fill="none" stroke="#00B8D9" stroke-width="6" stroke-dasharray="18 12"/>
<rect x="982.0" y="62.0" width="102.0" height="38" rx="6" fill="white" fill-opacity="0.86" stroke="#00B8D9" stroke-width="3"/>
<text x="992.0" y="88.0" font-family="Arial, Helvetica, sans-serif" font-size="24" font-weight="700" fill="#111">AGENT</text>
<rect x="40.0" y="100.0" width="850" height="850" fill="none" stroke="#FF3B8A" stroke-width="6" stroke-dasharray="18 12"/>
<rect x="52.0" y="62.0" width="134.0" height="38" rx="6" fill="white" fill-opacity="0.86" stroke="#FF3B8A" stroke-width="3"/>
<text x="62.0" y="88.0" font-family="Arial, Helvetica, sans-serif" font-size="24" font-weight="700" fill="#111">PATIENT</text>
<polyline points="1180.2,381.7 1137.9,440.5 650.6,697.1 716.4,692.9 722.5,700.6 727.8,702.8 522.1,711.5 561.3,698.8 1223.5,466.9 1568.2,464.1 1634.4,441.3 1611.8,561.8 1554.5,513.4 1504.0,574.1 1261.8,806.6 1763.6,601.8 1904.6,520.2 1515.3,520.8 1168.1,814.0 1104.0,773.1 1061.8,708.6 1063.7,714.8 1220.2,450.5 1777.4,443.3 1581.5,498.2 1677.9,617.9 1646.2,599.2 1172.2,724.8 1283.2,689.1 1271.7,681.8 1607.8,351.1 1597.5,366.4 1593.0,511.5 1256.0,769.4 1203.6,744.4 1423.3,660.3 1730.8,436.6 1637.7,436.4 1605.8,106.4 1359.6,745.1 1090.3,710.3 997.1,730.2 1721.8,521.8 1894.5,466.8 1221.8,637.3 1138.8,744.3 1160.6,730.4 1409.9,492.0 1788.5,397.9 1442.9,429.7 1120.8,644.8 1154.2,752.5 1174.8,751.5 1261.3,943.4 1635.0,564.0 1736.6,527.1 1679.9,509.4 1575.8,629.4 1018.6,761.8 1138.1,749.8 1258.9,705.0 1330.4,704.8 1263.2,693.6 1256.4,668.6 1069.9,646.5 1397.8,758.4 1704.8,750.8 1839.3,706.1 960.7,389.0 831.0,739.0 1023.5,667.9 1180.3,431.9 1135.3,581.9 1151.9,435.6 1154.3,447.1 1082.4,573.7 1185.7,590.0 1462.5,624.1 1429.6,639.5 1339.1,642.4 1151.4,564.6 1189.7,567.5 1305.2,505.1 1482.9,486.2 1234.3,763.9 605.1,735.4" fill="none" stroke="#111" stroke-width="4" stroke-opacity="0.36" stroke-linejoin="round"/>
<circle cx="1180.2" cy="381.7" r="15.8" fill="white" fill-opacity="0.84"/>
<circle cx="1180.2" cy="381.7" r="12.8" fill="#7A3CE8" fill-opacity="0.66" stroke="#111" stroke-width="2.5"/>
<text x="1180.2" y="388.7" text-anchor="middle" font-family="Arial, Helvetica, sans-serif" font-size="21" font-weight="800" fill="white" stroke="#111" stroke-width="3" paint-order="stroke">1</text>
<circle cx="1137.9" cy="440.5" r="15.1" fill="white" fill-opacity="0.84"/>
<circle cx="1137.9" cy="440.5" r="12.1" fill="#7A3CE8" fill-opacity="0.66" stroke="#111" stroke-width="2.5"/>
<text x="1137.9" y="447.5" text-anchor="middle" font-family="Arial, Helvetica, sans-serif" font-size="21" font-weight="800" fill="white" stroke="#111" stroke-width="3" paint-order="stroke">2</text>
<circle cx="650.6" cy="697.1" r="17.2" fill="white" fill-opacity="0.84"/>
<circle cx="650.6" cy="697.1" r="14.2" fill="#7A3CE8" fill-opacity="0.66" stroke="#111" stroke-width="2.5"/>
<text x="650.6" y="704.1" text-anchor="middle" font-family="Arial, Helvetica, sans-serif" font-size="21" font-weight="800" fill="white" stroke="#111" stroke-width="3" paint-order="stroke">3</text>
<circle cx="716.4" cy="692.9" r="16.1" fill="white" fill-opacity="0.84"/>
<circle cx="716.4" cy="692.9" r="13.1" fill="#7A3CE8" fill-opacity="0.66" stroke="#111" stroke-width="2.5"/>
<text x="716.4" y="699.9" text-anchor="middle" font-family="Arial, Helvetica, sans-serif" font-size="21" font-weight="800" fill="white" stroke="#111" stroke-width="3" paint-order="stroke">4</text>
<circle cx="722.5" cy="700.6" r="16.6" fill="white" fill-opacity="0.84"/>
<circle cx="722.5" cy="700.6" r="13.6" fill="#7A3CE8" fill-opacity="0.66" stroke="#111" stroke-width="2.5"/>
<text x="722.5" y="707.6" text-anchor="middle" font-family="Arial, Helvetica, sans-serif" font-size="21" font-weight="800" fill="white" stroke="#111" stroke-width="3" paint-order="stroke">5</text>
<circle cx="727.8" cy="702.8" r="12.2" fill="white" fill-opacity="0.84"/>
<circle cx="727.8" cy="702.8" r="9.2" fill="#7A3CE8" fill-opacity="0.66" stroke="#111" stroke-width="2.5"/>
<text x="727.8" y="709.8" text-anchor="middle" font-family="Arial, Helvetica, sans-serif" font-size="21" font-weight="800" fill="white" stroke="#111" stroke-width="3" paint-order="stroke">6</text>
<circle cx="522.1" cy="711.5" r="18.3" fill="white" fill-opacity="0.84"/>
<circle cx="522.1" cy="711.5" r="15.3" fill="#7A3CE8" fill-opacity="0.66" stroke="#111" stroke-width="2.5"/>
<text x="522.1" y="718.5" text-anchor="middle" font-family="Arial, Helvetica, sans-serif" font-size="21" font-weight="800" fill="white" stroke="#111" stroke-width="3" paint-order="stroke">7</text>
<circle cx="561.3" cy="698.8" r="16.5" fill="white" fill-opacity="0.84"/>
<circle cx="561.3" cy="698.8" r="13.5" fill="#7A3CE8" fill-opacity="0.66" stroke="#111" stroke-width="2.5"/>
<text x="561.3" y="705.8" text-anchor="middle" font-family="Arial, Helvetica, sans-serif" font-size="21" font-weight="800" fill="white" stroke="#111" stroke-width="3" paint-order="stroke">8</text>
<circle cx="1223.5" cy="466.9" r="17.6" fill="white" fill-opacity="0.84"/>
<circle cx="1223.5" cy="466.9" r="14.6" fill="#7A3CE8" fill-opacity="0.66" stroke="#111" stroke-width="2.5"/>
<text x="1223.5" y="473.9" text-anchor="middle" font-family="Arial, Helvetica, sans-serif" font-size="21" font-weight="800" fill="white" stroke="#111" stroke-width="3" paint-order="stroke">9</text>
<circle cx="1568.2" cy="464.1" r="18.4" fill="white" fill-opacity="0.84"/>
<circle cx="1568.2" cy="464.1" r="15.4" fill="#7A3CE8" fill-opacity="0.66" stroke="#111" stroke-width="2.5"/>
<text x="1568.2" y="471.1" text-anchor="middle" font-family="Arial, Helvetica, sans-serif" font-size="21" font-weight="800" fill="white" stroke="#111" stroke-width="3" paint-order="stroke">10</text>
<circle cx="1634.4" cy="441.3" r="16.4" fill="white" fill-opacity="0.84"/>
<circle cx="1634.4" cy="441.3" r="13.4" fill="#7A3CE8" fill-opacity="0.66" stroke="#111" stroke-width="2.5"/>
<text x="1634.4" y="448.3" text-anchor="middle" font-family="Arial, Helvetica, sans-serif" font-size="21" font-weight="800" fill="white" stroke="#111" stroke-width="3" paint-order="stroke">11</text>
<circle cx="1611.8" cy="561.8" r="17.0" fill="white" fill-opacity="0.84"/>
<circle cx="1611.8" cy="561.8" r="14.0" fill="#7A3CE8" fill-opacity="0.66" stroke="#111" stroke-width="2.5"/>
<text x="1611.8" y="568.8" text-anchor="middle" font-family="Arial, Helvetica, sans-serif" font-size="21" font-weight="800" fill="white" stroke="#111" stroke-width="3" paint-order="stroke">12</text>
<circle cx="1554.5" cy="513.4" r="18.1" fill="white" fill-opacity="0.84"/>
<circle cx="1554.5" cy="513.4" r="15.1" fill="#7A3CE8" fill-opacity="0.66" stroke="#111" stroke-width="2.5"/>
<text x="1554.5" y="520.4" text-anchor="middle" font-family="Arial, Helvetica, sans-serif" font-size="21" font-weight="800" fill="white" stroke="#111" stroke-width="3" paint-order="stroke">13</text>
<circle cx="1504.0" cy="574.1" r="14.4" fill="white" fill-opacity="0.84"/>
<circle cx="1504.0" cy="574.1" r="11.4" fill="#7A3CE8" fill-opacity="0.66" stroke="#111" stroke-width="2.5"/>
<text x="1504.0" y="581.1" text-anchor="middle" font-family="Arial, Helvetica, sans-serif" font-size="21" font-weight="800" fill="white" stroke="#111" stroke-width="3" paint-order="stroke">14</text>
<circle cx="1261.8" cy="806.6" r="26.9" fill="white" fill-opacity="0.84"/>
<circle cx="1261.8" cy="806.6" r="23.9" fill="#7A3CE8" fill-opacity="0.66" stroke="#111" stroke-width="2.5"/>
<text x="1261.8" y="813.6" text-anchor="middle" font-family="Arial, Helvetica, sans-serif" font-size="21" font-weight="800" fill="white" stroke="#111" stroke-width="3" paint-order="stroke">15</text>
<circle cx="1763.6" cy="601.8" r="12.4" fill="white" fill-opacity="0.84"/>
<circle cx="1763.6" cy="601.8" r="9.4" fill="#7A3CE8" fill-opacity="0.66" stroke="#111" stroke-width="2.5"/>
<text x="1763.6" y="608.8" text-anchor="middle" font-family="Arial, Helvetica, sans-serif" font-size="21" font-weight="800" fill="white" stroke="#111" stroke-width="3" paint-order="stroke">16</text>
<circle cx="1904.6" cy="520.2" r="18.7" fill="white" fill-opacity="0.84"/>
<circle cx="1904.6" cy="520.2" r="15.7" fill="#7A3CE8" fill-opacity="0.66" stroke="#111" stroke-width="2.5"/>
<text x="1904.6" y="527.2" text-anchor="middle" font-family="Arial, Helvetica, sans-serif" font-size="21" font-weight="800" fill="white" stroke="#111" stroke-width="3" paint-order="stroke">17</text>
<circle cx="1515.3" cy="520.8" r="19.6" fill="white" fill-opacity="0.84"/>
<circle cx="1515.3" cy="520.8" r="16.6" fill="#7A3CE8" fill-opacity="0.66" stroke="#111" stroke-width="2.5"/>
<text x="1515.3" y="527.8" text-anchor="middle" font-family="Arial, Helvetica, sans-serif" font-size="21" font-weight="800" fill="white" stroke="#111" stroke-width="3" paint-order="stroke">18</text>
<circle cx="1168.1" cy="814.0" r="16.7" fill="white" fill-opacity="0.84"/>
<circle cx="1168.1" cy="814.0" r="13.7" fill="#7A3CE8" fill-opacity="0.66" stroke="#111" stroke-width="2.5"/>
<text x="1168.1" y="821.0" text-anchor="middle" font-family="Arial, Helvetica, sans-serif" font-size="21" font-weight="800" fill="white" stroke="#111" stroke-width="3" paint-order="stroke">19</text>
<circle cx="1104.0" cy="773.1" r="17.8" fill="white" fill-opacity="0.84"/>
<circle cx="1104.0" cy="773.1" r="14.8" fill="#7A3CE8" fill-opacity="0.66" stroke="#111" stroke-width="2.5"/>
<text x="1104.0" y="780.1" text-anchor="middle" font-family="Arial, Helvetica, sans-serif" font-size="21" font-weight="800" fill="white" stroke="#111" stroke-width="3" paint-order="stroke">20</text>
<circle cx="1061.8" cy="708.6" r="15.6" fill="white" fill-opacity="0.84"/>
<circle cx="1061.8" cy="708.6" r="12.6" fill="#7A3CE8" fill-opacity="0.66" stroke="#111" stroke-width="2.5"/>
<text x="1061.8" y="715.6" text-anchor="middle" font-family="Arial, Helvetica, sans-serif" font-size="21" font-weight="800" fill="white" stroke="#111" stroke-width="3" paint-order="stroke">21</text>
<circle cx="1063.7" cy="714.8" r="13.4" fill="white" fill-opacity="0.84"/>
<circle cx="1063.7" cy="714.8" r="10.4" fill="#7A3CE8" fill-opacity="0.66" stroke="#111" stroke-width="2.5"/>
<text x="1063.7" y="721.8" text-anchor="middle" font-family="Arial, Helvetica, sans-serif" font-size="21" font-weight="800" fill="white" stroke="#111" stroke-width="3" paint-order="stroke">22</text>
<circle cx="1220.2" cy="450.5" r="16.1" fill="white" fill-opacity="0.84"/>
<circle cx="1220.2" cy="450.5" r="13.1" fill="#7A3CE8" fill-opacity="0.66" stroke="#111" stroke-width="2.5"/>
<text x="1220.2" y="457.5" text-anchor="middle" font-family="Arial, Helvetica, sans-serif" font-size="21" font-weight="800" fill="white" stroke="#111" stroke-width="3" paint-order="stroke">23</text>
<circle cx="1777.4" cy="443.3" r="18.1" fill="white" fill-opacity="0.84"/>
<circle cx="1777.4" cy="443.3" r="15.1" fill="#7A3CE8" fill-opacity="0.66" stroke="#111" stroke-width="2.5"/>
<text x="1777.4" y="450.3" text-anchor="middle" font-family="Arial, Helvetica, sans-serif" font-size="21" font-weight="800" fill="white" stroke="#111" stroke-width="3" paint-order="stroke">24</text>
<circle cx="1581.5" cy="498.2" r="17.0" fill="white" fill-opacity="0.84"/>
<circle cx="1581.5" cy="498.2" r="14.0" fill="#7A3CE8" fill-opacity="0.66" stroke="#111" stroke-width="2.5"/>
<text x="1581.5" y="505.2" text-anchor="middle" font-family="Arial, Helvetica, sans-serif" font-size="21" font-weight="800" fill="white" stroke="#111" stroke-width="3" paint-order="stroke">25</text>
<circle cx="1677.9" cy="617.9" r="17.7" fill="white" fill-opacity="0.84"/>
<circle cx="1677.9" cy="617.9" r="14.7" fill="#7A3CE8" fill-opacity="0.66" stroke="#111" stroke-width="2.5"/>
<text x="1677.9" y="624.9" text-anchor="middle" font-family="Arial, Helvetica, sans-serif" font-size="21" font-weight="800" fill="white" stroke="#111" stroke-width="3" paint-order="stroke">26</text>
<circle cx="1646.2" cy="599.2" r="16.9" fill="white" fill-opacity="0.84"/>
<circle cx="1646.2" cy="599.2" r="13.9" fill="#7A3CE8" fill-opacity="0.66" stroke="#111" stroke-width="2.5"/>
<text x="1646.2" y="606.2" text-anchor="middle" font-family="Arial, Helvetica, sans-serif" font-size="21" font-weight="800" fill="white" stroke="#111" stroke-width="3" paint-order="stroke">27</text>
<circle cx="1172.2" cy="724.8" r="17.2" fill="white" fill-opacity="0.84"/>
<circle cx="1172.2" cy="724.8" r="14.2" fill="#7A3CE8" fill-opacity="0.66" stroke="#111" stroke-width="2.5"/>
<text x="1172.2" y="731.8" text-anchor="middle" font-family="Arial, Helvetica, sans-serif" font-size="21" font-weight="800" fill="white" stroke="#111" stroke-width="3" paint-order="stroke">28</text>
<circle cx="1283.2" cy="689.1" r="21.3" fill="white" fill-opacity="0.84"/>
<circle cx="1283.2" cy="689.1" r="18.3" fill="#7A3CE8" fill-opacity="0.66" stroke="#111" stroke-width="2.5"/>
<text x="1283.2" y="696.1" text-anchor="middle" font-family="Arial, Helvetica, sans-serif" font-size="21" font-weight="800" fill="white" stroke="#111" stroke-width="3" paint-order="stroke">29</text>
<circle cx="1271.7" cy="681.8" r="17.4" fill="white" fill-opacity="0.84"/>
<circle cx="1271.7" cy="681.8" r="14.4" fill="#7A3CE8" fill-opacity="0.66" stroke="#111" stroke-width="2.5"/>
<text x="1271.7" y="688.8" text-anchor="middle" font-family="Arial, Helvetica, sans-serif" font-size="21" font-weight="800" fill="white" stroke="#111" stroke-width="3" paint-order="stroke">30</text>
<circle cx="1607.8" cy="351.1" r="16.2" fill="white" fill-opacity="0.84"/>
<circle cx="1607.8" cy="351.1" r="13.2" fill="#7A3CE8" fill-opacity="0.66" stroke="#111" stroke-width="2.5"/>
<text x="1607.8" y="358.1" text-anchor="middle" font-family="Arial, Helvetica, sans-serif" font-size="21" font-weight="800" fill="white" stroke="#111" stroke-width="3" paint-order="stroke">31</text>
<circle cx="1597.5" cy="366.4" r="15.0" fill="white" fill-opacity="0.84"/>
<circle cx="1597.5" cy="366.4" r="12.0" fill="#7A3CE8" fill-opacity="0.66" stroke="#111" stroke-width="2.5"/>
<text x="1597.5" y="373.4" text-anchor="middle" font-family="Arial, Helvetica, sans-serif" font-size="21" font-weight="800" fill="white" stroke="#111" stroke-width="3" paint-order="stroke">32</text>
<circle cx="1593.0" cy="511.5" r="15.9" fill="white" fill-opacity="0.84"/>
<circle cx="1593.0" cy="511.5" r="12.9" fill="#7A3CE8" fill-opacity="0.66" stroke="#111" stroke-width="2.5"/>
<text x="1593.0" y="518.5" text-anchor="middle" font-family="Arial, Helvetica, sans-serif" font-size="21" font-weight="800" fill="white" stroke="#111" stroke-width="3" paint-order="stroke">33</text>
<circle cx="1256.0" cy="769.4" r="17.0" fill="white" fill-opacity="0.84"/>
<circle cx="1256.0" cy="769.4" r="14.0" fill="#7A3CE8" fill-opacity="0.66" stroke="#111" stroke-width="2.5"/>
<text x="1256.0" y="776.4" text-anchor="middle" font-family="Arial, Helvetica, sans-serif" font-size="21" font-weight="800" fill="white" stroke="#111" stroke-width="3" paint-order="stroke">34</text>
<circle cx="1203.6" cy="744.4" r="17.0" fill="white" fill-opacity="0.84"/>
<circle cx="1203.6" cy="744.4" r="14.0" fill="#7A3CE8" fill-opacity="0.66" stroke="#111" stroke-width="2.5"/>
<text x="1203.6" y="751.4" text-anchor="middle" font-family="Arial, Helvetica, sans-serif" font-size="21" font-weight="800" fill="white" stroke="#111" stroke-width="3" paint-order="stroke">35</text>
<circle cx="1423.3" cy="660.3" r="17.4" fill="white" fill-opacity="0.84"/>
<circle cx="1423.3" cy="660.3" r="14.4" fill="#7A3CE8" fill-opacity="0.66" stroke="#111" stroke-width="2.5"/>
<text x="1423.3" y="667.3" text-anchor="middle" font-family="Arial, Helvetica, sans-serif" font-size="21" font-weight="800" fill="white" stroke="#111" stroke-width="3" paint-order="stroke">36</text>
<circle cx="1730.8" cy="436.6" r="15.4" fill="white" fill-opacity="0.84"/>
<circle cx="1730.8" cy="436.6" r="12.4" fill="#7A3CE8" fill-opacity="0.66" stroke="#111" stroke-width="2.5"/>
<text x="1730.8" y="443.6" text-anchor="middle" font-family="Arial, Helvetica, sans-serif" font-size="21" font-weight="800" fill="white" stroke="#111" stroke-width="3" paint-order="stroke">37</text>
<circle cx="1637.7" cy="436.4" r="12.2" fill="white" fill-opacity="0.84"/>
<circle cx="1637.7" cy="436.4" r="9.2" fill="#7A3CE8" fill-opacity="0.66" stroke="#111" stroke-width="2.5"/>
<text x="1637.7" y="443.4" text-anchor="middle" font-family="Arial, Helvetica, sans-serif" font-size="21" font-weight="800" fill="white" stroke="#111" stroke-width="3" paint-order="stroke">38</text>
<circle cx="1605.8" cy="106.4" r="12.4" fill="white" fill-opacity="0.84"/>
<circle cx="1605.8" cy="106.4" r="9.4" fill="#7A3CE8" fill-opacity="0.66" stroke="#111" stroke-width="2.5"/>
<text x="1605.8" y="113.4" text-anchor="middle" font-family="Arial, Helvetica, sans-serif" font-size="21" font-weight="800" fill="white" stroke="#111" stroke-width="3" paint-order="stroke">39</text>
<circle cx="1359.6" cy="745.1" r="19.1" fill="white" fill-opacity="0.84"/>
<circle cx="1359.6" cy="745.1" r="16.1" fill="#7A3CE8" fill-opacity="0.66" stroke="#111" stroke-width="2.5"/>
<text x="1359.6" y="752.1" text-anchor="middle" font-family="Arial, Helvetica, sans-serif" font-size="21" font-weight="800" fill="white" stroke="#111" stroke-width="3" paint-order="stroke">40</text>
<circle cx="1090.3" cy="710.3" r="22.7" fill="white" fill-opacity="0.84"/>
<circle cx="1090.3" cy="710.3" r="19.7" fill="#7A3CE8" fill-opacity="0.66" stroke="#111" stroke-width="2.5"/>
<text x="1090.3" y="717.3" text-anchor="middle" font-family="Arial, Helvetica, sans-serif" font-size="21" font-weight="800" fill="white" stroke="#111" stroke-width="3" paint-order="stroke">41</text>
<circle cx="997.1" cy="730.2" r="16.0" fill="white" fill-opacity="0.84"/>
<circle cx="997.1" cy="730.2" r="13.0" fill="#7A3CE8" fill-opacity="0.66" stroke="#111" stroke-width="2.5"/>
<text x="997.1" y="737.2" text-anchor="middle" font-family="Arial, Helvetica, sans-serif" font-size="21" font-weight="800" fill="white" stroke="#111" stroke-width="3" paint-order="stroke">42</text>
<circle cx="1721.8" cy="521.8" r="15.6" fill="white" fill-opacity="0.84"/>
<circle cx="1721.8" cy="521.8" r="12.6" fill="#7A3CE8" fill-opacity="0.66" stroke="#111" stroke-width="2.5"/>
<text x="1721.8" y="528.8" text-anchor="middle" font-family="Arial, Helvetica, sans-serif" font-size="21" font-weight="800" fill="white" stroke="#111" stroke-width="3" paint-order="stroke">43</text>
<circle cx="1894.5" cy="466.8" r="18.1" fill="white" fill-opacity="0.84"/>
<circle cx="1894.5" cy="466.8" r="15.1" fill="#7A3CE8" fill-opacity="0.66" stroke="#111" stroke-width="2.5"/>
<text x="1894.5" y="473.8" text-anchor="middle" font-family="Arial, Helvetica, sans-serif" font-size="21" font-weight="800" fill="white" stroke="#111" stroke-width="3" paint-order="stroke">44</text>
<circle cx="1221.8" cy="637.3" r="17.0" fill="white" fill-opacity="0.84"/>
<circle cx="1221.8" cy="637.3" r="14.0" fill="#7A3CE8" fill-opacity="0.66" stroke="#111" stroke-width="2.5"/>
<text x="1221.8" y="644.3" text-anchor="middle" font-family="Arial, Helvetica, sans-serif" font-size="21" font-weight="800" fill="white" stroke="#111" stroke-width="3" paint-order="stroke">45</text>
<circle cx="1138.8" cy="744.3" r="14.9" fill="white" fill-opacity="0.84"/>
<circle cx="1138.8" cy="744.3" r="11.9" fill="#7A3CE8" fill-opacity="0.66" stroke="#111" stroke-width="2.5"/>
<text x="1138.8" y="751.3" text-anchor="middle" font-family="Arial, Helvetica, sans-serif" font-size="21" font-weight="800" fill="white" stroke="#111" stroke-width="3" paint-order="stroke">46</text>
<circle cx="1160.6" cy="730.4" r="15.5" fill="white" fill-opacity="0.84"/>
<circle cx="1160.6" cy="730.4" r="12.5" fill="#7A3CE8" fill-opacity="0.66" stroke="#111" stroke-width="2.5"/>
<text x="1160.6" y="737.4" text-anchor="middle" font-family="Arial, Helvetica, sans-serif" font-size="21" font-weight="800" fill="white" stroke="#111" stroke-width="3" paint-order="stroke">47</text>
<circle cx="1409.9" cy="492.0" r="15.0" fill="white" fill-opacity="0.84"/>
<circle cx="1409.9" cy="492.0" r="12.0" fill="#7A3CE8" fill-opacity="0.66" stroke="#111" stroke-width="2.5"/>
<text x="1409.9" y="499.0" text-anchor="middle" font-family="Arial, Helvetica, sans-serif" font-size="21" font-weight="800" fill="white" stroke="#111" stroke-width="3" paint-order="stroke">48</text>
<circle cx="1788.5" cy="397.9" r="16.2" fill="white" fill-opacity="0.84"/>
<circle cx="1788.5" cy="397.9" r="13.2" fill="#7A3CE8" fill-opacity="0.66" stroke="#111" stroke-width="2.5"/>
<text x="1788.5" y="404.9" text-anchor="middle" font-family="Arial, Helvetica, sans-serif" font-size="21" font-weight="800" fill="white" stroke="#111" stroke-width="3" paint-order="stroke">49</text>
<circle cx="1442.9" cy="429.7" r="16.8" fill="white" fill-opacity="0.84"/>
<circle cx="1442.9" cy="429.7" r="13.8" fill="#7A3CE8" fill-opacity="0.66" stroke="#111" stroke-width="2.5"/>
<text x="1442.9" y="436.7" text-anchor="middle" font-family="Arial, Helvetica, sans-serif" font-size="21" font-weight="800" fill="white" stroke="#111" stroke-width="3" paint-order="stroke">50</text>
<circle cx="1120.8" cy="644.8" r="11.8" fill="white" fill-opacity="0.84"/>
<circle cx="1120.8" cy="644.8" r="8.8" fill="#7A3CE8" fill-opacity="0.66" stroke="#111" stroke-width="2.5"/>
<text x="1120.8" y="651.8" text-anchor="middle" font-family="Arial, Helvetica, sans-serif" font-size="21" font-weight="800" fill="white" stroke="#111" stroke-width="3" paint-order="stroke">51</text>
<circle cx="1154.2" cy="752.5" r="11.9" fill="white" fill-opacity="0.84"/>
<circle cx="1154.2" cy="752.5" r="8.9" fill="#7A3CE8" fill-opacity="0.66" stroke="#111" stroke-width="2.5"/>
<text x="1154.2" y="759.5" text-anchor="middle" font-family="Arial, Helvetica, sans-serif" font-size="21" font-weight="800" fill="white" stroke="#111" stroke-width="3" paint-order="stroke">52</text>
<circle cx="1174.8" cy="751.5" r="11.8" fill="white" fill-opacity="0.84"/>
<circle cx="1174.8" cy="751.5" r="8.8" fill="#7A3CE8" fill-opacity="0.66" stroke="#111" stroke-width="2.5"/>
<text x="1174.8" y="758.5" text-anchor="middle" font-family="Arial, Helvetica, sans-serif" font-size="21" font-weight="800" fill="white" stroke="#111" stroke-width="3" paint-order="stroke">53</text>
<circle cx="1261.3" cy="943.4" r="15.8" fill="white" fill-opacity="0.84"/>
<circle cx="1261.3" cy="943.4" r="12.8" fill="#7A3CE8" fill-opacity="0.66" stroke="#111" stroke-width="2.5"/>
<text x="1261.3" y="950.4" text-anchor="middle" font-family="Arial, Helvetica, sans-serif" font-size="21" font-weight="800" fill="white" stroke="#111" stroke-width="3" paint-order="stroke">54</text>
<circle cx="1635.0" cy="564.0" r="14.2" fill="white" fill-opacity="0.84"/>
<circle cx="1635.0" cy="564.0" r="11.2" fill="#7A3CE8" fill-opacity="0.66" stroke="#111" stroke-width="2.5"/>
<text x="1635.0" y="571.0" text-anchor="middle" font-family="Arial, Helvetica, sans-serif" font-size="21" font-weight="800" fill="white" stroke="#111" stroke-width="3" paint-order="stroke">55</text>
<circle cx="1736.6" cy="527.1" r="16.1" fill="white" fill-opacity="0.84"/>
<circle cx="1736.6" cy="527.1" r="13.2" fill="#7A3CE8" fill-opacity="0.66" stroke="#111" stroke-width="2.5"/>
<text x="1736.6" y="534.1" text-anchor="middle" font-family="Arial, Helvetica, sans-serif" font-size="21" font-weight="800" fill="white" stroke="#111" stroke-width="3" paint-order="stroke">56</text>
<circle cx="1679.9" cy="509.4" r="12.8" fill="white" fill-opacity="0.84"/>
<circle cx="1679.9" cy="509.4" r="9.8" fill="#7A3CE8" fill-opacity="0.66" stroke="#111" stroke-width="2.5"/>
<text x="1679.9" y="516.4" text-anchor="middle" font-family="Arial, Helvetica, sans-serif" font-size="21" font-weight="800" fill="white" stroke="#111" stroke-width="3" paint-order="stroke">57</text>
<circle cx="1575.8" cy="629.4" r="15.5" fill="white" fill-opacity="0.84"/>
<circle cx="1575.8" cy="629.4" r="12.5" fill="#7A3CE8" fill-opacity="0.66" stroke="#111" stroke-width="2.5"/>
<text x="1575.8" y="636.4" text-anchor="middle" font-family="Arial, Helvetica, sans-serif" font-size="21" font-weight="800" fill="white" stroke="#111" stroke-width="3" paint-order="stroke">58</text>
<circle cx="1018.6" cy="761.8" r="15.8" fill="white" fill-opacity="0.84"/>
<circle cx="1018.6" cy="761.8" r="12.8" fill="#7A3CE8" fill-opacity="0.66" stroke="#111" stroke-width="2.5"/>
<text x="1018.6" y="768.8" text-anchor="middle" font-family="Arial, Helvetica, sans-serif" font-size="21" font-weight="800" fill="white" stroke="#111" stroke-width="3" paint-order="stroke">59</text>
<circle cx="1138.1" cy="749.8" r="16.9" fill="white" fill-opacity="0.84"/>
<circle cx="1138.1" cy="749.8" r="13.9" fill="#7A3CE8" fill-opacity="0.66" stroke="#111" stroke-width="2.5"/>
<text x="1138.1" y="756.8" text-anchor="middle" font-family="Arial, Helvetica, sans-serif" font-size="21" font-weight="800" fill="white" stroke="#111" stroke-width="3" paint-order="stroke">60</text>
<circle cx="1258.9" cy="705.0" r="15.5" fill="white" fill-opacity="0.84"/>
<circle cx="1258.9" cy="705.0" r="12.5" fill="#7A3CE8" fill-opacity="0.66" stroke="#111" stroke-width="2.5"/>
<text x="1258.9" y="712.0" text-anchor="middle" font-family="Arial, Helvetica, sans-serif" font-size="21" font-weight="800" fill="white" stroke="#111" stroke-width="3" paint-order="stroke">61</text>
<circle cx="1330.4" cy="704.8" r="19.0" fill="white" fill-opacity="0.84"/>
<circle cx="1330.4" cy="704.8" r="16.0" fill="#7A3CE8" fill-opacity="0.66" stroke="#111" stroke-width="2.5"/>
<text x="1330.4" y="711.8" text-anchor="middle" font-family="Arial, Helvetica, sans-serif" font-size="21" font-weight="800" fill="white" stroke="#111" stroke-width="3" paint-order="stroke">62</text>
<circle cx="1263.2" cy="693.6" r="17.5" fill="white" fill-opacity="0.84"/>
<circle cx="1263.2" cy="693.6" r="14.5" fill="#7A3CE8" fill-opacity="0.66" stroke="#111" stroke-width="2.5"/>
<text x="1263.2" y="700.6" text-anchor="middle" font-family="Arial, Helvetica, sans-serif" font-size="21" font-weight="800" fill="white" stroke="#111" stroke-width="3" paint-order="stroke">63</text>
<circle cx="1256.4" cy="668.6" r="17.3" fill="white" fill-opacity="0.84"/>
<circle cx="1256.4" cy="668.6" r="14.3" fill="#7A3CE8" fill-opacity="0.66" stroke="#111" stroke-width="2.5"/>
<text x="1256.4" y="675.6" text-anchor="middle" font-family="Arial, Helvetica, sans-serif" font-size="21" font-weight="800" fill="white" stroke="#111" stroke-width="3" paint-order="stroke">64</text>
<circle cx="1069.9" cy="646.5" r="17.4" fill="white" fill-opacity="0.84"/>
<circle cx="1069.9" cy="646.5" r="14.4" fill="#7A3CE8" fill-opacity="0.66" stroke="#111" stroke-width="2.5"/>
<text x="1069.9" y="653.5" text-anchor="middle" font-family="Arial, Helvetica, sans-serif" font-size="21" font-weight="800" fill="white" stroke="#111" stroke-width="3" paint-order="stroke">65</text>
<circle cx="1397.8" cy="758.4" r="15.2" fill="white" fill-opacity="0.84"/>
<circle cx="1397.8" cy="758.4" r="12.2" fill="#7A3CE8" fill-opacity="0.66" stroke="#111" stroke-width="2.5"/>
<text x="1397.8" y="765.4" text-anchor="middle" font-family="Arial, Helvetica, sans-serif" font-size="21" font-weight="800" fill="white" stroke="#111" stroke-width="3" paint-order="stroke">66</text>
<circle cx="1704.8" cy="750.8" r="23.1" fill="white" fill-opacity="0.84"/>
<circle cx="1704.8" cy="750.8" r="20.1" fill="#7A3CE8" fill-opacity="0.66" stroke="#111" stroke-width="2.5"/>
<text x="1704.8" y="757.8" text-anchor="middle" font-family="Arial, Helvetica, sans-serif" font-size="21" font-weight="800" fill="white" stroke="#111" stroke-width="3" paint-order="stroke">67</text>
<circle cx="1839.3" cy="706.1" r="18.7" fill="white" fill-opacity="0.84"/>
<circle cx="1839.3" cy="706.1" r="15.7" fill="#7A3CE8" fill-opacity="0.66" stroke="#111" stroke-width="2.5"/>
<text x="1839.3" y="713.1" text-anchor="middle" font-family="Arial, Helvetica, sans-serif" font-size="21" font-weight="800" fill="white" stroke="#111" stroke-width="3" paint-order="stroke">68</text>
<circle cx="960.7" cy="389.0" r="18.4" fill="white" fill-opacity="0.84"/>
<circle cx="960.7" cy="389.0" r="15.4" fill="#7A3CE8" fill-opacity="0.66" stroke="#111" stroke-width="2.5"/>
<text x="960.7" y="396.0" text-anchor="middle" font-family="Arial, Helvetica, sans-serif" font-size="21" font-weight="800" fill="white" stroke="#111" stroke-width="3" paint-order="stroke">69</text>
<circle cx="831.0" cy="739.0" r="17.6" fill="white" fill-opacity="0.84"/>
<circle cx="831.0" cy="739.0" r="14.6" fill="#7A3CE8" fill-opacity="0.66" stroke="#111" stroke-width="2.5"/>
<text x="831.0" y="746.0" text-anchor="middle" font-family="Arial, Helvetica, sans-serif" font-size="21" font-weight="800" fill="white" stroke="#111" stroke-width="3" paint-order="stroke">70</text>
<circle cx="1023.5" cy="667.9" r="18.8" fill="white" fill-opacity="0.84"/>
<circle cx="1023.5" cy="667.9" r="15.8" fill="#7A3CE8" fill-opacity="0.66" stroke="#111" stroke-width="2.5"/>
<text x="1023.5" y="674.9" text-anchor="middle" font-family="Arial, Helvetica, sans-serif" font-size="21" font-weight="800" fill="white" stroke="#111" stroke-width="3" paint-order="stroke">71</text>
<circle cx="1180.3" cy="431.9" r="23.0" fill="white" fill-opacity="0.84"/>
<circle cx="1180.3" cy="431.9" r="20.0" fill="#7A3CE8" fill-opacity="0.66" stroke="#111" stroke-width="2.5"/>
<text x="1180.3" y="438.9" text-anchor="middle" font-family="Arial, Helvetica, sans-serif" font-size="21" font-weight="800" fill="white" stroke="#111" stroke-width="3" paint-order="stroke">72</text>
<circle cx="1135.3" cy="581.9" r="16.5" fill="white" fill-opacity="0.84"/>
<circle cx="1135.3" cy="581.9" r="13.5" fill="#7A3CE8" fill-opacity="0.66" stroke="#111" stroke-width="2.5"/>
<text x="1135.3" y="588.9" text-anchor="middle" font-family="Arial, Helvetica, sans-serif" font-size="21" font-weight="800" fill="white" stroke="#111" stroke-width="3" paint-order="stroke">73</text>
<circle cx="1151.9" cy="435.6" r="17.4" fill="white" fill-opacity="0.84"/>
<circle cx="1151.9" cy="435.6" r="14.4" fill="#7A3CE8" fill-opacity="0.66" stroke="#111" stroke-width="2.5"/>
<text x="1151.9" y="442.6" text-anchor="middle" font-family="Arial, Helvetica, sans-serif" font-size="21" font-weight="800" fill="white" stroke="#111" stroke-width="3" paint-order="stroke">74</text>
<circle cx="1154.3" cy="447.1" r="21.5" fill="white" fill-opacity="0.84"/>
<circle cx="1154.3" cy="447.1" r="18.5" fill="#7A3CE8" fill-opacity="0.66" stroke="#111" stroke-width="2.5"/>
<text x="1154.3" y="454.1" text-anchor="middle" font-family="Arial, Helvetica, sans-serif" font-size="21" font-weight="800" fill="white" stroke="#111" stroke-width="3" paint-order="stroke">75</text>
<circle cx="1082.4" cy="573.7" r="18.1" fill="white" fill-opacity="0.84"/>
<circle cx="1082.4" cy="573.7" r="15.1" fill="#7A3CE8" fill-opacity="0.66" stroke="#111" stroke-width="2.5"/>
<text x="1082.4" y="580.7" text-anchor="middle" font-family="Arial, Helvetica, sans-serif" font-size="21" font-weight="800" fill="white" stroke="#111" stroke-width="3" paint-order="stroke">76</text>
<circle cx="1185.7" cy="590.0" r="21.1" fill="white" fill-opacity="0.84"/>
<circle cx="1185.7" cy="590.0" r="18.1" fill="#7A3CE8" fill-opacity="0.66" stroke="#111" stroke-width="2.5"/>
<text x="1185.7" y="597.0" text-anchor="middle" font-family="Arial, Helvetica, sans-serif" font-size="21" font-weight="800" fill="white" stroke="#111" stroke-width="3" paint-order="stroke">77</text>
<circle cx="1462.5" cy="624.1" r="18.7" fill="white" fill-opacity="0.84"/>
<circle cx="1462.5" cy="624.1" r="15.7" fill="#7A3CE8" fill-opacity="0.66" stroke="#111" stroke-width="2.5"/>
<text x="1462.5" y="631.1" text-anchor="middle" font-family="Arial, Helvetica, sans-serif" font-size="21" font-weight="800" fill="white" stroke="#111" stroke-width="3" paint-order="stroke">78</text>
<circle cx="1429.6" cy="639.5" r="20.7" fill="white" fill-opacity="0.84"/>
<circle cx="1429.6" cy="639.5" r="17.7" fill="#7A3CE8" fill-opacity="0.66" stroke="#111" stroke-width="2.5"/>
<text x="1429.6" y="646.5" text-anchor="middle" font-family="Arial, Helvetica, sans-serif" font-size="21" font-weight="800" fill="white" stroke="#111" stroke-width="3" paint-order="stroke">79</text>
<circle cx="1339.1" cy="642.4" r="18.6" fill="white" fill-opacity="0.84"/>
<circle cx="1339.1" cy="642.4" r="15.6" fill="#7A3CE8" fill-opacity="0.66" stroke="#111" stroke-width="2.5"/>
<text x="1339.1" y="649.4" text-anchor="middle" font-family="Arial, Helvetica, sans-serif" font-size="21" font-weight="800" fill="white" stroke="#111" stroke-width="3" paint-order="stroke">80</text>
<circle cx="1151.4" cy="564.6" r="18.1" fill="white" fill-opacity="0.84"/>
<circle cx="1151.4" cy="564.6" r="15.1" fill="#7A3CE8" fill-opacity="0.66" stroke="#111" stroke-width="2.5"/>
<text x="1151.4" y="571.6" text-anchor="middle" font-family="Arial, Helvetica, sans-serif" font-size="21" font-weight="800" fill="white" stroke="#111" stroke-width="3" paint-order="stroke">81</text>
<circle cx="1189.7" cy="567.5" r="18.2" fill="white" fill-opacity="0.84"/>
<circle cx="1189.7" cy="567.5" r="15.2" fill="#7A3CE8" fill-opacity="0.66" stroke="#111" stroke-width="2.5"/>
<text x="1189.7" y="574.5" text-anchor="middle" font-family="Arial, Helvetica, sans-serif" font-size="21" font-weight="800" fill="white" stroke="#111" stroke-width="3" paint-order="stroke">82</text>
<circle cx="1305.2" cy="505.1" r="15.0" fill="white" fill-opacity="0.84"/>
<circle cx="1305.2" cy="505.1" r="12.0" fill="#7A3CE8" fill-opacity="0.66" stroke="#111" stroke-width="2.5"/>
<text x="1305.2" y="512.1" text-anchor="middle" font-family="Arial, Helvetica, sans-serif" font-size="21" font-weight="800" fill="white" stroke="#111" stroke-width="3" paint-order="stroke">83</text>
<circle cx="1482.9" cy="486.2" r="16.1" fill="white" fill-opacity="0.84"/>
<circle cx="1482.9" cy="486.2" r="13.1" fill="#7A3CE8" fill-opacity="0.66" stroke="#111" stroke-width="2.5"/>
<text x="1482.9" y="493.2" text-anchor="middle" font-family="Arial, Helvetica, sans-serif" font-size="21" font-weight="800" fill="white" stroke="#111" stroke-width="3" paint-order="stroke">84</text>
<circle cx="1234.3" cy="763.9" r="18.5" fill="white" fill-opacity="0.84"/>
<circle cx="1234.3" cy="763.9" r="15.5" fill="#7A3CE8" fill-opacity="0.66" stroke="#111" stroke-width="2.5"/>
<text x="1234.3" y="770.9" text-anchor="middle" font-family="Arial, Helvetica, sans-serif" font-size="21" font-weight="800" fill="white" stroke="#111" stroke-width="3" paint-order="stroke">85</text>
<circle cx="605.1" cy="735.4" r="13.7" fill="white" fill-opacity="0.84"/>
<circle cx="605.1" cy="735.4" r="10.7" fill="#7A3CE8" fill-opacity="0.66" stroke="#111" stroke-width="2.5"/>
<text x="605.1" y="742.4" text-anchor="middle" font-family="Arial, Helvetica, sans-serif" font-size="21" font-weight="800" fill="white" stroke="#111" stroke-width="3" paint-order="stroke">86</text>
<rect x="16" y="1094" width="1120" height="168" rx="8" fill="white" fill-opacity="0.92" stroke="#111" stroke-opacity="0.22"/>
<text x="36.0" y="1128.0" font-family="Arial, Helvetica, sans-serif" font-size="24" font-weight="600" fill="#111">K19 / k19.asc block 53 | eat-2-2-r.png | RT NA ms | 86 fixations</text>
<text x="36.0" y="1159.0" font-family="Arial, Helvetica, sans-serif" font-size="24" font-weight="600" fill="#111">numbers show fixation order; dot size shows fixation duration</text>
<circle cx="42" cy="1198" r="11" fill="#005DFF" fill-opacity="0.64" stroke="#111" stroke-width="2"/>
<text x="62.0" y="1206.0" font-family="Arial, Helvetica, sans-serif" font-size="22" font-weight="500" fill="#111">blue: before speech onset</text>
<circle cx="42" cy="1232" r="11" fill="#FF8A00" fill-opacity="0.64" stroke="#111" stroke-width="2"/>
<text x="62.0" y="1240.0" font-family="Arial, Helvetica, sans-serif" font-size="22" font-weight="500" fill="#111">orange: first 2000 ms after onset</text>
</svg>
