<svg xmlns="http://www.w3.org/2000/svg" width="1920" height="1320" viewBox="0 0 1920 1320">
<image href="https://raw.githubusercontent.com/mkurg/koryak/main/stimuli/Koryak%20stimuli%20animate%20inanimate/plant-1-2-l.png" x="0" y="0" width="1920" height="1080" preserveAspectRatio="none"/>
<rect x="0" y="0" width="1920" height="1080" fill="none" stroke="#111" stroke-width="2"/>
<rect x="0" y="1080" width="1920" height="240" fill="#f7f7f7"/>
<rect x="40.0" y="100.0" width="850" height="850" fill="none" stroke="#00B8D9" stroke-width="6" stroke-dasharray="18 12"/>
<rect x="52.0" y="62.0" width="102.0" height="38" rx="6" fill="white" fill-opacity="0.86" stroke="#00B8D9" stroke-width="3"/>
<text x="62.0" y="88.0" font-family="Arial, Helvetica, sans-serif" font-size="24" font-weight="700" fill="#111">AGENT</text>
<rect x="970.0" y="100.0" width="850" height="850" fill="none" stroke="#FF3B8A" stroke-width="6" stroke-dasharray="18 12"/>
<rect x="982.0" y="62.0" width="134.0" height="38" rx="6" fill="white" fill-opacity="0.86" stroke="#FF3B8A" stroke-width="3"/>
<text x="992.0" y="88.0" font-family="Arial, Helvetica, sans-serif" font-size="24" font-weight="700" fill="#111">PATIENT</text>
<polyline points="1352.7,665.2 813.3,722.4 742.1,799.0 755.1,426.6 716.1,389.9 1247.1,824.5 1133.9,847.4 916.2,755.8 752.0,785.6 737.0,400.2 717.1,379.6 743.8,416.1 676.8,401.6 735.5,415.7 1124.4,687.8 733.3,787.7 1181.8,899.0 1128.9,852.4 1326.4,722.1 1188.4,721.4 1300.0,639.6 751.3,795.5 998.5,810.1 775.7,804.1 1410.6,731.4 1326.3,674.1 1144.1,768.7" fill="none" stroke="#111" stroke-width="4" stroke-opacity="0.36" stroke-linejoin="round"/>
<circle cx="1352.7" cy="665.2" r="17.6" fill="white" fill-opacity="0.84"/>
<circle cx="1352.7" cy="665.2" r="14.6" fill="#7A3CE8" fill-opacity="0.66" stroke="#111" stroke-width="2.5"/>
<text x="1352.7" y="672.2" text-anchor="middle" font-family="Arial, Helvetica, sans-serif" font-size="21" font-weight="800" fill="white" stroke="#111" stroke-width="3" paint-order="stroke">1</text>
<circle cx="813.3" cy="722.4" r="14.7" fill="white" fill-opacity="0.84"/>
<circle cx="813.3" cy="722.4" r="11.7" fill="#7A3CE8" fill-opacity="0.66" stroke="#111" stroke-width="2.5"/>
<text x="813.3" y="729.4" text-anchor="middle" font-family="Arial, Helvetica, sans-serif" font-size="21" font-weight="800" fill="white" stroke="#111" stroke-width="3" paint-order="stroke">2</text>
<circle cx="742.1" cy="799.0" r="18.7" fill="white" fill-opacity="0.84"/>
<circle cx="742.1" cy="799.0" r="15.7" fill="#7A3CE8" fill-opacity="0.66" stroke="#111" stroke-width="2.5"/>
<text x="742.1" y="806.0" text-anchor="middle" font-family="Arial, Helvetica, sans-serif" font-size="21" font-weight="800" fill="white" stroke="#111" stroke-width="3" paint-order="stroke">3</text>
<circle cx="755.1" cy="426.6" r="19.5" fill="white" fill-opacity="0.84"/>
<circle cx="755.1" cy="426.6" r="16.5" fill="#7A3CE8" fill-opacity="0.66" stroke="#111" stroke-width="2.5"/>
<text x="755.1" y="433.6" text-anchor="middle" font-family="Arial, Helvetica, sans-serif" font-size="21" font-weight="800" fill="white" stroke="#111" stroke-width="3" paint-order="stroke">4</text>
<circle cx="716.1" cy="389.9" r="18.4" fill="white" fill-opacity="0.84"/>
<circle cx="716.1" cy="389.9" r="15.4" fill="#7A3CE8" fill-opacity="0.66" stroke="#111" stroke-width="2.5"/>
<text x="716.1" y="396.9" text-anchor="middle" font-family="Arial, Helvetica, sans-serif" font-size="21" font-weight="800" fill="white" stroke="#111" stroke-width="3" paint-order="stroke">5</text>
<circle cx="1247.1" cy="824.5" r="16.2" fill="white" fill-opacity="0.84"/>
<circle cx="1247.1" cy="824.5" r="13.2" fill="#7A3CE8" fill-opacity="0.66" stroke="#111" stroke-width="2.5"/>
<text x="1247.1" y="831.5" text-anchor="middle" font-family="Arial, Helvetica, sans-serif" font-size="21" font-weight="800" fill="white" stroke="#111" stroke-width="3" paint-order="stroke">6</text>
<circle cx="1133.9" cy="847.4" r="17.8" fill="white" fill-opacity="0.84"/>
<circle cx="1133.9" cy="847.4" r="14.8" fill="#7A3CE8" fill-opacity="0.66" stroke="#111" stroke-width="2.5"/>
<text x="1133.9" y="854.4" text-anchor="middle" font-family="Arial, Helvetica, sans-serif" font-size="21" font-weight="800" fill="white" stroke="#111" stroke-width="3" paint-order="stroke">7</text>
<circle cx="916.2" cy="755.8" r="16.1" fill="white" fill-opacity="0.84"/>
<circle cx="916.2" cy="755.8" r="13.1" fill="#7A3CE8" fill-opacity="0.66" stroke="#111" stroke-width="2.5"/>
<text x="916.2" y="762.8" text-anchor="middle" font-family="Arial, Helvetica, sans-serif" font-size="21" font-weight="800" fill="white" stroke="#111" stroke-width="3" paint-order="stroke">8</text>
<circle cx="752.0" cy="785.6" r="18.4" fill="white" fill-opacity="0.84"/>
<circle cx="752.0" cy="785.6" r="15.4" fill="#7A3CE8" fill-opacity="0.66" stroke="#111" stroke-width="2.5"/>
<text x="752.0" y="792.6" text-anchor="middle" font-family="Arial, Helvetica, sans-serif" font-size="21" font-weight="800" fill="white" stroke="#111" stroke-width="3" paint-order="stroke">9</text>
<circle cx="737.0" cy="400.2" r="24.5" fill="white" fill-opacity="0.84"/>
<circle cx="737.0" cy="400.2" r="21.5" fill="#7A3CE8" fill-opacity="0.66" stroke="#111" stroke-width="2.5"/>
<text x="737.0" y="407.2" text-anchor="middle" font-family="Arial, Helvetica, sans-serif" font-size="21" font-weight="800" fill="white" stroke="#111" stroke-width="3" paint-order="stroke">10</text>
<circle cx="717.1" cy="379.6" r="18.0" fill="white" fill-opacity="0.84"/>
<circle cx="717.1" cy="379.6" r="15.0" fill="#7A3CE8" fill-opacity="0.66" stroke="#111" stroke-width="2.5"/>
<text x="717.1" y="386.6" text-anchor="middle" font-family="Arial, Helvetica, sans-serif" font-size="21" font-weight="800" fill="white" stroke="#111" stroke-width="3" paint-order="stroke">11</text>
<circle cx="743.8" cy="416.1" r="22.0" fill="white" fill-opacity="0.84"/>
<circle cx="743.8" cy="416.1" r="19.0" fill="#7A3CE8" fill-opacity="0.66" stroke="#111" stroke-width="2.5"/>
<text x="743.8" y="423.1" text-anchor="middle" font-family="Arial, Helvetica, sans-serif" font-size="21" font-weight="800" fill="white" stroke="#111" stroke-width="3" paint-order="stroke">12</text>
<circle cx="676.8" cy="401.6" r="16.1" fill="white" fill-opacity="0.84"/>
<circle cx="676.8" cy="401.6" r="13.1" fill="#7A3CE8" fill-opacity="0.66" stroke="#111" stroke-width="2.5"/>
<text x="676.8" y="408.6" text-anchor="middle" font-family="Arial, Helvetica, sans-serif" font-size="21" font-weight="800" fill="white" stroke="#111" stroke-width="3" paint-order="stroke">13</text>
<circle cx="735.5" cy="415.7" r="18.8" fill="white" fill-opacity="0.84"/>
<circle cx="735.5" cy="415.7" r="15.8" fill="#7A3CE8" fill-opacity="0.66" stroke="#111" stroke-width="2.5"/>
<text x="735.5" y="422.7" text-anchor="middle" font-family="Arial, Helvetica, sans-serif" font-size="21" font-weight="800" fill="white" stroke="#111" stroke-width="3" paint-order="stroke">14</text>
<circle cx="1124.4" cy="687.8" r="15.7" fill="white" fill-opacity="0.84"/>
<circle cx="1124.4" cy="687.8" r="12.7" fill="#7A3CE8" fill-opacity="0.66" stroke="#111" stroke-width="2.5"/>
<text x="1124.4" y="694.8" text-anchor="middle" font-family="Arial, Helvetica, sans-serif" font-size="21" font-weight="800" fill="white" stroke="#111" stroke-width="3" paint-order="stroke">15</text>
<circle cx="733.3" cy="787.7" r="22.6" fill="white" fill-opacity="0.84"/>
<circle cx="733.3" cy="787.7" r="19.6" fill="#7A3CE8" fill-opacity="0.66" stroke="#111" stroke-width="2.5"/>
<text x="733.3" y="794.7" text-anchor="middle" font-family="Arial, Helvetica, sans-serif" font-size="21" font-weight="800" fill="white" stroke="#111" stroke-width="3" paint-order="stroke">16</text>
<circle cx="1181.8" cy="899.0" r="15.3" fill="white" fill-opacity="0.84"/>
<circle cx="1181.8" cy="899.0" r="12.3" fill="#7A3CE8" fill-opacity="0.66" stroke="#111" stroke-width="2.5"/>
<text x="1181.8" y="906.0" text-anchor="middle" font-family="Arial, Helvetica, sans-serif" font-size="21" font-weight="800" fill="white" stroke="#111" stroke-width="3" paint-order="stroke">17</text>
<circle cx="1128.9" cy="852.4" r="16.7" fill="white" fill-opacity="0.84"/>
<circle cx="1128.9" cy="852.4" r="13.7" fill="#7A3CE8" fill-opacity="0.66" stroke="#111" stroke-width="2.5"/>
<text x="1128.9" y="859.4" text-anchor="middle" font-family="Arial, Helvetica, sans-serif" font-size="21" font-weight="800" fill="white" stroke="#111" stroke-width="3" paint-order="stroke">18</text>
<circle cx="1326.4" cy="722.1" r="17.8" fill="white" fill-opacity="0.84"/>
<circle cx="1326.4" cy="722.1" r="14.8" fill="#7A3CE8" fill-opacity="0.66" stroke="#111" stroke-width="2.5"/>
<text x="1326.4" y="729.1" text-anchor="middle" font-family="Arial, Helvetica, sans-serif" font-size="21" font-weight="800" fill="white" stroke="#111" stroke-width="3" paint-order="stroke">19</text>
<circle cx="1188.4" cy="721.4" r="16.9" fill="white" fill-opacity="0.84"/>
<circle cx="1188.4" cy="721.4" r="13.9" fill="#7A3CE8" fill-opacity="0.66" stroke="#111" stroke-width="2.5"/>
<text x="1188.4" y="728.4" text-anchor="middle" font-family="Arial, Helvetica, sans-serif" font-size="21" font-weight="800" fill="white" stroke="#111" stroke-width="3" paint-order="stroke">20</text>
<circle cx="1300.0" cy="639.6" r="20.7" fill="white" fill-opacity="0.84"/>
<circle cx="1300.0" cy="639.6" r="17.7" fill="#7A3CE8" fill-opacity="0.66" stroke="#111" stroke-width="2.5"/>
<text x="1300.0" y="646.6" text-anchor="middle" font-family="Arial, Helvetica, sans-serif" font-size="21" font-weight="800" fill="white" stroke="#111" stroke-width="3" paint-order="stroke">21</text>
<circle cx="751.3" cy="795.5" r="25.4" fill="white" fill-opacity="0.84"/>
<circle cx="751.3" cy="795.5" r="22.4" fill="#7A3CE8" fill-opacity="0.66" stroke="#111" stroke-width="2.5"/>
<text x="751.3" y="802.5" text-anchor="middle" font-family="Arial, Helvetica, sans-serif" font-size="21" font-weight="800" fill="white" stroke="#111" stroke-width="3" paint-order="stroke">22</text>
<circle cx="998.5" cy="810.1" r="19.4" fill="white" fill-opacity="0.84"/>
<circle cx="998.5" cy="810.1" r="16.4" fill="#7A3CE8" fill-opacity="0.66" stroke="#111" stroke-width="2.5"/>
<text x="998.5" y="817.1" text-anchor="middle" font-family="Arial, Helvetica, sans-serif" font-size="21" font-weight="800" fill="white" stroke="#111" stroke-width="3" paint-order="stroke">23</text>
<circle cx="775.7" cy="804.1" r="18.1" fill="white" fill-opacity="0.84"/>
<circle cx="775.7" cy="804.1" r="15.1" fill="#7A3CE8" fill-opacity="0.66" stroke="#111" stroke-width="2.5"/>
<text x="775.7" y="811.1" text-anchor="middle" font-family="Arial, Helvetica, sans-serif" font-size="21" font-weight="800" fill="white" stroke="#111" stroke-width="3" paint-order="stroke">24</text>
<circle cx="1410.6" cy="731.4" r="14.8" fill="white" fill-opacity="0.84"/>
<circle cx="1410.6" cy="731.4" r="11.8" fill="#7A3CE8" fill-opacity="0.66" stroke="#111" stroke-width="2.5"/>
<text x="1410.6" y="738.4" text-anchor="middle" font-family="Arial, Helvetica, sans-serif" font-size="21" font-weight="800" fill="white" stroke="#111" stroke-width="3" paint-order="stroke">25</text>
<circle cx="1326.3" cy="674.1" r="15.5" fill="white" fill-opacity="0.84"/>
<circle cx="1326.3" cy="674.1" r="12.5" fill="#7A3CE8" fill-opacity="0.66" stroke="#111" stroke-width="2.5"/>
<text x="1326.3" y="681.1" text-anchor="middle" font-family="Arial, Helvetica, sans-serif" font-size="21" font-weight="800" fill="white" stroke="#111" stroke-width="3" paint-order="stroke">26</text>
<circle cx="1144.1" cy="768.7" r="24.2" fill="white" fill-opacity="0.84"/>
<circle cx="1144.1" cy="768.7" r="21.2" fill="#7A3CE8" fill-opacity="0.66" stroke="#111" stroke-width="2.5"/>
<text x="1144.1" y="775.7" text-anchor="middle" font-family="Arial, Helvetica, sans-serif" font-size="21" font-weight="800" fill="white" stroke="#111" stroke-width="3" paint-order="stroke">27</text>
<rect x="16" y="1094" width="1120" height="168" rx="8" fill="white" fill-opacity="0.92" stroke="#111" stroke-opacity="0.22"/>
<text x="36.0" y="1128.0" font-family="Arial, Helvetica, sans-serif" font-size="24" font-weight="600" fill="#111">K20 / k20_2.asc block 72 | plant-1-2-l.png | RT NA ms | 27 fixations</text>
<text x="36.0" y="1159.0" font-family="Arial, Helvetica, sans-serif" font-size="24" font-weight="600" fill="#111">numbers show fixation order; dot size shows fixation duration</text>
<circle cx="42" cy="1198" r="11" fill="#005DFF" fill-opacity="0.64" stroke="#111" stroke-width="2"/>
<text x="62.0" y="1206.0" font-family="Arial, Helvetica, sans-serif" font-size="22" font-weight="500" fill="#111">blue: before speech onset</text>
<circle cx="42" cy="1232" r="11" fill="#FF8A00" fill-opacity="0.64" stroke="#111" stroke-width="2"/>
<text x="62.0" y="1240.0" font-family="Arial, Helvetica, sans-serif" font-size="22" font-weight="500" fill="#111">orange: first 2000 ms after onset</text>
</svg>
