<svg xmlns="http://www.w3.org/2000/svg" width="1920" height="1320" viewBox="0 0 1920 1320">
<image href="https://raw.githubusercontent.com/mkurg/koryak/main/stimuli/Koryak%20stimuli%20animate%20inanimate/burn-2-1-l.png" x="0" y="0" width="1920" height="1080" preserveAspectRatio="none"/>
<rect x="0" y="0" width="1920" height="1080" fill="none" stroke="#111" stroke-width="2"/>
<rect x="0" y="1080" width="1920" height="240" fill="#f7f7f7"/>
<rect x="40.0" y="100.0" width="850" height="850" fill="none" stroke="#00B8D9" stroke-width="6" stroke-dasharray="18 12"/>
<rect x="52.0" y="62.0" width="102.0" height="38" rx="6" fill="white" fill-opacity="0.86" stroke="#00B8D9" stroke-width="3"/>
<text x="62.0" y="88.0" font-family="Arial, Helvetica, sans-serif" font-size="24" font-weight="700" fill="#111">AGENT</text>
<rect x="970.0" y="100.0" width="850" height="850" fill="none" stroke="#FF3B8A" stroke-width="6" stroke-dasharray="18 12"/>
<rect x="982.0" y="62.0" width="134.0" height="38" rx="6" fill="white" fill-opacity="0.86" stroke="#FF3B8A" stroke-width="3"/>
<text x="992.0" y="88.0" font-family="Arial, Helvetica, sans-serif" font-size="24" font-weight="700" fill="#111">PATIENT</text>
<polyline points="705.0,504.6 657.5,448.0 1245.8,773.0 839.7,734.4 773.2,684.8 1269.3,833.2 685.4,423.3 635.6,380.7 698.9,401.6 664.5,382.9 356.7,396.1 680.4,396.6 715.0,381.8 680.6,426.6 660.2,624.4 475.1,772.0 535.6,747.4 857.0,730.4 1320.0,894.8 1219.2,884.0 1312.3,840.8 1356.3,876.7 1301.2,751.0 1421.6,748.4 1299.1,809.5 1209.6,841.3 1243.3,842.9 832.1,700.8 894.8,721.2 1338.2,838.7 1283.1,810.5 1309.9,749.1 1261.0,816.9 1169.3,854.0 696.9,680.1 494.7,765.5 825.0,707.9 618.7,677.4 492.5,744.3 551.6,731.9 1293.7,868.2 1198.1,836.0 1308.4,832.7 1265.6,803.8 1258.9,795.1 1238.6,830.0 1181.0,860.2 670.1,466.5 700.7,371.9 1272.3,746.1 710.8,671.5 827.4,715.1 1286.7,806.5 1191.1,810.5 1271.9,793.7 716.5,333.4 657.3,374.0 697.4,360.7 1293.7,840.6 1217.8,854.9 1303.3,742.1 1272.1,672.9 1194.8,729.4 1264.9,832.3 936.6,723.8 783.3,695.4 739.4,724.7 1271.2,775.4 1358.7,797.3 1356.4,835.3 1305.7,827.4 1267.1,713.5 1349.4,738.1" fill="none" stroke="#111" stroke-width="4" stroke-opacity="0.36" stroke-linejoin="round"/>
<circle cx="705.0" cy="504.6" r="16.6" fill="white" fill-opacity="0.84"/>
<circle cx="705.0" cy="504.6" r="13.6" fill="#7A3CE8" fill-opacity="0.66" stroke="#111" stroke-width="2.5"/>
<text x="705.0" y="511.6" text-anchor="middle" font-family="Arial, Helvetica, sans-serif" font-size="21" font-weight="800" fill="white" stroke="#111" stroke-width="3" paint-order="stroke">1</text>
<circle cx="657.5" cy="448.0" r="14.5" fill="white" fill-opacity="0.84"/>
<circle cx="657.5" cy="448.0" r="11.5" fill="#7A3CE8" fill-opacity="0.66" stroke="#111" stroke-width="2.5"/>
<text x="657.5" y="455.0" text-anchor="middle" font-family="Arial, Helvetica, sans-serif" font-size="21" font-weight="800" fill="white" stroke="#111" stroke-width="3" paint-order="stroke">2</text>
<circle cx="1245.8" cy="773.0" r="17.0" fill="white" fill-opacity="0.84"/>
<circle cx="1245.8" cy="773.0" r="14.0" fill="#7A3CE8" fill-opacity="0.66" stroke="#111" stroke-width="2.5"/>
<text x="1245.8" y="780.0" text-anchor="middle" font-family="Arial, Helvetica, sans-serif" font-size="21" font-weight="800" fill="white" stroke="#111" stroke-width="3" paint-order="stroke">3</text>
<circle cx="839.7" cy="734.4" r="15.6" fill="white" fill-opacity="0.84"/>
<circle cx="839.7" cy="734.4" r="12.6" fill="#7A3CE8" fill-opacity="0.66" stroke="#111" stroke-width="2.5"/>
<text x="839.7" y="741.4" text-anchor="middle" font-family="Arial, Helvetica, sans-serif" font-size="21" font-weight="800" fill="white" stroke="#111" stroke-width="3" paint-order="stroke">4</text>
<circle cx="773.2" cy="684.8" r="19.7" fill="white" fill-opacity="0.84"/>
<circle cx="773.2" cy="684.8" r="16.7" fill="#7A3CE8" fill-opacity="0.66" stroke="#111" stroke-width="2.5"/>
<text x="773.2" y="691.8" text-anchor="middle" font-family="Arial, Helvetica, sans-serif" font-size="21" font-weight="800" fill="white" stroke="#111" stroke-width="3" paint-order="stroke">5</text>
<circle cx="1269.3" cy="833.2" r="18.5" fill="white" fill-opacity="0.84"/>
<circle cx="1269.3" cy="833.2" r="15.5" fill="#7A3CE8" fill-opacity="0.66" stroke="#111" stroke-width="2.5"/>
<text x="1269.3" y="840.2" text-anchor="middle" font-family="Arial, Helvetica, sans-serif" font-size="21" font-weight="800" fill="white" stroke="#111" stroke-width="3" paint-order="stroke">6</text>
<circle cx="685.4" cy="423.3" r="18.3" fill="white" fill-opacity="0.84"/>
<circle cx="685.4" cy="423.3" r="15.3" fill="#7A3CE8" fill-opacity="0.66" stroke="#111" stroke-width="2.5"/>
<text x="685.4" y="430.3" text-anchor="middle" font-family="Arial, Helvetica, sans-serif" font-size="21" font-weight="800" fill="white" stroke="#111" stroke-width="3" paint-order="stroke">7</text>
<circle cx="635.6" cy="380.7" r="16.7" fill="white" fill-opacity="0.84"/>
<circle cx="635.6" cy="380.7" r="13.7" fill="#7A3CE8" fill-opacity="0.66" stroke="#111" stroke-width="2.5"/>
<text x="635.6" y="387.7" text-anchor="middle" font-family="Arial, Helvetica, sans-serif" font-size="21" font-weight="800" fill="white" stroke="#111" stroke-width="3" paint-order="stroke">8</text>
<circle cx="698.9" cy="401.6" r="17.8" fill="white" fill-opacity="0.84"/>
<circle cx="698.9" cy="401.6" r="14.8" fill="#7A3CE8" fill-opacity="0.66" stroke="#111" stroke-width="2.5"/>
<text x="698.9" y="408.6" text-anchor="middle" font-family="Arial, Helvetica, sans-serif" font-size="21" font-weight="800" fill="white" stroke="#111" stroke-width="3" paint-order="stroke">9</text>
<circle cx="664.5" cy="382.9" r="23.4" fill="white" fill-opacity="0.84"/>
<circle cx="664.5" cy="382.9" r="20.4" fill="#7A3CE8" fill-opacity="0.66" stroke="#111" stroke-width="2.5"/>
<text x="664.5" y="389.9" text-anchor="middle" font-family="Arial, Helvetica, sans-serif" font-size="21" font-weight="800" fill="white" stroke="#111" stroke-width="3" paint-order="stroke">10</text>
<circle cx="356.7" cy="396.1" r="19.0" fill="white" fill-opacity="0.84"/>
<circle cx="356.7" cy="396.1" r="16.0" fill="#7A3CE8" fill-opacity="0.66" stroke="#111" stroke-width="2.5"/>
<text x="356.7" y="403.1" text-anchor="middle" font-family="Arial, Helvetica, sans-serif" font-size="21" font-weight="800" fill="white" stroke="#111" stroke-width="3" paint-order="stroke">11</text>
<circle cx="680.4" cy="396.6" r="17.1" fill="white" fill-opacity="0.84"/>
<circle cx="680.4" cy="396.6" r="14.1" fill="#7A3CE8" fill-opacity="0.66" stroke="#111" stroke-width="2.5"/>
<text x="680.4" y="403.6" text-anchor="middle" font-family="Arial, Helvetica, sans-serif" font-size="21" font-weight="800" fill="white" stroke="#111" stroke-width="3" paint-order="stroke">12</text>
<circle cx="715.0" cy="381.8" r="16.8" fill="white" fill-opacity="0.84"/>
<circle cx="715.0" cy="381.8" r="13.8" fill="#7A3CE8" fill-opacity="0.66" stroke="#111" stroke-width="2.5"/>
<text x="715.0" y="388.8" text-anchor="middle" font-family="Arial, Helvetica, sans-serif" font-size="21" font-weight="800" fill="white" stroke="#111" stroke-width="3" paint-order="stroke">13</text>
<circle cx="680.6" cy="426.6" r="16.2" fill="white" fill-opacity="0.84"/>
<circle cx="680.6" cy="426.6" r="13.2" fill="#7A3CE8" fill-opacity="0.66" stroke="#111" stroke-width="2.5"/>
<text x="680.6" y="433.6" text-anchor="middle" font-family="Arial, Helvetica, sans-serif" font-size="21" font-weight="800" fill="white" stroke="#111" stroke-width="3" paint-order="stroke">14</text>
<circle cx="660.2" cy="624.4" r="20.8" fill="white" fill-opacity="0.84"/>
<circle cx="660.2" cy="624.4" r="17.8" fill="#7A3CE8" fill-opacity="0.66" stroke="#111" stroke-width="2.5"/>
<text x="660.2" y="631.4" text-anchor="middle" font-family="Arial, Helvetica, sans-serif" font-size="21" font-weight="800" fill="white" stroke="#111" stroke-width="3" paint-order="stroke">15</text>
<circle cx="475.1" cy="772.0" r="16.0" fill="white" fill-opacity="0.84"/>
<circle cx="475.1" cy="772.0" r="13.0" fill="#7A3CE8" fill-opacity="0.66" stroke="#111" stroke-width="2.5"/>
<text x="475.1" y="779.0" text-anchor="middle" font-family="Arial, Helvetica, sans-serif" font-size="21" font-weight="800" fill="white" stroke="#111" stroke-width="3" paint-order="stroke">16</text>
<circle cx="535.6" cy="747.4" r="18.1" fill="white" fill-opacity="0.84"/>
<circle cx="535.6" cy="747.4" r="15.1" fill="#7A3CE8" fill-opacity="0.66" stroke="#111" stroke-width="2.5"/>
<text x="535.6" y="754.4" text-anchor="middle" font-family="Arial, Helvetica, sans-serif" font-size="21" font-weight="800" fill="white" stroke="#111" stroke-width="3" paint-order="stroke">17</text>
<circle cx="857.0" cy="730.4" r="17.4" fill="white" fill-opacity="0.84"/>
<circle cx="857.0" cy="730.4" r="14.4" fill="#7A3CE8" fill-opacity="0.66" stroke="#111" stroke-width="2.5"/>
<text x="857.0" y="737.4" text-anchor="middle" font-family="Arial, Helvetica, sans-serif" font-size="21" font-weight="800" fill="white" stroke="#111" stroke-width="3" paint-order="stroke">18</text>
<circle cx="1320.0" cy="894.8" r="16.5" fill="white" fill-opacity="0.84"/>
<circle cx="1320.0" cy="894.8" r="13.5" fill="#7A3CE8" fill-opacity="0.66" stroke="#111" stroke-width="2.5"/>
<text x="1320.0" y="901.8" text-anchor="middle" font-family="Arial, Helvetica, sans-serif" font-size="21" font-weight="800" fill="white" stroke="#111" stroke-width="3" paint-order="stroke">19</text>
<circle cx="1219.2" cy="884.0" r="16.5" fill="white" fill-opacity="0.84"/>
<circle cx="1219.2" cy="884.0" r="13.5" fill="#7A3CE8" fill-opacity="0.66" stroke="#111" stroke-width="2.5"/>
<text x="1219.2" y="891.0" text-anchor="middle" font-family="Arial, Helvetica, sans-serif" font-size="21" font-weight="800" fill="white" stroke="#111" stroke-width="3" paint-order="stroke">20</text>
<circle cx="1312.3" cy="840.8" r="22.8" fill="white" fill-opacity="0.84"/>
<circle cx="1312.3" cy="840.8" r="19.8" fill="#7A3CE8" fill-opacity="0.66" stroke="#111" stroke-width="2.5"/>
<text x="1312.3" y="847.8" text-anchor="middle" font-family="Arial, Helvetica, sans-serif" font-size="21" font-weight="800" fill="white" stroke="#111" stroke-width="3" paint-order="stroke">21</text>
<circle cx="1356.3" cy="876.7" r="21.4" fill="white" fill-opacity="0.84"/>
<circle cx="1356.3" cy="876.7" r="18.4" fill="#7A3CE8" fill-opacity="0.66" stroke="#111" stroke-width="2.5"/>
<text x="1356.3" y="883.7" text-anchor="middle" font-family="Arial, Helvetica, sans-serif" font-size="21" font-weight="800" fill="white" stroke="#111" stroke-width="3" paint-order="stroke">22</text>
<circle cx="1301.2" cy="751.0" r="27.9" fill="white" fill-opacity="0.84"/>
<circle cx="1301.2" cy="751.0" r="24.9" fill="#7A3CE8" fill-opacity="0.66" stroke="#111" stroke-width="2.5"/>
<text x="1301.2" y="758.0" text-anchor="middle" font-family="Arial, Helvetica, sans-serif" font-size="21" font-weight="800" fill="white" stroke="#111" stroke-width="3" paint-order="stroke">23</text>
<circle cx="1421.6" cy="748.4" r="17.9" fill="white" fill-opacity="0.84"/>
<circle cx="1421.6" cy="748.4" r="14.9" fill="#7A3CE8" fill-opacity="0.66" stroke="#111" stroke-width="2.5"/>
<text x="1421.6" y="755.4" text-anchor="middle" font-family="Arial, Helvetica, sans-serif" font-size="21" font-weight="800" fill="white" stroke="#111" stroke-width="3" paint-order="stroke">24</text>
<circle cx="1299.1" cy="809.5" r="17.2" fill="white" fill-opacity="0.84"/>
<circle cx="1299.1" cy="809.5" r="14.2" fill="#7A3CE8" fill-opacity="0.66" stroke="#111" stroke-width="2.5"/>
<text x="1299.1" y="816.5" text-anchor="middle" font-family="Arial, Helvetica, sans-serif" font-size="21" font-weight="800" fill="white" stroke="#111" stroke-width="3" paint-order="stroke">25</text>
<circle cx="1209.6" cy="841.3" r="19.2" fill="white" fill-opacity="0.84"/>
<circle cx="1209.6" cy="841.3" r="16.2" fill="#7A3CE8" fill-opacity="0.66" stroke="#111" stroke-width="2.5"/>
<text x="1209.6" y="848.3" text-anchor="middle" font-family="Arial, Helvetica, sans-serif" font-size="21" font-weight="800" fill="white" stroke="#111" stroke-width="3" paint-order="stroke">26</text>
<circle cx="1243.3" cy="842.9" r="15.1" fill="white" fill-opacity="0.84"/>
<circle cx="1243.3" cy="842.9" r="12.1" fill="#7A3CE8" fill-opacity="0.66" stroke="#111" stroke-width="2.5"/>
<text x="1243.3" y="849.9" text-anchor="middle" font-family="Arial, Helvetica, sans-serif" font-size="21" font-weight="800" fill="white" stroke="#111" stroke-width="3" paint-order="stroke">27</text>
<circle cx="832.1" cy="700.8" r="21.0" fill="white" fill-opacity="0.84"/>
<circle cx="832.1" cy="700.8" r="18.0" fill="#7A3CE8" fill-opacity="0.66" stroke="#111" stroke-width="2.5"/>
<text x="832.1" y="707.8" text-anchor="middle" font-family="Arial, Helvetica, sans-serif" font-size="21" font-weight="800" fill="white" stroke="#111" stroke-width="3" paint-order="stroke">28</text>
<circle cx="894.8" cy="721.2" r="16.7" fill="white" fill-opacity="0.84"/>
<circle cx="894.8" cy="721.2" r="13.7" fill="#7A3CE8" fill-opacity="0.66" stroke="#111" stroke-width="2.5"/>
<text x="894.8" y="728.2" text-anchor="middle" font-family="Arial, Helvetica, sans-serif" font-size="21" font-weight="800" fill="white" stroke="#111" stroke-width="3" paint-order="stroke">29</text>
<circle cx="1338.2" cy="838.7" r="19.5" fill="white" fill-opacity="0.84"/>
<circle cx="1338.2" cy="838.7" r="16.5" fill="#7A3CE8" fill-opacity="0.66" stroke="#111" stroke-width="2.5"/>
<text x="1338.2" y="845.7" text-anchor="middle" font-family="Arial, Helvetica, sans-serif" font-size="21" font-weight="800" fill="white" stroke="#111" stroke-width="3" paint-order="stroke">30</text>
<circle cx="1283.1" cy="810.5" r="16.3" fill="white" fill-opacity="0.84"/>
<circle cx="1283.1" cy="810.5" r="13.3" fill="#7A3CE8" fill-opacity="0.66" stroke="#111" stroke-width="2.5"/>
<text x="1283.1" y="817.5" text-anchor="middle" font-family="Arial, Helvetica, sans-serif" font-size="21" font-weight="800" fill="white" stroke="#111" stroke-width="3" paint-order="stroke">31</text>
<circle cx="1309.9" cy="749.1" r="19.7" fill="white" fill-opacity="0.84"/>
<circle cx="1309.9" cy="749.1" r="16.7" fill="#7A3CE8" fill-opacity="0.66" stroke="#111" stroke-width="2.5"/>
<text x="1309.9" y="756.1" text-anchor="middle" font-family="Arial, Helvetica, sans-serif" font-size="21" font-weight="800" fill="white" stroke="#111" stroke-width="3" paint-order="stroke">32</text>
<circle cx="1261.0" cy="816.9" r="17.2" fill="white" fill-opacity="0.84"/>
<circle cx="1261.0" cy="816.9" r="14.2" fill="#7A3CE8" fill-opacity="0.66" stroke="#111" stroke-width="2.5"/>
<text x="1261.0" y="823.9" text-anchor="middle" font-family="Arial, Helvetica, sans-serif" font-size="21" font-weight="800" fill="white" stroke="#111" stroke-width="3" paint-order="stroke">33</text>
<circle cx="1169.3" cy="854.0" r="16.3" fill="white" fill-opacity="0.84"/>
<circle cx="1169.3" cy="854.0" r="13.3" fill="#7A3CE8" fill-opacity="0.66" stroke="#111" stroke-width="2.5"/>
<text x="1169.3" y="861.0" text-anchor="middle" font-family="Arial, Helvetica, sans-serif" font-size="21" font-weight="800" fill="white" stroke="#111" stroke-width="3" paint-order="stroke">34</text>
<circle cx="696.9" cy="680.1" r="15.6" fill="white" fill-opacity="0.84"/>
<circle cx="696.9" cy="680.1" r="12.6" fill="#7A3CE8" fill-opacity="0.66" stroke="#111" stroke-width="2.5"/>
<text x="696.9" y="687.1" text-anchor="middle" font-family="Arial, Helvetica, sans-serif" font-size="21" font-weight="800" fill="white" stroke="#111" stroke-width="3" paint-order="stroke">35</text>
<circle cx="494.7" cy="765.5" r="20.9" fill="white" fill-opacity="0.84"/>
<circle cx="494.7" cy="765.5" r="17.9" fill="#7A3CE8" fill-opacity="0.66" stroke="#111" stroke-width="2.5"/>
<text x="494.7" y="772.5" text-anchor="middle" font-family="Arial, Helvetica, sans-serif" font-size="21" font-weight="800" fill="white" stroke="#111" stroke-width="3" paint-order="stroke">36</text>
<circle cx="825.0" cy="707.9" r="21.9" fill="white" fill-opacity="0.84"/>
<circle cx="825.0" cy="707.9" r="18.9" fill="#7A3CE8" fill-opacity="0.66" stroke="#111" stroke-width="2.5"/>
<text x="825.0" y="714.9" text-anchor="middle" font-family="Arial, Helvetica, sans-serif" font-size="21" font-weight="800" fill="white" stroke="#111" stroke-width="3" paint-order="stroke">37</text>
<circle cx="618.7" cy="677.4" r="14.8" fill="white" fill-opacity="0.84"/>
<circle cx="618.7" cy="677.4" r="11.8" fill="#7A3CE8" fill-opacity="0.66" stroke="#111" stroke-width="2.5"/>
<text x="618.7" y="684.4" text-anchor="middle" font-family="Arial, Helvetica, sans-serif" font-size="21" font-weight="800" fill="white" stroke="#111" stroke-width="3" paint-order="stroke">38</text>
<circle cx="492.5" cy="744.3" r="17.7" fill="white" fill-opacity="0.84"/>
<circle cx="492.5" cy="744.3" r="14.7" fill="#7A3CE8" fill-opacity="0.66" stroke="#111" stroke-width="2.5"/>
<text x="492.5" y="751.3" text-anchor="middle" font-family="Arial, Helvetica, sans-serif" font-size="21" font-weight="800" fill="white" stroke="#111" stroke-width="3" paint-order="stroke">39</text>
<circle cx="551.6" cy="731.9" r="18.3" fill="white" fill-opacity="0.84"/>
<circle cx="551.6" cy="731.9" r="15.3" fill="#7A3CE8" fill-opacity="0.66" stroke="#111" stroke-width="2.5"/>
<text x="551.6" y="738.9" text-anchor="middle" font-family="Arial, Helvetica, sans-serif" font-size="21" font-weight="800" fill="white" stroke="#111" stroke-width="3" paint-order="stroke">40</text>
<circle cx="1293.7" cy="868.2" r="15.3" fill="white" fill-opacity="0.84"/>
<circle cx="1293.7" cy="868.2" r="12.3" fill="#7A3CE8" fill-opacity="0.66" stroke="#111" stroke-width="2.5"/>
<text x="1293.7" y="875.2" text-anchor="middle" font-family="Arial, Helvetica, sans-serif" font-size="21" font-weight="800" fill="white" stroke="#111" stroke-width="3" paint-order="stroke">41</text>
<circle cx="1198.1" cy="836.0" r="17.1" fill="white" fill-opacity="0.84"/>
<circle cx="1198.1" cy="836.0" r="14.1" fill="#7A3CE8" fill-opacity="0.66" stroke="#111" stroke-width="2.5"/>
<text x="1198.1" y="843.0" text-anchor="middle" font-family="Arial, Helvetica, sans-serif" font-size="21" font-weight="800" fill="white" stroke="#111" stroke-width="3" paint-order="stroke">42</text>
<circle cx="1308.4" cy="832.7" r="20.1" fill="white" fill-opacity="0.84"/>
<circle cx="1308.4" cy="832.7" r="17.1" fill="#7A3CE8" fill-opacity="0.66" stroke="#111" stroke-width="2.5"/>
<text x="1308.4" y="839.7" text-anchor="middle" font-family="Arial, Helvetica, sans-serif" font-size="21" font-weight="800" fill="white" stroke="#111" stroke-width="3" paint-order="stroke">43</text>
<circle cx="1265.6" cy="803.8" r="17.2" fill="white" fill-opacity="0.84"/>
<circle cx="1265.6" cy="803.8" r="14.2" fill="#7A3CE8" fill-opacity="0.66" stroke="#111" stroke-width="2.5"/>
<text x="1265.6" y="810.8" text-anchor="middle" font-family="Arial, Helvetica, sans-serif" font-size="21" font-weight="800" fill="white" stroke="#111" stroke-width="3" paint-order="stroke">44</text>
<circle cx="1258.9" cy="795.1" r="21.1" fill="white" fill-opacity="0.84"/>
<circle cx="1258.9" cy="795.1" r="18.1" fill="#7A3CE8" fill-opacity="0.66" stroke="#111" stroke-width="2.5"/>
<text x="1258.9" y="802.1" text-anchor="middle" font-family="Arial, Helvetica, sans-serif" font-size="21" font-weight="800" fill="white" stroke="#111" stroke-width="3" paint-order="stroke">45</text>
<circle cx="1238.6" cy="830.0" r="17.5" fill="white" fill-opacity="0.84"/>
<circle cx="1238.6" cy="830.0" r="14.5" fill="#7A3CE8" fill-opacity="0.66" stroke="#111" stroke-width="2.5"/>
<text x="1238.6" y="837.0" text-anchor="middle" font-family="Arial, Helvetica, sans-serif" font-size="21" font-weight="800" fill="white" stroke="#111" stroke-width="3" paint-order="stroke">46</text>
<circle cx="1181.0" cy="860.2" r="16.8" fill="white" fill-opacity="0.84"/>
<circle cx="1181.0" cy="860.2" r="13.8" fill="#7A3CE8" fill-opacity="0.66" stroke="#111" stroke-width="2.5"/>
<text x="1181.0" y="867.2" text-anchor="middle" font-family="Arial, Helvetica, sans-serif" font-size="21" font-weight="800" fill="white" stroke="#111" stroke-width="3" paint-order="stroke">47</text>
<circle cx="670.1" cy="466.5" r="16.0" fill="white" fill-opacity="0.84"/>
<circle cx="670.1" cy="466.5" r="13.0" fill="#7A3CE8" fill-opacity="0.66" stroke="#111" stroke-width="2.5"/>
<text x="670.1" y="473.5" text-anchor="middle" font-family="Arial, Helvetica, sans-serif" font-size="21" font-weight="800" fill="white" stroke="#111" stroke-width="3" paint-order="stroke">48</text>
<circle cx="700.7" cy="371.9" r="21.5" fill="white" fill-opacity="0.84"/>
<circle cx="700.7" cy="371.9" r="18.5" fill="#7A3CE8" fill-opacity="0.66" stroke="#111" stroke-width="2.5"/>
<text x="700.7" y="378.9" text-anchor="middle" font-family="Arial, Helvetica, sans-serif" font-size="21" font-weight="800" fill="white" stroke="#111" stroke-width="3" paint-order="stroke">49</text>
<circle cx="1272.3" cy="746.1" r="18.9" fill="white" fill-opacity="0.84"/>
<circle cx="1272.3" cy="746.1" r="15.9" fill="#7A3CE8" fill-opacity="0.66" stroke="#111" stroke-width="2.5"/>
<text x="1272.3" y="753.1" text-anchor="middle" font-family="Arial, Helvetica, sans-serif" font-size="21" font-weight="800" fill="white" stroke="#111" stroke-width="3" paint-order="stroke">50</text>
<circle cx="710.8" cy="671.5" r="16.4" fill="white" fill-opacity="0.84"/>
<circle cx="710.8" cy="671.5" r="13.4" fill="#7A3CE8" fill-opacity="0.66" stroke="#111" stroke-width="2.5"/>
<text x="710.8" y="678.5" text-anchor="middle" font-family="Arial, Helvetica, sans-serif" font-size="21" font-weight="800" fill="white" stroke="#111" stroke-width="3" paint-order="stroke">51</text>
<circle cx="827.4" cy="715.1" r="20.9" fill="white" fill-opacity="0.84"/>
<circle cx="827.4" cy="715.1" r="17.9" fill="#7A3CE8" fill-opacity="0.66" stroke="#111" stroke-width="2.5"/>
<text x="827.4" y="722.1" text-anchor="middle" font-family="Arial, Helvetica, sans-serif" font-size="21" font-weight="800" fill="white" stroke="#111" stroke-width="3" paint-order="stroke">52</text>
<circle cx="1286.7" cy="806.5" r="17.9" fill="white" fill-opacity="0.84"/>
<circle cx="1286.7" cy="806.5" r="14.9" fill="#7A3CE8" fill-opacity="0.66" stroke="#111" stroke-width="2.5"/>
<text x="1286.7" y="813.5" text-anchor="middle" font-family="Arial, Helvetica, sans-serif" font-size="21" font-weight="800" fill="white" stroke="#111" stroke-width="3" paint-order="stroke">53</text>
<circle cx="1191.1" cy="810.5" r="16.3" fill="white" fill-opacity="0.84"/>
<circle cx="1191.1" cy="810.5" r="13.3" fill="#7A3CE8" fill-opacity="0.66" stroke="#111" stroke-width="2.5"/>
<text x="1191.1" y="817.5" text-anchor="middle" font-family="Arial, Helvetica, sans-serif" font-size="21" font-weight="800" fill="white" stroke="#111" stroke-width="3" paint-order="stroke">54</text>
<circle cx="1271.9" cy="793.7" r="14.5" fill="white" fill-opacity="0.84"/>
<circle cx="1271.9" cy="793.7" r="11.5" fill="#7A3CE8" fill-opacity="0.66" stroke="#111" stroke-width="2.5"/>
<text x="1271.9" y="800.7" text-anchor="middle" font-family="Arial, Helvetica, sans-serif" font-size="21" font-weight="800" fill="white" stroke="#111" stroke-width="3" paint-order="stroke">55</text>
<circle cx="716.5" cy="333.4" r="15.6" fill="white" fill-opacity="0.84"/>
<circle cx="716.5" cy="333.4" r="12.6" fill="#7A3CE8" fill-opacity="0.66" stroke="#111" stroke-width="2.5"/>
<text x="716.5" y="340.4" text-anchor="middle" font-family="Arial, Helvetica, sans-serif" font-size="21" font-weight="800" fill="white" stroke="#111" stroke-width="3" paint-order="stroke">56</text>
<circle cx="657.3" cy="374.0" r="15.2" fill="white" fill-opacity="0.84"/>
<circle cx="657.3" cy="374.0" r="12.2" fill="#7A3CE8" fill-opacity="0.66" stroke="#111" stroke-width="2.5"/>
<text x="657.3" y="381.0" text-anchor="middle" font-family="Arial, Helvetica, sans-serif" font-size="21" font-weight="800" fill="white" stroke="#111" stroke-width="3" paint-order="stroke">57</text>
<circle cx="697.4" cy="360.7" r="16.8" fill="white" fill-opacity="0.84"/>
<circle cx="697.4" cy="360.7" r="13.8" fill="#7A3CE8" fill-opacity="0.66" stroke="#111" stroke-width="2.5"/>
<text x="697.4" y="367.7" text-anchor="middle" font-family="Arial, Helvetica, sans-serif" font-size="21" font-weight="800" fill="white" stroke="#111" stroke-width="3" paint-order="stroke">58</text>
<circle cx="1293.7" cy="840.6" r="18.3" fill="white" fill-opacity="0.84"/>
<circle cx="1293.7" cy="840.6" r="15.3" fill="#7A3CE8" fill-opacity="0.66" stroke="#111" stroke-width="2.5"/>
<text x="1293.7" y="847.6" text-anchor="middle" font-family="Arial, Helvetica, sans-serif" font-size="21" font-weight="800" fill="white" stroke="#111" stroke-width="3" paint-order="stroke">59</text>
<circle cx="1217.8" cy="854.9" r="16.3" fill="white" fill-opacity="0.84"/>
<circle cx="1217.8" cy="854.9" r="13.3" fill="#7A3CE8" fill-opacity="0.66" stroke="#111" stroke-width="2.5"/>
<text x="1217.8" y="861.9" text-anchor="middle" font-family="Arial, Helvetica, sans-serif" font-size="21" font-weight="800" fill="white" stroke="#111" stroke-width="3" paint-order="stroke">60</text>
<circle cx="1303.3" cy="742.1" r="18.1" fill="white" fill-opacity="0.84"/>
<circle cx="1303.3" cy="742.1" r="15.1" fill="#7A3CE8" fill-opacity="0.66" stroke="#111" stroke-width="2.5"/>
<text x="1303.3" y="749.1" text-anchor="middle" font-family="Arial, Helvetica, sans-serif" font-size="21" font-weight="800" fill="white" stroke="#111" stroke-width="3" paint-order="stroke">61</text>
<circle cx="1272.1" cy="672.9" r="16.9" fill="white" fill-opacity="0.84"/>
<circle cx="1272.1" cy="672.9" r="13.9" fill="#7A3CE8" fill-opacity="0.66" stroke="#111" stroke-width="2.5"/>
<text x="1272.1" y="679.9" text-anchor="middle" font-family="Arial, Helvetica, sans-serif" font-size="21" font-weight="800" fill="white" stroke="#111" stroke-width="3" paint-order="stroke">62</text>
<circle cx="1194.8" cy="729.4" r="14.0" fill="white" fill-opacity="0.84"/>
<circle cx="1194.8" cy="729.4" r="11.0" fill="#7A3CE8" fill-opacity="0.66" stroke="#111" stroke-width="2.5"/>
<text x="1194.8" y="736.4" text-anchor="middle" font-family="Arial, Helvetica, sans-serif" font-size="21" font-weight="800" fill="white" stroke="#111" stroke-width="3" paint-order="stroke">63</text>
<circle cx="1264.9" cy="832.3" r="28.3" fill="white" fill-opacity="0.84"/>
<circle cx="1264.9" cy="832.3" r="25.3" fill="#7A3CE8" fill-opacity="0.66" stroke="#111" stroke-width="2.5"/>
<text x="1264.9" y="839.3" text-anchor="middle" font-family="Arial, Helvetica, sans-serif" font-size="21" font-weight="800" fill="white" stroke="#111" stroke-width="3" paint-order="stroke">64</text>
<circle cx="936.6" cy="723.8" r="16.6" fill="white" fill-opacity="0.84"/>
<circle cx="936.6" cy="723.8" r="13.6" fill="#7A3CE8" fill-opacity="0.66" stroke="#111" stroke-width="2.5"/>
<text x="936.6" y="730.8" text-anchor="middle" font-family="Arial, Helvetica, sans-serif" font-size="21" font-weight="800" fill="white" stroke="#111" stroke-width="3" paint-order="stroke">65</text>
<circle cx="783.3" cy="695.4" r="17.2" fill="white" fill-opacity="0.84"/>
<circle cx="783.3" cy="695.4" r="14.2" fill="#7A3CE8" fill-opacity="0.66" stroke="#111" stroke-width="2.5"/>
<text x="783.3" y="702.4" text-anchor="middle" font-family="Arial, Helvetica, sans-serif" font-size="21" font-weight="800" fill="white" stroke="#111" stroke-width="3" paint-order="stroke">66</text>
<circle cx="739.4" cy="724.7" r="19.7" fill="white" fill-opacity="0.84"/>
<circle cx="739.4" cy="724.7" r="16.7" fill="#7A3CE8" fill-opacity="0.66" stroke="#111" stroke-width="2.5"/>
<text x="739.4" y="731.7" text-anchor="middle" font-family="Arial, Helvetica, sans-serif" font-size="21" font-weight="800" fill="white" stroke="#111" stroke-width="3" paint-order="stroke">67</text>
<circle cx="1271.2" cy="775.4" r="15.4" fill="white" fill-opacity="0.84"/>
<circle cx="1271.2" cy="775.4" r="12.4" fill="#7A3CE8" fill-opacity="0.66" stroke="#111" stroke-width="2.5"/>
<text x="1271.2" y="782.4" text-anchor="middle" font-family="Arial, Helvetica, sans-serif" font-size="21" font-weight="800" fill="white" stroke="#111" stroke-width="3" paint-order="stroke">68</text>
<circle cx="1358.7" cy="797.3" r="12.4" fill="white" fill-opacity="0.84"/>
<circle cx="1358.7" cy="797.3" r="9.4" fill="#7A3CE8" fill-opacity="0.66" stroke="#111" stroke-width="2.5"/>
<text x="1358.7" y="804.3" text-anchor="middle" font-family="Arial, Helvetica, sans-serif" font-size="21" font-weight="800" fill="white" stroke="#111" stroke-width="3" paint-order="stroke">69</text>
<circle cx="1356.4" cy="835.3" r="18.8" fill="white" fill-opacity="0.84"/>
<circle cx="1356.4" cy="835.3" r="15.8" fill="#7A3CE8" fill-opacity="0.66" stroke="#111" stroke-width="2.5"/>
<text x="1356.4" y="842.3" text-anchor="middle" font-family="Arial, Helvetica, sans-serif" font-size="21" font-weight="800" fill="white" stroke="#111" stroke-width="3" paint-order="stroke">70</text>
<circle cx="1305.7" cy="827.4" r="19.1" fill="white" fill-opacity="0.84"/>
<circle cx="1305.7" cy="827.4" r="16.1" fill="#7A3CE8" fill-opacity="0.66" stroke="#111" stroke-width="2.5"/>
<text x="1305.7" y="834.4" text-anchor="middle" font-family="Arial, Helvetica, sans-serif" font-size="21" font-weight="800" fill="white" stroke="#111" stroke-width="3" paint-order="stroke">71</text>
<circle cx="1267.1" cy="713.5" r="16.0" fill="white" fill-opacity="0.84"/>
<circle cx="1267.1" cy="713.5" r="13.0" fill="#7A3CE8" fill-opacity="0.66" stroke="#111" stroke-width="2.5"/>
<text x="1267.1" y="720.5" text-anchor="middle" font-family="Arial, Helvetica, sans-serif" font-size="21" font-weight="800" fill="white" stroke="#111" stroke-width="3" paint-order="stroke">72</text>
<circle cx="1349.4" cy="738.1" r="13.4" fill="white" fill-opacity="0.84"/>
<circle cx="1349.4" cy="738.1" r="10.4" fill="#7A3CE8" fill-opacity="0.66" stroke="#111" stroke-width="2.5"/>
<text x="1349.4" y="745.1" text-anchor="middle" font-family="Arial, Helvetica, sans-serif" font-size="21" font-weight="800" fill="white" stroke="#111" stroke-width="3" paint-order="stroke">73</text>
<rect x="16" y="1094" width="1120" height="168" rx="8" fill="white" fill-opacity="0.92" stroke="#111" stroke-opacity="0.22"/>
<text x="36.0" y="1128.0" font-family="Arial, Helvetica, sans-serif" font-size="24" font-weight="600" fill="#111">K20 / k20.asc block 81 | burn-2-1-l.png | RT NA ms | 73 fixations</text>
<text x="36.0" y="1159.0" font-family="Arial, Helvetica, sans-serif" font-size="24" font-weight="600" fill="#111">numbers show fixation order; dot size shows fixation duration</text>
<circle cx="42" cy="1198" r="11" fill="#005DFF" fill-opacity="0.64" stroke="#111" stroke-width="2"/>
<text x="62.0" y="1206.0" font-family="Arial, Helvetica, sans-serif" font-size="22" font-weight="500" fill="#111">blue: before speech onset</text>
<circle cx="42" cy="1232" r="11" fill="#FF8A00" fill-opacity="0.64" stroke="#111" stroke-width="2"/>
<text x="62.0" y="1240.0" font-family="Arial, Helvetica, sans-serif" font-size="22" font-weight="500" fill="#111">orange: first 2000 ms after onset</text>
</svg>
