<svg xmlns="http://www.w3.org/2000/svg" width="1548" height="470" viewBox="0 0 1548 470">
<rect width="100%" height="100%" fill="white"/>
<style>
text { font-family: Arial, Helvetica, sans-serif; fill: #222; }
.title { font-size: 21px; font-weight: 700; }
.subtitle { font-size: 13px; fill: #555; }
.panel-title { font-size: 13px; font-weight: 700; }
.axis { stroke: #222; stroke-width: 1; }
.grid { stroke: #dddddd; stroke-width: 1; }
.tick { font-size: 10px; fill: #333; }
.label { font-size: 13px; fill: #222; }
.legend { font-size: 13px; fill: #222; }
</style>
<text class="title" x="774.0" y="28" text-anchor="middle">PAV Passive Sentences Across Four Time Windows</text>
<text class="subtitle" x="774.0" y="49" text-anchor="middle">Khanty; n = 58 PAV passive trials; 50-ms bins, normalized within each window</text>
<text class="panel-title" x="253.0" y="90" text-anchor="middle">EEA, 100-600 ms (n=58)</text>
<line class="grid" x1="116" x2="390" y1="344.00" y2="344.00"/>
<text class="tick" x="108" y="347.00" text-anchor="end">0</text>
<line class="grid" x1="116" x2="390" y1="286.50" y2="286.50"/>
<text class="tick" x="108" y="289.50" text-anchor="end">0.25</text>
<line class="grid" x1="116" x2="390" y1="229.00" y2="229.00"/>
<text class="tick" x="108" y="232.00" text-anchor="end">0.5</text>
<line class="grid" x1="116" x2="390" y1="171.50" y2="171.50"/>
<text class="tick" x="108" y="174.50" text-anchor="end">0.75</text>
<line class="grid" x1="116" x2="390" y1="114.00" y2="114.00"/>
<text class="tick" x="108" y="117.00" text-anchor="end">1</text>
<line class="grid" x1="116.00" x2="116.00" y1="114" y2="344"/>
<text class="tick" x="116.00" y="362" text-anchor="middle">0.0</text>
<line class="grid" x1="253.00" x2="253.00" y1="114" y2="344"/>
<text class="tick" x="253.00" y="362" text-anchor="middle">0.5</text>
<line class="grid" x1="390.00" x2="390.00" y1="114" y2="344"/>
<text class="tick" x="390.00" y="362" text-anchor="middle">1.0</text>
<line class="axis" x1="116" x2="390" y1="344" y2="344"/>
<line class="axis" x1="116" x2="116" y1="114" y2="344"/>
<polygon points="116.00,190.78 143.40,197.43 170.80,230.03 198.20,233.45 225.60,226.17 253.00,218.03 280.40,210.83 307.80,203.58 335.20,195.08 362.60,200.82 390.00,206.66 390.00,265.46 362.60,259.56 335.20,255.79 307.80,262.19 280.40,269.06 253.00,274.71 225.60,283.85 198.20,289.11 170.80,283.81 143.40,255.34 116.00,251.52" fill="#CC3311" opacity="0.12"/>
<path d="M116.00,221.15 L143.40,226.38 L170.80,256.92 L198.20,261.28 L225.60,255.01 L253.00,246.37 L280.40,239.94 L307.80,232.89 L335.20,225.43 L362.60,230.19 L390.00,236.06" fill="none" stroke="#CC3311" stroke-width="2.6" stroke-linejoin="round" stroke-linecap="round"/>
<polygon points="116.00,243.89 143.40,230.77 170.80,195.79 198.20,181.53 225.60,178.45 253.00,192.36 280.40,198.81 307.80,206.02 335.20,213.99 362.60,210.47 390.00,204.06 390.00,263.93 362.60,268.94 335.20,273.99 307.80,264.03 280.40,257.45 253.00,249.14 225.60,236.41 198.20,239.35 170.80,251.59 143.40,286.24 116.00,300.08" fill="#0077BB" opacity="0.12"/>
<path d="M116.00,271.99 L143.40,258.50 L170.80,223.69 L198.20,210.44 L225.60,207.43 L253.00,220.75 L280.40,228.13 L307.80,235.03 L335.20,243.99 L362.60,239.71 L390.00,234.00" fill="none" stroke="#0077BB" stroke-width="2.6" stroke-linejoin="round" stroke-linecap="round"/>
<text class="panel-title" x="629.0" y="90" text-anchor="middle">Linguistic encoding I (n=58)</text>
<line class="grid" x1="492" x2="766" y1="344.00" y2="344.00"/>
<line class="grid" x1="492" x2="766" y1="286.50" y2="286.50"/>
<line class="grid" x1="492" x2="766" y1="229.00" y2="229.00"/>
<line class="grid" x1="492" x2="766" y1="171.50" y2="171.50"/>
<line class="grid" x1="492" x2="766" y1="114.00" y2="114.00"/>
<line class="grid" x1="492.00" x2="492.00" y1="114" y2="344"/>
<text class="tick" x="492.00" y="362" text-anchor="middle">0.0</text>
<line class="grid" x1="629.00" x2="629.00" y1="114" y2="344"/>
<text class="tick" x="629.00" y="362" text-anchor="middle">0.5</text>
<line class="grid" x1="766.00" x2="766.00" y1="114" y2="344"/>
<text class="tick" x="766.00" y="362" text-anchor="middle">1.0</text>
<line class="axis" x1="492" x2="766" y1="344" y2="344"/>
<line class="axis" x1="492" x2="492" y1="114" y2="344"/>
<polygon points="492.00,206.65 505.70,167.59 519.40,181.43 533.10,177.46 546.80,154.13 560.50,167.22 574.20,160.01 587.90,136.65 601.60,136.92 615.30,151.15 629.00,138.78 642.70,168.64 656.40,193.72 670.10,181.05 683.80,185.90 697.50,200.34 711.20,187.98 724.90,204.63 738.60,209.06 752.30,212.85 766.00,220.85 766.00,286.13 752.30,280.80 738.60,274.31 724.90,271.19 711.20,255.02 697.50,266.22 683.80,250.88 670.10,243.57 656.40,265.31 642.70,230.32 629.00,192.92 615.30,209.97 601.60,192.61 587.90,188.87 574.20,223.47 560.50,229.16 546.80,216.67 533.10,241.59 519.40,246.58 505.70,253.61 492.00,265.43" fill="#CC3311" opacity="0.12"/>
<path d="M492.00,236.04 L505.70,210.60 L519.40,214.00 L533.10,209.52 L546.80,185.40 L560.50,198.19 L574.20,191.74 L587.90,162.76 L601.60,164.76 L615.30,180.56 L629.00,165.85 L642.70,199.48 L656.40,229.51 L670.10,212.31 L683.80,218.39 L697.50,233.28 L711.20,221.50 L724.90,237.91 L738.60,241.69 L752.30,246.82 L766.00,253.49" fill="none" stroke="#CC3311" stroke-width="2.6" stroke-linejoin="round" stroke-linecap="round"/>
<polygon points="492.00,204.08 505.70,214.00 519.40,218.91 533.10,219.83 546.80,241.33 560.50,237.25 574.20,239.06 587.90,269.13 601.60,271.37 615.30,267.58 629.00,281.29 642.70,259.45 656.40,222.21 670.10,225.02 683.80,224.97 697.50,209.73 711.20,214.17 724.90,195.17 738.60,197.19 752.30,187.30 766.00,186.88 766.00,252.55 752.30,255.96 738.60,263.53 724.90,260.73 711.20,280.73 697.50,276.30 683.80,288.70 670.10,286.92 656.40,292.39 642.70,314.32 629.00,329.91 615.30,321.09 601.60,325.07 587.90,321.35 574.20,301.94 560.50,298.18 546.80,303.87 533.10,284.17 519.40,284.04 505.70,298.50 492.00,263.95" fill="#0077BB" opacity="0.12"/>
<path d="M492.00,234.02 L505.70,256.25 L519.40,251.47 L533.10,252.00 L546.80,272.60 L560.50,267.72 L574.20,270.50 L587.90,295.24 L601.60,298.22 L615.30,294.34 L629.00,305.60 L642.70,286.88 L656.40,257.30 L670.10,255.97 L683.80,256.83 L697.50,243.01 L711.20,247.45 L724.90,227.95 L738.60,230.36 L752.30,221.63 L766.00,219.71" fill="none" stroke="#0077BB" stroke-width="2.6" stroke-linejoin="round" stroke-linecap="round"/>
<text class="panel-title" x="1005.0" y="90" text-anchor="middle">Linguistic encoding II (n=58)</text>
<line class="grid" x1="868" x2="1142" y1="344.00" y2="344.00"/>
<line class="grid" x1="868" x2="1142" y1="286.50" y2="286.50"/>
<line class="grid" x1="868" x2="1142" y1="229.00" y2="229.00"/>
<line class="grid" x1="868" x2="1142" y1="171.50" y2="171.50"/>
<line class="grid" x1="868" x2="1142" y1="114.00" y2="114.00"/>
<line class="grid" x1="868.00" x2="868.00" y1="114" y2="344"/>
<text class="tick" x="868.00" y="362" text-anchor="middle">0.0</text>
<line class="grid" x1="1005.00" x2="1005.00" y1="114" y2="344"/>
<text class="tick" x="1005.00" y="362" text-anchor="middle">0.5</text>
<line class="grid" x1="1142.00" x2="1142.00" y1="114" y2="344"/>
<text class="tick" x="1142.00" y="362" text-anchor="middle">1.0</text>
<line class="axis" x1="868" x2="1142" y1="344" y2="344"/>
<line class="axis" x1="868" x2="868" y1="114" y2="344"/>
<polygon points="868.00,234.12 881.70,229.00 895.40,258.77 909.10,242.59 922.80,241.66 936.50,242.59 950.20,236.23 963.90,239.29 977.60,225.75 991.30,230.36 1005.00,232.91 1018.70,243.90 1032.40,229.15 1046.10,226.29 1059.80,243.52 1073.50,234.85 1087.20,245.40 1100.90,247.00 1114.60,247.55 1128.30,236.96 1142.00,240.76 1142.00,299.81 1128.30,301.96 1114.60,306.75 1100.90,307.41 1087.20,306.40 1073.50,300.17 1059.80,303.29 1046.10,286.85 1032.40,298.87 1018.70,304.47 1005.00,294.69 991.30,292.42 977.60,292.45 963.90,299.21 950.20,300.59 936.50,303.96 922.80,303.67 909.10,302.52 895.40,314.61 881.70,313.21 868.00,290.50" fill="#CC3311" opacity="0.12"/>
<path d="M868.00,262.31 L881.70,271.11 L895.40,286.69 L909.10,272.55 L922.80,272.67 L936.50,273.27 L950.20,268.41 L963.90,269.25 L977.60,259.10 L991.30,261.39 L1005.00,263.80 L1018.70,274.19 L1032.40,264.01 L1046.10,256.57 L1059.80,273.40 L1073.50,267.51 L1087.20,275.90 L1100.90,277.20 L1114.60,277.15 L1128.30,269.46 L1142.00,270.29" fill="none" stroke="#CC3311" stroke-width="2.6" stroke-linejoin="round" stroke-linecap="round"/>
<polygon points="868.00,183.58 881.70,149.20 895.40,158.53 909.10,184.43 922.80,173.09 936.50,170.56 950.20,171.20 963.90,170.05 977.60,173.90 991.30,174.28 1005.00,167.50 1018.70,164.37 1032.40,170.73 1046.10,186.78 1059.80,165.01 1073.50,177.05 1087.20,176.34 1100.90,170.05 1114.60,179.44 1128.30,182.96 1142.00,185.70 1142.00,250.97 1128.30,250.37 1114.60,242.45 1100.90,233.90 1087.20,240.86 1073.50,243.83 1059.80,227.93 1046.10,248.55 1032.40,242.80 1018.70,226.26 1005.00,228.50 991.30,237.72 977.60,240.98 963.90,232.66 950.20,237.94 936.50,233.78 922.80,238.98 909.10,246.95 895.40,218.02 881.70,232.73 868.00,241.59" fill="#0077BB" opacity="0.12"/>
<path d="M868.00,212.58 L881.70,190.96 L895.40,188.27 L909.10,215.69 L922.80,206.03 L936.50,202.17 L950.20,204.57 L963.90,201.35 L977.60,207.44 L991.30,206.00 L1005.00,198.00 L1018.70,195.31 L1032.40,206.77 L1046.10,217.67 L1059.80,196.47 L1073.50,210.44 L1087.20,208.60 L1100.90,201.97 L1114.60,210.95 L1128.30,216.66 L1142.00,218.34" fill="none" stroke="#0077BB" stroke-width="2.6" stroke-linejoin="round" stroke-linecap="round"/>
<text class="panel-title" x="1381.0" y="90" text-anchor="middle">Post-onset, 0-1000 ms (n=58)</text>
<line class="grid" x1="1244" x2="1518" y1="344.00" y2="344.00"/>
<line class="grid" x1="1244" x2="1518" y1="286.50" y2="286.50"/>
<line class="grid" x1="1244" x2="1518" y1="229.00" y2="229.00"/>
<line class="grid" x1="1244" x2="1518" y1="171.50" y2="171.50"/>
<line class="grid" x1="1244" x2="1518" y1="114.00" y2="114.00"/>
<line class="grid" x1="1244.00" x2="1244.00" y1="114" y2="344"/>
<text class="tick" x="1244.00" y="362" text-anchor="middle">0.0</text>
<line class="grid" x1="1381.00" x2="1381.00" y1="114" y2="344"/>
<text class="tick" x="1381.00" y="362" text-anchor="middle">0.5</text>
<line class="grid" x1="1518.00" x2="1518.00" y1="114" y2="344"/>
<text class="tick" x="1518.00" y="362" text-anchor="middle">1.0</text>
<line class="axis" x1="1244" x2="1518" y1="344" y2="344"/>
<line class="axis" x1="1244" x2="1244" y1="114" y2="344"/>
<polygon points="1244.00,216.91 1257.70,212.00 1271.40,218.12 1285.10,208.04 1298.80,206.71 1312.50,212.62 1326.20,205.37 1339.90,195.11 1353.60,185.53 1367.30,184.95 1381.00,191.66 1394.70,195.15 1408.40,189.63 1422.10,187.21 1435.80,178.26 1449.50,182.33 1463.20,190.09 1476.90,199.15 1490.60,198.65 1504.30,198.18 1518.00,200.52 1518.00,260.34 1504.30,256.49 1490.60,258.39 1476.90,257.26 1463.20,249.83 1449.50,239.82 1435.80,236.28 1422.10,244.46 1408.40,248.54 1394.70,255.55 1381.00,250.00 1367.30,243.39 1353.60,244.39 1339.90,252.42 1326.20,264.85 1312.50,271.40 1298.80,266.51 1285.10,267.25 1271.40,277.79 1257.70,271.22 1244.00,276.15" fill="#CC3311" opacity="0.12"/>
<path d="M1244.00,246.53 L1257.70,241.61 L1271.40,247.96 L1285.10,237.64 L1298.80,236.61 L1312.50,242.01 L1326.20,235.11 L1339.90,223.77 L1353.60,214.96 L1367.30,214.17 L1381.00,220.83 L1394.70,225.35 L1408.40,219.09 L1422.10,215.83 L1435.80,207.27 L1449.50,211.08 L1463.20,219.96 L1476.90,228.21 L1490.60,228.52 L1504.30,227.33 L1518.00,230.43" fill="none" stroke="#CC3311" stroke-width="2.6" stroke-linejoin="round" stroke-linecap="round"/>
<polygon points="1244.00,208.33 1257.70,207.93 1271.40,206.82 1285.10,213.23 1298.80,215.60 1312.50,217.39 1326.20,226.80 1339.90,236.85 1353.60,242.17 1367.30,244.43 1381.00,242.22 1394.70,247.60 1408.40,254.99 1422.10,245.33 1435.80,250.04 1449.50,242.95 1463.20,240.14 1476.90,225.08 1490.60,226.32 1504.30,229.14 1518.00,224.60 1518.00,282.57 1504.30,286.44 1490.60,283.70 1476.90,282.89 1463.20,295.59 1449.50,297.69 1435.80,304.25 1422.10,299.91 1408.40,306.91 1394.70,302.72 1381.00,298.11 1367.30,300.81 1353.60,298.31 1339.90,292.53 1326.20,285.76 1312.50,275.67 1298.80,274.91 1285.10,271.57 1271.40,267.36 1257.70,267.99 1244.00,266.64" fill="#0077BB" opacity="0.12"/>
<path d="M1244.00,237.49 L1257.70,237.96 L1271.40,237.09 L1285.10,242.40 L1298.80,245.26 L1312.50,246.53 L1326.20,256.28 L1339.90,264.69 L1353.60,270.24 L1367.30,272.62 L1381.00,270.16 L1394.70,275.16 L1408.40,280.95 L1422.10,272.62 L1435.80,277.14 L1449.50,270.32 L1463.20,267.86 L1476.90,253.98 L1490.60,255.01 L1504.30,257.79 L1518.00,253.59" fill="none" stroke="#0077BB" stroke-width="2.6" stroke-linejoin="round" stroke-linecap="round"/>
<text class="label" x="774.0" y="434" text-anchor="middle">Relative Time Within Window</text>
<text class="label" x="20" y="235.0" text-anchor="middle" transform="rotate(-90 20 235.0)">Proportion of Looks</text>
<line x1="684.0" x2="712.0" y1="456.0" y2="456.0" stroke="#CC3311" stroke-width="3"/>
<text class="legend" x="722.0" y="460.0">Agent</text>
<line x1="796.0" x2="824.0" y1="456.0" y2="456.0" stroke="#0077BB" stroke-width="3"/>
<text class="legend" x="834.0" y="460.0">Patient</text>
</svg>