<svg xmlns="http://www.w3.org/2000/svg" width="1920" height="1320" viewBox="0 0 1920 1320">
<image href="../../../../stimuli/Animate-animate%20centered%20and%20flipped/dress-2-1-l.png" x="0" y="0" width="1920" height="1080" preserveAspectRatio="none"/>
<rect x="0" y="0" width="1920" height="1080" fill="none" stroke="#111" stroke-width="2"/>
<rect x="0" y="1080" width="1920" height="240" fill="#f7f7f7"/>
<rect x="40.0" y="100.0" width="850" height="850" fill="none" stroke="#00B8D9" stroke-width="6" stroke-dasharray="18 12"/>
<rect x="52.0" y="62.0" width="102.0" height="38" rx="6" fill="white" fill-opacity="0.86" stroke="#00B8D9" stroke-width="3"/>
<text x="62.0" y="88.0" font-family="Arial, Helvetica, sans-serif" font-size="24" font-weight="700" fill="#111">AGENT</text>
<rect x="970.0" y="100.0" width="850" height="850" fill="none" stroke="#FF3B8A" stroke-width="6" stroke-dasharray="18 12"/>
<rect x="982.0" y="62.0" width="134.0" height="38" rx="6" fill="white" fill-opacity="0.86" stroke="#FF3B8A" stroke-width="3"/>
<text x="992.0" y="88.0" font-family="Arial, Helvetica, sans-serif" font-size="24" font-weight="700" fill="#111">PATIENT</text>
<polyline points="739.4,415.1 736.2,548.0 766.0,568.6 1229.2,353.1 1290.5,342.7 1317.2,342.0 761.5,377.1 585.8,388.1 618.3,343.0 622.5,387.4 573.7,391.3 696.1,372.6 766.2,377.1 766.8,383.7 706.2,386.9 787.5,572.5 751.3,413.3 777.1,368.7 773.7,347.1 803.9,554.1 756.5,582.6 726.2,602.2 773.5,580.3 799.3,561.4 729.1,557.1 720.9,538.8 728.1,415.0 777.1,384.8 903.6,501.1 764.5,561.2 779.8,603.2 774.9,577.0 803.3,587.3 730.4,607.5 803.5,577.4 747.8,669.9 773.6,598.7 916.3,636.2 859.6,555.4 1101.6,517.0 980.1,470.4 1220.5,398.3 1300.8,330.1 1322.9,320.3 814.1,534.4 963.2,509.8 1182.7,510.2 1288.9,419.1 1243.1,513.6 1231.9,471.7 726.5,602.0 780.6,571.6 713.4,573.4 788.0,513.1 1167.7,451.7 1130.7,428.8 1023.7,513.5 996.4,515.5 1136.4,465.4 711.1,564.0 771.6,568.9 666.6,543.6 786.0,548.4 714.4,538.4 734.9,501.6 737.8,562.4" fill="none" stroke="#111" stroke-width="4" stroke-opacity="0.36" stroke-linejoin="round"/>
<circle cx="739.4" cy="415.1" r="16.8" fill="white" fill-opacity="0.84"/>
<circle cx="739.4" cy="415.1" r="13.8" fill="#7A3CE8" fill-opacity="0.66" stroke="#111" stroke-width="2.5"/>
<text x="739.4" y="422.1" text-anchor="middle" font-family="Arial, Helvetica, sans-serif" font-size="21" font-weight="800" fill="white" stroke="#111" stroke-width="3" paint-order="stroke">1</text>
<circle cx="736.2" cy="548.0" r="18.2" fill="white" fill-opacity="0.84"/>
<circle cx="736.2" cy="548.0" r="15.2" fill="#7A3CE8" fill-opacity="0.66" stroke="#111" stroke-width="2.5"/>
<text x="736.2" y="555.0" text-anchor="middle" font-family="Arial, Helvetica, sans-serif" font-size="21" font-weight="800" fill="white" stroke="#111" stroke-width="3" paint-order="stroke">2</text>
<circle cx="766.0" cy="568.6" r="16.5" fill="white" fill-opacity="0.84"/>
<circle cx="766.0" cy="568.6" r="13.5" fill="#7A3CE8" fill-opacity="0.66" stroke="#111" stroke-width="2.5"/>
<text x="766.0" y="575.6" text-anchor="middle" font-family="Arial, Helvetica, sans-serif" font-size="21" font-weight="800" fill="white" stroke="#111" stroke-width="3" paint-order="stroke">3</text>
<circle cx="1229.2" cy="353.1" r="15.9" fill="white" fill-opacity="0.84"/>
<circle cx="1229.2" cy="353.1" r="12.9" fill="#7A3CE8" fill-opacity="0.66" stroke="#111" stroke-width="2.5"/>
<text x="1229.2" y="360.1" text-anchor="middle" font-family="Arial, Helvetica, sans-serif" font-size="21" font-weight="800" fill="white" stroke="#111" stroke-width="3" paint-order="stroke">4</text>
<circle cx="1290.5" cy="342.7" r="15.9" fill="white" fill-opacity="0.84"/>
<circle cx="1290.5" cy="342.7" r="12.9" fill="#7A3CE8" fill-opacity="0.66" stroke="#111" stroke-width="2.5"/>
<text x="1290.5" y="349.7" text-anchor="middle" font-family="Arial, Helvetica, sans-serif" font-size="21" font-weight="800" fill="white" stroke="#111" stroke-width="3" paint-order="stroke">5</text>
<circle cx="1317.2" cy="342.0" r="15.8" fill="white" fill-opacity="0.84"/>
<circle cx="1317.2" cy="342.0" r="12.8" fill="#7A3CE8" fill-opacity="0.66" stroke="#111" stroke-width="2.5"/>
<text x="1317.2" y="349.0" text-anchor="middle" font-family="Arial, Helvetica, sans-serif" font-size="21" font-weight="800" fill="white" stroke="#111" stroke-width="3" paint-order="stroke">6</text>
<circle cx="761.5" cy="377.1" r="21.0" fill="white" fill-opacity="0.84"/>
<circle cx="761.5" cy="377.1" r="18.0" fill="#7A3CE8" fill-opacity="0.66" stroke="#111" stroke-width="2.5"/>
<text x="761.5" y="384.1" text-anchor="middle" font-family="Arial, Helvetica, sans-serif" font-size="21" font-weight="800" fill="white" stroke="#111" stroke-width="3" paint-order="stroke">7</text>
<circle cx="585.8" cy="388.1" r="17.7" fill="white" fill-opacity="0.84"/>
<circle cx="585.8" cy="388.1" r="14.7" fill="#7A3CE8" fill-opacity="0.66" stroke="#111" stroke-width="2.5"/>
<text x="585.8" y="395.1" text-anchor="middle" font-family="Arial, Helvetica, sans-serif" font-size="21" font-weight="800" fill="white" stroke="#111" stroke-width="3" paint-order="stroke">8</text>
<circle cx="618.3" cy="343.0" r="12.8" fill="white" fill-opacity="0.84"/>
<circle cx="618.3" cy="343.0" r="9.8" fill="#7A3CE8" fill-opacity="0.66" stroke="#111" stroke-width="2.5"/>
<text x="618.3" y="350.0" text-anchor="middle" font-family="Arial, Helvetica, sans-serif" font-size="21" font-weight="800" fill="white" stroke="#111" stroke-width="3" paint-order="stroke">9</text>
<circle cx="622.5" cy="387.4" r="13.3" fill="white" fill-opacity="0.84"/>
<circle cx="622.5" cy="387.4" r="10.3" fill="#7A3CE8" fill-opacity="0.66" stroke="#111" stroke-width="2.5"/>
<text x="622.5" y="394.4" text-anchor="middle" font-family="Arial, Helvetica, sans-serif" font-size="21" font-weight="800" fill="white" stroke="#111" stroke-width="3" paint-order="stroke">10</text>
<circle cx="573.7" cy="391.3" r="15.2" fill="white" fill-opacity="0.84"/>
<circle cx="573.7" cy="391.3" r="12.2" fill="#7A3CE8" fill-opacity="0.66" stroke="#111" stroke-width="2.5"/>
<text x="573.7" y="398.3" text-anchor="middle" font-family="Arial, Helvetica, sans-serif" font-size="21" font-weight="800" fill="white" stroke="#111" stroke-width="3" paint-order="stroke">11</text>
<circle cx="696.1" cy="372.6" r="16.7" fill="white" fill-opacity="0.84"/>
<circle cx="696.1" cy="372.6" r="13.7" fill="#7A3CE8" fill-opacity="0.66" stroke="#111" stroke-width="2.5"/>
<text x="696.1" y="379.6" text-anchor="middle" font-family="Arial, Helvetica, sans-serif" font-size="21" font-weight="800" fill="white" stroke="#111" stroke-width="3" paint-order="stroke">12</text>
<circle cx="766.2" cy="377.1" r="21.2" fill="white" fill-opacity="0.84"/>
<circle cx="766.2" cy="377.1" r="18.2" fill="#7A3CE8" fill-opacity="0.66" stroke="#111" stroke-width="2.5"/>
<text x="766.2" y="384.1" text-anchor="middle" font-family="Arial, Helvetica, sans-serif" font-size="21" font-weight="800" fill="white" stroke="#111" stroke-width="3" paint-order="stroke">13</text>
<circle cx="766.8" cy="383.7" r="19.1" fill="white" fill-opacity="0.84"/>
<circle cx="766.8" cy="383.7" r="16.1" fill="#7A3CE8" fill-opacity="0.66" stroke="#111" stroke-width="2.5"/>
<text x="766.8" y="390.7" text-anchor="middle" font-family="Arial, Helvetica, sans-serif" font-size="21" font-weight="800" fill="white" stroke="#111" stroke-width="3" paint-order="stroke">14</text>
<circle cx="706.2" cy="386.9" r="15.1" fill="white" fill-opacity="0.84"/>
<circle cx="706.2" cy="386.9" r="12.1" fill="#7A3CE8" fill-opacity="0.66" stroke="#111" stroke-width="2.5"/>
<text x="706.2" y="393.9" text-anchor="middle" font-family="Arial, Helvetica, sans-serif" font-size="21" font-weight="800" fill="white" stroke="#111" stroke-width="3" paint-order="stroke">15</text>
<circle cx="787.5" cy="572.5" r="18.0" fill="white" fill-opacity="0.84"/>
<circle cx="787.5" cy="572.5" r="15.0" fill="#7A3CE8" fill-opacity="0.66" stroke="#111" stroke-width="2.5"/>
<text x="787.5" y="579.5" text-anchor="middle" font-family="Arial, Helvetica, sans-serif" font-size="21" font-weight="800" fill="white" stroke="#111" stroke-width="3" paint-order="stroke">16</text>
<circle cx="751.3" cy="413.3" r="16.1" fill="white" fill-opacity="0.84"/>
<circle cx="751.3" cy="413.3" r="13.1" fill="#7A3CE8" fill-opacity="0.66" stroke="#111" stroke-width="2.5"/>
<text x="751.3" y="420.3" text-anchor="middle" font-family="Arial, Helvetica, sans-serif" font-size="21" font-weight="800" fill="white" stroke="#111" stroke-width="3" paint-order="stroke">17</text>
<circle cx="777.1" cy="368.7" r="16.4" fill="white" fill-opacity="0.84"/>
<circle cx="777.1" cy="368.7" r="13.4" fill="#7A3CE8" fill-opacity="0.66" stroke="#111" stroke-width="2.5"/>
<text x="777.1" y="375.7" text-anchor="middle" font-family="Arial, Helvetica, sans-serif" font-size="21" font-weight="800" fill="white" stroke="#111" stroke-width="3" paint-order="stroke">18</text>
<circle cx="773.7" cy="347.1" r="16.3" fill="white" fill-opacity="0.84"/>
<circle cx="773.7" cy="347.1" r="13.3" fill="#7A3CE8" fill-opacity="0.66" stroke="#111" stroke-width="2.5"/>
<text x="773.7" y="354.1" text-anchor="middle" font-family="Arial, Helvetica, sans-serif" font-size="21" font-weight="800" fill="white" stroke="#111" stroke-width="3" paint-order="stroke">19</text>
<circle cx="803.9" cy="554.1" r="17.6" fill="white" fill-opacity="0.84"/>
<circle cx="803.9" cy="554.1" r="14.6" fill="#7A3CE8" fill-opacity="0.66" stroke="#111" stroke-width="2.5"/>
<text x="803.9" y="561.1" text-anchor="middle" font-family="Arial, Helvetica, sans-serif" font-size="21" font-weight="800" fill="white" stroke="#111" stroke-width="3" paint-order="stroke">20</text>
<circle cx="756.5" cy="582.6" r="19.2" fill="white" fill-opacity="0.84"/>
<circle cx="756.5" cy="582.6" r="16.2" fill="#7A3CE8" fill-opacity="0.66" stroke="#111" stroke-width="2.5"/>
<text x="756.5" y="589.6" text-anchor="middle" font-family="Arial, Helvetica, sans-serif" font-size="21" font-weight="800" fill="white" stroke="#111" stroke-width="3" paint-order="stroke">21</text>
<circle cx="726.2" cy="602.2" r="15.8" fill="white" fill-opacity="0.84"/>
<circle cx="726.2" cy="602.2" r="12.8" fill="#7A3CE8" fill-opacity="0.66" stroke="#111" stroke-width="2.5"/>
<text x="726.2" y="609.2" text-anchor="middle" font-family="Arial, Helvetica, sans-serif" font-size="21" font-weight="800" fill="white" stroke="#111" stroke-width="3" paint-order="stroke">22</text>
<circle cx="773.5" cy="580.3" r="17.3" fill="white" fill-opacity="0.84"/>
<circle cx="773.5" cy="580.3" r="14.3" fill="#7A3CE8" fill-opacity="0.66" stroke="#111" stroke-width="2.5"/>
<text x="773.5" y="587.3" text-anchor="middle" font-family="Arial, Helvetica, sans-serif" font-size="21" font-weight="800" fill="white" stroke="#111" stroke-width="3" paint-order="stroke">23</text>
<circle cx="799.3" cy="561.4" r="18.7" fill="white" fill-opacity="0.84"/>
<circle cx="799.3" cy="561.4" r="15.7" fill="#7A3CE8" fill-opacity="0.66" stroke="#111" stroke-width="2.5"/>
<text x="799.3" y="568.4" text-anchor="middle" font-family="Arial, Helvetica, sans-serif" font-size="21" font-weight="800" fill="white" stroke="#111" stroke-width="3" paint-order="stroke">24</text>
<circle cx="729.1" cy="557.1" r="18.2" fill="white" fill-opacity="0.84"/>
<circle cx="729.1" cy="557.1" r="15.2" fill="#7A3CE8" fill-opacity="0.66" stroke="#111" stroke-width="2.5"/>
<text x="729.1" y="564.1" text-anchor="middle" font-family="Arial, Helvetica, sans-serif" font-size="21" font-weight="800" fill="white" stroke="#111" stroke-width="3" paint-order="stroke">25</text>
<circle cx="720.9" cy="538.8" r="16.2" fill="white" fill-opacity="0.84"/>
<circle cx="720.9" cy="538.8" r="13.2" fill="#7A3CE8" fill-opacity="0.66" stroke="#111" stroke-width="2.5"/>
<text x="720.9" y="545.8" text-anchor="middle" font-family="Arial, Helvetica, sans-serif" font-size="21" font-weight="800" fill="white" stroke="#111" stroke-width="3" paint-order="stroke">26</text>
<circle cx="728.1" cy="415.0" r="15.7" fill="white" fill-opacity="0.84"/>
<circle cx="728.1" cy="415.0" r="12.7" fill="#7A3CE8" fill-opacity="0.66" stroke="#111" stroke-width="2.5"/>
<text x="728.1" y="422.0" text-anchor="middle" font-family="Arial, Helvetica, sans-serif" font-size="21" font-weight="800" fill="white" stroke="#111" stroke-width="3" paint-order="stroke">27</text>
<circle cx="777.1" cy="384.8" r="22.2" fill="white" fill-opacity="0.84"/>
<circle cx="777.1" cy="384.8" r="19.2" fill="#7A3CE8" fill-opacity="0.66" stroke="#111" stroke-width="2.5"/>
<text x="777.1" y="391.8" text-anchor="middle" font-family="Arial, Helvetica, sans-serif" font-size="21" font-weight="800" fill="white" stroke="#111" stroke-width="3" paint-order="stroke">28</text>
<circle cx="903.6" cy="501.1" r="16.5" fill="white" fill-opacity="0.84"/>
<circle cx="903.6" cy="501.1" r="13.5" fill="#7A3CE8" fill-opacity="0.66" stroke="#111" stroke-width="2.5"/>
<text x="903.6" y="508.1" text-anchor="middle" font-family="Arial, Helvetica, sans-serif" font-size="21" font-weight="800" fill="white" stroke="#111" stroke-width="3" paint-order="stroke">29</text>
<circle cx="764.5" cy="561.2" r="17.4" fill="white" fill-opacity="0.84"/>
<circle cx="764.5" cy="561.2" r="14.4" fill="#7A3CE8" fill-opacity="0.66" stroke="#111" stroke-width="2.5"/>
<text x="764.5" y="568.2" text-anchor="middle" font-family="Arial, Helvetica, sans-serif" font-size="21" font-weight="800" fill="white" stroke="#111" stroke-width="3" paint-order="stroke">30</text>
<circle cx="779.8" cy="603.2" r="17.7" fill="white" fill-opacity="0.84"/>
<circle cx="779.8" cy="603.2" r="14.7" fill="#7A3CE8" fill-opacity="0.66" stroke="#111" stroke-width="2.5"/>
<text x="779.8" y="610.2" text-anchor="middle" font-family="Arial, Helvetica, sans-serif" font-size="21" font-weight="800" fill="white" stroke="#111" stroke-width="3" paint-order="stroke">31</text>
<circle cx="774.9" cy="577.0" r="19.6" fill="white" fill-opacity="0.84"/>
<circle cx="774.9" cy="577.0" r="16.6" fill="#7A3CE8" fill-opacity="0.66" stroke="#111" stroke-width="2.5"/>
<text x="774.9" y="584.0" text-anchor="middle" font-family="Arial, Helvetica, sans-serif" font-size="21" font-weight="800" fill="white" stroke="#111" stroke-width="3" paint-order="stroke">32</text>
<circle cx="803.3" cy="587.3" r="18.2" fill="white" fill-opacity="0.84"/>
<circle cx="803.3" cy="587.3" r="15.2" fill="#7A3CE8" fill-opacity="0.66" stroke="#111" stroke-width="2.5"/>
<text x="803.3" y="594.3" text-anchor="middle" font-family="Arial, Helvetica, sans-serif" font-size="21" font-weight="800" fill="white" stroke="#111" stroke-width="3" paint-order="stroke">33</text>
<circle cx="730.4" cy="607.5" r="16.9" fill="white" fill-opacity="0.84"/>
<circle cx="730.4" cy="607.5" r="13.9" fill="#7A3CE8" fill-opacity="0.66" stroke="#111" stroke-width="2.5"/>
<text x="730.4" y="614.5" text-anchor="middle" font-family="Arial, Helvetica, sans-serif" font-size="21" font-weight="800" fill="white" stroke="#111" stroke-width="3" paint-order="stroke">34</text>
<circle cx="803.5" cy="577.4" r="17.3" fill="white" fill-opacity="0.84"/>
<circle cx="803.5" cy="577.4" r="14.3" fill="#7A3CE8" fill-opacity="0.66" stroke="#111" stroke-width="2.5"/>
<text x="803.5" y="584.4" text-anchor="middle" font-family="Arial, Helvetica, sans-serif" font-size="21" font-weight="800" fill="white" stroke="#111" stroke-width="3" paint-order="stroke">35</text>
<circle cx="747.8" cy="669.9" r="17.9" fill="white" fill-opacity="0.84"/>
<circle cx="747.8" cy="669.9" r="14.9" fill="#7A3CE8" fill-opacity="0.66" stroke="#111" stroke-width="2.5"/>
<text x="747.8" y="676.9" text-anchor="middle" font-family="Arial, Helvetica, sans-serif" font-size="21" font-weight="800" fill="white" stroke="#111" stroke-width="3" paint-order="stroke">36</text>
<circle cx="773.6" cy="598.7" r="19.0" fill="white" fill-opacity="0.84"/>
<circle cx="773.6" cy="598.7" r="16.0" fill="#7A3CE8" fill-opacity="0.66" stroke="#111" stroke-width="2.5"/>
<text x="773.6" y="605.7" text-anchor="middle" font-family="Arial, Helvetica, sans-serif" font-size="21" font-weight="800" fill="white" stroke="#111" stroke-width="3" paint-order="stroke">37</text>
<circle cx="916.3" cy="636.2" r="19.1" fill="white" fill-opacity="0.84"/>
<circle cx="916.3" cy="636.2" r="16.1" fill="#7A3CE8" fill-opacity="0.66" stroke="#111" stroke-width="2.5"/>
<text x="916.3" y="643.2" text-anchor="middle" font-family="Arial, Helvetica, sans-serif" font-size="21" font-weight="800" fill="white" stroke="#111" stroke-width="3" paint-order="stroke">38</text>
<circle cx="859.6" cy="555.4" r="14.6" fill="white" fill-opacity="0.84"/>
<circle cx="859.6" cy="555.4" r="11.6" fill="#7A3CE8" fill-opacity="0.66" stroke="#111" stroke-width="2.5"/>
<text x="859.6" y="562.4" text-anchor="middle" font-family="Arial, Helvetica, sans-serif" font-size="21" font-weight="800" fill="white" stroke="#111" stroke-width="3" paint-order="stroke">39</text>
<circle cx="1101.6" cy="517.0" r="18.7" fill="white" fill-opacity="0.84"/>
<circle cx="1101.6" cy="517.0" r="15.7" fill="#7A3CE8" fill-opacity="0.66" stroke="#111" stroke-width="2.5"/>
<text x="1101.6" y="524.0" text-anchor="middle" font-family="Arial, Helvetica, sans-serif" font-size="21" font-weight="800" fill="white" stroke="#111" stroke-width="3" paint-order="stroke">40</text>
<circle cx="980.1" cy="470.4" r="16.7" fill="white" fill-opacity="0.84"/>
<circle cx="980.1" cy="470.4" r="13.7" fill="#7A3CE8" fill-opacity="0.66" stroke="#111" stroke-width="2.5"/>
<text x="980.1" y="477.4" text-anchor="middle" font-family="Arial, Helvetica, sans-serif" font-size="21" font-weight="800" fill="white" stroke="#111" stroke-width="3" paint-order="stroke">41</text>
<circle cx="1220.5" cy="398.3" r="16.1" fill="white" fill-opacity="0.84"/>
<circle cx="1220.5" cy="398.3" r="13.1" fill="#7A3CE8" fill-opacity="0.66" stroke="#111" stroke-width="2.5"/>
<text x="1220.5" y="405.3" text-anchor="middle" font-family="Arial, Helvetica, sans-serif" font-size="21" font-weight="800" fill="white" stroke="#111" stroke-width="3" paint-order="stroke">42</text>
<circle cx="1300.8" cy="330.1" r="17.0" fill="white" fill-opacity="0.84"/>
<circle cx="1300.8" cy="330.1" r="14.0" fill="#7A3CE8" fill-opacity="0.66" stroke="#111" stroke-width="2.5"/>
<text x="1300.8" y="337.1" text-anchor="middle" font-family="Arial, Helvetica, sans-serif" font-size="21" font-weight="800" fill="white" stroke="#111" stroke-width="3" paint-order="stroke">43</text>
<circle cx="1322.9" cy="320.3" r="16.2" fill="white" fill-opacity="0.84"/>
<circle cx="1322.9" cy="320.3" r="13.2" fill="#7A3CE8" fill-opacity="0.66" stroke="#111" stroke-width="2.5"/>
<text x="1322.9" y="327.3" text-anchor="middle" font-family="Arial, Helvetica, sans-serif" font-size="21" font-weight="800" fill="white" stroke="#111" stroke-width="3" paint-order="stroke">44</text>
<circle cx="814.1" cy="534.4" r="19.7" fill="white" fill-opacity="0.84"/>
<circle cx="814.1" cy="534.4" r="16.7" fill="#7A3CE8" fill-opacity="0.66" stroke="#111" stroke-width="2.5"/>
<text x="814.1" y="541.4" text-anchor="middle" font-family="Arial, Helvetica, sans-serif" font-size="21" font-weight="800" fill="white" stroke="#111" stroke-width="3" paint-order="stroke">45</text>
<circle cx="963.2" cy="509.8" r="15.5" fill="white" fill-opacity="0.84"/>
<circle cx="963.2" cy="509.8" r="12.5" fill="#7A3CE8" fill-opacity="0.66" stroke="#111" stroke-width="2.5"/>
<text x="963.2" y="516.8" text-anchor="middle" font-family="Arial, Helvetica, sans-serif" font-size="21" font-weight="800" fill="white" stroke="#111" stroke-width="3" paint-order="stroke">46</text>
<circle cx="1182.7" cy="510.2" r="15.2" fill="white" fill-opacity="0.84"/>
<circle cx="1182.7" cy="510.2" r="12.2" fill="#7A3CE8" fill-opacity="0.66" stroke="#111" stroke-width="2.5"/>
<text x="1182.7" y="517.2" text-anchor="middle" font-family="Arial, Helvetica, sans-serif" font-size="21" font-weight="800" fill="white" stroke="#111" stroke-width="3" paint-order="stroke">47</text>
<circle cx="1288.9" cy="419.1" r="11.8" fill="white" fill-opacity="0.84"/>
<circle cx="1288.9" cy="419.1" r="8.8" fill="#7A3CE8" fill-opacity="0.66" stroke="#111" stroke-width="2.5"/>
<text x="1288.9" y="426.1" text-anchor="middle" font-family="Arial, Helvetica, sans-serif" font-size="21" font-weight="800" fill="white" stroke="#111" stroke-width="3" paint-order="stroke">48</text>
<circle cx="1243.1" cy="513.6" r="14.3" fill="white" fill-opacity="0.84"/>
<circle cx="1243.1" cy="513.6" r="11.3" fill="#7A3CE8" fill-opacity="0.66" stroke="#111" stroke-width="2.5"/>
<text x="1243.1" y="520.6" text-anchor="middle" font-family="Arial, Helvetica, sans-serif" font-size="21" font-weight="800" fill="white" stroke="#111" stroke-width="3" paint-order="stroke">49</text>
<circle cx="1231.9" cy="471.7" r="20.8" fill="white" fill-opacity="0.84"/>
<circle cx="1231.9" cy="471.7" r="17.8" fill="#7A3CE8" fill-opacity="0.66" stroke="#111" stroke-width="2.5"/>
<text x="1231.9" y="478.7" text-anchor="middle" font-family="Arial, Helvetica, sans-serif" font-size="21" font-weight="800" fill="white" stroke="#111" stroke-width="3" paint-order="stroke">50</text>
<circle cx="726.5" cy="602.0" r="17.9" fill="white" fill-opacity="0.84"/>
<circle cx="726.5" cy="602.0" r="14.9" fill="#7A3CE8" fill-opacity="0.66" stroke="#111" stroke-width="2.5"/>
<text x="726.5" y="609.0" text-anchor="middle" font-family="Arial, Helvetica, sans-serif" font-size="21" font-weight="800" fill="white" stroke="#111" stroke-width="3" paint-order="stroke">51</text>
<circle cx="780.6" cy="571.6" r="18.4" fill="white" fill-opacity="0.84"/>
<circle cx="780.6" cy="571.6" r="15.4" fill="#7A3CE8" fill-opacity="0.66" stroke="#111" stroke-width="2.5"/>
<text x="780.6" y="578.6" text-anchor="middle" font-family="Arial, Helvetica, sans-serif" font-size="21" font-weight="800" fill="white" stroke="#111" stroke-width="3" paint-order="stroke">52</text>
<circle cx="713.4" cy="573.4" r="19.4" fill="white" fill-opacity="0.84"/>
<circle cx="713.4" cy="573.4" r="16.4" fill="#7A3CE8" fill-opacity="0.66" stroke="#111" stroke-width="2.5"/>
<text x="713.4" y="580.4" text-anchor="middle" font-family="Arial, Helvetica, sans-serif" font-size="21" font-weight="800" fill="white" stroke="#111" stroke-width="3" paint-order="stroke">53</text>
<circle cx="788.0" cy="513.1" r="21.1" fill="white" fill-opacity="0.84"/>
<circle cx="788.0" cy="513.1" r="18.1" fill="#7A3CE8" fill-opacity="0.66" stroke="#111" stroke-width="2.5"/>
<text x="788.0" y="520.1" text-anchor="middle" font-family="Arial, Helvetica, sans-serif" font-size="21" font-weight="800" fill="white" stroke="#111" stroke-width="3" paint-order="stroke">54</text>
<circle cx="1167.7" cy="451.7" r="17.8" fill="white" fill-opacity="0.84"/>
<circle cx="1167.7" cy="451.7" r="14.8" fill="#7A3CE8" fill-opacity="0.66" stroke="#111" stroke-width="2.5"/>
<text x="1167.7" y="458.7" text-anchor="middle" font-family="Arial, Helvetica, sans-serif" font-size="21" font-weight="800" fill="white" stroke="#111" stroke-width="3" paint-order="stroke">55</text>
<circle cx="1130.7" cy="428.8" r="14.8" fill="white" fill-opacity="0.84"/>
<circle cx="1130.7" cy="428.8" r="11.8" fill="#7A3CE8" fill-opacity="0.66" stroke="#111" stroke-width="2.5"/>
<text x="1130.7" y="435.8" text-anchor="middle" font-family="Arial, Helvetica, sans-serif" font-size="21" font-weight="800" fill="white" stroke="#111" stroke-width="3" paint-order="stroke">56</text>
<circle cx="1023.7" cy="513.5" r="17.2" fill="white" fill-opacity="0.84"/>
<circle cx="1023.7" cy="513.5" r="14.2" fill="#7A3CE8" fill-opacity="0.66" stroke="#111" stroke-width="2.5"/>
<text x="1023.7" y="520.5" text-anchor="middle" font-family="Arial, Helvetica, sans-serif" font-size="21" font-weight="800" fill="white" stroke="#111" stroke-width="3" paint-order="stroke">57</text>
<circle cx="996.4" cy="515.5" r="17.9" fill="white" fill-opacity="0.84"/>
<circle cx="996.4" cy="515.5" r="14.9" fill="#7A3CE8" fill-opacity="0.66" stroke="#111" stroke-width="2.5"/>
<text x="996.4" y="522.5" text-anchor="middle" font-family="Arial, Helvetica, sans-serif" font-size="21" font-weight="800" fill="white" stroke="#111" stroke-width="3" paint-order="stroke">58</text>
<circle cx="1136.4" cy="465.4" r="18.9" fill="white" fill-opacity="0.84"/>
<circle cx="1136.4" cy="465.4" r="15.9" fill="#7A3CE8" fill-opacity="0.66" stroke="#111" stroke-width="2.5"/>
<text x="1136.4" y="472.4" text-anchor="middle" font-family="Arial, Helvetica, sans-serif" font-size="21" font-weight="800" fill="white" stroke="#111" stroke-width="3" paint-order="stroke">59</text>
<circle cx="711.1" cy="564.0" r="17.2" fill="white" fill-opacity="0.84"/>
<circle cx="711.1" cy="564.0" r="14.2" fill="#7A3CE8" fill-opacity="0.66" stroke="#111" stroke-width="2.5"/>
<text x="711.1" y="571.0" text-anchor="middle" font-family="Arial, Helvetica, sans-serif" font-size="21" font-weight="800" fill="white" stroke="#111" stroke-width="3" paint-order="stroke">60</text>
<circle cx="771.6" cy="568.9" r="18.2" fill="white" fill-opacity="0.84"/>
<circle cx="771.6" cy="568.9" r="15.2" fill="#7A3CE8" fill-opacity="0.66" stroke="#111" stroke-width="2.5"/>
<text x="771.6" y="575.9" text-anchor="middle" font-family="Arial, Helvetica, sans-serif" font-size="21" font-weight="800" fill="white" stroke="#111" stroke-width="3" paint-order="stroke">61</text>
<circle cx="666.6" cy="543.6" r="16.1" fill="white" fill-opacity="0.84"/>
<circle cx="666.6" cy="543.6" r="13.1" fill="#7A3CE8" fill-opacity="0.66" stroke="#111" stroke-width="2.5"/>
<text x="666.6" y="550.6" text-anchor="middle" font-family="Arial, Helvetica, sans-serif" font-size="21" font-weight="800" fill="white" stroke="#111" stroke-width="3" paint-order="stroke">62</text>
<circle cx="786.0" cy="548.4" r="15.7" fill="white" fill-opacity="0.84"/>
<circle cx="786.0" cy="548.4" r="12.7" fill="#7A3CE8" fill-opacity="0.66" stroke="#111" stroke-width="2.5"/>
<text x="786.0" y="555.4" text-anchor="middle" font-family="Arial, Helvetica, sans-serif" font-size="21" font-weight="800" fill="white" stroke="#111" stroke-width="3" paint-order="stroke">63</text>
<circle cx="714.4" cy="538.4" r="16.5" fill="white" fill-opacity="0.84"/>
<circle cx="714.4" cy="538.4" r="13.5" fill="#7A3CE8" fill-opacity="0.66" stroke="#111" stroke-width="2.5"/>
<text x="714.4" y="545.4" text-anchor="middle" font-family="Arial, Helvetica, sans-serif" font-size="21" font-weight="800" fill="white" stroke="#111" stroke-width="3" paint-order="stroke">64</text>
<circle cx="734.9" cy="501.6" r="19.0" fill="white" fill-opacity="0.84"/>
<circle cx="734.9" cy="501.6" r="16.0" fill="#7A3CE8" fill-opacity="0.66" stroke="#111" stroke-width="2.5"/>
<text x="734.9" y="508.6" text-anchor="middle" font-family="Arial, Helvetica, sans-serif" font-size="21" font-weight="800" fill="white" stroke="#111" stroke-width="3" paint-order="stroke">65</text>
<circle cx="737.8" cy="562.4" r="20.2" fill="white" fill-opacity="0.84"/>
<circle cx="737.8" cy="562.4" r="17.2" fill="#7A3CE8" fill-opacity="0.66" stroke="#111" stroke-width="2.5"/>
<text x="737.8" y="569.4" text-anchor="middle" font-family="Arial, Helvetica, sans-serif" font-size="21" font-weight="800" fill="white" stroke="#111" stroke-width="3" paint-order="stroke">66</text>
<rect x="16" y="1094" width="1120" height="168" rx="8" fill="white" fill-opacity="0.92" stroke="#111" stroke-opacity="0.22"/>
<text x="36.0" y="1128.0" font-family="Arial, Helvetica, sans-serif" font-size="24" font-weight="600" fill="#111">K22 / k22.asc block 19 | dress-2-1-l.png | RT NA ms | 66 fixations</text>
<text x="36.0" y="1159.0" font-family="Arial, Helvetica, sans-serif" font-size="24" font-weight="600" fill="#111">numbers show fixation order; dot size shows fixation duration</text>
<circle cx="42" cy="1198" r="11" fill="#005DFF" fill-opacity="0.64" stroke="#111" stroke-width="2"/>
<text x="62.0" y="1206.0" font-family="Arial, Helvetica, sans-serif" font-size="22" font-weight="500" fill="#111">blue: before speech onset</text>
<circle cx="42" cy="1232" r="11" fill="#FF8A00" fill-opacity="0.64" stroke="#111" stroke-width="2"/>
<text x="62.0" y="1240.0" font-family="Arial, Helvetica, sans-serif" font-size="22" font-weight="500" fill="#111">orange: first 2000 ms after onset</text>
</svg>
