<svg xmlns="http://www.w3.org/2000/svg" width="1920" height="1320" viewBox="0 0 1920 1320">
<image href="https://raw.githubusercontent.com/mkurg/koryak/main/stimuli/Koryak%20stimuli%20animate%20inanimate/cover-2-2-r.png" x="0" y="0" width="1920" height="1080" preserveAspectRatio="none"/>
<rect x="0" y="0" width="1920" height="1080" fill="none" stroke="#111" stroke-width="2"/>
<rect x="0" y="1080" width="1920" height="240" fill="#f7f7f7"/>
<rect x="970.0" y="100.0" width="850" height="850" fill="none" stroke="#00B8D9" stroke-width="6" stroke-dasharray="18 12"/>
<rect x="982.0" y="62.0" width="102.0" height="38" rx="6" fill="white" fill-opacity="0.86" stroke="#00B8D9" stroke-width="3"/>
<text x="992.0" y="88.0" font-family="Arial, Helvetica, sans-serif" font-size="24" font-weight="700" fill="#111">AGENT</text>
<rect x="40.0" y="100.0" width="850" height="850" fill="none" stroke="#FF3B8A" stroke-width="6" stroke-dasharray="18 12"/>
<rect x="52.0" y="62.0" width="134.0" height="38" rx="6" fill="white" fill-opacity="0.86" stroke="#FF3B8A" stroke-width="3"/>
<text x="62.0" y="88.0" font-family="Arial, Helvetica, sans-serif" font-size="24" font-weight="700" fill="#111">PATIENT</text>
<polyline points="948.4,565.6 1264.8,424.8 1207.0,508.5 1440.3,435.7 1410.0,495.3 1243.1,505.4 717.5,684.9 1225.6,772.9 1181.7,747.1 1368.1,627.5 1125.9,633.2 1373.0,524.9 1136.1,605.0 1092.6,659.4 1252.4,611.2 775.3,656.3 1223.9,510.9 1162.8,545.4 1335.9,555.0 1296.8,362.2 1462.5,314.0 1225.6,378.4 1285.0,433.9 1481.2,374.6 1388.4,409.6 1272.9,424.5 1275.8,487.1 1472.2,431.8 1316.8,446.7 1240.4,451.1 1475.4,429.8 1232.7,428.4 1279.4,474.6 1234.8,408.1 1452.4,386.3 861.9,558.9 1180.2,556.2 1234.1,578.3 1268.1,632.3" fill="none" stroke="#111" stroke-width="4" stroke-opacity="0.36" stroke-linejoin="round"/>
<circle cx="948.4" cy="565.6" r="16.7" fill="white" fill-opacity="0.84"/>
<circle cx="948.4" cy="565.6" r="13.7" fill="#005DFF" fill-opacity="0.66" stroke="#111" stroke-width="2.5"/>
<text x="948.4" y="572.6" text-anchor="middle" font-family="Arial, Helvetica, sans-serif" font-size="21" font-weight="800" fill="white" stroke="#111" stroke-width="3" paint-order="stroke">1</text>
<circle cx="1264.8" cy="424.8" r="18.1" fill="white" fill-opacity="0.84"/>
<circle cx="1264.8" cy="424.8" r="15.1" fill="#005DFF" fill-opacity="0.66" stroke="#111" stroke-width="2.5"/>
<text x="1264.8" y="431.8" text-anchor="middle" font-family="Arial, Helvetica, sans-serif" font-size="21" font-weight="800" fill="white" stroke="#111" stroke-width="3" paint-order="stroke">2</text>
<circle cx="1207.0" cy="508.5" r="17.7" fill="white" fill-opacity="0.84"/>
<circle cx="1207.0" cy="508.5" r="14.7" fill="#005DFF" fill-opacity="0.66" stroke="#111" stroke-width="2.5"/>
<text x="1207.0" y="515.5" text-anchor="middle" font-family="Arial, Helvetica, sans-serif" font-size="21" font-weight="800" fill="white" stroke="#111" stroke-width="3" paint-order="stroke">3</text>
<circle cx="1440.3" cy="435.7" r="16.5" fill="white" fill-opacity="0.84"/>
<circle cx="1440.3" cy="435.7" r="13.5" fill="#005DFF" fill-opacity="0.66" stroke="#111" stroke-width="2.5"/>
<text x="1440.3" y="442.7" text-anchor="middle" font-family="Arial, Helvetica, sans-serif" font-size="21" font-weight="800" fill="white" stroke="#111" stroke-width="3" paint-order="stroke">4</text>
<circle cx="1410.0" cy="495.3" r="17.0" fill="white" fill-opacity="0.84"/>
<circle cx="1410.0" cy="495.3" r="14.0" fill="#005DFF" fill-opacity="0.66" stroke="#111" stroke-width="2.5"/>
<text x="1410.0" y="502.3" text-anchor="middle" font-family="Arial, Helvetica, sans-serif" font-size="21" font-weight="800" fill="white" stroke="#111" stroke-width="3" paint-order="stroke">5</text>
<circle cx="1243.1" cy="505.4" r="17.1" fill="white" fill-opacity="0.84"/>
<circle cx="1243.1" cy="505.4" r="14.1" fill="#005DFF" fill-opacity="0.66" stroke="#111" stroke-width="2.5"/>
<text x="1243.1" y="512.4" text-anchor="middle" font-family="Arial, Helvetica, sans-serif" font-size="21" font-weight="800" fill="white" stroke="#111" stroke-width="3" paint-order="stroke">6</text>
<circle cx="717.5" cy="684.9" r="17.6" fill="white" fill-opacity="0.84"/>
<circle cx="717.5" cy="684.9" r="14.6" fill="#005DFF" fill-opacity="0.66" stroke="#111" stroke-width="2.5"/>
<text x="717.5" y="691.9" text-anchor="middle" font-family="Arial, Helvetica, sans-serif" font-size="21" font-weight="800" fill="white" stroke="#111" stroke-width="3" paint-order="stroke">7</text>
<circle cx="1225.6" cy="772.9" r="10.9" fill="white" fill-opacity="0.84"/>
<circle cx="1225.6" cy="772.9" r="7.9" fill="#005DFF" fill-opacity="0.66" stroke="#111" stroke-width="2.5"/>
<text x="1225.6" y="779.9" text-anchor="middle" font-family="Arial, Helvetica, sans-serif" font-size="21" font-weight="800" fill="white" stroke="#111" stroke-width="3" paint-order="stroke">8</text>
<circle cx="1181.7" cy="747.1" r="18.0" fill="white" fill-opacity="0.84"/>
<circle cx="1181.7" cy="747.1" r="15.0" fill="#005DFF" fill-opacity="0.66" stroke="#111" stroke-width="2.5"/>
<text x="1181.7" y="754.1" text-anchor="middle" font-family="Arial, Helvetica, sans-serif" font-size="21" font-weight="800" fill="white" stroke="#111" stroke-width="3" paint-order="stroke">9</text>
<circle cx="1368.1" cy="627.5" r="19.5" fill="white" fill-opacity="0.84"/>
<circle cx="1368.1" cy="627.5" r="16.5" fill="#005DFF" fill-opacity="0.66" stroke="#111" stroke-width="2.5"/>
<text x="1368.1" y="634.5" text-anchor="middle" font-family="Arial, Helvetica, sans-serif" font-size="21" font-weight="800" fill="white" stroke="#111" stroke-width="3" paint-order="stroke">10</text>
<circle cx="1125.9" cy="633.2" r="20.0" fill="white" fill-opacity="0.84"/>
<circle cx="1125.9" cy="633.2" r="17.0" fill="#005DFF" fill-opacity="0.66" stroke="#111" stroke-width="2.5"/>
<text x="1125.9" y="640.2" text-anchor="middle" font-family="Arial, Helvetica, sans-serif" font-size="21" font-weight="800" fill="white" stroke="#111" stroke-width="3" paint-order="stroke">11</text>
<circle cx="1373.0" cy="524.9" r="20.7" fill="white" fill-opacity="0.84"/>
<circle cx="1373.0" cy="524.9" r="17.7" fill="#005DFF" fill-opacity="0.66" stroke="#111" stroke-width="2.5"/>
<text x="1373.0" y="531.9" text-anchor="middle" font-family="Arial, Helvetica, sans-serif" font-size="21" font-weight="800" fill="white" stroke="#111" stroke-width="3" paint-order="stroke">12</text>
<circle cx="1136.1" cy="605.0" r="13.8" fill="white" fill-opacity="0.84"/>
<circle cx="1136.1" cy="605.0" r="10.8" fill="#005DFF" fill-opacity="0.66" stroke="#111" stroke-width="2.5"/>
<text x="1136.1" y="612.0" text-anchor="middle" font-family="Arial, Helvetica, sans-serif" font-size="21" font-weight="800" fill="white" stroke="#111" stroke-width="3" paint-order="stroke">13</text>
<circle cx="1092.6" cy="659.4" r="20.0" fill="white" fill-opacity="0.84"/>
<circle cx="1092.6" cy="659.4" r="17.0" fill="#005DFF" fill-opacity="0.66" stroke="#111" stroke-width="2.5"/>
<text x="1092.6" y="666.4" text-anchor="middle" font-family="Arial, Helvetica, sans-serif" font-size="21" font-weight="800" fill="white" stroke="#111" stroke-width="3" paint-order="stroke">14</text>
<circle cx="1252.4" cy="611.2" r="17.9" fill="white" fill-opacity="0.84"/>
<circle cx="1252.4" cy="611.2" r="14.9" fill="#005DFF" fill-opacity="0.66" stroke="#111" stroke-width="2.5"/>
<text x="1252.4" y="618.2" text-anchor="middle" font-family="Arial, Helvetica, sans-serif" font-size="21" font-weight="800" fill="white" stroke="#111" stroke-width="3" paint-order="stroke">15</text>
<circle cx="775.3" cy="656.3" r="17.2" fill="white" fill-opacity="0.84"/>
<circle cx="775.3" cy="656.3" r="14.2" fill="#005DFF" fill-opacity="0.66" stroke="#111" stroke-width="2.5"/>
<text x="775.3" y="663.3" text-anchor="middle" font-family="Arial, Helvetica, sans-serif" font-size="21" font-weight="800" fill="white" stroke="#111" stroke-width="3" paint-order="stroke">16</text>
<circle cx="1223.9" cy="510.9" r="18.3" fill="white" fill-opacity="0.84"/>
<circle cx="1223.9" cy="510.9" r="15.3" fill="#005DFF" fill-opacity="0.66" stroke="#111" stroke-width="2.5"/>
<text x="1223.9" y="517.9" text-anchor="middle" font-family="Arial, Helvetica, sans-serif" font-size="21" font-weight="800" fill="white" stroke="#111" stroke-width="3" paint-order="stroke">17</text>
<circle cx="1162.8" cy="545.4" r="20.8" fill="white" fill-opacity="0.84"/>
<circle cx="1162.8" cy="545.4" r="17.8" fill="#005DFF" fill-opacity="0.66" stroke="#111" stroke-width="2.5"/>
<text x="1162.8" y="552.4" text-anchor="middle" font-family="Arial, Helvetica, sans-serif" font-size="21" font-weight="800" fill="white" stroke="#111" stroke-width="3" paint-order="stroke">18</text>
<circle cx="1335.9" cy="555.0" r="18.2" fill="white" fill-opacity="0.84"/>
<circle cx="1335.9" cy="555.0" r="15.2" fill="#005DFF" fill-opacity="0.66" stroke="#111" stroke-width="2.5"/>
<text x="1335.9" y="562.0" text-anchor="middle" font-family="Arial, Helvetica, sans-serif" font-size="21" font-weight="800" fill="white" stroke="#111" stroke-width="3" paint-order="stroke">19</text>
<circle cx="1296.8" cy="362.2" r="17.0" fill="white" fill-opacity="0.84"/>
<circle cx="1296.8" cy="362.2" r="14.0" fill="#005DFF" fill-opacity="0.66" stroke="#111" stroke-width="2.5"/>
<text x="1296.8" y="369.2" text-anchor="middle" font-family="Arial, Helvetica, sans-serif" font-size="21" font-weight="800" fill="white" stroke="#111" stroke-width="3" paint-order="stroke">20</text>
<circle cx="1462.5" cy="314.0" r="17.3" fill="white" fill-opacity="0.84"/>
<circle cx="1462.5" cy="314.0" r="14.3" fill="#005DFF" fill-opacity="0.66" stroke="#111" stroke-width="2.5"/>
<text x="1462.5" y="321.0" text-anchor="middle" font-family="Arial, Helvetica, sans-serif" font-size="21" font-weight="800" fill="white" stroke="#111" stroke-width="3" paint-order="stroke">21</text>
<circle cx="1225.6" cy="378.4" r="14.3" fill="white" fill-opacity="0.84"/>
<circle cx="1225.6" cy="378.4" r="11.3" fill="#005DFF" fill-opacity="0.66" stroke="#111" stroke-width="2.5"/>
<text x="1225.6" y="385.4" text-anchor="middle" font-family="Arial, Helvetica, sans-serif" font-size="21" font-weight="800" fill="white" stroke="#111" stroke-width="3" paint-order="stroke">22</text>
<circle cx="1285.0" cy="433.9" r="16.8" fill="white" fill-opacity="0.84"/>
<circle cx="1285.0" cy="433.9" r="13.8" fill="#005DFF" fill-opacity="0.66" stroke="#111" stroke-width="2.5"/>
<text x="1285.0" y="440.9" text-anchor="middle" font-family="Arial, Helvetica, sans-serif" font-size="21" font-weight="800" fill="white" stroke="#111" stroke-width="3" paint-order="stroke">23</text>
<circle cx="1481.2" cy="374.6" r="17.8" fill="white" fill-opacity="0.84"/>
<circle cx="1481.2" cy="374.6" r="14.8" fill="#005DFF" fill-opacity="0.66" stroke="#111" stroke-width="2.5"/>
<text x="1481.2" y="381.6" text-anchor="middle" font-family="Arial, Helvetica, sans-serif" font-size="21" font-weight="800" fill="white" stroke="#111" stroke-width="3" paint-order="stroke">24</text>
<circle cx="1388.4" cy="409.6" r="15.6" fill="white" fill-opacity="0.84"/>
<circle cx="1388.4" cy="409.6" r="12.6" fill="#005DFF" fill-opacity="0.66" stroke="#111" stroke-width="2.5"/>
<text x="1388.4" y="416.6" text-anchor="middle" font-family="Arial, Helvetica, sans-serif" font-size="21" font-weight="800" fill="white" stroke="#111" stroke-width="3" paint-order="stroke">25</text>
<circle cx="1272.9" cy="424.5" r="15.9" fill="white" fill-opacity="0.84"/>
<circle cx="1272.9" cy="424.5" r="12.9" fill="#005DFF" fill-opacity="0.66" stroke="#111" stroke-width="2.5"/>
<text x="1272.9" y="431.5" text-anchor="middle" font-family="Arial, Helvetica, sans-serif" font-size="21" font-weight="800" fill="white" stroke="#111" stroke-width="3" paint-order="stroke">26</text>
<circle cx="1275.8" cy="487.1" r="17.4" fill="white" fill-opacity="0.84"/>
<circle cx="1275.8" cy="487.1" r="14.4" fill="#005DFF" fill-opacity="0.66" stroke="#111" stroke-width="2.5"/>
<text x="1275.8" y="494.1" text-anchor="middle" font-family="Arial, Helvetica, sans-serif" font-size="21" font-weight="800" fill="white" stroke="#111" stroke-width="3" paint-order="stroke">27</text>
<circle cx="1472.2" cy="431.8" r="19.2" fill="white" fill-opacity="0.84"/>
<circle cx="1472.2" cy="431.8" r="16.2" fill="#005DFF" fill-opacity="0.66" stroke="#111" stroke-width="2.5"/>
<text x="1472.2" y="438.8" text-anchor="middle" font-family="Arial, Helvetica, sans-serif" font-size="21" font-weight="800" fill="white" stroke="#111" stroke-width="3" paint-order="stroke">28</text>
<circle cx="1316.8" cy="446.7" r="17.7" fill="white" fill-opacity="0.84"/>
<circle cx="1316.8" cy="446.7" r="14.7" fill="#005DFF" fill-opacity="0.66" stroke="#111" stroke-width="2.5"/>
<text x="1316.8" y="453.7" text-anchor="middle" font-family="Arial, Helvetica, sans-serif" font-size="21" font-weight="800" fill="white" stroke="#111" stroke-width="3" paint-order="stroke">29</text>
<circle cx="1240.4" cy="451.1" r="16.7" fill="white" fill-opacity="0.84"/>
<circle cx="1240.4" cy="451.1" r="13.7" fill="#005DFF" fill-opacity="0.66" stroke="#111" stroke-width="2.5"/>
<text x="1240.4" y="458.1" text-anchor="middle" font-family="Arial, Helvetica, sans-serif" font-size="21" font-weight="800" fill="white" stroke="#111" stroke-width="3" paint-order="stroke">30</text>
<circle cx="1475.4" cy="429.8" r="18.1" fill="white" fill-opacity="0.84"/>
<circle cx="1475.4" cy="429.8" r="15.1" fill="#005DFF" fill-opacity="0.66" stroke="#111" stroke-width="2.5"/>
<text x="1475.4" y="436.8" text-anchor="middle" font-family="Arial, Helvetica, sans-serif" font-size="21" font-weight="800" fill="white" stroke="#111" stroke-width="3" paint-order="stroke">31</text>
<circle cx="1232.7" cy="428.4" r="16.4" fill="white" fill-opacity="0.84"/>
<circle cx="1232.7" cy="428.4" r="13.4" fill="#005DFF" fill-opacity="0.66" stroke="#111" stroke-width="2.5"/>
<text x="1232.7" y="435.4" text-anchor="middle" font-family="Arial, Helvetica, sans-serif" font-size="21" font-weight="800" fill="white" stroke="#111" stroke-width="3" paint-order="stroke">32</text>
<circle cx="1279.4" cy="474.6" r="18.9" fill="white" fill-opacity="0.84"/>
<circle cx="1279.4" cy="474.6" r="15.9" fill="#005DFF" fill-opacity="0.66" stroke="#111" stroke-width="2.5"/>
<text x="1279.4" y="481.6" text-anchor="middle" font-family="Arial, Helvetica, sans-serif" font-size="21" font-weight="800" fill="white" stroke="#111" stroke-width="3" paint-order="stroke">33</text>
<circle cx="1234.8" cy="408.1" r="15.5" fill="white" fill-opacity="0.84"/>
<circle cx="1234.8" cy="408.1" r="12.5" fill="#005DFF" fill-opacity="0.66" stroke="#111" stroke-width="2.5"/>
<text x="1234.8" y="415.1" text-anchor="middle" font-family="Arial, Helvetica, sans-serif" font-size="21" font-weight="800" fill="white" stroke="#111" stroke-width="3" paint-order="stroke">34</text>
<circle cx="1452.4" cy="386.3" r="18.1" fill="white" fill-opacity="0.84"/>
<circle cx="1452.4" cy="386.3" r="15.1" fill="#FF8A00" fill-opacity="0.66" stroke="#111" stroke-width="2.5"/>
<text x="1452.4" y="393.3" text-anchor="middle" font-family="Arial, Helvetica, sans-serif" font-size="21" font-weight="800" fill="white" stroke="#111" stroke-width="3" paint-order="stroke">35</text>
<circle cx="861.9" cy="558.9" r="16.6" fill="white" fill-opacity="0.84"/>
<circle cx="861.9" cy="558.9" r="13.6" fill="#FF8A00" fill-opacity="0.66" stroke="#111" stroke-width="2.5"/>
<text x="861.9" y="565.9" text-anchor="middle" font-family="Arial, Helvetica, sans-serif" font-size="21" font-weight="800" fill="white" stroke="#111" stroke-width="3" paint-order="stroke">36</text>
<circle cx="1180.2" cy="556.2" r="14.9" fill="white" fill-opacity="0.84"/>
<circle cx="1180.2" cy="556.2" r="11.9" fill="#FF8A00" fill-opacity="0.66" stroke="#111" stroke-width="2.5"/>
<text x="1180.2" y="563.2" text-anchor="middle" font-family="Arial, Helvetica, sans-serif" font-size="21" font-weight="800" fill="white" stroke="#111" stroke-width="3" paint-order="stroke">37</text>
<circle cx="1234.1" cy="578.3" r="21.1" fill="white" fill-opacity="0.84"/>
<circle cx="1234.1" cy="578.3" r="18.1" fill="#FF8A00" fill-opacity="0.66" stroke="#111" stroke-width="2.5"/>
<text x="1234.1" y="585.3" text-anchor="middle" font-family="Arial, Helvetica, sans-serif" font-size="21" font-weight="800" fill="white" stroke="#111" stroke-width="3" paint-order="stroke">38</text>
<circle cx="1268.1" cy="632.3" r="18.3" fill="white" fill-opacity="0.84"/>
<circle cx="1268.1" cy="632.3" r="15.3" fill="#FF8A00" fill-opacity="0.66" stroke="#111" stroke-width="2.5"/>
<text x="1268.1" y="639.3" text-anchor="middle" font-family="Arial, Helvetica, sans-serif" font-size="21" font-weight="800" fill="white" stroke="#111" stroke-width="3" paint-order="stroke">39</text>
<rect x="16" y="1094" width="1120" height="168" rx="8" fill="white" fill-opacity="0.92" stroke="#111" stroke-opacity="0.22"/>
<text x="36.0" y="1128.0" font-family="Arial, Helvetica, sans-serif" font-size="24" font-weight="600" fill="#111">K15 / k15_2.asc block 17 | cover-2-2-r.png | RT 10736 ms | 39 fixations</text>
<text x="36.0" y="1159.0" font-family="Arial, Helvetica, sans-serif" font-size="24" font-weight="600" fill="#111">numbers show fixation order; dot size shows fixation duration</text>
<circle cx="42" cy="1198" r="11" fill="#005DFF" fill-opacity="0.64" stroke="#111" stroke-width="2"/>
<text x="62.0" y="1206.0" font-family="Arial, Helvetica, sans-serif" font-size="22" font-weight="500" fill="#111">blue: before speech onset</text>
<circle cx="42" cy="1232" r="11" fill="#FF8A00" fill-opacity="0.64" stroke="#111" stroke-width="2"/>
<text x="62.0" y="1240.0" font-family="Arial, Helvetica, sans-serif" font-size="22" font-weight="500" fill="#111">orange: first 2000 ms after onset</text>
</svg>
