<svg xmlns="http://www.w3.org/2000/svg" width="3200" height="760" viewBox="0 0 3200 760">
<rect width="100%" height="100%" fill="white"/>
<style>
text { font-family: Arial, Helvetica, sans-serif; fill: #222; }
.page-title { font-size: 32px; font-weight: 700; }
.subtitle { font-size: 17px; fill: #555; }
.column-title { font-size: 18px; font-weight: 700; }
.axis { stroke: #222; stroke-width: 1; }
.grid { stroke: #dddddd; stroke-width: 1; }
.tick { font-size: 12px; fill: #444; }
.axis-label { font-size: 15px; fill: #222; }
.legend { font-size: 17px; fill: #222; }
.nlabel { font-size: 12px; fill: #555; }
</style>
<text class="page-title" x="1600.0" y="48" text-anchor="middle">All direct AVP sentences across planning windows</text>
<text class="subtitle" x="1600.0" y="78" text-anchor="middle">Behavioral clean set: n=496 of 879; usable gaze trials plotted: n=470. RT &lt; 6000 ms, fluent AVP trials.</text>
<line x1="2760" x2="2802" y1="106" y2="106" stroke="#CC3311" stroke-width="4"/>
<text class="legend" x="2814" y="112">Agent</text>
<line x1="2905" x2="2947" y1="106" y2="106" stroke="#0077BB" stroke-width="4"/>
<text class="legend" x="2959" y="112">Patient</text>
<text class="column-title" x="379.50" y="136" text-anchor="middle">Early event apprehension</text>
<rect x="82.00" y="164.00" width="595.00" height="504.00" fill="white"/>
<line class="grid" x1="140.00" x2="659.00" y1="622.00" y2="622.00"/>
<text class="tick" x="131.00" y="626.00" text-anchor="end">0</text>
<line class="grid" x1="140.00" x2="659.00" y1="512.00" y2="512.00"/>
<text class="tick" x="131.00" y="516.00" text-anchor="end">0.25</text>
<line class="grid" x1="140.00" x2="659.00" y1="402.00" y2="402.00"/>
<text class="tick" x="131.00" y="406.00" text-anchor="end">0.5</text>
<line class="grid" x1="140.00" x2="659.00" y1="292.00" y2="292.00"/>
<text class="tick" x="131.00" y="296.00" text-anchor="end">0.75</text>
<line class="grid" x1="140.00" x2="659.00" y1="182.00" y2="182.00"/>
<text class="tick" x="131.00" y="186.00" text-anchor="end">1</text>
<line class="grid" x1="140.00" x2="140.00" y1="182.00" y2="622.00"/>
<text class="tick" x="140.00" y="644.00" text-anchor="middle">0</text>
<line class="grid" x1="399.50" x2="399.50" y1="182.00" y2="622.00"/>
<text class="tick" x="399.50" y="644.00" text-anchor="middle">0.5</text>
<line class="grid" x1="659.00" x2="659.00" y1="182.00" y2="622.00"/>
<text class="tick" x="659.00" y="644.00" text-anchor="middle">1</text>
<line class="axis" x1="140.00" x2="659.00" y1="622.00" y2="622.00"/>
<line class="axis" x1="140.00" x2="140.00" y1="182.00" y2="622.00"/>
<polygon points="140.00,530.58 191.90,491.76 243.80,412.89 295.70,372.32 347.60,356.57 399.50,341.75 451.40,338.49 503.30,335.25 555.20,335.77 607.10,333.60 659.00,340.25 659.00,378.75 607.10,371.69 555.20,373.75 503.30,373.41 451.40,376.83 399.50,380.25 347.60,396.20 295.70,411.87 243.80,450.50 191.90,523.06 140.00,560.11" fill="#CC3311" opacity="0.11"/>
<path d="M140.00,545.35 L191.90,507.41 L243.80,431.70 L295.70,392.10 L347.60,376.39 L399.50,361.00 L451.40,357.66 L503.30,354.33 L555.20,354.76 L607.10,352.65 L659.00,359.50" fill="none" stroke="#CC3311" stroke-width="3" stroke-linejoin="round" stroke-linecap="round"/>
<polygon points="140.00,542.98 191.90,538.73 243.80,490.56 295.70,451.09 347.60,438.47 399.50,443.22 451.40,447.08 503.30,453.18 555.20,463.44 607.10,478.76 659.00,484.19 659.00,519.55 607.10,514.54 555.20,499.97 503.30,490.38 451.40,484.42 399.50,481.25 347.60,476.71 295.70,488.50 243.80,523.52 191.90,564.10 140.00,570.26" fill="#0077BB" opacity="0.11"/>
<path d="M140.00,556.62 L191.90,551.41 L243.80,507.04 L295.70,469.80 L347.60,457.59 L399.50,462.23 L451.40,465.75 L503.30,471.78 L555.20,481.71 L607.10,496.65 L659.00,501.87" fill="none" stroke="#0077BB" stroke-width="3" stroke-linejoin="round" stroke-linecap="round"/>
<text class="nlabel" x="655.00" y="197.00" text-anchor="end">gaze n=470</text>
<text class="column-title" x="996.50" y="136" text-anchor="middle">Linguistic encoding I</text>
<rect x="699.00" y="164.00" width="595.00" height="504.00" fill="white"/>
<line class="grid" x1="727.00" x2="1276.00" y1="622.00" y2="622.00"/>
<line class="grid" x1="727.00" x2="1276.00" y1="512.00" y2="512.00"/>
<line class="grid" x1="727.00" x2="1276.00" y1="402.00" y2="402.00"/>
<line class="grid" x1="727.00" x2="1276.00" y1="292.00" y2="292.00"/>
<line class="grid" x1="727.00" x2="1276.00" y1="182.00" y2="182.00"/>
<line class="grid" x1="727.00" x2="727.00" y1="182.00" y2="622.00"/>
<text class="tick" x="727.00" y="644.00" text-anchor="middle">0</text>
<line class="grid" x1="1001.50" x2="1001.50" y1="182.00" y2="622.00"/>
<text class="tick" x="1001.50" y="644.00" text-anchor="middle">0.5</text>
<line class="grid" x1="1276.00" x2="1276.00" y1="182.00" y2="622.00"/>
<text class="tick" x="1276.00" y="644.00" text-anchor="middle">1</text>
<line class="axis" x1="727.00" x2="1276.00" y1="622.00" y2="622.00"/>
<line class="axis" x1="727.00" x2="727.00" y1="182.00" y2="622.00"/>
<polygon points="727.00,340.23 754.45,360.89 781.90,344.11 809.35,324.59 836.80,329.97 864.25,325.73 891.70,335.01 919.15,323.61 946.60,324.68 974.05,314.44 1001.50,320.73 1028.95,303.55 1056.40,291.03 1083.85,288.48 1111.30,290.62 1138.75,285.40 1166.20,278.11 1193.65,283.38 1221.10,285.76 1248.55,283.14 1276.00,296.48 1276.00,332.48 1248.55,318.13 1221.10,320.89 1193.65,318.93 1166.20,312.01 1138.75,320.20 1111.30,325.65 1083.85,323.75 1056.40,326.04 1028.95,341.14 1001.50,357.84 974.05,352.00 946.60,362.12 919.15,360.83 891.70,373.83 864.25,362.60 836.80,368.93 809.35,361.24 781.90,382.84 754.45,416.09 727.00,378.76" fill="#CC3311" opacity="0.11"/>
<path d="M727.00,359.49 L754.45,388.49 L781.90,363.47 L809.35,342.92 L836.80,349.45 L864.25,344.17 L891.70,354.42 L919.15,342.22 L946.60,343.40 L974.05,333.22 L1001.50,339.29 L1028.95,322.34 L1056.40,308.54 L1083.85,306.11 L1111.30,308.13 L1138.75,302.80 L1166.20,295.06 L1193.65,301.16 L1221.10,303.33 L1248.55,300.63 L1276.00,314.48" fill="none" stroke="#CC3311" stroke-width="3" stroke-linejoin="round" stroke-linecap="round"/>
<polygon points="727.00,484.24 754.45,444.36 781.90,469.72 809.35,497.49 836.80,500.63 864.25,502.01 891.70,493.91 919.15,505.90 946.60,503.29 974.05,512.61 1001.50,519.07 1028.95,523.56 1056.40,531.45 1083.85,533.22 1111.30,537.09 1138.75,541.25 1166.20,550.83 1193.65,540.42 1221.10,536.04 1248.55,540.34 1276.00,532.83 1276.00,562.40 1248.55,569.11 1221.10,565.40 1193.65,569.40 1166.20,577.29 1138.75,569.20 1111.30,565.89 1083.85,562.67 1056.40,560.79 1028.95,555.28 1001.50,550.14 974.05,545.14 946.60,536.26 919.15,538.63 891.70,528.95 864.25,535.07 836.80,534.96 809.35,530.61 781.90,505.98 754.45,496.63 727.00,519.60" fill="#0077BB" opacity="0.11"/>
<path d="M727.00,501.92 L754.45,470.49 L781.90,487.85 L809.35,514.05 L836.80,517.80 L864.25,518.54 L891.70,511.43 L919.15,522.27 L946.60,519.77 L974.05,528.87 L1001.50,534.60 L1028.95,539.42 L1056.40,546.12 L1083.85,547.94 L1111.30,551.49 L1138.75,555.23 L1166.20,564.06 L1193.65,554.91 L1221.10,550.72 L1248.55,554.73 L1276.00,547.62" fill="none" stroke="#0077BB" stroke-width="3" stroke-linejoin="round" stroke-linecap="round"/>
<text class="nlabel" x="1272.00" y="197.00" text-anchor="end">gaze n=470</text>
<text class="column-title" x="1613.50" y="136" text-anchor="middle">Linguistic encoding II</text>
<rect x="1316.00" y="164.00" width="595.00" height="504.00" fill="white"/>
<line class="grid" x1="1344.00" x2="1893.00" y1="622.00" y2="622.00"/>
<line class="grid" x1="1344.00" x2="1893.00" y1="512.00" y2="512.00"/>
<line class="grid" x1="1344.00" x2="1893.00" y1="402.00" y2="402.00"/>
<line class="grid" x1="1344.00" x2="1893.00" y1="292.00" y2="292.00"/>
<line class="grid" x1="1344.00" x2="1893.00" y1="182.00" y2="182.00"/>
<line class="grid" x1="1344.00" x2="1344.00" y1="182.00" y2="622.00"/>
<text class="tick" x="1344.00" y="644.00" text-anchor="middle">0</text>
<line class="grid" x1="1618.50" x2="1618.50" y1="182.00" y2="622.00"/>
<text class="tick" x="1618.50" y="644.00" text-anchor="middle">0.5</text>
<line class="grid" x1="1893.00" x2="1893.00" y1="182.00" y2="622.00"/>
<text class="tick" x="1893.00" y="644.00" text-anchor="middle">1</text>
<line class="axis" x1="1344.00" x2="1893.00" y1="622.00" y2="622.00"/>
<line class="axis" x1="1344.00" x2="1344.00" y1="182.00" y2="622.00"/>
<polygon points="1344.00,281.34 1371.45,307.99 1398.90,285.44 1426.35,301.48 1453.80,292.83 1481.25,289.55 1508.70,281.55 1536.15,291.29 1563.60,299.66 1591.05,300.69 1618.50,300.81 1645.95,321.61 1673.40,311.07 1700.85,321.66 1728.30,316.38 1755.75,303.91 1783.20,311.19 1810.65,311.46 1838.10,312.58 1865.55,324.45 1893.00,336.35 1893.00,374.66 1865.55,362.02 1838.10,350.15 1810.65,348.92 1783.20,347.82 1755.75,339.96 1728.30,353.31 1700.85,358.99 1673.40,348.22 1645.95,360.26 1618.50,336.72 1591.05,337.34 1563.60,335.49 1536.15,326.29 1508.70,316.96 1481.25,323.70 1453.80,329.34 1426.35,337.46 1398.90,320.58 1371.45,361.98 1344.00,315.39" fill="#CC3311" opacity="0.11"/>
<path d="M1344.00,298.37 L1371.45,334.99 L1398.90,303.01 L1426.35,319.47 L1453.80,311.09 L1481.25,306.63 L1508.70,299.26 L1536.15,308.79 L1563.60,317.58 L1591.05,319.01 L1618.50,318.77 L1645.95,340.94 L1673.40,329.64 L1700.85,340.33 L1728.30,334.85 L1755.75,321.93 L1783.20,329.51 L1810.65,330.19 L1838.10,331.36 L1865.55,343.24 L1893.00,355.51" fill="none" stroke="#CC3311" stroke-width="3" stroke-linejoin="round" stroke-linecap="round"/>
<polygon points="1344.00,551.93 1371.45,519.96 1398.90,537.31 1426.35,527.70 1453.80,534.35 1481.25,533.28 1508.70,543.72 1536.15,544.87 1563.60,541.75 1591.05,531.23 1618.50,523.17 1645.95,517.89 1673.40,524.93 1700.85,513.17 1728.30,518.10 1755.75,529.28 1783.20,522.57 1810.65,520.14 1838.10,521.74 1865.55,520.27 1893.00,502.15 1893.00,535.79 1865.55,551.83 1838.10,552.96 1810.65,552.06 1783.20,553.48 1755.75,559.34 1728.30,549.50 1700.85,545.17 1673.40,555.86 1645.95,550.39 1618.50,554.03 1591.05,561.27 1563.60,569.82 1536.15,572.18 1508.70,572.19 1481.25,562.43 1453.80,564.38 1426.35,557.79 1398.90,566.45 1371.45,563.93 1344.00,578.24" fill="#0077BB" opacity="0.11"/>
<path d="M1344.00,565.08 L1371.45,541.94 L1398.90,551.88 L1426.35,542.75 L1453.80,549.37 L1481.25,547.85 L1508.70,557.96 L1536.15,558.52 L1563.60,555.79 L1591.05,546.25 L1618.50,538.60 L1645.95,534.14 L1673.40,540.39 L1700.85,529.17 L1728.30,533.80 L1755.75,544.31 L1783.20,538.02 L1810.65,536.10 L1838.10,537.35 L1865.55,536.05 L1893.00,518.97" fill="none" stroke="#0077BB" stroke-width="3" stroke-linejoin="round" stroke-linecap="round"/>
<text class="nlabel" x="1889.00" y="197.00" text-anchor="end">gaze n=470</text>
<text class="column-title" x="2230.50" y="136" text-anchor="middle">Linguistic encoding III</text>
<rect x="1933.00" y="164.00" width="595.00" height="504.00" fill="white"/>
<line class="grid" x1="1961.00" x2="2510.00" y1="622.00" y2="622.00"/>
<line class="grid" x1="1961.00" x2="2510.00" y1="512.00" y2="512.00"/>
<line class="grid" x1="1961.00" x2="2510.00" y1="402.00" y2="402.00"/>
<line class="grid" x1="1961.00" x2="2510.00" y1="292.00" y2="292.00"/>
<line class="grid" x1="1961.00" x2="2510.00" y1="182.00" y2="182.00"/>
<line class="grid" x1="1961.00" x2="1961.00" y1="182.00" y2="622.00"/>
<text class="tick" x="1961.00" y="644.00" text-anchor="middle">0</text>
<line class="grid" x1="2235.50" x2="2235.50" y1="182.00" y2="622.00"/>
<text class="tick" x="2235.50" y="644.00" text-anchor="middle">0.5</text>
<line class="grid" x1="2510.00" x2="2510.00" y1="182.00" y2="622.00"/>
<text class="tick" x="2510.00" y="644.00" text-anchor="middle">1</text>
<line class="axis" x1="1961.00" x2="2510.00" y1="622.00" y2="622.00"/>
<line class="axis" x1="1961.00" x2="1961.00" y1="182.00" y2="622.00"/>
<polygon points="1961.00,353.87 1988.45,363.77 2015.90,375.56 2043.35,384.62 2070.80,395.54 2098.25,401.92 2125.70,405.54 2153.15,407.98 2180.60,408.58 2208.05,415.23 2235.50,418.09 2262.95,418.64 2290.40,421.91 2317.85,429.82 2345.30,433.34 2372.75,445.69 2400.20,443.84 2427.65,448.07 2455.10,450.55 2482.55,451.80 2510.00,457.82 2510.00,495.33 2482.55,489.48 2455.10,488.59 2427.65,485.90 2400.20,481.90 2372.75,483.79 2345.30,471.85 2317.85,468.59 2290.40,460.76 2262.95,457.89 2235.50,456.91 2208.05,454.60 2180.60,447.88 2153.15,447.69 2125.70,445.26 2098.25,441.48 2070.80,434.52 2043.35,424.40 2015.90,414.89 1988.45,403.05 1961.00,392.92" fill="#CC3311" opacity="0.11"/>
<path d="M1961.00,373.40 L1988.45,383.41 L2015.90,395.22 L2043.35,404.51 L2070.80,415.03 L2098.25,421.70 L2125.70,425.40 L2153.15,427.84 L2180.60,428.23 L2208.05,434.92 L2235.50,437.50 L2262.95,438.27 L2290.40,441.34 L2317.85,449.20 L2345.30,452.59 L2372.75,464.74 L2400.20,462.87 L2427.65,466.99 L2455.10,469.57 L2482.55,470.64 L2510.00,476.58" fill="none" stroke="#CC3311" stroke-width="3" stroke-linejoin="round" stroke-linecap="round"/>
<polygon points="1961.00,480.80 1988.45,473.74 2015.90,458.84 2043.35,445.74 2070.80,436.89 2098.25,422.59 2125.70,415.71 2153.15,409.42 2180.60,407.59 2208.05,405.39 2235.50,415.60 2262.95,423.39 2290.40,427.25 2317.85,420.65 2345.30,407.04 2372.75,394.42 2400.20,395.01 2427.65,387.38 2455.10,389.00 2482.55,383.47 2510.00,374.77 2510.00,414.28 2482.55,423.04 2455.10,428.85 2427.65,426.66 2400.20,434.46 2372.75,434.07 2345.30,446.17 2317.85,459.36 2290.40,465.79 2262.95,462.32 2235.50,454.42 2208.05,444.90 2180.60,446.86 2153.15,448.81 2125.70,454.60 2098.25,461.44 2070.80,475.22 2043.35,483.75 2015.90,495.88 1988.45,509.70 1961.00,516.13" fill="#0077BB" opacity="0.11"/>
<path d="M1961.00,498.46 L1988.45,491.72 L2015.90,477.36 L2043.35,464.74 L2070.80,456.05 L2098.25,442.01 L2125.70,435.16 L2153.15,429.11 L2180.60,427.22 L2208.05,425.14 L2235.50,435.01 L2262.95,442.85 L2290.40,446.52 L2317.85,440.01 L2345.30,426.60 L2372.75,414.25 L2400.20,414.73 L2427.65,407.02 L2455.10,408.93 L2482.55,403.25 L2510.00,394.53" fill="none" stroke="#0077BB" stroke-width="3" stroke-linejoin="round" stroke-linecap="round"/>
<text class="nlabel" x="2506.00" y="197.00" text-anchor="end">gaze n=470</text>
<text class="column-title" x="2847.50" y="136" text-anchor="middle">1000-2500 ms after speech onset</text>
<rect x="2550.00" y="164.00" width="595.00" height="504.00" fill="white"/>
<line class="grid" x1="2578.00" x2="3127.00" y1="622.00" y2="622.00"/>
<line class="grid" x1="2578.00" x2="3127.00" y1="512.00" y2="512.00"/>
<line class="grid" x1="2578.00" x2="3127.00" y1="402.00" y2="402.00"/>
<line class="grid" x1="2578.00" x2="3127.00" y1="292.00" y2="292.00"/>
<line class="grid" x1="2578.00" x2="3127.00" y1="182.00" y2="182.00"/>
<line class="grid" x1="2578.00" x2="2578.00" y1="182.00" y2="622.00"/>
<text class="tick" x="2578.00" y="644.00" text-anchor="middle">0</text>
<line class="grid" x1="2852.50" x2="2852.50" y1="182.00" y2="622.00"/>
<text class="tick" x="2852.50" y="644.00" text-anchor="middle">0.5</text>
<line class="grid" x1="3127.00" x2="3127.00" y1="182.00" y2="622.00"/>
<text class="tick" x="3127.00" y="644.00" text-anchor="middle">1</text>
<line class="axis" x1="2578.00" x2="3127.00" y1="622.00" y2="622.00"/>
<line class="axis" x1="2578.00" x2="2578.00" y1="182.00" y2="622.00"/>
<polygon points="2578.00,457.82 2596.30,466.17 2614.60,470.37 2632.90,475.84 2651.20,473.95 2669.50,470.20 2687.80,477.06 2706.10,482.03 2724.40,491.64 2742.70,494.48 2761.00,501.17 2779.30,508.99 2797.60,507.27 2815.90,511.90 2834.20,512.66 2852.50,511.33 2870.80,511.37 2889.10,511.74 2907.40,507.88 2925.70,511.75 2944.00,515.91 2962.30,507.43 2980.60,504.62 2998.90,503.81 3017.20,503.27 3035.50,498.59 3053.80,506.48 3072.10,512.10 3090.40,512.50 3108.70,511.12 3127.00,508.32 3127.00,541.55 3108.70,543.70 3090.40,545.24 3072.10,544.59 3053.80,539.62 3035.50,532.90 3017.20,536.80 2998.90,537.52 2980.60,538.18 2962.30,540.76 2944.00,547.85 2925.70,543.97 2907.40,541.02 2889.10,544.05 2870.80,543.97 2852.50,543.64 2834.20,545.27 2815.90,544.34 2797.60,540.47 2779.30,541.56 2761.00,534.81 2742.70,528.81 2724.40,526.33 2706.10,517.52 2687.80,513.05 2669.50,506.47 2651.20,510.02 2632.90,511.95 2614.60,506.97 2596.30,502.67 2578.00,495.33" fill="#CC3311" opacity="0.11"/>
<path d="M2578.00,476.58 L2596.30,484.42 L2614.60,488.67 L2632.90,493.89 L2651.20,491.98 L2669.50,488.33 L2687.80,495.06 L2706.10,499.77 L2724.40,508.99 L2742.70,511.64 L2761.00,517.99 L2779.30,525.27 L2797.60,523.87 L2815.90,528.12 L2834.20,528.96 L2852.50,527.48 L2870.80,527.67 L2889.10,527.90 L2907.40,524.45 L2925.70,527.86 L2944.00,531.88 L2962.30,524.10 L2980.60,521.40 L2998.90,520.67 L3017.20,520.03 L3035.50,515.74 L3053.80,523.05 L3072.10,528.35 L3090.40,528.87 L3108.70,527.41 L3127.00,524.94" fill="none" stroke="#CC3311" stroke-width="3" stroke-linejoin="round" stroke-linecap="round"/>
<polygon points="2578.00,374.77 2596.30,368.72 2614.60,370.78 2632.90,368.42 2651.20,371.71 2669.50,374.97 2687.80,369.86 2706.10,364.23 2724.40,350.07 2742.70,344.79 2761.00,336.91 2779.30,336.31 2797.60,339.96 2815.90,334.78 2834.20,333.31 2852.50,334.86 2870.80,344.62 2889.10,350.02 2907.40,347.27 2925.70,342.54 2944.00,337.54 2962.30,337.33 2980.60,333.96 2998.90,340.05 3017.20,336.97 3035.50,341.61 3053.80,337.09 3072.10,334.75 3090.40,334.18 3108.70,329.54 3127.00,332.89 3127.00,371.12 3108.70,367.88 3090.40,373.10 3072.10,372.68 3053.80,375.50 3035.50,380.57 3017.20,375.37 2998.90,378.61 2980.60,372.56 2962.30,375.83 2944.00,376.18 2925.70,381.02 2907.40,386.03 2889.10,389.20 2870.80,383.73 2852.50,373.28 2834.20,371.76 2815.90,373.16 2797.60,378.81 2779.30,374.82 2761.00,375.46 2742.70,383.49 2724.40,389.15 2706.10,403.52 2687.80,409.27 2669.50,414.31 2651.20,410.75 2632.90,407.98 2614.60,410.30 2596.30,407.94 2578.00,414.28" fill="#0077BB" opacity="0.11"/>
<path d="M2578.00,394.53 L2596.30,388.33 L2614.60,390.54 L2632.90,388.20 L2651.20,391.23 L2669.50,394.64 L2687.80,389.57 L2706.10,383.88 L2724.40,369.61 L2742.70,364.14 L2761.00,356.18 L2779.30,355.57 L2797.60,359.39 L2815.90,353.97 L2834.20,352.53 L2852.50,354.07 L2870.80,364.18 L2889.10,369.61 L2907.40,366.65 L2925.70,361.78 L2944.00,356.86 L2962.30,356.58 L2980.60,353.26 L2998.90,359.33 L3017.20,356.17 L3035.50,361.09 L3053.80,356.30 L3072.10,353.71 L3090.40,353.64 L3108.70,348.71 L3127.00,352.01" fill="none" stroke="#0077BB" stroke-width="3" stroke-linejoin="round" stroke-linecap="round"/>
<text class="nlabel" x="3123.00" y="197.00" text-anchor="end">gaze n=470</text>
<text class="axis-label" x="1613.5" y="725" text-anchor="middle">Relative time within each window</text>
<text class="axis-label" x="30" y="416.0" text-anchor="middle" transform="rotate(-90 30 416.0)">Proportion of looks</text>
</svg>