<svg xmlns="http://www.w3.org/2000/svg" width="1920" height="1320" viewBox="0 0 1920 1320">
<image href="../../../../stimuli/Animate-animate%20centered%20and%20flipped/dress-1-2-l.png" x="0" y="0" width="1920" height="1080" preserveAspectRatio="none"/>
<rect x="0" y="0" width="1920" height="1080" fill="none" stroke="#111" stroke-width="2"/>
<rect x="0" y="1080" width="1920" height="240" fill="#f7f7f7"/>
<rect x="40.0" y="100.0" width="850" height="850" fill="none" stroke="#00B8D9" stroke-width="6" stroke-dasharray="18 12"/>
<rect x="52.0" y="62.0" width="102.0" height="38" rx="6" fill="white" fill-opacity="0.86" stroke="#00B8D9" stroke-width="3"/>
<text x="62.0" y="88.0" font-family="Arial, Helvetica, sans-serif" font-size="24" font-weight="700" fill="#111">AGENT</text>
<rect x="970.0" y="100.0" width="850" height="850" fill="none" stroke="#FF3B8A" stroke-width="6" stroke-dasharray="18 12"/>
<rect x="982.0" y="62.0" width="134.0" height="38" rx="6" fill="white" fill-opacity="0.86" stroke="#FF3B8A" stroke-width="3"/>
<text x="992.0" y="88.0" font-family="Arial, Helvetica, sans-serif" font-size="24" font-weight="700" fill="#111">PATIENT</text>
<polyline points="704.7,512.3 669.6,583.1 657.9,383.6 728.1,365.1 649.4,347.1 632.1,349.1 645.7,357.3 640.9,380.9 630.5,381.6 873.3,465.2 674.4,492.2 738.4,528.6 754.8,595.2 1235.7,483.4 1330.2,449.2 1243.9,383.6 1013.2,536.8 793.2,568.5 803.9,619.9 669.1,627.9 1036.5,534.6 987.0,529.8 1152.5,526.1 1220.9,527.2 932.3,522.9 795.8,525.4 755.7,593.6 659.1,609.8 612.4,607.7 696.3,594.4 781.5,572.1 915.7,579.3 802.7,572.8 830.7,542.8 1118.0,503.5 1309.2,492.9 1313.7,444.2 1333.4,389.2 1222.7,384.1 864.4,494.7 812.5,507.3 915.9,516.7 1161.3,495.7 1246.9,513.8 1310.3,390.2 1383.8,414.0 1234.1,370.2 674.8,392.3 655.0,495.9 704.0,568.1 762.5,606.9 807.2,632.9 785.6,664.0 640.5,765.0 629.2,794.0 737.4,736.4 923.6,703.0 829.9,701.0 787.0,657.0 797.9,651.6 707.2,675.3 751.3,666.1 798.7,656.8 721.7,649.6" fill="none" stroke="#111" stroke-width="4" stroke-opacity="0.36" stroke-linejoin="round"/>
<circle cx="704.7" cy="512.3" r="16.8" fill="white" fill-opacity="0.84"/>
<circle cx="704.7" cy="512.3" r="13.8" fill="#005DFF" fill-opacity="0.66" stroke="#111" stroke-width="2.5"/>
<text x="704.7" y="519.3" text-anchor="middle" font-family="Arial, Helvetica, sans-serif" font-size="21" font-weight="800" fill="white" stroke="#111" stroke-width="3" paint-order="stroke">1</text>
<circle cx="669.6" cy="583.1" r="16.0" fill="white" fill-opacity="0.84"/>
<circle cx="669.6" cy="583.1" r="13.0" fill="#005DFF" fill-opacity="0.66" stroke="#111" stroke-width="2.5"/>
<text x="669.6" y="590.1" text-anchor="middle" font-family="Arial, Helvetica, sans-serif" font-size="21" font-weight="800" fill="white" stroke="#111" stroke-width="3" paint-order="stroke">2</text>
<circle cx="657.9" cy="383.6" r="18.8" fill="white" fill-opacity="0.84"/>
<circle cx="657.9" cy="383.6" r="15.8" fill="#005DFF" fill-opacity="0.66" stroke="#111" stroke-width="2.5"/>
<text x="657.9" y="390.6" text-anchor="middle" font-family="Arial, Helvetica, sans-serif" font-size="21" font-weight="800" fill="white" stroke="#111" stroke-width="3" paint-order="stroke">3</text>
<circle cx="728.1" cy="365.1" r="12.5" fill="white" fill-opacity="0.84"/>
<circle cx="728.1" cy="365.1" r="9.5" fill="#005DFF" fill-opacity="0.66" stroke="#111" stroke-width="2.5"/>
<text x="728.1" y="372.1" text-anchor="middle" font-family="Arial, Helvetica, sans-serif" font-size="21" font-weight="800" fill="white" stroke="#111" stroke-width="3" paint-order="stroke">4</text>
<circle cx="649.4" cy="347.1" r="17.4" fill="white" fill-opacity="0.84"/>
<circle cx="649.4" cy="347.1" r="14.4" fill="#005DFF" fill-opacity="0.66" stroke="#111" stroke-width="2.5"/>
<text x="649.4" y="354.1" text-anchor="middle" font-family="Arial, Helvetica, sans-serif" font-size="21" font-weight="800" fill="white" stroke="#111" stroke-width="3" paint-order="stroke">5</text>
<circle cx="632.1" cy="349.1" r="18.0" fill="white" fill-opacity="0.84"/>
<circle cx="632.1" cy="349.1" r="15.0" fill="#005DFF" fill-opacity="0.66" stroke="#111" stroke-width="2.5"/>
<text x="632.1" y="356.1" text-anchor="middle" font-family="Arial, Helvetica, sans-serif" font-size="21" font-weight="800" fill="white" stroke="#111" stroke-width="3" paint-order="stroke">6</text>
<circle cx="645.7" cy="357.3" r="17.0" fill="white" fill-opacity="0.84"/>
<circle cx="645.7" cy="357.3" r="14.0" fill="#005DFF" fill-opacity="0.66" stroke="#111" stroke-width="2.5"/>
<text x="645.7" y="364.3" text-anchor="middle" font-family="Arial, Helvetica, sans-serif" font-size="21" font-weight="800" fill="white" stroke="#111" stroke-width="3" paint-order="stroke">7</text>
<circle cx="640.9" cy="380.9" r="21.7" fill="white" fill-opacity="0.84"/>
<circle cx="640.9" cy="380.9" r="18.7" fill="#005DFF" fill-opacity="0.66" stroke="#111" stroke-width="2.5"/>
<text x="640.9" y="387.9" text-anchor="middle" font-family="Arial, Helvetica, sans-serif" font-size="21" font-weight="800" fill="white" stroke="#111" stroke-width="3" paint-order="stroke">8</text>
<circle cx="630.5" cy="381.6" r="22.0" fill="white" fill-opacity="0.84"/>
<circle cx="630.5" cy="381.6" r="19.0" fill="#005DFF" fill-opacity="0.66" stroke="#111" stroke-width="2.5"/>
<text x="630.5" y="388.6" text-anchor="middle" font-family="Arial, Helvetica, sans-serif" font-size="21" font-weight="800" fill="white" stroke="#111" stroke-width="3" paint-order="stroke">9</text>
<circle cx="873.3" cy="465.2" r="13.6" fill="white" fill-opacity="0.84"/>
<circle cx="873.3" cy="465.2" r="10.6" fill="#005DFF" fill-opacity="0.66" stroke="#111" stroke-width="2.5"/>
<text x="873.3" y="472.2" text-anchor="middle" font-family="Arial, Helvetica, sans-serif" font-size="21" font-weight="800" fill="white" stroke="#111" stroke-width="3" paint-order="stroke">10</text>
<circle cx="674.4" cy="492.2" r="16.6" fill="white" fill-opacity="0.84"/>
<circle cx="674.4" cy="492.2" r="13.6" fill="#005DFF" fill-opacity="0.66" stroke="#111" stroke-width="2.5"/>
<text x="674.4" y="499.2" text-anchor="middle" font-family="Arial, Helvetica, sans-serif" font-size="21" font-weight="800" fill="white" stroke="#111" stroke-width="3" paint-order="stroke">11</text>
<circle cx="738.4" cy="528.6" r="15.8" fill="white" fill-opacity="0.84"/>
<circle cx="738.4" cy="528.6" r="12.8" fill="#005DFF" fill-opacity="0.66" stroke="#111" stroke-width="2.5"/>
<text x="738.4" y="535.6" text-anchor="middle" font-family="Arial, Helvetica, sans-serif" font-size="21" font-weight="800" fill="white" stroke="#111" stroke-width="3" paint-order="stroke">12</text>
<circle cx="754.8" cy="595.2" r="15.9" fill="white" fill-opacity="0.84"/>
<circle cx="754.8" cy="595.2" r="12.9" fill="#005DFF" fill-opacity="0.66" stroke="#111" stroke-width="2.5"/>
<text x="754.8" y="602.2" text-anchor="middle" font-family="Arial, Helvetica, sans-serif" font-size="21" font-weight="800" fill="white" stroke="#111" stroke-width="3" paint-order="stroke">13</text>
<circle cx="1235.7" cy="483.4" r="17.0" fill="white" fill-opacity="0.84"/>
<circle cx="1235.7" cy="483.4" r="14.0" fill="#005DFF" fill-opacity="0.66" stroke="#111" stroke-width="2.5"/>
<text x="1235.7" y="490.4" text-anchor="middle" font-family="Arial, Helvetica, sans-serif" font-size="21" font-weight="800" fill="white" stroke="#111" stroke-width="3" paint-order="stroke">14</text>
<circle cx="1330.2" cy="449.2" r="15.6" fill="white" fill-opacity="0.84"/>
<circle cx="1330.2" cy="449.2" r="12.6" fill="#005DFF" fill-opacity="0.66" stroke="#111" stroke-width="2.5"/>
<text x="1330.2" y="456.2" text-anchor="middle" font-family="Arial, Helvetica, sans-serif" font-size="21" font-weight="800" fill="white" stroke="#111" stroke-width="3" paint-order="stroke">15</text>
<circle cx="1243.9" cy="383.6" r="16.4" fill="white" fill-opacity="0.84"/>
<circle cx="1243.9" cy="383.6" r="13.4" fill="#005DFF" fill-opacity="0.66" stroke="#111" stroke-width="2.5"/>
<text x="1243.9" y="390.6" text-anchor="middle" font-family="Arial, Helvetica, sans-serif" font-size="21" font-weight="800" fill="white" stroke="#111" stroke-width="3" paint-order="stroke">16</text>
<circle cx="1013.2" cy="536.8" r="15.4" fill="white" fill-opacity="0.84"/>
<circle cx="1013.2" cy="536.8" r="12.4" fill="#005DFF" fill-opacity="0.66" stroke="#111" stroke-width="2.5"/>
<text x="1013.2" y="543.8" text-anchor="middle" font-family="Arial, Helvetica, sans-serif" font-size="21" font-weight="800" fill="white" stroke="#111" stroke-width="3" paint-order="stroke">17</text>
<circle cx="793.2" cy="568.5" r="16.3" fill="white" fill-opacity="0.84"/>
<circle cx="793.2" cy="568.5" r="13.3" fill="#005DFF" fill-opacity="0.66" stroke="#111" stroke-width="2.5"/>
<text x="793.2" y="575.5" text-anchor="middle" font-family="Arial, Helvetica, sans-serif" font-size="21" font-weight="800" fill="white" stroke="#111" stroke-width="3" paint-order="stroke">18</text>
<circle cx="803.9" cy="619.9" r="17.1" fill="white" fill-opacity="0.84"/>
<circle cx="803.9" cy="619.9" r="14.1" fill="#005DFF" fill-opacity="0.66" stroke="#111" stroke-width="2.5"/>
<text x="803.9" y="626.9" text-anchor="middle" font-family="Arial, Helvetica, sans-serif" font-size="21" font-weight="800" fill="white" stroke="#111" stroke-width="3" paint-order="stroke">19</text>
<circle cx="669.1" cy="627.9" r="17.7" fill="white" fill-opacity="0.84"/>
<circle cx="669.1" cy="627.9" r="14.7" fill="#005DFF" fill-opacity="0.66" stroke="#111" stroke-width="2.5"/>
<text x="669.1" y="634.9" text-anchor="middle" font-family="Arial, Helvetica, sans-serif" font-size="21" font-weight="800" fill="white" stroke="#111" stroke-width="3" paint-order="stroke">20</text>
<circle cx="1036.5" cy="534.6" r="17.3" fill="white" fill-opacity="0.84"/>
<circle cx="1036.5" cy="534.6" r="14.3" fill="#005DFF" fill-opacity="0.66" stroke="#111" stroke-width="2.5"/>
<text x="1036.5" y="541.6" text-anchor="middle" font-family="Arial, Helvetica, sans-serif" font-size="21" font-weight="800" fill="white" stroke="#111" stroke-width="3" paint-order="stroke">21</text>
<circle cx="987.0" cy="529.8" r="16.0" fill="white" fill-opacity="0.84"/>
<circle cx="987.0" cy="529.8" r="13.0" fill="#005DFF" fill-opacity="0.66" stroke="#111" stroke-width="2.5"/>
<text x="987.0" y="536.8" text-anchor="middle" font-family="Arial, Helvetica, sans-serif" font-size="21" font-weight="800" fill="white" stroke="#111" stroke-width="3" paint-order="stroke">22</text>
<circle cx="1152.5" cy="526.1" r="15.5" fill="white" fill-opacity="0.84"/>
<circle cx="1152.5" cy="526.1" r="12.5" fill="#005DFF" fill-opacity="0.66" stroke="#111" stroke-width="2.5"/>
<text x="1152.5" y="533.1" text-anchor="middle" font-family="Arial, Helvetica, sans-serif" font-size="21" font-weight="800" fill="white" stroke="#111" stroke-width="3" paint-order="stroke">23</text>
<circle cx="1220.9" cy="527.2" r="16.4" fill="white" fill-opacity="0.84"/>
<circle cx="1220.9" cy="527.2" r="13.4" fill="#005DFF" fill-opacity="0.66" stroke="#111" stroke-width="2.5"/>
<text x="1220.9" y="534.2" text-anchor="middle" font-family="Arial, Helvetica, sans-serif" font-size="21" font-weight="800" fill="white" stroke="#111" stroke-width="3" paint-order="stroke">24</text>
<circle cx="932.3" cy="522.9" r="13.1" fill="white" fill-opacity="0.84"/>
<circle cx="932.3" cy="522.9" r="10.1" fill="#005DFF" fill-opacity="0.66" stroke="#111" stroke-width="2.5"/>
<text x="932.3" y="529.9" text-anchor="middle" font-family="Arial, Helvetica, sans-serif" font-size="21" font-weight="800" fill="white" stroke="#111" stroke-width="3" paint-order="stroke">25</text>
<circle cx="795.8" cy="525.4" r="20.4" fill="white" fill-opacity="0.84"/>
<circle cx="795.8" cy="525.4" r="17.4" fill="#005DFF" fill-opacity="0.66" stroke="#111" stroke-width="2.5"/>
<text x="795.8" y="532.4" text-anchor="middle" font-family="Arial, Helvetica, sans-serif" font-size="21" font-weight="800" fill="white" stroke="#111" stroke-width="3" paint-order="stroke">26</text>
<circle cx="755.7" cy="593.6" r="16.6" fill="white" fill-opacity="0.84"/>
<circle cx="755.7" cy="593.6" r="13.6" fill="#005DFF" fill-opacity="0.66" stroke="#111" stroke-width="2.5"/>
<text x="755.7" y="600.6" text-anchor="middle" font-family="Arial, Helvetica, sans-serif" font-size="21" font-weight="800" fill="white" stroke="#111" stroke-width="3" paint-order="stroke">27</text>
<circle cx="659.1" cy="609.8" r="18.6" fill="white" fill-opacity="0.84"/>
<circle cx="659.1" cy="609.8" r="15.6" fill="#005DFF" fill-opacity="0.66" stroke="#111" stroke-width="2.5"/>
<text x="659.1" y="616.8" text-anchor="middle" font-family="Arial, Helvetica, sans-serif" font-size="21" font-weight="800" fill="white" stroke="#111" stroke-width="3" paint-order="stroke">28</text>
<circle cx="612.4" cy="607.7" r="18.1" fill="white" fill-opacity="0.84"/>
<circle cx="612.4" cy="607.7" r="15.1" fill="#005DFF" fill-opacity="0.66" stroke="#111" stroke-width="2.5"/>
<text x="612.4" y="614.7" text-anchor="middle" font-family="Arial, Helvetica, sans-serif" font-size="21" font-weight="800" fill="white" stroke="#111" stroke-width="3" paint-order="stroke">29</text>
<circle cx="696.3" cy="594.4" r="15.5" fill="white" fill-opacity="0.84"/>
<circle cx="696.3" cy="594.4" r="12.5" fill="#005DFF" fill-opacity="0.66" stroke="#111" stroke-width="2.5"/>
<text x="696.3" y="601.4" text-anchor="middle" font-family="Arial, Helvetica, sans-serif" font-size="21" font-weight="800" fill="white" stroke="#111" stroke-width="3" paint-order="stroke">30</text>
<circle cx="781.5" cy="572.1" r="15.6" fill="white" fill-opacity="0.84"/>
<circle cx="781.5" cy="572.1" r="12.6" fill="#005DFF" fill-opacity="0.66" stroke="#111" stroke-width="2.5"/>
<text x="781.5" y="579.1" text-anchor="middle" font-family="Arial, Helvetica, sans-serif" font-size="21" font-weight="800" fill="white" stroke="#111" stroke-width="3" paint-order="stroke">31</text>
<circle cx="915.7" cy="579.3" r="13.2" fill="white" fill-opacity="0.84"/>
<circle cx="915.7" cy="579.3" r="10.2" fill="#005DFF" fill-opacity="0.66" stroke="#111" stroke-width="2.5"/>
<text x="915.7" y="586.3" text-anchor="middle" font-family="Arial, Helvetica, sans-serif" font-size="21" font-weight="800" fill="white" stroke="#111" stroke-width="3" paint-order="stroke">32</text>
<circle cx="802.7" cy="572.8" r="18.6" fill="white" fill-opacity="0.84"/>
<circle cx="802.7" cy="572.8" r="15.6" fill="#005DFF" fill-opacity="0.66" stroke="#111" stroke-width="2.5"/>
<text x="802.7" y="579.8" text-anchor="middle" font-family="Arial, Helvetica, sans-serif" font-size="21" font-weight="800" fill="white" stroke="#111" stroke-width="3" paint-order="stroke">33</text>
<circle cx="830.7" cy="542.8" r="16.3" fill="white" fill-opacity="0.84"/>
<circle cx="830.7" cy="542.8" r="13.3" fill="#005DFF" fill-opacity="0.66" stroke="#111" stroke-width="2.5"/>
<text x="830.7" y="549.8" text-anchor="middle" font-family="Arial, Helvetica, sans-serif" font-size="21" font-weight="800" fill="white" stroke="#111" stroke-width="3" paint-order="stroke">34</text>
<circle cx="1118.0" cy="503.5" r="16.0" fill="white" fill-opacity="0.84"/>
<circle cx="1118.0" cy="503.5" r="13.0" fill="#005DFF" fill-opacity="0.66" stroke="#111" stroke-width="2.5"/>
<text x="1118.0" y="510.5" text-anchor="middle" font-family="Arial, Helvetica, sans-serif" font-size="21" font-weight="800" fill="white" stroke="#111" stroke-width="3" paint-order="stroke">35</text>
<circle cx="1309.2" cy="492.9" r="17.1" fill="white" fill-opacity="0.84"/>
<circle cx="1309.2" cy="492.9" r="14.1" fill="#005DFF" fill-opacity="0.66" stroke="#111" stroke-width="2.5"/>
<text x="1309.2" y="499.9" text-anchor="middle" font-family="Arial, Helvetica, sans-serif" font-size="21" font-weight="800" fill="white" stroke="#111" stroke-width="3" paint-order="stroke">36</text>
<circle cx="1313.7" cy="444.2" r="15.9" fill="white" fill-opacity="0.84"/>
<circle cx="1313.7" cy="444.2" r="12.9" fill="#005DFF" fill-opacity="0.66" stroke="#111" stroke-width="2.5"/>
<text x="1313.7" y="451.2" text-anchor="middle" font-family="Arial, Helvetica, sans-serif" font-size="21" font-weight="800" fill="white" stroke="#111" stroke-width="3" paint-order="stroke">37</text>
<circle cx="1333.4" cy="389.2" r="16.1" fill="white" fill-opacity="0.84"/>
<circle cx="1333.4" cy="389.2" r="13.1" fill="#005DFF" fill-opacity="0.66" stroke="#111" stroke-width="2.5"/>
<text x="1333.4" y="396.2" text-anchor="middle" font-family="Arial, Helvetica, sans-serif" font-size="21" font-weight="800" fill="white" stroke="#111" stroke-width="3" paint-order="stroke">38</text>
<circle cx="1222.7" cy="384.1" r="14.6" fill="white" fill-opacity="0.84"/>
<circle cx="1222.7" cy="384.1" r="11.6" fill="#005DFF" fill-opacity="0.66" stroke="#111" stroke-width="2.5"/>
<text x="1222.7" y="391.1" text-anchor="middle" font-family="Arial, Helvetica, sans-serif" font-size="21" font-weight="800" fill="white" stroke="#111" stroke-width="3" paint-order="stroke">39</text>
<circle cx="864.4" cy="494.7" r="15.8" fill="white" fill-opacity="0.84"/>
<circle cx="864.4" cy="494.7" r="12.8" fill="#005DFF" fill-opacity="0.66" stroke="#111" stroke-width="2.5"/>
<text x="864.4" y="501.7" text-anchor="middle" font-family="Arial, Helvetica, sans-serif" font-size="21" font-weight="800" fill="white" stroke="#111" stroke-width="3" paint-order="stroke">40</text>
<circle cx="812.5" cy="507.3" r="18.1" fill="white" fill-opacity="0.84"/>
<circle cx="812.5" cy="507.3" r="15.1" fill="#005DFF" fill-opacity="0.66" stroke="#111" stroke-width="2.5"/>
<text x="812.5" y="514.3" text-anchor="middle" font-family="Arial, Helvetica, sans-serif" font-size="21" font-weight="800" fill="white" stroke="#111" stroke-width="3" paint-order="stroke">41</text>
<circle cx="915.9" cy="516.7" r="15.9" fill="white" fill-opacity="0.84"/>
<circle cx="915.9" cy="516.7" r="12.9" fill="#005DFF" fill-opacity="0.66" stroke="#111" stroke-width="2.5"/>
<text x="915.9" y="523.7" text-anchor="middle" font-family="Arial, Helvetica, sans-serif" font-size="21" font-weight="800" fill="white" stroke="#111" stroke-width="3" paint-order="stroke">42</text>
<circle cx="1161.3" cy="495.7" r="16.7" fill="white" fill-opacity="0.84"/>
<circle cx="1161.3" cy="495.7" r="13.7" fill="#005DFF" fill-opacity="0.66" stroke="#111" stroke-width="2.5"/>
<text x="1161.3" y="502.7" text-anchor="middle" font-family="Arial, Helvetica, sans-serif" font-size="21" font-weight="800" fill="white" stroke="#111" stroke-width="3" paint-order="stroke">43</text>
<circle cx="1246.9" cy="513.8" r="16.0" fill="white" fill-opacity="0.84"/>
<circle cx="1246.9" cy="513.8" r="13.0" fill="#005DFF" fill-opacity="0.66" stroke="#111" stroke-width="2.5"/>
<text x="1246.9" y="520.8" text-anchor="middle" font-family="Arial, Helvetica, sans-serif" font-size="21" font-weight="800" fill="white" stroke="#111" stroke-width="3" paint-order="stroke">44</text>
<circle cx="1310.3" cy="390.2" r="21.1" fill="white" fill-opacity="0.84"/>
<circle cx="1310.3" cy="390.2" r="18.1" fill="#005DFF" fill-opacity="0.66" stroke="#111" stroke-width="2.5"/>
<text x="1310.3" y="397.2" text-anchor="middle" font-family="Arial, Helvetica, sans-serif" font-size="21" font-weight="800" fill="white" stroke="#111" stroke-width="3" paint-order="stroke">45</text>
<circle cx="1383.8" cy="414.0" r="19.3" fill="white" fill-opacity="0.84"/>
<circle cx="1383.8" cy="414.0" r="16.3" fill="#005DFF" fill-opacity="0.66" stroke="#111" stroke-width="2.5"/>
<text x="1383.8" y="421.0" text-anchor="middle" font-family="Arial, Helvetica, sans-serif" font-size="21" font-weight="800" fill="white" stroke="#111" stroke-width="3" paint-order="stroke">46</text>
<circle cx="1234.1" cy="370.2" r="16.3" fill="white" fill-opacity="0.84"/>
<circle cx="1234.1" cy="370.2" r="13.3" fill="#005DFF" fill-opacity="0.66" stroke="#111" stroke-width="2.5"/>
<text x="1234.1" y="377.2" text-anchor="middle" font-family="Arial, Helvetica, sans-serif" font-size="21" font-weight="800" fill="white" stroke="#111" stroke-width="3" paint-order="stroke">47</text>
<circle cx="674.8" cy="392.3" r="17.7" fill="white" fill-opacity="0.84"/>
<circle cx="674.8" cy="392.3" r="14.7" fill="#005DFF" fill-opacity="0.66" stroke="#111" stroke-width="2.5"/>
<text x="674.8" y="399.3" text-anchor="middle" font-family="Arial, Helvetica, sans-serif" font-size="21" font-weight="800" fill="white" stroke="#111" stroke-width="3" paint-order="stroke">48</text>
<circle cx="655.0" cy="495.9" r="15.9" fill="white" fill-opacity="0.84"/>
<circle cx="655.0" cy="495.9" r="12.9" fill="#005DFF" fill-opacity="0.66" stroke="#111" stroke-width="2.5"/>
<text x="655.0" y="502.9" text-anchor="middle" font-family="Arial, Helvetica, sans-serif" font-size="21" font-weight="800" fill="white" stroke="#111" stroke-width="3" paint-order="stroke">49</text>
<circle cx="704.0" cy="568.1" r="15.9" fill="white" fill-opacity="0.84"/>
<circle cx="704.0" cy="568.1" r="12.9" fill="#005DFF" fill-opacity="0.66" stroke="#111" stroke-width="2.5"/>
<text x="704.0" y="575.1" text-anchor="middle" font-family="Arial, Helvetica, sans-serif" font-size="21" font-weight="800" fill="white" stroke="#111" stroke-width="3" paint-order="stroke">50</text>
<circle cx="762.5" cy="606.9" r="15.4" fill="white" fill-opacity="0.84"/>
<circle cx="762.5" cy="606.9" r="12.4" fill="#005DFF" fill-opacity="0.66" stroke="#111" stroke-width="2.5"/>
<text x="762.5" y="613.9" text-anchor="middle" font-family="Arial, Helvetica, sans-serif" font-size="21" font-weight="800" fill="white" stroke="#111" stroke-width="3" paint-order="stroke">51</text>
<circle cx="807.2" cy="632.9" r="17.5" fill="white" fill-opacity="0.84"/>
<circle cx="807.2" cy="632.9" r="14.5" fill="#005DFF" fill-opacity="0.66" stroke="#111" stroke-width="2.5"/>
<text x="807.2" y="639.9" text-anchor="middle" font-family="Arial, Helvetica, sans-serif" font-size="21" font-weight="800" fill="white" stroke="#111" stroke-width="3" paint-order="stroke">52</text>
<circle cx="785.6" cy="664.0" r="18.9" fill="white" fill-opacity="0.84"/>
<circle cx="785.6" cy="664.0" r="15.9" fill="#005DFF" fill-opacity="0.66" stroke="#111" stroke-width="2.5"/>
<text x="785.6" y="671.0" text-anchor="middle" font-family="Arial, Helvetica, sans-serif" font-size="21" font-weight="800" fill="white" stroke="#111" stroke-width="3" paint-order="stroke">53</text>
<circle cx="640.5" cy="765.0" r="18.0" fill="white" fill-opacity="0.84"/>
<circle cx="640.5" cy="765.0" r="15.0" fill="#005DFF" fill-opacity="0.66" stroke="#111" stroke-width="2.5"/>
<text x="640.5" y="772.0" text-anchor="middle" font-family="Arial, Helvetica, sans-serif" font-size="21" font-weight="800" fill="white" stroke="#111" stroke-width="3" paint-order="stroke">54</text>
<circle cx="629.2" cy="794.0" r="17.0" fill="white" fill-opacity="0.84"/>
<circle cx="629.2" cy="794.0" r="14.0" fill="#005DFF" fill-opacity="0.66" stroke="#111" stroke-width="2.5"/>
<text x="629.2" y="801.0" text-anchor="middle" font-family="Arial, Helvetica, sans-serif" font-size="21" font-weight="800" fill="white" stroke="#111" stroke-width="3" paint-order="stroke">55</text>
<circle cx="737.4" cy="736.4" r="16.6" fill="white" fill-opacity="0.84"/>
<circle cx="737.4" cy="736.4" r="13.6" fill="#005DFF" fill-opacity="0.66" stroke="#111" stroke-width="2.5"/>
<text x="737.4" y="743.4" text-anchor="middle" font-family="Arial, Helvetica, sans-serif" font-size="21" font-weight="800" fill="white" stroke="#111" stroke-width="3" paint-order="stroke">56</text>
<circle cx="923.6" cy="703.0" r="17.3" fill="white" fill-opacity="0.84"/>
<circle cx="923.6" cy="703.0" r="14.3" fill="#005DFF" fill-opacity="0.66" stroke="#111" stroke-width="2.5"/>
<text x="923.6" y="710.0" text-anchor="middle" font-family="Arial, Helvetica, sans-serif" font-size="21" font-weight="800" fill="white" stroke="#111" stroke-width="3" paint-order="stroke">57</text>
<circle cx="829.9" cy="701.0" r="17.5" fill="white" fill-opacity="0.84"/>
<circle cx="829.9" cy="701.0" r="14.5" fill="#005DFF" fill-opacity="0.66" stroke="#111" stroke-width="2.5"/>
<text x="829.9" y="708.0" text-anchor="middle" font-family="Arial, Helvetica, sans-serif" font-size="21" font-weight="800" fill="white" stroke="#111" stroke-width="3" paint-order="stroke">58</text>
<circle cx="787.0" cy="657.0" r="17.3" fill="white" fill-opacity="0.84"/>
<circle cx="787.0" cy="657.0" r="14.3" fill="#005DFF" fill-opacity="0.66" stroke="#111" stroke-width="2.5"/>
<text x="787.0" y="664.0" text-anchor="middle" font-family="Arial, Helvetica, sans-serif" font-size="21" font-weight="800" fill="white" stroke="#111" stroke-width="3" paint-order="stroke">59</text>
<circle cx="797.9" cy="651.6" r="18.9" fill="white" fill-opacity="0.84"/>
<circle cx="797.9" cy="651.6" r="15.9" fill="#FF8A00" fill-opacity="0.66" stroke="#111" stroke-width="2.5"/>
<text x="797.9" y="658.6" text-anchor="middle" font-family="Arial, Helvetica, sans-serif" font-size="21" font-weight="800" fill="white" stroke="#111" stroke-width="3" paint-order="stroke">60</text>
<circle cx="707.2" cy="675.3" r="17.7" fill="white" fill-opacity="0.84"/>
<circle cx="707.2" cy="675.3" r="14.7" fill="#FF8A00" fill-opacity="0.66" stroke="#111" stroke-width="2.5"/>
<text x="707.2" y="682.3" text-anchor="middle" font-family="Arial, Helvetica, sans-serif" font-size="21" font-weight="800" fill="white" stroke="#111" stroke-width="3" paint-order="stroke">61</text>
<circle cx="751.3" cy="666.1" r="17.4" fill="white" fill-opacity="0.84"/>
<circle cx="751.3" cy="666.1" r="14.4" fill="#FF8A00" fill-opacity="0.66" stroke="#111" stroke-width="2.5"/>
<text x="751.3" y="673.1" text-anchor="middle" font-family="Arial, Helvetica, sans-serif" font-size="21" font-weight="800" fill="white" stroke="#111" stroke-width="3" paint-order="stroke">62</text>
<circle cx="798.7" cy="656.8" r="23.5" fill="white" fill-opacity="0.84"/>
<circle cx="798.7" cy="656.8" r="20.5" fill="#FF8A00" fill-opacity="0.66" stroke="#111" stroke-width="2.5"/>
<text x="798.7" y="663.8" text-anchor="middle" font-family="Arial, Helvetica, sans-serif" font-size="21" font-weight="800" fill="white" stroke="#111" stroke-width="3" paint-order="stroke">63</text>
<circle cx="721.7" cy="649.6" r="17.6" fill="white" fill-opacity="0.84"/>
<circle cx="721.7" cy="649.6" r="14.6" fill="#FF8A00" fill-opacity="0.66" stroke="#111" stroke-width="2.5"/>
<text x="721.7" y="656.6" text-anchor="middle" font-family="Arial, Helvetica, sans-serif" font-size="21" font-weight="800" fill="white" stroke="#111" stroke-width="3" paint-order="stroke">64</text>
<rect x="16" y="1094" width="1120" height="168" rx="8" fill="white" fill-opacity="0.92" stroke="#111" stroke-opacity="0.22"/>
<text x="36.0" y="1128.0" font-family="Arial, Helvetica, sans-serif" font-size="24" font-weight="600" fill="#111">K09 / k09.asc block 14 | dress-1-2-l.png | RT 15045 ms | 64 fixations</text>
<text x="36.0" y="1159.0" font-family="Arial, Helvetica, sans-serif" font-size="24" font-weight="600" fill="#111">numbers show fixation order; dot size shows fixation duration</text>
<circle cx="42" cy="1198" r="11" fill="#005DFF" fill-opacity="0.64" stroke="#111" stroke-width="2"/>
<text x="62.0" y="1206.0" font-family="Arial, Helvetica, sans-serif" font-size="22" font-weight="500" fill="#111">blue: before speech onset</text>
<circle cx="42" cy="1232" r="11" fill="#FF8A00" fill-opacity="0.64" stroke="#111" stroke-width="2"/>
<text x="62.0" y="1240.0" font-family="Arial, Helvetica, sans-serif" font-size="22" font-weight="500" fill="#111">orange: first 2000 ms after onset</text>
</svg>
