<svg xmlns="http://www.w3.org/2000/svg" width="1920" height="1320" viewBox="0 0 1920 1320">
<image href="https://raw.githubusercontent.com/mkurg/koryak/main/stimuli/Animate-animate%20centered%20and%20flipped/scold-2-2-r.png" x="0" y="0" width="1920" height="1080" preserveAspectRatio="none"/>
<rect x="0" y="0" width="1920" height="1080" fill="none" stroke="#111" stroke-width="2"/>
<rect x="0" y="1080" width="1920" height="240" fill="#f7f7f7"/>
<rect x="970.0" y="100.0" width="850" height="850" fill="none" stroke="#00B8D9" stroke-width="6" stroke-dasharray="18 12"/>
<rect x="982.0" y="62.0" width="102.0" height="38" rx="6" fill="white" fill-opacity="0.86" stroke="#00B8D9" stroke-width="3"/>
<text x="992.0" y="88.0" font-family="Arial, Helvetica, sans-serif" font-size="24" font-weight="700" fill="#111">AGENT</text>
<rect x="40.0" y="100.0" width="850" height="850" fill="none" stroke="#FF3B8A" stroke-width="6" stroke-dasharray="18 12"/>
<rect x="52.0" y="62.0" width="134.0" height="38" rx="6" fill="white" fill-opacity="0.86" stroke="#FF3B8A" stroke-width="3"/>
<text x="62.0" y="88.0" font-family="Arial, Helvetica, sans-serif" font-size="24" font-weight="700" fill="#111">PATIENT</text>
<polyline points="790.8,448.1 804.0,339.2 842.0,347.3 619.4,351.3 1303.2,405.5 1171.3,392.0 1174.5,340.9 799.3,352.6 848.0,391.8 1356.2,337.5 1436.0,300.2 1437.5,181.2 1439.1,175.5 1439.2,183.8 1184.6,415.0 824.4,341.4 613.2,365.4 854.0,338.4 1167.7,355.6 1204.6,323.0 1414.4,291.0 1464.3,259.2 1465.4,224.0 1259.9,278.4 1275.9,182.3 1190.6,198.6 1290.1,194.8 1288.4,194.5 884.9,344.9 825.5,375.8 630.8,379.5 592.0,377.2 827.4,376.8 1345.4,215.3 1302.5,238.1 1195.0,334.1 1469.7,261.0 1455.6,162.6 1251.1,352.6 1226.0,295.2 1225.0,309.7 1228.5,292.8 1096.5,300.1 1126.7,214.5 1082.5,240.3 1038.9,214.3 1034.7,332.0 1054.5,220.9 934.7,220.9 915.9,282.9 840.7,345.1 858.6,223.8 833.5,288.7 885.9,181.8 1245.5,195.5 1234.9,241.2 1184.9,178.7 1217.8,415.6 1241.3,237.2 1187.7,330.9 1219.5,194.0 1234.6,245.0 1181.0,146.1 1179.1,210.7 1173.8,240.8 1184.5,170.4 1202.2,176.3 751.4,329.8 604.9,336.9 556.9,362.7 620.1,339.6 585.9,383.3 618.3,291.2 1264.5,308.4 1277.9,178.6 1196.4,316.8 1218.7,180.1 1211.8,173.5 1505.8,134.5 1514.8,138.2 1513.0,134.2 976.4,333.4 841.5,371.6 1193.5,180.0 1192.8,184.8" fill="none" stroke="#111" stroke-width="4" stroke-opacity="0.36" stroke-linejoin="round"/>
<circle cx="790.8" cy="448.1" r="16.0" fill="white" fill-opacity="0.84"/>
<circle cx="790.8" cy="448.1" r="13.0" fill="#005DFF" fill-opacity="0.66" stroke="#111" stroke-width="2.5"/>
<text x="790.8" y="455.1" text-anchor="middle" font-family="Arial, Helvetica, sans-serif" font-size="21" font-weight="800" fill="white" stroke="#111" stroke-width="3" paint-order="stroke">1</text>
<circle cx="804.0" cy="339.2" r="15.8" fill="white" fill-opacity="0.84"/>
<circle cx="804.0" cy="339.2" r="12.8" fill="#005DFF" fill-opacity="0.66" stroke="#111" stroke-width="2.5"/>
<text x="804.0" y="346.2" text-anchor="middle" font-family="Arial, Helvetica, sans-serif" font-size="21" font-weight="800" fill="white" stroke="#111" stroke-width="3" paint-order="stroke">2</text>
<circle cx="842.0" cy="347.3" r="17.5" fill="white" fill-opacity="0.84"/>
<circle cx="842.0" cy="347.3" r="14.5" fill="#005DFF" fill-opacity="0.66" stroke="#111" stroke-width="2.5"/>
<text x="842.0" y="354.3" text-anchor="middle" font-family="Arial, Helvetica, sans-serif" font-size="21" font-weight="800" fill="white" stroke="#111" stroke-width="3" paint-order="stroke">3</text>
<circle cx="619.4" cy="351.3" r="24.1" fill="white" fill-opacity="0.84"/>
<circle cx="619.4" cy="351.3" r="21.1" fill="#005DFF" fill-opacity="0.66" stroke="#111" stroke-width="2.5"/>
<text x="619.4" y="358.3" text-anchor="middle" font-family="Arial, Helvetica, sans-serif" font-size="21" font-weight="800" fill="white" stroke="#111" stroke-width="3" paint-order="stroke">4</text>
<circle cx="1303.2" cy="405.5" r="16.8" fill="white" fill-opacity="0.84"/>
<circle cx="1303.2" cy="405.5" r="13.8" fill="#005DFF" fill-opacity="0.66" stroke="#111" stroke-width="2.5"/>
<text x="1303.2" y="412.5" text-anchor="middle" font-family="Arial, Helvetica, sans-serif" font-size="21" font-weight="800" fill="white" stroke="#111" stroke-width="3" paint-order="stroke">5</text>
<circle cx="1171.3" cy="392.0" r="16.6" fill="white" fill-opacity="0.84"/>
<circle cx="1171.3" cy="392.0" r="13.6" fill="#005DFF" fill-opacity="0.66" stroke="#111" stroke-width="2.5"/>
<text x="1171.3" y="399.0" text-anchor="middle" font-family="Arial, Helvetica, sans-serif" font-size="21" font-weight="800" fill="white" stroke="#111" stroke-width="3" paint-order="stroke">6</text>
<circle cx="1174.5" cy="340.9" r="21.2" fill="white" fill-opacity="0.84"/>
<circle cx="1174.5" cy="340.9" r="18.2" fill="#005DFF" fill-opacity="0.66" stroke="#111" stroke-width="2.5"/>
<text x="1174.5" y="347.9" text-anchor="middle" font-family="Arial, Helvetica, sans-serif" font-size="21" font-weight="800" fill="white" stroke="#111" stroke-width="3" paint-order="stroke">7</text>
<circle cx="799.3" cy="352.6" r="17.0" fill="white" fill-opacity="0.84"/>
<circle cx="799.3" cy="352.6" r="14.0" fill="#005DFF" fill-opacity="0.66" stroke="#111" stroke-width="2.5"/>
<text x="799.3" y="359.6" text-anchor="middle" font-family="Arial, Helvetica, sans-serif" font-size="21" font-weight="800" fill="white" stroke="#111" stroke-width="3" paint-order="stroke">8</text>
<circle cx="848.0" cy="391.8" r="17.2" fill="white" fill-opacity="0.84"/>
<circle cx="848.0" cy="391.8" r="14.2" fill="#005DFF" fill-opacity="0.66" stroke="#111" stroke-width="2.5"/>
<text x="848.0" y="398.8" text-anchor="middle" font-family="Arial, Helvetica, sans-serif" font-size="21" font-weight="800" fill="white" stroke="#111" stroke-width="3" paint-order="stroke">9</text>
<circle cx="1356.2" cy="337.5" r="18.3" fill="white" fill-opacity="0.84"/>
<circle cx="1356.2" cy="337.5" r="15.3" fill="#005DFF" fill-opacity="0.66" stroke="#111" stroke-width="2.5"/>
<text x="1356.2" y="344.5" text-anchor="middle" font-family="Arial, Helvetica, sans-serif" font-size="21" font-weight="800" fill="white" stroke="#111" stroke-width="3" paint-order="stroke">10</text>
<circle cx="1436.0" cy="300.2" r="13.2" fill="white" fill-opacity="0.84"/>
<circle cx="1436.0" cy="300.2" r="10.2" fill="#005DFF" fill-opacity="0.66" stroke="#111" stroke-width="2.5"/>
<text x="1436.0" y="307.2" text-anchor="middle" font-family="Arial, Helvetica, sans-serif" font-size="21" font-weight="800" fill="white" stroke="#111" stroke-width="3" paint-order="stroke">11</text>
<circle cx="1437.5" cy="181.2" r="17.1" fill="white" fill-opacity="0.84"/>
<circle cx="1437.5" cy="181.2" r="14.1" fill="#005DFF" fill-opacity="0.66" stroke="#111" stroke-width="2.5"/>
<text x="1437.5" y="188.2" text-anchor="middle" font-family="Arial, Helvetica, sans-serif" font-size="21" font-weight="800" fill="white" stroke="#111" stroke-width="3" paint-order="stroke">12</text>
<circle cx="1439.1" cy="175.5" r="11.8" fill="white" fill-opacity="0.84"/>
<circle cx="1439.1" cy="175.5" r="8.8" fill="#005DFF" fill-opacity="0.66" stroke="#111" stroke-width="2.5"/>
<text x="1439.1" y="182.5" text-anchor="middle" font-family="Arial, Helvetica, sans-serif" font-size="21" font-weight="800" fill="white" stroke="#111" stroke-width="3" paint-order="stroke">13</text>
<circle cx="1439.2" cy="183.8" r="11.9" fill="white" fill-opacity="0.84"/>
<circle cx="1439.2" cy="183.8" r="8.9" fill="#005DFF" fill-opacity="0.66" stroke="#111" stroke-width="2.5"/>
<text x="1439.2" y="190.8" text-anchor="middle" font-family="Arial, Helvetica, sans-serif" font-size="21" font-weight="800" fill="white" stroke="#111" stroke-width="3" paint-order="stroke">14</text>
<circle cx="1184.6" cy="415.0" r="25.0" fill="white" fill-opacity="0.84"/>
<circle cx="1184.6" cy="415.0" r="22.0" fill="#005DFF" fill-opacity="0.66" stroke="#111" stroke-width="2.5"/>
<text x="1184.6" y="422.0" text-anchor="middle" font-family="Arial, Helvetica, sans-serif" font-size="21" font-weight="800" fill="white" stroke="#111" stroke-width="3" paint-order="stroke">15</text>
<circle cx="824.4" cy="341.4" r="17.9" fill="white" fill-opacity="0.84"/>
<circle cx="824.4" cy="341.4" r="14.9" fill="#005DFF" fill-opacity="0.66" stroke="#111" stroke-width="2.5"/>
<text x="824.4" y="348.4" text-anchor="middle" font-family="Arial, Helvetica, sans-serif" font-size="21" font-weight="800" fill="white" stroke="#111" stroke-width="3" paint-order="stroke">16</text>
<circle cx="613.2" cy="365.4" r="22.2" fill="white" fill-opacity="0.84"/>
<circle cx="613.2" cy="365.4" r="19.2" fill="#005DFF" fill-opacity="0.66" stroke="#111" stroke-width="2.5"/>
<text x="613.2" y="372.4" text-anchor="middle" font-family="Arial, Helvetica, sans-serif" font-size="21" font-weight="800" fill="white" stroke="#111" stroke-width="3" paint-order="stroke">17</text>
<circle cx="854.0" cy="338.4" r="17.2" fill="white" fill-opacity="0.84"/>
<circle cx="854.0" cy="338.4" r="14.2" fill="#005DFF" fill-opacity="0.66" stroke="#111" stroke-width="2.5"/>
<text x="854.0" y="345.4" text-anchor="middle" font-family="Arial, Helvetica, sans-serif" font-size="21" font-weight="800" fill="white" stroke="#111" stroke-width="3" paint-order="stroke">18</text>
<circle cx="1167.7" cy="355.6" r="19.4" fill="white" fill-opacity="0.84"/>
<circle cx="1167.7" cy="355.6" r="16.4" fill="#005DFF" fill-opacity="0.66" stroke="#111" stroke-width="2.5"/>
<text x="1167.7" y="362.6" text-anchor="middle" font-family="Arial, Helvetica, sans-serif" font-size="21" font-weight="800" fill="white" stroke="#111" stroke-width="3" paint-order="stroke">19</text>
<circle cx="1204.6" cy="323.0" r="18.3" fill="white" fill-opacity="0.84"/>
<circle cx="1204.6" cy="323.0" r="15.3" fill="#005DFF" fill-opacity="0.66" stroke="#111" stroke-width="2.5"/>
<text x="1204.6" y="330.0" text-anchor="middle" font-family="Arial, Helvetica, sans-serif" font-size="21" font-weight="800" fill="white" stroke="#111" stroke-width="3" paint-order="stroke">20</text>
<circle cx="1414.4" cy="291.0" r="15.6" fill="white" fill-opacity="0.84"/>
<circle cx="1414.4" cy="291.0" r="12.6" fill="#005DFF" fill-opacity="0.66" stroke="#111" stroke-width="2.5"/>
<text x="1414.4" y="298.0" text-anchor="middle" font-family="Arial, Helvetica, sans-serif" font-size="21" font-weight="800" fill="white" stroke="#111" stroke-width="3" paint-order="stroke">21</text>
<circle cx="1464.3" cy="259.2" r="11.8" fill="white" fill-opacity="0.84"/>
<circle cx="1464.3" cy="259.2" r="8.8" fill="#005DFF" fill-opacity="0.66" stroke="#111" stroke-width="2.5"/>
<text x="1464.3" y="266.2" text-anchor="middle" font-family="Arial, Helvetica, sans-serif" font-size="21" font-weight="800" fill="white" stroke="#111" stroke-width="3" paint-order="stroke">22</text>
<circle cx="1465.4" cy="224.0" r="18.4" fill="white" fill-opacity="0.84"/>
<circle cx="1465.4" cy="224.0" r="15.4" fill="#005DFF" fill-opacity="0.66" stroke="#111" stroke-width="2.5"/>
<text x="1465.4" y="231.0" text-anchor="middle" font-family="Arial, Helvetica, sans-serif" font-size="21" font-weight="800" fill="white" stroke="#111" stroke-width="3" paint-order="stroke">23</text>
<circle cx="1259.9" cy="278.4" r="13.7" fill="white" fill-opacity="0.84"/>
<circle cx="1259.9" cy="278.4" r="10.7" fill="#005DFF" fill-opacity="0.66" stroke="#111" stroke-width="2.5"/>
<text x="1259.9" y="285.4" text-anchor="middle" font-family="Arial, Helvetica, sans-serif" font-size="21" font-weight="800" fill="white" stroke="#111" stroke-width="3" paint-order="stroke">24</text>
<circle cx="1275.9" cy="182.3" r="12.4" fill="white" fill-opacity="0.84"/>
<circle cx="1275.9" cy="182.3" r="9.4" fill="#005DFF" fill-opacity="0.66" stroke="#111" stroke-width="2.5"/>
<text x="1275.9" y="189.3" text-anchor="middle" font-family="Arial, Helvetica, sans-serif" font-size="21" font-weight="800" fill="white" stroke="#111" stroke-width="3" paint-order="stroke">25</text>
<circle cx="1190.6" cy="198.6" r="20.6" fill="white" fill-opacity="0.84"/>
<circle cx="1190.6" cy="198.6" r="17.6" fill="#005DFF" fill-opacity="0.66" stroke="#111" stroke-width="2.5"/>
<text x="1190.6" y="205.6" text-anchor="middle" font-family="Arial, Helvetica, sans-serif" font-size="21" font-weight="800" fill="white" stroke="#111" stroke-width="3" paint-order="stroke">26</text>
<circle cx="1290.1" cy="194.8" r="12.1" fill="white" fill-opacity="0.84"/>
<circle cx="1290.1" cy="194.8" r="9.1" fill="#005DFF" fill-opacity="0.66" stroke="#111" stroke-width="2.5"/>
<text x="1290.1" y="201.8" text-anchor="middle" font-family="Arial, Helvetica, sans-serif" font-size="21" font-weight="800" fill="white" stroke="#111" stroke-width="3" paint-order="stroke">27</text>
<circle cx="1288.4" cy="194.5" r="17.6" fill="white" fill-opacity="0.84"/>
<circle cx="1288.4" cy="194.5" r="14.6" fill="#005DFF" fill-opacity="0.66" stroke="#111" stroke-width="2.5"/>
<text x="1288.4" y="201.5" text-anchor="middle" font-family="Arial, Helvetica, sans-serif" font-size="21" font-weight="800" fill="white" stroke="#111" stroke-width="3" paint-order="stroke">28</text>
<circle cx="884.9" cy="344.9" r="16.6" fill="white" fill-opacity="0.84"/>
<circle cx="884.9" cy="344.9" r="13.6" fill="#005DFF" fill-opacity="0.66" stroke="#111" stroke-width="2.5"/>
<text x="884.9" y="351.9" text-anchor="middle" font-family="Arial, Helvetica, sans-serif" font-size="21" font-weight="800" fill="white" stroke="#111" stroke-width="3" paint-order="stroke">29</text>
<circle cx="825.5" cy="375.8" r="16.7" fill="white" fill-opacity="0.84"/>
<circle cx="825.5" cy="375.8" r="13.7" fill="#005DFF" fill-opacity="0.66" stroke="#111" stroke-width="2.5"/>
<text x="825.5" y="382.8" text-anchor="middle" font-family="Arial, Helvetica, sans-serif" font-size="21" font-weight="800" fill="white" stroke="#111" stroke-width="3" paint-order="stroke">30</text>
<circle cx="630.8" cy="379.5" r="18.7" fill="white" fill-opacity="0.84"/>
<circle cx="630.8" cy="379.5" r="15.7" fill="#005DFF" fill-opacity="0.66" stroke="#111" stroke-width="2.5"/>
<text x="630.8" y="386.5" text-anchor="middle" font-family="Arial, Helvetica, sans-serif" font-size="21" font-weight="800" fill="white" stroke="#111" stroke-width="3" paint-order="stroke">31</text>
<circle cx="592.0" cy="377.2" r="20.3" fill="white" fill-opacity="0.84"/>
<circle cx="592.0" cy="377.2" r="17.3" fill="#005DFF" fill-opacity="0.66" stroke="#111" stroke-width="2.5"/>
<text x="592.0" y="384.2" text-anchor="middle" font-family="Arial, Helvetica, sans-serif" font-size="21" font-weight="800" fill="white" stroke="#111" stroke-width="3" paint-order="stroke">32</text>
<circle cx="827.4" cy="376.8" r="19.6" fill="white" fill-opacity="0.84"/>
<circle cx="827.4" cy="376.8" r="16.6" fill="#005DFF" fill-opacity="0.66" stroke="#111" stroke-width="2.5"/>
<text x="827.4" y="383.8" text-anchor="middle" font-family="Arial, Helvetica, sans-serif" font-size="21" font-weight="800" fill="white" stroke="#111" stroke-width="3" paint-order="stroke">33</text>
<circle cx="1345.4" cy="215.3" r="13.4" fill="white" fill-opacity="0.84"/>
<circle cx="1345.4" cy="215.3" r="10.4" fill="#005DFF" fill-opacity="0.66" stroke="#111" stroke-width="2.5"/>
<text x="1345.4" y="222.3" text-anchor="middle" font-family="Arial, Helvetica, sans-serif" font-size="21" font-weight="800" fill="white" stroke="#111" stroke-width="3" paint-order="stroke">34</text>
<circle cx="1302.5" cy="238.1" r="14.6" fill="white" fill-opacity="0.84"/>
<circle cx="1302.5" cy="238.1" r="11.6" fill="#005DFF" fill-opacity="0.66" stroke="#111" stroke-width="2.5"/>
<text x="1302.5" y="245.1" text-anchor="middle" font-family="Arial, Helvetica, sans-serif" font-size="21" font-weight="800" fill="white" stroke="#111" stroke-width="3" paint-order="stroke">35</text>
<circle cx="1195.0" cy="334.1" r="19.2" fill="white" fill-opacity="0.84"/>
<circle cx="1195.0" cy="334.1" r="16.2" fill="#005DFF" fill-opacity="0.66" stroke="#111" stroke-width="2.5"/>
<text x="1195.0" y="341.1" text-anchor="middle" font-family="Arial, Helvetica, sans-serif" font-size="21" font-weight="800" fill="white" stroke="#111" stroke-width="3" paint-order="stroke">36</text>
<circle cx="1469.7" cy="261.0" r="15.8" fill="white" fill-opacity="0.84"/>
<circle cx="1469.7" cy="261.0" r="12.8" fill="#005DFF" fill-opacity="0.66" stroke="#111" stroke-width="2.5"/>
<text x="1469.7" y="268.0" text-anchor="middle" font-family="Arial, Helvetica, sans-serif" font-size="21" font-weight="800" fill="white" stroke="#111" stroke-width="3" paint-order="stroke">37</text>
<circle cx="1455.6" cy="162.6" r="13.9" fill="white" fill-opacity="0.84"/>
<circle cx="1455.6" cy="162.6" r="10.9" fill="#005DFF" fill-opacity="0.66" stroke="#111" stroke-width="2.5"/>
<text x="1455.6" y="169.6" text-anchor="middle" font-family="Arial, Helvetica, sans-serif" font-size="21" font-weight="800" fill="white" stroke="#111" stroke-width="3" paint-order="stroke">38</text>
<circle cx="1251.1" cy="352.6" r="14.4" fill="white" fill-opacity="0.84"/>
<circle cx="1251.1" cy="352.6" r="11.4" fill="#005DFF" fill-opacity="0.66" stroke="#111" stroke-width="2.5"/>
<text x="1251.1" y="359.6" text-anchor="middle" font-family="Arial, Helvetica, sans-serif" font-size="21" font-weight="800" fill="white" stroke="#111" stroke-width="3" paint-order="stroke">39</text>
<circle cx="1226.0" cy="295.2" r="15.4" fill="white" fill-opacity="0.84"/>
<circle cx="1226.0" cy="295.2" r="12.4" fill="#005DFF" fill-opacity="0.66" stroke="#111" stroke-width="2.5"/>
<text x="1226.0" y="302.2" text-anchor="middle" font-family="Arial, Helvetica, sans-serif" font-size="21" font-weight="800" fill="white" stroke="#111" stroke-width="3" paint-order="stroke">40</text>
<circle cx="1225.0" cy="309.7" r="12.9" fill="white" fill-opacity="0.84"/>
<circle cx="1225.0" cy="309.7" r="9.9" fill="#005DFF" fill-opacity="0.66" stroke="#111" stroke-width="2.5"/>
<text x="1225.0" y="316.7" text-anchor="middle" font-family="Arial, Helvetica, sans-serif" font-size="21" font-weight="800" fill="white" stroke="#111" stroke-width="3" paint-order="stroke">41</text>
<circle cx="1228.5" cy="292.8" r="16.0" fill="white" fill-opacity="0.84"/>
<circle cx="1228.5" cy="292.8" r="13.0" fill="#005DFF" fill-opacity="0.66" stroke="#111" stroke-width="2.5"/>
<text x="1228.5" y="299.8" text-anchor="middle" font-family="Arial, Helvetica, sans-serif" font-size="21" font-weight="800" fill="white" stroke="#111" stroke-width="3" paint-order="stroke">42</text>
<circle cx="1096.5" cy="300.1" r="20.9" fill="white" fill-opacity="0.84"/>
<circle cx="1096.5" cy="300.1" r="17.9" fill="#005DFF" fill-opacity="0.66" stroke="#111" stroke-width="2.5"/>
<text x="1096.5" y="307.1" text-anchor="middle" font-family="Arial, Helvetica, sans-serif" font-size="21" font-weight="800" fill="white" stroke="#111" stroke-width="3" paint-order="stroke">43</text>
<circle cx="1126.7" cy="214.5" r="20.0" fill="white" fill-opacity="0.84"/>
<circle cx="1126.7" cy="214.5" r="17.0" fill="#005DFF" fill-opacity="0.66" stroke="#111" stroke-width="2.5"/>
<text x="1126.7" y="221.5" text-anchor="middle" font-family="Arial, Helvetica, sans-serif" font-size="21" font-weight="800" fill="white" stroke="#111" stroke-width="3" paint-order="stroke">44</text>
<circle cx="1082.5" cy="240.3" r="16.4" fill="white" fill-opacity="0.84"/>
<circle cx="1082.5" cy="240.3" r="13.4" fill="#005DFF" fill-opacity="0.66" stroke="#111" stroke-width="2.5"/>
<text x="1082.5" y="247.3" text-anchor="middle" font-family="Arial, Helvetica, sans-serif" font-size="21" font-weight="800" fill="white" stroke="#111" stroke-width="3" paint-order="stroke">45</text>
<circle cx="1038.9" cy="214.3" r="13.6" fill="white" fill-opacity="0.84"/>
<circle cx="1038.9" cy="214.3" r="10.6" fill="#005DFF" fill-opacity="0.66" stroke="#111" stroke-width="2.5"/>
<text x="1038.9" y="221.3" text-anchor="middle" font-family="Arial, Helvetica, sans-serif" font-size="21" font-weight="800" fill="white" stroke="#111" stroke-width="3" paint-order="stroke">46</text>
<circle cx="1034.7" cy="332.0" r="11.8" fill="white" fill-opacity="0.84"/>
<circle cx="1034.7" cy="332.0" r="8.8" fill="#005DFF" fill-opacity="0.66" stroke="#111" stroke-width="2.5"/>
<text x="1034.7" y="339.0" text-anchor="middle" font-family="Arial, Helvetica, sans-serif" font-size="21" font-weight="800" fill="white" stroke="#111" stroke-width="3" paint-order="stroke">47</text>
<circle cx="1054.5" cy="220.9" r="20.3" fill="white" fill-opacity="0.84"/>
<circle cx="1054.5" cy="220.9" r="17.3" fill="#005DFF" fill-opacity="0.66" stroke="#111" stroke-width="2.5"/>
<text x="1054.5" y="227.9" text-anchor="middle" font-family="Arial, Helvetica, sans-serif" font-size="21" font-weight="800" fill="white" stroke="#111" stroke-width="3" paint-order="stroke">48</text>
<circle cx="934.7" cy="220.9" r="13.9" fill="white" fill-opacity="0.84"/>
<circle cx="934.7" cy="220.9" r="10.9" fill="#005DFF" fill-opacity="0.66" stroke="#111" stroke-width="2.5"/>
<text x="934.7" y="227.9" text-anchor="middle" font-family="Arial, Helvetica, sans-serif" font-size="21" font-weight="800" fill="white" stroke="#111" stroke-width="3" paint-order="stroke">49</text>
<circle cx="915.9" cy="282.9" r="11.9" fill="white" fill-opacity="0.84"/>
<circle cx="915.9" cy="282.9" r="8.9" fill="#005DFF" fill-opacity="0.66" stroke="#111" stroke-width="2.5"/>
<text x="915.9" y="289.9" text-anchor="middle" font-family="Arial, Helvetica, sans-serif" font-size="21" font-weight="800" fill="white" stroke="#111" stroke-width="3" paint-order="stroke">50</text>
<circle cx="840.7" cy="345.1" r="14.4" fill="white" fill-opacity="0.84"/>
<circle cx="840.7" cy="345.1" r="11.4" fill="#005DFF" fill-opacity="0.66" stroke="#111" stroke-width="2.5"/>
<text x="840.7" y="352.1" text-anchor="middle" font-family="Arial, Helvetica, sans-serif" font-size="21" font-weight="800" fill="white" stroke="#111" stroke-width="3" paint-order="stroke">51</text>
<circle cx="858.6" cy="223.8" r="12.3" fill="white" fill-opacity="0.84"/>
<circle cx="858.6" cy="223.8" r="9.3" fill="#005DFF" fill-opacity="0.66" stroke="#111" stroke-width="2.5"/>
<text x="858.6" y="230.8" text-anchor="middle" font-family="Arial, Helvetica, sans-serif" font-size="21" font-weight="800" fill="white" stroke="#111" stroke-width="3" paint-order="stroke">52</text>
<circle cx="833.5" cy="288.7" r="20.0" fill="white" fill-opacity="0.84"/>
<circle cx="833.5" cy="288.7" r="17.0" fill="#005DFF" fill-opacity="0.66" stroke="#111" stroke-width="2.5"/>
<text x="833.5" y="295.7" text-anchor="middle" font-family="Arial, Helvetica, sans-serif" font-size="21" font-weight="800" fill="white" stroke="#111" stroke-width="3" paint-order="stroke">53</text>
<circle cx="885.9" cy="181.8" r="15.8" fill="white" fill-opacity="0.84"/>
<circle cx="885.9" cy="181.8" r="12.8" fill="#005DFF" fill-opacity="0.66" stroke="#111" stroke-width="2.5"/>
<text x="885.9" y="188.8" text-anchor="middle" font-family="Arial, Helvetica, sans-serif" font-size="21" font-weight="800" fill="white" stroke="#111" stroke-width="3" paint-order="stroke">54</text>
<circle cx="1245.5" cy="195.5" r="20.3" fill="white" fill-opacity="0.84"/>
<circle cx="1245.5" cy="195.5" r="17.3" fill="#005DFF" fill-opacity="0.66" stroke="#111" stroke-width="2.5"/>
<text x="1245.5" y="202.5" text-anchor="middle" font-family="Arial, Helvetica, sans-serif" font-size="21" font-weight="800" fill="white" stroke="#111" stroke-width="3" paint-order="stroke">55</text>
<circle cx="1234.9" cy="241.2" r="12.6" fill="white" fill-opacity="0.84"/>
<circle cx="1234.9" cy="241.2" r="9.6" fill="#005DFF" fill-opacity="0.66" stroke="#111" stroke-width="2.5"/>
<text x="1234.9" y="248.2" text-anchor="middle" font-family="Arial, Helvetica, sans-serif" font-size="21" font-weight="800" fill="white" stroke="#111" stroke-width="3" paint-order="stroke">56</text>
<circle cx="1184.9" cy="178.7" r="15.9" fill="white" fill-opacity="0.84"/>
<circle cx="1184.9" cy="178.7" r="12.9" fill="#005DFF" fill-opacity="0.66" stroke="#111" stroke-width="2.5"/>
<text x="1184.9" y="185.7" text-anchor="middle" font-family="Arial, Helvetica, sans-serif" font-size="21" font-weight="800" fill="white" stroke="#111" stroke-width="3" paint-order="stroke">57</text>
<circle cx="1217.8" cy="415.6" r="11.6" fill="white" fill-opacity="0.84"/>
<circle cx="1217.8" cy="415.6" r="8.6" fill="#005DFF" fill-opacity="0.66" stroke="#111" stroke-width="2.5"/>
<text x="1217.8" y="422.6" text-anchor="middle" font-family="Arial, Helvetica, sans-serif" font-size="21" font-weight="800" fill="white" stroke="#111" stroke-width="3" paint-order="stroke">58</text>
<circle cx="1241.3" cy="237.2" r="15.4" fill="white" fill-opacity="0.84"/>
<circle cx="1241.3" cy="237.2" r="12.4" fill="#005DFF" fill-opacity="0.66" stroke="#111" stroke-width="2.5"/>
<text x="1241.3" y="244.2" text-anchor="middle" font-family="Arial, Helvetica, sans-serif" font-size="21" font-weight="800" fill="white" stroke="#111" stroke-width="3" paint-order="stroke">59</text>
<circle cx="1187.7" cy="330.9" r="12.4" fill="white" fill-opacity="0.84"/>
<circle cx="1187.7" cy="330.9" r="9.4" fill="#005DFF" fill-opacity="0.66" stroke="#111" stroke-width="2.5"/>
<text x="1187.7" y="337.9" text-anchor="middle" font-family="Arial, Helvetica, sans-serif" font-size="21" font-weight="800" fill="white" stroke="#111" stroke-width="3" paint-order="stroke">60</text>
<circle cx="1219.5" cy="194.0" r="11.6" fill="white" fill-opacity="0.84"/>
<circle cx="1219.5" cy="194.0" r="8.6" fill="#005DFF" fill-opacity="0.66" stroke="#111" stroke-width="2.5"/>
<text x="1219.5" y="201.0" text-anchor="middle" font-family="Arial, Helvetica, sans-serif" font-size="21" font-weight="800" fill="white" stroke="#111" stroke-width="3" paint-order="stroke">61</text>
<circle cx="1234.6" cy="245.0" r="12.2" fill="white" fill-opacity="0.84"/>
<circle cx="1234.6" cy="245.0" r="9.2" fill="#005DFF" fill-opacity="0.66" stroke="#111" stroke-width="2.5"/>
<text x="1234.6" y="252.0" text-anchor="middle" font-family="Arial, Helvetica, sans-serif" font-size="21" font-weight="800" fill="white" stroke="#111" stroke-width="3" paint-order="stroke">62</text>
<circle cx="1181.0" cy="146.1" r="13.2" fill="white" fill-opacity="0.84"/>
<circle cx="1181.0" cy="146.1" r="10.2" fill="#005DFF" fill-opacity="0.66" stroke="#111" stroke-width="2.5"/>
<text x="1181.0" y="153.1" text-anchor="middle" font-family="Arial, Helvetica, sans-serif" font-size="21" font-weight="800" fill="white" stroke="#111" stroke-width="3" paint-order="stroke">63</text>
<circle cx="1179.1" cy="210.7" r="12.2" fill="white" fill-opacity="0.84"/>
<circle cx="1179.1" cy="210.7" r="9.2" fill="#005DFF" fill-opacity="0.66" stroke="#111" stroke-width="2.5"/>
<text x="1179.1" y="217.7" text-anchor="middle" font-family="Arial, Helvetica, sans-serif" font-size="21" font-weight="800" fill="white" stroke="#111" stroke-width="3" paint-order="stroke">64</text>
<circle cx="1173.8" cy="240.8" r="14.1" fill="white" fill-opacity="0.84"/>
<circle cx="1173.8" cy="240.8" r="11.1" fill="#005DFF" fill-opacity="0.66" stroke="#111" stroke-width="2.5"/>
<text x="1173.8" y="247.8" text-anchor="middle" font-family="Arial, Helvetica, sans-serif" font-size="21" font-weight="800" fill="white" stroke="#111" stroke-width="3" paint-order="stroke">65</text>
<circle cx="1184.5" cy="170.4" r="12.6" fill="white" fill-opacity="0.84"/>
<circle cx="1184.5" cy="170.4" r="9.6" fill="#005DFF" fill-opacity="0.66" stroke="#111" stroke-width="2.5"/>
<text x="1184.5" y="177.4" text-anchor="middle" font-family="Arial, Helvetica, sans-serif" font-size="21" font-weight="800" fill="white" stroke="#111" stroke-width="3" paint-order="stroke">66</text>
<circle cx="1202.2" cy="176.3" r="23.6" fill="white" fill-opacity="0.84"/>
<circle cx="1202.2" cy="176.3" r="20.6" fill="#005DFF" fill-opacity="0.66" stroke="#111" stroke-width="2.5"/>
<text x="1202.2" y="183.3" text-anchor="middle" font-family="Arial, Helvetica, sans-serif" font-size="21" font-weight="800" fill="white" stroke="#111" stroke-width="3" paint-order="stroke">67</text>
<circle cx="751.4" cy="329.8" r="16.6" fill="white" fill-opacity="0.84"/>
<circle cx="751.4" cy="329.8" r="13.6" fill="#005DFF" fill-opacity="0.66" stroke="#111" stroke-width="2.5"/>
<text x="751.4" y="336.8" text-anchor="middle" font-family="Arial, Helvetica, sans-serif" font-size="21" font-weight="800" fill="white" stroke="#111" stroke-width="3" paint-order="stroke">68</text>
<circle cx="604.9" cy="336.9" r="20.4" fill="white" fill-opacity="0.84"/>
<circle cx="604.9" cy="336.9" r="17.4" fill="#005DFF" fill-opacity="0.66" stroke="#111" stroke-width="2.5"/>
<text x="604.9" y="343.9" text-anchor="middle" font-family="Arial, Helvetica, sans-serif" font-size="21" font-weight="800" fill="white" stroke="#111" stroke-width="3" paint-order="stroke">69</text>
<circle cx="556.9" cy="362.7" r="20.6" fill="white" fill-opacity="0.84"/>
<circle cx="556.9" cy="362.7" r="17.6" fill="#005DFF" fill-opacity="0.66" stroke="#111" stroke-width="2.5"/>
<text x="556.9" y="369.7" text-anchor="middle" font-family="Arial, Helvetica, sans-serif" font-size="21" font-weight="800" fill="white" stroke="#111" stroke-width="3" paint-order="stroke">70</text>
<circle cx="620.1" cy="339.6" r="14.8" fill="white" fill-opacity="0.84"/>
<circle cx="620.1" cy="339.6" r="11.8" fill="#005DFF" fill-opacity="0.66" stroke="#111" stroke-width="2.5"/>
<text x="620.1" y="346.6" text-anchor="middle" font-family="Arial, Helvetica, sans-serif" font-size="21" font-weight="800" fill="white" stroke="#111" stroke-width="3" paint-order="stroke">71</text>
<circle cx="585.9" cy="383.3" r="17.4" fill="white" fill-opacity="0.84"/>
<circle cx="585.9" cy="383.3" r="14.4" fill="#005DFF" fill-opacity="0.66" stroke="#111" stroke-width="2.5"/>
<text x="585.9" y="390.3" text-anchor="middle" font-family="Arial, Helvetica, sans-serif" font-size="21" font-weight="800" fill="white" stroke="#111" stroke-width="3" paint-order="stroke">72</text>
<circle cx="618.3" cy="291.2" r="18.5" fill="white" fill-opacity="0.84"/>
<circle cx="618.3" cy="291.2" r="15.5" fill="#005DFF" fill-opacity="0.66" stroke="#111" stroke-width="2.5"/>
<text x="618.3" y="298.2" text-anchor="middle" font-family="Arial, Helvetica, sans-serif" font-size="21" font-weight="800" fill="white" stroke="#111" stroke-width="3" paint-order="stroke">73</text>
<circle cx="1264.5" cy="308.4" r="14.3" fill="white" fill-opacity="0.84"/>
<circle cx="1264.5" cy="308.4" r="11.3" fill="#005DFF" fill-opacity="0.66" stroke="#111" stroke-width="2.5"/>
<text x="1264.5" y="315.4" text-anchor="middle" font-family="Arial, Helvetica, sans-serif" font-size="21" font-weight="800" fill="white" stroke="#111" stroke-width="3" paint-order="stroke">74</text>
<circle cx="1277.9" cy="178.6" r="12.0" fill="white" fill-opacity="0.84"/>
<circle cx="1277.9" cy="178.6" r="9.0" fill="#005DFF" fill-opacity="0.66" stroke="#111" stroke-width="2.5"/>
<text x="1277.9" y="185.6" text-anchor="middle" font-family="Arial, Helvetica, sans-serif" font-size="21" font-weight="800" fill="white" stroke="#111" stroke-width="3" paint-order="stroke">75</text>
<circle cx="1196.4" cy="316.8" r="19.3" fill="white" fill-opacity="0.84"/>
<circle cx="1196.4" cy="316.8" r="16.3" fill="#005DFF" fill-opacity="0.66" stroke="#111" stroke-width="2.5"/>
<text x="1196.4" y="323.8" text-anchor="middle" font-family="Arial, Helvetica, sans-serif" font-size="21" font-weight="800" fill="white" stroke="#111" stroke-width="3" paint-order="stroke">76</text>
<circle cx="1218.7" cy="180.1" r="16.1" fill="white" fill-opacity="0.84"/>
<circle cx="1218.7" cy="180.1" r="13.1" fill="#005DFF" fill-opacity="0.66" stroke="#111" stroke-width="2.5"/>
<text x="1218.7" y="187.1" text-anchor="middle" font-family="Arial, Helvetica, sans-serif" font-size="21" font-weight="800" fill="white" stroke="#111" stroke-width="3" paint-order="stroke">77</text>
<circle cx="1211.8" cy="173.5" r="18.4" fill="white" fill-opacity="0.84"/>
<circle cx="1211.8" cy="173.5" r="15.4" fill="#005DFF" fill-opacity="0.66" stroke="#111" stroke-width="2.5"/>
<text x="1211.8" y="180.5" text-anchor="middle" font-family="Arial, Helvetica, sans-serif" font-size="21" font-weight="800" fill="white" stroke="#111" stroke-width="3" paint-order="stroke">78</text>
<circle cx="1505.8" cy="134.5" r="14.2" fill="white" fill-opacity="0.84"/>
<circle cx="1505.8" cy="134.5" r="11.2" fill="#FF8A00" fill-opacity="0.66" stroke="#111" stroke-width="2.5"/>
<text x="1505.8" y="141.5" text-anchor="middle" font-family="Arial, Helvetica, sans-serif" font-size="21" font-weight="800" fill="white" stroke="#111" stroke-width="3" paint-order="stroke">79</text>
<circle cx="1514.8" cy="138.2" r="13.1" fill="white" fill-opacity="0.84"/>
<circle cx="1514.8" cy="138.2" r="10.1" fill="#FF8A00" fill-opacity="0.66" stroke="#111" stroke-width="2.5"/>
<text x="1514.8" y="145.2" text-anchor="middle" font-family="Arial, Helvetica, sans-serif" font-size="21" font-weight="800" fill="white" stroke="#111" stroke-width="3" paint-order="stroke">80</text>
<circle cx="1513.0" cy="134.2" r="11.6" fill="white" fill-opacity="0.84"/>
<circle cx="1513.0" cy="134.2" r="8.6" fill="#FF8A00" fill-opacity="0.66" stroke="#111" stroke-width="2.5"/>
<text x="1513.0" y="141.2" text-anchor="middle" font-family="Arial, Helvetica, sans-serif" font-size="21" font-weight="800" fill="white" stroke="#111" stroke-width="3" paint-order="stroke">81</text>
<circle cx="976.4" cy="333.4" r="14.8" fill="white" fill-opacity="0.84"/>
<circle cx="976.4" cy="333.4" r="11.8" fill="#FF8A00" fill-opacity="0.66" stroke="#111" stroke-width="2.5"/>
<text x="976.4" y="340.4" text-anchor="middle" font-family="Arial, Helvetica, sans-serif" font-size="21" font-weight="800" fill="white" stroke="#111" stroke-width="3" paint-order="stroke">82</text>
<circle cx="841.5" cy="371.6" r="21.2" fill="white" fill-opacity="0.84"/>
<circle cx="841.5" cy="371.6" r="18.2" fill="#FF8A00" fill-opacity="0.66" stroke="#111" stroke-width="2.5"/>
<text x="841.5" y="378.6" text-anchor="middle" font-family="Arial, Helvetica, sans-serif" font-size="21" font-weight="800" fill="white" stroke="#111" stroke-width="3" paint-order="stroke">83</text>
<circle cx="1193.5" cy="180.0" r="15.4" fill="white" fill-opacity="0.84"/>
<circle cx="1193.5" cy="180.0" r="12.4" fill="#FF8A00" fill-opacity="0.66" stroke="#111" stroke-width="2.5"/>
<text x="1193.5" y="187.0" text-anchor="middle" font-family="Arial, Helvetica, sans-serif" font-size="21" font-weight="800" fill="white" stroke="#111" stroke-width="3" paint-order="stroke">84</text>
<circle cx="1192.8" cy="184.8" r="18.7" fill="white" fill-opacity="0.84"/>
<circle cx="1192.8" cy="184.8" r="15.7" fill="#FF8A00" fill-opacity="0.66" stroke="#111" stroke-width="2.5"/>
<text x="1192.8" y="191.8" text-anchor="middle" font-family="Arial, Helvetica, sans-serif" font-size="21" font-weight="800" fill="white" stroke="#111" stroke-width="3" paint-order="stroke">85</text>
<rect x="16" y="1094" width="1120" height="168" rx="8" fill="white" fill-opacity="0.92" stroke="#111" stroke-opacity="0.22"/>
<text x="36.0" y="1128.0" font-family="Arial, Helvetica, sans-serif" font-size="24" font-weight="600" fill="#111">K10 / k10_1.asc block 34 | scold-2-2-r.png | RT 27590 ms | 85 fixations</text>
<text x="36.0" y="1159.0" font-family="Arial, Helvetica, sans-serif" font-size="24" font-weight="600" fill="#111">numbers show fixation order; dot size shows fixation duration</text>
<circle cx="42" cy="1198" r="11" fill="#005DFF" fill-opacity="0.64" stroke="#111" stroke-width="2"/>
<text x="62.0" y="1206.0" font-family="Arial, Helvetica, sans-serif" font-size="22" font-weight="500" fill="#111">blue: before speech onset</text>
<circle cx="42" cy="1232" r="11" fill="#FF8A00" fill-opacity="0.64" stroke="#111" stroke-width="2"/>
<text x="62.0" y="1240.0" font-family="Arial, Helvetica, sans-serif" font-size="22" font-weight="500" fill="#111">orange: first 2000 ms after onset</text>
</svg>
