<svg xmlns="http://www.w3.org/2000/svg" width="1920" height="1320" viewBox="0 0 1920 1320">
<image href="../../../../stimuli/Animate-animate%20centered%20and%20flipped/shoot-2-1-l.png" x="0" y="0" width="1920" height="1080" preserveAspectRatio="none"/>
<rect x="0" y="0" width="1920" height="1080" fill="none" stroke="#111" stroke-width="2"/>
<rect x="0" y="1080" width="1920" height="240" fill="#f7f7f7"/>
<rect x="40.0" y="100.0" width="850" height="850" fill="none" stroke="#00B8D9" stroke-width="6" stroke-dasharray="18 12"/>
<rect x="52.0" y="62.0" width="102.0" height="38" rx="6" fill="white" fill-opacity="0.86" stroke="#00B8D9" stroke-width="3"/>
<text x="62.0" y="88.0" font-family="Arial, Helvetica, sans-serif" font-size="24" font-weight="700" fill="#111">AGENT</text>
<rect x="970.0" y="100.0" width="850" height="850" fill="none" stroke="#FF3B8A" stroke-width="6" stroke-dasharray="18 12"/>
<rect x="982.0" y="62.0" width="134.0" height="38" rx="6" fill="white" fill-opacity="0.86" stroke="#FF3B8A" stroke-width="3"/>
<text x="992.0" y="88.0" font-family="Arial, Helvetica, sans-serif" font-size="24" font-weight="700" fill="#111">PATIENT</text>
<polyline points="664.4,416.2 651.1,296.9 1173.1,465.8 1232.8,525.5 1258.3,504.5 635.5,495.0 505.0,455.7 947.4,471.6 1294.1,451.7 1237.2,488.6 875.4,437.1 665.3,355.6 500.4,451.7 572.8,460.3" fill="none" stroke="#111" stroke-width="4" stroke-opacity="0.36" stroke-linejoin="round"/>
<circle cx="664.4" cy="416.2" r="21.1" fill="white" fill-opacity="0.84"/>
<circle cx="664.4" cy="416.2" r="18.1" fill="#7A3CE8" fill-opacity="0.66" stroke="#111" stroke-width="2.5"/>
<text x="664.4" y="423.2" text-anchor="middle" font-family="Arial, Helvetica, sans-serif" font-size="21" font-weight="800" fill="white" stroke="#111" stroke-width="3" paint-order="stroke">1</text>
<circle cx="651.1" cy="296.9" r="16.8" fill="white" fill-opacity="0.84"/>
<circle cx="651.1" cy="296.9" r="13.8" fill="#7A3CE8" fill-opacity="0.66" stroke="#111" stroke-width="2.5"/>
<text x="651.1" y="303.9" text-anchor="middle" font-family="Arial, Helvetica, sans-serif" font-size="21" font-weight="800" fill="white" stroke="#111" stroke-width="3" paint-order="stroke">2</text>
<circle cx="1173.1" cy="465.8" r="22.2" fill="white" fill-opacity="0.84"/>
<circle cx="1173.1" cy="465.8" r="19.2" fill="#7A3CE8" fill-opacity="0.66" stroke="#111" stroke-width="2.5"/>
<text x="1173.1" y="472.8" text-anchor="middle" font-family="Arial, Helvetica, sans-serif" font-size="21" font-weight="800" fill="white" stroke="#111" stroke-width="3" paint-order="stroke">3</text>
<circle cx="1232.8" cy="525.5" r="17.8" fill="white" fill-opacity="0.84"/>
<circle cx="1232.8" cy="525.5" r="14.8" fill="#7A3CE8" fill-opacity="0.66" stroke="#111" stroke-width="2.5"/>
<text x="1232.8" y="532.5" text-anchor="middle" font-family="Arial, Helvetica, sans-serif" font-size="21" font-weight="800" fill="white" stroke="#111" stroke-width="3" paint-order="stroke">4</text>
<circle cx="1258.3" cy="504.5" r="18.6" fill="white" fill-opacity="0.84"/>
<circle cx="1258.3" cy="504.5" r="15.6" fill="#7A3CE8" fill-opacity="0.66" stroke="#111" stroke-width="2.5"/>
<text x="1258.3" y="511.5" text-anchor="middle" font-family="Arial, Helvetica, sans-serif" font-size="21" font-weight="800" fill="white" stroke="#111" stroke-width="3" paint-order="stroke">5</text>
<circle cx="635.5" cy="495.0" r="17.5" fill="white" fill-opacity="0.84"/>
<circle cx="635.5" cy="495.0" r="14.5" fill="#7A3CE8" fill-opacity="0.66" stroke="#111" stroke-width="2.5"/>
<text x="635.5" y="502.0" text-anchor="middle" font-family="Arial, Helvetica, sans-serif" font-size="21" font-weight="800" fill="white" stroke="#111" stroke-width="3" paint-order="stroke">6</text>
<circle cx="505.0" cy="455.7" r="19.7" fill="white" fill-opacity="0.84"/>
<circle cx="505.0" cy="455.7" r="16.7" fill="#7A3CE8" fill-opacity="0.66" stroke="#111" stroke-width="2.5"/>
<text x="505.0" y="462.7" text-anchor="middle" font-family="Arial, Helvetica, sans-serif" font-size="21" font-weight="800" fill="white" stroke="#111" stroke-width="3" paint-order="stroke">7</text>
<circle cx="947.4" cy="471.6" r="12.5" fill="white" fill-opacity="0.84"/>
<circle cx="947.4" cy="471.6" r="9.5" fill="#7A3CE8" fill-opacity="0.66" stroke="#111" stroke-width="2.5"/>
<text x="947.4" y="478.6" text-anchor="middle" font-family="Arial, Helvetica, sans-serif" font-size="21" font-weight="800" fill="white" stroke="#111" stroke-width="3" paint-order="stroke">8</text>
<circle cx="1294.1" cy="451.7" r="16.7" fill="white" fill-opacity="0.84"/>
<circle cx="1294.1" cy="451.7" r="13.7" fill="#7A3CE8" fill-opacity="0.66" stroke="#111" stroke-width="2.5"/>
<text x="1294.1" y="458.7" text-anchor="middle" font-family="Arial, Helvetica, sans-serif" font-size="21" font-weight="800" fill="white" stroke="#111" stroke-width="3" paint-order="stroke">9</text>
<circle cx="1237.2" cy="488.6" r="21.2" fill="white" fill-opacity="0.84"/>
<circle cx="1237.2" cy="488.6" r="18.2" fill="#7A3CE8" fill-opacity="0.66" stroke="#111" stroke-width="2.5"/>
<text x="1237.2" y="495.6" text-anchor="middle" font-family="Arial, Helvetica, sans-serif" font-size="21" font-weight="800" fill="white" stroke="#111" stroke-width="3" paint-order="stroke">10</text>
<circle cx="875.4" cy="437.1" r="17.2" fill="white" fill-opacity="0.84"/>
<circle cx="875.4" cy="437.1" r="14.2" fill="#7A3CE8" fill-opacity="0.66" stroke="#111" stroke-width="2.5"/>
<text x="875.4" y="444.1" text-anchor="middle" font-family="Arial, Helvetica, sans-serif" font-size="21" font-weight="800" fill="white" stroke="#111" stroke-width="3" paint-order="stroke">11</text>
<circle cx="665.3" cy="355.6" r="20.5" fill="white" fill-opacity="0.84"/>
<circle cx="665.3" cy="355.6" r="17.5" fill="#7A3CE8" fill-opacity="0.66" stroke="#111" stroke-width="2.5"/>
<text x="665.3" y="362.6" text-anchor="middle" font-family="Arial, Helvetica, sans-serif" font-size="21" font-weight="800" fill="white" stroke="#111" stroke-width="3" paint-order="stroke">12</text>
<circle cx="500.4" cy="451.7" r="18.7" fill="white" fill-opacity="0.84"/>
<circle cx="500.4" cy="451.7" r="15.7" fill="#7A3CE8" fill-opacity="0.66" stroke="#111" stroke-width="2.5"/>
<text x="500.4" y="458.7" text-anchor="middle" font-family="Arial, Helvetica, sans-serif" font-size="21" font-weight="800" fill="white" stroke="#111" stroke-width="3" paint-order="stroke">13</text>
<circle cx="572.8" cy="460.3" r="19.8" fill="white" fill-opacity="0.84"/>
<circle cx="572.8" cy="460.3" r="16.8" fill="#7A3CE8" fill-opacity="0.66" stroke="#111" stroke-width="2.5"/>
<text x="572.8" y="467.3" text-anchor="middle" font-family="Arial, Helvetica, sans-serif" font-size="21" font-weight="800" fill="white" stroke="#111" stroke-width="3" paint-order="stroke">14</text>
<rect x="16" y="1094" width="1120" height="168" rx="8" fill="white" fill-opacity="0.92" stroke="#111" stroke-opacity="0.22"/>
<text x="36.0" y="1128.0" font-family="Arial, Helvetica, sans-serif" font-size="24" font-weight="600" fill="#111">K10 / k10_1.asc block 64 | shoot-2-1-l.png | RT NA ms | 14 fixations</text>
<text x="36.0" y="1159.0" font-family="Arial, Helvetica, sans-serif" font-size="24" font-weight="600" fill="#111">numbers show fixation order; dot size shows fixation duration</text>
<circle cx="42" cy="1198" r="11" fill="#005DFF" fill-opacity="0.64" stroke="#111" stroke-width="2"/>
<text x="62.0" y="1206.0" font-family="Arial, Helvetica, sans-serif" font-size="22" font-weight="500" fill="#111">blue: before speech onset</text>
<circle cx="42" cy="1232" r="11" fill="#FF8A00" fill-opacity="0.64" stroke="#111" stroke-width="2"/>
<text x="62.0" y="1240.0" font-family="Arial, Helvetica, sans-serif" font-size="22" font-weight="500" fill="#111">orange: first 2000 ms after onset</text>
</svg>
