<svg xmlns="http://www.w3.org/2000/svg" width="1920" height="1320" viewBox="0 0 1920 1320">
<image href="https://raw.githubusercontent.com/mkurg/koryak/main/stimuli/Koryak%20stimuli%20animate%20inanimate/paint-2-2-r.png" x="0" y="0" width="1920" height="1080" preserveAspectRatio="none"/>
<rect x="0" y="0" width="1920" height="1080" fill="none" stroke="#111" stroke-width="2"/>
<rect x="0" y="1080" width="1920" height="240" fill="#f7f7f7"/>
<rect x="970.0" y="100.0" width="850" height="850" fill="none" stroke="#00B8D9" stroke-width="6" stroke-dasharray="18 12"/>
<rect x="982.0" y="62.0" width="102.0" height="38" rx="6" fill="white" fill-opacity="0.86" stroke="#00B8D9" stroke-width="3"/>
<text x="992.0" y="88.0" font-family="Arial, Helvetica, sans-serif" font-size="24" font-weight="700" fill="#111">AGENT</text>
<rect x="40.0" y="100.0" width="850" height="850" fill="none" stroke="#FF3B8A" stroke-width="6" stroke-dasharray="18 12"/>
<rect x="52.0" y="62.0" width="134.0" height="38" rx="6" fill="white" fill-opacity="0.86" stroke="#FF3B8A" stroke-width="3"/>
<text x="62.0" y="88.0" font-family="Arial, Helvetica, sans-serif" font-size="24" font-weight="700" fill="#111">PATIENT</text>
<polyline points="837.7,396.2 699.5,272.6 1201.4,302.8 1337.4,445.3 773.9,333.5 509.1,308.3 446.3,357.4 1164.8,641.7 1222.3,760.7 698.8,488.1 612.1,260.4 487.8,241.8 611.0,223.2 655.1,228.0 538.4,237.0 654.3,221.6 728.8,285.9 700.5,283.4 515.7,341.4 441.1,381.9 612.5,282.7 673.2,278.8 586.3,238.3 577.2,256.5 459.8,306.6 1171.8,399.6 1373.2,382.2 1255.3,326.5 1475.6,297.4 1531.1,296.6 1093.2,317.5 705.5,298.8 1278.1,302.6 1234.6,295.2 1493.0,272.1 1514.3,306.1 1464.9,308.0 1268.4,326.2 1208.7,313.8 1282.3,287.1" fill="none" stroke="#111" stroke-width="4" stroke-opacity="0.36" stroke-linejoin="round"/>
<circle cx="837.7" cy="396.2" r="15.3" fill="white" fill-opacity="0.84"/>
<circle cx="837.7" cy="396.2" r="12.3" fill="#005DFF" fill-opacity="0.66" stroke="#111" stroke-width="2.5"/>
<text x="837.7" y="403.2" text-anchor="middle" font-family="Arial, Helvetica, sans-serif" font-size="21" font-weight="800" fill="white" stroke="#111" stroke-width="3" paint-order="stroke">1</text>
<circle cx="699.5" cy="272.6" r="17.4" fill="white" fill-opacity="0.84"/>
<circle cx="699.5" cy="272.6" r="14.4" fill="#005DFF" fill-opacity="0.66" stroke="#111" stroke-width="2.5"/>
<text x="699.5" y="279.6" text-anchor="middle" font-family="Arial, Helvetica, sans-serif" font-size="21" font-weight="800" fill="white" stroke="#111" stroke-width="3" paint-order="stroke">2</text>
<circle cx="1201.4" cy="302.8" r="22.6" fill="white" fill-opacity="0.84"/>
<circle cx="1201.4" cy="302.8" r="19.6" fill="#005DFF" fill-opacity="0.66" stroke="#111" stroke-width="2.5"/>
<text x="1201.4" y="309.8" text-anchor="middle" font-family="Arial, Helvetica, sans-serif" font-size="21" font-weight="800" fill="white" stroke="#111" stroke-width="3" paint-order="stroke">3</text>
<circle cx="1337.4" cy="445.3" r="16.4" fill="white" fill-opacity="0.84"/>
<circle cx="1337.4" cy="445.3" r="13.4" fill="#005DFF" fill-opacity="0.66" stroke="#111" stroke-width="2.5"/>
<text x="1337.4" y="452.3" text-anchor="middle" font-family="Arial, Helvetica, sans-serif" font-size="21" font-weight="800" fill="white" stroke="#111" stroke-width="3" paint-order="stroke">4</text>
<circle cx="773.9" cy="333.5" r="19.4" fill="white" fill-opacity="0.84"/>
<circle cx="773.9" cy="333.5" r="16.4" fill="#005DFF" fill-opacity="0.66" stroke="#111" stroke-width="2.5"/>
<text x="773.9" y="340.5" text-anchor="middle" font-family="Arial, Helvetica, sans-serif" font-size="21" font-weight="800" fill="white" stroke="#111" stroke-width="3" paint-order="stroke">5</text>
<circle cx="509.1" cy="308.3" r="17.7" fill="white" fill-opacity="0.84"/>
<circle cx="509.1" cy="308.3" r="14.7" fill="#005DFF" fill-opacity="0.66" stroke="#111" stroke-width="2.5"/>
<text x="509.1" y="315.3" text-anchor="middle" font-family="Arial, Helvetica, sans-serif" font-size="21" font-weight="800" fill="white" stroke="#111" stroke-width="3" paint-order="stroke">6</text>
<circle cx="446.3" cy="357.4" r="20.4" fill="white" fill-opacity="0.84"/>
<circle cx="446.3" cy="357.4" r="17.4" fill="#005DFF" fill-opacity="0.66" stroke="#111" stroke-width="2.5"/>
<text x="446.3" y="364.4" text-anchor="middle" font-family="Arial, Helvetica, sans-serif" font-size="21" font-weight="800" fill="white" stroke="#111" stroke-width="3" paint-order="stroke">7</text>
<circle cx="1164.8" cy="641.7" r="17.2" fill="white" fill-opacity="0.84"/>
<circle cx="1164.8" cy="641.7" r="14.2" fill="#005DFF" fill-opacity="0.66" stroke="#111" stroke-width="2.5"/>
<text x="1164.8" y="648.7" text-anchor="middle" font-family="Arial, Helvetica, sans-serif" font-size="21" font-weight="800" fill="white" stroke="#111" stroke-width="3" paint-order="stroke">8</text>
<circle cx="1222.3" cy="760.7" r="18.7" fill="white" fill-opacity="0.84"/>
<circle cx="1222.3" cy="760.7" r="15.7" fill="#005DFF" fill-opacity="0.66" stroke="#111" stroke-width="2.5"/>
<text x="1222.3" y="767.7" text-anchor="middle" font-family="Arial, Helvetica, sans-serif" font-size="21" font-weight="800" fill="white" stroke="#111" stroke-width="3" paint-order="stroke">9</text>
<circle cx="698.8" cy="488.1" r="16.9" fill="white" fill-opacity="0.84"/>
<circle cx="698.8" cy="488.1" r="13.9" fill="#005DFF" fill-opacity="0.66" stroke="#111" stroke-width="2.5"/>
<text x="698.8" y="495.1" text-anchor="middle" font-family="Arial, Helvetica, sans-serif" font-size="21" font-weight="800" fill="white" stroke="#111" stroke-width="3" paint-order="stroke">10</text>
<circle cx="612.1" cy="260.4" r="18.2" fill="white" fill-opacity="0.84"/>
<circle cx="612.1" cy="260.4" r="15.2" fill="#005DFF" fill-opacity="0.66" stroke="#111" stroke-width="2.5"/>
<text x="612.1" y="267.4" text-anchor="middle" font-family="Arial, Helvetica, sans-serif" font-size="21" font-weight="800" fill="white" stroke="#111" stroke-width="3" paint-order="stroke">11</text>
<circle cx="487.8" cy="241.8" r="22.6" fill="white" fill-opacity="0.84"/>
<circle cx="487.8" cy="241.8" r="19.6" fill="#005DFF" fill-opacity="0.66" stroke="#111" stroke-width="2.5"/>
<text x="487.8" y="248.8" text-anchor="middle" font-family="Arial, Helvetica, sans-serif" font-size="21" font-weight="800" fill="white" stroke="#111" stroke-width="3" paint-order="stroke">12</text>
<circle cx="611.0" cy="223.2" r="18.7" fill="white" fill-opacity="0.84"/>
<circle cx="611.0" cy="223.2" r="15.7" fill="#005DFF" fill-opacity="0.66" stroke="#111" stroke-width="2.5"/>
<text x="611.0" y="230.2" text-anchor="middle" font-family="Arial, Helvetica, sans-serif" font-size="21" font-weight="800" fill="white" stroke="#111" stroke-width="3" paint-order="stroke">13</text>
<circle cx="655.1" cy="228.0" r="31.0" fill="white" fill-opacity="0.84"/>
<circle cx="655.1" cy="228.0" r="28.0" fill="#005DFF" fill-opacity="0.66" stroke="#111" stroke-width="2.5"/>
<text x="655.1" y="235.0" text-anchor="middle" font-family="Arial, Helvetica, sans-serif" font-size="21" font-weight="800" fill="white" stroke="#111" stroke-width="3" paint-order="stroke">14</text>
<circle cx="538.4" cy="237.0" r="21.8" fill="white" fill-opacity="0.84"/>
<circle cx="538.4" cy="237.0" r="18.8" fill="#005DFF" fill-opacity="0.66" stroke="#111" stroke-width="2.5"/>
<text x="538.4" y="244.0" text-anchor="middle" font-family="Arial, Helvetica, sans-serif" font-size="21" font-weight="800" fill="white" stroke="#111" stroke-width="3" paint-order="stroke">15</text>
<circle cx="654.3" cy="221.6" r="22.4" fill="white" fill-opacity="0.84"/>
<circle cx="654.3" cy="221.6" r="19.4" fill="#005DFF" fill-opacity="0.66" stroke="#111" stroke-width="2.5"/>
<text x="654.3" y="228.6" text-anchor="middle" font-family="Arial, Helvetica, sans-serif" font-size="21" font-weight="800" fill="white" stroke="#111" stroke-width="3" paint-order="stroke">16</text>
<circle cx="728.8" cy="285.9" r="19.6" fill="white" fill-opacity="0.84"/>
<circle cx="728.8" cy="285.9" r="16.6" fill="#005DFF" fill-opacity="0.66" stroke="#111" stroke-width="2.5"/>
<text x="728.8" y="292.9" text-anchor="middle" font-family="Arial, Helvetica, sans-serif" font-size="21" font-weight="800" fill="white" stroke="#111" stroke-width="3" paint-order="stroke">17</text>
<circle cx="700.5" cy="283.4" r="19.2" fill="white" fill-opacity="0.84"/>
<circle cx="700.5" cy="283.4" r="16.2" fill="#005DFF" fill-opacity="0.66" stroke="#111" stroke-width="2.5"/>
<text x="700.5" y="290.4" text-anchor="middle" font-family="Arial, Helvetica, sans-serif" font-size="21" font-weight="800" fill="white" stroke="#111" stroke-width="3" paint-order="stroke">18</text>
<circle cx="515.7" cy="341.4" r="19.0" fill="white" fill-opacity="0.84"/>
<circle cx="515.7" cy="341.4" r="16.0" fill="#005DFF" fill-opacity="0.66" stroke="#111" stroke-width="2.5"/>
<text x="515.7" y="348.4" text-anchor="middle" font-family="Arial, Helvetica, sans-serif" font-size="21" font-weight="800" fill="white" stroke="#111" stroke-width="3" paint-order="stroke">19</text>
<circle cx="441.1" cy="381.9" r="18.1" fill="white" fill-opacity="0.84"/>
<circle cx="441.1" cy="381.9" r="15.1" fill="#005DFF" fill-opacity="0.66" stroke="#111" stroke-width="2.5"/>
<text x="441.1" y="388.9" text-anchor="middle" font-family="Arial, Helvetica, sans-serif" font-size="21" font-weight="800" fill="white" stroke="#111" stroke-width="3" paint-order="stroke">20</text>
<circle cx="612.5" cy="282.7" r="18.4" fill="white" fill-opacity="0.84"/>
<circle cx="612.5" cy="282.7" r="15.4" fill="#005DFF" fill-opacity="0.66" stroke="#111" stroke-width="2.5"/>
<text x="612.5" y="289.7" text-anchor="middle" font-family="Arial, Helvetica, sans-serif" font-size="21" font-weight="800" fill="white" stroke="#111" stroke-width="3" paint-order="stroke">21</text>
<circle cx="673.2" cy="278.8" r="21.3" fill="white" fill-opacity="0.84"/>
<circle cx="673.2" cy="278.8" r="18.3" fill="#005DFF" fill-opacity="0.66" stroke="#111" stroke-width="2.5"/>
<text x="673.2" y="285.8" text-anchor="middle" font-family="Arial, Helvetica, sans-serif" font-size="21" font-weight="800" fill="white" stroke="#111" stroke-width="3" paint-order="stroke">22</text>
<circle cx="586.3" cy="238.3" r="15.4" fill="white" fill-opacity="0.84"/>
<circle cx="586.3" cy="238.3" r="12.4" fill="#005DFF" fill-opacity="0.66" stroke="#111" stroke-width="2.5"/>
<text x="586.3" y="245.3" text-anchor="middle" font-family="Arial, Helvetica, sans-serif" font-size="21" font-weight="800" fill="white" stroke="#111" stroke-width="3" paint-order="stroke">23</text>
<circle cx="577.2" cy="256.5" r="18.6" fill="white" fill-opacity="0.84"/>
<circle cx="577.2" cy="256.5" r="15.6" fill="#005DFF" fill-opacity="0.66" stroke="#111" stroke-width="2.5"/>
<text x="577.2" y="263.5" text-anchor="middle" font-family="Arial, Helvetica, sans-serif" font-size="21" font-weight="800" fill="white" stroke="#111" stroke-width="3" paint-order="stroke">24</text>
<circle cx="459.8" cy="306.6" r="18.5" fill="white" fill-opacity="0.84"/>
<circle cx="459.8" cy="306.6" r="15.5" fill="#005DFF" fill-opacity="0.66" stroke="#111" stroke-width="2.5"/>
<text x="459.8" y="313.6" text-anchor="middle" font-family="Arial, Helvetica, sans-serif" font-size="21" font-weight="800" fill="white" stroke="#111" stroke-width="3" paint-order="stroke">25</text>
<circle cx="1171.8" cy="399.6" r="19.7" fill="white" fill-opacity="0.84"/>
<circle cx="1171.8" cy="399.6" r="16.7" fill="#005DFF" fill-opacity="0.66" stroke="#111" stroke-width="2.5"/>
<text x="1171.8" y="406.6" text-anchor="middle" font-family="Arial, Helvetica, sans-serif" font-size="21" font-weight="800" fill="white" stroke="#111" stroke-width="3" paint-order="stroke">26</text>
<circle cx="1373.2" cy="382.2" r="17.8" fill="white" fill-opacity="0.84"/>
<circle cx="1373.2" cy="382.2" r="14.8" fill="#005DFF" fill-opacity="0.66" stroke="#111" stroke-width="2.5"/>
<text x="1373.2" y="389.2" text-anchor="middle" font-family="Arial, Helvetica, sans-serif" font-size="21" font-weight="800" fill="white" stroke="#111" stroke-width="3" paint-order="stroke">27</text>
<circle cx="1255.3" cy="326.5" r="20.1" fill="white" fill-opacity="0.84"/>
<circle cx="1255.3" cy="326.5" r="17.1" fill="#005DFF" fill-opacity="0.66" stroke="#111" stroke-width="2.5"/>
<text x="1255.3" y="333.5" text-anchor="middle" font-family="Arial, Helvetica, sans-serif" font-size="21" font-weight="800" fill="white" stroke="#111" stroke-width="3" paint-order="stroke">28</text>
<circle cx="1475.6" cy="297.4" r="15.0" fill="white" fill-opacity="0.84"/>
<circle cx="1475.6" cy="297.4" r="12.0" fill="#005DFF" fill-opacity="0.66" stroke="#111" stroke-width="2.5"/>
<text x="1475.6" y="304.4" text-anchor="middle" font-family="Arial, Helvetica, sans-serif" font-size="21" font-weight="800" fill="white" stroke="#111" stroke-width="3" paint-order="stroke">29</text>
<circle cx="1531.1" cy="296.6" r="17.7" fill="white" fill-opacity="0.84"/>
<circle cx="1531.1" cy="296.6" r="14.7" fill="#005DFF" fill-opacity="0.66" stroke="#111" stroke-width="2.5"/>
<text x="1531.1" y="303.6" text-anchor="middle" font-family="Arial, Helvetica, sans-serif" font-size="21" font-weight="800" fill="white" stroke="#111" stroke-width="3" paint-order="stroke">30</text>
<circle cx="1093.2" cy="317.5" r="15.4" fill="white" fill-opacity="0.84"/>
<circle cx="1093.2" cy="317.5" r="12.4" fill="#005DFF" fill-opacity="0.66" stroke="#111" stroke-width="2.5"/>
<text x="1093.2" y="324.5" text-anchor="middle" font-family="Arial, Helvetica, sans-serif" font-size="21" font-weight="800" fill="white" stroke="#111" stroke-width="3" paint-order="stroke">31</text>
<circle cx="705.5" cy="298.8" r="24.0" fill="white" fill-opacity="0.84"/>
<circle cx="705.5" cy="298.8" r="21.0" fill="#005DFF" fill-opacity="0.66" stroke="#111" stroke-width="2.5"/>
<text x="705.5" y="305.8" text-anchor="middle" font-family="Arial, Helvetica, sans-serif" font-size="21" font-weight="800" fill="white" stroke="#111" stroke-width="3" paint-order="stroke">32</text>
<circle cx="1278.1" cy="302.6" r="20.3" fill="white" fill-opacity="0.84"/>
<circle cx="1278.1" cy="302.6" r="17.3" fill="#005DFF" fill-opacity="0.66" stroke="#111" stroke-width="2.5"/>
<text x="1278.1" y="309.6" text-anchor="middle" font-family="Arial, Helvetica, sans-serif" font-size="21" font-weight="800" fill="white" stroke="#111" stroke-width="3" paint-order="stroke">33</text>
<circle cx="1234.6" cy="295.2" r="21.3" fill="white" fill-opacity="0.84"/>
<circle cx="1234.6" cy="295.2" r="18.3" fill="#005DFF" fill-opacity="0.66" stroke="#111" stroke-width="2.5"/>
<text x="1234.6" y="302.2" text-anchor="middle" font-family="Arial, Helvetica, sans-serif" font-size="21" font-weight="800" fill="white" stroke="#111" stroke-width="3" paint-order="stroke">34</text>
<circle cx="1493.0" cy="272.1" r="19.7" fill="white" fill-opacity="0.84"/>
<circle cx="1493.0" cy="272.1" r="16.7" fill="#005DFF" fill-opacity="0.66" stroke="#111" stroke-width="2.5"/>
<text x="1493.0" y="279.1" text-anchor="middle" font-family="Arial, Helvetica, sans-serif" font-size="21" font-weight="800" fill="white" stroke="#111" stroke-width="3" paint-order="stroke">35</text>
<circle cx="1514.3" cy="306.1" r="20.2" fill="white" fill-opacity="0.84"/>
<circle cx="1514.3" cy="306.1" r="17.2" fill="#005DFF" fill-opacity="0.66" stroke="#111" stroke-width="2.5"/>
<text x="1514.3" y="313.1" text-anchor="middle" font-family="Arial, Helvetica, sans-serif" font-size="21" font-weight="800" fill="white" stroke="#111" stroke-width="3" paint-order="stroke">36</text>
<circle cx="1464.9" cy="308.0" r="23.0" fill="white" fill-opacity="0.84"/>
<circle cx="1464.9" cy="308.0" r="20.0" fill="#FF8A00" fill-opacity="0.66" stroke="#111" stroke-width="2.5"/>
<text x="1464.9" y="315.0" text-anchor="middle" font-family="Arial, Helvetica, sans-serif" font-size="21" font-weight="800" fill="white" stroke="#111" stroke-width="3" paint-order="stroke">37</text>
<circle cx="1268.4" cy="326.2" r="20.2" fill="white" fill-opacity="0.84"/>
<circle cx="1268.4" cy="326.2" r="17.2" fill="#FF8A00" fill-opacity="0.66" stroke="#111" stroke-width="2.5"/>
<text x="1268.4" y="333.2" text-anchor="middle" font-family="Arial, Helvetica, sans-serif" font-size="21" font-weight="800" fill="white" stroke="#111" stroke-width="3" paint-order="stroke">38</text>
<circle cx="1208.7" cy="313.8" r="23.3" fill="white" fill-opacity="0.84"/>
<circle cx="1208.7" cy="313.8" r="20.3" fill="#FF8A00" fill-opacity="0.66" stroke="#111" stroke-width="2.5"/>
<text x="1208.7" y="320.8" text-anchor="middle" font-family="Arial, Helvetica, sans-serif" font-size="21" font-weight="800" fill="white" stroke="#111" stroke-width="3" paint-order="stroke">39</text>
<circle cx="1282.3" cy="287.1" r="19.9" fill="white" fill-opacity="0.84"/>
<circle cx="1282.3" cy="287.1" r="16.9" fill="#FF8A00" fill-opacity="0.66" stroke="#111" stroke-width="2.5"/>
<text x="1282.3" y="294.1" text-anchor="middle" font-family="Arial, Helvetica, sans-serif" font-size="21" font-weight="800" fill="white" stroke="#111" stroke-width="3" paint-order="stroke">40</text>
<rect x="16" y="1094" width="1120" height="168" rx="8" fill="white" fill-opacity="0.92" stroke="#111" stroke-opacity="0.22"/>
<text x="36.0" y="1128.0" font-family="Arial, Helvetica, sans-serif" font-size="24" font-weight="600" fill="#111">K10 / k10_1.asc block 71 | paint-2-2-r.png | RT 16776 ms | 40 fixations</text>
<text x="36.0" y="1159.0" font-family="Arial, Helvetica, sans-serif" font-size="24" font-weight="600" fill="#111">numbers show fixation order; dot size shows fixation duration</text>
<circle cx="42" cy="1198" r="11" fill="#005DFF" fill-opacity="0.64" stroke="#111" stroke-width="2"/>
<text x="62.0" y="1206.0" font-family="Arial, Helvetica, sans-serif" font-size="22" font-weight="500" fill="#111">blue: before speech onset</text>
<circle cx="42" cy="1232" r="11" fill="#FF8A00" fill-opacity="0.64" stroke="#111" stroke-width="2"/>
<text x="62.0" y="1240.0" font-family="Arial, Helvetica, sans-serif" font-size="22" font-weight="500" fill="#111">orange: first 2000 ms after onset</text>
</svg>
