<svg xmlns="http://www.w3.org/2000/svg" width="1920" height="1320" viewBox="0 0 1920 1320">
<image href="../../../../stimuli/Animate-animate%20centered%20and%20flipped/dress-1-2-l.png" x="0" y="0" width="1920" height="1080" preserveAspectRatio="none"/>
<rect x="0" y="0" width="1920" height="1080" fill="none" stroke="#111" stroke-width="2"/>
<rect x="0" y="1080" width="1920" height="240" fill="#f7f7f7"/>
<rect x="40.0" y="100.0" width="850" height="850" fill="none" stroke="#00B8D9" stroke-width="6" stroke-dasharray="18 12"/>
<rect x="52.0" y="62.0" width="102.0" height="38" rx="6" fill="white" fill-opacity="0.86" stroke="#00B8D9" stroke-width="3"/>
<text x="62.0" y="88.0" font-family="Arial, Helvetica, sans-serif" font-size="24" font-weight="700" fill="#111">AGENT</text>
<rect x="970.0" y="100.0" width="850" height="850" fill="none" stroke="#FF3B8A" stroke-width="6" stroke-dasharray="18 12"/>
<rect x="982.0" y="62.0" width="134.0" height="38" rx="6" fill="white" fill-opacity="0.86" stroke="#FF3B8A" stroke-width="3"/>
<text x="992.0" y="88.0" font-family="Arial, Helvetica, sans-serif" font-size="24" font-weight="700" fill="#111">PATIENT</text>
<polyline points="998.2,554.0 1278.7,397.2 1276.5,527.1 1195.3,564.8 1140.9,519.0 1081.5,506.7 1049.4,530.1 1002.3,516.9 477.1,504.3 629.9,392.3 811.2,520.5 1082.9,539.6 1285.2,551.4 496.3,441.4 659.8,354.3 404.3,450.0 810.1,465.7 1237.3,516.8 1291.9,526.7 1440.5,457.1 1522.2,391.3 1414.6,488.7 980.8,479.6 1091.4,514.6 1296.3,401.6 1268.3,401.5 1336.8,397.0 1401.3,436.5 1530.1,404.7 1347.2,386.3 1397.0,369.6 1506.1,381.7 1348.0,423.2 1207.7,414.0 950.9,430.3 886.5,481.9 904.8,539.9 800.3,510.0" fill="none" stroke="#111" stroke-width="4" stroke-opacity="0.36" stroke-linejoin="round"/>
<circle cx="998.2" cy="554.0" r="14.8" fill="white" fill-opacity="0.84"/>
<circle cx="998.2" cy="554.0" r="11.8" fill="#005DFF" fill-opacity="0.66" stroke="#111" stroke-width="2.5"/>
<text x="998.2" y="561.0" text-anchor="middle" font-family="Arial, Helvetica, sans-serif" font-size="21" font-weight="800" fill="white" stroke="#111" stroke-width="3" paint-order="stroke">1</text>
<circle cx="1278.7" cy="397.2" r="17.3" fill="white" fill-opacity="0.84"/>
<circle cx="1278.7" cy="397.2" r="14.3" fill="#005DFF" fill-opacity="0.66" stroke="#111" stroke-width="2.5"/>
<text x="1278.7" y="404.2" text-anchor="middle" font-family="Arial, Helvetica, sans-serif" font-size="21" font-weight="800" fill="white" stroke="#111" stroke-width="3" paint-order="stroke">2</text>
<circle cx="1276.5" cy="527.1" r="16.8" fill="white" fill-opacity="0.84"/>
<circle cx="1276.5" cy="527.1" r="13.8" fill="#005DFF" fill-opacity="0.66" stroke="#111" stroke-width="2.5"/>
<text x="1276.5" y="534.1" text-anchor="middle" font-family="Arial, Helvetica, sans-serif" font-size="21" font-weight="800" fill="white" stroke="#111" stroke-width="3" paint-order="stroke">3</text>
<circle cx="1195.3" cy="564.8" r="19.0" fill="white" fill-opacity="0.84"/>
<circle cx="1195.3" cy="564.8" r="16.0" fill="#005DFF" fill-opacity="0.66" stroke="#111" stroke-width="2.5"/>
<text x="1195.3" y="571.8" text-anchor="middle" font-family="Arial, Helvetica, sans-serif" font-size="21" font-weight="800" fill="white" stroke="#111" stroke-width="3" paint-order="stroke">4</text>
<circle cx="1140.9" cy="519.0" r="19.0" fill="white" fill-opacity="0.84"/>
<circle cx="1140.9" cy="519.0" r="16.0" fill="#005DFF" fill-opacity="0.66" stroke="#111" stroke-width="2.5"/>
<text x="1140.9" y="526.0" text-anchor="middle" font-family="Arial, Helvetica, sans-serif" font-size="21" font-weight="800" fill="white" stroke="#111" stroke-width="3" paint-order="stroke">5</text>
<circle cx="1081.5" cy="506.7" r="18.2" fill="white" fill-opacity="0.84"/>
<circle cx="1081.5" cy="506.7" r="15.2" fill="#005DFF" fill-opacity="0.66" stroke="#111" stroke-width="2.5"/>
<text x="1081.5" y="513.7" text-anchor="middle" font-family="Arial, Helvetica, sans-serif" font-size="21" font-weight="800" fill="white" stroke="#111" stroke-width="3" paint-order="stroke">6</text>
<circle cx="1049.4" cy="530.1" r="19.3" fill="white" fill-opacity="0.84"/>
<circle cx="1049.4" cy="530.1" r="16.3" fill="#005DFF" fill-opacity="0.66" stroke="#111" stroke-width="2.5"/>
<text x="1049.4" y="537.1" text-anchor="middle" font-family="Arial, Helvetica, sans-serif" font-size="21" font-weight="800" fill="white" stroke="#111" stroke-width="3" paint-order="stroke">7</text>
<circle cx="1002.3" cy="516.9" r="17.7" fill="white" fill-opacity="0.84"/>
<circle cx="1002.3" cy="516.9" r="14.7" fill="#005DFF" fill-opacity="0.66" stroke="#111" stroke-width="2.5"/>
<text x="1002.3" y="523.9" text-anchor="middle" font-family="Arial, Helvetica, sans-serif" font-size="21" font-weight="800" fill="white" stroke="#111" stroke-width="3" paint-order="stroke">8</text>
<circle cx="477.1" cy="504.3" r="16.4" fill="white" fill-opacity="0.84"/>
<circle cx="477.1" cy="504.3" r="13.4" fill="#005DFF" fill-opacity="0.66" stroke="#111" stroke-width="2.5"/>
<text x="477.1" y="511.3" text-anchor="middle" font-family="Arial, Helvetica, sans-serif" font-size="21" font-weight="800" fill="white" stroke="#111" stroke-width="3" paint-order="stroke">9</text>
<circle cx="629.9" cy="392.3" r="16.0" fill="white" fill-opacity="0.84"/>
<circle cx="629.9" cy="392.3" r="13.0" fill="#005DFF" fill-opacity="0.66" stroke="#111" stroke-width="2.5"/>
<text x="629.9" y="399.3" text-anchor="middle" font-family="Arial, Helvetica, sans-serif" font-size="21" font-weight="800" fill="white" stroke="#111" stroke-width="3" paint-order="stroke">10</text>
<circle cx="811.2" cy="520.5" r="19.9" fill="white" fill-opacity="0.84"/>
<circle cx="811.2" cy="520.5" r="16.9" fill="#005DFF" fill-opacity="0.66" stroke="#111" stroke-width="2.5"/>
<text x="811.2" y="527.5" text-anchor="middle" font-family="Arial, Helvetica, sans-serif" font-size="21" font-weight="800" fill="white" stroke="#111" stroke-width="3" paint-order="stroke">11</text>
<circle cx="1082.9" cy="539.6" r="16.6" fill="white" fill-opacity="0.84"/>
<circle cx="1082.9" cy="539.6" r="13.6" fill="#005DFF" fill-opacity="0.66" stroke="#111" stroke-width="2.5"/>
<text x="1082.9" y="546.6" text-anchor="middle" font-family="Arial, Helvetica, sans-serif" font-size="21" font-weight="800" fill="white" stroke="#111" stroke-width="3" paint-order="stroke">12</text>
<circle cx="1285.2" cy="551.4" r="17.2" fill="white" fill-opacity="0.84"/>
<circle cx="1285.2" cy="551.4" r="14.2" fill="#005DFF" fill-opacity="0.66" stroke="#111" stroke-width="2.5"/>
<text x="1285.2" y="558.4" text-anchor="middle" font-family="Arial, Helvetica, sans-serif" font-size="21" font-weight="800" fill="white" stroke="#111" stroke-width="3" paint-order="stroke">13</text>
<circle cx="496.3" cy="441.4" r="17.5" fill="white" fill-opacity="0.84"/>
<circle cx="496.3" cy="441.4" r="14.5" fill="#005DFF" fill-opacity="0.66" stroke="#111" stroke-width="2.5"/>
<text x="496.3" y="448.4" text-anchor="middle" font-family="Arial, Helvetica, sans-serif" font-size="21" font-weight="800" fill="white" stroke="#111" stroke-width="3" paint-order="stroke">14</text>
<circle cx="659.8" cy="354.3" r="18.3" fill="white" fill-opacity="0.84"/>
<circle cx="659.8" cy="354.3" r="15.3" fill="#005DFF" fill-opacity="0.66" stroke="#111" stroke-width="2.5"/>
<text x="659.8" y="361.3" text-anchor="middle" font-family="Arial, Helvetica, sans-serif" font-size="21" font-weight="800" fill="white" stroke="#111" stroke-width="3" paint-order="stroke">15</text>
<circle cx="404.3" cy="450.0" r="18.7" fill="white" fill-opacity="0.84"/>
<circle cx="404.3" cy="450.0" r="15.7" fill="#005DFF" fill-opacity="0.66" stroke="#111" stroke-width="2.5"/>
<text x="404.3" y="457.0" text-anchor="middle" font-family="Arial, Helvetica, sans-serif" font-size="21" font-weight="800" fill="white" stroke="#111" stroke-width="3" paint-order="stroke">16</text>
<circle cx="810.1" cy="465.7" r="17.0" fill="white" fill-opacity="0.84"/>
<circle cx="810.1" cy="465.7" r="14.0" fill="#005DFF" fill-opacity="0.66" stroke="#111" stroke-width="2.5"/>
<text x="810.1" y="472.7" text-anchor="middle" font-family="Arial, Helvetica, sans-serif" font-size="21" font-weight="800" fill="white" stroke="#111" stroke-width="3" paint-order="stroke">17</text>
<circle cx="1237.3" cy="516.8" r="17.3" fill="white" fill-opacity="0.84"/>
<circle cx="1237.3" cy="516.8" r="14.3" fill="#005DFF" fill-opacity="0.66" stroke="#111" stroke-width="2.5"/>
<text x="1237.3" y="523.8" text-anchor="middle" font-family="Arial, Helvetica, sans-serif" font-size="21" font-weight="800" fill="white" stroke="#111" stroke-width="3" paint-order="stroke">18</text>
<circle cx="1291.9" cy="526.7" r="15.0" fill="white" fill-opacity="0.84"/>
<circle cx="1291.9" cy="526.7" r="12.0" fill="#005DFF" fill-opacity="0.66" stroke="#111" stroke-width="2.5"/>
<text x="1291.9" y="533.7" text-anchor="middle" font-family="Arial, Helvetica, sans-serif" font-size="21" font-weight="800" fill="white" stroke="#111" stroke-width="3" paint-order="stroke">19</text>
<circle cx="1440.5" cy="457.1" r="15.3" fill="white" fill-opacity="0.84"/>
<circle cx="1440.5" cy="457.1" r="12.3" fill="#005DFF" fill-opacity="0.66" stroke="#111" stroke-width="2.5"/>
<text x="1440.5" y="464.1" text-anchor="middle" font-family="Arial, Helvetica, sans-serif" font-size="21" font-weight="800" fill="white" stroke="#111" stroke-width="3" paint-order="stroke">20</text>
<circle cx="1522.2" cy="391.3" r="20.1" fill="white" fill-opacity="0.84"/>
<circle cx="1522.2" cy="391.3" r="17.1" fill="#005DFF" fill-opacity="0.66" stroke="#111" stroke-width="2.5"/>
<text x="1522.2" y="398.3" text-anchor="middle" font-family="Arial, Helvetica, sans-serif" font-size="21" font-weight="800" fill="white" stroke="#111" stroke-width="3" paint-order="stroke">21</text>
<circle cx="1414.6" cy="488.7" r="17.0" fill="white" fill-opacity="0.84"/>
<circle cx="1414.6" cy="488.7" r="14.0" fill="#005DFF" fill-opacity="0.66" stroke="#111" stroke-width="2.5"/>
<text x="1414.6" y="495.7" text-anchor="middle" font-family="Arial, Helvetica, sans-serif" font-size="21" font-weight="800" fill="white" stroke="#111" stroke-width="3" paint-order="stroke">22</text>
<circle cx="980.8" cy="479.6" r="14.8" fill="white" fill-opacity="0.84"/>
<circle cx="980.8" cy="479.6" r="11.8" fill="#005DFF" fill-opacity="0.66" stroke="#111" stroke-width="2.5"/>
<text x="980.8" y="486.6" text-anchor="middle" font-family="Arial, Helvetica, sans-serif" font-size="21" font-weight="800" fill="white" stroke="#111" stroke-width="3" paint-order="stroke">23</text>
<circle cx="1091.4" cy="514.6" r="17.4" fill="white" fill-opacity="0.84"/>
<circle cx="1091.4" cy="514.6" r="14.4" fill="#005DFF" fill-opacity="0.66" stroke="#111" stroke-width="2.5"/>
<text x="1091.4" y="521.6" text-anchor="middle" font-family="Arial, Helvetica, sans-serif" font-size="21" font-weight="800" fill="white" stroke="#111" stroke-width="3" paint-order="stroke">24</text>
<circle cx="1296.3" cy="401.6" r="16.1" fill="white" fill-opacity="0.84"/>
<circle cx="1296.3" cy="401.6" r="13.1" fill="#005DFF" fill-opacity="0.66" stroke="#111" stroke-width="2.5"/>
<text x="1296.3" y="408.6" text-anchor="middle" font-family="Arial, Helvetica, sans-serif" font-size="21" font-weight="800" fill="white" stroke="#111" stroke-width="3" paint-order="stroke">25</text>
<circle cx="1268.3" cy="401.5" r="19.7" fill="white" fill-opacity="0.84"/>
<circle cx="1268.3" cy="401.5" r="16.7" fill="#005DFF" fill-opacity="0.66" stroke="#111" stroke-width="2.5"/>
<text x="1268.3" y="408.5" text-anchor="middle" font-family="Arial, Helvetica, sans-serif" font-size="21" font-weight="800" fill="white" stroke="#111" stroke-width="3" paint-order="stroke">26</text>
<circle cx="1336.8" cy="397.0" r="20.0" fill="white" fill-opacity="0.84"/>
<circle cx="1336.8" cy="397.0" r="17.0" fill="#005DFF" fill-opacity="0.66" stroke="#111" stroke-width="2.5"/>
<text x="1336.8" y="404.0" text-anchor="middle" font-family="Arial, Helvetica, sans-serif" font-size="21" font-weight="800" fill="white" stroke="#111" stroke-width="3" paint-order="stroke">27</text>
<circle cx="1401.3" cy="436.5" r="12.4" fill="white" fill-opacity="0.84"/>
<circle cx="1401.3" cy="436.5" r="9.4" fill="#005DFF" fill-opacity="0.66" stroke="#111" stroke-width="2.5"/>
<text x="1401.3" y="443.5" text-anchor="middle" font-family="Arial, Helvetica, sans-serif" font-size="21" font-weight="800" fill="white" stroke="#111" stroke-width="3" paint-order="stroke">28</text>
<circle cx="1530.1" cy="404.7" r="20.2" fill="white" fill-opacity="0.84"/>
<circle cx="1530.1" cy="404.7" r="17.2" fill="#005DFF" fill-opacity="0.66" stroke="#111" stroke-width="2.5"/>
<text x="1530.1" y="411.7" text-anchor="middle" font-family="Arial, Helvetica, sans-serif" font-size="21" font-weight="800" fill="white" stroke="#111" stroke-width="3" paint-order="stroke">29</text>
<circle cx="1347.2" cy="386.3" r="19.7" fill="white" fill-opacity="0.84"/>
<circle cx="1347.2" cy="386.3" r="16.7" fill="#005DFF" fill-opacity="0.66" stroke="#111" stroke-width="2.5"/>
<text x="1347.2" y="393.3" text-anchor="middle" font-family="Arial, Helvetica, sans-serif" font-size="21" font-weight="800" fill="white" stroke="#111" stroke-width="3" paint-order="stroke">30</text>
<circle cx="1397.0" cy="369.6" r="13.4" fill="white" fill-opacity="0.84"/>
<circle cx="1397.0" cy="369.6" r="10.4" fill="#005DFF" fill-opacity="0.66" stroke="#111" stroke-width="2.5"/>
<text x="1397.0" y="376.6" text-anchor="middle" font-family="Arial, Helvetica, sans-serif" font-size="21" font-weight="800" fill="white" stroke="#111" stroke-width="3" paint-order="stroke">31</text>
<circle cx="1506.1" cy="381.7" r="21.9" fill="white" fill-opacity="0.84"/>
<circle cx="1506.1" cy="381.7" r="18.9" fill="#005DFF" fill-opacity="0.66" stroke="#111" stroke-width="2.5"/>
<text x="1506.1" y="388.7" text-anchor="middle" font-family="Arial, Helvetica, sans-serif" font-size="21" font-weight="800" fill="white" stroke="#111" stroke-width="3" paint-order="stroke">32</text>
<circle cx="1348.0" cy="423.2" r="17.6" fill="white" fill-opacity="0.84"/>
<circle cx="1348.0" cy="423.2" r="14.6" fill="#005DFF" fill-opacity="0.66" stroke="#111" stroke-width="2.5"/>
<text x="1348.0" y="430.2" text-anchor="middle" font-family="Arial, Helvetica, sans-serif" font-size="21" font-weight="800" fill="white" stroke="#111" stroke-width="3" paint-order="stroke">33</text>
<circle cx="1207.7" cy="414.0" r="15.9" fill="white" fill-opacity="0.84"/>
<circle cx="1207.7" cy="414.0" r="12.9" fill="#005DFF" fill-opacity="0.66" stroke="#111" stroke-width="2.5"/>
<text x="1207.7" y="421.0" text-anchor="middle" font-family="Arial, Helvetica, sans-serif" font-size="21" font-weight="800" fill="white" stroke="#111" stroke-width="3" paint-order="stroke">34</text>
<circle cx="950.9" cy="430.3" r="18.0" fill="white" fill-opacity="0.84"/>
<circle cx="950.9" cy="430.3" r="15.0" fill="#005DFF" fill-opacity="0.66" stroke="#111" stroke-width="2.5"/>
<text x="950.9" y="437.3" text-anchor="middle" font-family="Arial, Helvetica, sans-serif" font-size="21" font-weight="800" fill="white" stroke="#111" stroke-width="3" paint-order="stroke">35</text>
<circle cx="886.5" cy="481.9" r="23.8" fill="white" fill-opacity="0.84"/>
<circle cx="886.5" cy="481.9" r="20.8" fill="#FF8A00" fill-opacity="0.66" stroke="#111" stroke-width="2.5"/>
<text x="886.5" y="488.9" text-anchor="middle" font-family="Arial, Helvetica, sans-serif" font-size="21" font-weight="800" fill="white" stroke="#111" stroke-width="3" paint-order="stroke">36</text>
<circle cx="904.8" cy="539.9" r="20.1" fill="white" fill-opacity="0.84"/>
<circle cx="904.8" cy="539.9" r="17.1" fill="#FF8A00" fill-opacity="0.66" stroke="#111" stroke-width="2.5"/>
<text x="904.8" y="546.9" text-anchor="middle" font-family="Arial, Helvetica, sans-serif" font-size="21" font-weight="800" fill="white" stroke="#111" stroke-width="3" paint-order="stroke">37</text>
<circle cx="800.3" cy="510.0" r="22.2" fill="white" fill-opacity="0.84"/>
<circle cx="800.3" cy="510.0" r="19.2" fill="#FF8A00" fill-opacity="0.66" stroke="#111" stroke-width="2.5"/>
<text x="800.3" y="517.0" text-anchor="middle" font-family="Arial, Helvetica, sans-serif" font-size="21" font-weight="800" fill="white" stroke="#111" stroke-width="3" paint-order="stroke">38</text>
<rect x="16" y="1094" width="1120" height="168" rx="8" fill="white" fill-opacity="0.92" stroke="#111" stroke-opacity="0.22"/>
<text x="36.0" y="1128.0" font-family="Arial, Helvetica, sans-serif" font-size="24" font-weight="600" fill="#111">K24 / k24_1.asc block 19 | dress-1-2-l.png | RT 12305 ms | 38 fixations</text>
<text x="36.0" y="1159.0" font-family="Arial, Helvetica, sans-serif" font-size="24" font-weight="600" fill="#111">numbers show fixation order; dot size shows fixation duration</text>
<circle cx="42" cy="1198" r="11" fill="#005DFF" fill-opacity="0.64" stroke="#111" stroke-width="2"/>
<text x="62.0" y="1206.0" font-family="Arial, Helvetica, sans-serif" font-size="22" font-weight="500" fill="#111">blue: before speech onset</text>
<circle cx="42" cy="1232" r="11" fill="#FF8A00" fill-opacity="0.64" stroke="#111" stroke-width="2"/>
<text x="62.0" y="1240.0" font-family="Arial, Helvetica, sans-serif" font-size="22" font-weight="500" fill="#111">orange: first 2000 ms after onset</text>
</svg>
