<svg xmlns="http://www.w3.org/2000/svg" width="1920" height="1320" viewBox="0 0 1920 1320">
<image href="../../../../stimuli/Animate-animate%20centered%20and%20flipped/push-2-2-r.png" x="0" y="0" width="1920" height="1080" preserveAspectRatio="none"/>
<rect x="0" y="0" width="1920" height="1080" fill="none" stroke="#111" stroke-width="2"/>
<rect x="0" y="1080" width="1920" height="240" fill="#f7f7f7"/>
<rect x="970.0" y="100.0" width="850" height="850" fill="none" stroke="#00B8D9" stroke-width="6" stroke-dasharray="18 12"/>
<rect x="982.0" y="62.0" width="102.0" height="38" rx="6" fill="white" fill-opacity="0.86" stroke="#00B8D9" stroke-width="3"/>
<text x="992.0" y="88.0" font-family="Arial, Helvetica, sans-serif" font-size="24" font-weight="700" fill="#111">AGENT</text>
<rect x="40.0" y="100.0" width="850" height="850" fill="none" stroke="#FF3B8A" stroke-width="6" stroke-dasharray="18 12"/>
<rect x="52.0" y="62.0" width="134.0" height="38" rx="6" fill="white" fill-opacity="0.86" stroke="#FF3B8A" stroke-width="3"/>
<text x="62.0" y="88.0" font-family="Arial, Helvetica, sans-serif" font-size="24" font-weight="700" fill="#111">PATIENT</text>
<polyline points="1150.7,397.3 1298.7,444.9 793.4,344.0 737.5,351.9 546.5,277.9 511.2,374.9 550.5,371.0 743.3,360.4 1178.9,452.1 1315.6,466.6 1170.5,446.4 1138.5,388.2 1077.9,435.6 1104.2,464.3 1349.0,447.8 1318.5,448.8 810.2,213.3 813.1,343.9 749.3,339.3 570.3,370.7 546.6,417.7 487.2,475.9 1200.2,504.1 1298.8,473.4 1150.7,480.5 1108.7,471.5 1324.0,438.7 1239.5,390.8 1299.0,422.5 1386.8,343.9 1341.9,432.4 1289.2,426.8 1328.7,455.3 893.9,173.9 898.3,331.5 1112.2,469.0 759.9,388.3" fill="none" stroke="#111" stroke-width="4" stroke-opacity="0.36" stroke-linejoin="round"/>
<circle cx="1150.7" cy="397.3" r="17.8" fill="white" fill-opacity="0.84"/>
<circle cx="1150.7" cy="397.3" r="14.8" fill="#005DFF" fill-opacity="0.66" stroke="#111" stroke-width="2.5"/>
<text x="1150.7" y="404.3" text-anchor="middle" font-family="Arial, Helvetica, sans-serif" font-size="21" font-weight="800" fill="white" stroke="#111" stroke-width="3" paint-order="stroke">1</text>
<circle cx="1298.7" cy="444.9" r="16.8" fill="white" fill-opacity="0.84"/>
<circle cx="1298.7" cy="444.9" r="13.8" fill="#005DFF" fill-opacity="0.66" stroke="#111" stroke-width="2.5"/>
<text x="1298.7" y="451.9" text-anchor="middle" font-family="Arial, Helvetica, sans-serif" font-size="21" font-weight="800" fill="white" stroke="#111" stroke-width="3" paint-order="stroke">2</text>
<circle cx="793.4" cy="344.0" r="18.6" fill="white" fill-opacity="0.84"/>
<circle cx="793.4" cy="344.0" r="15.6" fill="#005DFF" fill-opacity="0.66" stroke="#111" stroke-width="2.5"/>
<text x="793.4" y="351.0" text-anchor="middle" font-family="Arial, Helvetica, sans-serif" font-size="21" font-weight="800" fill="white" stroke="#111" stroke-width="3" paint-order="stroke">3</text>
<circle cx="737.5" cy="351.9" r="18.5" fill="white" fill-opacity="0.84"/>
<circle cx="737.5" cy="351.9" r="15.5" fill="#005DFF" fill-opacity="0.66" stroke="#111" stroke-width="2.5"/>
<text x="737.5" y="358.9" text-anchor="middle" font-family="Arial, Helvetica, sans-serif" font-size="21" font-weight="800" fill="white" stroke="#111" stroke-width="3" paint-order="stroke">4</text>
<circle cx="546.5" cy="277.9" r="12.0" fill="white" fill-opacity="0.84"/>
<circle cx="546.5" cy="277.9" r="9.0" fill="#005DFF" fill-opacity="0.66" stroke="#111" stroke-width="2.5"/>
<text x="546.5" y="284.9" text-anchor="middle" font-family="Arial, Helvetica, sans-serif" font-size="21" font-weight="800" fill="white" stroke="#111" stroke-width="3" paint-order="stroke">5</text>
<circle cx="511.2" cy="374.9" r="17.3" fill="white" fill-opacity="0.84"/>
<circle cx="511.2" cy="374.9" r="14.3" fill="#005DFF" fill-opacity="0.66" stroke="#111" stroke-width="2.5"/>
<text x="511.2" y="381.9" text-anchor="middle" font-family="Arial, Helvetica, sans-serif" font-size="21" font-weight="800" fill="white" stroke="#111" stroke-width="3" paint-order="stroke">6</text>
<circle cx="550.5" cy="371.0" r="17.1" fill="white" fill-opacity="0.84"/>
<circle cx="550.5" cy="371.0" r="14.1" fill="#005DFF" fill-opacity="0.66" stroke="#111" stroke-width="2.5"/>
<text x="550.5" y="378.0" text-anchor="middle" font-family="Arial, Helvetica, sans-serif" font-size="21" font-weight="800" fill="white" stroke="#111" stroke-width="3" paint-order="stroke">7</text>
<circle cx="743.3" cy="360.4" r="18.1" fill="white" fill-opacity="0.84"/>
<circle cx="743.3" cy="360.4" r="15.1" fill="#005DFF" fill-opacity="0.66" stroke="#111" stroke-width="2.5"/>
<text x="743.3" y="367.4" text-anchor="middle" font-family="Arial, Helvetica, sans-serif" font-size="21" font-weight="800" fill="white" stroke="#111" stroke-width="3" paint-order="stroke">8</text>
<circle cx="1178.9" cy="452.1" r="17.0" fill="white" fill-opacity="0.84"/>
<circle cx="1178.9" cy="452.1" r="14.0" fill="#005DFF" fill-opacity="0.66" stroke="#111" stroke-width="2.5"/>
<text x="1178.9" y="459.1" text-anchor="middle" font-family="Arial, Helvetica, sans-serif" font-size="21" font-weight="800" fill="white" stroke="#111" stroke-width="3" paint-order="stroke">9</text>
<circle cx="1315.6" cy="466.6" r="19.5" fill="white" fill-opacity="0.84"/>
<circle cx="1315.6" cy="466.6" r="16.5" fill="#005DFF" fill-opacity="0.66" stroke="#111" stroke-width="2.5"/>
<text x="1315.6" y="473.6" text-anchor="middle" font-family="Arial, Helvetica, sans-serif" font-size="21" font-weight="800" fill="white" stroke="#111" stroke-width="3" paint-order="stroke">10</text>
<circle cx="1170.5" cy="446.4" r="19.8" fill="white" fill-opacity="0.84"/>
<circle cx="1170.5" cy="446.4" r="16.8" fill="#005DFF" fill-opacity="0.66" stroke="#111" stroke-width="2.5"/>
<text x="1170.5" y="453.4" text-anchor="middle" font-family="Arial, Helvetica, sans-serif" font-size="21" font-weight="800" fill="white" stroke="#111" stroke-width="3" paint-order="stroke">11</text>
<circle cx="1138.5" cy="388.2" r="20.2" fill="white" fill-opacity="0.84"/>
<circle cx="1138.5" cy="388.2" r="17.2" fill="#005DFF" fill-opacity="0.66" stroke="#111" stroke-width="2.5"/>
<text x="1138.5" y="395.2" text-anchor="middle" font-family="Arial, Helvetica, sans-serif" font-size="21" font-weight="800" fill="white" stroke="#111" stroke-width="3" paint-order="stroke">12</text>
<circle cx="1077.9" cy="435.6" r="18.5" fill="white" fill-opacity="0.84"/>
<circle cx="1077.9" cy="435.6" r="15.5" fill="#005DFF" fill-opacity="0.66" stroke="#111" stroke-width="2.5"/>
<text x="1077.9" y="442.6" text-anchor="middle" font-family="Arial, Helvetica, sans-serif" font-size="21" font-weight="800" fill="white" stroke="#111" stroke-width="3" paint-order="stroke">13</text>
<circle cx="1104.2" cy="464.3" r="20.5" fill="white" fill-opacity="0.84"/>
<circle cx="1104.2" cy="464.3" r="17.5" fill="#005DFF" fill-opacity="0.66" stroke="#111" stroke-width="2.5"/>
<text x="1104.2" y="471.3" text-anchor="middle" font-family="Arial, Helvetica, sans-serif" font-size="21" font-weight="800" fill="white" stroke="#111" stroke-width="3" paint-order="stroke">14</text>
<circle cx="1349.0" cy="447.8" r="18.0" fill="white" fill-opacity="0.84"/>
<circle cx="1349.0" cy="447.8" r="15.0" fill="#005DFF" fill-opacity="0.66" stroke="#111" stroke-width="2.5"/>
<text x="1349.0" y="454.8" text-anchor="middle" font-family="Arial, Helvetica, sans-serif" font-size="21" font-weight="800" fill="white" stroke="#111" stroke-width="3" paint-order="stroke">15</text>
<circle cx="1318.5" cy="448.8" r="18.1" fill="white" fill-opacity="0.84"/>
<circle cx="1318.5" cy="448.8" r="15.1" fill="#005DFF" fill-opacity="0.66" stroke="#111" stroke-width="2.5"/>
<text x="1318.5" y="455.8" text-anchor="middle" font-family="Arial, Helvetica, sans-serif" font-size="21" font-weight="800" fill="white" stroke="#111" stroke-width="3" paint-order="stroke">16</text>
<circle cx="810.2" cy="213.3" r="12.8" fill="white" fill-opacity="0.84"/>
<circle cx="810.2" cy="213.3" r="9.8" fill="#005DFF" fill-opacity="0.66" stroke="#111" stroke-width="2.5"/>
<text x="810.2" y="220.3" text-anchor="middle" font-family="Arial, Helvetica, sans-serif" font-size="21" font-weight="800" fill="white" stroke="#111" stroke-width="3" paint-order="stroke">17</text>
<circle cx="813.1" cy="343.9" r="17.6" fill="white" fill-opacity="0.84"/>
<circle cx="813.1" cy="343.9" r="14.6" fill="#005DFF" fill-opacity="0.66" stroke="#111" stroke-width="2.5"/>
<text x="813.1" y="350.9" text-anchor="middle" font-family="Arial, Helvetica, sans-serif" font-size="21" font-weight="800" fill="white" stroke="#111" stroke-width="3" paint-order="stroke">18</text>
<circle cx="749.3" cy="339.3" r="19.3" fill="white" fill-opacity="0.84"/>
<circle cx="749.3" cy="339.3" r="16.3" fill="#005DFF" fill-opacity="0.66" stroke="#111" stroke-width="2.5"/>
<text x="749.3" y="346.3" text-anchor="middle" font-family="Arial, Helvetica, sans-serif" font-size="21" font-weight="800" fill="white" stroke="#111" stroke-width="3" paint-order="stroke">19</text>
<circle cx="570.3" cy="370.7" r="21.9" fill="white" fill-opacity="0.84"/>
<circle cx="570.3" cy="370.7" r="18.9" fill="#005DFF" fill-opacity="0.66" stroke="#111" stroke-width="2.5"/>
<text x="570.3" y="377.7" text-anchor="middle" font-family="Arial, Helvetica, sans-serif" font-size="21" font-weight="800" fill="white" stroke="#111" stroke-width="3" paint-order="stroke">20</text>
<circle cx="546.6" cy="417.7" r="20.9" fill="white" fill-opacity="0.84"/>
<circle cx="546.6" cy="417.7" r="17.9" fill="#005DFF" fill-opacity="0.66" stroke="#111" stroke-width="2.5"/>
<text x="546.6" y="424.7" text-anchor="middle" font-family="Arial, Helvetica, sans-serif" font-size="21" font-weight="800" fill="white" stroke="#111" stroke-width="3" paint-order="stroke">21</text>
<circle cx="487.2" cy="475.9" r="18.0" fill="white" fill-opacity="0.84"/>
<circle cx="487.2" cy="475.9" r="15.0" fill="#005DFF" fill-opacity="0.66" stroke="#111" stroke-width="2.5"/>
<text x="487.2" y="482.9" text-anchor="middle" font-family="Arial, Helvetica, sans-serif" font-size="21" font-weight="800" fill="white" stroke="#111" stroke-width="3" paint-order="stroke">22</text>
<circle cx="1200.2" cy="504.1" r="17.1" fill="white" fill-opacity="0.84"/>
<circle cx="1200.2" cy="504.1" r="14.1" fill="#005DFF" fill-opacity="0.66" stroke="#111" stroke-width="2.5"/>
<text x="1200.2" y="511.1" text-anchor="middle" font-family="Arial, Helvetica, sans-serif" font-size="21" font-weight="800" fill="white" stroke="#111" stroke-width="3" paint-order="stroke">23</text>
<circle cx="1298.8" cy="473.4" r="18.0" fill="white" fill-opacity="0.84"/>
<circle cx="1298.8" cy="473.4" r="15.0" fill="#005DFF" fill-opacity="0.66" stroke="#111" stroke-width="2.5"/>
<text x="1298.8" y="480.4" text-anchor="middle" font-family="Arial, Helvetica, sans-serif" font-size="21" font-weight="800" fill="white" stroke="#111" stroke-width="3" paint-order="stroke">24</text>
<circle cx="1150.7" cy="480.5" r="19.1" fill="white" fill-opacity="0.84"/>
<circle cx="1150.7" cy="480.5" r="16.1" fill="#005DFF" fill-opacity="0.66" stroke="#111" stroke-width="2.5"/>
<text x="1150.7" y="487.5" text-anchor="middle" font-family="Arial, Helvetica, sans-serif" font-size="21" font-weight="800" fill="white" stroke="#111" stroke-width="3" paint-order="stroke">25</text>
<circle cx="1108.7" cy="471.5" r="19.6" fill="white" fill-opacity="0.84"/>
<circle cx="1108.7" cy="471.5" r="16.6" fill="#005DFF" fill-opacity="0.66" stroke="#111" stroke-width="2.5"/>
<text x="1108.7" y="478.5" text-anchor="middle" font-family="Arial, Helvetica, sans-serif" font-size="21" font-weight="800" fill="white" stroke="#111" stroke-width="3" paint-order="stroke">26</text>
<circle cx="1324.0" cy="438.7" r="20.0" fill="white" fill-opacity="0.84"/>
<circle cx="1324.0" cy="438.7" r="17.0" fill="#005DFF" fill-opacity="0.66" stroke="#111" stroke-width="2.5"/>
<text x="1324.0" y="445.7" text-anchor="middle" font-family="Arial, Helvetica, sans-serif" font-size="21" font-weight="800" fill="white" stroke="#111" stroke-width="3" paint-order="stroke">27</text>
<circle cx="1239.5" cy="390.8" r="18.5" fill="white" fill-opacity="0.84"/>
<circle cx="1239.5" cy="390.8" r="15.5" fill="#005DFF" fill-opacity="0.66" stroke="#111" stroke-width="2.5"/>
<text x="1239.5" y="397.8" text-anchor="middle" font-family="Arial, Helvetica, sans-serif" font-size="21" font-weight="800" fill="white" stroke="#111" stroke-width="3" paint-order="stroke">28</text>
<circle cx="1299.0" cy="422.5" r="17.9" fill="white" fill-opacity="0.84"/>
<circle cx="1299.0" cy="422.5" r="14.9" fill="#005DFF" fill-opacity="0.66" stroke="#111" stroke-width="2.5"/>
<text x="1299.0" y="429.5" text-anchor="middle" font-family="Arial, Helvetica, sans-serif" font-size="21" font-weight="800" fill="white" stroke="#111" stroke-width="3" paint-order="stroke">29</text>
<circle cx="1386.8" cy="343.9" r="13.4" fill="white" fill-opacity="0.84"/>
<circle cx="1386.8" cy="343.9" r="10.4" fill="#005DFF" fill-opacity="0.66" stroke="#111" stroke-width="2.5"/>
<text x="1386.8" y="350.9" text-anchor="middle" font-family="Arial, Helvetica, sans-serif" font-size="21" font-weight="800" fill="white" stroke="#111" stroke-width="3" paint-order="stroke">30</text>
<circle cx="1341.9" cy="432.4" r="20.6" fill="white" fill-opacity="0.84"/>
<circle cx="1341.9" cy="432.4" r="17.6" fill="#005DFF" fill-opacity="0.66" stroke="#111" stroke-width="2.5"/>
<text x="1341.9" y="439.4" text-anchor="middle" font-family="Arial, Helvetica, sans-serif" font-size="21" font-weight="800" fill="white" stroke="#111" stroke-width="3" paint-order="stroke">31</text>
<circle cx="1289.2" cy="426.8" r="20.0" fill="white" fill-opacity="0.84"/>
<circle cx="1289.2" cy="426.8" r="17.0" fill="#005DFF" fill-opacity="0.66" stroke="#111" stroke-width="2.5"/>
<text x="1289.2" y="433.8" text-anchor="middle" font-family="Arial, Helvetica, sans-serif" font-size="21" font-weight="800" fill="white" stroke="#111" stroke-width="3" paint-order="stroke">32</text>
<circle cx="1328.7" cy="455.3" r="23.5" fill="white" fill-opacity="0.84"/>
<circle cx="1328.7" cy="455.3" r="20.5" fill="#005DFF" fill-opacity="0.66" stroke="#111" stroke-width="2.5"/>
<text x="1328.7" y="462.3" text-anchor="middle" font-family="Arial, Helvetica, sans-serif" font-size="21" font-weight="800" fill="white" stroke="#111" stroke-width="3" paint-order="stroke">33</text>
<circle cx="893.9" cy="173.9" r="12.8" fill="white" fill-opacity="0.84"/>
<circle cx="893.9" cy="173.9" r="9.8" fill="#FF8A00" fill-opacity="0.66" stroke="#111" stroke-width="2.5"/>
<text x="893.9" y="180.9" text-anchor="middle" font-family="Arial, Helvetica, sans-serif" font-size="21" font-weight="800" fill="white" stroke="#111" stroke-width="3" paint-order="stroke">34</text>
<circle cx="898.3" cy="331.5" r="18.2" fill="white" fill-opacity="0.84"/>
<circle cx="898.3" cy="331.5" r="15.2" fill="#FF8A00" fill-opacity="0.66" stroke="#111" stroke-width="2.5"/>
<text x="898.3" y="338.5" text-anchor="middle" font-family="Arial, Helvetica, sans-serif" font-size="21" font-weight="800" fill="white" stroke="#111" stroke-width="3" paint-order="stroke">35</text>
<circle cx="1112.2" cy="469.0" r="20.4" fill="white" fill-opacity="0.84"/>
<circle cx="1112.2" cy="469.0" r="17.4" fill="#FF8A00" fill-opacity="0.66" stroke="#111" stroke-width="2.5"/>
<text x="1112.2" y="476.0" text-anchor="middle" font-family="Arial, Helvetica, sans-serif" font-size="21" font-weight="800" fill="white" stroke="#111" stroke-width="3" paint-order="stroke">36</text>
<circle cx="759.9" cy="388.3" r="20.8" fill="white" fill-opacity="0.84"/>
<circle cx="759.9" cy="388.3" r="17.8" fill="#FF8A00" fill-opacity="0.66" stroke="#111" stroke-width="2.5"/>
<text x="759.9" y="395.3" text-anchor="middle" font-family="Arial, Helvetica, sans-serif" font-size="21" font-weight="800" fill="white" stroke="#111" stroke-width="3" paint-order="stroke">37</text>
<rect x="16" y="1094" width="1120" height="168" rx="8" fill="white" fill-opacity="0.92" stroke="#111" stroke-opacity="0.22"/>
<text x="36.0" y="1128.0" font-family="Arial, Helvetica, sans-serif" font-size="24" font-weight="600" fill="#111">K24 / k24_1.asc block 44 | push-2-2-r.png | RT 11876 ms | 37 fixations</text>
<text x="36.0" y="1159.0" font-family="Arial, Helvetica, sans-serif" font-size="24" font-weight="600" fill="#111">numbers show fixation order; dot size shows fixation duration</text>
<circle cx="42" cy="1198" r="11" fill="#005DFF" fill-opacity="0.64" stroke="#111" stroke-width="2"/>
<text x="62.0" y="1206.0" font-family="Arial, Helvetica, sans-serif" font-size="22" font-weight="500" fill="#111">blue: before speech onset</text>
<circle cx="42" cy="1232" r="11" fill="#FF8A00" fill-opacity="0.64" stroke="#111" stroke-width="2"/>
<text x="62.0" y="1240.0" font-family="Arial, Helvetica, sans-serif" font-size="22" font-weight="500" fill="#111">orange: first 2000 ms after onset</text>
</svg>
