<svg xmlns="http://www.w3.org/2000/svg" width="1920" height="1320" viewBox="0 0 1920 1320">
<image href="../../../../stimuli/Animate-animate%20centered%20and%20flipped/dress-2-2-r.png" x="0" y="0" width="1920" height="1080" preserveAspectRatio="none"/>
<rect x="0" y="0" width="1920" height="1080" fill="none" stroke="#111" stroke-width="2"/>
<rect x="0" y="1080" width="1920" height="240" fill="#f7f7f7"/>
<rect x="970.0" y="100.0" width="850" height="850" fill="none" stroke="#00B8D9" stroke-width="6" stroke-dasharray="18 12"/>
<rect x="982.0" y="62.0" width="102.0" height="38" rx="6" fill="white" fill-opacity="0.86" stroke="#00B8D9" stroke-width="3"/>
<text x="992.0" y="88.0" font-family="Arial, Helvetica, sans-serif" font-size="24" font-weight="700" fill="#111">AGENT</text>
<rect x="40.0" y="100.0" width="850" height="850" fill="none" stroke="#FF3B8A" stroke-width="6" stroke-dasharray="18 12"/>
<rect x="52.0" y="62.0" width="134.0" height="38" rx="6" fill="white" fill-opacity="0.86" stroke="#FF3B8A" stroke-width="3"/>
<text x="62.0" y="88.0" font-family="Arial, Helvetica, sans-serif" font-size="24" font-weight="700" fill="#111">PATIENT</text>
<polyline points="1140.4,383.9 1157.6,313.4 1282.0,380.1 1403.4,303.1 1203.7,440.8 741.1,385.3 709.3,316.9 468.6,196.2 487.2,321.6 570.2,332.6 1169.6,332.8 1368.2,302.9 834.8,236.5 825.2,336.8 752.2,294.3 630.8,312.4 394.9,225.4 404.2,322.3 635.5,361.6 1092.5,484.9 1212.0,573.7 1354.3,648.7 1307.9,584.0 1257.5,485.8 1289.0,384.5 1230.9,492.8 1195.0,385.6 1155.6,329.9 1048.0,435.4 821.3,301.1 827.1,409.1 1051.2,434.8 1365.4,453.9 1313.7,461.7 1349.6,576.4 1340.5,641.0 1355.2,681.1 1359.8,616.2 1014.5,273.8 985.5,386.9 1090.6,422.1 1144.5,284.5 1395.9,304.2 740.6,213.4 746.1,345.8 1136.0,494.6 1109.5,569.5 914.4,362.6 910.7,450.1 1083.2,480.0 1249.6,526.0 1182.4,526.8 1310.3,570.9 1095.1,455.4" fill="none" stroke="#111" stroke-width="4" stroke-opacity="0.36" stroke-linejoin="round"/>
<circle cx="1140.4" cy="383.9" r="17.2" fill="white" fill-opacity="0.84"/>
<circle cx="1140.4" cy="383.9" r="14.2" fill="#005DFF" fill-opacity="0.66" stroke="#111" stroke-width="2.5"/>
<text x="1140.4" y="390.9" text-anchor="middle" font-family="Arial, Helvetica, sans-serif" font-size="21" font-weight="800" fill="white" stroke="#111" stroke-width="3" paint-order="stroke">1</text>
<circle cx="1157.6" cy="313.4" r="18.1" fill="white" fill-opacity="0.84"/>
<circle cx="1157.6" cy="313.4" r="15.1" fill="#005DFF" fill-opacity="0.66" stroke="#111" stroke-width="2.5"/>
<text x="1157.6" y="320.4" text-anchor="middle" font-family="Arial, Helvetica, sans-serif" font-size="21" font-weight="800" fill="white" stroke="#111" stroke-width="3" paint-order="stroke">2</text>
<circle cx="1282.0" cy="380.1" r="16.6" fill="white" fill-opacity="0.84"/>
<circle cx="1282.0" cy="380.1" r="13.6" fill="#005DFF" fill-opacity="0.66" stroke="#111" stroke-width="2.5"/>
<text x="1282.0" y="387.1" text-anchor="middle" font-family="Arial, Helvetica, sans-serif" font-size="21" font-weight="800" fill="white" stroke="#111" stroke-width="3" paint-order="stroke">3</text>
<circle cx="1403.4" cy="303.1" r="16.9" fill="white" fill-opacity="0.84"/>
<circle cx="1403.4" cy="303.1" r="13.9" fill="#005DFF" fill-opacity="0.66" stroke="#111" stroke-width="2.5"/>
<text x="1403.4" y="310.1" text-anchor="middle" font-family="Arial, Helvetica, sans-serif" font-size="21" font-weight="800" fill="white" stroke="#111" stroke-width="3" paint-order="stroke">4</text>
<circle cx="1203.7" cy="440.8" r="17.0" fill="white" fill-opacity="0.84"/>
<circle cx="1203.7" cy="440.8" r="14.0" fill="#005DFF" fill-opacity="0.66" stroke="#111" stroke-width="2.5"/>
<text x="1203.7" y="447.8" text-anchor="middle" font-family="Arial, Helvetica, sans-serif" font-size="21" font-weight="800" fill="white" stroke="#111" stroke-width="3" paint-order="stroke">5</text>
<circle cx="741.1" cy="385.3" r="20.9" fill="white" fill-opacity="0.84"/>
<circle cx="741.1" cy="385.3" r="17.9" fill="#005DFF" fill-opacity="0.66" stroke="#111" stroke-width="2.5"/>
<text x="741.1" y="392.3" text-anchor="middle" font-family="Arial, Helvetica, sans-serif" font-size="21" font-weight="800" fill="white" stroke="#111" stroke-width="3" paint-order="stroke">6</text>
<circle cx="709.3" cy="316.9" r="18.3" fill="white" fill-opacity="0.84"/>
<circle cx="709.3" cy="316.9" r="15.3" fill="#005DFF" fill-opacity="0.66" stroke="#111" stroke-width="2.5"/>
<text x="709.3" y="323.9" text-anchor="middle" font-family="Arial, Helvetica, sans-serif" font-size="21" font-weight="800" fill="white" stroke="#111" stroke-width="3" paint-order="stroke">7</text>
<circle cx="468.6" cy="196.2" r="11.9" fill="white" fill-opacity="0.84"/>
<circle cx="468.6" cy="196.2" r="8.9" fill="#005DFF" fill-opacity="0.66" stroke="#111" stroke-width="2.5"/>
<text x="468.6" y="203.2" text-anchor="middle" font-family="Arial, Helvetica, sans-serif" font-size="21" font-weight="800" fill="white" stroke="#111" stroke-width="3" paint-order="stroke">8</text>
<circle cx="487.2" cy="321.6" r="15.6" fill="white" fill-opacity="0.84"/>
<circle cx="487.2" cy="321.6" r="12.6" fill="#005DFF" fill-opacity="0.66" stroke="#111" stroke-width="2.5"/>
<text x="487.2" y="328.6" text-anchor="middle" font-family="Arial, Helvetica, sans-serif" font-size="21" font-weight="800" fill="white" stroke="#111" stroke-width="3" paint-order="stroke">9</text>
<circle cx="570.2" cy="332.6" r="17.1" fill="white" fill-opacity="0.84"/>
<circle cx="570.2" cy="332.6" r="14.1" fill="#005DFF" fill-opacity="0.66" stroke="#111" stroke-width="2.5"/>
<text x="570.2" y="339.6" text-anchor="middle" font-family="Arial, Helvetica, sans-serif" font-size="21" font-weight="800" fill="white" stroke="#111" stroke-width="3" paint-order="stroke">10</text>
<circle cx="1169.6" cy="332.8" r="18.1" fill="white" fill-opacity="0.84"/>
<circle cx="1169.6" cy="332.8" r="15.1" fill="#005DFF" fill-opacity="0.66" stroke="#111" stroke-width="2.5"/>
<text x="1169.6" y="339.8" text-anchor="middle" font-family="Arial, Helvetica, sans-serif" font-size="21" font-weight="800" fill="white" stroke="#111" stroke-width="3" paint-order="stroke">11</text>
<circle cx="1368.2" cy="302.9" r="19.2" fill="white" fill-opacity="0.84"/>
<circle cx="1368.2" cy="302.9" r="16.2" fill="#005DFF" fill-opacity="0.66" stroke="#111" stroke-width="2.5"/>
<text x="1368.2" y="309.9" text-anchor="middle" font-family="Arial, Helvetica, sans-serif" font-size="21" font-weight="800" fill="white" stroke="#111" stroke-width="3" paint-order="stroke">12</text>
<circle cx="834.8" cy="236.5" r="12.6" fill="white" fill-opacity="0.84"/>
<circle cx="834.8" cy="236.5" r="9.6" fill="#005DFF" fill-opacity="0.66" stroke="#111" stroke-width="2.5"/>
<text x="834.8" y="243.5" text-anchor="middle" font-family="Arial, Helvetica, sans-serif" font-size="21" font-weight="800" fill="white" stroke="#111" stroke-width="3" paint-order="stroke">13</text>
<circle cx="825.2" cy="336.8" r="15.8" fill="white" fill-opacity="0.84"/>
<circle cx="825.2" cy="336.8" r="12.8" fill="#005DFF" fill-opacity="0.66" stroke="#111" stroke-width="2.5"/>
<text x="825.2" y="343.8" text-anchor="middle" font-family="Arial, Helvetica, sans-serif" font-size="21" font-weight="800" fill="white" stroke="#111" stroke-width="3" paint-order="stroke">14</text>
<circle cx="752.2" cy="294.3" r="17.9" fill="white" fill-opacity="0.84"/>
<circle cx="752.2" cy="294.3" r="14.9" fill="#005DFF" fill-opacity="0.66" stroke="#111" stroke-width="2.5"/>
<text x="752.2" y="301.3" text-anchor="middle" font-family="Arial, Helvetica, sans-serif" font-size="21" font-weight="800" fill="white" stroke="#111" stroke-width="3" paint-order="stroke">15</text>
<circle cx="630.8" cy="312.4" r="18.5" fill="white" fill-opacity="0.84"/>
<circle cx="630.8" cy="312.4" r="15.5" fill="#005DFF" fill-opacity="0.66" stroke="#111" stroke-width="2.5"/>
<text x="630.8" y="319.4" text-anchor="middle" font-family="Arial, Helvetica, sans-serif" font-size="21" font-weight="800" fill="white" stroke="#111" stroke-width="3" paint-order="stroke">16</text>
<circle cx="394.9" cy="225.4" r="12.6" fill="white" fill-opacity="0.84"/>
<circle cx="394.9" cy="225.4" r="9.6" fill="#005DFF" fill-opacity="0.66" stroke="#111" stroke-width="2.5"/>
<text x="394.9" y="232.4" text-anchor="middle" font-family="Arial, Helvetica, sans-serif" font-size="21" font-weight="800" fill="white" stroke="#111" stroke-width="3" paint-order="stroke">17</text>
<circle cx="404.2" cy="322.3" r="15.9" fill="white" fill-opacity="0.84"/>
<circle cx="404.2" cy="322.3" r="12.9" fill="#005DFF" fill-opacity="0.66" stroke="#111" stroke-width="2.5"/>
<text x="404.2" y="329.3" text-anchor="middle" font-family="Arial, Helvetica, sans-serif" font-size="21" font-weight="800" fill="white" stroke="#111" stroke-width="3" paint-order="stroke">18</text>
<circle cx="635.5" cy="361.6" r="15.7" fill="white" fill-opacity="0.84"/>
<circle cx="635.5" cy="361.6" r="12.7" fill="#005DFF" fill-opacity="0.66" stroke="#111" stroke-width="2.5"/>
<text x="635.5" y="368.6" text-anchor="middle" font-family="Arial, Helvetica, sans-serif" font-size="21" font-weight="800" fill="white" stroke="#111" stroke-width="3" paint-order="stroke">19</text>
<circle cx="1092.5" cy="484.9" r="20.7" fill="white" fill-opacity="0.84"/>
<circle cx="1092.5" cy="484.9" r="17.7" fill="#005DFF" fill-opacity="0.66" stroke="#111" stroke-width="2.5"/>
<text x="1092.5" y="491.9" text-anchor="middle" font-family="Arial, Helvetica, sans-serif" font-size="21" font-weight="800" fill="white" stroke="#111" stroke-width="3" paint-order="stroke">20</text>
<circle cx="1212.0" cy="573.7" r="16.6" fill="white" fill-opacity="0.84"/>
<circle cx="1212.0" cy="573.7" r="13.6" fill="#005DFF" fill-opacity="0.66" stroke="#111" stroke-width="2.5"/>
<text x="1212.0" y="580.7" text-anchor="middle" font-family="Arial, Helvetica, sans-serif" font-size="21" font-weight="800" fill="white" stroke="#111" stroke-width="3" paint-order="stroke">21</text>
<circle cx="1354.3" cy="648.7" r="23.0" fill="white" fill-opacity="0.84"/>
<circle cx="1354.3" cy="648.7" r="20.0" fill="#005DFF" fill-opacity="0.66" stroke="#111" stroke-width="2.5"/>
<text x="1354.3" y="655.7" text-anchor="middle" font-family="Arial, Helvetica, sans-serif" font-size="21" font-weight="800" fill="white" stroke="#111" stroke-width="3" paint-order="stroke">22</text>
<circle cx="1307.9" cy="584.0" r="18.6" fill="white" fill-opacity="0.84"/>
<circle cx="1307.9" cy="584.0" r="15.6" fill="#005DFF" fill-opacity="0.66" stroke="#111" stroke-width="2.5"/>
<text x="1307.9" y="591.0" text-anchor="middle" font-family="Arial, Helvetica, sans-serif" font-size="21" font-weight="800" fill="white" stroke="#111" stroke-width="3" paint-order="stroke">23</text>
<circle cx="1257.5" cy="485.8" r="18.2" fill="white" fill-opacity="0.84"/>
<circle cx="1257.5" cy="485.8" r="15.2" fill="#005DFF" fill-opacity="0.66" stroke="#111" stroke-width="2.5"/>
<text x="1257.5" y="492.8" text-anchor="middle" font-family="Arial, Helvetica, sans-serif" font-size="21" font-weight="800" fill="white" stroke="#111" stroke-width="3" paint-order="stroke">24</text>
<circle cx="1289.0" cy="384.5" r="12.6" fill="white" fill-opacity="0.84"/>
<circle cx="1289.0" cy="384.5" r="9.6" fill="#005DFF" fill-opacity="0.66" stroke="#111" stroke-width="2.5"/>
<text x="1289.0" y="391.5" text-anchor="middle" font-family="Arial, Helvetica, sans-serif" font-size="21" font-weight="800" fill="white" stroke="#111" stroke-width="3" paint-order="stroke">25</text>
<circle cx="1230.9" cy="492.8" r="18.3" fill="white" fill-opacity="0.84"/>
<circle cx="1230.9" cy="492.8" r="15.3" fill="#005DFF" fill-opacity="0.66" stroke="#111" stroke-width="2.5"/>
<text x="1230.9" y="499.8" text-anchor="middle" font-family="Arial, Helvetica, sans-serif" font-size="21" font-weight="800" fill="white" stroke="#111" stroke-width="3" paint-order="stroke">26</text>
<circle cx="1195.0" cy="385.6" r="19.0" fill="white" fill-opacity="0.84"/>
<circle cx="1195.0" cy="385.6" r="16.0" fill="#005DFF" fill-opacity="0.66" stroke="#111" stroke-width="2.5"/>
<text x="1195.0" y="392.6" text-anchor="middle" font-family="Arial, Helvetica, sans-serif" font-size="21" font-weight="800" fill="white" stroke="#111" stroke-width="3" paint-order="stroke">27</text>
<circle cx="1155.6" cy="329.9" r="18.9" fill="white" fill-opacity="0.84"/>
<circle cx="1155.6" cy="329.9" r="15.9" fill="#005DFF" fill-opacity="0.66" stroke="#111" stroke-width="2.5"/>
<text x="1155.6" y="336.9" text-anchor="middle" font-family="Arial, Helvetica, sans-serif" font-size="21" font-weight="800" fill="white" stroke="#111" stroke-width="3" paint-order="stroke">28</text>
<circle cx="1048.0" cy="435.4" r="19.4" fill="white" fill-opacity="0.84"/>
<circle cx="1048.0" cy="435.4" r="16.4" fill="#005DFF" fill-opacity="0.66" stroke="#111" stroke-width="2.5"/>
<text x="1048.0" y="442.4" text-anchor="middle" font-family="Arial, Helvetica, sans-serif" font-size="21" font-weight="800" fill="white" stroke="#111" stroke-width="3" paint-order="stroke">29</text>
<circle cx="821.3" cy="301.1" r="12.8" fill="white" fill-opacity="0.84"/>
<circle cx="821.3" cy="301.1" r="9.8" fill="#005DFF" fill-opacity="0.66" stroke="#111" stroke-width="2.5"/>
<text x="821.3" y="308.1" text-anchor="middle" font-family="Arial, Helvetica, sans-serif" font-size="21" font-weight="800" fill="white" stroke="#111" stroke-width="3" paint-order="stroke">30</text>
<circle cx="827.1" cy="409.1" r="19.9" fill="white" fill-opacity="0.84"/>
<circle cx="827.1" cy="409.1" r="16.9" fill="#005DFF" fill-opacity="0.66" stroke="#111" stroke-width="2.5"/>
<text x="827.1" y="416.1" text-anchor="middle" font-family="Arial, Helvetica, sans-serif" font-size="21" font-weight="800" fill="white" stroke="#111" stroke-width="3" paint-order="stroke">31</text>
<circle cx="1051.2" cy="434.8" r="12.3" fill="white" fill-opacity="0.84"/>
<circle cx="1051.2" cy="434.8" r="9.3" fill="#005DFF" fill-opacity="0.66" stroke="#111" stroke-width="2.5"/>
<text x="1051.2" y="441.8" text-anchor="middle" font-family="Arial, Helvetica, sans-serif" font-size="21" font-weight="800" fill="white" stroke="#111" stroke-width="3" paint-order="stroke">32</text>
<circle cx="1365.4" cy="453.9" r="12.2" fill="white" fill-opacity="0.84"/>
<circle cx="1365.4" cy="453.9" r="9.2" fill="#005DFF" fill-opacity="0.66" stroke="#111" stroke-width="2.5"/>
<text x="1365.4" y="460.9" text-anchor="middle" font-family="Arial, Helvetica, sans-serif" font-size="21" font-weight="800" fill="white" stroke="#111" stroke-width="3" paint-order="stroke">33</text>
<circle cx="1313.7" cy="461.7" r="16.6" fill="white" fill-opacity="0.84"/>
<circle cx="1313.7" cy="461.7" r="13.6" fill="#005DFF" fill-opacity="0.66" stroke="#111" stroke-width="2.5"/>
<text x="1313.7" y="468.7" text-anchor="middle" font-family="Arial, Helvetica, sans-serif" font-size="21" font-weight="800" fill="white" stroke="#111" stroke-width="3" paint-order="stroke">34</text>
<circle cx="1349.6" cy="576.4" r="17.7" fill="white" fill-opacity="0.84"/>
<circle cx="1349.6" cy="576.4" r="14.7" fill="#005DFF" fill-opacity="0.66" stroke="#111" stroke-width="2.5"/>
<text x="1349.6" y="583.4" text-anchor="middle" font-family="Arial, Helvetica, sans-serif" font-size="21" font-weight="800" fill="white" stroke="#111" stroke-width="3" paint-order="stroke">35</text>
<circle cx="1340.5" cy="641.0" r="19.5" fill="white" fill-opacity="0.84"/>
<circle cx="1340.5" cy="641.0" r="16.5" fill="#005DFF" fill-opacity="0.66" stroke="#111" stroke-width="2.5"/>
<text x="1340.5" y="648.0" text-anchor="middle" font-family="Arial, Helvetica, sans-serif" font-size="21" font-weight="800" fill="white" stroke="#111" stroke-width="3" paint-order="stroke">36</text>
<circle cx="1355.2" cy="681.1" r="25.6" fill="white" fill-opacity="0.84"/>
<circle cx="1355.2" cy="681.1" r="22.6" fill="#005DFF" fill-opacity="0.66" stroke="#111" stroke-width="2.5"/>
<text x="1355.2" y="688.1" text-anchor="middle" font-family="Arial, Helvetica, sans-serif" font-size="21" font-weight="800" fill="white" stroke="#111" stroke-width="3" paint-order="stroke">37</text>
<circle cx="1359.8" cy="616.2" r="18.6" fill="white" fill-opacity="0.84"/>
<circle cx="1359.8" cy="616.2" r="15.6" fill="#005DFF" fill-opacity="0.66" stroke="#111" stroke-width="2.5"/>
<text x="1359.8" y="623.2" text-anchor="middle" font-family="Arial, Helvetica, sans-serif" font-size="21" font-weight="800" fill="white" stroke="#111" stroke-width="3" paint-order="stroke">38</text>
<circle cx="1014.5" cy="273.8" r="12.1" fill="white" fill-opacity="0.84"/>
<circle cx="1014.5" cy="273.8" r="9.1" fill="#005DFF" fill-opacity="0.66" stroke="#111" stroke-width="2.5"/>
<text x="1014.5" y="280.8" text-anchor="middle" font-family="Arial, Helvetica, sans-serif" font-size="21" font-weight="800" fill="white" stroke="#111" stroke-width="3" paint-order="stroke">39</text>
<circle cx="985.5" cy="386.9" r="16.8" fill="white" fill-opacity="0.84"/>
<circle cx="985.5" cy="386.9" r="13.8" fill="#005DFF" fill-opacity="0.66" stroke="#111" stroke-width="2.5"/>
<text x="985.5" y="393.9" text-anchor="middle" font-family="Arial, Helvetica, sans-serif" font-size="21" font-weight="800" fill="white" stroke="#111" stroke-width="3" paint-order="stroke">40</text>
<circle cx="1090.6" cy="422.1" r="17.3" fill="white" fill-opacity="0.84"/>
<circle cx="1090.6" cy="422.1" r="14.3" fill="#005DFF" fill-opacity="0.66" stroke="#111" stroke-width="2.5"/>
<text x="1090.6" y="429.1" text-anchor="middle" font-family="Arial, Helvetica, sans-serif" font-size="21" font-weight="800" fill="white" stroke="#111" stroke-width="3" paint-order="stroke">41</text>
<circle cx="1144.5" cy="284.5" r="22.3" fill="white" fill-opacity="0.84"/>
<circle cx="1144.5" cy="284.5" r="19.3" fill="#005DFF" fill-opacity="0.66" stroke="#111" stroke-width="2.5"/>
<text x="1144.5" y="291.5" text-anchor="middle" font-family="Arial, Helvetica, sans-serif" font-size="21" font-weight="800" fill="white" stroke="#111" stroke-width="3" paint-order="stroke">42</text>
<circle cx="1395.9" cy="304.2" r="18.7" fill="white" fill-opacity="0.84"/>
<circle cx="1395.9" cy="304.2" r="15.7" fill="#005DFF" fill-opacity="0.66" stroke="#111" stroke-width="2.5"/>
<text x="1395.9" y="311.2" text-anchor="middle" font-family="Arial, Helvetica, sans-serif" font-size="21" font-weight="800" fill="white" stroke="#111" stroke-width="3" paint-order="stroke">43</text>
<circle cx="740.6" cy="213.4" r="12.3" fill="white" fill-opacity="0.84"/>
<circle cx="740.6" cy="213.4" r="9.3" fill="#005DFF" fill-opacity="0.66" stroke="#111" stroke-width="2.5"/>
<text x="740.6" y="220.4" text-anchor="middle" font-family="Arial, Helvetica, sans-serif" font-size="21" font-weight="800" fill="white" stroke="#111" stroke-width="3" paint-order="stroke">44</text>
<circle cx="746.1" cy="345.8" r="18.6" fill="white" fill-opacity="0.84"/>
<circle cx="746.1" cy="345.8" r="15.6" fill="#005DFF" fill-opacity="0.66" stroke="#111" stroke-width="2.5"/>
<text x="746.1" y="352.8" text-anchor="middle" font-family="Arial, Helvetica, sans-serif" font-size="21" font-weight="800" fill="white" stroke="#111" stroke-width="3" paint-order="stroke">45</text>
<circle cx="1136.0" cy="494.6" r="21.1" fill="white" fill-opacity="0.84"/>
<circle cx="1136.0" cy="494.6" r="18.1" fill="#005DFF" fill-opacity="0.66" stroke="#111" stroke-width="2.5"/>
<text x="1136.0" y="501.6" text-anchor="middle" font-family="Arial, Helvetica, sans-serif" font-size="21" font-weight="800" fill="white" stroke="#111" stroke-width="3" paint-order="stroke">46</text>
<circle cx="1109.5" cy="569.5" r="17.6" fill="white" fill-opacity="0.84"/>
<circle cx="1109.5" cy="569.5" r="14.6" fill="#005DFF" fill-opacity="0.66" stroke="#111" stroke-width="2.5"/>
<text x="1109.5" y="576.5" text-anchor="middle" font-family="Arial, Helvetica, sans-serif" font-size="21" font-weight="800" fill="white" stroke="#111" stroke-width="3" paint-order="stroke">47</text>
<circle cx="914.4" cy="362.6" r="13.0" fill="white" fill-opacity="0.84"/>
<circle cx="914.4" cy="362.6" r="10.0" fill="#005DFF" fill-opacity="0.66" stroke="#111" stroke-width="2.5"/>
<text x="914.4" y="369.6" text-anchor="middle" font-family="Arial, Helvetica, sans-serif" font-size="21" font-weight="800" fill="white" stroke="#111" stroke-width="3" paint-order="stroke">48</text>
<circle cx="910.7" cy="450.1" r="15.2" fill="white" fill-opacity="0.84"/>
<circle cx="910.7" cy="450.1" r="12.2" fill="#005DFF" fill-opacity="0.66" stroke="#111" stroke-width="2.5"/>
<text x="910.7" y="457.1" text-anchor="middle" font-family="Arial, Helvetica, sans-serif" font-size="21" font-weight="800" fill="white" stroke="#111" stroke-width="3" paint-order="stroke">49</text>
<circle cx="1083.2" cy="480.0" r="19.9" fill="white" fill-opacity="0.84"/>
<circle cx="1083.2" cy="480.0" r="16.9" fill="#005DFF" fill-opacity="0.66" stroke="#111" stroke-width="2.5"/>
<text x="1083.2" y="487.0" text-anchor="middle" font-family="Arial, Helvetica, sans-serif" font-size="21" font-weight="800" fill="white" stroke="#111" stroke-width="3" paint-order="stroke">50</text>
<circle cx="1249.6" cy="526.0" r="19.8" fill="white" fill-opacity="0.84"/>
<circle cx="1249.6" cy="526.0" r="16.8" fill="#FF8A00" fill-opacity="0.66" stroke="#111" stroke-width="2.5"/>
<text x="1249.6" y="533.0" text-anchor="middle" font-family="Arial, Helvetica, sans-serif" font-size="21" font-weight="800" fill="white" stroke="#111" stroke-width="3" paint-order="stroke">51</text>
<circle cx="1182.4" cy="526.8" r="19.3" fill="white" fill-opacity="0.84"/>
<circle cx="1182.4" cy="526.8" r="16.3" fill="#FF8A00" fill-opacity="0.66" stroke="#111" stroke-width="2.5"/>
<text x="1182.4" y="533.8" text-anchor="middle" font-family="Arial, Helvetica, sans-serif" font-size="21" font-weight="800" fill="white" stroke="#111" stroke-width="3" paint-order="stroke">52</text>
<circle cx="1310.3" cy="570.9" r="17.9" fill="white" fill-opacity="0.84"/>
<circle cx="1310.3" cy="570.9" r="14.9" fill="#FF8A00" fill-opacity="0.66" stroke="#111" stroke-width="2.5"/>
<text x="1310.3" y="577.9" text-anchor="middle" font-family="Arial, Helvetica, sans-serif" font-size="21" font-weight="800" fill="white" stroke="#111" stroke-width="3" paint-order="stroke">53</text>
<circle cx="1095.1" cy="455.4" r="21.9" fill="white" fill-opacity="0.84"/>
<circle cx="1095.1" cy="455.4" r="18.9" fill="#FF8A00" fill-opacity="0.66" stroke="#111" stroke-width="2.5"/>
<text x="1095.1" y="462.4" text-anchor="middle" font-family="Arial, Helvetica, sans-serif" font-size="21" font-weight="800" fill="white" stroke="#111" stroke-width="3" paint-order="stroke">54</text>
<rect x="16" y="1094" width="1120" height="168" rx="8" fill="white" fill-opacity="0.92" stroke="#111" stroke-opacity="0.22"/>
<text x="36.0" y="1128.0" font-family="Arial, Helvetica, sans-serif" font-size="24" font-weight="600" fill="#111">K24 / k24_1.asc block 66 | dress-2-2-r.png | RT 17217 ms | 54 fixations</text>
<text x="36.0" y="1159.0" font-family="Arial, Helvetica, sans-serif" font-size="24" font-weight="600" fill="#111">numbers show fixation order; dot size shows fixation duration</text>
<circle cx="42" cy="1198" r="11" fill="#005DFF" fill-opacity="0.64" stroke="#111" stroke-width="2"/>
<text x="62.0" y="1206.0" font-family="Arial, Helvetica, sans-serif" font-size="22" font-weight="500" fill="#111">blue: before speech onset</text>
<circle cx="42" cy="1232" r="11" fill="#FF8A00" fill-opacity="0.64" stroke="#111" stroke-width="2"/>
<text x="62.0" y="1240.0" font-family="Arial, Helvetica, sans-serif" font-size="22" font-weight="500" fill="#111">orange: first 2000 ms after onset</text>
</svg>
