<svg xmlns="http://www.w3.org/2000/svg" width="2300" height="760" viewBox="0 0 2300 760">
<rect width="100%" height="100%" fill="white"/>
<style>
text { font-family: Arial, Helvetica, sans-serif; fill: #222; }
.title { font-size: 31px; font-weight: 700; }
.subtitle { font-size: 16px; fill: #555; }
.panel-title { font-size: 20px; font-weight: 700; }
.panel-subtitle { font-size: 13px; fill: #555; }
.axis { stroke: #222; stroke-width: 1; }
.grid { stroke: #dddddd; stroke-width: 1; }
.grid-v { stroke: #eeeeee; stroke-width: 1; }
.window-sep { stroke: #999999; stroke-width: 1.15; stroke-dasharray: 5 5; }
.tick { font-size: 12px; fill: #444; }
.mini-tick { font-size: 9px; fill: #777; }
.window-label { font-size: 11px; fill: #333; font-weight: 700; }
.nlabel { font-size: 11px; fill: #555; }
.axis-label { font-size: 15px; fill: #222; }
.legend { font-size: 17px; fill: #222; }
</style>
<text class="title" x="1150.0" y="42" text-anchor="middle">Koryak gaze for unexpected direct/inverse number pairings</text>
<text class="subtitle" x="1150.0" y="70" text-anchor="middle">Clean AVP trials; numbers from stimulus filename; no error-form exclusion</text>
<line x1="1795" x2="1837" y1="92" y2="92" stroke="#CC3311" stroke-width="4"/>
<text class="legend" x="1849" y="98">Agent</text>
<line x1="1950" x2="1992" y1="92" y2="92" stroke="#0077BB" stroke-width="4"/>
<text class="legend" x="2004" y="98">Patient</text>
<rect x="76.00" y="142.00" width="1060.00" height="560.00" fill="white"/>
<text class="panel-title" x="606.00" y="163.00" text-anchor="middle">Direct used for 2-2</text>
<text class="panel-subtitle" x="606.00" y="183.00" text-anchor="middle">sent n=14; gaze n by window=13/13/13/13/13</text>
<line class="grid" x1="134.00" x2="1118.00" y1="652.00" y2="652.00"/>
<text class="tick" x="126.00" y="656.00" text-anchor="end">0</text>
<line class="grid" x1="134.00" x2="1118.00" y1="538.00" y2="538.00"/>
<text class="tick" x="126.00" y="542.00" text-anchor="end">0.25</text>
<line class="grid" x1="134.00" x2="1118.00" y1="424.00" y2="424.00"/>
<text class="tick" x="126.00" y="428.00" text-anchor="end">0.5</text>
<line class="grid" x1="134.00" x2="1118.00" y1="310.00" y2="310.00"/>
<text class="tick" x="126.00" y="314.00" text-anchor="end">0.75</text>
<line class="grid" x1="134.00" x2="1118.00" y1="196.00" y2="196.00"/>
<text class="tick" x="126.00" y="200.00" text-anchor="end">1</text>
<text class="window-label" x="232.40" y="674.00" text-anchor="middle">Planning</text>
<line class="grid-v" x1="134.00" x2="134.00" y1="196.00" y2="652.00"/>
<text class="mini-tick" x="134.00" y="660.00" text-anchor="middle">0</text>
<line class="grid-v" x1="232.40" x2="232.40" y1="196.00" y2="652.00"/>
<line class="grid-v" x1="330.80" x2="330.80" y1="196.00" y2="652.00"/>
<text class="mini-tick" x="330.80" y="660.00" text-anchor="middle">1</text>
<text class="nlabel" x="326.80" y="209.00" text-anchor="end">n=13</text>
<line class="window-sep" x1="330.80" x2="330.80" y1="196.00" y2="652.00"/>
<text class="window-label" x="429.20" y="674.00" text-anchor="middle">LE I</text>
<line class="grid-v" x1="330.80" x2="330.80" y1="196.00" y2="652.00"/>
<text class="mini-tick" x="330.80" y="660.00" text-anchor="middle">0</text>
<line class="grid-v" x1="429.20" x2="429.20" y1="196.00" y2="652.00"/>
<line class="grid-v" x1="527.60" x2="527.60" y1="196.00" y2="652.00"/>
<text class="mini-tick" x="527.60" y="660.00" text-anchor="middle">1</text>
<text class="nlabel" x="523.60" y="209.00" text-anchor="end">n=13</text>
<line class="window-sep" x1="527.60" x2="527.60" y1="196.00" y2="652.00"/>
<text class="window-label" x="626.00" y="674.00" text-anchor="middle">LE II</text>
<line class="grid-v" x1="527.60" x2="527.60" y1="196.00" y2="652.00"/>
<text class="mini-tick" x="527.60" y="660.00" text-anchor="middle">0</text>
<line class="grid-v" x1="626.00" x2="626.00" y1="196.00" y2="652.00"/>
<line class="grid-v" x1="724.40" x2="724.40" y1="196.00" y2="652.00"/>
<text class="mini-tick" x="724.40" y="660.00" text-anchor="middle">1</text>
<text class="nlabel" x="720.40" y="209.00" text-anchor="end">n=13</text>
<line class="window-sep" x1="724.40" x2="724.40" y1="196.00" y2="652.00"/>
<text class="window-label" x="822.80" y="674.00" text-anchor="middle">LE III</text>
<line class="grid-v" x1="724.40" x2="724.40" y1="196.00" y2="652.00"/>
<text class="mini-tick" x="724.40" y="660.00" text-anchor="middle">0</text>
<line class="grid-v" x1="822.80" x2="822.80" y1="196.00" y2="652.00"/>
<line class="grid-v" x1="921.20" x2="921.20" y1="196.00" y2="652.00"/>
<text class="mini-tick" x="921.20" y="660.00" text-anchor="middle">1</text>
<text class="nlabel" x="917.20" y="209.00" text-anchor="end">n=13</text>
<line class="window-sep" x1="921.20" x2="921.20" y1="196.00" y2="652.00"/>
<text class="window-label" x="1019.60" y="674.00" text-anchor="middle">Post 1-2.5s</text>
<line class="grid-v" x1="921.20" x2="921.20" y1="196.00" y2="652.00"/>
<text class="mini-tick" x="921.20" y="660.00" text-anchor="middle">0</text>
<line class="grid-v" x1="1019.60" x2="1019.60" y1="196.00" y2="652.00"/>
<line class="grid-v" x1="1118.00" x2="1118.00" y1="196.00" y2="652.00"/>
<text class="mini-tick" x="1118.00" y="660.00" text-anchor="middle">1</text>
<text class="nlabel" x="1114.00" y="209.00" text-anchor="end">n=13</text>
<line class="axis" x1="134.00" x2="1118.00" y1="652.00" y2="652.00"/>
<line class="axis" x1="134.00" x2="134.00" y1="196.00" y2="652.00"/>
<polygon points="134.00,304.45 153.68,348.03 173.36,327.20 193.04,260.71 212.72,243.30 232.40,254.65 252.08,243.30 271.76,268.56 291.44,255.93 311.12,243.30 330.80,243.30 330.80,499.47 311.12,499.47 291.44,505.08 271.76,514.90 252.08,499.47 232.40,489.52 212.72,499.47 193.04,510.12 173.36,564.29 153.68,570.12 134.00,553.37" fill="#CC3311" opacity="0.10"/>
<path d="M134.00,428.91 L153.68,459.08 L173.36,445.75 L193.04,385.42 L212.72,371.38 L232.40,372.09 L252.08,371.38 L271.76,391.73 L291.44,380.50 L311.12,371.38 L330.80,371.38" fill="none" stroke="#CC3311" stroke-width="2.35" stroke-linejoin="round" stroke-linecap="round"/>
<polygon points="330.80,243.30 340.64,284.09 350.48,354.02 360.32,343.31 370.16,287.17 380.00,305.65 389.84,326.43 399.68,317.29 409.52,234.53 419.36,209.81 429.20,214.80 439.04,196.00 448.88,228.99 458.72,227.27 468.56,196.00 478.40,196.00 488.24,196.00 498.08,196.00 507.92,196.00 517.76,212.02 527.60,248.98 527.60,474.99 517.76,440.55 507.92,370.20 498.08,328.23 488.24,397.50 478.40,361.83 468.56,378.81 458.72,439.55 448.88,467.47 439.04,339.66 429.20,457.82 419.36,425.39 409.52,444.44 399.68,559.89 389.84,597.57 380.00,541.14 370.16,529.56 360.32,585.47 350.48,587.79 340.64,602.67 330.80,499.47" fill="#CC3311" opacity="0.10"/>
<path d="M330.80,371.38 L340.64,443.38 L350.48,470.90 L360.32,464.39 L370.16,408.37 L380.00,423.39 L389.84,462.00 L399.68,438.59 L409.52,339.49 L419.36,317.60 L429.20,336.31 L439.04,256.80 L448.88,348.23 L458.72,333.41 L468.56,283.94 L478.40,272.87 L488.24,293.71 L498.08,254.63 L507.92,278.73 L517.76,326.29 L527.60,361.98" fill="none" stroke="#CC3311" stroke-width="2.35" stroke-linejoin="round" stroke-linecap="round"/>
<polygon points="527.60,233.42 537.44,251.65 547.28,288.57 557.12,196.00 566.96,232.16 576.80,196.00 586.64,218.37 596.48,214.09 606.32,242.41 616.16,196.00 626.00,196.00 635.84,196.00 645.68,196.00 655.52,222.62 665.36,251.99 675.20,231.73 685.04,240.00 694.88,231.29 704.72,196.00 714.56,239.05 724.40,196.00 724.40,346.10 714.56,460.42 704.72,349.65 694.88,459.06 685.04,479.02 675.20,459.93 665.36,489.18 655.52,435.68 645.68,316.26 635.84,230.66 626.00,196.00 616.16,304.93 606.32,465.75 596.48,408.95 586.64,477.63 576.80,341.18 566.96,460.80 557.12,358.59 547.28,532.07 537.44,596.35 527.60,449.02" fill="#CC3311" opacity="0.10"/>
<path d="M527.60,341.22 L537.44,424.00 L547.28,410.32 L557.12,270.26 L566.96,346.48 L576.80,258.62 L586.64,348.00 L596.48,311.52 L606.32,354.08 L616.16,240.38 L626.00,196.00 L635.84,207.55 L645.68,243.70 L655.52,329.15 L665.36,370.58 L675.20,345.83 L685.04,359.51 L694.88,345.18 L704.72,261.14 L714.56,349.74 L724.40,263.56" fill="none" stroke="#CC3311" stroke-width="2.35" stroke-linejoin="round" stroke-linecap="round"/>
<polygon points="724.40,214.80 734.24,219.46 744.08,296.46 753.92,323.91 763.76,362.49 773.60,372.63 783.44,390.18 793.28,390.18 803.12,390.18 812.96,390.18 822.80,390.18 832.64,390.18 842.48,390.18 852.32,390.18 862.16,390.18 872.00,433.23 881.84,435.85 891.68,534.29 901.52,546.77 911.36,546.77 921.20,541.19 921.20,652.00 911.36,652.00 901.52,652.00 891.68,652.00 881.84,652.00 872.00,652.00 862.16,633.20 852.32,633.20 842.48,633.20 832.64,633.20 822.80,633.20 812.96,633.20 803.12,633.20 793.28,633.20 783.44,633.20 773.60,612.87 763.76,596.35 753.92,577.41 744.08,540.32 734.24,460.17 724.40,457.82" fill="#CC3311" opacity="0.10"/>
<path d="M724.40,336.31 L734.24,339.82 L744.08,418.39 L753.92,450.66 L763.76,479.42 L773.60,492.75 L783.44,511.69 L793.28,511.69 L803.12,511.69 L812.96,511.69 L822.80,511.69 L832.64,511.69 L842.48,511.69 L852.32,511.69 L862.16,511.69 L872.00,543.26 L881.84,546.77 L891.68,605.70 L901.52,616.92 L911.36,616.92 L921.20,611.31" fill="none" stroke="#CC3311" stroke-width="2.35" stroke-linejoin="round" stroke-linecap="round"/>
<polygon points="921.20,541.19 927.76,486.86 934.32,444.25 940.88,435.85 947.44,435.85 954.00,435.85 960.56,435.85 967.12,435.85 973.68,435.85 980.24,422.71 986.80,390.18 993.36,390.18 999.92,418.31 1006.48,480.54 1013.04,486.86 1019.60,526.31 1026.16,486.86 1032.72,486.86 1039.28,486.86 1045.84,486.86 1052.40,486.86 1058.96,450.86 1065.52,435.85 1072.08,484.58 1078.64,486.86 1085.20,496.55 1091.76,546.77 1098.32,546.77 1104.88,496.55 1111.44,486.86 1118.00,499.53 1118.00,652.00 1111.44,652.00 1104.88,652.00 1098.32,652.00 1091.76,652.00 1085.20,652.00 1078.64,652.00 1072.08,652.00 1065.52,652.00 1058.96,652.00 1052.40,652.00 1045.84,652.00 1039.28,652.00 1032.72,652.00 1026.16,652.00 1019.60,652.00 1013.04,652.00 1006.48,652.00 999.92,640.15 993.36,633.20 986.80,633.20 980.24,642.77 973.68,652.00 967.12,652.00 960.56,652.00 954.00,652.00 947.44,652.00 940.88,652.00 934.32,652.00 927.76,652.00 921.20,652.00" fill="#CC3311" opacity="0.10"/>
<path d="M921.20,611.31 L927.76,581.85 L934.32,550.98 L940.88,546.77 L947.44,546.77 L954.00,546.77 L960.56,546.77 L967.12,546.77 L973.68,546.77 L980.24,532.74 L986.80,511.69 L993.36,511.69 L999.92,529.23 L1006.48,574.83 L1013.04,581.85 L1019.60,597.98 L1026.16,581.85 L1032.72,581.85 L1039.28,581.85 L1045.84,581.85 L1052.40,581.85 L1058.96,554.49 L1065.52,546.77 L1072.08,579.04 L1078.64,581.85 L1085.20,586.06 L1091.76,616.92 L1098.32,616.92 L1104.88,586.06 L1111.44,581.85 L1118.00,586.06" fill="none" stroke="#CC3311" stroke-width="2.35" stroke-linejoin="round" stroke-linecap="round"/>
<polygon points="134.00,546.77 153.68,449.93 173.36,414.48 193.04,435.85 212.72,419.22 232.40,390.18 252.08,390.18 271.76,377.16 291.44,348.53 311.12,348.53 330.80,348.53 330.80,604.70 311.12,604.70 291.44,604.70 271.76,615.36 252.08,633.20 232.40,633.20 212.72,640.64 193.04,652.00 173.36,638.37 153.68,645.01 134.00,652.00" fill="#0077BB" opacity="0.10"/>
<path d="M134.00,616.92 L153.68,547.47 L173.36,526.42 L193.04,546.77 L212.72,529.93 L232.40,511.69 L252.08,511.69 L271.76,496.26 L291.44,476.62 L311.12,476.62 L330.80,476.62" fill="none" stroke="#0077BB" stroke-width="2.35" stroke-linejoin="round" stroke-linecap="round"/>
<polygon points="330.80,348.53 340.64,248.55 350.48,265.53 360.32,338.67 370.16,335.57 380.00,350.19 389.84,286.51 399.68,305.68 409.52,409.11 419.36,422.61 429.20,390.18 439.04,551.98 448.88,527.24 458.72,573.57 468.56,652.00 478.40,532.27 488.24,498.35 498.08,551.20 507.92,481.70 517.76,517.32 527.60,463.30 527.60,652.00 517.76,652.00 507.92,652.00 498.08,652.00 488.24,652.00 478.40,652.00 468.56,652.00 458.72,652.00 448.88,652.00 439.04,652.00 429.20,633.20 419.36,638.19 409.52,618.85 399.68,538.67 389.84,561.49 380.00,589.01 370.16,582.78 360.32,577.08 350.48,513.42 340.64,578.93 330.80,604.70" fill="#0077BB" opacity="0.10"/>
<path d="M330.80,476.62 L340.64,413.74 L350.48,389.47 L360.32,457.87 L370.16,459.18 L380.00,469.60 L389.84,424.00 L399.68,422.18 L409.52,513.98 L419.36,530.40 L429.20,511.69 L439.04,613.70 L448.88,601.49 L458.72,625.86 L468.56,652.00 L478.40,599.89 L488.24,586.86 L498.08,616.17 L507.92,571.87 L517.76,595.33 L527.60,560.80" fill="none" stroke="#0077BB" stroke-width="2.35" stroke-linejoin="round" stroke-linecap="round"/>
<polygon points="527.60,486.86 537.44,442.64 547.28,450.50 557.12,502.91 566.96,462.46 576.80,560.80 586.64,473.52 596.48,560.80 606.32,573.57 616.16,652.00 626.00,652.00 635.84,626.46 645.68,555.19 655.52,500.59 665.36,450.50 675.20,407.45 685.04,414.56 694.88,434.63 704.72,498.35 714.56,402.49 724.40,508.34 724.40,652.00 714.56,627.91 704.72,652.00 694.88,641.37 685.04,636.69 675.20,635.98 665.36,652.00 655.52,652.00 645.68,652.00 635.84,652.00 626.00,652.00 616.16,652.00 606.32,652.00 596.48,652.00 586.64,652.00 576.80,652.00 566.96,652.00 557.12,652.00 547.28,652.00 537.44,652.00 527.60,652.00" fill="#0077BB" opacity="0.10"/>
<path d="M527.60,581.85 L537.44,564.22 L547.28,554.29 L557.12,588.81 L566.96,560.15 L576.80,621.60 L586.64,576.00 L596.48,621.60 L606.32,625.86 L616.16,652.00 L626.00,652.00 L635.84,643.49 L645.68,619.73 L655.52,583.30 L665.36,554.29 L675.20,521.71 L685.04,525.62 L694.88,538.00 L704.72,586.86 L714.56,515.20 L724.40,591.20" fill="none" stroke="#0077BB" stroke-width="2.35" stroke-linejoin="round" stroke-linecap="round"/>
<polygon points="724.40,435.85 734.24,435.85 744.08,356.87 753.92,345.98 763.76,297.93 773.60,254.70 783.44,241.73 793.28,243.30 803.12,239.28 812.96,254.59 822.80,322.26 832.64,348.53 842.48,346.57 852.32,335.00 862.16,348.53 872.00,287.62 881.84,241.73 891.68,220.34 901.52,214.80 911.36,211.80 921.20,207.02 921.20,410.87 911.36,439.77 901.52,457.82 891.68,460.69 881.84,488.41 872.00,523.90 862.16,604.70 852.32,584.56 842.48,575.79 832.64,604.70 822.80,574.85 812.96,492.39 803.12,483.85 793.28,499.47 783.44,488.41 773.60,490.88 763.76,550.07 753.92,598.83 744.08,606.19 734.24,652.00 724.40,652.00" fill="#0077BB" opacity="0.10"/>
<path d="M724.40,546.77 L734.24,546.77 L744.08,481.53 L753.92,472.41 L763.76,424.00 L773.60,372.79 L783.44,365.07 L793.28,371.38 L803.12,361.56 L812.96,373.49 L822.80,448.55 L832.64,476.62 L842.48,461.18 L852.32,459.78 L862.16,476.62 L872.00,405.76 L881.84,365.07 L891.68,340.52 L901.52,336.31 L911.36,325.78 L921.20,308.95" fill="none" stroke="#0077BB" stroke-width="2.35" stroke-linejoin="round" stroke-linecap="round"/>
<polygon points="921.20,207.02 927.76,196.00 934.32,214.58 940.88,214.80 947.44,214.80 954.00,234.59 960.56,248.23 967.12,275.22 973.68,274.66 980.24,277.79 986.80,285.27 993.36,274.66 999.92,261.63 1006.48,226.08 1013.04,235.03 1019.60,214.80 1026.16,237.13 1032.72,243.30 1039.28,246.15 1045.84,245.60 1052.40,218.56 1058.96,241.64 1065.52,243.30 1072.08,222.90 1078.64,214.80 1085.20,239.98 1091.76,214.80 1098.32,214.80 1104.88,214.80 1111.44,240.38 1118.00,273.72 1118.00,532.18 1111.44,486.95 1104.88,457.82 1098.32,457.82 1091.76,457.82 1085.20,483.15 1078.64,457.82 1072.08,462.34 1065.52,499.47 1058.96,491.31 1052.40,459.67 1045.84,492.96 1039.28,495.21 1032.72,499.47 1026.16,478.98 1019.60,457.82 1013.04,465.65 1006.48,464.78 999.92,503.59 993.36,535.46 986.80,541.69 980.24,519.70 973.68,535.46 967.12,537.71 960.56,501.56 954.00,474.50 947.44,457.82 940.88,457.82 934.32,455.23 927.76,412.15 921.20,410.87" fill="#0077BB" opacity="0.10"/>
<path d="M921.20,308.95 L927.76,301.23 L934.32,334.90 L940.88,336.31 L947.44,336.31 L954.00,354.55 L960.56,374.89 L967.12,406.46 L973.68,405.06 L980.24,398.74 L986.80,413.48 L993.36,405.06 L999.92,382.61 L1006.48,345.43 L1013.04,350.34 L1019.60,336.31 L1026.16,358.06 L1032.72,371.38 L1039.28,370.68 L1045.84,369.28 L1052.40,339.11 L1058.96,366.47 L1065.52,371.38 L1072.08,342.62 L1078.64,336.31 L1085.20,361.56 L1091.76,336.31 L1098.32,336.31 L1104.88,336.31 L1111.44,363.67 L1118.00,402.95" fill="none" stroke="#0077BB" stroke-width="2.35" stroke-linejoin="round" stroke-linecap="round"/>
<rect x="1186.00" y="142.00" width="1060.00" height="560.00" fill="white"/>
<text class="panel-title" x="1716.00" y="163.00" text-anchor="middle">Inverse used for 1-1</text>
<text class="panel-subtitle" x="1716.00" y="183.00" text-anchor="middle">sent n=2; gaze n by window=2/2/2/2/2</text>
<line class="grid" x1="1220.00" x2="2228.00" y1="652.00" y2="652.00"/>
<line class="grid" x1="1220.00" x2="2228.00" y1="538.00" y2="538.00"/>
<line class="grid" x1="1220.00" x2="2228.00" y1="424.00" y2="424.00"/>
<line class="grid" x1="1220.00" x2="2228.00" y1="310.00" y2="310.00"/>
<line class="grid" x1="1220.00" x2="2228.00" y1="196.00" y2="196.00"/>
<text class="window-label" x="1320.80" y="674.00" text-anchor="middle">Planning</text>
<line class="grid-v" x1="1220.00" x2="1220.00" y1="196.00" y2="652.00"/>
<text class="mini-tick" x="1220.00" y="660.00" text-anchor="middle">0</text>
<line class="grid-v" x1="1320.80" x2="1320.80" y1="196.00" y2="652.00"/>
<line class="grid-v" x1="1421.60" x2="1421.60" y1="196.00" y2="652.00"/>
<text class="mini-tick" x="1421.60" y="660.00" text-anchor="middle">1</text>
<text class="nlabel" x="1417.60" y="209.00" text-anchor="end">n=2</text>
<line class="window-sep" x1="1421.60" x2="1421.60" y1="196.00" y2="652.00"/>
<text class="window-label" x="1522.40" y="674.00" text-anchor="middle">LE I</text>
<line class="grid-v" x1="1421.60" x2="1421.60" y1="196.00" y2="652.00"/>
<text class="mini-tick" x="1421.60" y="660.00" text-anchor="middle">0</text>
<line class="grid-v" x1="1522.40" x2="1522.40" y1="196.00" y2="652.00"/>
<line class="grid-v" x1="1623.20" x2="1623.20" y1="196.00" y2="652.00"/>
<text class="mini-tick" x="1623.20" y="660.00" text-anchor="middle">1</text>
<text class="nlabel" x="1619.20" y="209.00" text-anchor="end">n=2</text>
<line class="window-sep" x1="1623.20" x2="1623.20" y1="196.00" y2="652.00"/>
<text class="window-label" x="1724.00" y="674.00" text-anchor="middle">LE II</text>
<line class="grid-v" x1="1623.20" x2="1623.20" y1="196.00" y2="652.00"/>
<text class="mini-tick" x="1623.20" y="660.00" text-anchor="middle">0</text>
<line class="grid-v" x1="1724.00" x2="1724.00" y1="196.00" y2="652.00"/>
<line class="grid-v" x1="1824.80" x2="1824.80" y1="196.00" y2="652.00"/>
<text class="mini-tick" x="1824.80" y="660.00" text-anchor="middle">1</text>
<text class="nlabel" x="1820.80" y="209.00" text-anchor="end">n=2</text>
<line class="window-sep" x1="1824.80" x2="1824.80" y1="196.00" y2="652.00"/>
<text class="window-label" x="1925.60" y="674.00" text-anchor="middle">LE III</text>
<line class="grid-v" x1="1824.80" x2="1824.80" y1="196.00" y2="652.00"/>
<text class="mini-tick" x="1824.80" y="660.00" text-anchor="middle">0</text>
<line class="grid-v" x1="1925.60" x2="1925.60" y1="196.00" y2="652.00"/>
<line class="grid-v" x1="2026.40" x2="2026.40" y1="196.00" y2="652.00"/>
<text class="mini-tick" x="2026.40" y="660.00" text-anchor="middle">1</text>
<text class="nlabel" x="2022.40" y="209.00" text-anchor="end">n=2</text>
<line class="window-sep" x1="2026.40" x2="2026.40" y1="196.00" y2="652.00"/>
<text class="window-label" x="2127.20" y="674.00" text-anchor="middle">Post 1-2.5s</text>
<line class="grid-v" x1="2026.40" x2="2026.40" y1="196.00" y2="652.00"/>
<text class="mini-tick" x="2026.40" y="660.00" text-anchor="middle">0</text>
<line class="grid-v" x1="2127.20" x2="2127.20" y1="196.00" y2="652.00"/>
<line class="grid-v" x1="2228.00" x2="2228.00" y1="196.00" y2="652.00"/>
<text class="mini-tick" x="2228.00" y="660.00" text-anchor="middle">1</text>
<text class="nlabel" x="2224.00" y="209.00" text-anchor="end">n=2</text>
<line class="axis" x1="1220.00" x2="2228.00" y1="652.00" y2="652.00"/>
<line class="axis" x1="1220.00" x2="1220.00" y1="196.00" y2="652.00"/>
<polygon points="1220.00,196.00 1240.16,196.00 1260.32,196.00 1280.48,196.00 1300.64,196.00 1320.80,652.00 1340.96,652.00 1361.12,652.00 1381.28,501.52 1401.44,196.00 1421.60,196.00 1421.60,652.00 1401.44,652.00 1381.28,652.00 1361.12,652.00 1340.96,652.00 1320.80,652.00 1300.64,652.00 1280.48,652.00 1260.32,196.00 1240.16,196.00 1220.00,196.00" fill="#CC3311" opacity="0.10"/>
<path d="M1220.00,196.00 L1240.16,196.00 L1260.32,196.00 L1280.48,424.00 L1300.64,424.00 L1320.80,652.00 L1340.96,652.00 L1361.12,652.00 L1381.28,601.84 L1401.44,424.00 L1421.60,387.52" fill="none" stroke="#CC3311" stroke-width="2.35" stroke-linejoin="round" stroke-linecap="round"/>
<polygon points="1421.60,196.00 1431.68,196.00 1441.76,196.00 1451.84,196.00 1461.92,196.00 1472.00,196.00 1482.08,196.00 1492.16,196.00 1502.24,196.00 1512.32,196.00 1522.40,196.00 1532.48,196.00 1542.56,196.00 1552.64,196.00 1562.72,196.00 1572.80,196.00 1582.88,196.00 1592.96,196.00 1603.04,196.00 1613.12,196.00 1623.20,196.00 1623.20,196.00 1613.12,196.00 1603.04,196.00 1592.96,196.00 1582.88,196.00 1572.80,196.00 1562.72,424.00 1552.64,652.00 1542.56,257.56 1532.48,196.00 1522.40,196.00 1512.32,616.55 1502.24,230.20 1492.16,196.00 1482.08,196.00 1472.00,196.00 1461.92,196.00 1451.84,196.00 1441.76,196.00 1431.68,196.00 1421.60,652.00" fill="#CC3311" opacity="0.10"/>
<path d="M1421.60,386.78 L1431.68,196.00 L1441.76,196.00 L1451.84,196.00 L1461.92,196.00 L1472.00,196.00 L1482.08,196.00 L1492.16,196.00 L1502.24,207.40 L1512.32,387.52 L1522.40,196.00 L1532.48,196.00 L1542.56,216.52 L1552.64,500.00 L1562.72,272.00 L1572.80,196.00 L1582.88,196.00 L1592.96,196.00 L1603.04,196.00 L1613.12,196.00 L1623.20,196.00" fill="none" stroke="#CC3311" stroke-width="2.35" stroke-linejoin="round" stroke-linecap="round"/>
<polygon points="1623.20,196.00 1633.28,196.00 1643.36,196.00 1653.44,196.00 1663.52,196.00 1673.60,196.00 1683.68,310.00 1693.76,652.00 1703.84,310.00 1713.92,310.00 1724.00,652.00 1734.08,303.93 1744.16,196.00 1754.24,196.00 1764.32,196.00 1774.40,196.00 1784.48,196.00 1794.56,196.00 1804.64,196.00 1814.72,196.00 1824.80,196.00 1824.80,563.02 1814.72,538.00 1804.64,538.00 1794.56,196.00 1784.48,538.00 1774.40,538.00 1764.32,196.00 1754.24,652.00 1744.16,353.32 1734.08,652.00 1724.00,652.00 1713.92,652.00 1703.84,652.00 1693.76,652.00 1683.68,652.00 1673.60,549.90 1663.52,196.00 1653.44,196.00 1643.36,196.00 1633.28,196.00 1623.20,196.00" fill="#CC3311" opacity="0.10"/>
<path d="M1623.20,196.00 L1633.28,196.00 L1643.36,196.00 L1653.44,196.00 L1663.52,196.00 L1673.60,332.80 L1683.68,538.00 L1693.76,652.00 L1703.84,538.00 L1713.92,538.00 L1724.00,652.00 L1734.08,524.32 L1744.16,248.44 L1754.24,348.00 L1764.32,196.00 L1774.40,310.00 L1784.48,310.00 L1794.56,196.00 L1804.64,310.00 L1814.72,310.00 L1824.80,318.34" fill="none" stroke="#CC3311" stroke-width="2.35" stroke-linejoin="round" stroke-linecap="round"/>
<polygon points="1824.80,652.00 1834.88,652.00 1844.96,652.00 1855.04,652.00 1865.12,652.00 1875.20,652.00 1885.28,652.00 1895.36,652.00 1905.44,652.00 1915.52,652.00 1925.60,652.00 1935.68,652.00 1945.76,652.00 1955.84,652.00 1965.92,652.00 1976.00,652.00 1986.08,652.00 1996.16,652.00 2006.24,652.00 2016.32,652.00 2026.40,652.00 2026.40,652.00 2016.32,652.00 2006.24,652.00 1996.16,652.00 1986.08,652.00 1976.00,652.00 1965.92,652.00 1955.84,652.00 1945.76,652.00 1935.68,652.00 1925.60,652.00 1915.52,652.00 1905.44,652.00 1895.36,652.00 1885.28,652.00 1875.20,652.00 1865.12,652.00 1855.04,652.00 1844.96,652.00 1834.88,652.00 1824.80,652.00" fill="#CC3311" opacity="0.10"/>
<path d="M1824.80,652.00 L1834.88,652.00 L1844.96,652.00 L1855.04,652.00 L1865.12,652.00 L1875.20,652.00 L1885.28,652.00 L1895.36,652.00 L1905.44,652.00 L1915.52,652.00 L1925.60,652.00 L1935.68,652.00 L1945.76,652.00 L1955.84,652.00 L1965.92,652.00 L1976.00,652.00 L1986.08,652.00 L1996.16,652.00 L2006.24,652.00 L2016.32,652.00 L2026.40,652.00" fill="none" stroke="#CC3311" stroke-width="2.35" stroke-linejoin="round" stroke-linecap="round"/>
<polygon points="2026.40,652.00 2033.12,652.00 2039.84,652.00 2046.56,652.00 2053.28,652.00 2060.00,652.00 2066.72,652.00 2073.44,652.00 2080.16,652.00 2086.88,652.00 2093.60,652.00 2100.32,652.00 2107.04,196.00 2113.76,196.00 2120.48,196.00 2127.20,196.00 2133.92,196.00 2140.64,196.00 2147.36,196.00 2154.08,487.84 2160.80,652.00 2167.52,652.00 2174.24,652.00 2180.96,652.00 2187.68,652.00 2194.40,652.00 2201.12,652.00 2207.84,652.00 2214.56,652.00 2221.28,652.00 2228.00,652.00 2228.00,652.00 2221.28,652.00 2214.56,652.00 2207.84,652.00 2201.12,652.00 2194.40,652.00 2187.68,652.00 2180.96,652.00 2174.24,652.00 2167.52,652.00 2160.80,652.00 2154.08,652.00 2147.36,652.00 2140.64,652.00 2133.92,652.00 2127.20,652.00 2120.48,652.00 2113.76,652.00 2107.04,652.00 2100.32,652.00 2093.60,652.00 2086.88,652.00 2080.16,652.00 2073.44,652.00 2066.72,652.00 2060.00,652.00 2053.28,652.00 2046.56,652.00 2039.84,652.00 2033.12,652.00 2026.40,652.00" fill="#CC3311" opacity="0.10"/>
<path d="M2026.40,652.00 L2033.12,652.00 L2039.84,652.00 L2046.56,652.00 L2053.28,652.00 L2060.00,652.00 L2066.72,652.00 L2073.44,652.00 L2080.16,652.00 L2086.88,652.00 L2093.60,652.00 L2100.32,652.00 L2107.04,465.04 L2113.76,424.00 L2120.48,424.00 L2127.20,424.00 L2133.92,424.00 L2140.64,424.00 L2147.36,424.00 L2154.08,597.28 L2160.80,652.00 L2167.52,652.00 L2174.24,652.00 L2180.96,652.00 L2187.68,652.00 L2194.40,652.00 L2201.12,652.00 L2207.84,652.00 L2214.56,652.00 L2221.28,652.00 L2228.00,652.00" fill="none" stroke="#CC3311" stroke-width="2.35" stroke-linejoin="round" stroke-linecap="round"/>
<polygon points="1220.00,652.00 1240.16,652.00 1260.32,652.00 1280.48,196.00 1300.64,196.00 1320.80,196.00 1340.96,196.00 1361.12,196.00 1381.28,246.16 1401.44,652.00 1421.60,652.00 1421.60,652.00 1401.44,652.00 1381.28,652.00 1361.12,196.00 1340.96,196.00 1320.80,483.28 1300.64,652.00 1280.48,652.00 1260.32,652.00 1240.16,652.00 1220.00,652.00" fill="#0077BB" opacity="0.10"/>
<path d="M1220.00,652.00 L1240.16,652.00 L1260.32,652.00 L1280.48,451.36 L1300.64,424.00 L1320.80,291.76 L1340.96,196.00 L1361.12,196.00 L1381.28,455.92 L1401.44,652.00 L1421.60,652.00" fill="none" stroke="#0077BB" stroke-width="2.35" stroke-linejoin="round" stroke-linecap="round"/>
<polygon points="1421.60,652.00 1431.68,652.00 1441.76,652.00 1451.84,652.00 1461.92,652.00 1472.00,652.00 1482.08,652.00 1492.16,652.00 1502.24,652.00 1512.32,652.00 1522.40,652.00 1532.48,652.00 1542.56,652.00 1552.64,652.00 1562.72,652.00 1572.80,652.00 1582.88,652.00 1592.96,652.00 1603.04,652.00 1613.12,652.00 1623.20,652.00 1623.20,652.00 1613.12,652.00 1603.04,652.00 1592.96,652.00 1582.88,652.00 1572.80,652.00 1562.72,652.00 1552.64,652.00 1542.56,652.00 1532.48,652.00 1522.40,652.00 1512.32,652.00 1502.24,652.00 1492.16,652.00 1482.08,652.00 1472.00,652.00 1461.92,652.00 1451.84,652.00 1441.76,652.00 1431.68,652.00 1421.60,652.00" fill="#0077BB" opacity="0.10"/>
<path d="M1421.60,652.00 L1431.68,652.00 L1441.76,652.00 L1451.84,652.00 L1461.92,652.00 L1472.00,652.00 L1482.08,652.00 L1492.16,652.00 L1502.24,652.00 L1512.32,652.00 L1522.40,652.00 L1532.48,652.00 L1542.56,652.00 L1552.64,652.00 L1562.72,652.00 L1572.80,652.00 L1582.88,652.00 L1592.96,652.00 L1603.04,652.00 L1613.12,652.00 L1623.20,652.00" fill="none" stroke="#0077BB" stroke-width="2.35" stroke-linejoin="round" stroke-linecap="round"/>
<polygon points="1623.20,652.00 1633.28,652.00 1643.36,652.00 1653.44,652.00 1663.52,652.00 1673.60,305.15 1683.68,196.00 1693.76,196.00 1703.84,196.00 1713.92,196.00 1724.00,196.00 1734.08,652.00 1744.16,652.00 1754.24,652.00 1764.32,652.00 1774.40,474.16 1784.48,310.00 1794.56,652.00 1804.64,549.40 1814.72,652.00 1824.80,652.00 1824.80,652.00 1814.72,652.00 1804.64,652.00 1794.56,652.00 1784.48,652.00 1774.40,652.00 1764.32,652.00 1754.24,652.00 1744.16,652.00 1734.08,652.00 1724.00,592.72 1713.92,538.00 1703.84,546.80 1693.76,196.00 1683.68,538.00 1673.60,652.00 1663.52,652.00 1653.44,652.00 1643.36,652.00 1633.28,652.00 1623.20,652.00" fill="#0077BB" opacity="0.10"/>
<path d="M1623.20,652.00 L1633.28,652.00 L1643.36,652.00 L1653.44,652.00 L1663.52,652.00 L1673.60,526.60 L1683.68,310.00 L1693.76,196.00 L1703.84,328.24 L1713.92,310.00 L1724.00,328.24 L1734.08,652.00 L1744.16,652.00 L1754.24,652.00 L1764.32,652.00 L1774.40,592.72 L1784.48,538.00 L1794.56,652.00 L1804.64,617.80 L1814.72,652.00 L1824.80,652.00" fill="none" stroke="#0077BB" stroke-width="2.35" stroke-linejoin="round" stroke-linecap="round"/>
<polygon points="1824.80,652.00 1834.88,378.40 1844.96,196.00 1855.04,196.00 1865.12,196.00 1875.20,196.00 1885.28,196.00 1895.36,196.00 1905.44,196.00 1915.52,196.00 1925.60,196.00 1935.68,196.00 1945.76,196.00 1955.84,196.00 1965.92,196.00 1976.00,196.00 1986.08,196.00 1996.16,196.00 2006.24,196.00 2016.32,196.00 2026.40,196.00 2026.40,652.00 2016.32,652.00 2006.24,209.68 1996.16,196.00 1986.08,196.00 1976.00,196.00 1965.92,196.00 1955.84,196.00 1945.76,196.00 1935.68,196.00 1925.60,196.00 1915.52,196.00 1905.44,196.00 1895.36,196.00 1885.28,196.00 1875.20,196.00 1865.12,196.00 1855.04,524.32 1844.96,652.00 1834.88,652.00 1824.80,652.00" fill="#0077BB" opacity="0.10"/>
<path d="M1824.80,652.00 L1834.88,560.80 L1844.96,424.00 L1855.04,305.44 L1865.12,196.00 L1875.20,196.00 L1885.28,196.00 L1895.36,196.00 L1905.44,196.00 L1915.52,196.00 L1925.60,196.00 L1935.68,196.00 L1945.76,196.00 L1955.84,196.00 L1965.92,196.00 L1976.00,196.00 L1986.08,196.00 L1996.16,196.00 L2006.24,200.56 L2016.32,424.00 L2026.40,424.00" fill="none" stroke="#0077BB" stroke-width="2.35" stroke-linejoin="round" stroke-linecap="round"/>
<polygon points="2026.40,196.00 2033.12,196.00 2039.84,196.00 2046.56,196.00 2053.28,196.00 2060.00,196.00 2066.72,196.00 2073.44,196.00 2080.16,196.00 2086.88,196.00 2093.60,196.00 2100.32,196.00 2107.04,196.00 2113.76,196.00 2120.48,196.00 2127.20,196.00 2133.92,196.00 2140.64,196.00 2147.36,196.00 2154.08,196.00 2160.80,196.00 2167.52,196.00 2174.24,196.00 2180.96,196.00 2187.68,196.00 2194.40,196.00 2201.12,196.00 2207.84,196.00 2214.56,196.00 2221.28,196.00 2228.00,196.00 2228.00,196.00 2221.28,196.00 2214.56,196.00 2207.84,196.00 2201.12,196.00 2194.40,196.00 2187.68,196.00 2180.96,196.00 2174.24,196.00 2167.52,196.00 2160.80,196.00 2154.08,414.88 2147.36,652.00 2140.64,652.00 2133.92,652.00 2127.20,652.00 2120.48,652.00 2113.76,652.00 2107.04,652.00 2100.32,196.00 2093.60,291.76 2086.88,196.00 2080.16,196.00 2073.44,196.00 2066.72,196.00 2060.00,196.00 2053.28,196.00 2046.56,196.00 2039.84,652.00 2033.12,652.00 2026.40,652.00" fill="#0077BB" opacity="0.10"/>
<path d="M2026.40,424.00 L2033.12,424.00 L2039.84,373.84 L2046.56,196.00 L2053.28,196.00 L2060.00,196.00 L2066.72,196.00 L2073.44,196.00 L2080.16,196.00 L2086.88,196.00 L2093.60,227.92 L2100.32,196.00 L2107.04,419.44 L2113.76,424.00 L2120.48,424.00 L2127.20,424.00 L2133.92,424.00 L2140.64,424.00 L2147.36,424.00 L2154.08,268.96 L2160.80,196.00 L2167.52,196.00 L2174.24,196.00 L2180.96,196.00 L2187.68,196.00 L2194.40,196.00 L2201.12,196.00 L2207.84,196.00 L2214.56,196.00 L2221.28,196.00 L2228.00,196.00" fill="none" stroke="#0077BB" stroke-width="2.35" stroke-linejoin="round" stroke-linecap="round"/>
<text class="axis-label" x="31" y="422.0" text-anchor="middle" transform="rotate(-90 31 422.0)">Proportion of looks</text>
</svg>